<svg id="Layer_1" data-name="Layer 1" xmlns="http://www.w3.org/2000/svg" viewBox="0 0 320.94 126.65"><defs><style>.cls-1{fill:#fff;}.cls-2{fill:#1073dd;}.cls-3{fill:#093f70;}</style></defs><rect class="cls-1" y="-0.49" width="320.94" height="127.15" rx="4.84"/><path class="cls-2" d="M66.71,17.11a2.23,2.23,0,0,0-.92-.93,2.75,2.75,0,0,0-1.37-.33,2.9,2.9,0,0,0-1.54.4,2.65,2.65,0,0,0-1.05,1.12,3.47,3.47,0,0,0-.38,1.68,3.64,3.64,0,0,0,.38,1.7,2.75,2.75,0,0,0,1.07,1.12,3.09,3.09,0,0,0,1.6.4,2.73,2.73,0,0,0,1.83-.6A2.84,2.84,0,0,0,67.27,20H63.91v-1.5h5.3v1.71a4.74,4.74,0,0,1-.85,1.89,4.67,4.67,0,0,1-1.65,1.39,4.91,4.91,0,0,1-2.28.53,5.08,5.08,0,0,1-2.55-.64,4.64,4.64,0,0,1-1.8-1.77,5.09,5.09,0,0,1-.65-2.57,5.16,5.16,0,0,1,.65-2.59,4.73,4.73,0,0,1,1.8-1.78,5.49,5.49,0,0,1,5.41.17A4.14,4.14,0,0,1,69,17.11Z"/><path class="cls-2" d="M77.81,20.66H72.14A2,2,0,0,0,72.73,22a1.82,1.82,0,0,0,1.28.48,1.6,1.6,0,0,0,1.55-.94h2.11a3.5,3.5,0,0,1-1.28,1.84,3.79,3.79,0,0,1-2.34.72,4,4,0,0,1-2-.5,3.53,3.53,0,0,1-1.39-1.4,4.34,4.34,0,0,1-.49-2.1A4.37,4.37,0,0,1,70.65,18,3.42,3.42,0,0,1,72,16.55a4.18,4.18,0,0,1,2-.49,4,4,0,0,1,2,.48,3.4,3.4,0,0,1,1.36,1.35,4.09,4.09,0,0,1,.48,2A4.42,4.42,0,0,1,77.81,20.66Zm-2-1.32a1.54,1.54,0,0,0-.55-1.21,1.93,1.93,0,0,0-1.3-.46,1.79,1.79,0,0,0-1.22.44,2,2,0,0,0-.61,1.23Z"/><path class="cls-2" d="M80.56,23.73a3.06,3.06,0,0,1-1.2-.93,2.41,2.41,0,0,1-.48-1.3h2a1.13,1.13,0,0,0,.44.74,1.59,1.59,0,0,0,1,.29,1.51,1.51,0,0,0,.88-.22.68.68,0,0,0,.31-.58.6.6,0,0,0-.38-.56,7,7,0,0,0-1.23-.42,10.33,10.33,0,0,1-1.42-.43,2.48,2.48,0,0,1-1-.69,1.8,1.8,0,0,1-.4-1.24,2,2,0,0,1,.37-1.18,2.55,2.55,0,0,1,1.07-.84,4,4,0,0,1,1.63-.31,3.29,3.29,0,0,1,2.21.7,2.57,2.57,0,0,1,.91,1.87H83.37a1,1,0,0,0-.38-.74,1.77,1.77,0,0,0-1.74-.08.64.64,0,0,0-.29.55.63.63,0,0,0,.4.59,5.62,5.62,0,0,0,1.21.42A10.19,10.19,0,0,1,84,19.8a2.55,2.55,0,0,1,1,.69,2,2,0,0,1,.41,1.24A2.13,2.13,0,0,1,85,22.94a2.46,2.46,0,0,1-1.07.83,4.47,4.47,0,0,1-3.32,0Z"/><path class="cls-2" d="M89.21,17.8v3.75a.74.74,0,0,0,.19.57.93.93,0,0,0,.64.17H91V24H89.71a2.16,2.16,0,0,1-2.47-2.41V17.8h-.93V16.19h.93V14.27h2v1.92H91V17.8Z"/><path class="cls-2" d="M92.49,14.94a1.09,1.09,0,0,1-.34-.82,1.08,1.08,0,0,1,.34-.82,1.2,1.2,0,0,1,.86-.33,1.17,1.17,0,0,1,.86.33,1.09,1.09,0,0,1,.35.82,1.1,1.1,0,0,1-.35.82,1.17,1.17,0,0,1-.86.33A1.2,1.2,0,0,1,92.49,14.94Zm1.83,1.25V24h-2V16.19Z"/><path class="cls-2" d="M97.68,23.57a3.58,3.58,0,0,1-1.41-1.4,4.24,4.24,0,0,1-.51-2.1,4.09,4.09,0,0,1,.53-2.1,3.66,3.66,0,0,1,1.43-1.41,4.37,4.37,0,0,1,4.06,0A3.62,3.62,0,0,1,103.22,18a4.43,4.43,0,0,1,0,4.2,3.75,3.75,0,0,1-1.45,1.4,4.15,4.15,0,0,1-2,.5A4,4,0,0,1,97.68,23.57Zm3-1.47a1.92,1.92,0,0,0,.75-.77,2.72,2.72,0,0,0,.28-1.26,2.31,2.31,0,0,0-.59-1.7,1.89,1.89,0,0,0-1.42-.6,1.85,1.85,0,0,0-1.4.6,2.34,2.34,0,0,0-.57,1.7,2.4,2.4,0,0,0,.55,1.7,1.82,1.82,0,0,0,1.4.59A2,2,0,0,0,100.7,22.1Zm.66-8-3.22,1.47v-1.4l3.22-1.67Z"/><path class="cls-2" d="M111.72,17a3.37,3.37,0,0,1,.86,2.45V24h-2V19.66a2,2,0,0,0-.47-1.42,1.62,1.62,0,0,0-1.26-.5,1.68,1.68,0,0,0-1.28.5,2,2,0,0,0-.47,1.42V24h-2V16.19h2v1a2.81,2.81,0,0,1,1-.8,3.16,3.16,0,0,1,1.34-.28A3,3,0,0,1,111.72,17Z"/><path class="cls-2" d="M117.9,14.94a1.09,1.09,0,0,1-.34-.82,1.08,1.08,0,0,1,.34-.82,1.2,1.2,0,0,1,.86-.33,1.17,1.17,0,0,1,.86.33,1.09,1.09,0,0,1,.35.82,1.1,1.1,0,0,1-.35.82,1.17,1.17,0,0,1-.86.33A1.2,1.2,0,0,1,117.9,14.94Zm1.83,1.25V24h-2V16.19Z"/><path class="cls-2" d="M128.2,17a3.37,3.37,0,0,1,.85,2.45V24h-2V19.66a2,2,0,0,0-.46-1.42,1.65,1.65,0,0,0-1.26-.5,1.68,1.68,0,0,0-1.28.5,2,2,0,0,0-.47,1.42V24h-2V16.19h2v1a2.81,2.81,0,0,1,1-.8,3.12,3.12,0,0,1,1.34-.28A3,3,0,0,1,128.2,17Z"/><path class="cls-2" d="M133.2,17.8v3.75a.74.74,0,0,0,.19.57.88.88,0,0,0,.63.17h.91V24H133.7a2.17,2.17,0,0,1-2.48-2.41V17.8h-.92V16.19h.92V14.27h2v1.92h1.73V17.8Z"/><path class="cls-2" d="M143.5,20.66h-5.67a1.91,1.91,0,0,0,.59,1.31,1.79,1.79,0,0,0,1.27.48,1.6,1.6,0,0,0,1.56-.94h2.11a3.47,3.47,0,0,1-1.29,1.84,3.74,3.74,0,0,1-2.33.72,4,4,0,0,1-2-.5,3.47,3.47,0,0,1-1.39-1.4,4.35,4.35,0,0,1-.5-2.1,4.48,4.48,0,0,1,.49-2.12,3.51,3.51,0,0,1,1.38-1.4,4.15,4.15,0,0,1,2-.49,4.08,4.08,0,0,1,2,.48,3.37,3.37,0,0,1,1.35,1.35,4,4,0,0,1,.49,2A4.42,4.42,0,0,1,143.5,20.66Zm-2-1.32a1.54,1.54,0,0,0-.55-1.21,2,2,0,0,0-1.3-.46,1.82,1.82,0,0,0-1.23.44,2,2,0,0,0-.61,1.23Z"/><path class="cls-2" d="M147.93,16.43a2.7,2.7,0,0,1,1.4-.35v2.06h-.52a2,2,0,0,0-1.4.43,2,2,0,0,0-.47,1.51V24h-2V16.19h2v1.2A2.84,2.84,0,0,1,147.93,16.43Z"/><path class="cls-2" d="M157.18,17A3.37,3.37,0,0,1,158,19.4V24h-2V19.66a2,2,0,0,0-.46-1.42,1.65,1.65,0,0,0-1.26-.5,1.68,1.68,0,0,0-1.28.5,2,2,0,0,0-.47,1.42V24h-2V16.19h2v1a2.81,2.81,0,0,1,1-.8,3.12,3.12,0,0,1,1.34-.28A3,3,0,0,1,157.18,17Z"/><path class="cls-2" d="M159.86,18a3.52,3.52,0,0,1,1.27-1.4,3.47,3.47,0,0,1,1.8-.49,3.19,3.19,0,0,1,1.52.35,3,3,0,0,1,1,.89V16.19h2V24h-2V22.81a2.78,2.78,0,0,1-1,.9,3.14,3.14,0,0,1-1.53.36,3.35,3.35,0,0,1-1.79-.5,3.58,3.58,0,0,1-1.27-1.42,4.62,4.62,0,0,1-.47-2.11A4.56,4.56,0,0,1,159.86,18Zm5.35.89a1.88,1.88,0,0,0-.75-.78,2,2,0,0,0-1-.27,2,2,0,0,0-1,.26,2,2,0,0,0-.75.78,2.43,2.43,0,0,0-.29,1.21,2.5,2.5,0,0,0,.29,1.22,2.05,2.05,0,0,0,.76.81,1.87,1.87,0,0,0,1,.28,2,2,0,0,0,1-.27,2,2,0,0,0,.75-.79,2.82,2.82,0,0,0,0-2.45Z"/><path class="cls-2" d="M184.65,17a3.3,3.3,0,0,1,.88,2.45V24h-2V19.66a2,2,0,0,0-.46-1.39,1.91,1.91,0,0,0-2.53,0,1.93,1.93,0,0,0-.47,1.39V24h-2V19.66a1.93,1.93,0,0,0-.46-1.39,1.67,1.67,0,0,0-1.26-.48,1.7,1.7,0,0,0-1.28.48,1.89,1.89,0,0,0-.47,1.39V24h-2V16.19h2v.94a2.47,2.47,0,0,1,1-.77,3,3,0,0,1,1.31-.28,3.4,3.4,0,0,1,1.62.38,2.73,2.73,0,0,1,1.11,1.1,2.79,2.79,0,0,1,1.1-1.08,3.38,3.38,0,0,1,3.86.47Z"/><path class="cls-2" d="M187.36,18a3.35,3.35,0,0,1,3.07-1.89,3.22,3.22,0,0,1,1.52.35,3.13,3.13,0,0,1,1,.89V16.19h2V24h-2V22.81a2.78,2.78,0,0,1-1,.9,3.21,3.21,0,0,1-1.54.36,3.34,3.34,0,0,1-1.78-.5,3.51,3.51,0,0,1-1.27-1.42,4.49,4.49,0,0,1-.47-2.11A4.44,4.44,0,0,1,187.36,18Zm5.35.89a2,2,0,0,0-.76-.78,2.08,2.08,0,0,0-2,0,2.17,2.17,0,0,0-.75.78,2.43,2.43,0,0,0-.28,1.21,2.5,2.5,0,0,0,.28,1.22,2.2,2.2,0,0,0,.76.81,1.89,1.89,0,0,0,1,.28,2,2,0,0,0,1-.27,2.06,2.06,0,0,0,.76-.79,2.82,2.82,0,0,0,0-2.45Zm0-4.67-3.22,1.47v-1.4l3.22-1.66Z"/><path class="cls-2" d="M198.14,23.73a3.13,3.13,0,0,1-1.2-.93,2.41,2.41,0,0,1-.48-1.3h2a1.06,1.06,0,0,0,.44.74,1.54,1.54,0,0,0,1,.29,1.47,1.47,0,0,0,.87-.22.69.69,0,0,0,.32-.58.59.59,0,0,0-.39-.56,6.86,6.86,0,0,0-1.22-.42,9.91,9.91,0,0,1-1.42-.43,2.51,2.51,0,0,1-1-.69,1.85,1.85,0,0,1-.4-1.24,2.09,2.09,0,0,1,.37-1.18,2.61,2.61,0,0,1,1.07-.84,4,4,0,0,1,1.63-.31,3.29,3.29,0,0,1,2.21.7,2.54,2.54,0,0,1,.91,1.87H201a1,1,0,0,0-.39-.74,1.44,1.44,0,0,0-.92-.27,1.49,1.49,0,0,0-.82.19.66.66,0,0,0,.11,1.14,5.75,5.75,0,0,0,1.22.42,10,10,0,0,1,1.38.43,2.48,2.48,0,0,1,1,.69,2,2,0,0,1,.41,1.24,2.06,2.06,0,0,1-.37,1.21,2.48,2.48,0,0,1-1.06.83,4.5,4.5,0,0,1-3.33,0Z"/><path class="cls-2" d="M209.1,23.73a3,3,0,0,1-1.19-.93,2.34,2.34,0,0,1-.49-1.3h2a1.06,1.06,0,0,0,.44.74,1.59,1.59,0,0,0,1,.29,1.47,1.47,0,0,0,.87-.22.69.69,0,0,0,.32-.58.59.59,0,0,0-.39-.56,6.58,6.58,0,0,0-1.22-.42,10.33,10.33,0,0,1-1.42-.43,2.51,2.51,0,0,1-1-.69,1.84,1.84,0,0,1-.39-1.24,2,2,0,0,1,.37-1.18,2.52,2.52,0,0,1,1.06-.84,4.08,4.08,0,0,1,1.63-.31,3.27,3.27,0,0,1,2.21.7,2.54,2.54,0,0,1,.91,1.87h-1.87a1,1,0,0,0-.39-.74,1.75,1.75,0,0,0-1.73-.08.64.64,0,0,0-.29.55.63.63,0,0,0,.39.59,5.75,5.75,0,0,0,1.22.42,10.66,10.66,0,0,1,1.39.43,2.52,2.52,0,0,1,.94.69,1.91,1.91,0,0,1,.41,1.24,2.06,2.06,0,0,1-.37,1.21,2.42,2.42,0,0,1-1.06.83,4,4,0,0,1-1.62.3A4.11,4.11,0,0,1,209.1,23.73Z"/><path class="cls-2" d="M222.63,20.66H217a1.87,1.87,0,0,0,.59,1.31,1.79,1.79,0,0,0,1.27.48,1.58,1.58,0,0,0,1.55-.94h2.12a3.58,3.58,0,0,1-1.29,1.84,3.77,3.77,0,0,1-2.34.72,4,4,0,0,1-2-.5,3.51,3.51,0,0,1-1.38-1.4,4.24,4.24,0,0,1-.5-2.1,4.37,4.37,0,0,1,.49-2.12,3.48,3.48,0,0,1,1.37-1.4,4.2,4.2,0,0,1,2-.49,4,4,0,0,1,2,.48,3.34,3.34,0,0,1,1.36,1.35,4.09,4.09,0,0,1,.48,2A4.47,4.47,0,0,1,222.63,20.66Zm-2-1.32a1.57,1.57,0,0,0-.54-1.21,2,2,0,0,0-1.3-.46,1.8,1.8,0,0,0-1.23.44,2,2,0,0,0-.61,1.23Z"/><path class="cls-2" d="M230.65,17a3.37,3.37,0,0,1,.85,2.45V24h-2V19.66a2,2,0,0,0-.46-1.42,1.65,1.65,0,0,0-1.26-.5,1.68,1.68,0,0,0-1.28.5,2,2,0,0,0-.47,1.42V24h-2V16.19h2v1a2.81,2.81,0,0,1,1-.8,3.12,3.12,0,0,1,1.34-.28A3,3,0,0,1,230.65,17Z"/><path class="cls-2" d="M233.35,18a3.52,3.52,0,0,1,1.36-1.4,4,4,0,0,1,2-.5,3.81,3.81,0,0,1,2.38.72,3.5,3.5,0,0,1,1.27,2h-2.11a1.55,1.55,0,0,0-.57-.79,1.66,1.66,0,0,0-1-.29,1.61,1.61,0,0,0-1.33.61,2.72,2.72,0,0,0-.49,1.73,2.68,2.68,0,0,0,.49,1.71,1.61,1.61,0,0,0,1.33.61,1.49,1.49,0,0,0,1.56-1.06h2.11a3.55,3.55,0,0,1-1.27,2,3.8,3.8,0,0,1-2.38.74,3.85,3.85,0,0,1-2-.5,3.46,3.46,0,0,1-1.36-1.4,4.29,4.29,0,0,1-.49-2.1A4.3,4.3,0,0,1,233.35,18Z"/><path class="cls-2" d="M241.93,14.94a1.1,1.1,0,0,1-.35-.82,1.09,1.09,0,0,1,.35-.82,1.17,1.17,0,0,1,.86-.33,1.2,1.2,0,0,1,.86.33,1.08,1.08,0,0,1,.34.82,1.09,1.09,0,0,1-.34.82,1.2,1.2,0,0,1-.86.33A1.17,1.17,0,0,1,241.93,14.94Zm1.82,1.25V24h-2V16.19Z"/><path class="cls-2" d="M247.64,13.59V24h-2V13.59Z"/><path class="cls-2" d="M251.54,13.59V24h-2V13.59Z"/><path class="cls-2" d="M253.43,18a3.54,3.54,0,0,1,1.28-1.4,3.45,3.45,0,0,1,1.8-.49,3.22,3.22,0,0,1,1.52.35,3.13,3.13,0,0,1,1,.89V16.19h2V24h-2V22.81a2.78,2.78,0,0,1-1,.9,3.21,3.21,0,0,1-1.54.36,3.34,3.34,0,0,1-1.78-.5,3.6,3.6,0,0,1-1.28-1.42A4.62,4.62,0,0,1,253,20,4.56,4.56,0,0,1,253.43,18Zm5.36.89a2,2,0,0,0-.76-.78,2,2,0,0,0-1-.27,2,2,0,0,0-1,.26,2.17,2.17,0,0,0-.75.78A2.43,2.43,0,0,0,255,20a2.5,2.5,0,0,0,.28,1.22,2.2,2.2,0,0,0,.76.81,1.89,1.89,0,0,0,1,.28,2,2,0,0,0,1-.27,2.06,2.06,0,0,0,.76-.79,2.82,2.82,0,0,0,0-2.45Z"/><path class="cls-3" d="M19.88,38.2A3.54,3.54,0,0,1,17.4,39h-2v4.17h-1V33.35h3a3.55,3.55,0,0,1,2.47.77,2.69,2.69,0,0,1,.83,2.05A2.65,2.65,0,0,1,19.88,38.2Zm-.19-2a1.94,1.94,0,0,0-.54-1.49,2.58,2.58,0,0,0-1.75-.5h-2v4h2C18.93,38.13,19.69,37.47,19.69,36.17Z"/><path class="cls-3" d="M23.75,42.77a3.47,3.47,0,0,1-1.36-1.38,4.17,4.17,0,0,1-.5-2.07,4.08,4.08,0,0,1,.51-2.08,3.5,3.5,0,0,1,1.37-1.38,4,4,0,0,1,1.94-.48,4,4,0,0,1,2,.48A3.5,3.5,0,0,1,29,37.24a4.18,4.18,0,0,1,.5,2.08A4.13,4.13,0,0,1,29,41.39a3.52,3.52,0,0,1-1.38,1.38,4,4,0,0,1-2,.48A3.9,3.9,0,0,1,23.75,42.77Zm3.34-.72a2.64,2.64,0,0,0,1-1,3.32,3.32,0,0,0,.4-1.7,3.46,3.46,0,0,0-.39-1.71,2.58,2.58,0,0,0-1-1,3.05,3.05,0,0,0-2.8,0,2.55,2.55,0,0,0-1,1,3.46,3.46,0,0,0-.38,1.71,3.42,3.42,0,0,0,.38,1.7,2.59,2.59,0,0,0,1,1,3,3,0,0,0,2.8,0Z"/><path class="cls-3" d="M31.36,37.24a3.36,3.36,0,0,1,1.31-1.38,3.68,3.68,0,0,1,1.88-.48,3.52,3.52,0,0,1,1.82.49,3,3,0,0,1,1.19,1.28V32.78h1V43.14h-1V41.43a3,3,0,0,1-1.15,1.31,3.41,3.41,0,0,1-1.88.51,3.61,3.61,0,0,1-1.88-.49,3.42,3.42,0,0,1-1.3-1.39,4.39,4.39,0,0,1-.47-2.07A4.26,4.26,0,0,1,31.36,37.24Zm5.82.45a2.75,2.75,0,0,0-1-1.08,2.8,2.8,0,0,0-1.43-.37,3,3,0,0,0-1.46.36,2.47,2.47,0,0,0-1,1.06,3.4,3.4,0,0,0-.38,1.64A3.46,3.46,0,0,0,32.25,41a2.49,2.49,0,0,0,1,1.07,2.86,2.86,0,0,0,1.46.38A2.81,2.81,0,0,0,36.15,42a2.62,2.62,0,0,0,1-1.08,3.66,3.66,0,0,0,0-3.25Z"/><path class="cls-3" d="M42.75,35.75a3.05,3.05,0,0,1,1.63-.4v1h-.27A2.49,2.49,0,0,0,42.4,37a2.45,2.45,0,0,0-.64,1.92v4.27h-1V35.49h1v1.36A2.35,2.35,0,0,1,42.75,35.75Z"/><path class="cls-3" d="M45.87,37.24a3.33,3.33,0,0,1,1.3-1.38,3.68,3.68,0,0,1,1.88-.48,3.42,3.42,0,0,1,1.89.51,3,3,0,0,1,1.14,1.28V35.49h1v7.65h-1v-1.7a3.08,3.08,0,0,1-1.16,1.3,3.39,3.39,0,0,1-1.88.51,3.58,3.58,0,0,1-1.87-.49,3.36,3.36,0,0,1-1.3-1.39,4.77,4.77,0,0,1,0-4.13Zm5.83.45a2.71,2.71,0,0,0-2.47-1.45,2.91,2.91,0,0,0-1.45.36,2.55,2.55,0,0,0-1,1.06,3.51,3.51,0,0,0-.37,1.64A3.58,3.58,0,0,0,46.76,41a2.57,2.57,0,0,0,1,1.07,2.94,2.94,0,0,0,2.89,0,2.68,2.68,0,0,0,1-1.08,3.66,3.66,0,0,0,0-3.25Zm-.94-4.45-2.87,1.67v-.76l2.87-1.79Z"/><path class="cls-3" d="M59.15,37.24a3.46,3.46,0,0,1,1.3-1.38,3.74,3.74,0,0,1,1.89-.48,3.39,3.39,0,0,1,1.88.51,2.86,2.86,0,0,1,1.14,1.28V35.49h1v7.65h-1v-1.7a3.05,3.05,0,0,1-1.15,1.3,3.42,3.42,0,0,1-1.89.51,3.6,3.6,0,0,1-1.87-.49,3.49,3.49,0,0,1-1.3-1.39,4.77,4.77,0,0,1,0-4.13Zm5.83.45a2.75,2.75,0,0,0-1-1.08,2.8,2.8,0,0,0-1.43-.37,3,3,0,0,0-1.46.36,2.53,2.53,0,0,0-1,1.06,3.39,3.39,0,0,0-.37,1.64A3.46,3.46,0,0,0,60.05,41a2.55,2.55,0,0,0,1,1.07,2.86,2.86,0,0,0,1.46.38A2.81,2.81,0,0,0,64,42a2.62,2.62,0,0,0,1-1.08,3.66,3.66,0,0,0,0-3.25Z"/><path class="cls-3" d="M68.61,37.24a3.42,3.42,0,0,1,1.31-1.38,3.68,3.68,0,0,1,1.88-.48,3.52,3.52,0,0,1,1.82.49,3,3,0,0,1,1.19,1.28V32.78h1V43.14h-1V41.43a2.89,2.89,0,0,1-1.15,1.31,3.38,3.38,0,0,1-1.87.51,3.65,3.65,0,0,1-1.89-.49,3.49,3.49,0,0,1-1.3-1.39,4.39,4.39,0,0,1-.47-2.07A4.26,4.26,0,0,1,68.61,37.24Zm5.82.45a2.75,2.75,0,0,0-1-1.08A2.8,2.8,0,0,0,72,36.24a3,3,0,0,0-1.46.36,2.53,2.53,0,0,0-1,1.06,3.39,3.39,0,0,0-.37,1.64A3.46,3.46,0,0,0,69.5,41a2.55,2.55,0,0,0,1,1.07A2.86,2.86,0,0,0,72,42.4,2.81,2.81,0,0,0,73.4,42a2.62,2.62,0,0,0,1-1.08,3.66,3.66,0,0,0,0-3.25Z"/><path class="cls-3" d="M89.32,36.2a3.33,3.33,0,0,1,.85,2.46v4.48h-1V38.77a2.72,2.72,0,0,0-.6-1.9A2.11,2.11,0,0,0,87,36.21a2.22,2.22,0,0,0-1.72.71A3,3,0,0,0,84.6,39v4.15h-1V38.77a2.72,2.72,0,0,0-.6-1.9,2.12,2.12,0,0,0-1.65-.66,2.2,2.2,0,0,0-1.72.71A3,3,0,0,0,79,39v4.15H78V35.49h1v1.32a2.49,2.49,0,0,1,1-1.09,3.1,3.1,0,0,1,1.49-.37,3.17,3.17,0,0,1,1.75.48,2.65,2.65,0,0,1,1.08,1.4,2.58,2.58,0,0,1,1.06-1.39,3,3,0,0,1,1.7-.49A3,3,0,0,1,89.32,36.2Z"/><path class="cls-3" d="M92.32,33.84a.74.74,0,0,1,0-1,.74.74,0,0,1,1,0,.72.72,0,1,1-1,1Zm1,1.65v7.65h-1V35.49Z"/><path class="cls-3" d="M101.37,36.2a3.3,3.3,0,0,1,.87,2.46v4.48h-1V38.77a2.68,2.68,0,0,0-.62-1.9,2.23,2.23,0,0,0-1.7-.66,2.31,2.31,0,0,0-1.77.7A2.88,2.88,0,0,0,96.52,39v4.17h-1V35.49h1V36.8a2.6,2.6,0,0,1,1-1.08,3.33,3.33,0,0,1,1.56-.37A3.1,3.1,0,0,1,101.37,36.2Z"/><path class="cls-3" d="M104.39,33.84a.74.74,0,0,1,0-1,.74.74,0,0,1,1,0,.72.72,0,1,1-1,1Zm1,1.65v7.65h-1V35.49Z"/><path class="cls-3" d="M108.1,42.64a2.24,2.24,0,0,1-.94-1.66h1a1.44,1.44,0,0,0,.61,1,2.35,2.35,0,0,0,1.45.4,1.9,1.9,0,0,0,1.25-.37,1.18,1.18,0,0,0,.46-.94.92.92,0,0,0-.25-.65,1.94,1.94,0,0,0-.64-.4c-.26-.09-.6-.2-1-.31a10.9,10.9,0,0,1-1.39-.45,2.37,2.37,0,0,1-.9-.66,1.93,1.93,0,0,1,0-2.22,2.34,2.34,0,0,1,.95-.76,3.5,3.5,0,0,1,1.4-.28,3,3,0,0,1,2,.63,2.2,2.2,0,0,1,.81,1.71h-1a1.44,1.44,0,0,0-.52-1.08,1.94,1.94,0,0,0-1.32-.42,2,2,0,0,0-1.21.35,1.09,1.09,0,0,0-.19,1.61,1.86,1.86,0,0,0,.68.44c.27.11.64.23,1.09.36a10.27,10.27,0,0,1,1.32.43,2.25,2.25,0,0,1,.84.62,1.62,1.62,0,0,1,.36,1.08,1.9,1.9,0,0,1-.33,1.1,2.38,2.38,0,0,1-.94.76,3.19,3.19,0,0,1-1.39.28A3.5,3.5,0,0,1,108.1,42.64Z"/><path class="cls-3" d="M116,36.32v4.75a1.4,1.4,0,0,0,.26,1,1.3,1.3,0,0,0,.94.27h.9v.84h-1a1.79,1.79,0,0,1-2-2.07V36.32H114v-.83H115V33.58h1v1.91h2.1v.83Z"/><path class="cls-3" d="M121.7,35.75a3.1,3.1,0,0,1,1.63-.4v1h-.26a2.49,2.49,0,0,0-1.71.57,2.45,2.45,0,0,0-.64,1.92v4.27h-1V35.49h1v1.36A2.38,2.38,0,0,1,121.7,35.75Z"/><path class="cls-3" d="M124.83,37.24a3.33,3.33,0,0,1,1.3-1.38,3.68,3.68,0,0,1,1.88-.48,3.37,3.37,0,0,1,1.88.51A2.86,2.86,0,0,1,131,37.17V35.49h1v7.65h-1v-1.7a3,3,0,0,1-1.15,1.3,3.41,3.41,0,0,1-1.88.51,3.58,3.58,0,0,1-1.87-.49,3.36,3.36,0,0,1-1.3-1.39,4.77,4.77,0,0,1,0-4.13Zm5.83.45a2.89,2.89,0,0,0-1-1.08,2.83,2.83,0,0,0-1.44-.37,2.91,2.91,0,0,0-1.45.36,2.55,2.55,0,0,0-1,1.06,3.39,3.39,0,0,0-.37,1.64,3.46,3.46,0,0,0,.37,1.65,2.57,2.57,0,0,0,1,1.07,2.94,2.94,0,0,0,2.89,0,2.75,2.75,0,0,0,1-1.08,3.75,3.75,0,0,0,0-3.25Z"/><path class="cls-3" d="M136.22,35.75a3.08,3.08,0,0,1,1.63-.4v1h-.26a2.49,2.49,0,0,0-1.71.57,2.46,2.46,0,0,0-.65,1.92v4.27h-1V35.49h1v1.36A2.46,2.46,0,0,1,136.22,35.75Z"/><path class="cls-3" d="M146.17,36.32h-1.78v6.82h-1V36.32h-1.06v-.83h1.06V35a2.35,2.35,0,0,1,.64-1.83,3,3,0,0,1,2.06-.59v.84a2,2,0,0,0-1.34.36,1.67,1.67,0,0,0-.38,1.22v.53h1.78Z"/><path class="cls-3" d="M147.73,37.24a3.4,3.4,0,0,1,1.3-1.38,3.7,3.7,0,0,1,1.88-.48,3.42,3.42,0,0,1,1.89.51,3,3,0,0,1,1.14,1.28V35.49h1v7.65h-1v-1.7a3,3,0,0,1-1.16,1.3,3.37,3.37,0,0,1-1.88.51,3.6,3.6,0,0,1-1.87-.49,3.42,3.42,0,0,1-1.3-1.39,4.77,4.77,0,0,1,0-4.13Zm5.83.45a2.71,2.71,0,0,0-2.46-1.45,2.93,2.93,0,0,0-1.46.36,2.55,2.55,0,0,0-1,1.06,3.51,3.51,0,0,0-.37,1.64,3.58,3.58,0,0,0,.37,1.65,2.57,2.57,0,0,0,1,1.07,2.84,2.84,0,0,0,1.46.38,2.81,2.81,0,0,0,1.43-.38,2.68,2.68,0,0,0,1-1.08,3.66,3.66,0,0,0,0-3.25Z"/><path class="cls-3" d="M157.19,37.24a3.36,3.36,0,0,1,1.31-1.38,4.16,4.16,0,0,1,4.25.22A3.14,3.14,0,0,1,163.93,38h-1.05a2.16,2.16,0,0,0-.84-1.3,2.74,2.74,0,0,0-1.62-.47,2.81,2.81,0,0,0-1.39.35,2.51,2.51,0,0,0-1,1,3.7,3.7,0,0,0-.36,1.71,3.65,3.65,0,0,0,.36,1.7,2.42,2.42,0,0,0,1,1,2.71,2.71,0,0,0,1.39.35A2.74,2.74,0,0,0,162,42a2.18,2.18,0,0,0,.84-1.31h1.05a3.18,3.18,0,0,1-1.19,1.89,3.71,3.71,0,0,1-2.32.71,3.8,3.8,0,0,1-1.92-.48,3.36,3.36,0,0,1-1.31-1.38,4.73,4.73,0,0,1,0-4.15Z"/><path class="cls-3" d="M165.73,33.84a.71.71,0,1,1,1,0,.7.7,0,0,1-1,0Zm1,1.65v7.65h-1V35.49Z"/><path class="cls-3" d="M169.93,32.78V43.14h-1V32.78Z"/><path class="cls-3" d="M183.44,36.2a3.33,3.33,0,0,1,.85,2.46v4.48h-1V38.77a2.72,2.72,0,0,0-.6-1.9,2.11,2.11,0,0,0-1.64-.66,2.23,2.23,0,0,0-1.72.71,3,3,0,0,0-.64,2.07v4.15h-1V38.77a2.72,2.72,0,0,0-.6-1.9,2.12,2.12,0,0,0-1.65-.66,2.22,2.22,0,0,0-1.72.71,3,3,0,0,0-.65,2.07v4.15h-1V35.49h1v1.32a2.49,2.49,0,0,1,1-1.09,3.31,3.31,0,0,1,3.24.11,2.65,2.65,0,0,1,1.08,1.4,2.58,2.58,0,0,1,1.06-1.39,3,3,0,0,1,1.7-.49A3,3,0,0,1,183.44,36.2Z"/><path class="cls-3" d="M193.35,39.69H187a2.93,2.93,0,0,0,.42,1.49,2.46,2.46,0,0,0,1,.93,2.9,2.9,0,0,0,1.34.31,2.71,2.71,0,0,0,1.61-.46,2.19,2.19,0,0,0,.86-1.24h1a3.2,3.2,0,0,1-1.19,1.82,3.68,3.68,0,0,1-2.31.71,3.86,3.86,0,0,1-1.93-.48,3.49,3.49,0,0,1-1.34-1.38,4.28,4.28,0,0,1-.48-2.07,4.36,4.36,0,0,1,.48-2.09,3.26,3.26,0,0,1,1.33-1.37,3.9,3.9,0,0,1,1.94-.48,3.69,3.69,0,0,1,1.91.48,3.23,3.23,0,0,1,1.26,1.28,3.59,3.59,0,0,1,.45,1.78A7.24,7.24,0,0,1,193.35,39.69ZM192,37.44a2.36,2.36,0,0,0-1-.91,2.91,2.91,0,0,0-1.35-.31,2.69,2.69,0,0,0-1.86.7,2.8,2.8,0,0,0-.85,2h5.37A2.7,2.7,0,0,0,192,37.44Z"/><path class="cls-3" d="M201,36.2a3.3,3.3,0,0,1,.87,2.46v4.48h-1V38.77a2.64,2.64,0,0,0-.62-1.9,2.21,2.21,0,0,0-1.7-.66,2.27,2.27,0,0,0-1.76.7,2.88,2.88,0,0,0-.66,2.06v4.17h-1V35.49h1V36.8a2.49,2.49,0,0,1,1-1.08,3.29,3.29,0,0,1,1.55-.37A3.09,3.09,0,0,1,201,36.2Z"/><path class="cls-3" d="M205.3,36.32v4.75a1.34,1.34,0,0,0,.27,1,1.3,1.3,0,0,0,.94.27h.89v.84h-1.05a1.78,1.78,0,0,1-2-2.07V36.32h-1.06v-.83h1.06V33.58h1v1.91h2.1v.83Z"/><path class="cls-3" d="M215.9,39.69h-6.34a3.14,3.14,0,0,0,.42,1.49,2.46,2.46,0,0,0,1,.93,2.91,2.91,0,0,0,1.35.31,2.68,2.68,0,0,0,1.6-.46,2.19,2.19,0,0,0,.86-1.24h1a3.27,3.27,0,0,1-1.2,1.82,3.67,3.67,0,0,1-2.3.71,3.84,3.84,0,0,1-1.93-.48,3.43,3.43,0,0,1-1.34-1.38,4.28,4.28,0,0,1-.48-2.07,4.35,4.35,0,0,1,.47-2.09,3.32,3.32,0,0,1,1.33-1.37,3.91,3.91,0,0,1,1.95-.48,3.74,3.74,0,0,1,1.91.48,3.37,3.37,0,0,1,1.26,1.28,3.7,3.7,0,0,1,.44,1.78A7.24,7.24,0,0,1,215.9,39.69Zm-1.31-2.25a2.36,2.36,0,0,0-1-.91,2.9,2.9,0,0,0-1.34-.31,2.73,2.73,0,0,0-1.87.7,2.84,2.84,0,0,0-.85,2h5.38A2.8,2.8,0,0,0,214.59,37.44Z"/><path class="cls-3" d="M222.54,32.78V43.14h-1V32.78Z"/><path class="cls-3" d="M226.17,42.77a3.54,3.54,0,0,1-1.36-1.38,4.17,4.17,0,0,1-.49-2.07,4.08,4.08,0,0,1,.5-2.08,3.56,3.56,0,0,1,1.37-1.38,4.2,4.2,0,0,1,3.9,0,3.5,3.5,0,0,1,1.37,1.38,4.18,4.18,0,0,1,.5,2.08,4.23,4.23,0,0,1-.5,2.07,3.55,3.55,0,0,1-1.39,1.38,4,4,0,0,1-2,.48A3.9,3.9,0,0,1,226.17,42.77Zm3.34-.72a2.58,2.58,0,0,0,1-1,3.32,3.32,0,0,0,.4-1.7,3.46,3.46,0,0,0-.39-1.71,2.58,2.58,0,0,0-1-1,3.05,3.05,0,0,0-2.8,0,2.55,2.55,0,0,0-1,1,3.57,3.57,0,0,0-.38,1.71,3.53,3.53,0,0,0,.38,1.7,2.55,2.55,0,0,0,1,1,2.87,2.87,0,0,0,1.39.35A2.94,2.94,0,0,0,229.51,42.05Z"/><path class="cls-3" d="M234.23,42.64A2.26,2.26,0,0,1,233.3,41h1a1.44,1.44,0,0,0,.61,1,2.35,2.35,0,0,0,1.45.4,1.9,1.9,0,0,0,1.25-.37,1.21,1.21,0,0,0,.46-.94.92.92,0,0,0-.25-.65,2.05,2.05,0,0,0-.64-.4c-.26-.09-.61-.2-1-.31a10.39,10.39,0,0,1-1.39-.45,2.29,2.29,0,0,1-.9-.66,1.93,1.93,0,0,1,0-2.22,2.28,2.28,0,0,1,1-.76,3.46,3.46,0,0,1,1.4-.28,3,3,0,0,1,2,.63,2.2,2.2,0,0,1,.81,1.71h-1a1.47,1.47,0,0,0-.52-1.08,1.94,1.94,0,0,0-1.32-.42,2,2,0,0,0-1.21.35,1.09,1.09,0,0,0-.19,1.61,1.78,1.78,0,0,0,.68.44c.27.11.64.23,1.09.36a10.82,10.82,0,0,1,1.32.43,2.25,2.25,0,0,1,.84.62,1.67,1.67,0,0,1,.36,1.08,1.9,1.9,0,0,1-.33,1.1,2.38,2.38,0,0,1-.94.76,3.19,3.19,0,0,1-1.39.28A3.55,3.55,0,0,1,234.23,42.64Z"/><path class="cls-3" d="M246.85,35.89a3.37,3.37,0,0,1,1.88-.51,3.69,3.69,0,0,1,1.87.48,3.33,3.33,0,0,1,1.3,1.38,4.77,4.77,0,0,1,0,4.13,3.36,3.36,0,0,1-1.3,1.39,3.6,3.6,0,0,1-1.87.49,3.38,3.38,0,0,1-1.87-.51,3.11,3.11,0,0,1-1.17-1.28v5.29h-1V35.49h1v1.68A3.15,3.15,0,0,1,246.85,35.89ZM251,37.66a2.55,2.55,0,0,0-1-1.06,2.91,2.91,0,0,0-1.45-.36,2.71,2.71,0,0,0-2.47,1.45,3.66,3.66,0,0,0,0,3.25,2.68,2.68,0,0,0,1,1.08A2.94,2.94,0,0,0,250,42,2.57,2.57,0,0,0,251,41a3.58,3.58,0,0,0,.37-1.65A3.51,3.51,0,0,0,251,37.66Z"/><path class="cls-3" d="M261.06,39.69h-6.34a3.14,3.14,0,0,0,.42,1.49,2.48,2.48,0,0,0,1,.93,2.9,2.9,0,0,0,1.34.31,2.66,2.66,0,0,0,1.6-.46,2.2,2.2,0,0,0,.87-1.24h1a3.22,3.22,0,0,1-1.2,1.82,3.65,3.65,0,0,1-2.3.71,3.86,3.86,0,0,1-1.93-.48,3.43,3.43,0,0,1-1.34-1.38,4.28,4.28,0,0,1-.48-2.07,4.36,4.36,0,0,1,.48-2.09,3.26,3.26,0,0,1,1.33-1.37,3.85,3.85,0,0,1,1.94-.48,3.69,3.69,0,0,1,1.91.48,3.23,3.23,0,0,1,1.26,1.28,3.59,3.59,0,0,1,.44,1.78A7.24,7.24,0,0,1,261.06,39.69Zm-1.3-2.25a2.39,2.39,0,0,0-1-.91,2.9,2.9,0,0,0-1.34-.31,2.69,2.69,0,0,0-1.86.7,2.81,2.81,0,0,0-.86,2h5.38A2.79,2.79,0,0,0,259.76,37.44Z"/><path class="cls-3" d="M264.85,35.75a3.08,3.08,0,0,1,1.63-.4v1h-.26a2.49,2.49,0,0,0-1.71.57,2.45,2.45,0,0,0-.64,1.92v4.27h-1V35.49h1v1.36A2.38,2.38,0,0,1,264.85,35.75Z"/><path class="cls-3" d="M279.24,36.2a3.33,3.33,0,0,1,.85,2.46v4.48h-1V38.77a2.72,2.72,0,0,0-.6-1.9,2.1,2.1,0,0,0-1.64-.66,2.23,2.23,0,0,0-1.72.71,3,3,0,0,0-.64,2.07v4.15h-1V38.77a2.72,2.72,0,0,0-.6-1.9,2.12,2.12,0,0,0-1.65-.66,2.22,2.22,0,0,0-1.72.71,3,3,0,0,0-.65,2.07v4.15h-1V35.49h1v1.32a2.55,2.55,0,0,1,1-1.09,3.31,3.31,0,0,1,3.24.11,2.65,2.65,0,0,1,1.08,1.4,2.58,2.58,0,0,1,1.06-1.39,3,3,0,0,1,1.7-.49A3,3,0,0,1,279.24,36.2Z"/><path class="cls-3" d="M282.25,33.84a.71.71,0,1,1,1,0,.7.7,0,0,1-1,0Zm1,1.65v7.65h-1V35.49Z"/><path class="cls-3" d="M286,42.64A2.2,2.2,0,0,1,285,41h1a1.41,1.41,0,0,0,.61,1,2.32,2.32,0,0,0,1.44.4,1.93,1.93,0,0,0,1.26-.37,1.2,1.2,0,0,0,.45-.94.88.88,0,0,0-.25-.65,1.94,1.94,0,0,0-.64-.4c-.25-.09-.6-.2-1-.31a10.9,10.9,0,0,1-1.39-.45,2.45,2.45,0,0,1-.9-.66,1.78,1.78,0,0,1-.37-1.19,1.72,1.72,0,0,1,.34-1,2.28,2.28,0,0,1,.95-.76,3.46,3.46,0,0,1,1.4-.28,3,3,0,0,1,2,.63,2.26,2.26,0,0,1,.81,1.71h-1a1.45,1.45,0,0,0-.53-1.08,2.26,2.26,0,0,0-2.52-.07,1.08,1.08,0,0,0-.47.87,1.06,1.06,0,0,0,.28.74,1.78,1.78,0,0,0,.68.44,10.67,10.67,0,0,0,1.09.36,10,10,0,0,1,1.31.43,2.25,2.25,0,0,1,.84.62,1.62,1.62,0,0,1,.37,1.08,1.84,1.84,0,0,1-.34,1.1,2.25,2.25,0,0,1-.94.76,3.18,3.18,0,0,1-1.38.28A3.51,3.51,0,0,1,286,42.64Z"/><path class="cls-3" d="M294,42.77a3.51,3.51,0,0,1-1.35-1.38,4.07,4.07,0,0,1-.5-2.07,4.18,4.18,0,0,1,.5-2.08A3.63,3.63,0,0,1,294,35.86a4.2,4.2,0,0,1,3.9,0,3.52,3.52,0,0,1,1.38,1.38,4.18,4.18,0,0,1,.49,2.08,4.23,4.23,0,0,1-.5,2.07,3.55,3.55,0,0,1-1.39,1.38,4,4,0,0,1-2,.48A3.93,3.93,0,0,1,294,42.77Zm3.34-.72a2.66,2.66,0,0,0,1-1,3.42,3.42,0,0,0,.39-1.7,3.46,3.46,0,0,0-.39-1.71,2.55,2.55,0,0,0-1-1,3.05,3.05,0,0,0-2.8,0,2.49,2.49,0,0,0-1,1,3.46,3.46,0,0,0-.39,1.71,3.42,3.42,0,0,0,.39,1.7,2.47,2.47,0,0,0,1,1,2.87,2.87,0,0,0,1.39.35A2.91,2.91,0,0,0,297.35,42.05Z"/><path class="cls-3" d="M302.08,42.64a2.2,2.2,0,0,1-.93-1.66h1a1.44,1.44,0,0,0,.61,1,2.37,2.37,0,0,0,1.45.4,2,2,0,0,0,1.26-.37,1.2,1.2,0,0,0,.45-.94.88.88,0,0,0-.25-.65,1.94,1.94,0,0,0-.64-.4c-.26-.09-.6-.2-1-.31a10.9,10.9,0,0,1-1.39-.45,2.45,2.45,0,0,1-.9-.66,1.93,1.93,0,0,1,0-2.22,2.38,2.38,0,0,1,1-.76,3.43,3.43,0,0,1,1.4-.28,3,3,0,0,1,2,.63,2.24,2.24,0,0,1,.82,1.71h-1a1.48,1.48,0,0,0-.53-1.08,1.94,1.94,0,0,0-1.32-.42,2,2,0,0,0-1.21.35,1.09,1.09,0,0,0-.46.87,1,1,0,0,0,.28.74,1.74,1.74,0,0,0,.67.44,11,11,0,0,0,1.1.36,10,10,0,0,1,1.31.43,2.25,2.25,0,0,1,.84.62,1.62,1.62,0,0,1,.37,1.08,1.91,1.91,0,0,1-.34,1.1,2.31,2.31,0,0,1-.94.76,3.18,3.18,0,0,1-1.38.28A3.51,3.51,0,0,1,302.08,42.64Z"/><path class="cls-3" d="M13.56,54a3.4,3.4,0,0,1,1.3-1.38,3.74,3.74,0,0,1,1.89-.48,3.52,3.52,0,0,1,1.82.49A3,3,0,0,1,19.76,54V49.58h1V59.94h-1V58.23a3,3,0,0,1-1.15,1.31,3.41,3.41,0,0,1-1.88.51,3.61,3.61,0,0,1-1.88-.49,3.42,3.42,0,0,1-1.3-1.39,4.39,4.39,0,0,1-.47-2.07A4.26,4.26,0,0,1,13.56,54Zm5.82.45A2.71,2.71,0,0,0,16.92,53a2.93,2.93,0,0,0-1.46.36,2.55,2.55,0,0,0-1,1.06,3.51,3.51,0,0,0-.37,1.64,3.58,3.58,0,0,0,.37,1.65,2.57,2.57,0,0,0,1,1.07,2.84,2.84,0,0,0,1.46.38,2.81,2.81,0,0,0,1.43-.38,2.68,2.68,0,0,0,1-1.08,3.66,3.66,0,0,0,0-3.25Z"/><path class="cls-3" d="M29.87,56.49H23.52A3.14,3.14,0,0,0,23.94,58a2.55,2.55,0,0,0,1,.93,2.9,2.9,0,0,0,1.34.31,2.66,2.66,0,0,0,1.6-.46,2.16,2.16,0,0,0,.87-1.24h1a3.22,3.22,0,0,1-1.2,1.82,3.65,3.65,0,0,1-2.3.71,3.86,3.86,0,0,1-1.93-.48A3.43,3.43,0,0,1,23,58.19a4.28,4.28,0,0,1-.48-2.07A4.36,4.36,0,0,1,23,54a3.2,3.2,0,0,1,1.33-1.37,3.85,3.85,0,0,1,1.94-.48,3.69,3.69,0,0,1,1.91.48,3.17,3.17,0,0,1,1.26,1.28,3.59,3.59,0,0,1,.44,1.78C29.89,56.06,29.88,56.32,29.87,56.49Zm-1.31-2.25a2.39,2.39,0,0,0-1-.91A2.9,2.9,0,0,0,26.24,53a2.69,2.69,0,0,0-1.86.7,2.81,2.81,0,0,0-.86,2H28.9A2.79,2.79,0,0,0,28.56,54.24Z"/><path class="cls-3" d="M35.54,54a3.4,3.4,0,0,1,1.3-1.38,3.74,3.74,0,0,1,1.89-.48,3.39,3.39,0,0,1,1.88.51A2.86,2.86,0,0,1,41.75,54V52.29h1v7.65h-1v-1.7a3.05,3.05,0,0,1-1.15,1.3,3.42,3.42,0,0,1-1.89.51,3.6,3.6,0,0,1-1.87-.49,3.42,3.42,0,0,1-1.3-1.39,4.77,4.77,0,0,1,0-4.13Zm5.83.45a2.75,2.75,0,0,0-1-1.08A2.8,2.8,0,0,0,38.91,53a3,3,0,0,0-1.46.36,2.53,2.53,0,0,0-1,1.06,3.39,3.39,0,0,0-.37,1.64,3.46,3.46,0,0,0,.37,1.65,2.55,2.55,0,0,0,1,1.07,2.86,2.86,0,0,0,1.46.38,2.81,2.81,0,0,0,1.43-.38,2.62,2.62,0,0,0,1-1.08,3.66,3.66,0,0,0,0-3.25Z"/><path class="cls-3" d="M45,54a3.42,3.42,0,0,1,1.31-1.38,3.8,3.8,0,0,1,1.92-.48,3.75,3.75,0,0,1,2.33.7,3.15,3.15,0,0,1,1.19,1.91h-1a2.17,2.17,0,0,0-.85-1.3A2.7,2.7,0,0,0,48.23,53a2.77,2.77,0,0,0-1.38.35,2.47,2.47,0,0,0-1,1,3.83,3.83,0,0,0-.35,1.71,3.79,3.79,0,0,0,.35,1.7,2.44,2.44,0,0,0,1,1,3,3,0,0,0,3-.11,2.2,2.2,0,0,0,.85-1.31h1a3.27,3.27,0,0,1-1.19,1.89,3.74,3.74,0,0,1-2.33.71,3.8,3.8,0,0,1-1.92-.48A3.42,3.42,0,0,1,45,58.19,4.73,4.73,0,0,1,45,54Z"/><path class="cls-3" d="M53.58,54a3.44,3.44,0,0,1,1.32-1.38,4.16,4.16,0,0,1,4.25.22,3.19,3.19,0,0,1,1.18,1.91h-1a2.13,2.13,0,0,0-.85-1.3A2.7,2.7,0,0,0,56.81,53a2.77,2.77,0,0,0-1.38.35,2.39,2.39,0,0,0-1,1,3.7,3.7,0,0,0-.36,1.71,3.65,3.65,0,0,0,.36,1.7,2.36,2.36,0,0,0,1,1,3,3,0,0,0,3-.11,2.15,2.15,0,0,0,.85-1.31h1a3.27,3.27,0,0,1-1.19,1.89,3.74,3.74,0,0,1-2.33.71,3.79,3.79,0,0,1-1.91-.48,3.44,3.44,0,0,1-1.32-1.38,4.73,4.73,0,0,1,0-4.15Z"/><path class="cls-3" d="M69,56.49H62.68A3.14,3.14,0,0,0,63.1,58a2.42,2.42,0,0,0,1,.93,2.87,2.87,0,0,0,1.34.31,2.68,2.68,0,0,0,1.6-.46,2.14,2.14,0,0,0,.86-1.24h1a3.27,3.27,0,0,1-1.2,1.82,3.67,3.67,0,0,1-2.3.71,3.86,3.86,0,0,1-1.93-.48,3.43,3.43,0,0,1-1.34-1.38,4.28,4.28,0,0,1-.48-2.07A4.47,4.47,0,0,1,62.16,54a3.26,3.26,0,0,1,1.33-1.37,3.91,3.91,0,0,1,1.95-.48,3.71,3.71,0,0,1,1.91.48,3.17,3.17,0,0,1,1.26,1.28,3.7,3.7,0,0,1,.44,1.78A7.24,7.24,0,0,1,69,56.49Zm-1.31-2.25a2.3,2.3,0,0,0-1-.91A2.9,2.9,0,0,0,65.4,53a2.69,2.69,0,0,0-1.86.7,2.81,2.81,0,0,0-.86,2h5.38A2.7,2.7,0,0,0,67.71,54.24Z"/><path class="cls-3" d="M71.33,59.44a2.24,2.24,0,0,1-.94-1.66h1a1.44,1.44,0,0,0,.61,1,2.35,2.35,0,0,0,1.45.4,1.9,1.9,0,0,0,1.25-.37,1.18,1.18,0,0,0,.46-.94.92.92,0,0,0-.25-.65,1.94,1.94,0,0,0-.64-.4c-.26-.09-.6-.2-1-.31a10.9,10.9,0,0,1-1.39-.45,2.45,2.45,0,0,1-.9-.66,1.93,1.93,0,0,1,0-2.22,2.31,2.31,0,0,1,1-.76,3.43,3.43,0,0,1,1.4-.28,3,3,0,0,1,2,.63,2.2,2.2,0,0,1,.81,1.71h-1a1.48,1.48,0,0,0-.52-1.09A2.3,2.3,0,0,0,72,53.37a1.06,1.06,0,0,0-.46.87,1,1,0,0,0,.27.73,1.76,1.76,0,0,0,.68.45,11,11,0,0,0,1.1.36,10.59,10.59,0,0,1,1.31.43,2.25,2.25,0,0,1,.84.62,1.67,1.67,0,0,1,.37,1.08A1.93,1.93,0,0,1,75.8,59a2.31,2.31,0,0,1-.94.76,3.18,3.18,0,0,1-1.38.28A3.51,3.51,0,0,1,71.33,59.44Z"/><path class="cls-3" d="M79.39,59.57A3.54,3.54,0,0,1,78,58.19a4.17,4.17,0,0,1-.49-2.07A4.08,4.08,0,0,1,78,54a3.56,3.56,0,0,1,1.37-1.38,4.2,4.2,0,0,1,3.9,0A3.5,3.5,0,0,1,84.68,54a4.18,4.18,0,0,1,.5,2.08,4.23,4.23,0,0,1-.5,2.07,3.55,3.55,0,0,1-1.39,1.38,4,4,0,0,1-2,.48A3.9,3.9,0,0,1,79.39,59.57Zm3.34-.72a2.58,2.58,0,0,0,1-1,3.34,3.34,0,0,0,.4-1.7,3.46,3.46,0,0,0-.39-1.71,2.58,2.58,0,0,0-1-1,3.05,3.05,0,0,0-2.8,0,2.55,2.55,0,0,0-1,1,4,4,0,0,0,0,3.41,2.55,2.55,0,0,0,1,1,2.87,2.87,0,0,0,1.39.35A2.94,2.94,0,0,0,82.73,58.85Z"/><path class="cls-3" d="M90.83,54a3.33,3.33,0,0,1,1.3-1.38A3.7,3.7,0,0,1,94,52.18a3.42,3.42,0,0,1,1.89.51A3,3,0,0,1,97,54V52.29h1v7.65H97v-1.7a3.08,3.08,0,0,1-1.16,1.3,3.39,3.39,0,0,1-1.88.51,3.6,3.6,0,0,1-1.87-.49,3.36,3.36,0,0,1-1.3-1.39,4.77,4.77,0,0,1,0-4.13Zm5.83.45A2.71,2.71,0,0,0,94.19,53a2.91,2.91,0,0,0-1.45.36,2.55,2.55,0,0,0-1,1.06,3.51,3.51,0,0,0-.37,1.64,3.58,3.58,0,0,0,.37,1.65,2.57,2.57,0,0,0,1,1.07,2.94,2.94,0,0,0,2.89,0,2.68,2.68,0,0,0,1-1.08,3.66,3.66,0,0,0,0-3.25Z"/><path class="cls-3" d="M105.07,49.58V59.94h-1V49.58Z"/><path class="cls-3" d="M107.32,54a3.4,3.4,0,0,1,1.3-1.38,3.7,3.7,0,0,1,1.88-.48,3.42,3.42,0,0,1,1.89.51A2.86,2.86,0,0,1,113.53,54V52.29h1v7.65h-1v-1.7a3,3,0,0,1-1.16,1.3,3.37,3.37,0,0,1-1.88.51,3.6,3.6,0,0,1-1.87-.49,3.42,3.42,0,0,1-1.3-1.39,4.77,4.77,0,0,1,0-4.13Zm5.83.45a2.75,2.75,0,0,0-1-1.08,2.8,2.8,0,0,0-1.43-.37,3,3,0,0,0-1.46.36,2.47,2.47,0,0,0-1,1.06,3.4,3.4,0,0,0-.38,1.64,3.46,3.46,0,0,0,.38,1.65,2.49,2.49,0,0,0,1,1.07,2.86,2.86,0,0,0,1.46.38,2.81,2.81,0,0,0,1.43-.38,2.62,2.62,0,0,0,1-1.08,3.66,3.66,0,0,0,0-3.25Z"/><path class="cls-3" d="M117.23,59.44a2.26,2.26,0,0,1-.93-1.66h1a1.41,1.41,0,0,0,.61,1,2.35,2.35,0,0,0,1.45.4,1.9,1.9,0,0,0,1.25-.37,1.2,1.2,0,0,0,.45-.94.88.88,0,0,0-.25-.65,2,2,0,0,0-.63-.4c-.26-.09-.61-.2-1-.31a10.19,10.19,0,0,1-1.38-.45,2.4,2.4,0,0,1-.91-.66,1.84,1.84,0,0,1-.37-1.19,1.72,1.72,0,0,1,.34-1,2.28,2.28,0,0,1,1-.76,3.46,3.46,0,0,1,1.4-.28,3,3,0,0,1,2,.63,2.26,2.26,0,0,1,.81,1.71h-1a1.51,1.51,0,0,0-.52-1.09,2,2,0,0,0-1.33-.41,2,2,0,0,0-1.2.35,1,1,0,0,0-.46.87,1,1,0,0,0,.27.73,1.69,1.69,0,0,0,.68.45,10.67,10.67,0,0,0,1.09.36,10.82,10.82,0,0,1,1.32.43,2.42,2.42,0,0,1,.84.62,1.67,1.67,0,0,1,.36,1.08,1.86,1.86,0,0,1-.34,1.1,2.28,2.28,0,0,1-.93.76,3.23,3.23,0,0,1-1.39.28A3.53,3.53,0,0,1,117.23,59.44Z"/><path class="cls-3" d="M127.75,54a3.49,3.49,0,0,1,1.31-1.38,3.7,3.7,0,0,1,1.88-.48,3.49,3.49,0,0,1,1.82.49A2.93,2.93,0,0,1,134,54V49.58h1V59.94h-1V58.23a2.93,2.93,0,0,1-1.14,1.31,3.44,3.44,0,0,1-1.88.51,3.59,3.59,0,0,1-1.88-.49,3.36,3.36,0,0,1-1.3-1.39,4.27,4.27,0,0,1-.47-2.07A4.38,4.38,0,0,1,127.75,54Zm5.83.45a2.89,2.89,0,0,0-1-1.08,2.83,2.83,0,0,0-1.44-.37,2.91,2.91,0,0,0-1.45.36,2.55,2.55,0,0,0-1,1.06,3.39,3.39,0,0,0-.37,1.64,3.46,3.46,0,0,0,.37,1.65,2.57,2.57,0,0,0,1,1.07,2.94,2.94,0,0,0,2.89,0,2.75,2.75,0,0,0,1-1.08,3.75,3.75,0,0,0,0-3.25Z"/><path class="cls-3" d="M137.16,50.64a.74.74,0,0,1,0-1,.74.74,0,0,1,1,0,.72.72,0,1,1-1,1Zm1,1.65v7.65h-1V52.29Z"/><path class="cls-3" d="M143.39,53.12h-1.78v6.82h-1V53.12h-1.06v-.83h1.06v-.53a2.35,2.35,0,0,1,.64-1.83,3,3,0,0,1,2.06-.59v.84a1.93,1.93,0,0,0-1.33.36,1.62,1.62,0,0,0-.39,1.22v.53h1.78Z"/><path class="cls-3" d="M151.82,56.49h-6.34A2.93,2.93,0,0,0,145.9,58a2.46,2.46,0,0,0,1,.93,2.9,2.9,0,0,0,1.34.31,2.71,2.71,0,0,0,1.61-.46,2.19,2.19,0,0,0,.86-1.24h1a3.2,3.2,0,0,1-1.19,1.82,3.68,3.68,0,0,1-2.31.71,3.89,3.89,0,0,1-1.93-.48A3.49,3.49,0,0,1,145,58.19a4.28,4.28,0,0,1-.48-2.07A4.36,4.36,0,0,1,145,54a3.26,3.26,0,0,1,1.33-1.37,3.9,3.9,0,0,1,1.94-.48,3.69,3.69,0,0,1,1.91.48,3.26,3.26,0,0,1,1.27,1.28,3.7,3.7,0,0,1,.44,1.78A7.24,7.24,0,0,1,151.82,56.49Zm-1.31-2.25a2.36,2.36,0,0,0-1-.91,2.91,2.91,0,0,0-1.35-.31,2.69,2.69,0,0,0-1.86.7,2.8,2.8,0,0,0-.85,2h5.37A2.7,2.7,0,0,0,150.51,54.24Z"/><path class="cls-3" d="M155.6,52.55a3.12,3.12,0,0,1,1.64-.4v1H157a2.49,2.49,0,0,0-1.71.57,2.45,2.45,0,0,0-.64,1.92v4.27h-1V52.29h1v1.36A2.38,2.38,0,0,1,155.6,52.55Z"/><path class="cls-3" d="M165.59,56.49h-6.34a3.14,3.14,0,0,0,.42,1.49,2.42,2.42,0,0,0,1,.93,2.87,2.87,0,0,0,1.34.31,2.68,2.68,0,0,0,1.6-.46,2.14,2.14,0,0,0,.86-1.24h1a3.27,3.27,0,0,1-1.2,1.82,3.67,3.67,0,0,1-2.3.71,3.86,3.86,0,0,1-1.93-.48,3.43,3.43,0,0,1-1.34-1.38,4.28,4.28,0,0,1-.48-2.07,4.47,4.47,0,0,1,.47-2.09,3.26,3.26,0,0,1,1.33-1.37,3.91,3.91,0,0,1,1.95-.48,3.71,3.71,0,0,1,1.91.48,3.17,3.17,0,0,1,1.26,1.28,3.59,3.59,0,0,1,.44,1.78A7.24,7.24,0,0,1,165.59,56.49Zm-1.3-2.25a2.39,2.39,0,0,0-1-.91A2.9,2.9,0,0,0,162,53a2.69,2.69,0,0,0-1.86.7,2.81,2.81,0,0,0-.86,2h5.38A2.79,2.79,0,0,0,164.29,54.24Z"/><path class="cls-3" d="M173.24,53a3.3,3.3,0,0,1,.87,2.46v4.48h-1V55.57a2.67,2.67,0,0,0-.62-1.9,2.23,2.23,0,0,0-1.7-.66,2.31,2.31,0,0,0-1.77.7,2.88,2.88,0,0,0-.66,2.06v4.17h-1V52.29h1V53.6a2.6,2.6,0,0,1,1.05-1.08,3.33,3.33,0,0,1,1.56-.37A3.1,3.1,0,0,1,173.24,53Z"/><path class="cls-3" d="M177.55,53.12v4.75a1.34,1.34,0,0,0,.27,1,1.28,1.28,0,0,0,.93.27h.9v.84H178.6a2.13,2.13,0,0,1-1.54-.49,2.1,2.1,0,0,1-.5-1.58V53.12h-1.07v-.83h1.07V50.38h1v1.91h2.1v.83Z"/><path class="cls-3" d="M188.15,56.49h-6.34a2.93,2.93,0,0,0,.42,1.49,2.46,2.46,0,0,0,1,.93,2.9,2.9,0,0,0,1.34.31,2.71,2.71,0,0,0,1.61-.46,2.19,2.19,0,0,0,.86-1.24h1a3.2,3.2,0,0,1-1.19,1.82,3.68,3.68,0,0,1-2.31.71,3.86,3.86,0,0,1-1.93-.48,3.49,3.49,0,0,1-1.34-1.38,4.28,4.28,0,0,1-.48-2.07,4.36,4.36,0,0,1,.48-2.09,3.26,3.26,0,0,1,1.33-1.37,3.9,3.9,0,0,1,1.94-.48,3.69,3.69,0,0,1,1.91.48,3.26,3.26,0,0,1,1.27,1.28,3.7,3.7,0,0,1,.44,1.78A7.24,7.24,0,0,1,188.15,56.49Zm-1.31-2.25a2.36,2.36,0,0,0-1-.91,2.91,2.91,0,0,0-1.35-.31,2.69,2.69,0,0,0-1.86.7,2.8,2.8,0,0,0-.85,2h5.37A2.7,2.7,0,0,0,186.84,54.24Z"/><path class="cls-3" d="M190.45,59.44a2.23,2.23,0,0,1-.93-1.66h1a1.41,1.41,0,0,0,.61,1,2.35,2.35,0,0,0,1.45.4,1.9,1.9,0,0,0,1.25-.37,1.2,1.2,0,0,0,.45-.94.88.88,0,0,0-.25-.65,2,2,0,0,0-.63-.4c-.26-.09-.61-.2-1-.31A10.19,10.19,0,0,1,191,56.1a2.4,2.4,0,0,1-.91-.66,1.84,1.84,0,0,1-.37-1.19,1.72,1.72,0,0,1,.34-1,2.28,2.28,0,0,1,1-.76,3.46,3.46,0,0,1,1.4-.28,3,3,0,0,1,2,.63,2.26,2.26,0,0,1,.81,1.71h-1a1.49,1.49,0,0,0-.53-1.09,2,2,0,0,0-1.32-.41,2,2,0,0,0-1.2.35,1,1,0,0,0-.46.87A1,1,0,0,0,191,55a1.69,1.69,0,0,0,.68.45,10.67,10.67,0,0,0,1.09.36,10.82,10.82,0,0,1,1.32.43,2.42,2.42,0,0,1,.84.62,1.67,1.67,0,0,1,.36,1.08,1.86,1.86,0,0,1-.34,1.1,2.28,2.28,0,0,1-.93.76,3.26,3.26,0,0,1-1.39.28A3.53,3.53,0,0,1,190.45,59.44Z"/><path class="cls-3" d="M201,54a3.42,3.42,0,0,1,1.31-1.38,3.68,3.68,0,0,1,1.88-.48,3.37,3.37,0,0,1,1.88.51A2.86,2.86,0,0,1,207.17,54V52.29h1v7.65h-1v-1.7a3,3,0,0,1-1.15,1.3,3.41,3.41,0,0,1-1.88.51,3.58,3.58,0,0,1-1.87-.49A3.45,3.45,0,0,1,201,58.17,4.87,4.87,0,0,1,201,54Zm5.84.45a2.89,2.89,0,0,0-1-1.08,3,3,0,0,0-2.89,0,2.55,2.55,0,0,0-1,1.06,3.39,3.39,0,0,0-.37,1.64,3.46,3.46,0,0,0,.37,1.65,2.57,2.57,0,0,0,1,1.07,2.8,2.8,0,0,0,1.45.38,2.87,2.87,0,0,0,1.44-.38,2.75,2.75,0,0,0,1-1.08,3.75,3.75,0,0,0,0-3.25Z"/><path class="cls-3" d="M212.36,52.55a3.08,3.08,0,0,1,1.63-.4v1h-.26a2.49,2.49,0,0,0-1.71.57,2.46,2.46,0,0,0-.65,1.92v4.27h-1V52.29h1v1.36A2.46,2.46,0,0,1,212.36,52.55Z"/><path class="cls-3" d="M222.35,56.49H216a3.14,3.14,0,0,0,.42,1.49,2.46,2.46,0,0,0,1,.93,2.91,2.91,0,0,0,1.35.31,2.7,2.7,0,0,0,1.6-.46,2.19,2.19,0,0,0,.86-1.24h1a3.27,3.27,0,0,1-1.2,1.82,3.67,3.67,0,0,1-2.3.71,3.9,3.9,0,0,1-1.94-.48,3.4,3.4,0,0,1-1.33-1.38,4.17,4.17,0,0,1-.49-2.07,4.36,4.36,0,0,1,.48-2.09,3.26,3.26,0,0,1,1.33-1.37,3.91,3.91,0,0,1,2-.48,3.74,3.74,0,0,1,1.91.48,3.3,3.3,0,0,1,1.26,1.28,3.7,3.7,0,0,1,.44,1.78A7.24,7.24,0,0,1,222.35,56.49ZM221,54.24a2.36,2.36,0,0,0-1-.91,2.91,2.91,0,0,0-1.35-.31,2.7,2.7,0,0,0-1.86.7,2.8,2.8,0,0,0-.85,2h5.37A2.7,2.7,0,0,0,221,54.24Z"/><path class="cls-3" d="M224.19,54a3.4,3.4,0,0,1,1.3-1.38,3.74,3.74,0,0,1,1.89-.48,3.41,3.41,0,0,1,1.88.51A2.86,2.86,0,0,1,230.4,54V52.29h1v7.65h-1v-1.7a3,3,0,0,1-1.16,1.3,3.37,3.37,0,0,1-1.88.51,3.6,3.6,0,0,1-1.87-.49,3.42,3.42,0,0,1-1.3-1.39,4.77,4.77,0,0,1,0-4.13Zm5.83.45a2.75,2.75,0,0,0-1-1.08,2.8,2.8,0,0,0-1.43-.37,3,3,0,0,0-1.46.36,2.47,2.47,0,0,0-1,1.06,3.39,3.39,0,0,0-.37,1.64,3.46,3.46,0,0,0,.37,1.65,2.49,2.49,0,0,0,1,1.07,2.86,2.86,0,0,0,1.46.38,2.81,2.81,0,0,0,1.43-.38,2.62,2.62,0,0,0,1-1.08,3.66,3.66,0,0,0,0-3.25Z"/><path class="cls-3" d="M234.1,59.44a2.26,2.26,0,0,1-.93-1.66h1a1.44,1.44,0,0,0,.61,1,2.35,2.35,0,0,0,1.45.4,1.9,1.9,0,0,0,1.25-.37,1.21,1.21,0,0,0,.46-.94.89.89,0,0,0-.26-.65,1.89,1.89,0,0,0-.63-.4c-.26-.09-.61-.2-1.05-.31a10.19,10.19,0,0,1-1.38-.45,2.4,2.4,0,0,1-.91-.66,1.84,1.84,0,0,1-.37-1.19,1.72,1.72,0,0,1,.34-1,2.28,2.28,0,0,1,.95-.76,3.46,3.46,0,0,1,1.4-.28,3,3,0,0,1,2,.63,2.26,2.26,0,0,1,.81,1.71h-1a1.51,1.51,0,0,0-.52-1.09A2,2,0,0,0,236,53a2,2,0,0,0-1.2.35,1,1,0,0,0-.46.87,1,1,0,0,0,.27.73,1.69,1.69,0,0,0,.68.45,10.67,10.67,0,0,0,1.09.36,10.82,10.82,0,0,1,1.32.43,2.42,2.42,0,0,1,.84.62,1.67,1.67,0,0,1,.36,1.08,1.92,1.92,0,0,1-.33,1.1,2.38,2.38,0,0,1-.94.76,3.23,3.23,0,0,1-1.39.28A3.53,3.53,0,0,1,234.1,59.44Z"/><path class="cls-3" d="M244.62,54a3.49,3.49,0,0,1,1.31-1.38,3.74,3.74,0,0,1,1.89-.48,3.54,3.54,0,0,1,1.82.49A3,3,0,0,1,250.83,54V49.58h1V59.94h-1V58.23a3,3,0,0,1-1.15,1.31,3.41,3.41,0,0,1-1.88.51,3.59,3.59,0,0,1-1.88-.49,3.36,3.36,0,0,1-1.3-1.39,4.27,4.27,0,0,1-.47-2.07A4.38,4.38,0,0,1,244.62,54Zm5.83.45A2.71,2.71,0,0,0,248,53a2.91,2.91,0,0,0-1.45.36,2.55,2.55,0,0,0-1,1.06,3.39,3.39,0,0,0-.37,1.64,3.46,3.46,0,0,0,.37,1.65,2.57,2.57,0,0,0,1,1.07,2.94,2.94,0,0,0,2.89,0,2.68,2.68,0,0,0,1-1.08,3.66,3.66,0,0,0,0-3.25Z"/><path class="cls-3" d="M260.93,56.49h-6.34A3.14,3.14,0,0,0,255,58a2.46,2.46,0,0,0,1,.93,2.94,2.94,0,0,0,1.35.31,2.68,2.68,0,0,0,1.6-.46,2.14,2.14,0,0,0,.86-1.24h1a3.27,3.27,0,0,1-1.2,1.82,3.67,3.67,0,0,1-2.3.71,3.86,3.86,0,0,1-1.93-.48,3.43,3.43,0,0,1-1.34-1.38,4.28,4.28,0,0,1-.48-2.07,4.47,4.47,0,0,1,.47-2.09,3.26,3.26,0,0,1,1.33-1.37,3.91,3.91,0,0,1,2-.48,3.71,3.71,0,0,1,1.91.48,3.17,3.17,0,0,1,1.26,1.28,3.7,3.7,0,0,1,.44,1.78A7.24,7.24,0,0,1,260.93,56.49Zm-1.31-2.25a2.3,2.3,0,0,0-1-.91,2.9,2.9,0,0,0-1.34-.31,2.69,2.69,0,0,0-1.86.7,2.81,2.81,0,0,0-.86,2H260A2.7,2.7,0,0,0,259.62,54.24Z"/><path class="cls-3" d="M267.07,59.44a2.26,2.26,0,0,1-.93-1.66h1a1.44,1.44,0,0,0,.61,1,2.35,2.35,0,0,0,1.45.4,1.9,1.9,0,0,0,1.25-.37,1.21,1.21,0,0,0,.46-.94.89.89,0,0,0-.26-.65,1.89,1.89,0,0,0-.63-.4c-.26-.09-.61-.2-1-.31a10.19,10.19,0,0,1-1.38-.45,2.4,2.4,0,0,1-.91-.66,1.84,1.84,0,0,1-.37-1.19,1.72,1.72,0,0,1,.34-1,2.28,2.28,0,0,1,.95-.76,3.46,3.46,0,0,1,1.4-.28,3,3,0,0,1,2,.63,2.26,2.26,0,0,1,.81,1.71h-1a1.51,1.51,0,0,0-.52-1.09A2,2,0,0,0,269,53a2,2,0,0,0-1.2.35,1,1,0,0,0-.46.87,1,1,0,0,0,.27.73,1.69,1.69,0,0,0,.68.45,10.67,10.67,0,0,0,1.09.36,10.82,10.82,0,0,1,1.32.43,2.42,2.42,0,0,1,.84.62,1.67,1.67,0,0,1,.36,1.08,1.86,1.86,0,0,1-.34,1.1,2.28,2.28,0,0,1-.93.76,3.23,3.23,0,0,1-1.39.28A3.53,3.53,0,0,1,267.07,59.44Z"/><path class="cls-3" d="M280.35,52.29v7.65h-1V58.59a2.36,2.36,0,0,1-1,1.1,3.21,3.21,0,0,1-1.56.37,3.08,3.08,0,0,1-2.24-.84,3.3,3.3,0,0,1-.87-2.46V52.29h1v4.36a2.64,2.64,0,0,0,.63,1.9,2.21,2.21,0,0,0,1.7.66,2.28,2.28,0,0,0,1.76-.7,2.9,2.9,0,0,0,.66-2.06V52.29Z"/><path class="cls-3" d="M288.39,52.55a3.1,3.1,0,0,1,1.63-.4v1h-.26a2.49,2.49,0,0,0-1.71.57,2.45,2.45,0,0,0-.64,1.92v4.27h-1V52.29h1v1.36A2.38,2.38,0,0,1,288.39,52.55Z"/><path class="cls-3" d="M298.38,56.49H292a3.14,3.14,0,0,0,.42,1.49,2.42,2.42,0,0,0,1,.93,2.87,2.87,0,0,0,1.34.31,2.68,2.68,0,0,0,1.6-.46,2.14,2.14,0,0,0,.86-1.24h1a3.27,3.27,0,0,1-1.2,1.82,3.67,3.67,0,0,1-2.3.71,3.86,3.86,0,0,1-1.93-.48,3.43,3.43,0,0,1-1.34-1.38,4.28,4.28,0,0,1-.48-2.07,4.47,4.47,0,0,1,.47-2.09,3.26,3.26,0,0,1,1.33-1.37,3.91,3.91,0,0,1,1.95-.48,3.71,3.71,0,0,1,1.91.48A3.17,3.17,0,0,1,298,53.94a3.7,3.7,0,0,1,.44,1.78A7.24,7.24,0,0,1,298.38,56.49Zm-1.31-2.25a2.3,2.3,0,0,0-1-.91,2.9,2.9,0,0,0-1.34-.31,2.73,2.73,0,0,0-1.87.7,2.84,2.84,0,0,0-.85,2h5.38A2.7,2.7,0,0,0,297.07,54.24Z"/><path class="cls-3" d="M300.23,54a3.42,3.42,0,0,1,1.31-1.38,3.68,3.68,0,0,1,1.88-.48,3.52,3.52,0,0,1,1.82.49A3,3,0,0,1,306.43,54V49.58h1V59.94h-1V58.23a2.93,2.93,0,0,1-1.14,1.31,3.44,3.44,0,0,1-1.88.51,3.59,3.59,0,0,1-1.88-.49,3.45,3.45,0,0,1-1.31-1.39,4.39,4.39,0,0,1-.47-2.07A4.26,4.26,0,0,1,300.23,54Zm5.82.45a2.79,2.79,0,0,0-1-1.08,2.86,2.86,0,0,0-1.44-.37,3,3,0,0,0-1.46.36,2.59,2.59,0,0,0-1,1.06,3.39,3.39,0,0,0-.37,1.64,3.46,3.46,0,0,0,.37,1.65,2.61,2.61,0,0,0,1,1.07,3,3,0,0,0,2.9,0,2.66,2.66,0,0,0,1-1.08,3.66,3.66,0,0,0,0-3.25Z"/><path class="cls-3" d="M24.46,69.09,19.93,80.34h-1l1.49-3.64-3.14-7.61h1.08l2.6,6.53,2.52-6.53Z"/><path class="cls-3" d="M29.65,70.84A3.33,3.33,0,0,1,31,69.46,3.7,3.7,0,0,1,32.83,69a3.42,3.42,0,0,1,1.89.51,3,3,0,0,1,1.14,1.28V69.09h1v7.65h-1V75a3.08,3.08,0,0,1-1.16,1.3,3.39,3.39,0,0,1-1.88.51A3.6,3.6,0,0,1,31,76.36,3.36,3.36,0,0,1,29.65,75a4.77,4.77,0,0,1,0-4.13Zm5.83.45A2.71,2.71,0,0,0,33,69.84a2.93,2.93,0,0,0-1.46.36,2.55,2.55,0,0,0-1,1.06,3.51,3.51,0,0,0-.37,1.64,3.58,3.58,0,0,0,.37,1.65,2.57,2.57,0,0,0,1,1.07A2.84,2.84,0,0,0,33,76a2.81,2.81,0,0,0,1.43-.38,2.68,2.68,0,0,0,1-1.08,3.66,3.66,0,0,0,0-3.25Z"/><path class="cls-3" d="M41.2,69.49A3.39,3.39,0,0,1,43.08,69a3.69,3.69,0,0,1,1.87.48,3.33,3.33,0,0,1,1.3,1.38,4.77,4.77,0,0,1,0,4.13A3.36,3.36,0,0,1,45,76.36a3.6,3.6,0,0,1-1.87.49,3.38,3.38,0,0,1-1.87-.51A3.11,3.11,0,0,1,40,75.06v5.29h-1V69.09h1v1.68A3.15,3.15,0,0,1,41.2,69.49Zm4.16,1.77a2.55,2.55,0,0,0-1-1.06,2.91,2.91,0,0,0-1.45-.36,2.71,2.71,0,0,0-2.47,1.45,3.66,3.66,0,0,0,0,3.25,2.68,2.68,0,0,0,1,1.08,2.94,2.94,0,0,0,2.89,0,2.57,2.57,0,0,0,1-1.07,3.58,3.58,0,0,0,.37-1.65A3.51,3.51,0,0,0,45.36,71.26Z"/><path class="cls-3" d="M49.51,66.38V76.74h-1V66.38Z"/><path class="cls-3" d="M51.72,67.44a.74.74,0,0,1,0-1,.74.74,0,0,1,1,0,.72.72,0,1,1-1,1Zm1,1.65v7.65h-1V69.09Z"/><path class="cls-3" d="M55,70.84a3.36,3.36,0,0,1,1.31-1.38,4.16,4.16,0,0,1,4.25.22,3.14,3.14,0,0,1,1.18,1.91h-1a2.22,2.22,0,0,0-.85-1.3,2.74,2.74,0,0,0-1.62-.47,2.84,2.84,0,0,0-1.39.35,2.45,2.45,0,0,0-1,1,3.7,3.7,0,0,0-.36,1.71,3.65,3.65,0,0,0,.36,1.7,2.42,2.42,0,0,0,1,1,3,3,0,0,0,3-.11,2.24,2.24,0,0,0,.85-1.31h1a3.18,3.18,0,0,1-1.19,1.89,3.71,3.71,0,0,1-2.32.71,3.8,3.8,0,0,1-1.92-.48A3.36,3.36,0,0,1,55,75a4.73,4.73,0,0,1,0-4.15Z"/><path class="cls-3" d="M63.54,70.84a3.4,3.4,0,0,1,1.3-1.38A3.74,3.74,0,0,1,66.73,69a3.39,3.39,0,0,1,1.88.51,2.86,2.86,0,0,1,1.14,1.28V69.09h1v7.65h-1V75a3.05,3.05,0,0,1-1.15,1.3,3.42,3.42,0,0,1-1.89.51,3.6,3.6,0,0,1-1.87-.49A3.42,3.42,0,0,1,63.54,75a4.77,4.77,0,0,1,0-4.13Zm5.83.45a2.75,2.75,0,0,0-1-1.08,2.8,2.8,0,0,0-1.43-.37,3,3,0,0,0-1.46.36,2.53,2.53,0,0,0-1,1.06,3.39,3.39,0,0,0-.37,1.64,3.46,3.46,0,0,0,.37,1.65,2.55,2.55,0,0,0,1,1.07,2.86,2.86,0,0,0,1.46.38,2.81,2.81,0,0,0,1.43-.38,2.62,2.62,0,0,0,1-1.08,3.66,3.66,0,0,0,0-3.25Z"/><path class="cls-3" d="M73,70.84a3.42,3.42,0,0,1,1.31-1.38A3.8,3.8,0,0,1,76.23,69a3.75,3.75,0,0,1,2.33.7,3.2,3.2,0,0,1,1.19,1.91h-1a2.17,2.17,0,0,0-.85-1.3,2.7,2.7,0,0,0-1.62-.47,2.77,2.77,0,0,0-1.38.35,2.47,2.47,0,0,0-1,1,3.83,3.83,0,0,0-.35,1.71,3.79,3.79,0,0,0,.35,1.7,2.44,2.44,0,0,0,1,1,3,3,0,0,0,3-.11,2.2,2.2,0,0,0,.85-1.31h1a3.27,3.27,0,0,1-1.19,1.89,3.74,3.74,0,0,1-2.33.71,3.8,3.8,0,0,1-1.92-.48A3.42,3.42,0,0,1,73,75a4.73,4.73,0,0,1,0-4.15Z"/><path class="cls-3" d="M81.54,67.44a.74.74,0,0,1,0-1,.74.74,0,0,1,1,0,.72.72,0,1,1-1,1Zm1,1.65v7.65h-1V69.09Z"/><path class="cls-3" d="M86.17,76.37A3.47,3.47,0,0,1,84.81,75a4.56,4.56,0,0,1,0-4.15,3.59,3.59,0,0,1,1.38-1.38A3.93,3.93,0,0,1,88.13,69a4,4,0,0,1,2,.48,3.5,3.5,0,0,1,1.37,1.38A4.18,4.18,0,0,1,92,72.92a4.12,4.12,0,0,1-.5,2.07,3.55,3.55,0,0,1-1.39,1.38,4,4,0,0,1-2,.48A3.89,3.89,0,0,1,86.17,76.37Zm3.33-.72a2.66,2.66,0,0,0,1-1,3.45,3.45,0,0,0,.4-1.7,3.35,3.35,0,0,0-.4-1.71,2.55,2.55,0,0,0-1-1,3.05,3.05,0,0,0-2.8,0,2.55,2.55,0,0,0-1,1,3.92,3.92,0,0,0,0,3.41,2.59,2.59,0,0,0,1,1,3,3,0,0,0,2.79,0Z"/><path class="cls-3" d="M99.57,69.8a3.28,3.28,0,0,1,.87,2.46v4.48h-1V72.37a2.67,2.67,0,0,0-.62-1.9,2.23,2.23,0,0,0-1.7-.66,2.31,2.31,0,0,0-1.77.7,2.92,2.92,0,0,0-.65,2.06v4.17h-1V69.09h1V70.4a2.49,2.49,0,0,1,1-1.08A3.26,3.26,0,0,1,97.33,69,3.09,3.09,0,0,1,99.57,69.8Z"/><path class="cls-3" d="M109.5,73.29h-6.35a3.14,3.14,0,0,0,.42,1.49,2.55,2.55,0,0,0,1,.93,2.9,2.9,0,0,0,1.34.31,2.71,2.71,0,0,0,1.61-.46,2.19,2.19,0,0,0,.86-1.24h1a3.2,3.2,0,0,1-1.19,1.82,3.7,3.7,0,0,1-2.31.71,3.86,3.86,0,0,1-1.93-.48A3.49,3.49,0,0,1,102.64,75a4.28,4.28,0,0,1-.48-2.07,4.36,4.36,0,0,1,.48-2.09A3.2,3.2,0,0,1,104,69.46a3.88,3.88,0,0,1,1.94-.48,3.69,3.69,0,0,1,1.91.48,3.17,3.17,0,0,1,1.26,1.28,3.59,3.59,0,0,1,.44,1.78C109.52,72.86,109.51,73.12,109.5,73.29ZM108.19,71a2.39,2.39,0,0,0-1-.91,2.87,2.87,0,0,0-1.34-.31,2.69,2.69,0,0,0-1.86.7,2.85,2.85,0,0,0-.86,2h5.38A2.7,2.7,0,0,0,108.19,71Z"/><path class="cls-3" d="M111.8,76.24a2.2,2.2,0,0,1-.93-1.66h1a1.41,1.41,0,0,0,.61,1,2.32,2.32,0,0,0,1.44.4,1.93,1.93,0,0,0,1.26-.37,1.2,1.2,0,0,0,.45-.94.88.88,0,0,0-.25-.65,1.94,1.94,0,0,0-.64-.4c-.25-.09-.6-.2-1-.31a10.9,10.9,0,0,1-1.39-.45,2.45,2.45,0,0,1-.9-.66,1.78,1.78,0,0,1-.37-1.19,1.72,1.72,0,0,1,.34-1,2.28,2.28,0,0,1,1-.76,3.46,3.46,0,0,1,1.4-.28,3.07,3.07,0,0,1,2,.62,2.3,2.3,0,0,1,.81,1.72h-1a1.49,1.49,0,0,0-.53-1.09,2,2,0,0,0-1.32-.41,1.94,1.94,0,0,0-1.2.35A1,1,0,0,0,112,71a1,1,0,0,0,.28.73,1.69,1.69,0,0,0,.68.45,10.67,10.67,0,0,0,1.09.36,10,10,0,0,1,1.31.43,2.25,2.25,0,0,1,.84.62,1.62,1.62,0,0,1,.37,1.08,1.86,1.86,0,0,1-.34,1.1,2.25,2.25,0,0,1-.94.76,3.18,3.18,0,0,1-1.38.28A3.51,3.51,0,0,1,111.8,76.24Z"/><path class="cls-3" d="M119.35,75.11l-1.45,3.67h-.68l1-3.67Z"/><path class="cls-3" d="M124.74,70.84a3.49,3.49,0,0,1,1.31-1.38,3.7,3.7,0,0,1,1.88-.48,3.4,3.4,0,0,1,1.82.49,2.93,2.93,0,0,1,1.19,1.28V66.38h1V76.74h-1V75a2.93,2.93,0,0,1-1.14,1.31,3.44,3.44,0,0,1-1.88.51,3.59,3.59,0,0,1-1.88-.49,3.36,3.36,0,0,1-1.3-1.39,4.77,4.77,0,0,1,0-4.13Zm5.83.45a2.89,2.89,0,0,0-1-1.08,2.86,2.86,0,0,0-1.44-.37,2.91,2.91,0,0,0-1.45.36,2.55,2.55,0,0,0-1,1.06,3.39,3.39,0,0,0-.37,1.64,3.46,3.46,0,0,0,.37,1.65,2.57,2.57,0,0,0,1,1.07,2.83,2.83,0,0,0,1.45.38,2.87,2.87,0,0,0,1.44-.38,2.75,2.75,0,0,0,1-1.08,3.75,3.75,0,0,0,0-3.25Z"/><path class="cls-3" d="M141.05,73.29h-6.34a3.14,3.14,0,0,0,.42,1.49,2.46,2.46,0,0,0,1,.93,2.91,2.91,0,0,0,1.35.31,2.68,2.68,0,0,0,1.6-.46,2.19,2.19,0,0,0,.86-1.24h1a3.27,3.27,0,0,1-1.2,1.82,3.67,3.67,0,0,1-2.3.71,3.84,3.84,0,0,1-1.93-.48A3.43,3.43,0,0,1,134.2,75a4.28,4.28,0,0,1-.48-2.07,4.35,4.35,0,0,1,.47-2.09,3.26,3.26,0,0,1,1.33-1.37,3.91,3.91,0,0,1,1.95-.48,3.71,3.71,0,0,1,1.91.48,3.3,3.3,0,0,1,1.26,1.28,3.7,3.7,0,0,1,.44,1.78A7.24,7.24,0,0,1,141.05,73.29ZM139.74,71a2.36,2.36,0,0,0-1-.91,2.9,2.9,0,0,0-1.34-.31,2.73,2.73,0,0,0-1.87.7,2.84,2.84,0,0,0-.85,2h5.38A2.7,2.7,0,0,0,139.74,71Z"/><path class="cls-3" d="M158,69.8a3.35,3.35,0,0,1,.85,2.46v4.48h-1V72.37a2.71,2.71,0,0,0-.6-1.9,2.11,2.11,0,0,0-1.64-.66,2.22,2.22,0,0,0-1.72.71,3,3,0,0,0-.65,2.07v4.15h-1V72.37a2.71,2.71,0,0,0-.6-1.9,2.15,2.15,0,0,0-1.66-.66,2.22,2.22,0,0,0-1.72.71,3,3,0,0,0-.64,2.07v4.15h-1V69.09h1v1.32a2.53,2.53,0,0,1,1-1.09,3.31,3.31,0,0,1,3.24.11,2.66,2.66,0,0,1,1.09,1.4,2.53,2.53,0,0,1,1.06-1.39,3.22,3.22,0,0,1,3.89.36Z"/><path class="cls-3" d="M162.42,76.37A3.61,3.61,0,0,1,161.06,75a4.6,4.6,0,0,1,0-4.15,3.56,3.56,0,0,1,1.37-1.38,4.2,4.2,0,0,1,3.9,0,3.43,3.43,0,0,1,1.37,1.38,4.08,4.08,0,0,1,.5,2.08,4.23,4.23,0,0,1-.5,2.07,3.55,3.55,0,0,1-1.39,1.38,4,4,0,0,1-2,.48A3.93,3.93,0,0,1,162.42,76.37Zm3.34-.72a2.58,2.58,0,0,0,1-1,3.34,3.34,0,0,0,.4-1.7,3.46,3.46,0,0,0-.39-1.71,2.61,2.61,0,0,0-1-1,2.93,2.93,0,0,0-1.4-.34,2.87,2.87,0,0,0-1.4.34,2.49,2.49,0,0,0-1,1,3.92,3.92,0,0,0,0,3.41,2.47,2.47,0,0,0,1,1,2.87,2.87,0,0,0,1.39.35A2.91,2.91,0,0,0,165.76,75.65Z"/><path class="cls-3" d="M170,70.84a3.42,3.42,0,0,1,1.31-1.38,3.7,3.7,0,0,1,1.88-.48,3.4,3.4,0,0,1,1.82.49,3,3,0,0,1,1.19,1.28V66.38h1V76.74h-1V75a2.93,2.93,0,0,1-1.14,1.31,3.44,3.44,0,0,1-1.88.51,3.59,3.59,0,0,1-1.88-.49A3.45,3.45,0,0,1,170,75a4.39,4.39,0,0,1-.46-2.07A4.26,4.26,0,0,1,170,70.84Zm5.83.45a2.89,2.89,0,0,0-1-1.08,3,3,0,0,0-2.89,0,2.55,2.55,0,0,0-1,1.06,3.39,3.39,0,0,0-.37,1.64,3.46,3.46,0,0,0,.37,1.65,2.57,2.57,0,0,0,1,1.07,2.8,2.8,0,0,0,1.45.38,2.87,2.87,0,0,0,1.44-.38,2.75,2.75,0,0,0,1-1.08,3.75,3.75,0,0,0,0-3.25Z"/><path class="cls-3" d="M180.86,76.37A3.54,3.54,0,0,1,179.5,75a4.17,4.17,0,0,1-.5-2.07,4.08,4.08,0,0,1,.51-2.08,3.56,3.56,0,0,1,1.37-1.38,4.2,4.2,0,0,1,3.9,0,3.5,3.5,0,0,1,1.37,1.38,4.18,4.18,0,0,1,.5,2.08,4.23,4.23,0,0,1-.5,2.07,3.55,3.55,0,0,1-1.39,1.38,4,4,0,0,1-2,.48A3.9,3.9,0,0,1,180.86,76.37Zm3.34-.72a2.58,2.58,0,0,0,1-1,3.34,3.34,0,0,0,.4-1.7,3.46,3.46,0,0,0-.39-1.71,2.58,2.58,0,0,0-1-1,3.05,3.05,0,0,0-2.8,0,2.55,2.55,0,0,0-1,1,4,4,0,0,0,0,3.41,2.55,2.55,0,0,0,1,1,2.84,2.84,0,0,0,1.39.35A2.94,2.94,0,0,0,184.2,75.65Z"/><path class="cls-3" d="M192.3,70.84a3.49,3.49,0,0,1,1.31-1.38A3.74,3.74,0,0,1,195.5,69a3.38,3.38,0,0,1,1.87.51,2.9,2.9,0,0,1,1.14,1.28V69.09h1V80.35h-1V75.06a3,3,0,0,1-1.14,1.28,3.48,3.48,0,0,1-1.9.51,3.6,3.6,0,0,1-1.87-.49A3.36,3.36,0,0,1,192.3,75a4.77,4.77,0,0,1,0-4.13Zm5.83.45a2.71,2.71,0,0,0-2.46-1.45,2.93,2.93,0,0,0-1.46.36,2.55,2.55,0,0,0-1,1.06,3.51,3.51,0,0,0-.37,1.64,3.58,3.58,0,0,0,.37,1.65,2.57,2.57,0,0,0,1,1.07,2.84,2.84,0,0,0,1.46.38,2.81,2.81,0,0,0,1.43-.38,2.68,2.68,0,0,0,1-1.08,3.66,3.66,0,0,0,0-3.25Z"/><path class="cls-3" d="M208.35,69.09v7.65h-1V75.39a2.41,2.41,0,0,1-1,1.1,3.25,3.25,0,0,1-1.57.37,3.1,3.1,0,0,1-2.24-.84,3.33,3.33,0,0,1-.86-2.46V69.09h1v4.36a2.64,2.64,0,0,0,.63,1.9A2.21,2.21,0,0,0,205,76a2.3,2.3,0,0,0,1.76-.7,2.9,2.9,0,0,0,.66-2.06V69.09Z"/><path class="cls-3" d="M217.48,73.29h-6.35a3.14,3.14,0,0,0,.42,1.49,2.55,2.55,0,0,0,1,.93,2.9,2.9,0,0,0,1.34.31,2.71,2.71,0,0,0,1.61-.46,2.19,2.19,0,0,0,.86-1.24h1a3.2,3.2,0,0,1-1.19,1.82,3.7,3.7,0,0,1-2.31.71,3.86,3.86,0,0,1-1.93-.48A3.49,3.49,0,0,1,210.62,75a4.28,4.28,0,0,1-.48-2.07,4.36,4.36,0,0,1,.48-2.09A3.2,3.2,0,0,1,212,69.46a3.88,3.88,0,0,1,1.94-.48,3.69,3.69,0,0,1,1.91.48,3.17,3.17,0,0,1,1.26,1.28,3.59,3.59,0,0,1,.44,1.78C217.5,72.86,217.5,73.12,217.48,73.29ZM216.17,71a2.33,2.33,0,0,0-1-.91,2.87,2.87,0,0,0-1.34-.31,2.69,2.69,0,0,0-1.86.7,2.85,2.85,0,0,0-.86,2h5.38A2.7,2.7,0,0,0,216.17,71Z"/><path class="cls-3" d="M224.11,66.38V76.74h-1V66.38Z"/><path class="cls-3" d="M227.75,76.37A3.47,3.47,0,0,1,226.39,75a4.56,4.56,0,0,1,0-4.15,3.59,3.59,0,0,1,1.38-1.38,3.9,3.9,0,0,1,1.94-.48,4,4,0,0,1,2,.48A3.5,3.5,0,0,1,233,70.84a4.18,4.18,0,0,1,.49,2.08A4.12,4.12,0,0,1,233,75a3.55,3.55,0,0,1-1.39,1.38,4,4,0,0,1-2,.48A3.89,3.89,0,0,1,227.75,76.37Zm3.33-.72a2.66,2.66,0,0,0,1-1,3.45,3.45,0,0,0,.4-1.7,3.35,3.35,0,0,0-.4-1.71,2.55,2.55,0,0,0-1-1,3.05,3.05,0,0,0-2.8,0,2.55,2.55,0,0,0-1,1,3.92,3.92,0,0,0,0,3.41,2.59,2.59,0,0,0,1,1,3,3,0,0,0,2.79,0Z"/><path class="cls-3" d="M235.81,76.24a2.2,2.2,0,0,1-.93-1.66h1a1.41,1.41,0,0,0,.61,1,2.32,2.32,0,0,0,1.44.4,1.93,1.93,0,0,0,1.26-.37,1.2,1.2,0,0,0,.45-.94.88.88,0,0,0-.25-.65,1.94,1.94,0,0,0-.64-.4c-.25-.09-.6-.2-1-.31a10.9,10.9,0,0,1-1.39-.45,2.45,2.45,0,0,1-.9-.66,1.78,1.78,0,0,1-.37-1.19,1.72,1.72,0,0,1,.34-1,2.28,2.28,0,0,1,.95-.76,3.46,3.46,0,0,1,1.4-.28,3.07,3.07,0,0,1,2,.62,2.3,2.3,0,0,1,.81,1.72h-1a1.49,1.49,0,0,0-.53-1.09,2,2,0,0,0-1.32-.41,1.94,1.94,0,0,0-1.2.35,1,1,0,0,0-.47.87,1,1,0,0,0,.28.73,1.69,1.69,0,0,0,.68.45,10.67,10.67,0,0,0,1.09.36,10,10,0,0,1,1.31.43,2.25,2.25,0,0,1,.84.62,1.62,1.62,0,0,1,.37,1.08,1.86,1.86,0,0,1-.34,1.1,2.25,2.25,0,0,1-.94.76,3.18,3.18,0,0,1-1.38.28A3.51,3.51,0,0,1,235.81,76.24Z"/><path class="cls-3" d="M252.92,69.09v7.65h-1V75.39a2.39,2.39,0,0,1-1,1.1,3.28,3.28,0,0,1-1.57.37A3.1,3.1,0,0,1,247.1,76a3.3,3.3,0,0,1-.87-2.46V69.09h1v4.36a2.68,2.68,0,0,0,.62,1.9,2.23,2.23,0,0,0,1.7.66,2.31,2.31,0,0,0,1.77-.7,2.94,2.94,0,0,0,.65-2.06V69.09Z"/><path class="cls-3" d="M255.65,76.24a2.2,2.2,0,0,1-.93-1.66h1a1.44,1.44,0,0,0,.61,1,2.37,2.37,0,0,0,1.45.4,2,2,0,0,0,1.26-.37,1.2,1.2,0,0,0,.45-.94.88.88,0,0,0-.25-.65,1.94,1.94,0,0,0-.64-.4c-.26-.09-.6-.2-1-.31a10.9,10.9,0,0,1-1.39-.45,2.45,2.45,0,0,1-.9-.66,1.93,1.93,0,0,1,0-2.22,2.38,2.38,0,0,1,1-.76,3.43,3.43,0,0,1,1.4-.28,3,3,0,0,1,2,.62,2.27,2.27,0,0,1,.82,1.72h-1a1.52,1.52,0,0,0-.53-1.09,2.3,2.3,0,0,0-2.53-.06,1.06,1.06,0,0,0-.46.87,1,1,0,0,0,.28.73,1.65,1.65,0,0,0,.67.45c.28.11.64.23,1.1.36a10,10,0,0,1,1.31.43,2.25,2.25,0,0,1,.84.62,1.62,1.62,0,0,1,.37,1.08,1.93,1.93,0,0,1-.34,1.1,2.31,2.31,0,0,1-.94.76,3.18,3.18,0,0,1-1.38.28A3.51,3.51,0,0,1,255.65,76.24Z"/><path class="cls-3" d="M268.93,69.09v7.65h-1V75.39a2.41,2.41,0,0,1-1,1.1,3.28,3.28,0,0,1-1.57.37A3.1,3.1,0,0,1,263.1,76a3.3,3.3,0,0,1-.87-2.46V69.09h1v4.36a2.68,2.68,0,0,0,.62,1.9,2.24,2.24,0,0,0,1.7.66,2.31,2.31,0,0,0,1.77-.7,2.9,2.9,0,0,0,.66-2.06V69.09Z"/><path class="cls-3" d="M271.19,70.84a3.33,3.33,0,0,1,1.3-1.38,3.68,3.68,0,0,1,1.88-.48,3.37,3.37,0,0,1,1.88.51,2.94,2.94,0,0,1,1.15,1.28V69.09h1v7.65h-1V75a3.08,3.08,0,0,1-1.16,1.3,3.39,3.39,0,0,1-1.88.51,3.58,3.58,0,0,1-1.87-.49,3.36,3.36,0,0,1-1.3-1.39,4.77,4.77,0,0,1,0-4.13Zm5.83.45a2.71,2.71,0,0,0-2.47-1.45,2.91,2.91,0,0,0-1.45.36,2.55,2.55,0,0,0-1,1.06,3.51,3.51,0,0,0-.37,1.64,3.58,3.58,0,0,0,.37,1.65,2.57,2.57,0,0,0,1,1.07,2.94,2.94,0,0,0,2.89,0,2.68,2.68,0,0,0,1-1.08,3.66,3.66,0,0,0,0-3.25Z"/><path class="cls-3" d="M282.58,69.35a3.1,3.1,0,0,1,1.63-.4v1H284a2.49,2.49,0,0,0-1.71.57,2.45,2.45,0,0,0-.64,1.92v4.27h-1V69.09h1v1.36A2.38,2.38,0,0,1,282.58,69.35Z"/><path class="cls-3" d="M285.67,67.44a.74.74,0,0,1,0-1,.74.74,0,0,1,1,0,.72.72,0,1,1-1,1Zm1,1.65v7.65h-1V69.09Z"/><path class="cls-3" d="M290.3,76.37A3.47,3.47,0,0,1,288.94,75a4.17,4.17,0,0,1-.5-2.07,4.08,4.08,0,0,1,.51-2.08,3.5,3.5,0,0,1,1.37-1.38,3.93,3.93,0,0,1,1.94-.48,4,4,0,0,1,2,.48,3.5,3.5,0,0,1,1.37,1.38,4.18,4.18,0,0,1,.5,2.08,4.13,4.13,0,0,1-.51,2.07,3.52,3.52,0,0,1-1.38,1.38,4.06,4.06,0,0,1-2,.48A3.9,3.9,0,0,1,290.3,76.37Zm3.34-.72a2.64,2.64,0,0,0,1-1,3.88,3.88,0,0,0,0-3.41,2.64,2.64,0,0,0-1-1,3.05,3.05,0,0,0-2.8,0,2.55,2.55,0,0,0-1,1,4,4,0,0,0,0,3.41,2.59,2.59,0,0,0,1,1,3,3,0,0,0,2.8,0Z"/><path class="cls-3" d="M298.36,76.24a2.23,2.23,0,0,1-.93-1.66h1a1.41,1.41,0,0,0,.61,1,2.35,2.35,0,0,0,1.45.4,1.9,1.9,0,0,0,1.25-.37,1.2,1.2,0,0,0,.45-.94.88.88,0,0,0-.25-.65,1.94,1.94,0,0,0-.64-.4c-.25-.09-.6-.2-1-.31a10.19,10.19,0,0,1-1.38-.45,2.4,2.4,0,0,1-.91-.66,1.84,1.84,0,0,1-.37-1.19,1.72,1.72,0,0,1,.34-1,2.28,2.28,0,0,1,.95-.76,3.46,3.46,0,0,1,1.4-.28,3.07,3.07,0,0,1,2,.62,2.3,2.3,0,0,1,.81,1.72h-1a1.49,1.49,0,0,0-.53-1.09,2,2,0,0,0-1.32-.41,2,2,0,0,0-1.2.35,1,1,0,0,0-.46.87,1,1,0,0,0,.27.73,1.69,1.69,0,0,0,.68.45,10.67,10.67,0,0,0,1.09.36A10.82,10.82,0,0,1,302,73a2.42,2.42,0,0,1,.84.62,1.67,1.67,0,0,1,.36,1.08,1.86,1.86,0,0,1-.34,1.1,2.28,2.28,0,0,1-.93.76,3.26,3.26,0,0,1-1.39.28A3.53,3.53,0,0,1,298.36,76.24Z"/><path class="cls-3" d="M27,86.29a3.37,3.37,0,0,1,1.88-.51,3.69,3.69,0,0,1,1.87.48,3.46,3.46,0,0,1,1.3,1.38,4.77,4.77,0,0,1,0,4.13,3.42,3.42,0,0,1-1.3,1.39,3.6,3.6,0,0,1-1.87.49A3.44,3.44,0,0,1,27,93.14a3.08,3.08,0,0,1-1.16-1.28v5.29h-1V85.89h1v1.68A3.08,3.08,0,0,1,27,86.29Zm4.15,1.77a2.52,2.52,0,0,0-1-1.06,2.93,2.93,0,0,0-1.46-.36,2.8,2.8,0,0,0-1.43.37,2.75,2.75,0,0,0-1,1.08,3.66,3.66,0,0,0,0,3.25,2.62,2.62,0,0,0,1,1.08,2.81,2.81,0,0,0,1.43.38,2.93,2.93,0,0,0,1.46-.37,2.58,2.58,0,0,0,1-1.08,3.46,3.46,0,0,0,.38-1.65A3.4,3.4,0,0,0,31.17,88.06Z"/><path class="cls-3" d="M41,85.89v7.65H40V92.19a2.41,2.41,0,0,1-1,1.1,3.28,3.28,0,0,1-1.57.37,3.1,3.1,0,0,1-2.24-.84,3.29,3.29,0,0,1-.86-2.46V85.89h1v4.36a2.68,2.68,0,0,0,.62,1.9,2.25,2.25,0,0,0,1.71.66,2.3,2.3,0,0,0,1.76-.7A2.9,2.9,0,0,0,40,90.05V85.89Z"/><path class="cls-3" d="M50.1,90.09H43.75a3.14,3.14,0,0,0,.42,1.49,2.55,2.55,0,0,0,1,.93,2.9,2.9,0,0,0,1.34.31,2.66,2.66,0,0,0,1.6-.46A2.16,2.16,0,0,0,49,91.12h1a3.22,3.22,0,0,1-1.2,1.82,3.65,3.65,0,0,1-2.3.71,3.86,3.86,0,0,1-1.93-.48,3.4,3.4,0,0,1-1.34-1.37,4.77,4.77,0,0,1,0-4.17,3.26,3.26,0,0,1,1.33-1.37,3.85,3.85,0,0,1,1.94-.48,3.69,3.69,0,0,1,1.91.48,3.23,3.23,0,0,1,1.26,1.28,3.59,3.59,0,0,1,.44,1.78C50.12,89.66,50.11,89.92,50.1,90.09Zm-1.31-2.25a2.39,2.39,0,0,0-1-.91,2.9,2.9,0,0,0-1.34-.31,2.69,2.69,0,0,0-1.86.7,2.81,2.81,0,0,0-.86,2h5.38A2.79,2.79,0,0,0,48.79,87.84Z"/><path class="cls-3" d="M51.94,87.64a3.55,3.55,0,0,1,1.31-1.38,3.74,3.74,0,0,1,1.89-.48,3.54,3.54,0,0,1,1.82.49,3,3,0,0,1,1.19,1.28V83.18h1V93.54h-1V91.83A3,3,0,0,1,57,93.14a3.41,3.41,0,0,1-1.88.51,3.59,3.59,0,0,1-1.88-.49,3.36,3.36,0,0,1-1.3-1.39,4.27,4.27,0,0,1-.47-2.07A4.38,4.38,0,0,1,51.94,87.64Zm5.83.45a2.71,2.71,0,0,0-2.47-1.45,2.91,2.91,0,0,0-1.45.36,2.61,2.61,0,0,0-1,1.06,3.39,3.39,0,0,0-.37,1.64,3.46,3.46,0,0,0,.37,1.65,2.66,2.66,0,0,0,1,1.08,2.92,2.92,0,0,0,1.45.37,2.84,2.84,0,0,0,1.44-.38,2.68,2.68,0,0,0,1-1.08,3.66,3.66,0,0,0,0-3.25Z"/><path class="cls-3" d="M61.39,87.64a3.39,3.39,0,0,1,1.3-1.38,3.68,3.68,0,0,1,1.88-.48,3.37,3.37,0,0,1,1.88.51,2.94,2.94,0,0,1,1.15,1.28V85.89h1v7.65h-1v-1.7a3.08,3.08,0,0,1-1.16,1.3,3.39,3.39,0,0,1-1.88.51,3.58,3.58,0,0,1-1.87-.49,3.36,3.36,0,0,1-1.3-1.39,4.77,4.77,0,0,1,0-4.13Zm5.83.45a2.71,2.71,0,0,0-2.47-1.45A2.91,2.91,0,0,0,63.3,87a2.61,2.61,0,0,0-1,1.06,3.39,3.39,0,0,0-.37,1.64,3.46,3.46,0,0,0,.37,1.65,2.66,2.66,0,0,0,1,1.08,2.92,2.92,0,0,0,1.45.37,2.84,2.84,0,0,0,1.44-.38,2.68,2.68,0,0,0,1-1.08,3.66,3.66,0,0,0,0-3.25Z"/><path class="cls-3" d="M76.64,86.6a3.3,3.3,0,0,1,.87,2.46v4.48h-1V89.17a2.68,2.68,0,0,0-.62-1.9,2.23,2.23,0,0,0-1.7-.66,2.31,2.31,0,0,0-1.77.7,2.88,2.88,0,0,0-.66,2.06v4.17h-1V85.89h1V87.2a2.52,2.52,0,0,1,1-1.07,3.22,3.22,0,0,1,1.56-.38A3.1,3.1,0,0,1,76.64,86.6Z"/><path class="cls-3" d="M84.49,83.18V93.54h-1V83.18Z"/><path class="cls-3" d="M86.7,84.24a.74.74,0,0,1,0-1,.74.74,0,0,1,1,0,.72.72,0,1,1-1,1Zm1,1.65v7.65h-1V85.89Z"/><path class="cls-3" d="M101.22,86.6a3.37,3.37,0,0,1,.84,2.46v4.48h-1V89.17a2.68,2.68,0,0,0-.61-1.9,2.09,2.09,0,0,0-1.63-.66,2.24,2.24,0,0,0-1.73.71,3.05,3.05,0,0,0-.64,2.07v4.15h-1V89.17a2.72,2.72,0,0,0-.6-1.9,2.12,2.12,0,0,0-1.65-.66,2.22,2.22,0,0,0-1.72.71,3,3,0,0,0-.65,2.07v4.15h-1V85.89h1v1.32a2.47,2.47,0,0,1,1-1.08,3,3,0,0,1,1.5-.38,3.16,3.16,0,0,1,1.74.48,2.71,2.71,0,0,1,1.09,1.4,2.52,2.52,0,0,1,1-1.39,3.1,3.1,0,0,1,1.7-.49A3,3,0,0,1,101.22,86.6Z"/><path class="cls-3" d="M104.22,84.24a.74.74,0,0,1,0-1,.74.74,0,0,1,1,0,.72.72,0,1,1-1,1Zm1,1.65v7.65h-1V85.89Z"/><path class="cls-3" d="M108.71,86.72v4.75a1.33,1.33,0,0,0,.27,1,1.3,1.3,0,0,0,.94.27h.89v.84h-1a1.77,1.77,0,0,1-2-2.07V86.72h-1.07v-.83h1.07V84h1v1.91h2.1v.83Z"/><path class="cls-3" d="M112.44,87.64a3.48,3.48,0,0,1,1.31-1.38,3.68,3.68,0,0,1,1.88-.48,3.39,3.39,0,0,1,1.88.51,2.86,2.86,0,0,1,1.14,1.28V85.89h1v7.65h-1v-1.7a3.05,3.05,0,0,1-1.15,1.3,3.42,3.42,0,0,1-1.89.51,3.54,3.54,0,0,1-1.86-.49,3.45,3.45,0,0,1-1.31-1.39,4.77,4.77,0,0,1,0-4.13Zm5.83.45a2.79,2.79,0,0,0-1-1.08,2.86,2.86,0,0,0-1.44-.37,3,3,0,0,0-1.46.36,2.59,2.59,0,0,0-1,1.06A3.39,3.39,0,0,0,113,89.7a3.46,3.46,0,0,0,.37,1.65,2.64,2.64,0,0,0,1,1.08,3,3,0,0,0,1.46.37,2.87,2.87,0,0,0,1.44-.38,2.66,2.66,0,0,0,1-1.08,3.66,3.66,0,0,0,0-3.25Z"/><path class="cls-3" d="M123.84,86.15a3.17,3.17,0,0,1,1.63-.4v1h-.27a2.15,2.15,0,0,0-2.35,2.49v4.27h-1V85.89h1v1.36A2.46,2.46,0,0,1,123.84,86.15Z"/><path class="cls-3" d="M127.42,93a2.24,2.24,0,0,1-.93-1.66h1a1.48,1.48,0,0,0,.61,1.05,2.42,2.42,0,0,0,1.45.39,1.9,1.9,0,0,0,1.25-.37,1.21,1.21,0,0,0,.46-.94.89.89,0,0,0-.26-.65,1.73,1.73,0,0,0-.63-.39,9.23,9.23,0,0,0-1-.32A10.19,10.19,0,0,1,128,89.7,2.4,2.4,0,0,1,127,89a1.84,1.84,0,0,1-.37-1.19,1.79,1.79,0,0,1,.34-1,2.28,2.28,0,0,1,.95-.76,3.46,3.46,0,0,1,1.4-.28,3,3,0,0,1,2,.63,2.26,2.26,0,0,1,.81,1.71h-1a1.47,1.47,0,0,0-.52-1.08,2.28,2.28,0,0,0-2.53-.07,1.09,1.09,0,0,0-.19,1.61,1.78,1.78,0,0,0,.68.44,10.67,10.67,0,0,0,1.09.36,10.82,10.82,0,0,1,1.32.43,2.42,2.42,0,0,1,.84.62,1.67,1.67,0,0,1,.36,1.08,1.9,1.9,0,0,1-.33,1.1,2.38,2.38,0,0,1-.94.76,3.23,3.23,0,0,1-1.39.28A3.53,3.53,0,0,1,127.42,93Z"/><path class="cls-3" d="M141,90.09h-6.34a2.93,2.93,0,0,0,.42,1.49,2.46,2.46,0,0,0,1,.93,2.9,2.9,0,0,0,1.34.31,2.71,2.71,0,0,0,1.61-.46,2.19,2.19,0,0,0,.86-1.24h1a3.2,3.2,0,0,1-1.19,1.82,3.68,3.68,0,0,1-2.31.71,3.89,3.89,0,0,1-1.93-.48,3.46,3.46,0,0,1-1.34-1.37,4.77,4.77,0,0,1,0-4.17,3.32,3.32,0,0,1,1.33-1.37,3.9,3.9,0,0,1,1.94-.48,3.69,3.69,0,0,1,1.91.48,3.32,3.32,0,0,1,1.27,1.28,3.7,3.7,0,0,1,.44,1.78A7.24,7.24,0,0,1,141,90.09Zm-1.31-2.25a2.36,2.36,0,0,0-1-.91,2.91,2.91,0,0,0-1.35-.31,2.69,2.69,0,0,0-1.86.7,2.8,2.8,0,0,0-.85,2H140A2.7,2.7,0,0,0,139.66,87.84Z"/><path class="cls-3" d="M146.64,87.64A3.48,3.48,0,0,1,148,86.26a3.68,3.68,0,0,1,1.88-.48,3.37,3.37,0,0,1,1.88.51,2.86,2.86,0,0,1,1.14,1.28V85.89h1v7.65h-1v-1.7a3,3,0,0,1-1.15,1.3,3.41,3.41,0,0,1-1.88.51,3.55,3.55,0,0,1-1.87-.49,3.45,3.45,0,0,1-1.31-1.39,4.87,4.87,0,0,1,0-4.13Zm5.84.45a2.89,2.89,0,0,0-1-1.08,3,3,0,0,0-2.89,0,2.61,2.61,0,0,0-1,1.06,3.39,3.39,0,0,0-.37,1.64,3.46,3.46,0,0,0,.37,1.65,2.66,2.66,0,0,0,1,1.08,3,3,0,0,0,2.89,0,2.75,2.75,0,0,0,1-1.08,3.75,3.75,0,0,0,0-3.25Z"/><path class="cls-3" d="M166.53,85.89v7.65h-1V92.19a2.39,2.39,0,0,1-1,1.1,3.28,3.28,0,0,1-1.57.37,3.08,3.08,0,0,1-2.24-.84,3.3,3.3,0,0,1-.87-2.46V85.89h1v4.36a2.64,2.64,0,0,0,.62,1.9,2.21,2.21,0,0,0,1.7.66,2.28,2.28,0,0,0,1.76-.7,2.9,2.9,0,0,0,.66-2.06V85.89Z"/><path class="cls-3" d="M170.05,86.72v4.75a1.33,1.33,0,0,0,.26,1,1.3,1.3,0,0,0,.94.27h.9v.84H171.1a1.78,1.78,0,0,1-2-2.07V86.72H168v-.83h1.06V84h1v1.91h2.1v.83Z"/><path class="cls-3" d="M173.74,84.24a.74.74,0,0,1,0-1,.74.74,0,0,1,1,0,.72.72,0,1,1-1,1Zm1,1.65v7.65h-1V85.89Z"/><path class="cls-3" d="M177.94,83.18V93.54h-1V83.18Z"/><path class="cls-3" d="M180.15,84.24a.74.74,0,0,1,0-1,.74.74,0,0,1,1,0,.72.72,0,1,1-1,1Zm1,1.65v7.65h-1V85.89Z"/><path class="cls-3" d="M183.89,92.73h4v.81h-5.13v-.81l3.94-6h-3.87v-.82h5v.82Z"/><path class="cls-3" d="M189.57,87.64a3.46,3.46,0,0,1,1.3-1.38,3.7,3.7,0,0,1,1.88-.48,3.42,3.42,0,0,1,1.89.51,3,3,0,0,1,1.14,1.28V85.89h1v7.65h-1v-1.7a3,3,0,0,1-1.16,1.3,3.39,3.39,0,0,1-1.88.51,3.6,3.6,0,0,1-1.87-.49,3.42,3.42,0,0,1-1.3-1.39,4.77,4.77,0,0,1,0-4.13Zm5.83.45a2.71,2.71,0,0,0-2.46-1.45,2.93,2.93,0,0,0-1.46.36,2.61,2.61,0,0,0-1,1.06,3.51,3.51,0,0,0-.37,1.64,3.58,3.58,0,0,0,.37,1.65,2.66,2.66,0,0,0,1,1.08,2.93,2.93,0,0,0,1.46.37,2.81,2.81,0,0,0,1.43-.38,2.68,2.68,0,0,0,1-1.08,3.66,3.66,0,0,0,0-3.25Z"/><path class="cls-3" d="M201,86.15a3.2,3.2,0,0,1,1.63-.4v1h-.26a2.49,2.49,0,0,0-1.71.57,2.45,2.45,0,0,0-.64,1.92v4.27h-1V85.89h1v1.36A2.38,2.38,0,0,1,201,86.15Z"/><path class="cls-3" d="M208.38,93a2.24,2.24,0,0,1-.93-1.66h1a1.48,1.48,0,0,0,.61,1.05,2.42,2.42,0,0,0,1.45.39,1.9,1.9,0,0,0,1.25-.37,1.18,1.18,0,0,0,.46-.94.89.89,0,0,0-.26-.65,1.73,1.73,0,0,0-.63-.39,9.23,9.23,0,0,0-1.05-.32,10.68,10.68,0,0,1-1.38-.45A2.29,2.29,0,0,1,208,89a1.89,1.89,0,0,1,0-2.22,2.34,2.34,0,0,1,.95-.76,3.46,3.46,0,0,1,1.4-.28,3,3,0,0,1,2,.63,2.2,2.2,0,0,1,.81,1.71h-1a1.44,1.44,0,0,0-.52-1.08,2.28,2.28,0,0,0-2.53-.07,1.09,1.09,0,0,0-.19,1.61,1.78,1.78,0,0,0,.68.44c.27.11.64.23,1.09.36a10.82,10.82,0,0,1,1.32.43,2.25,2.25,0,0,1,.84.62,1.67,1.67,0,0,1,.36,1.08,1.9,1.9,0,0,1-.33,1.1,2.38,2.38,0,0,1-.94.76,3.19,3.19,0,0,1-1.39.28A3.55,3.55,0,0,1,208.38,93Z"/><path class="cls-3" d="M216.45,93.17a3.45,3.45,0,0,1-1.36-1.37,4.24,4.24,0,0,1-.5-2.08,4.08,4.08,0,0,1,.51-2.08,3.56,3.56,0,0,1,1.37-1.38,4.2,4.2,0,0,1,3.9,0,3.56,3.56,0,0,1,1.37,1.38,4.18,4.18,0,0,1,.5,2.08,4.13,4.13,0,0,1-.51,2.07,3.4,3.4,0,0,1-1.38,1.38,4,4,0,0,1-2,.48A3.9,3.9,0,0,1,216.45,93.17Zm3.34-.72a2.64,2.64,0,0,0,1-1,3.32,3.32,0,0,0,.4-1.7,3.46,3.46,0,0,0-.39-1.71,2.58,2.58,0,0,0-1-1,3.05,3.05,0,0,0-2.8,0,2.55,2.55,0,0,0-1,1,3.46,3.46,0,0,0-.38,1.71,3.42,3.42,0,0,0,.38,1.7,2.59,2.59,0,0,0,1,1,3,3,0,0,0,2.8,0Z"/><path class="cls-3" d="M225,83.18V93.54h-1V83.18Z"/><path class="cls-3" d="M227.26,87.64a3.39,3.39,0,0,1,1.3-1.38,3.68,3.68,0,0,1,1.88-.48,3.37,3.37,0,0,1,1.88.51,2.86,2.86,0,0,1,1.14,1.28V85.89h1v7.65h-1v-1.7a3,3,0,0,1-1.15,1.3,3.39,3.39,0,0,1-1.88.51,3.58,3.58,0,0,1-1.87-.49,3.36,3.36,0,0,1-1.3-1.39,4.77,4.77,0,0,1,0-4.13Zm5.83.45a2.89,2.89,0,0,0-1-1.08,2.83,2.83,0,0,0-1.44-.37,2.91,2.91,0,0,0-1.45.36,2.61,2.61,0,0,0-1,1.06,3.39,3.39,0,0,0-.37,1.64,3.46,3.46,0,0,0,.37,1.65,2.66,2.66,0,0,0,1,1.08,2.92,2.92,0,0,0,1.45.37,2.84,2.84,0,0,0,1.44-.38,2.75,2.75,0,0,0,1-1.08,3.75,3.75,0,0,0,0-3.25Z"/><path class="cls-3" d="M248,86.6a3.37,3.37,0,0,1,.84,2.46v4.48h-1V89.17a2.68,2.68,0,0,0-.61-1.9,2.09,2.09,0,0,0-1.63-.66,2.24,2.24,0,0,0-1.73.71,3,3,0,0,0-.64,2.07v4.15h-1V89.17a2.73,2.73,0,0,0-.61-1.9,2.12,2.12,0,0,0-1.65-.66,2.22,2.22,0,0,0-1.72.71,3,3,0,0,0-.64,2.07v4.15h-1V85.89h1v1.32a2.4,2.4,0,0,1,1-1.08,3,3,0,0,1,1.5-.38,3.16,3.16,0,0,1,1.74.48,2.71,2.71,0,0,1,1.09,1.4,2.52,2.52,0,0,1,1.05-1.39,3.11,3.11,0,0,1,1.71-.49A3,3,0,0,1,248,86.6Z"/><path class="cls-3" d="M257.88,90.09h-6.34a3.14,3.14,0,0,0,.42,1.49,2.46,2.46,0,0,0,1,.93,2.91,2.91,0,0,0,1.35.31,2.7,2.7,0,0,0,1.6-.46,2.19,2.19,0,0,0,.86-1.24h1a3.27,3.27,0,0,1-1.2,1.82,3.67,3.67,0,0,1-2.3.71,3.9,3.9,0,0,1-1.94-.48A3.38,3.38,0,0,1,251,91.8a4.72,4.72,0,0,1,0-4.17,3.32,3.32,0,0,1,1.33-1.37,3.91,3.91,0,0,1,2-.48,3.74,3.74,0,0,1,1.91.48,3.37,3.37,0,0,1,1.26,1.28,3.7,3.7,0,0,1,.44,1.78A7.24,7.24,0,0,1,257.88,90.09Zm-1.31-2.25a2.36,2.36,0,0,0-1-.91,2.91,2.91,0,0,0-1.35-.31,2.72,2.72,0,0,0-1.86.7,2.8,2.8,0,0,0-.85,2h5.37A2.7,2.7,0,0,0,256.57,87.84Z"/><path class="cls-3" d="M265.52,86.6a3.3,3.3,0,0,1,.87,2.46v4.48h-1V89.17a2.64,2.64,0,0,0-.63-1.9,2.21,2.21,0,0,0-1.7-.66,2.3,2.3,0,0,0-1.76.7,2.88,2.88,0,0,0-.66,2.06v4.17h-1V85.89h1V87.2a2.41,2.41,0,0,1,1.05-1.07,3.2,3.2,0,0,1,1.55-.38A3.07,3.07,0,0,1,265.52,86.6Z"/><path class="cls-3" d="M269.84,86.72v4.75a1.33,1.33,0,0,0,.26,1,1.3,1.3,0,0,0,.94.27h.9v.84h-1.05a1.78,1.78,0,0,1-2.05-2.07V86.72h-1.06v-.83h1.06V84h1v1.91h2.1v.83Z"/><path class="cls-3" d="M280.43,90.09h-6.34a3.14,3.14,0,0,0,.42,1.49,2.42,2.42,0,0,0,1,.93,2.87,2.87,0,0,0,1.34.31,2.68,2.68,0,0,0,1.6-.46,2.14,2.14,0,0,0,.86-1.24h1a3.27,3.27,0,0,1-1.2,1.82,3.67,3.67,0,0,1-2.3.71,3.86,3.86,0,0,1-1.93-.48,3.4,3.4,0,0,1-1.34-1.37,4.34,4.34,0,0,1-.48-2.08,4.47,4.47,0,0,1,.47-2.09,3.32,3.32,0,0,1,1.33-1.37,3.91,3.91,0,0,1,2-.48,3.71,3.71,0,0,1,1.91.48A3.23,3.23,0,0,1,280,87.54a3.59,3.59,0,0,1,.44,1.78A7.24,7.24,0,0,1,280.43,90.09Zm-1.31-2.25a2.3,2.3,0,0,0-1-.91,2.9,2.9,0,0,0-1.34-.31,2.69,2.69,0,0,0-1.86.7,2.81,2.81,0,0,0-.86,2h5.38A2.7,2.7,0,0,0,279.12,87.84Z"/><path class="cls-3" d="M287.07,83.18V93.54h-1V83.18Z"/><path class="cls-3" d="M290.7,93.17a3.58,3.58,0,0,1-1.36-1.37,4.24,4.24,0,0,1-.49-2.08,4.18,4.18,0,0,1,.5-2.08,3.7,3.7,0,0,1,1.37-1.38,4.2,4.2,0,0,1,3.9,0A3.59,3.59,0,0,1,296,87.64a4.18,4.18,0,0,1,.49,2.08,4.23,4.23,0,0,1-.5,2.07,3.48,3.48,0,0,1-1.39,1.38,4,4,0,0,1-2,.48A3.93,3.93,0,0,1,290.7,93.17Zm3.34-.72a2.58,2.58,0,0,0,1-1,3.32,3.32,0,0,0,.4-1.7,3.46,3.46,0,0,0-.39-1.71,2.55,2.55,0,0,0-1-1,3.05,3.05,0,0,0-2.8,0,2.49,2.49,0,0,0-1,1,3.46,3.46,0,0,0-.39,1.71,3.42,3.42,0,0,0,.39,1.7,2.47,2.47,0,0,0,1,1,2.87,2.87,0,0,0,1.39.35A2.91,2.91,0,0,0,294,92.45Z"/><path class="cls-3" d="M32.62,104.44a3.42,3.42,0,0,1,1.31-1.38,3.68,3.68,0,0,1,1.88-.48,3.38,3.38,0,0,1,1.87.51,2.9,2.9,0,0,1,1.14,1.28v-1.68h1V114h-1v-5.29a3,3,0,0,1-1.14,1.28,3.48,3.48,0,0,1-1.9.51,3.6,3.6,0,0,1-1.87-.49,3.42,3.42,0,0,1-1.3-1.39,4.39,4.39,0,0,1-.47-2.07A4.26,4.26,0,0,1,32.62,104.44Zm5.82.45a2.75,2.75,0,0,0-1-1.08,2.8,2.8,0,0,0-1.43-.37,3,3,0,0,0-1.46.36,2.47,2.47,0,0,0-1,1.06,3.4,3.4,0,0,0-.38,1.64,3.46,3.46,0,0,0,.38,1.65,2.49,2.49,0,0,0,1,1.07,2.86,2.86,0,0,0,1.46.38,2.81,2.81,0,0,0,1.43-.38,2.62,2.62,0,0,0,1-1.08,3.66,3.66,0,0,0,0-3.25Z"/><path class="cls-3" d="M48.66,102.69v7.65h-1V109a2.36,2.36,0,0,1-1,1.1,3.24,3.24,0,0,1-1.56.37,3.06,3.06,0,0,1-2.24-.84,3.3,3.3,0,0,1-.87-2.46v-4.47h1v4.36a2.64,2.64,0,0,0,.63,1.9,2.21,2.21,0,0,0,1.7.66,2.28,2.28,0,0,0,1.76-.7,2.9,2.9,0,0,0,.66-2.06v-4.16Z"/><path class="cls-3" d="M57.79,106.89H51.45a2.93,2.93,0,0,0,.42,1.49,2.46,2.46,0,0,0,1,.93,2.9,2.9,0,0,0,1.34.31,2.71,2.71,0,0,0,1.61-.46,2.19,2.19,0,0,0,.86-1.24h1a3.2,3.2,0,0,1-1.19,1.82,3.68,3.68,0,0,1-2.31.71,3.86,3.86,0,0,1-1.93-.48,3.53,3.53,0,0,1-1.34-1.37,4.77,4.77,0,0,1,0-4.17,3.32,3.32,0,0,1,1.33-1.37,3.9,3.9,0,0,1,1.94-.48,3.69,3.69,0,0,1,1.91.48,3.23,3.23,0,0,1,1.26,1.28,3.59,3.59,0,0,1,.45,1.78A7.24,7.24,0,0,1,57.79,106.89Zm-1.31-2.25a2.36,2.36,0,0,0-1-.91,2.91,2.91,0,0,0-1.35-.31,2.69,2.69,0,0,0-1.86.7,2.8,2.8,0,0,0-.85,2h5.37A2.7,2.7,0,0,0,56.48,104.64Z"/><path class="cls-3" d="M69.27,103.4a3.3,3.3,0,0,1,.87,2.46v4.48h-1V106a2.68,2.68,0,0,0-.62-1.9,2.24,2.24,0,0,0-1.7-.66,2.31,2.31,0,0,0-1.77.7,2.88,2.88,0,0,0-.66,2.06v4.17h-1v-7.65h1V104a2.52,2.52,0,0,1,1-1.07,3.22,3.22,0,0,1,1.56-.38A3.1,3.1,0,0,1,69.27,103.4Z"/><path class="cls-3" d="M79.19,106.89H72.85a3.14,3.14,0,0,0,.42,1.49,2.42,2.42,0,0,0,1,.93,2.87,2.87,0,0,0,1.34.31,2.68,2.68,0,0,0,1.6-.46,2.14,2.14,0,0,0,.86-1.24h1a3.27,3.27,0,0,1-1.2,1.82,3.67,3.67,0,0,1-2.3.71,3.86,3.86,0,0,1-1.93-.48,3.46,3.46,0,0,1-1.34-1.37,4.34,4.34,0,0,1-.48-2.08,4.47,4.47,0,0,1,.47-2.09,3.32,3.32,0,0,1,1.33-1.37,3.91,3.91,0,0,1,2-.48,3.71,3.71,0,0,1,1.91.48,3.23,3.23,0,0,1,1.26,1.28,3.7,3.7,0,0,1,.44,1.78A7.24,7.24,0,0,1,79.19,106.89Zm-1.31-2.25a2.3,2.3,0,0,0-1-.91,2.9,2.9,0,0,0-1.34-.31,2.69,2.69,0,0,0-1.86.7,2.81,2.81,0,0,0-.86,2h5.38A2.7,2.7,0,0,0,77.88,104.64Z"/><path class="cls-3" d="M81,104.44a3.51,3.51,0,0,1,1.32-1.38,4.16,4.16,0,0,1,4.25.22,3.19,3.19,0,0,1,1.18,1.91H86.74a2.13,2.13,0,0,0-.85-1.3,2.69,2.69,0,0,0-1.61-.47,2.79,2.79,0,0,0-1.39.35,2.45,2.45,0,0,0-1,1,3.7,3.7,0,0,0-.36,1.71,3.65,3.65,0,0,0,.36,1.7,2.36,2.36,0,0,0,1,1,3,3,0,0,0,3-.11,2.15,2.15,0,0,0,.85-1.31h1.05a3.22,3.22,0,0,1-1.19,1.89,3.73,3.73,0,0,1-2.32.71,3.8,3.8,0,0,1-1.92-.48A3.48,3.48,0,0,1,81,108.6a4.34,4.34,0,0,1-.47-2.08A4.29,4.29,0,0,1,81,104.44Z"/><path class="cls-3" d="M96.48,106.89H90.14a3.14,3.14,0,0,0,.42,1.49,2.42,2.42,0,0,0,1,.93,2.87,2.87,0,0,0,1.34.31,2.68,2.68,0,0,0,1.6-.46,2.14,2.14,0,0,0,.86-1.24h1a3.27,3.27,0,0,1-1.2,1.82,3.67,3.67,0,0,1-2.3.71A3.86,3.86,0,0,1,91,110a3.46,3.46,0,0,1-1.34-1.37,4.34,4.34,0,0,1-.48-2.08,4.47,4.47,0,0,1,.47-2.09A3.32,3.32,0,0,1,91,103.06a3.91,3.91,0,0,1,2-.48,3.71,3.71,0,0,1,1.91.48,3.23,3.23,0,0,1,1.26,1.28,3.7,3.7,0,0,1,.44,1.78A7.24,7.24,0,0,1,96.48,106.89Zm-1.31-2.25a2.3,2.3,0,0,0-1-.91,2.9,2.9,0,0,0-1.34-.31,2.69,2.69,0,0,0-1.86.7,2.81,2.81,0,0,0-.86,2h5.38A2.7,2.7,0,0,0,95.17,104.64Z"/><path class="cls-3" d="M98.79,109.84a2.2,2.2,0,0,1-.93-1.66h1a1.44,1.44,0,0,0,.61,1,2.35,2.35,0,0,0,1.45.4,1.9,1.9,0,0,0,1.25-.37,1.18,1.18,0,0,0,.46-.94.88.88,0,0,0-.25-.65,1.94,1.94,0,0,0-.64-.4c-.26-.09-.6-.2-1-.31a10.9,10.9,0,0,1-1.39-.45,2.45,2.45,0,0,1-.9-.66,1.93,1.93,0,0,1,0-2.22,2.31,2.31,0,0,1,1-.76,3.43,3.43,0,0,1,1.4-.28,3,3,0,0,1,2,.63,2.24,2.24,0,0,1,.82,1.71h-1a1.48,1.48,0,0,0-.53-1.08,1.94,1.94,0,0,0-1.32-.42,2,2,0,0,0-1.21.35,1.09,1.09,0,0,0-.46.87,1.05,1.05,0,0,0,.27.74,1.86,1.86,0,0,0,.68.44,11,11,0,0,0,1.1.36,10.59,10.59,0,0,1,1.31.43,2.25,2.25,0,0,1,.84.62,1.67,1.67,0,0,1,.37,1.08,1.91,1.91,0,0,1-.34,1.1,2.31,2.31,0,0,1-.94.76,3.18,3.18,0,0,1-1.38.28A3.51,3.51,0,0,1,98.79,109.84Z"/><path class="cls-3" d="M105.43,101a.74.74,0,0,1,0-1,.74.74,0,0,1,1,0,.72.72,0,1,1-1,1Zm1,1.65v7.65h-1v-7.65Z"/><path class="cls-3" d="M109.92,103.52v4.75a1.33,1.33,0,0,0,.27,1,1.3,1.3,0,0,0,.94.27H112v.84h-1a1.78,1.78,0,0,1-2-2.07v-4.75h-1.06v-.83h1.06v-1.91h1v1.91H112v.83Z"/><path class="cls-3" d="M113.65,104.44a3.48,3.48,0,0,1,1.31-1.38,3.68,3.68,0,0,1,1.88-.48,3.37,3.37,0,0,1,1.88.51,2.86,2.86,0,0,1,1.14,1.28v-1.68h1v7.65h-1v-1.7a3,3,0,0,1-1.15,1.3,3.41,3.41,0,0,1-1.88.51A3.55,3.55,0,0,1,115,110a3.45,3.45,0,0,1-1.31-1.39,4.87,4.87,0,0,1,0-4.13Zm5.84.45a2.89,2.89,0,0,0-1-1.08,3,3,0,0,0-2.89,0,2.55,2.55,0,0,0-1,1.06,3.39,3.39,0,0,0-.37,1.64,3.46,3.46,0,0,0,.37,1.65,2.57,2.57,0,0,0,1,1.07,2.8,2.8,0,0,0,1.45.38,2.87,2.87,0,0,0,1.44-.38,2.75,2.75,0,0,0,1-1.08,3.75,3.75,0,0,0,0-3.25Z"/><path class="cls-3" d="M128.91,103.4a3.3,3.3,0,0,1,.87,2.46v4.48h-1V106a2.68,2.68,0,0,0-.62-1.9,2.24,2.24,0,0,0-1.7-.66,2.31,2.31,0,0,0-1.77.7,2.88,2.88,0,0,0-.66,2.06v4.17h-1v-7.65h1V104a2.52,2.52,0,0,1,1-1.07,3.22,3.22,0,0,1,1.56-.38A3.1,3.1,0,0,1,128.91,103.4Z"/><path class="cls-3" d="M137.9,103.09a3.42,3.42,0,0,1,1.89-.51,3.63,3.63,0,0,1,1.86.48,3.48,3.48,0,0,1,1.31,1.38,4.77,4.77,0,0,1,0,4.13,3.45,3.45,0,0,1-1.31,1.39,3.54,3.54,0,0,1-1.86.49,3.41,3.41,0,0,1-1.88-.51,3.08,3.08,0,0,1-1.16-1.28V114h-1V102.69h1v1.68A3.06,3.06,0,0,1,137.9,103.09Zm4.16,1.77a2.55,2.55,0,0,0-1-1.06,2.82,2.82,0,0,0-3.92,1.09,3.75,3.75,0,0,0,0,3.25,2.75,2.75,0,0,0,1,1.08,2.87,2.87,0,0,0,1.44.38,2.8,2.8,0,0,0,1.45-.38,2.57,2.57,0,0,0,1-1.07,3.46,3.46,0,0,0,.37-1.65A3.39,3.39,0,0,0,142.06,104.86Z"/><path class="cls-3" d="M145.25,104.44a3.46,3.46,0,0,1,1.3-1.38,3.74,3.74,0,0,1,1.89-.48,3.39,3.39,0,0,1,1.88.51,2.86,2.86,0,0,1,1.14,1.28v-1.68h1v7.65h-1v-1.7a3.05,3.05,0,0,1-1.15,1.3,3.42,3.42,0,0,1-1.89.51,3.6,3.6,0,0,1-1.87-.49,3.42,3.42,0,0,1-1.3-1.39,4.77,4.77,0,0,1,0-4.13Zm5.83.45a2.75,2.75,0,0,0-1-1.08,2.8,2.8,0,0,0-1.43-.37,3,3,0,0,0-1.46.36,2.47,2.47,0,0,0-1,1.06,3.39,3.39,0,0,0-.37,1.64,3.46,3.46,0,0,0,.37,1.65,2.49,2.49,0,0,0,1,1.07,2.86,2.86,0,0,0,1.46.38,2.81,2.81,0,0,0,1.43-.38,2.62,2.62,0,0,0,1-1.08,3.66,3.66,0,0,0,0-3.25Z"/><path class="cls-3" d="M156.65,103a3.05,3.05,0,0,1,1.63-.4v1H158a2.49,2.49,0,0,0-1.71.57,2.45,2.45,0,0,0-.64,1.92v4.27h-1v-7.65h1v1.36A2.35,2.35,0,0,1,156.65,103Z"/><path class="cls-3" d="M159.77,104.44a3.46,3.46,0,0,1,1.3-1.38,3.7,3.7,0,0,1,1.88-.48,3.42,3.42,0,0,1,1.89.51,2.92,2.92,0,0,1,1.14,1.28v-1.68h1v7.65h-1v-1.7a3,3,0,0,1-1.16,1.3,3.37,3.37,0,0,1-1.88.51,3.6,3.6,0,0,1-1.87-.49,3.42,3.42,0,0,1-1.3-1.39,4.77,4.77,0,0,1,0-4.13Zm5.83.45a2.75,2.75,0,0,0-1-1.08,2.8,2.8,0,0,0-1.43-.37,3,3,0,0,0-1.46.36,2.47,2.47,0,0,0-1,1.06,3.4,3.4,0,0,0-.38,1.64,3.46,3.46,0,0,0,.38,1.65,2.49,2.49,0,0,0,1,1.07,2.86,2.86,0,0,0,1.46.38,2.81,2.81,0,0,0,1.43-.38,2.62,2.62,0,0,0,1-1.08,3.66,3.66,0,0,0,0-3.25Z"/><path class="cls-3" d="M178.24,102.92a2.6,2.6,0,0,1,1.09,1.11,3.93,3.93,0,0,1,.4,1.83v4.48h-1V106a2.68,2.68,0,0,0-.62-1.9,2.23,2.23,0,0,0-1.7-.66,2.31,2.31,0,0,0-1.77.7,2.88,2.88,0,0,0-.66,2.06v4.17h-1V100h1v4a2.57,2.57,0,0,1,1.07-1.07,3.52,3.52,0,0,1,3.16,0Z"/><path class="cls-3" d="M181.92,104.44a3.39,3.39,0,0,1,1.3-1.38,3.68,3.68,0,0,1,1.88-.48,3.42,3.42,0,0,1,1.89.51,3,3,0,0,1,1.14,1.28v-1.68h1v7.65h-1v-1.7a3.08,3.08,0,0,1-1.16,1.3,3.39,3.39,0,0,1-1.88.51,3.58,3.58,0,0,1-1.87-.49,3.36,3.36,0,0,1-1.3-1.39,4.77,4.77,0,0,1,0-4.13Zm5.83.45a2.71,2.71,0,0,0-2.47-1.45,2.91,2.91,0,0,0-1.45.36,2.55,2.55,0,0,0-1,1.06,3.51,3.51,0,0,0-.37,1.64,3.58,3.58,0,0,0,.37,1.65,2.57,2.57,0,0,0,1,1.07,2.94,2.94,0,0,0,2.89,0,2.68,2.68,0,0,0,1-1.08,3.66,3.66,0,0,0,0-3.25Z"/><path class="cls-3" d="M191.37,104.44a3.51,3.51,0,0,1,1.32-1.38,4.16,4.16,0,0,1,4.25.22,3.19,3.19,0,0,1,1.18,1.91h-1.05a2.13,2.13,0,0,0-.85-1.3,2.69,2.69,0,0,0-1.61-.47,2.79,2.79,0,0,0-1.39.35,2.51,2.51,0,0,0-1,1,3.7,3.7,0,0,0-.36,1.71,3.65,3.65,0,0,0,.36,1.7,2.42,2.42,0,0,0,1,1,3,3,0,0,0,3-.11,2.15,2.15,0,0,0,.85-1.31h1.05a3.22,3.22,0,0,1-1.19,1.89,3.71,3.71,0,0,1-2.32.71,3.8,3.8,0,0,1-1.92-.48,3.48,3.48,0,0,1-1.32-1.37,4.46,4.46,0,0,1-.47-2.08A4.4,4.4,0,0,1,191.37,104.44Z"/><path class="cls-3" d="M206.82,106.89h-6.35a3.14,3.14,0,0,0,.42,1.49,2.55,2.55,0,0,0,1,.93,2.9,2.9,0,0,0,1.34.31,2.66,2.66,0,0,0,1.6-.46,2.16,2.16,0,0,0,.87-1.24h1a3.25,3.25,0,0,1-1.19,1.82,3.7,3.7,0,0,1-2.31.71,3.86,3.86,0,0,1-1.93-.48A3.53,3.53,0,0,1,200,108.6a4.77,4.77,0,0,1,0-4.17,3.26,3.26,0,0,1,1.33-1.37,3.88,3.88,0,0,1,1.94-.48,3.69,3.69,0,0,1,1.91.48,3.23,3.23,0,0,1,1.26,1.28,3.59,3.59,0,0,1,.44,1.78C206.84,106.46,206.83,106.72,206.82,106.89Zm-1.31-2.25a2.39,2.39,0,0,0-1-.91,2.9,2.9,0,0,0-1.34-.31,2.69,2.69,0,0,0-1.86.7,2.81,2.81,0,0,0-.86,2h5.38A2.7,2.7,0,0,0,205.51,104.64Z"/><path class="cls-3" d="M210.6,103a3.1,3.1,0,0,1,1.63-.4v1H212a2.49,2.49,0,0,0-1.71.57,2.45,2.45,0,0,0-.64,1.92v4.27h-1v-7.65h1v1.36A2.38,2.38,0,0,1,210.6,103Z"/><path class="cls-3" d="M218,109.84a2.26,2.26,0,0,1-.93-1.66h1a1.44,1.44,0,0,0,.61,1,2.35,2.35,0,0,0,1.45.4,1.9,1.9,0,0,0,1.25-.37,1.21,1.21,0,0,0,.46-.94.89.89,0,0,0-.26-.65,1.89,1.89,0,0,0-.63-.4c-.26-.09-.61-.2-1-.31a10.19,10.19,0,0,1-1.38-.45,2.4,2.4,0,0,1-.91-.66,1.84,1.84,0,0,1-.37-1.19,1.79,1.79,0,0,1,.34-1,2.28,2.28,0,0,1,.95-.76,3.46,3.46,0,0,1,1.4-.28,3,3,0,0,1,2,.63,2.26,2.26,0,0,1,.81,1.71h-1a1.47,1.47,0,0,0-.52-1.08,2.28,2.28,0,0,0-2.53-.07,1.09,1.09,0,0,0-.19,1.61,1.78,1.78,0,0,0,.68.44,10.67,10.67,0,0,0,1.09.36,10.82,10.82,0,0,1,1.32.43,2.42,2.42,0,0,1,.84.62,1.67,1.67,0,0,1,.36,1.08,1.9,1.9,0,0,1-.33,1.1,2.38,2.38,0,0,1-.94.76,3.23,3.23,0,0,1-1.39.28A3.53,3.53,0,0,1,218,109.84Z"/><path class="cls-3" d="M231.3,102.69v7.65h-1V109a2.39,2.39,0,0,1-1,1.1,3.28,3.28,0,0,1-1.57.37,3.08,3.08,0,0,1-2.24-.84,3.3,3.3,0,0,1-.87-2.46v-4.47h1v4.36a2.64,2.64,0,0,0,.62,1.9,2.21,2.21,0,0,0,1.7.66,2.28,2.28,0,0,0,1.76-.7,2.9,2.9,0,0,0,.66-2.06v-4.16Z"/><path class="cls-3" d="M238.65,103.52v4.75a1.33,1.33,0,0,0,.27,1,1.29,1.29,0,0,0,.94.27h.89v.84H239.7a1.78,1.78,0,0,1-2-2.07v-4.75h-1.07v-.83h1.07v-1.91h1v1.91h2.1v.83Z"/><path class="cls-3" d="M244.33,103a3.08,3.08,0,0,1,1.63-.4v1h-.27a2.15,2.15,0,0,0-2.35,2.49v4.27h-1v-7.65h1v1.36A2.4,2.4,0,0,1,244.33,103Z"/><path class="cls-3" d="M247.45,104.44a3.46,3.46,0,0,1,1.3-1.38,3.74,3.74,0,0,1,1.89-.48,3.41,3.41,0,0,1,1.88.51,2.86,2.86,0,0,1,1.14,1.28v-1.68h1v7.65h-1v-1.7a3,3,0,0,1-1.16,1.3,3.37,3.37,0,0,1-1.88.51,3.6,3.6,0,0,1-1.87-.49,3.42,3.42,0,0,1-1.3-1.39,4.77,4.77,0,0,1,0-4.13Zm5.83.45a2.75,2.75,0,0,0-1-1.08,2.8,2.8,0,0,0-1.43-.37,3,3,0,0,0-1.46.36,2.47,2.47,0,0,0-1,1.06,3.39,3.39,0,0,0-.37,1.64,3.46,3.46,0,0,0,.37,1.65,2.49,2.49,0,0,0,1,1.07,2.86,2.86,0,0,0,1.46.38,2.81,2.81,0,0,0,1.43-.38,2.62,2.62,0,0,0,1-1.08,3.66,3.66,0,0,0,0-3.25Z"/><path class="cls-3" d="M259,103.09a3.38,3.38,0,0,1,1.87-.51,3.68,3.68,0,0,1,1.88.48,3.44,3.44,0,0,1,1.29,1.38,4.77,4.77,0,0,1,0,4.13,3.36,3.36,0,0,1-1.3,1.39,3.58,3.58,0,0,1-1.87.49A3.49,3.49,0,0,1,259,110a3,3,0,0,1-1.16-1.29v1.68h-1V100h1v4.41A3.18,3.18,0,0,1,259,103.09Zm4.15,1.77a2.55,2.55,0,0,0-1-1.06,2.91,2.91,0,0,0-1.45-.36,2.71,2.71,0,0,0-2.47,1.45,3.66,3.66,0,0,0,0,3.25,2.68,2.68,0,0,0,1,1.08,2.94,2.94,0,0,0,2.89,0,2.57,2.57,0,0,0,1-1.07,3.46,3.46,0,0,0,.37-1.65A3.39,3.39,0,0,0,263.16,104.86Z"/><path class="cls-3" d="M266.35,104.44a3.46,3.46,0,0,1,1.3-1.38,3.71,3.71,0,0,1,1.89-.48,3.41,3.41,0,0,1,1.88.51,2.86,2.86,0,0,1,1.14,1.28v-1.68h1v7.65h-1v-1.7a3,3,0,0,1-1.16,1.3,3.37,3.37,0,0,1-1.88.51,3.6,3.6,0,0,1-1.87-.49,3.42,3.42,0,0,1-1.3-1.39,4.77,4.77,0,0,1,0-4.13Zm5.83.45a2.75,2.75,0,0,0-1-1.08,2.8,2.8,0,0,0-1.43-.37,3,3,0,0,0-1.46.36,2.47,2.47,0,0,0-1,1.06,3.4,3.4,0,0,0-.38,1.64,3.46,3.46,0,0,0,.38,1.65,2.49,2.49,0,0,0,1,1.07,2.86,2.86,0,0,0,1.46.38,2.81,2.81,0,0,0,1.43-.38,2.62,2.62,0,0,0,1-1.08,3.66,3.66,0,0,0,0-3.25Z"/><path class="cls-3" d="M276.81,112.14a1.8,1.8,0,0,1-.46,1.37A2,2,0,0,1,275,114h-.69v-.84h.53a1.13,1.13,0,0,0,.79-.23,1.1,1.1,0,0,0,.23-.78v-9.41h1Zm-1-11.1a.74.74,0,0,1,0-1,.73.73,0,0,1,.51-.2.68.68,0,0,1,.49.2.74.74,0,0,1,0,1,.65.65,0,0,1-.49.21A.69.69,0,0,1,275.83,101Z"/><path class="cls-3" d="M280.46,110a3.58,3.58,0,0,1-1.36-1.37,4.24,4.24,0,0,1-.49-2.08,4.08,4.08,0,0,1,.5-2.08,3.63,3.63,0,0,1,1.37-1.38,4.2,4.2,0,0,1,3.9,0,3.56,3.56,0,0,1,1.37,1.38,4.18,4.18,0,0,1,.5,2.08,4.23,4.23,0,0,1-.5,2.07,3.55,3.55,0,0,1-1.39,1.38,4,4,0,0,1-2,.48A3.93,3.93,0,0,1,280.46,110Zm3.34-.72a2.58,2.58,0,0,0,1-1,3.32,3.32,0,0,0,.4-1.7,3.46,3.46,0,0,0-.39-1.71,2.58,2.58,0,0,0-1-1,3.05,3.05,0,0,0-2.8,0,2.47,2.47,0,0,0-1,1,3.46,3.46,0,0,0-.39,1.71,3.42,3.42,0,0,0,.39,1.7,2.47,2.47,0,0,0,1,1,2.87,2.87,0,0,0,1.39.35A2.94,2.94,0,0,0,283.8,109.25Z"/><path class="cls-3" d="M287.7,110.2a.69.69,0,0,1-.2-.52.67.67,0,0,1,.2-.51.66.66,0,0,1,.51-.2.66.66,0,0,1,.5.2.71.71,0,0,1,.2.51.73.73,0,0,1-.2.52.67.67,0,0,1-.5.21A.66.66,0,0,1,287.7,110.2Z"/></svg>