<svg id="Layer_1" data-name="Layer 1" xmlns="http://www.w3.org/2000/svg" viewBox="0 0 320.94 147.93"><defs><style>.cls-1{fill:#fff;}.cls-2{fill:#1073dd;}.cls-3{fill:#093f70;}</style></defs><rect class="cls-1" width="320.94" height="147.93" rx="5.22"/><path class="cls-2" d="M56.52,22.58H52.63L52,24.44h-2l3.51-9.79h2.28l3.52,9.79H57.17ZM56,21l-1.41-4.09L53.16,21Z"/><path class="cls-2" d="M63.56,16.91a3.2,3.2,0,0,1,1.51-.35,3.33,3.33,0,0,1,1.8.49,3.45,3.45,0,0,1,1.28,1.39,4.5,4.5,0,0,1,.47,2.09,4.59,4.59,0,0,1-.47,2.11,3.54,3.54,0,0,1-1.28,1.42,3.26,3.26,0,0,1-1.8.51,3.13,3.13,0,0,1-1.5-.35,3.31,3.31,0,0,1-1.06-.89v4.81h-2V16.68h2V17.8A3,3,0,0,1,63.56,16.91Zm2.77,2.41a1.94,1.94,0,0,0-.76-.77,2,2,0,0,0-1-.27,2,2,0,0,0-1,.27,2,2,0,0,0-.76.79,2.71,2.71,0,0,0,0,2.44,2,2,0,0,0,.76.79,2,2,0,0,0,1,.27,1.9,1.9,0,0,0,1-.28,2.07,2.07,0,0,0,.76-.79,2.55,2.55,0,0,0,.28-1.24A2.46,2.46,0,0,0,66.33,19.32Z"/><path class="cls-2" d="M73,16.92a2.79,2.79,0,0,1,1.39-.35v2.06h-.51a2,2,0,0,0-1.4.43A2,2,0,0,0,72,20.57v3.87H70V16.68h2v1.21A2.79,2.79,0,0,1,73,16.92Z"/><path class="cls-2" d="M77.13,24.07a3.54,3.54,0,0,1-1.41-1.41,4.24,4.24,0,0,1-.51-2.1,4,4,0,0,1,.53-2.1,3.59,3.59,0,0,1,1.43-1.41,4.45,4.45,0,0,1,4.06,0,3.68,3.68,0,0,1,1.44,1.41,4.25,4.25,0,0,1,.52,2.1,4.05,4.05,0,0,1-.54,2.1,3.67,3.67,0,0,1-1.46,1.41,4.23,4.23,0,0,1-2,.5A4.1,4.1,0,0,1,77.13,24.07Zm3-1.47a1.81,1.81,0,0,0,.74-.78,2.55,2.55,0,0,0,.28-1.26,2.32,2.32,0,0,0-.58-1.7,1.88,1.88,0,0,0-1.42-.59,1.86,1.86,0,0,0-1.41.59,2.4,2.4,0,0,0-.56,1.7,2.38,2.38,0,0,0,.55,1.7,1.81,1.81,0,0,0,1.39.6A2.11,2.11,0,0,0,80.15,22.6Z"/><path class="cls-2" d="M87.87,22.63l2-5.95h2.08L89,24.44H86.66l-2.85-7.76h2.1Z"/><path class="cls-2" d="M93.15,15.43a1.16,1.16,0,0,1,0-1.64,1.2,1.2,0,0,1,.86-.33,1.18,1.18,0,0,1,.86.33,1.14,1.14,0,0,1,0,1.64,1.18,1.18,0,0,1-.86.33A1.2,1.2,0,0,1,93.15,15.43ZM95,16.68v7.76H93V16.68Z"/><path class="cls-2" d="M98.17,24.22a3.13,3.13,0,0,1-1.2-.93,2.38,2.38,0,0,1-.48-1.3h2a1.09,1.09,0,0,0,.45.74,1.72,1.72,0,0,0,1.83.07.67.67,0,0,0,.31-.57.62.62,0,0,0-.38-.57,7.19,7.19,0,0,0-1.23-.41A10.63,10.63,0,0,1,98,20.81a2.45,2.45,0,0,1-1-.68,1.84,1.84,0,0,1-.4-1.25A2.09,2.09,0,0,1,97,17.7a2.61,2.61,0,0,1,1.07-.84,4.05,4.05,0,0,1,1.63-.3,3.34,3.34,0,0,1,2.21.69,2.59,2.59,0,0,1,.91,1.87H101a1,1,0,0,0-.38-.74,1.74,1.74,0,0,0-1.74-.07.61.61,0,0,0-.28.54.65.65,0,0,0,.39.6,6.5,6.5,0,0,0,1.22.41,9.87,9.87,0,0,1,1.38.44,2.48,2.48,0,0,1,1,.69,1.92,1.92,0,0,1,.41,1.24,2,2,0,0,1-.37,1.2,2.41,2.41,0,0,1-1.06.83,4.1,4.1,0,0,1-1.62.31A4,4,0,0,1,98.17,24.22Z"/><path class="cls-2" d="M104.67,15.43a1.16,1.16,0,0,1,0-1.64,1.2,1.2,0,0,1,.86-.33,1.17,1.17,0,0,1,.86.33,1.14,1.14,0,0,1,0,1.64,1.17,1.17,0,0,1-.86.33A1.2,1.2,0,0,1,104.67,15.43Zm1.83,1.25v7.76h-2V16.68Z"/><path class="cls-2" d="M109.86,24.07a3.54,3.54,0,0,1-1.41-1.41,4.24,4.24,0,0,1-.51-2.1,4.15,4.15,0,0,1,.53-2.1,3.66,3.66,0,0,1,1.43-1.41,4.45,4.45,0,0,1,4.06,0,3.68,3.68,0,0,1,1.44,1.41,4.14,4.14,0,0,1,.52,2.1,4.05,4.05,0,0,1-.54,2.1,3.71,3.71,0,0,1-1.45,1.41,4.26,4.26,0,0,1-2.05.5A4.12,4.12,0,0,1,109.86,24.07Zm3-1.47a1.89,1.89,0,0,0,.75-.78,2.67,2.67,0,0,0,.28-1.26,2.36,2.36,0,0,0-.58-1.7,1.92,1.92,0,0,0-1.43-.59,1.84,1.84,0,0,0-1.4.59,2.36,2.36,0,0,0-.57,1.7,2.38,2.38,0,0,0,.55,1.7,1.83,1.83,0,0,0,1.4.6A2.1,2.1,0,0,0,112.88,22.6Z"/><path class="cls-2" d="M123.9,17.45a3.33,3.33,0,0,1,.85,2.44v4.55h-2V20.15a2,2,0,0,0-.47-1.42,1.61,1.61,0,0,0-1.26-.49,1.67,1.67,0,0,0-1.28.49,2,2,0,0,0-.47,1.42v4.29h-2V16.68h2v1a2.69,2.69,0,0,1,1-.79,3.16,3.16,0,0,1,1.34-.29A3,3,0,0,1,123.9,17.45Z"/><path class="cls-2" d="M126.58,18.45a3.41,3.41,0,0,1,1.28-1.4,3.33,3.33,0,0,1,1.8-.49,3.06,3.06,0,0,1,1.51.35,2.94,2.94,0,0,1,1.05.88V16.68h2v7.76h-2V23.31a2.92,2.92,0,0,1-1.05.9,3.14,3.14,0,0,1-1.53.36,3.24,3.24,0,0,1-1.78-.51,3.54,3.54,0,0,1-1.28-1.42,4.59,4.59,0,0,1-.47-2.11A4.49,4.49,0,0,1,126.58,18.45Zm5.36.89a2,2,0,0,0-.76-.79,2,2,0,0,0-1-.27,2,2,0,0,0-1,.27,1.92,1.92,0,0,0-.75.77,2.46,2.46,0,0,0-.28,1.21,2.54,2.54,0,0,0,.28,1.23,2,2,0,0,0,.76.8,1.87,1.87,0,0,0,1,.28,2,2,0,0,0,1-.27,2,2,0,0,0,.76-.78,2.82,2.82,0,0,0,0-2.45Z"/><path class="cls-2" d="M148,17.45a3.26,3.26,0,0,1,.88,2.44v4.55h-2V20.15a1.93,1.93,0,0,0-.46-1.39,1.67,1.67,0,0,0-1.26-.48,1.7,1.7,0,0,0-1.27.48,1.93,1.93,0,0,0-.47,1.39v4.29h-2V20.15a1.93,1.93,0,0,0-.46-1.39,1.67,1.67,0,0,0-1.26-.48,1.7,1.7,0,0,0-1.28.48,1.93,1.93,0,0,0-.47,1.39v4.29h-2V16.68h2v.94a2.64,2.64,0,0,1,1-.77,3,3,0,0,1,1.31-.28A3.36,3.36,0,0,1,142,17a2.65,2.65,0,0,1,1.1,1.1,2.79,2.79,0,0,1,1.1-1.08,3.13,3.13,0,0,1,1.56-.41A3.08,3.08,0,0,1,148,17.45Z"/><path class="cls-2" d="M150.91,15.43a1.16,1.16,0,0,1,0-1.64,1.3,1.3,0,0,1,1.73,0,1.16,1.16,0,0,1,0,1.64,1.3,1.3,0,0,1-1.73,0Zm1.83,1.25v7.76h-2V16.68Z"/><path class="cls-2" d="M161.83,21.15h-5.67a1.9,1.9,0,0,0,.59,1.32,1.81,1.81,0,0,0,1.27.47,1.59,1.59,0,0,0,1.55-.94h2.12a3.58,3.58,0,0,1-1.29,1.84,3.77,3.77,0,0,1-2.34.73,4,4,0,0,1-2-.5,3.47,3.47,0,0,1-1.38-1.41,4.24,4.24,0,0,1-.5-2.1,4.33,4.33,0,0,1,.49-2.11,3.36,3.36,0,0,1,1.37-1.4,4.09,4.09,0,0,1,2-.49,4.14,4.14,0,0,1,2,.47,3.34,3.34,0,0,1,1.36,1.35,4.15,4.15,0,0,1,.48,2A5.7,5.7,0,0,1,161.83,21.15Zm-2-1.32a1.58,1.58,0,0,0-.54-1.21,2,2,0,0,0-1.31-.45,1.74,1.74,0,0,0-1.22.44,2,2,0,0,0-.61,1.22Z"/><path class="cls-2" d="M169.85,17.45a3.33,3.33,0,0,1,.85,2.44v4.55h-2V20.15a2,2,0,0,0-.46-1.42,1.64,1.64,0,0,0-1.26-.49,1.67,1.67,0,0,0-1.28.49,2,2,0,0,0-.47,1.42v4.29h-2V16.68h2v1a2.69,2.69,0,0,1,1-.79,3.13,3.13,0,0,1,1.34-.29A3,3,0,0,1,169.85,17.45Z"/><path class="cls-2" d="M174.85,18.29v3.76a.7.7,0,0,0,.19.56.88.88,0,0,0,.63.18h.91v1.65h-1.23A2.16,2.16,0,0,1,172.87,22V18.29H172V16.68h.92V14.77h2v1.91h1.73v1.61Z"/><path class="cls-2" d="M179.42,24.07a3.58,3.58,0,0,1-1.4-1.41,4.24,4.24,0,0,1-.51-2.1,4.14,4.14,0,0,1,.52-2.1,3.68,3.68,0,0,1,1.44-1.41,4.15,4.15,0,0,1,2-.49,4.2,4.2,0,0,1,2,.49A3.72,3.72,0,0,1,185,18.46a4.15,4.15,0,0,1,.53,2.1,4.05,4.05,0,0,1-.54,2.1,3.73,3.73,0,0,1-1.46,1.41,4.23,4.23,0,0,1-2.05.5A4.12,4.12,0,0,1,179.42,24.07Zm3-1.47a1.89,1.89,0,0,0,.75-.78,2.55,2.55,0,0,0,.28-1.26,2.32,2.32,0,0,0-.58-1.7,1.89,1.89,0,0,0-1.42-.59,1.86,1.86,0,0,0-1.41.59,2.36,2.36,0,0,0-.57,1.7,2.39,2.39,0,0,0,.56,1.7,1.81,1.81,0,0,0,1.39.6A2.07,2.07,0,0,0,182.44,22.6Z"/><path class="cls-2" d="M202.19,17.45a3.26,3.26,0,0,1,.88,2.44v4.55h-2V20.15a1.93,1.93,0,0,0-.46-1.39,1.67,1.67,0,0,0-1.26-.48,1.7,1.7,0,0,0-1.27.48,1.93,1.93,0,0,0-.47,1.39v4.29h-2V20.15a1.93,1.93,0,0,0-.46-1.39,1.67,1.67,0,0,0-1.26-.48,1.7,1.7,0,0,0-1.28.48,1.93,1.93,0,0,0-.47,1.39v4.29h-2V16.68h2v.94a2.64,2.64,0,0,1,1-.77,3,3,0,0,1,1.31-.28,3.36,3.36,0,0,1,1.63.39,2.65,2.65,0,0,1,1.1,1.1,2.79,2.79,0,0,1,1.1-1.08,3.13,3.13,0,0,1,1.56-.41A3.08,3.08,0,0,1,202.19,17.45Z"/><path class="cls-2" d="M204.9,18.45a3.33,3.33,0,0,1,1.27-1.4,3.38,3.38,0,0,1,1.8-.49,3.1,3.1,0,0,1,1.52.35,3,3,0,0,1,1,.88V16.68h2v7.76h-2V23.31a3,3,0,0,1-1,.9,3.17,3.17,0,0,1-1.53.36,3.28,3.28,0,0,1-1.79-.51,3.44,3.44,0,0,1-1.27-1.42,4.46,4.46,0,0,1-.47-2.11A4.37,4.37,0,0,1,204.9,18.45Zm5.35.89a2,2,0,0,0-.75-.79,2.06,2.06,0,0,0-1-.27,2,2,0,0,0-1.75,1,2.46,2.46,0,0,0-.29,1.21,2.54,2.54,0,0,0,.29,1.23,2,2,0,0,0,.75.8,1.92,1.92,0,0,0,1,.28,2.06,2.06,0,0,0,1-.27,2,2,0,0,0,.75-.78,2.82,2.82,0,0,0,0-2.45Zm0-4.67-3.22,1.47v-1.4l3.22-1.67Z"/><path class="cls-2" d="M215.68,24.22a3,3,0,0,1-1.19-.93A2.32,2.32,0,0,1,214,22h2a1,1,0,0,0,.44.74,1.51,1.51,0,0,0,1,.3,1.47,1.47,0,0,0,.87-.23.68.68,0,0,0,.32-.57.61.61,0,0,0-.39-.57,6.72,6.72,0,0,0-1.22-.41,10.18,10.18,0,0,1-1.42-.44,2.48,2.48,0,0,1-1-.68,1.89,1.89,0,0,1-.39-1.25,2,2,0,0,1,.37-1.18,2.52,2.52,0,0,1,1.06-.84,4.09,4.09,0,0,1,1.63-.3,3.34,3.34,0,0,1,2.21.69,2.55,2.55,0,0,1,.91,1.87H218.5a1,1,0,0,0-.39-.74,1.72,1.72,0,0,0-1.73-.07.6.6,0,0,0-.29.54.65.65,0,0,0,.39.6,6.5,6.5,0,0,0,1.22.41,9.87,9.87,0,0,1,1.38.44A2.48,2.48,0,0,1,220,21a1.87,1.87,0,0,1,.41,1.24,2,2,0,0,1-.37,1.2,2.35,2.35,0,0,1-1.06.83,4,4,0,0,1-1.62.31A4.12,4.12,0,0,1,215.68,24.22Z"/><path class="cls-2" d="M228.33,16.92a2.8,2.8,0,0,1,1.4-.35v2.06h-.52a2,2,0,0,0-1.4.43,2,2,0,0,0-.47,1.51v3.87h-2V16.68h2v1.21A2.87,2.87,0,0,1,228.33,16.92Z"/><path class="cls-2" d="M231,18.45a3.33,3.33,0,0,1,1.27-1.4,3.38,3.38,0,0,1,1.8-.49,3.1,3.1,0,0,1,1.52.35,3,3,0,0,1,1,.88V16.68h2v7.76h-2V23.31a3,3,0,0,1-1,.9,3.17,3.17,0,0,1-1.53.36,3.28,3.28,0,0,1-1.79-.51A3.44,3.44,0,0,1,231,22.64a4.46,4.46,0,0,1-.47-2.11A4.37,4.37,0,0,1,231,18.45Zm5.35.89a2,2,0,0,0-1.78-1.06,2,2,0,0,0-1.75,1,2.36,2.36,0,0,0-.29,1.21,2.43,2.43,0,0,0,.29,1.23,2,2,0,0,0,.75.8,1.92,1.92,0,0,0,1,.28,2,2,0,0,0,1-.27,2,2,0,0,0,.76-.78,2.82,2.82,0,0,0,0-2.45Zm0-4.67-3.22,1.47v-1.4l3.22-1.67Z"/><path class="cls-2" d="M243.54,16.91a3.23,3.23,0,0,1,1.51-.35,3.33,3.33,0,0,1,1.8.49,3.38,3.38,0,0,1,1.28,1.39,4.5,4.5,0,0,1,.47,2.09,4.59,4.59,0,0,1-.47,2.11,3.47,3.47,0,0,1-1.28,1.42,3.26,3.26,0,0,1-1.8.51,3.16,3.16,0,0,1-1.5-.35,3.31,3.31,0,0,1-1.06-.89v4.81h-2V16.68h2V17.8A3.09,3.09,0,0,1,243.54,16.91Zm2.77,2.41a1.94,1.94,0,0,0-.76-.77,2,2,0,0,0-1-.27,2,2,0,0,0-1,.27,2,2,0,0,0-.76.79,2.71,2.71,0,0,0,0,2.44,2,2,0,0,0,.76.79,2,2,0,0,0,1,.27,1.9,1.9,0,0,0,1-.28,2.07,2.07,0,0,0,.76-.79,2.55,2.55,0,0,0,.28-1.24A2.46,2.46,0,0,0,246.31,19.32Z"/><path class="cls-2" d="M250.16,15.43a1.14,1.14,0,0,1,0-1.64,1.18,1.18,0,0,1,.86-.33,1.2,1.2,0,0,1,.86.33,1.16,1.16,0,0,1,0,1.64,1.2,1.2,0,0,1-.86.33A1.18,1.18,0,0,1,250.16,15.43ZM252,16.68v7.76h-2V16.68Z"/><path class="cls-2" d="M253.88,18.45a3.35,3.35,0,0,1,1.28-1.4,3.41,3.41,0,0,1,1.81-.49,3.3,3.3,0,0,1,1.44.33,2.88,2.88,0,0,1,1.09.87V14.08h2V24.44h-2V23.29a2.71,2.71,0,0,1-1,.93,3.26,3.26,0,0,1-1.53.35,3.3,3.3,0,0,1-1.79-.51,3.47,3.47,0,0,1-1.28-1.42,4.59,4.59,0,0,1-.47-2.11A4.49,4.49,0,0,1,253.88,18.45Zm5.36.89a2,2,0,0,0-.76-.79,2,2,0,0,0-1-.27,2,2,0,0,0-1,.27,1.92,1.92,0,0,0-.75.77,2.46,2.46,0,0,0-.28,1.21,2.54,2.54,0,0,0,.28,1.23,2,2,0,0,0,.76.8,1.87,1.87,0,0,0,1,.28,2,2,0,0,0,1-.27,2,2,0,0,0,.76-.78,2.82,2.82,0,0,0,0-2.45Z"/><path class="cls-2" d="M264.84,24.07a3.54,3.54,0,0,1-1.41-1.41,4.24,4.24,0,0,1-.51-2.1,4.14,4.14,0,0,1,.52-2.1,3.68,3.68,0,0,1,1.44-1.41,4.45,4.45,0,0,1,4.06,0,3.72,3.72,0,0,1,1.43,1.41,4.15,4.15,0,0,1,.53,2.1,4.05,4.05,0,0,1-.54,2.1,3.73,3.73,0,0,1-1.46,1.41,4.23,4.23,0,0,1-2,.5A4.08,4.08,0,0,1,264.84,24.07Zm3-1.47a1.77,1.77,0,0,0,.75-.78,2.55,2.55,0,0,0,.28-1.26,2.32,2.32,0,0,0-.58-1.7,1.89,1.89,0,0,0-1.42-.59,1.86,1.86,0,0,0-1.41.59,2.36,2.36,0,0,0-.56,1.7,2.38,2.38,0,0,0,.55,1.7,1.81,1.81,0,0,0,1.39.6A2,2,0,0,0,267.85,22.6Z"/><path class="cls-3" d="M17,47.28a4.61,4.61,0,0,1-1.75-1.78,5.6,5.6,0,0,1,0-5.16A4.61,4.61,0,0,1,17,38.56a5.09,5.09,0,0,1,4.94,0,4.49,4.49,0,0,1,1.73,1.78,5.52,5.52,0,0,1,0,5.16A4.49,4.49,0,0,1,22,47.28a5.09,5.09,0,0,1-4.94,0Zm4.42-.72a3.55,3.55,0,0,0,1.37-1.45,4.54,4.54,0,0,0,.51-2.19,4.47,4.47,0,0,0-.51-2.18,3.55,3.55,0,0,0-1.37-1.45,4.09,4.09,0,0,0-3.92,0,3.62,3.62,0,0,0-1.37,1.45,4.47,4.47,0,0,0-.5,2.18,4.54,4.54,0,0,0,.5,2.19,3.62,3.62,0,0,0,1.37,1.45,4.09,4.09,0,0,0,3.92,0Z"/><path class="cls-3" d="M29.12,41H27.34v6.82h-1V41H25.29v-.82h1.07v-.54A2.35,2.35,0,0,1,27,37.81a3,3,0,0,1,2.06-.59v.84a1.92,1.92,0,0,0-1.34.37,1.62,1.62,0,0,0-.38,1.21v.54h1.78Z"/><path class="cls-3" d="M32.62,40.43a3.2,3.2,0,0,1,1.63-.4v1H34a2.49,2.49,0,0,0-1.71.57,2.45,2.45,0,0,0-.64,1.92v4.27h-1V40.18h1v1.35A2.38,2.38,0,0,1,32.62,40.43Z"/><path class="cls-3" d="M42.61,44.37H36.27a3.14,3.14,0,0,0,.42,1.49,2.46,2.46,0,0,0,1,.93,2.92,2.92,0,0,0,1.35.32,2.68,2.68,0,0,0,1.6-.47,2.14,2.14,0,0,0,.86-1.24h1a3.27,3.27,0,0,1-1.2,1.82,3.61,3.61,0,0,1-2.3.71,3.86,3.86,0,0,1-1.93-.48,3.4,3.4,0,0,1-1.34-1.37,4.81,4.81,0,0,1,0-4.17,3.32,3.32,0,0,1,1.33-1.37,3.91,3.91,0,0,1,2-.48,3.71,3.71,0,0,1,1.91.48,3.23,3.23,0,0,1,1.26,1.28,3.71,3.71,0,0,1,.44,1.79A7.16,7.16,0,0,1,42.61,44.37ZM41.3,42.12a2.3,2.3,0,0,0-1-.91A3,3,0,0,0,39,40.9a2.73,2.73,0,0,0-1.87.7,2.84,2.84,0,0,0-.85,2h5.38A2.7,2.7,0,0,0,41.3,42.12Z"/><path class="cls-3" d="M44.46,41.92a3.42,3.42,0,0,1,1.32-1.37,3.7,3.7,0,0,1,1.91-.49,3.8,3.8,0,0,1,2.34.7,3.19,3.19,0,0,1,1.18,1.91H50.16a2.16,2.16,0,0,0-.85-1.3,2.7,2.7,0,0,0-1.62-.47,2.77,2.77,0,0,0-1.38.35,2.5,2.5,0,0,0-1,1,4.3,4.3,0,0,0,0,3.4,2.44,2.44,0,0,0,1,1,2.93,2.93,0,0,0,3-.11,2.15,2.15,0,0,0,.85-1.31h1.05A3.27,3.27,0,0,1,50,47.22a3.74,3.74,0,0,1-2.33.71,3.79,3.79,0,0,1-1.91-.48,3.42,3.42,0,0,1-1.32-1.37A4.34,4.34,0,0,1,44,44,4.29,4.29,0,0,1,44.46,41.92Z"/><path class="cls-3" d="M59.9,44.37H53.56A3.14,3.14,0,0,0,54,45.86a2.46,2.46,0,0,0,1,.93,3,3,0,0,0,1.35.32,2.68,2.68,0,0,0,1.6-.47,2.14,2.14,0,0,0,.86-1.24h1a3.27,3.27,0,0,1-1.2,1.82,3.61,3.61,0,0,1-2.3.71,3.86,3.86,0,0,1-1.93-.48,3.4,3.4,0,0,1-1.34-1.37A4.34,4.34,0,0,1,52.57,44,4.47,4.47,0,0,1,53,41.91a3.32,3.32,0,0,1,1.33-1.37,3.91,3.91,0,0,1,2-.48,3.71,3.71,0,0,1,1.91.48,3.23,3.23,0,0,1,1.26,1.28,3.71,3.71,0,0,1,.44,1.79A7.16,7.16,0,0,1,59.9,44.37Zm-1.31-2.25a2.3,2.3,0,0,0-1-.91,3,3,0,0,0-1.34-.31,2.69,2.69,0,0,0-1.86.7,2.81,2.81,0,0,0-.86,2h5.38A2.7,2.7,0,0,0,58.59,42.12Z"/><path class="cls-3" d="M73,40.88a3.33,3.33,0,0,1,.85,2.46v4.48h-1V43.45a2.72,2.72,0,0,0-.6-1.9,2.11,2.11,0,0,0-1.64-.66,2.23,2.23,0,0,0-1.72.71,3,3,0,0,0-.64,2.08v4.14h-1V43.45a2.72,2.72,0,0,0-.6-1.9,2.12,2.12,0,0,0-1.65-.66,2.22,2.22,0,0,0-1.72.71,3,3,0,0,0-.65,2.08v4.14h-1V40.18h1v1.31a2.52,2.52,0,0,1,1-1.08,3,3,0,0,1,1.5-.38,3.16,3.16,0,0,1,1.74.48,2.65,2.65,0,0,1,1.08,1.4,2.58,2.58,0,0,1,1.06-1.39,3.1,3.1,0,0,1,1.7-.49A3,3,0,0,1,73,40.88Z"/><path class="cls-3" d="M77.44,47.45a3.45,3.45,0,0,1-1.36-1.37,4.24,4.24,0,0,1-.5-2.08,4.08,4.08,0,0,1,.51-2.08,3.47,3.47,0,0,1,1.37-1.37,3.86,3.86,0,0,1,1.94-.49,3.93,3.93,0,0,1,2,.49,3.47,3.47,0,0,1,1.37,1.37,4.18,4.18,0,0,1,.5,2.08,4.13,4.13,0,0,1-.51,2.07,3.46,3.46,0,0,1-1.38,1.38,4.06,4.06,0,0,1-2,.48A3.9,3.9,0,0,1,77.44,47.45Zm3.34-.72a2.57,2.57,0,0,0,1-1,3.86,3.86,0,0,0,0-3.4,2.54,2.54,0,0,0-1-1,3.05,3.05,0,0,0-2.8,0,2.52,2.52,0,0,0-1,1,4,4,0,0,0,0,3.4,2.53,2.53,0,0,0,1,1,3,3,0,0,0,2.8,0Z"/><path class="cls-3" d="M85.5,47.32a2.24,2.24,0,0,1-.93-1.66h1a1.44,1.44,0,0,0,.61,1.05,2.42,2.42,0,0,0,1.45.4,1.92,1.92,0,0,0,1.25-.38,1.18,1.18,0,0,0,.45-.94.84.84,0,0,0-.25-.64,1.7,1.7,0,0,0-.63-.4,9.23,9.23,0,0,0-1-.32A10.19,10.19,0,0,1,86,44a2.4,2.4,0,0,1-.91-.66,1.83,1.83,0,0,1-.37-1.18,1.73,1.73,0,0,1,.34-1,2.28,2.28,0,0,1,1-.76,3.46,3.46,0,0,1,1.4-.28,3,3,0,0,1,2,.63,2.26,2.26,0,0,1,.81,1.71h-1a1.47,1.47,0,0,0-.52-1.08,2.28,2.28,0,0,0-2.53-.07A1.09,1.09,0,0,0,86,42.86a1.78,1.78,0,0,0,.68.44,10.67,10.67,0,0,0,1.09.36,9.17,9.17,0,0,1,1.32.44,2.39,2.39,0,0,1,.84.61,1.67,1.67,0,0,1,.36,1.08,1.84,1.84,0,0,1-.34,1.1,2.28,2.28,0,0,1-.93.76,3.26,3.26,0,0,1-1.39.28A3.53,3.53,0,0,1,85.5,47.32Z"/><path class="cls-3" d="M97,37.46V47.82H96V37.46Z"/><path class="cls-3" d="M99.22,41.92a3.37,3.37,0,0,1,1.3-1.37,3.65,3.65,0,0,1,1.89-.49,3.41,3.41,0,0,1,1.88.51,2.83,2.83,0,0,1,1.14,1.29V40.18h1v7.64h-1v-1.7a3,3,0,0,1-1.16,1.3,3.37,3.37,0,0,1-1.88.51,3.6,3.6,0,0,1-1.87-.49,3.46,3.46,0,0,1-1.3-1.38A4.46,4.46,0,0,1,98.75,44,4.38,4.38,0,0,1,99.22,41.92Zm5.83.45a2.75,2.75,0,0,0-1-1.08,2.8,2.8,0,0,0-1.43-.37,3,3,0,0,0-1.46.36,2.52,2.52,0,0,0-1,1.06A3.39,3.39,0,0,0,99.75,44a3.46,3.46,0,0,0,.37,1.65,2.58,2.58,0,0,0,1,1.08,3,3,0,0,0,1.46.37A2.81,2.81,0,0,0,104,46.7a2.62,2.62,0,0,0,1-1.08,3.66,3.66,0,0,0,0-3.25Z"/><path class="cls-3" d="M114.61,40.57a3.37,3.37,0,0,1,1.88-.51,3.6,3.6,0,0,1,1.87.49,3.37,3.37,0,0,1,1.3,1.37,4.38,4.38,0,0,1,.47,2.06,4.46,4.46,0,0,1-.47,2.08,3.46,3.46,0,0,1-1.3,1.38,3.6,3.6,0,0,1-1.87.49,3.44,3.44,0,0,1-1.88-.51,3.08,3.08,0,0,1-1.16-1.28v5.29h-1V40.18h1v1.68A3,3,0,0,1,114.61,40.57Zm4.15,1.77a2.52,2.52,0,0,0-1-1.06,3,3,0,0,0-1.46-.36,2.8,2.8,0,0,0-1.43.37,2.75,2.75,0,0,0-1,1.08,3.66,3.66,0,0,0,0,3.25,2.62,2.62,0,0,0,1,1.08,2.81,2.81,0,0,0,1.43.38,3,3,0,0,0,1.46-.37,2.58,2.58,0,0,0,1-1.08,3.46,3.46,0,0,0,.38-1.65A3.4,3.4,0,0,0,118.76,42.34Z"/><path class="cls-3" d="M123.34,47.45A3.58,3.58,0,0,1,122,46.08a4.24,4.24,0,0,1-.49-2.08,4.18,4.18,0,0,1,.5-2.08,3.54,3.54,0,0,1,1.37-1.37,4.13,4.13,0,0,1,3.9,0,3.41,3.41,0,0,1,1.37,1.37,4.08,4.08,0,0,1,.5,2.08,4.23,4.23,0,0,1-.5,2.07,3.48,3.48,0,0,1-1.39,1.38,4,4,0,0,1-2,.48A3.93,3.93,0,0,1,123.34,47.45Zm3.34-.72a2.51,2.51,0,0,0,1-1,3.32,3.32,0,0,0,.4-1.7,3.39,3.39,0,0,0-.39-1.7,2.58,2.58,0,0,0-1-1,3.05,3.05,0,0,0-2.8,0,2.46,2.46,0,0,0-1,1,3.9,3.9,0,0,0,0,3.4,2.41,2.41,0,0,0,1,1,2.87,2.87,0,0,0,1.39.35A2.91,2.91,0,0,0,126.68,46.73Z"/><path class="cls-3" d="M131.41,47.32a2.18,2.18,0,0,1-.93-1.66h1a1.48,1.48,0,0,0,.61,1.05,2.42,2.42,0,0,0,1.45.4,1.9,1.9,0,0,0,1.25-.38,1.16,1.16,0,0,0,.46-.94.84.84,0,0,0-.25-.64,1.66,1.66,0,0,0-.64-.4,9,9,0,0,0-1-.32,10.9,10.9,0,0,1-1.39-.45,2.45,2.45,0,0,1-.9-.66,1.93,1.93,0,0,1,0-2.22,2.31,2.31,0,0,1,1-.76,3.41,3.41,0,0,1,1.39-.28,3,3,0,0,1,2,.63,2.24,2.24,0,0,1,.82,1.71h-1a1.48,1.48,0,0,0-.53-1.08,1.94,1.94,0,0,0-1.32-.42,2,2,0,0,0-1.21.35,1.09,1.09,0,0,0-.46.87,1.05,1.05,0,0,0,.27.74,1.86,1.86,0,0,0,.68.44,11,11,0,0,0,1.1.36,9,9,0,0,1,1.31.44,2.22,2.22,0,0,1,.84.61,1.67,1.67,0,0,1,.37,1.08,1.91,1.91,0,0,1-.34,1.1,2.31,2.31,0,0,1-.94.76,3.18,3.18,0,0,1-1.38.28A3.51,3.51,0,0,1,131.41,47.32Z"/><path class="cls-3" d="M138.05,38.52a.74.74,0,0,1,0-1,.74.74,0,0,1,1,0,.72.72,0,1,1-1,1Zm1,1.66v7.64h-1V40.18Z"/><path class="cls-3" d="M143.4,40.57a3.38,3.38,0,0,1,1.87-.51,3.59,3.59,0,0,1,1.88.49,3.35,3.35,0,0,1,1.29,1.37,4.26,4.26,0,0,1,.47,2.06,4.34,4.34,0,0,1-.47,2.08,3.39,3.39,0,0,1-1.3,1.38,3.58,3.58,0,0,1-1.87.49,3.41,3.41,0,0,1-1.88-.5,2.91,2.91,0,0,1-1.15-1.29v1.68h-1V37.46h1v4.41A3.09,3.09,0,0,1,143.4,40.57Zm4.15,1.77a2.61,2.61,0,0,0-1-1.06,2.91,2.91,0,0,0-1.45-.36,2.83,2.83,0,0,0-1.44.37,2.89,2.89,0,0,0-1,1.08,3.75,3.75,0,0,0,0,3.25,2.75,2.75,0,0,0,1,1.08,2.84,2.84,0,0,0,1.44.38,2.92,2.92,0,0,0,1.45-.37,2.66,2.66,0,0,0,1-1.08,3.46,3.46,0,0,0,.37-1.65A3.39,3.39,0,0,0,147.55,42.34Z"/><path class="cls-3" d="M150.71,38.52a.74.74,0,0,1,0-1,.69.69,0,0,1,.5-.2.7.7,0,0,1,.5.2.74.74,0,0,1,0,1,.67.67,0,0,1-.5.21A.66.66,0,0,1,150.71,38.52Zm1,1.66v7.64h-1V40.18Z"/><path class="cls-3" d="M156.06,40.57a3.38,3.38,0,0,1,1.87-.51,3.61,3.61,0,0,1,1.88.49,3.35,3.35,0,0,1,1.29,1.37,4.38,4.38,0,0,1,.47,2.06,4.46,4.46,0,0,1-.47,2.08,3.46,3.46,0,0,1-1.3,1.38,3.6,3.6,0,0,1-1.87.49,3.36,3.36,0,0,1-1.88-.5,2.94,2.94,0,0,1-1.16-1.29v1.68h-1V37.46h1v4.41A3,3,0,0,1,156.06,40.57Zm4.14,1.77a2.52,2.52,0,0,0-1-1.06,3,3,0,0,0-1.46-.36,2.8,2.8,0,0,0-1.43.37,2.75,2.75,0,0,0-1,1.08,3.66,3.66,0,0,0,0,3.25,2.62,2.62,0,0,0,1,1.08,2.81,2.81,0,0,0,1.43.38,3,3,0,0,0,1.46-.37,2.58,2.58,0,0,0,1-1.08,3.46,3.46,0,0,0,.38-1.65A3.4,3.4,0,0,0,160.2,42.34Z"/><path class="cls-3" d="M163.36,38.52a.74.74,0,0,1,0-1,.74.74,0,0,1,1,0,.72.72,0,1,1-1,1Zm1,1.66v7.64h-1V40.18Z"/><path class="cls-3" d="M167.56,37.46V47.82h-1V37.46Z"/><path class="cls-3" d="M169.77,38.52a.74.74,0,0,1,0-1,.74.74,0,0,1,1,0,.72.72,0,1,1-1,1Zm1,1.66v7.64h-1V40.18Z"/><path class="cls-3" d="M173,41.92a3.39,3.39,0,0,1,1.31-1.37,3.61,3.61,0,0,1,1.88-.49,3.49,3.49,0,0,1,1.82.49,3,3,0,0,1,1.19,1.28V37.46h1V47.82h-1V46.11a2.93,2.93,0,0,1-1.14,1.31,3.44,3.44,0,0,1-1.88.51,3.59,3.59,0,0,1-1.88-.49A3.48,3.48,0,0,1,173,46.06a4.46,4.46,0,0,1-.47-2.08A4.26,4.26,0,0,1,173,41.92Zm5.82.45a2.79,2.79,0,0,0-1-1.08,2.86,2.86,0,0,0-1.44-.37,3,3,0,0,0-1.46.36,2.65,2.65,0,0,0-1,1.06,3.39,3.39,0,0,0-.37,1.64,3.46,3.46,0,0,0,.37,1.65,2.71,2.71,0,0,0,1,1.08,3,3,0,0,0,1.46.37,2.87,2.87,0,0,0,1.44-.38,2.66,2.66,0,0,0,1-1.08,3.66,3.66,0,0,0,0-3.25Z"/><path class="cls-3" d="M182.46,41.92a3.39,3.39,0,0,1,1.31-1.37,3.59,3.59,0,0,1,1.88-.49,3.39,3.39,0,0,1,1.88.51,2.83,2.83,0,0,1,1.14,1.29V40.18h1v7.64h-1v-1.7a3.05,3.05,0,0,1-1.15,1.3,3.42,3.42,0,0,1-1.89.51,3.54,3.54,0,0,1-1.86-.49,3.48,3.48,0,0,1-1.31-1.38A4.46,4.46,0,0,1,182,44,4.37,4.37,0,0,1,182.46,41.92Zm5.83.45a2.79,2.79,0,0,0-1-1.08,2.86,2.86,0,0,0-1.44-.37,3,3,0,0,0-1.46.36,2.65,2.65,0,0,0-1,1.06A3.39,3.39,0,0,0,183,44a3.46,3.46,0,0,0,.37,1.65,2.71,2.71,0,0,0,1,1.08,3,3,0,0,0,1.46.37,2.87,2.87,0,0,0,1.44-.38,2.66,2.66,0,0,0,1-1.08,3.66,3.66,0,0,0,0-3.25Z"/><path class="cls-3" d="M191.92,41.92a3.39,3.39,0,0,1,1.31-1.37,3.59,3.59,0,0,1,1.88-.49,3.52,3.52,0,0,1,1.82.49,3,3,0,0,1,1.19,1.28V37.46h1V47.82h-1V46.11A2.89,2.89,0,0,1,197,47.42a3.38,3.38,0,0,1-1.87.51,3.59,3.59,0,0,1-1.88-.49,3.48,3.48,0,0,1-1.31-1.38,4.46,4.46,0,0,1-.47-2.08A4.26,4.26,0,0,1,191.92,41.92Zm5.83.45a2.89,2.89,0,0,0-1-1.08,2.86,2.86,0,0,0-1.44-.37,3,3,0,0,0-1.46.36,2.65,2.65,0,0,0-1,1.06,3.39,3.39,0,0,0-.37,1.64,3.46,3.46,0,0,0,.37,1.65,2.71,2.71,0,0,0,1,1.08,3,3,0,0,0,1.46.37,2.87,2.87,0,0,0,1.44-.38,2.75,2.75,0,0,0,1-1.08,3.75,3.75,0,0,0,0-3.25Z"/><path class="cls-3" d="M205.21,41.92a3.37,3.37,0,0,1,1.3-1.37,3.65,3.65,0,0,1,1.89-.49,3.52,3.52,0,0,1,1.82.49,3,3,0,0,1,1.19,1.28V37.46h1V47.82h-1V46.11a3,3,0,0,1-1.15,1.31,3.41,3.41,0,0,1-1.88.51,3.61,3.61,0,0,1-1.88-.49,3.46,3.46,0,0,1-1.3-1.38,4.46,4.46,0,0,1-.47-2.08A4.26,4.26,0,0,1,205.21,41.92Zm5.82.45a2.71,2.71,0,0,0-2.46-1.45,2.93,2.93,0,0,0-1.46.36,2.61,2.61,0,0,0-1,1.06,3.51,3.51,0,0,0-.37,1.64,3.58,3.58,0,0,0,.37,1.65,2.66,2.66,0,0,0,1,1.08,2.93,2.93,0,0,0,1.46.37A2.81,2.81,0,0,0,210,46.7a2.68,2.68,0,0,0,1-1.08,3.66,3.66,0,0,0,0-3.25Z"/><path class="cls-3" d="M221.52,44.37h-6.35a3.14,3.14,0,0,0,.42,1.49,2.55,2.55,0,0,0,1,.93,2.91,2.91,0,0,0,1.34.32,2.66,2.66,0,0,0,1.6-.47,2.16,2.16,0,0,0,.87-1.24h1a3.2,3.2,0,0,1-1.19,1.82,3.64,3.64,0,0,1-2.31.71,3.86,3.86,0,0,1-1.93-.48,3.46,3.46,0,0,1-1.34-1.37,4.77,4.77,0,0,1,0-4.17A3.26,3.26,0,0,1,216,40.54a3.88,3.88,0,0,1,1.94-.48,3.69,3.69,0,0,1,1.91.48,3.23,3.23,0,0,1,1.26,1.28,3.6,3.6,0,0,1,.44,1.79C221.54,43.94,221.53,44.2,221.52,44.37Zm-1.31-2.25a2.39,2.39,0,0,0-1-.91,3,3,0,0,0-1.34-.31,2.69,2.69,0,0,0-1.86.7,2.81,2.81,0,0,0-.86,2h5.38A2.79,2.79,0,0,0,220.21,42.12Z"/><path class="cls-3" d="M227.19,41.92a3.33,3.33,0,0,1,1.31-1.37,3.59,3.59,0,0,1,1.88-.49,3.39,3.39,0,0,1,1.88.51,2.83,2.83,0,0,1,1.14,1.29V40.18h1v7.64h-1v-1.7a3.05,3.05,0,0,1-1.15,1.3,3.42,3.42,0,0,1-1.89.51,3.54,3.54,0,0,1-1.86-.49,3.42,3.42,0,0,1-1.31-1.38,4.46,4.46,0,0,1-.47-2.08A4.38,4.38,0,0,1,227.19,41.92Zm5.83.45a2.79,2.79,0,0,0-1-1.08,2.86,2.86,0,0,0-1.44-.37,3,3,0,0,0-1.46.36,2.59,2.59,0,0,0-1,1.06,3.39,3.39,0,0,0-.37,1.64,3.46,3.46,0,0,0,.37,1.65,2.64,2.64,0,0,0,1,1.08,3,3,0,0,0,1.46.37A2.87,2.87,0,0,0,232,46.7a2.66,2.66,0,0,0,1-1.08,3.66,3.66,0,0,0,0-3.25Z"/><path class="cls-3" d="M236.65,41.92A3.39,3.39,0,0,1,238,40.55a3.59,3.59,0,0,1,1.88-.49,3.52,3.52,0,0,1,1.82.49,3,3,0,0,1,1.19,1.28V37.46h1V47.82h-1V46.11a2.89,2.89,0,0,1-1.15,1.31,3.38,3.38,0,0,1-1.87.51,3.65,3.65,0,0,1-1.89-.49,3.53,3.53,0,0,1-1.3-1.38,4.46,4.46,0,0,1-.47-2.08A4.26,4.26,0,0,1,236.65,41.92Zm5.82.45a2.75,2.75,0,0,0-1-1.08,2.8,2.8,0,0,0-1.43-.37,3,3,0,0,0-1.46.36,2.59,2.59,0,0,0-1,1.06,3.39,3.39,0,0,0-.37,1.64,3.46,3.46,0,0,0,.37,1.65,2.64,2.64,0,0,0,1,1.08,3,3,0,0,0,1.46.37,2.81,2.81,0,0,0,1.43-.38,2.62,2.62,0,0,0,1-1.08,3.66,3.66,0,0,0,0-3.25Z"/><path class="cls-3" d="M246.09,41.92a3.44,3.44,0,0,1,1.3-1.37,3.65,3.65,0,0,1,1.89-.49,3.41,3.41,0,0,1,1.88.51,2.83,2.83,0,0,1,1.14,1.29V40.18h1v7.64h-1v-1.7a3.05,3.05,0,0,1-1.15,1.3,3.42,3.42,0,0,1-1.89.51,3.6,3.6,0,0,1-1.87-.49,3.53,3.53,0,0,1-1.3-1.38,4.46,4.46,0,0,1-.47-2.08A4.38,4.38,0,0,1,246.09,41.92Zm5.83.45a2.75,2.75,0,0,0-1-1.08,2.8,2.8,0,0,0-1.43-.37,3,3,0,0,0-1.46.36,2.59,2.59,0,0,0-1,1.06,3.39,3.39,0,0,0-.37,1.64,3.46,3.46,0,0,0,.37,1.65,2.64,2.64,0,0,0,1,1.08,3,3,0,0,0,1.46.37,2.81,2.81,0,0,0,1.43-.38,2.62,2.62,0,0,0,1-1.08,3.66,3.66,0,0,0,0-3.25Z"/><path class="cls-3" d="M257.64,40.57a3.41,3.41,0,0,1,1.88-.51,3.55,3.55,0,0,1,1.87.49,3.39,3.39,0,0,1,1.31,1.37,4.38,4.38,0,0,1,.47,2.06,4.46,4.46,0,0,1-.47,2.08,3.48,3.48,0,0,1-1.31,1.38,3.55,3.55,0,0,1-1.87.49,3.4,3.4,0,0,1-1.87-.51,3.08,3.08,0,0,1-1.16-1.28v5.29h-1V40.18h1v1.68A3,3,0,0,1,257.64,40.57Zm4.16,1.77a2.61,2.61,0,0,0-1-1.06,2.82,2.82,0,0,0-3.92,1.09,3.75,3.75,0,0,0,0,3.25,2.75,2.75,0,0,0,1,1.08,3,3,0,0,0,2.89,0,2.66,2.66,0,0,0,1-1.08,3.46,3.46,0,0,0,.37-1.65A3.39,3.39,0,0,0,261.8,42.34Z"/><path class="cls-3" d="M266.25,41v4.75a1.33,1.33,0,0,0,.26,1,1.3,1.3,0,0,0,.94.27h.89v.84h-1a1.77,1.77,0,0,1-2-2.07V41h-1.06v-.82h1.06V38.26h1v1.92h2.09V41Z"/><path class="cls-3" d="M270,41.92a3.31,3.31,0,0,1,1.3-1.37,3.59,3.59,0,0,1,1.88-.49,3.37,3.37,0,0,1,1.88.51,2.83,2.83,0,0,1,1.14,1.29V40.18h1v7.64h-1v-1.7a3,3,0,0,1-1.15,1.3,3.41,3.41,0,0,1-1.88.51,3.58,3.58,0,0,1-1.87-.49,3.39,3.39,0,0,1-1.3-1.38,4.34,4.34,0,0,1-.47-2.08A4.26,4.26,0,0,1,270,41.92Zm5.83.45a2.89,2.89,0,0,0-1-1.08,2.83,2.83,0,0,0-1.44-.37,2.91,2.91,0,0,0-1.45.36,2.61,2.61,0,0,0-1,1.06A3.39,3.39,0,0,0,270.5,44a3.46,3.46,0,0,0,.37,1.65,2.66,2.66,0,0,0,1,1.08,2.92,2.92,0,0,0,1.45.37,2.84,2.84,0,0,0,1.44-.38,2.75,2.75,0,0,0,1-1.08,3.75,3.75,0,0,0,0-3.25Z"/><path class="cls-3" d="M281.37,40.43A3.17,3.17,0,0,1,283,40v1h-.26a2.49,2.49,0,0,0-1.71.57,2.46,2.46,0,0,0-.65,1.92v4.27h-1V40.18h1v1.35A2.46,2.46,0,0,1,281.37,40.43Z"/><path class="cls-3" d="M289.29,37.46V47.82h-1V37.46Z"/><path class="cls-3" d="M291.54,41.92a3.31,3.31,0,0,1,1.3-1.37,3.59,3.59,0,0,1,1.88-.49,3.37,3.37,0,0,1,1.88.51,2.83,2.83,0,0,1,1.14,1.29V40.18h1v7.64h-1v-1.7a3,3,0,0,1-1.15,1.3,3.41,3.41,0,0,1-1.88.51,3.55,3.55,0,0,1-1.87-.49,3.39,3.39,0,0,1-1.3-1.38,4.34,4.34,0,0,1-.47-2.08A4.26,4.26,0,0,1,291.54,41.92Zm5.83.45a2.89,2.89,0,0,0-1-1.08,2.86,2.86,0,0,0-1.44-.37,2.91,2.91,0,0,0-1.45.36,2.61,2.61,0,0,0-1,1.06,3.39,3.39,0,0,0-.37,1.64,3.46,3.46,0,0,0,.37,1.65,2.66,2.66,0,0,0,1,1.08,2.92,2.92,0,0,0,1.45.37,2.87,2.87,0,0,0,1.44-.38,2.75,2.75,0,0,0,1-1.08,3.75,3.75,0,0,0,0-3.25Z"/><path class="cls-3" d="M301.45,47.32a2.18,2.18,0,0,1-.93-1.66h1a1.48,1.48,0,0,0,.61,1.05,2.44,2.44,0,0,0,1.45.4,1.9,1.9,0,0,0,1.25-.38,1.16,1.16,0,0,0,.46-.94.84.84,0,0,0-.25-.64,1.66,1.66,0,0,0-.64-.4,9,9,0,0,0-1-.32A10.9,10.9,0,0,1,302,44a2.45,2.45,0,0,1-.9-.66,1.93,1.93,0,0,1,0-2.22,2.38,2.38,0,0,1,1-.76,3.43,3.43,0,0,1,1.4-.28,3,3,0,0,1,2,.63,2.24,2.24,0,0,1,.82,1.71h-1a1.48,1.48,0,0,0-.53-1.08,1.94,1.94,0,0,0-1.32-.42,2,2,0,0,0-1.21.35,1.09,1.09,0,0,0-.46.87,1.05,1.05,0,0,0,.27.74,1.86,1.86,0,0,0,.68.44c.28.11.64.23,1.1.36a8.58,8.58,0,0,1,1.31.44,2.22,2.22,0,0,1,.84.61,1.62,1.62,0,0,1,.37,1.08,1.91,1.91,0,0,1-.34,1.1,2.31,2.31,0,0,1-.94.76,3.18,3.18,0,0,1-1.38.28A3.51,3.51,0,0,1,301.45,47.32Z"/><path class="cls-3" d="M27,57.68a3.37,3.37,0,0,1,.84,2.46v4.48h-1V60.25a2.72,2.72,0,0,0-.6-1.9,2.12,2.12,0,0,0-1.64-.66,2.22,2.22,0,0,0-1.72.71,3,3,0,0,0-.65,2.08v4.14h-1V60.25a2.68,2.68,0,0,0-.61-1.9A2.12,2.12,0,0,0,19,57.69a2.22,2.22,0,0,0-1.72.71,3,3,0,0,0-.64,2.08v4.14h-1V57h1v1.31a2.5,2.5,0,0,1,1-1.08,3,3,0,0,1,1.5-.38,3.16,3.16,0,0,1,1.74.48A2.71,2.71,0,0,1,22,58.71a2.53,2.53,0,0,1,1.06-1.39,3.08,3.08,0,0,1,1.7-.49A3,3,0,0,1,27,57.68Z"/><path class="cls-3" d="M36.87,61.17H30.53A3.14,3.14,0,0,0,31,62.66a2.46,2.46,0,0,0,1,.93,2.91,2.91,0,0,0,1.35.31,2.68,2.68,0,0,0,1.6-.46,2.14,2.14,0,0,0,.86-1.24h1A3.27,3.27,0,0,1,35.59,64a3.67,3.67,0,0,1-2.3.71,3.84,3.84,0,0,1-1.93-.48A3.4,3.4,0,0,1,30,62.88a4.81,4.81,0,0,1,0-4.17,3.32,3.32,0,0,1,1.33-1.37,3.91,3.91,0,0,1,1.95-.48,3.71,3.71,0,0,1,1.91.48,3.23,3.23,0,0,1,1.26,1.28,3.7,3.7,0,0,1,.44,1.78A7.24,7.24,0,0,1,36.87,61.17Zm-1.31-2.25a2.3,2.3,0,0,0-1-.91,3,3,0,0,0-1.34-.31,2.73,2.73,0,0,0-1.87.7,2.84,2.84,0,0,0-.85,2h5.38A2.7,2.7,0,0,0,35.56,58.92Z"/><path class="cls-3" d="M38.72,58.72A3.39,3.39,0,0,1,40,57.35a3.59,3.59,0,0,1,1.88-.49,3.52,3.52,0,0,1,1.82.49,3,3,0,0,1,1.19,1.28V54.26h1V64.62h-1V62.91a2.89,2.89,0,0,1-1.15,1.31,3.38,3.38,0,0,1-1.87.51A3.65,3.65,0,0,1,40,64.24a3.53,3.53,0,0,1-1.3-1.38,4.46,4.46,0,0,1-.47-2.08A4.26,4.26,0,0,1,38.72,58.72Zm5.82.45a2.75,2.75,0,0,0-1-1.08,2.8,2.8,0,0,0-1.43-.37,3,3,0,0,0-1.46.36,2.59,2.59,0,0,0-1,1.06,3.39,3.39,0,0,0-.37,1.64,3.46,3.46,0,0,0,.37,1.65,2.64,2.64,0,0,0,1,1.08,3,3,0,0,0,1.46.37,2.81,2.81,0,0,0,1.43-.38,2.62,2.62,0,0,0,1-1.08,3.66,3.66,0,0,0,0-3.25Z"/><path class="cls-3" d="M48.13,55.32a.74.74,0,0,1,0-1,.74.74,0,0,1,1,0,.72.72,0,1,1-1,1Zm1,1.66v7.64h-1V57Z"/><path class="cls-3" d="M51.38,58.72a3.37,3.37,0,0,1,1.3-1.37,3.65,3.65,0,0,1,1.89-.49,3.52,3.52,0,0,1,1.82.49,3,3,0,0,1,1.19,1.28V54.26h1V64.62h-1V62.91a3,3,0,0,1-1.15,1.31,3.41,3.41,0,0,1-1.88.51,3.61,3.61,0,0,1-1.88-.49,3.46,3.46,0,0,1-1.3-1.38,4.46,4.46,0,0,1-.47-2.08A4.26,4.26,0,0,1,51.38,58.72Zm5.82.45a2.71,2.71,0,0,0-2.46-1.45,2.93,2.93,0,0,0-1.46.36,2.61,2.61,0,0,0-1,1.06,3.51,3.51,0,0,0-.37,1.64,3.58,3.58,0,0,0,.37,1.65,2.66,2.66,0,0,0,1,1.08,2.93,2.93,0,0,0,1.46.37,2.81,2.81,0,0,0,1.43-.38,2.68,2.68,0,0,0,1-1.08,3.66,3.66,0,0,0,0-3.25Z"/><path class="cls-3" d="M60.82,58.72a3.37,3.37,0,0,1,1.3-1.37A3.61,3.61,0,0,1,64,56.86a3.42,3.42,0,0,1,1.89.51A3,3,0,0,1,67,58.65V57h1v7.64H67v-1.7a3,3,0,0,1-1.16,1.3,3.39,3.39,0,0,1-1.88.51,3.6,3.6,0,0,1-1.87-.49,3.46,3.46,0,0,1-1.3-1.38,4.46,4.46,0,0,1-.47-2.08A4.38,4.38,0,0,1,60.82,58.72Zm5.83.45a2.71,2.71,0,0,0-2.46-1.45,2.93,2.93,0,0,0-1.46.36,2.61,2.61,0,0,0-1,1.06,3.51,3.51,0,0,0-.37,1.64,3.58,3.58,0,0,0,.37,1.65,2.66,2.66,0,0,0,1,1.08,2.93,2.93,0,0,0,1.46.37,2.81,2.81,0,0,0,1.43-.38,2.68,2.68,0,0,0,1-1.08,3.66,3.66,0,0,0,0-3.25Z"/><path class="cls-3" d="M70.73,64.12a2.18,2.18,0,0,1-.93-1.66h1a1.44,1.44,0,0,0,.61,1,2.42,2.42,0,0,0,1.45.39,1.9,1.9,0,0,0,1.25-.37,1.18,1.18,0,0,0,.45-.94.84.84,0,0,0-.25-.64,1.66,1.66,0,0,0-.64-.4,8.39,8.39,0,0,0-1-.32,10.9,10.9,0,0,1-1.39-.45,2.45,2.45,0,0,1-.9-.66A1.77,1.77,0,0,1,70,58.94a1.73,1.73,0,0,1,.34-1,2.28,2.28,0,0,1,1-.76,3.46,3.46,0,0,1,1.4-.28,3,3,0,0,1,2,.63,2.26,2.26,0,0,1,.81,1.71h-1A1.45,1.45,0,0,0,74,58.12a1.94,1.94,0,0,0-1.32-.42,2,2,0,0,0-1.2.35,1.09,1.09,0,0,0-.19,1.61,1.78,1.78,0,0,0,.68.44,10.67,10.67,0,0,0,1.09.36,8.58,8.58,0,0,1,1.31.44,2.12,2.12,0,0,1,.84.61,1.62,1.62,0,0,1,.37,1.08,1.84,1.84,0,0,1-.34,1.1,2.28,2.28,0,0,1-.93.76,3.26,3.26,0,0,1-1.39.28A3.53,3.53,0,0,1,70.73,64.12Z"/><path class="cls-3" d="M81.25,58.72a3.39,3.39,0,0,1,1.31-1.37,3.61,3.61,0,0,1,1.88-.49,3.49,3.49,0,0,1,1.82.49,3,3,0,0,1,1.19,1.28V54.26h1V64.62h-1V62.91a2.93,2.93,0,0,1-1.14,1.31,3.44,3.44,0,0,1-1.88.51,3.59,3.59,0,0,1-1.88-.49,3.39,3.39,0,0,1-1.3-1.38,4.34,4.34,0,0,1-.47-2.08A4.26,4.26,0,0,1,81.25,58.72Zm5.83.45a2.89,2.89,0,0,0-1-1.08,3,3,0,0,0-2.89,0,2.61,2.61,0,0,0-1,1.06,3.39,3.39,0,0,0-.37,1.64,3.46,3.46,0,0,0,.37,1.65,2.66,2.66,0,0,0,1,1.08,3,3,0,0,0,2.89,0,2.75,2.75,0,0,0,1-1.08,3.75,3.75,0,0,0,0-3.25Z"/><path class="cls-3" d="M97.56,61.17H91.22a3.14,3.14,0,0,0,.42,1.49,2.46,2.46,0,0,0,1,.93A2.91,2.91,0,0,0,94,63.9a2.68,2.68,0,0,0,1.6-.46,2.19,2.19,0,0,0,.86-1.24h1A3.27,3.27,0,0,1,96.28,64a3.67,3.67,0,0,1-2.3.71,3.84,3.84,0,0,1-1.93-.48,3.4,3.4,0,0,1-1.34-1.37,4.81,4.81,0,0,1,0-4.17A3.32,3.32,0,0,1,92,57.34a3.91,3.91,0,0,1,2-.48,3.71,3.71,0,0,1,1.91.48,3.37,3.37,0,0,1,1.26,1.28,3.7,3.7,0,0,1,.44,1.78A7.24,7.24,0,0,1,97.56,61.17Zm-1.31-2.25a2.36,2.36,0,0,0-1-.91,3,3,0,0,0-1.35-.31,2.72,2.72,0,0,0-1.86.7,2.84,2.84,0,0,0-.85,2h5.37A2.7,2.7,0,0,0,96.25,58.92Z"/><path class="cls-3" d="M103.7,64.12a2.18,2.18,0,0,1-.93-1.66h1a1.44,1.44,0,0,0,.61,1,2.41,2.41,0,0,0,1.44.39,1.93,1.93,0,0,0,1.26-.37,1.18,1.18,0,0,0,.45-.94.84.84,0,0,0-.25-.64,1.66,1.66,0,0,0-.64-.4,8.39,8.39,0,0,0-1-.32,10.19,10.19,0,0,1-1.38-.45,2.4,2.4,0,0,1-.91-.66,1.83,1.83,0,0,1-.37-1.18,1.73,1.73,0,0,1,.34-1,2.28,2.28,0,0,1,.95-.76,3.46,3.46,0,0,1,1.4-.28,3,3,0,0,1,2,.63,2.26,2.26,0,0,1,.81,1.71h-1a1.45,1.45,0,0,0-.53-1.08,1.94,1.94,0,0,0-1.32-.42,2,2,0,0,0-1.2.35,1.09,1.09,0,0,0-.19,1.61,1.78,1.78,0,0,0,.68.44,10.67,10.67,0,0,0,1.09.36,9.17,9.17,0,0,1,1.32.44,2.27,2.27,0,0,1,.84.61,1.67,1.67,0,0,1,.36,1.08,1.84,1.84,0,0,1-.34,1.1,2.28,2.28,0,0,1-.93.76,3.26,3.26,0,0,1-1.39.28A3.51,3.51,0,0,1,103.7,64.12Z"/><path class="cls-3" d="M117.25,61.17H110.9a3.14,3.14,0,0,0,.42,1.49,2.55,2.55,0,0,0,1,.93,2.9,2.9,0,0,0,1.34.31,2.66,2.66,0,0,0,1.6-.46,2.16,2.16,0,0,0,.87-1.24h1A3.22,3.22,0,0,1,116,64a3.67,3.67,0,0,1-2.3.71,3.86,3.86,0,0,1-1.93-.48,3.4,3.4,0,0,1-1.34-1.37,4.77,4.77,0,0,1,0-4.17,3.26,3.26,0,0,1,1.33-1.37,3.85,3.85,0,0,1,1.94-.48,3.69,3.69,0,0,1,1.91.48,3.23,3.23,0,0,1,1.26,1.28,3.59,3.59,0,0,1,.44,1.78C117.27,60.74,117.26,61,117.25,61.17Zm-1.31-2.25a2.39,2.39,0,0,0-1-.91,3,3,0,0,0-1.34-.31,2.69,2.69,0,0,0-1.86.7,2.81,2.81,0,0,0-.86,2h5.38A2.79,2.79,0,0,0,115.94,58.92Z"/><path class="cls-3" d="M124.15,57.37a3,3,0,0,1,1.15,1.27V57h1v7.84a3.77,3.77,0,0,1-.46,1.86,3.12,3.12,0,0,1-1.27,1.25,3.82,3.82,0,0,1-1.84.44,4.08,4.08,0,0,1-2.45-.7,3,3,0,0,1-1.21-1.9h1A2.33,2.33,0,0,0,121,67a3,3,0,0,0,1.73.48A2.81,2.81,0,0,0,124,67.2a2.23,2.23,0,0,0,.92-.93,3,3,0,0,0,.34-1.45v-1.9a3.08,3.08,0,0,1-1.16,1.3,3.38,3.38,0,0,1-1.87.51,3.59,3.59,0,0,1-1.88-.49,3.39,3.39,0,0,1-1.3-1.38,4.34,4.34,0,0,1-.47-2.08,4.26,4.26,0,0,1,.47-2.06,3.31,3.31,0,0,1,1.3-1.37,3.59,3.59,0,0,1,1.88-.49A3.41,3.41,0,0,1,124.15,57.37Zm.77,1.8a2.71,2.71,0,0,0-2.47-1.45,2.91,2.91,0,0,0-1.45.36,2.61,2.61,0,0,0-1,1.06,3.51,3.51,0,0,0-.37,1.64,3.58,3.58,0,0,0,.37,1.65,2.66,2.66,0,0,0,1,1.08,2.92,2.92,0,0,0,1.45.37,2.84,2.84,0,0,0,1.44-.38,2.68,2.68,0,0,0,1-1.08,3.66,3.66,0,0,0,0-3.25Z"/><path class="cls-3" d="M135.14,57v7.64h-1V63.28a2.43,2.43,0,0,1-1,1.09,3.28,3.28,0,0,1-1.57.37,3.1,3.1,0,0,1-2.24-.84,3.3,3.3,0,0,1-.87-2.46V57h1v4.35a2.68,2.68,0,0,0,.62,1.9,2.25,2.25,0,0,0,1.71.66,2.3,2.3,0,0,0,1.76-.7,2.9,2.9,0,0,0,.66-2.06V57Z"/><path class="cls-3" d="M139.34,57.23a3.2,3.2,0,0,1,1.63-.4v1h-.26a2.49,2.49,0,0,0-1.71.57,2.45,2.45,0,0,0-.64,1.92v4.27h-1V57h1v1.35A2.38,2.38,0,0,1,139.34,57.23Z"/><path class="cls-3" d="M142.43,55.32a.74.74,0,0,1,0-1,.74.74,0,0,1,1,0,.72.72,0,1,1-1,1Zm1,1.66v7.64h-1V57Z"/><path class="cls-3" d="M145.68,58.72A3.39,3.39,0,0,1,147,57.35a3.59,3.59,0,0,1,1.88-.49,3.52,3.52,0,0,1,1.82.49,3,3,0,0,1,1.19,1.28V54.26h1V64.62h-1V62.91a3,3,0,0,1-1.15,1.31,3.38,3.38,0,0,1-1.87.51,3.65,3.65,0,0,1-1.89-.49,3.46,3.46,0,0,1-1.3-1.38,4.46,4.46,0,0,1-.47-2.08A4.26,4.26,0,0,1,145.68,58.72Zm5.82.45a2.75,2.75,0,0,0-1-1.08,2.8,2.8,0,0,0-1.43-.37,3,3,0,0,0-1.46.36,2.59,2.59,0,0,0-1,1.06,3.39,3.39,0,0,0-.37,1.64,3.46,3.46,0,0,0,.37,1.65,2.64,2.64,0,0,0,1,1.08,3,3,0,0,0,1.46.37,2.81,2.81,0,0,0,1.43-.38,2.62,2.62,0,0,0,1-1.08,3.66,3.66,0,0,0,0-3.25Z"/><path class="cls-3" d="M155.12,58.72a3.37,3.37,0,0,1,1.3-1.37,3.65,3.65,0,0,1,1.89-.49,3.41,3.41,0,0,1,1.88.51,2.86,2.86,0,0,1,1.14,1.28V57h1v7.64h-1v-1.7a3,3,0,0,1-1.16,1.3,3.37,3.37,0,0,1-1.88.51,3.6,3.6,0,0,1-1.87-.49,3.46,3.46,0,0,1-1.3-1.38,4.46,4.46,0,0,1-.47-2.08A4.38,4.38,0,0,1,155.12,58.72Zm5.83.45a2.75,2.75,0,0,0-1-1.08,2.8,2.8,0,0,0-1.43-.37,3,3,0,0,0-1.46.36,2.52,2.52,0,0,0-1,1.06,3.39,3.39,0,0,0-.37,1.64,3.46,3.46,0,0,0,.37,1.65,2.58,2.58,0,0,0,1,1.08,3,3,0,0,0,1.46.37,2.81,2.81,0,0,0,1.43-.38,2.62,2.62,0,0,0,1-1.08,3.66,3.66,0,0,0,0-3.25Z"/><path class="cls-3" d="M164.58,58.72a3.39,3.39,0,0,1,1.31-1.37,3.59,3.59,0,0,1,1.88-.49,3.52,3.52,0,0,1,1.82.49,3,3,0,0,1,1.19,1.28V54.26h1V64.62h-1V62.91a3,3,0,0,1-1.15,1.31,3.4,3.4,0,0,1-1.87.51,3.65,3.65,0,0,1-1.89-.49,3.46,3.46,0,0,1-1.3-1.38,4.46,4.46,0,0,1-.47-2.08A4.26,4.26,0,0,1,164.58,58.72Zm5.82.45a2.75,2.75,0,0,0-1-1.08,2.8,2.8,0,0,0-1.43-.37,3,3,0,0,0-1.46.36,2.52,2.52,0,0,0-1,1.06,3.39,3.39,0,0,0-.37,1.64,3.46,3.46,0,0,0,.37,1.65,2.58,2.58,0,0,0,1,1.08,3,3,0,0,0,1.46.37,2.81,2.81,0,0,0,1.43-.38,2.62,2.62,0,0,0,1-1.08,3.66,3.66,0,0,0,0-3.25Z"/><path class="cls-3" d="M177.86,58.72a3.31,3.31,0,0,1,1.3-1.37,3.59,3.59,0,0,1,1.88-.49,3.37,3.37,0,0,1,1.88.51,2.94,2.94,0,0,1,1.15,1.28V57h1v7.64h-1v-1.7a3.08,3.08,0,0,1-1.16,1.3,3.39,3.39,0,0,1-1.88.51,3.58,3.58,0,0,1-1.87-.49,3.39,3.39,0,0,1-1.3-1.38,4.34,4.34,0,0,1-.47-2.08A4.26,4.26,0,0,1,177.86,58.72Zm5.83.45a2.71,2.71,0,0,0-2.47-1.45,2.91,2.91,0,0,0-1.45.36,2.61,2.61,0,0,0-1,1.06,3.39,3.39,0,0,0-.37,1.64,3.46,3.46,0,0,0,.37,1.65,2.66,2.66,0,0,0,1,1.08,2.92,2.92,0,0,0,1.45.37,2.84,2.84,0,0,0,1.44-.38,2.68,2.68,0,0,0,1-1.08,3.66,3.66,0,0,0,0-3.25Z"/><path class="cls-3" d="M191.6,64.12a2.24,2.24,0,0,1-.93-1.66h1a1.48,1.48,0,0,0,.61,1,2.42,2.42,0,0,0,1.45.39,1.9,1.9,0,0,0,1.25-.37,1.16,1.16,0,0,0,.46-.94.88.88,0,0,0-.25-.64,1.66,1.66,0,0,0-.64-.4,9.64,9.64,0,0,0-1-.32,10.39,10.39,0,0,1-1.39-.45,2.29,2.29,0,0,1-.9-.66,1.93,1.93,0,0,1,0-2.22,2.34,2.34,0,0,1,.95-.76,3.46,3.46,0,0,1,1.4-.28,3,3,0,0,1,2,.63,2.2,2.2,0,0,1,.81,1.71h-1a1.47,1.47,0,0,0-.52-1.08,1.94,1.94,0,0,0-1.32-.42,2,2,0,0,0-1.21.35,1.09,1.09,0,0,0-.19,1.61,1.78,1.78,0,0,0,.68.44c.27.11.64.23,1.09.36a9.17,9.17,0,0,1,1.32.44,2.12,2.12,0,0,1,.84.61,1.67,1.67,0,0,1,.36,1.08,1.9,1.9,0,0,1-.33,1.1,2.38,2.38,0,0,1-.94.76,3.19,3.19,0,0,1-1.39.28A3.55,3.55,0,0,1,191.6,64.12Z"/><path class="cls-3" d="M204.88,57v7.64h-1V63.28a2.41,2.41,0,0,1-1,1.09,3.28,3.28,0,0,1-1.57.37,3.08,3.08,0,0,1-2.24-.84,3.3,3.3,0,0,1-.87-2.46V57h1v4.35a2.68,2.68,0,0,0,.62,1.9,2.23,2.23,0,0,0,1.7.66,2.31,2.31,0,0,0,1.77-.7,2.94,2.94,0,0,0,.65-2.06V57Z"/><path class="cls-3" d="M207.61,64.12a2.22,2.22,0,0,1-.94-1.66h1a1.48,1.48,0,0,0,.61,1,2.42,2.42,0,0,0,1.45.39,2,2,0,0,0,1.26-.37,1.18,1.18,0,0,0,.45-.94.84.84,0,0,0-.25-.64,1.66,1.66,0,0,0-.64-.4,9,9,0,0,0-1-.32,10.9,10.9,0,0,1-1.39-.45,2.45,2.45,0,0,1-.9-.66,1.93,1.93,0,0,1,0-2.22,2.31,2.31,0,0,1,1-.76,3.43,3.43,0,0,1,1.4-.28,3,3,0,0,1,2,.63,2.2,2.2,0,0,1,.81,1.71h-1a1.48,1.48,0,0,0-.53-1.08,1.94,1.94,0,0,0-1.32-.42,2,2,0,0,0-1.21.35,1.09,1.09,0,0,0-.19,1.61,1.86,1.86,0,0,0,.68.44,11,11,0,0,0,1.1.36,9,9,0,0,1,1.31.44,2.12,2.12,0,0,1,.84.61,1.67,1.67,0,0,1,.37,1.08,1.91,1.91,0,0,1-.34,1.1,2.31,2.31,0,0,1-.94.76,3.19,3.19,0,0,1-1.39.28A3.5,3.5,0,0,1,207.61,64.12Z"/><path class="cls-3" d="M223.92,57.68a3.3,3.3,0,0,1,.87,2.46v4.48h-1V60.25a2.64,2.64,0,0,0-.63-1.9,2.21,2.21,0,0,0-1.7-.66,2.28,2.28,0,0,0-1.76.7,2.9,2.9,0,0,0-.66,2.06v4.17h-1V57h1v1.3a2.41,2.41,0,0,1,1-1.07,3.18,3.18,0,0,1,1.55-.38A3.09,3.09,0,0,1,223.92,57.68Z"/><path class="cls-3" d="M233.85,61.17h-6.34a3,3,0,0,0,.42,1.49,2.46,2.46,0,0,0,1,.93,2.9,2.9,0,0,0,1.34.31,2.71,2.71,0,0,0,1.61-.46,2.19,2.19,0,0,0,.86-1.24h1A3.2,3.2,0,0,1,232.57,64a3.68,3.68,0,0,1-2.31.71,3.89,3.89,0,0,1-1.93-.48A3.38,3.38,0,0,1,227,62.88a4.24,4.24,0,0,1-.49-2.08,4.36,4.36,0,0,1,.48-2.09,3.32,3.32,0,0,1,1.33-1.37,3.9,3.9,0,0,1,1.94-.48,3.75,3.75,0,0,1,1.92.48,3.37,3.37,0,0,1,1.26,1.28,3.7,3.7,0,0,1,.44,1.78A7.24,7.24,0,0,1,233.85,61.17Zm-1.31-2.25a2.36,2.36,0,0,0-1-.91,3,3,0,0,0-1.35-.31,2.7,2.7,0,0,0-1.86.7,2.8,2.8,0,0,0-.85,2h5.37A2.7,2.7,0,0,0,232.54,58.92Z"/><path class="cls-3" d="M235.7,58.72A3.33,3.33,0,0,1,237,57.35a3.71,3.71,0,0,1,1.92-.49,3.77,3.77,0,0,1,2.33.7,3.2,3.2,0,0,1,1.19,1.91h-1a2.25,2.25,0,0,0-.85-1.3,2.72,2.72,0,0,0-1.62-.47,2.77,2.77,0,0,0-1.38.35,2.44,2.44,0,0,0-1,1.05,4.3,4.3,0,0,0,0,3.4,2.38,2.38,0,0,0,1,1,2.67,2.67,0,0,0,1.38.35,2.72,2.72,0,0,0,1.62-.46,2.24,2.24,0,0,0,.85-1.31h1a3.24,3.24,0,0,1-1.2,1.89,3.71,3.71,0,0,1-2.32.71,3.8,3.8,0,0,1-1.92-.48,3.33,3.33,0,0,1-1.31-1.37,4.34,4.34,0,0,1-.48-2.08A4.29,4.29,0,0,1,235.7,58.72Z"/><path class="cls-3" d="M251.14,61.17H244.8a3.14,3.14,0,0,0,.42,1.49,2.46,2.46,0,0,0,1,.93,2.91,2.91,0,0,0,1.35.31,2.7,2.7,0,0,0,1.6-.46A2.19,2.19,0,0,0,250,62.2h1a3.27,3.27,0,0,1-1.2,1.82,3.67,3.67,0,0,1-2.3.71,3.9,3.9,0,0,1-1.94-.48,3.38,3.38,0,0,1-1.33-1.37,4.24,4.24,0,0,1-.49-2.08,4.36,4.36,0,0,1,.48-2.09,3.32,3.32,0,0,1,1.33-1.37,3.91,3.91,0,0,1,1.95-.48,3.74,3.74,0,0,1,1.91.48,3.37,3.37,0,0,1,1.26,1.28,3.7,3.7,0,0,1,.44,1.78A7.24,7.24,0,0,1,251.14,61.17Zm-1.31-2.25a2.36,2.36,0,0,0-1-.91,3,3,0,0,0-1.35-.31,2.72,2.72,0,0,0-1.86.7,2.8,2.8,0,0,0-.85,2h5.37A2.7,2.7,0,0,0,249.83,58.92Z"/><path class="cls-3" d="M253.44,64.12a2.24,2.24,0,0,1-.93-1.66h1a1.48,1.48,0,0,0,.61,1,2.42,2.42,0,0,0,1.45.39,1.9,1.9,0,0,0,1.25-.37,1.19,1.19,0,0,0,.46-.94A.85.85,0,0,0,257,62a1.62,1.62,0,0,0-.63-.4,9.23,9.23,0,0,0-1-.32,10.19,10.19,0,0,1-1.38-.45,2.4,2.4,0,0,1-.91-.66,1.83,1.83,0,0,1-.37-1.18,1.79,1.79,0,0,1,.34-1,2.28,2.28,0,0,1,.95-.76,3.46,3.46,0,0,1,1.4-.28,3,3,0,0,1,2,.63,2.26,2.26,0,0,1,.81,1.71h-1a1.47,1.47,0,0,0-.52-1.08,2.28,2.28,0,0,0-2.53-.07,1.09,1.09,0,0,0-.19,1.61,1.78,1.78,0,0,0,.68.44,10.67,10.67,0,0,0,1.09.36,9.17,9.17,0,0,1,1.32.44,2.27,2.27,0,0,1,.84.61,1.67,1.67,0,0,1,.36,1.08,1.9,1.9,0,0,1-.33,1.1,2.38,2.38,0,0,1-.94.76,3.23,3.23,0,0,1-1.39.28A3.53,3.53,0,0,1,253.44,64.12Z"/><path class="cls-3" d="M260.08,55.32a.76.76,0,0,1,0-1,.74.74,0,0,1,.51-.2.7.7,0,0,1,.5.2.74.74,0,0,1,0,1,.67.67,0,0,1-.5.21A.71.71,0,0,1,260.08,55.32Zm1,1.66v7.64h-1V57Z"/><path class="cls-3" d="M263.33,58.72a3.46,3.46,0,0,1,1.31-1.37,3.65,3.65,0,0,1,1.89-.49,3.54,3.54,0,0,1,1.82.49,3,3,0,0,1,1.19,1.28V54.26h1V64.62h-1V62.91a3,3,0,0,1-1.15,1.31,3.41,3.41,0,0,1-1.88.51,3.59,3.59,0,0,1-1.88-.49,3.39,3.39,0,0,1-1.3-1.38,4.79,4.79,0,0,1,0-4.14Zm5.83.45a2.71,2.71,0,0,0-2.47-1.45,2.91,2.91,0,0,0-1.45.36,2.61,2.61,0,0,0-1,1.06,3.51,3.51,0,0,0-.37,1.64,3.58,3.58,0,0,0,.37,1.65,2.66,2.66,0,0,0,1,1.08,2.92,2.92,0,0,0,1.45.37,2.84,2.84,0,0,0,1.44-.38,2.68,2.68,0,0,0,1-1.08,3.66,3.66,0,0,0,0-3.25Z"/><path class="cls-3" d="M272.78,58.72a3.31,3.31,0,0,1,1.3-1.37,3.59,3.59,0,0,1,1.88-.49,3.37,3.37,0,0,1,1.88.51A2.94,2.94,0,0,1,279,58.65V57h1v7.64h-1v-1.7a3.08,3.08,0,0,1-1.16,1.3,3.41,3.41,0,0,1-1.88.51,3.58,3.58,0,0,1-1.87-.49,3.39,3.39,0,0,1-1.3-1.38,4.34,4.34,0,0,1-.47-2.08A4.26,4.26,0,0,1,272.78,58.72Zm5.83.45a2.71,2.71,0,0,0-2.47-1.45,2.91,2.91,0,0,0-1.45.36,2.61,2.61,0,0,0-1,1.06,3.39,3.39,0,0,0-.37,1.64,3.46,3.46,0,0,0,.37,1.65,2.66,2.66,0,0,0,1,1.08,2.92,2.92,0,0,0,1.45.37,2.84,2.84,0,0,0,1.44-.38,2.68,2.68,0,0,0,1-1.08,3.66,3.66,0,0,0,0-3.25Z"/><path class="cls-3" d="M282.23,58.72a3.46,3.46,0,0,1,1.31-1.37,3.64,3.64,0,0,1,1.88-.49,3.55,3.55,0,0,1,1.83.49,3,3,0,0,1,1.18,1.28V54.26h1V64.62h-1V62.91a2.93,2.93,0,0,1-1.14,1.31,3.44,3.44,0,0,1-1.88.51,3.59,3.59,0,0,1-1.88-.49,3.39,3.39,0,0,1-1.3-1.38,4.79,4.79,0,0,1,0-4.14Zm5.83.45a2.71,2.71,0,0,0-2.47-1.45,2.91,2.91,0,0,0-1.45.36,2.61,2.61,0,0,0-1,1.06,3.39,3.39,0,0,0-.37,1.64,3.46,3.46,0,0,0,.37,1.65,2.66,2.66,0,0,0,1,1.08,2.92,2.92,0,0,0,1.45.37A2.84,2.84,0,0,0,287,63.5a2.68,2.68,0,0,0,1-1.08,3.75,3.75,0,0,0,0-3.25Z"/><path class="cls-3" d="M298.54,61.17H292.2a3.14,3.14,0,0,0,.42,1.49,2.46,2.46,0,0,0,1,.93,2.94,2.94,0,0,0,1.35.31,2.68,2.68,0,0,0,1.6-.46,2.14,2.14,0,0,0,.86-1.24h1a3.27,3.27,0,0,1-1.2,1.82,3.67,3.67,0,0,1-2.3.71,3.86,3.86,0,0,1-1.93-.48,3.4,3.4,0,0,1-1.34-1.37,4.34,4.34,0,0,1-.48-2.08,4.47,4.47,0,0,1,.47-2.09A3.32,3.32,0,0,1,293,57.34a3.91,3.91,0,0,1,1.95-.48,3.71,3.71,0,0,1,1.91.48,3.3,3.3,0,0,1,1.26,1.28,3.7,3.7,0,0,1,.44,1.78A7.24,7.24,0,0,1,298.54,61.17Zm-1.31-2.25a2.3,2.3,0,0,0-1-.91,3,3,0,0,0-1.34-.31,2.73,2.73,0,0,0-1.87.7,2.84,2.84,0,0,0-.85,2h5.38A2.7,2.7,0,0,0,297.23,58.92Z"/><path class="cls-3" d="M300.85,64.12a2.18,2.18,0,0,1-.93-1.66h1a1.48,1.48,0,0,0,.61,1,2.42,2.42,0,0,0,1.45.39,1.9,1.9,0,0,0,1.25-.37,1.16,1.16,0,0,0,.46-.94.88.88,0,0,0-.25-.64,1.66,1.66,0,0,0-.64-.4,9,9,0,0,0-1-.32,10.9,10.9,0,0,1-1.39-.45,2.37,2.37,0,0,1-.9-.66,1.93,1.93,0,0,1,0-2.22,2.34,2.34,0,0,1,.95-.76,3.5,3.5,0,0,1,1.4-.28,3,3,0,0,1,2,.63,2.2,2.2,0,0,1,.81,1.71h-1a1.44,1.44,0,0,0-.52-1.08,1.94,1.94,0,0,0-1.32-.42,2,2,0,0,0-1.21.35,1.09,1.09,0,0,0-.46.87,1.05,1.05,0,0,0,.27.74,1.86,1.86,0,0,0,.68.44c.27.11.64.23,1.09.36a9.17,9.17,0,0,1,1.32.44,2.12,2.12,0,0,1,.84.61,1.67,1.67,0,0,1,.37,1.08,1.91,1.91,0,0,1-.34,1.1,2.38,2.38,0,0,1-.94.76,3.18,3.18,0,0,1-1.38.28A3.51,3.51,0,0,1,300.85,64.12Z"/><path class="cls-3" d="M52.43,80.92a2.18,2.18,0,0,1-.93-1.66h1a1.48,1.48,0,0,0,.61,1,2.42,2.42,0,0,0,1.45.39,1.9,1.9,0,0,0,1.25-.37,1.18,1.18,0,0,0,.46-.94.92.92,0,0,0-.25-.65,1.77,1.77,0,0,0-.64-.39,9,9,0,0,0-1-.32A10.9,10.9,0,0,1,53,77.58a2.37,2.37,0,0,1-.9-.66,1.93,1.93,0,0,1,0-2.22,2.34,2.34,0,0,1,1-.76,3.5,3.5,0,0,1,1.4-.28,3,3,0,0,1,2,.63A2.24,2.24,0,0,1,57.17,76h-1a1.44,1.44,0,0,0-.52-1.08,1.94,1.94,0,0,0-1.32-.42,2,2,0,0,0-1.21.35,1.09,1.09,0,0,0-.46.87,1.05,1.05,0,0,0,.27.74,1.86,1.86,0,0,0,.68.44c.27.11.64.23,1.09.36A9.17,9.17,0,0,1,56,77.7a2.12,2.12,0,0,1,.84.61,1.67,1.67,0,0,1,.37,1.08,1.91,1.91,0,0,1-.34,1.1,2.38,2.38,0,0,1-.94.76,3.18,3.18,0,0,1-1.38.28A3.51,3.51,0,0,1,52.43,80.92Z"/><path class="cls-3" d="M66,78H59.63a3.14,3.14,0,0,0,.42,1.49,2.46,2.46,0,0,0,1,.93,2.91,2.91,0,0,0,1.35.31,2.68,2.68,0,0,0,1.6-.46A2.19,2.19,0,0,0,64.85,79h1a3.27,3.27,0,0,1-1.2,1.82,3.67,3.67,0,0,1-2.3.71,3.84,3.84,0,0,1-1.93-.48,3.4,3.4,0,0,1-1.34-1.37,4.72,4.72,0,0,1,0-4.17,3.32,3.32,0,0,1,1.33-1.37,3.91,3.91,0,0,1,2-.48,3.74,3.74,0,0,1,1.91.48,3.37,3.37,0,0,1,1.26,1.28A3.7,3.7,0,0,1,66,77.2,7.24,7.24,0,0,1,66,78Zm-1.31-2.25a2.36,2.36,0,0,0-1-.91,3,3,0,0,0-1.35-.31,2.72,2.72,0,0,0-1.86.7,2.8,2.8,0,0,0-.85,2H65A2.7,2.7,0,0,0,64.66,75.72Z"/><path class="cls-3" d="M72.87,74.17A2.85,2.85,0,0,1,74,75.44V73.78h1v7.83a3.78,3.78,0,0,1-.45,1.87,3.18,3.18,0,0,1-1.27,1.25,3.86,3.86,0,0,1-1.85.44,4,4,0,0,1-2.44-.7,3,3,0,0,1-1.21-1.9h1a2.38,2.38,0,0,0,1,1.27,3,3,0,0,0,1.73.48A2.78,2.78,0,0,0,72.76,84a2.23,2.23,0,0,0,.92-.93A3,3,0,0,0,74,81.61V79.72A3.05,3.05,0,0,1,72.87,81a3.38,3.38,0,0,1-1.87.51A3.65,3.65,0,0,1,69.11,81a3.42,3.42,0,0,1-1.3-1.39,4.77,4.77,0,0,1,0-4.13,3.37,3.37,0,0,1,1.3-1.37A3.65,3.65,0,0,1,71,73.66,3.38,3.38,0,0,1,72.87,74.17Zm.77,1.8a2.75,2.75,0,0,0-1-1.08,2.8,2.8,0,0,0-1.43-.37,3,3,0,0,0-1.46.36,2.59,2.59,0,0,0-1,1.06,3.39,3.39,0,0,0-.37,1.64,3.46,3.46,0,0,0,.37,1.65,2.64,2.64,0,0,0,1,1.08,3,3,0,0,0,1.46.37,2.81,2.81,0,0,0,1.43-.38,2.62,2.62,0,0,0,1-1.08,3.66,3.66,0,0,0,0-3.25Z"/><path class="cls-3" d="M83.86,73.78v7.64h-1V80.07a2.39,2.39,0,0,1-1,1.1,3.28,3.28,0,0,1-1.57.37A3.08,3.08,0,0,1,78,80.7a3.3,3.3,0,0,1-.87-2.46V73.78h1v4.35a2.64,2.64,0,0,0,.62,1.9,2.21,2.21,0,0,0,1.7.66,2.27,2.27,0,0,0,1.76-.7,2.9,2.9,0,0,0,.66-2.06V73.78Zm-2-2.26L79,73.19v-.76l2.87-1.79Z"/><path class="cls-3" d="M91.93,74.48a3.33,3.33,0,0,1,.86,2.46v4.48h-1V77.05a2.68,2.68,0,0,0-.62-1.9,2.25,2.25,0,0,0-1.71-.66,2.3,2.3,0,0,0-1.76.7,2.88,2.88,0,0,0-.66,2.06v4.17h-1V73.78h1v1.3a2.47,2.47,0,0,1,1-1.07,3.22,3.22,0,0,1,1.56-.38A3.1,3.1,0,0,1,91.93,74.48Z"/><path class="cls-3" d="M105.69,78H99.35a2.93,2.93,0,0,0,.42,1.49,2.46,2.46,0,0,0,1,.93,2.9,2.9,0,0,0,1.34.31,2.71,2.71,0,0,0,1.61-.46,2.19,2.19,0,0,0,.86-1.24h1a3.2,3.2,0,0,1-1.19,1.82,3.68,3.68,0,0,1-2.31.71,3.89,3.89,0,0,1-1.93-.48,3.46,3.46,0,0,1-1.34-1.37,4.77,4.77,0,0,1,0-4.17,3.32,3.32,0,0,1,1.33-1.37,3.9,3.9,0,0,1,1.94-.48,3.69,3.69,0,0,1,1.91.48,3.32,3.32,0,0,1,1.27,1.28,3.7,3.7,0,0,1,.44,1.78A7.24,7.24,0,0,1,105.69,78Zm-1.31-2.25a2.36,2.36,0,0,0-1-.91,3,3,0,0,0-1.35-.31,2.69,2.69,0,0,0-1.86.7,2.8,2.8,0,0,0-.85,2h5.37A2.7,2.7,0,0,0,104.38,75.72Z"/><path class="cls-3" d="M108,80.92a2.24,2.24,0,0,1-.93-1.66h1a1.44,1.44,0,0,0,.61,1,2.42,2.42,0,0,0,1.45.39,1.9,1.9,0,0,0,1.25-.37,1.2,1.2,0,0,0,.45-.94.88.88,0,0,0-.25-.65,1.82,1.82,0,0,0-.63-.39,9.23,9.23,0,0,0-1-.32,10.19,10.19,0,0,1-1.38-.45,2.4,2.4,0,0,1-.91-.66,1.83,1.83,0,0,1-.37-1.18,1.73,1.73,0,0,1,.34-1,2.28,2.28,0,0,1,1-.76,3.46,3.46,0,0,1,1.4-.28,3,3,0,0,1,2,.63,2.26,2.26,0,0,1,.81,1.71h-1a1.47,1.47,0,0,0-.52-1.08,2.28,2.28,0,0,0-2.53-.07,1.09,1.09,0,0,0-.19,1.61,1.78,1.78,0,0,0,.68.44,10.67,10.67,0,0,0,1.09.36,9.17,9.17,0,0,1,1.32.44,2.27,2.27,0,0,1,.84.61,1.67,1.67,0,0,1,.36,1.08,1.84,1.84,0,0,1-.34,1.1,2.28,2.28,0,0,1-.93.76,3.23,3.23,0,0,1-1.39.28A3.53,3.53,0,0,1,108,80.92Z"/><path class="cls-3" d="M115.92,74.6v4.75a1.33,1.33,0,0,0,.27,1,1.3,1.3,0,0,0,.94.27H118v.84h-1a1.77,1.77,0,0,1-2-2.07V74.6h-1.07v-.82h1.07V71.86h1v1.92H118v.82Z"/><path class="cls-3" d="M119.65,75.52A3.39,3.39,0,0,1,121,74.15a3.59,3.59,0,0,1,1.88-.49,3.39,3.39,0,0,1,1.88.51,2.86,2.86,0,0,1,1.14,1.28V73.78h1v7.64h-1v-1.7a3.05,3.05,0,0,1-1.15,1.3,3.42,3.42,0,0,1-1.89.51A3.54,3.54,0,0,1,121,81a3.45,3.45,0,0,1-1.31-1.39,4.77,4.77,0,0,1,0-4.13Zm5.83.45a2.79,2.79,0,0,0-1-1.08,2.86,2.86,0,0,0-1.44-.37,3,3,0,0,0-1.46.36,2.59,2.59,0,0,0-1,1.06,3.39,3.39,0,0,0-.37,1.64,3.46,3.46,0,0,0,.37,1.65,2.64,2.64,0,0,0,1,1.08,3,3,0,0,0,1.46.37,2.87,2.87,0,0,0,1.44-.38,2.66,2.66,0,0,0,1-1.08,3.66,3.66,0,0,0,0-3.25Z"/><path class="cls-3" d="M129.57,80.92a2.22,2.22,0,0,1-.94-1.66h1a1.48,1.48,0,0,0,.61,1,2.42,2.42,0,0,0,1.45.39,1.9,1.9,0,0,0,1.25-.37,1.18,1.18,0,0,0,.46-.94.92.92,0,0,0-.25-.65,1.77,1.77,0,0,0-.64-.39,9,9,0,0,0-1-.32,10.39,10.39,0,0,1-1.39-.45,2.37,2.37,0,0,1-.9-.66,1.93,1.93,0,0,1,0-2.22,2.34,2.34,0,0,1,.95-.76,3.46,3.46,0,0,1,1.4-.28,3,3,0,0,1,2,.63A2.2,2.2,0,0,1,134.3,76h-1a1.44,1.44,0,0,0-.52-1.08,1.94,1.94,0,0,0-1.32-.42,2,2,0,0,0-1.21.35,1.09,1.09,0,0,0-.19,1.61,1.78,1.78,0,0,0,.68.44c.27.11.64.23,1.09.36a9.17,9.17,0,0,1,1.32.44,2.12,2.12,0,0,1,.84.61,1.67,1.67,0,0,1,.36,1.08,1.9,1.9,0,0,1-.33,1.1,2.38,2.38,0,0,1-.94.76,3.19,3.19,0,0,1-1.39.28A3.5,3.5,0,0,1,129.57,80.92Z"/><path class="cls-3" d="M142.77,80.47l2.58-6.69h1l-3.07,7.64h-1.11l-3.06-7.64h1Z"/><path class="cls-3" d="M147.74,75.52a3.31,3.31,0,0,1,1.3-1.37,3.59,3.59,0,0,1,1.88-.49,3.37,3.37,0,0,1,1.88.51A2.94,2.94,0,0,1,154,75.45V73.78h1v7.64h-1v-1.7a3.08,3.08,0,0,1-1.16,1.3,3.39,3.39,0,0,1-1.88.51A3.58,3.58,0,0,1,149,81a3.36,3.36,0,0,1-1.3-1.39,4.77,4.77,0,0,1,0-4.13Zm5.83.45a2.71,2.71,0,0,0-2.47-1.45,2.91,2.91,0,0,0-1.45.36,2.61,2.61,0,0,0-1,1.06,3.51,3.51,0,0,0-.37,1.64,3.58,3.58,0,0,0,.37,1.65,2.66,2.66,0,0,0,1,1.08,2.92,2.92,0,0,0,1.45.37,2.84,2.84,0,0,0,1.44-.38,2.68,2.68,0,0,0,1-1.08,3.66,3.66,0,0,0,0-3.25Z"/><path class="cls-3" d="M163.47,73.78,158.93,85h-1l1.48-3.64-3.14-7.6h1.08l2.61,6.52,2.52-6.52Z"/><path class="cls-3" d="M164.82,75.52a3.31,3.31,0,0,1,1.3-1.37,3.59,3.59,0,0,1,1.88-.49,3.37,3.37,0,0,1,1.88.51A2.94,2.94,0,0,1,171,75.45V73.78h1v7.64h-1v-1.7a3.08,3.08,0,0,1-1.16,1.3,3.39,3.39,0,0,1-1.88.51,3.58,3.58,0,0,1-1.87-.49,3.36,3.36,0,0,1-1.3-1.39,4.77,4.77,0,0,1,0-4.13Zm5.83.45a2.71,2.71,0,0,0-2.47-1.45,2.91,2.91,0,0,0-1.45.36,2.61,2.61,0,0,0-1,1.06,3.39,3.39,0,0,0-.37,1.64,3.46,3.46,0,0,0,.37,1.65,2.66,2.66,0,0,0,1,1.08,2.92,2.92,0,0,0,1.45.37,2.84,2.84,0,0,0,1.44-.38,2.68,2.68,0,0,0,1-1.08,3.66,3.66,0,0,0,0-3.25Z"/><path class="cls-3" d="M180.07,74.48a3.3,3.3,0,0,1,.87,2.46v4.48h-1V77.05a2.68,2.68,0,0,0-.62-1.9,2.23,2.23,0,0,0-1.7-.66,2.31,2.31,0,0,0-1.77.7,2.88,2.88,0,0,0-.65,2.06v4.17h-1V73.78h1v1.3a2.45,2.45,0,0,1,1-1.07,3.22,3.22,0,0,1,1.56-.38A3.1,3.1,0,0,1,180.07,74.48Z"/><path class="cls-3" d="M187,75.52a3.42,3.42,0,0,1,1.32-1.37,3.7,3.7,0,0,1,1.91-.49,3.8,3.8,0,0,1,2.34.7,3.19,3.19,0,0,1,1.18,1.91h-1.05a2.13,2.13,0,0,0-.85-1.3,2.7,2.7,0,0,0-1.62-.47,2.77,2.77,0,0,0-1.38.35,2.42,2.42,0,0,0-1,1.05,4.19,4.19,0,0,0,0,3.4,2.36,2.36,0,0,0,1,1,3,3,0,0,0,3-.11,2.15,2.15,0,0,0,.85-1.31h1.05a3.27,3.27,0,0,1-1.19,1.89,3.74,3.74,0,0,1-2.33.71,3.79,3.79,0,0,1-1.91-.48A3.42,3.42,0,0,1,187,79.68a4.34,4.34,0,0,1-.47-2.08A4.29,4.29,0,0,1,187,75.52Z"/><path class="cls-3" d="M195.55,75.52a3.31,3.31,0,0,1,1.3-1.37,3.59,3.59,0,0,1,1.88-.49,3.37,3.37,0,0,1,1.88.51,2.86,2.86,0,0,1,1.14,1.28V73.78h1v7.64h-1v-1.7A3,3,0,0,1,200.6,81a3.41,3.41,0,0,1-1.88.51,3.58,3.58,0,0,1-1.87-.49,3.36,3.36,0,0,1-1.3-1.39,4.77,4.77,0,0,1,0-4.13Zm5.83.45a2.71,2.71,0,0,0-2.47-1.45,2.91,2.91,0,0,0-1.45.36,2.61,2.61,0,0,0-1,1.06,3.39,3.39,0,0,0-.37,1.64,3.46,3.46,0,0,0,.37,1.65,2.66,2.66,0,0,0,1,1.08,2.92,2.92,0,0,0,1.45.37,2.84,2.84,0,0,0,1.44-.38,2.68,2.68,0,0,0,1-1.08,3.75,3.75,0,0,0,0-3.25Z"/><path class="cls-3" d="M216.27,74.48a3.37,3.37,0,0,1,.84,2.46v4.48h-1V77.05a2.68,2.68,0,0,0-.61-1.9,2.09,2.09,0,0,0-1.63-.66,2.24,2.24,0,0,0-1.73.71,3,3,0,0,0-.64,2.08v4.14h-1V77.05a2.73,2.73,0,0,0-.61-1.9,2.12,2.12,0,0,0-1.65-.66,2.22,2.22,0,0,0-1.72.71,3,3,0,0,0-.65,2.08v4.14h-1V73.78h1v1.31A2.47,2.47,0,0,1,207,74a3,3,0,0,1,1.5-.38,3.16,3.16,0,0,1,1.74.48,2.71,2.71,0,0,1,1.09,1.4,2.52,2.52,0,0,1,1.05-1.39,3.11,3.11,0,0,1,1.71-.49A3,3,0,0,1,216.27,74.48Z"/><path class="cls-3" d="M221.42,74.17a3.36,3.36,0,0,1,1.87-.51,3.55,3.55,0,0,1,1.87.49,3.44,3.44,0,0,1,1.3,1.37,4.77,4.77,0,0,1,0,4.13,3.49,3.49,0,0,1-1.3,1.39,3.6,3.6,0,0,1-1.87.49,3.51,3.51,0,0,1-1.89-.5,3,3,0,0,1-1.15-1.29v1.68h-1V71.06h1v4.41A3,3,0,0,1,221.42,74.17Zm4.14,1.77a2.59,2.59,0,0,0-1-1.06,3,3,0,0,0-1.46-.36,2.8,2.8,0,0,0-1.43.37,2.75,2.75,0,0,0-1,1.08,3.66,3.66,0,0,0,0,3.25,2.62,2.62,0,0,0,1,1.08,2.81,2.81,0,0,0,1.43.38,3,3,0,0,0,1.46-.37,2.64,2.64,0,0,0,1-1.08,3.46,3.46,0,0,0,.37-1.65A3.39,3.39,0,0,0,225.56,75.94Z"/><path class="cls-3" d="M228.72,72.12a.74.74,0,0,1,0-1,.74.74,0,0,1,1,0,.72.72,0,1,1-1,1Zm1,1.66v7.64h-1V73.78Z"/><path class="cls-3" d="M232,75.52a3.37,3.37,0,0,1,1.3-1.37,3.61,3.61,0,0,1,1.88-.49,3.42,3.42,0,0,1,1.89.51,3,3,0,0,1,1.14,1.28V73.78h1v7.64h-1v-1.7A3.08,3.08,0,0,1,237,81a3.37,3.37,0,0,1-1.88.51,3.6,3.6,0,0,1-1.87-.49,3.42,3.42,0,0,1-1.3-1.39,4.77,4.77,0,0,1,0-4.13Zm5.83.45a2.71,2.71,0,0,0-2.46-1.45,2.93,2.93,0,0,0-1.46.36,2.61,2.61,0,0,0-1,1.06,3.51,3.51,0,0,0-.37,1.64,3.58,3.58,0,0,0,.37,1.65,2.66,2.66,0,0,0,1,1.08,2.93,2.93,0,0,0,1.46.37,2.81,2.81,0,0,0,1.43-.38,2.68,2.68,0,0,0,1-1.08,3.66,3.66,0,0,0,0-3.25Z"/><path class="cls-3" d="M247.21,74.48a3.3,3.3,0,0,1,.87,2.46v4.48h-1V77.05a2.64,2.64,0,0,0-.62-1.9,2.21,2.21,0,0,0-1.7-.66,2.27,2.27,0,0,0-1.76.7,2.88,2.88,0,0,0-.66,2.06v4.17h-1V73.78h1v1.3a2.41,2.41,0,0,1,1-1.07,3.18,3.18,0,0,1,1.55-.38A3.09,3.09,0,0,1,247.21,74.48Z"/><path class="cls-3" d="M250.28,75.52a3.33,3.33,0,0,1,1.31-1.37,3.59,3.59,0,0,1,1.88-.49,3.52,3.52,0,0,1,1.82.49,3,3,0,0,1,1.19,1.28V71.06h1V81.42h-1V79.71A3,3,0,0,1,255.33,81a3.4,3.4,0,0,1-1.87.51,3.62,3.62,0,0,1-1.89-.49,3.42,3.42,0,0,1-1.3-1.39,4.39,4.39,0,0,1-.47-2.07A4.26,4.26,0,0,1,250.28,75.52Zm5.82.45a2.75,2.75,0,0,0-1-1.08,2.8,2.8,0,0,0-1.43-.37,3,3,0,0,0-1.46.36,2.52,2.52,0,0,0-1,1.06,3.39,3.39,0,0,0-.37,1.64,3.46,3.46,0,0,0,.37,1.65,2.58,2.58,0,0,0,1,1.08,3,3,0,0,0,1.46.37,2.81,2.81,0,0,0,1.43-.38,2.62,2.62,0,0,0,1-1.08,3.66,3.66,0,0,0,0-3.25Z"/><path class="cls-3" d="M261.11,81.05a3.45,3.45,0,0,1-1.36-1.37,4.24,4.24,0,0,1-.5-2.08,4.18,4.18,0,0,1,.5-2.08,3.56,3.56,0,0,1,1.38-1.37,3.83,3.83,0,0,1,1.94-.49,3.93,3.93,0,0,1,2,.49,3.47,3.47,0,0,1,1.37,1.37,4.18,4.18,0,0,1,.5,2.08,4.13,4.13,0,0,1-.51,2.07A3.42,3.42,0,0,1,265,81.05a4,4,0,0,1-2,.48A3.89,3.89,0,0,1,261.11,81.05Zm3.34-.72a2.64,2.64,0,0,0,1-1,3.86,3.86,0,0,0,0-3.4,2.6,2.6,0,0,0-1-1,3.05,3.05,0,0,0-2.8,0,2.52,2.52,0,0,0-1,1,4,4,0,0,0,0,3.4,2.53,2.53,0,0,0,1,1,2.9,2.9,0,0,0,1.39.35A3,3,0,0,0,264.45,80.33Z"/><path class="cls-3" d="M268.34,81.28a.76.76,0,0,1,0-1,.69.69,0,0,1,.51-.2.65.65,0,0,1,.5.2.69.69,0,0,1,.2.51.69.69,0,0,1-.2.52.66.66,0,0,1-.5.21A.69.69,0,0,1,268.34,81.28Z"/><path class="cls-3" d="M35.07,88.43v6.16a2.94,2.94,0,0,0,.7,2.16,2.92,2.92,0,0,0,3.78,0,3,3,0,0,0,.68-2.17V88.43h1v6.15a3.69,3.69,0,0,1-1,2.8,4,4,0,0,1-5.14,0,3.69,3.69,0,0,1-1-2.8V88.43Z"/><path class="cls-3" d="M43.87,97.72a2.24,2.24,0,0,1-.93-1.66h1a1.48,1.48,0,0,0,.61,1,2.42,2.42,0,0,0,1.45.4,1.9,1.9,0,0,0,1.25-.38,1.19,1.19,0,0,0,.46-.94.85.85,0,0,0-.26-.64,1.62,1.62,0,0,0-.63-.4,9.23,9.23,0,0,0-1-.32,10.19,10.19,0,0,1-1.38-.45,2.29,2.29,0,0,1-.9-.66,1.89,1.89,0,0,1,0-2.22,2.28,2.28,0,0,1,.95-.76,3.46,3.46,0,0,1,1.4-.28,3,3,0,0,1,2,.63,2.26,2.26,0,0,1,.81,1.71h-1a1.47,1.47,0,0,0-.52-1.08,2.28,2.28,0,0,0-2.53-.07,1.06,1.06,0,0,0-.46.87,1,1,0,0,0,.27.74,1.78,1.78,0,0,0,.68.44,10.67,10.67,0,0,0,1.09.36,10.61,10.61,0,0,1,1.32.44,2.39,2.39,0,0,1,.84.61,1.67,1.67,0,0,1,.36,1.08,1.9,1.9,0,0,1-.33,1.1,2.38,2.38,0,0,1-.94.76,3.23,3.23,0,0,1-1.39.28A3.53,3.53,0,0,1,43.87,97.72Z"/><path class="cls-3" d="M51.8,91.4v4.75a1.33,1.33,0,0,0,.27,1,1.3,1.3,0,0,0,.94.27h.89v.84h-1a1.77,1.77,0,0,1-2-2.07V91.4H49.75v-.82h1.06V88.66h1v1.92h2.1v.82Z"/><path class="cls-3" d="M62.4,94.78H56.06a3.13,3.13,0,0,0,.42,1.48,2.46,2.46,0,0,0,1,.93,2.92,2.92,0,0,0,1.35.32,2.68,2.68,0,0,0,1.6-.47,2.16,2.16,0,0,0,.86-1.24h1a3.27,3.27,0,0,1-1.2,1.82,3.61,3.61,0,0,1-2.3.71,3.84,3.84,0,0,1-1.93-.48,3.4,3.4,0,0,1-1.34-1.37,4.81,4.81,0,0,1,0-4.17,3.32,3.32,0,0,1,1.33-1.37,3.91,3.91,0,0,1,2-.48,3.71,3.71,0,0,1,1.91.48A3.37,3.37,0,0,1,62,92.22,3.71,3.71,0,0,1,62.43,94,7.51,7.51,0,0,1,62.4,94.78Zm-1.31-2.26a2.36,2.36,0,0,0-1-.91,3,3,0,0,0-1.34-.31,2.73,2.73,0,0,0-1.87.7,2.84,2.84,0,0,0-.85,2h5.38A2.8,2.8,0,0,0,61.09,92.52Z"/><path class="cls-3" d="M64.25,92.32A3.39,3.39,0,0,1,65.56,91a3.59,3.59,0,0,1,1.88-.49,3.52,3.52,0,0,1,1.82.49,3,3,0,0,1,1.19,1.28V87.86h1V98.22h-1V96.51a3,3,0,0,1-1.15,1.31,3.38,3.38,0,0,1-1.87.51,3.65,3.65,0,0,1-1.89-.49,3.53,3.53,0,0,1-1.3-1.38,4.46,4.46,0,0,1-.47-2.08A4.26,4.26,0,0,1,64.25,92.32Zm5.82.45a2.66,2.66,0,0,0-1-1.07,2.71,2.71,0,0,0-1.43-.38,3,3,0,0,0-1.46.36,2.59,2.59,0,0,0-1,1.06,3.39,3.39,0,0,0-.37,1.64A3.46,3.46,0,0,0,65.14,96a2.64,2.64,0,0,0,1,1.08,3,3,0,0,0,1.46.37A2.81,2.81,0,0,0,69,97.1a2.62,2.62,0,0,0,1-1.08,3.66,3.66,0,0,0,0-3.25Z"/><path class="cls-3" d="M79.63,91a3.39,3.39,0,0,1,1.88-.51,3.58,3.58,0,0,1,1.87.49,3.31,3.31,0,0,1,1.3,1.37,4.26,4.26,0,0,1,.47,2.06,4.34,4.34,0,0,1-.47,2.08,3.39,3.39,0,0,1-1.3,1.38,3.58,3.58,0,0,1-1.87.49,3.38,3.38,0,0,1-1.87-.51,3.11,3.11,0,0,1-1.17-1.28v5.29h-1V90.58h1v1.68A3.18,3.18,0,0,1,79.63,91Zm4.16,1.77a2.61,2.61,0,0,0-1-1.06,2.91,2.91,0,0,0-1.45-.36,2.76,2.76,0,0,0-2.47,1.45,3.66,3.66,0,0,0,0,3.25,2.68,2.68,0,0,0,1,1.08,2.82,2.82,0,0,0,1.44.38,2.92,2.92,0,0,0,1.45-.37,2.66,2.66,0,0,0,1-1.08,3.58,3.58,0,0,0,.37-1.65A3.51,3.51,0,0,0,83.79,92.74Z"/><path class="cls-3" d="M93.58,90.58v7.64h-1V96.88a2.34,2.34,0,0,1-1,1.09,3.24,3.24,0,0,1-1.56.38,3.11,3.11,0,0,1-2.25-.85A3.33,3.33,0,0,1,86.89,95V90.58h1v4.35a2.62,2.62,0,0,0,.63,1.9,2.21,2.21,0,0,0,1.7.66,2.3,2.3,0,0,0,1.76-.7,2.9,2.9,0,0,0,.66-2.06V90.58Z"/><path class="cls-3" d="M102.71,94.78H96.36a3.13,3.13,0,0,0,.42,1.48,2.55,2.55,0,0,0,1,.93,2.91,2.91,0,0,0,1.34.32,2.71,2.71,0,0,0,1.61-.47,2.16,2.16,0,0,0,.86-1.24h1a3.2,3.2,0,0,1-1.19,1.82,3.64,3.64,0,0,1-2.31.71,3.86,3.86,0,0,1-1.93-.48,3.46,3.46,0,0,1-1.34-1.37,4.77,4.77,0,0,1,0-4.17,3.26,3.26,0,0,1,1.33-1.37,3.88,3.88,0,0,1,1.94-.48,3.69,3.69,0,0,1,1.91.48,3.23,3.23,0,0,1,1.26,1.28,3.61,3.61,0,0,1,.45,1.79A7.51,7.51,0,0,1,102.71,94.78Zm-1.31-2.26a2.39,2.39,0,0,0-1-.91,3,3,0,0,0-1.34-.31,2.69,2.69,0,0,0-1.86.7,2.85,2.85,0,0,0-.86,2h5.38A2.7,2.7,0,0,0,101.4,92.52Z"/><path class="cls-3" d="M104.55,92.32A3.46,3.46,0,0,1,105.86,91a3.65,3.65,0,0,1,1.89-.49,3.52,3.52,0,0,1,1.82.49,3,3,0,0,1,1.19,1.28V87.86h1V98.22h-1V96.51a3,3,0,0,1-1.15,1.31,3.41,3.41,0,0,1-1.88.51,3.61,3.61,0,0,1-1.88-.49,3.39,3.39,0,0,1-1.3-1.38,4.46,4.46,0,0,1-.47-2.08A4.38,4.38,0,0,1,104.55,92.32Zm5.83.45a2.76,2.76,0,0,0-2.46-1.45,2.93,2.93,0,0,0-1.46.36,2.61,2.61,0,0,0-1,1.06,3.51,3.51,0,0,0-.37,1.64,3.58,3.58,0,0,0,.37,1.65,2.66,2.66,0,0,0,1,1.08,2.93,2.93,0,0,0,1.46.37,2.81,2.81,0,0,0,1.43-.38,2.68,2.68,0,0,0,1-1.08,3.66,3.66,0,0,0,0-3.25Z"/><path class="cls-3" d="M120.86,94.78h-6.34a3.13,3.13,0,0,0,.42,1.48,2.48,2.48,0,0,0,1,.93,2.88,2.88,0,0,0,1.34.32,2.66,2.66,0,0,0,1.6-.47,2.17,2.17,0,0,0,.87-1.24h1a3.27,3.27,0,0,1-1.2,1.82,3.61,3.61,0,0,1-2.3.71,3.86,3.86,0,0,1-1.93-.48A3.4,3.4,0,0,1,114,96.48a4.34,4.34,0,0,1-.48-2.08,4.47,4.47,0,0,1,.47-2.09,3.32,3.32,0,0,1,1.33-1.37,3.91,3.91,0,0,1,2-.48,3.69,3.69,0,0,1,1.91.48,3.23,3.23,0,0,1,1.26,1.28,3.6,3.6,0,0,1,.44,1.79A7.51,7.51,0,0,1,120.86,94.78Zm-1.3-2.26a2.39,2.39,0,0,0-1-.91,3,3,0,0,0-1.34-.31,2.69,2.69,0,0,0-1.86.7,2.81,2.81,0,0,0-.86,2h5.38A2.79,2.79,0,0,0,119.56,92.52Z"/><path class="cls-3" d="M127,97.72a2.24,2.24,0,0,1-.93-1.66h1a1.48,1.48,0,0,0,.61,1,2.42,2.42,0,0,0,1.45.4,1.9,1.9,0,0,0,1.25-.38,1.19,1.19,0,0,0,.46-.94.85.85,0,0,0-.26-.64,1.62,1.62,0,0,0-.63-.4,9.64,9.64,0,0,0-1-.32,9.93,9.93,0,0,1-1.39-.45,2.29,2.29,0,0,1-.9-.66,1.89,1.89,0,0,1,0-2.22,2.28,2.28,0,0,1,1-.76,3.46,3.46,0,0,1,1.4-.28,3,3,0,0,1,2,.63,2.23,2.23,0,0,1,.81,1.71h-1a1.47,1.47,0,0,0-.52-1.08,2,2,0,0,0-1.32-.42,2,2,0,0,0-1.21.35,1.06,1.06,0,0,0-.46.87,1,1,0,0,0,.27.74,1.78,1.78,0,0,0,.68.44,10.67,10.67,0,0,0,1.09.36,10.61,10.61,0,0,1,1.32.44,2.39,2.39,0,0,1,.84.61,1.67,1.67,0,0,1,.36,1.08,1.9,1.9,0,0,1-.33,1.1,2.38,2.38,0,0,1-.94.76,3.23,3.23,0,0,1-1.39.28A3.53,3.53,0,0,1,127,97.72Z"/><path class="cls-3" d="M135.07,97.85a3.45,3.45,0,0,1-1.36-1.37,4.24,4.24,0,0,1-.5-2.08,4.08,4.08,0,0,1,.51-2.08A3.47,3.47,0,0,1,135.09,91a3.86,3.86,0,0,1,1.94-.49,3.93,3.93,0,0,1,2,.49,3.47,3.47,0,0,1,1.37,1.37,4.18,4.18,0,0,1,.5,2.08,4.13,4.13,0,0,1-.51,2.07A3.46,3.46,0,0,1,139,97.85a4,4,0,0,1-2,.48A3.9,3.9,0,0,1,135.07,97.85Zm3.34-.72a2.57,2.57,0,0,0,1-1,3.32,3.32,0,0,0,.4-1.7,3.42,3.42,0,0,0-.39-1.7,2.54,2.54,0,0,0-1-1,3.05,3.05,0,0,0-2.8,0,2.52,2.52,0,0,0-1,1,4,4,0,0,0,0,3.4,2.53,2.53,0,0,0,1,1,3,3,0,0,0,2.8,0Z"/><path class="cls-3" d="M143.63,87.86V98.22h-1V87.86Z"/><path class="cls-3" d="M145.84,88.92a.74.74,0,0,1,0-1,.74.74,0,0,1,1,0,.72.72,0,1,1-1,1Zm1,1.66v7.64h-1V90.58Z"/><path class="cls-3" d="M149.09,92.32A3.39,3.39,0,0,1,150.4,91a3.71,3.71,0,0,1,1.92-.49,3.77,3.77,0,0,1,2.33.7,3.2,3.2,0,0,1,1.19,1.91h-1.05a2.2,2.2,0,0,0-.85-1.3,2.72,2.72,0,0,0-1.62-.47,2.77,2.77,0,0,0-1.38.35,2.5,2.5,0,0,0-1,1,3.79,3.79,0,0,0-.35,1.7,3.86,3.86,0,0,0,.35,1.71,2.47,2.47,0,0,0,1,1,2.68,2.68,0,0,0,1.38.36,2.72,2.72,0,0,0,1.62-.47,2.2,2.2,0,0,0,.85-1.31h1.05a3.27,3.27,0,0,1-1.19,1.89,3.74,3.74,0,0,1-2.33.71,3.8,3.8,0,0,1-1.92-.48,3.39,3.39,0,0,1-1.31-1.37,4.34,4.34,0,0,1-.48-2.08A4.29,4.29,0,0,1,149.09,92.32Z"/><path class="cls-3" d="M157.63,88.92a.74.74,0,0,1,0-1,.74.74,0,0,1,1,0,.72.72,0,1,1-1,1Zm1,1.66v7.64h-1V90.58Z"/><path class="cls-3" d="M162.12,91.4v4.75a1.33,1.33,0,0,0,.27,1,1.3,1.3,0,0,0,.94.27h.89v.84h-1.05a1.77,1.77,0,0,1-2-2.07V91.4h-1.07v-.82h1.07V88.66h1v1.92h2.1v.82Z"/><path class="cls-3" d="M165.85,92.32A3.39,3.39,0,0,1,167.16,91a3.59,3.59,0,0,1,1.88-.49,3.39,3.39,0,0,1,1.88.51,2.83,2.83,0,0,1,1.14,1.29V90.58h1v7.64h-1V96.53a3.09,3.09,0,0,1-1.15,1.29,3.42,3.42,0,0,1-1.89.51,3.54,3.54,0,0,1-1.86-.49,3.48,3.48,0,0,1-1.31-1.38,4.46,4.46,0,0,1-.47-2.08A4.38,4.38,0,0,1,165.85,92.32Zm5.83.45a2.7,2.7,0,0,0-1-1.07,2.77,2.77,0,0,0-1.44-.38,3,3,0,0,0-1.46.36,2.59,2.59,0,0,0-1,1.06,3.39,3.39,0,0,0-.37,1.64,3.46,3.46,0,0,0,.37,1.65,2.64,2.64,0,0,0,1,1.08,3,3,0,0,0,1.46.37,2.87,2.87,0,0,0,1.44-.38,2.66,2.66,0,0,0,1-1.08,3.66,3.66,0,0,0,0-3.25Z"/><path class="cls-3" d="M177.25,90.83a3.17,3.17,0,0,1,1.63-.39v1h-.27A2.15,2.15,0,0,0,176.26,94v4.27h-1V90.58h1v1.35A2.46,2.46,0,0,1,177.25,90.83Z"/><path class="cls-3" d="M185.17,87.86V98.22h-1V87.86Z"/><path class="cls-3" d="M188.8,97.85a3.51,3.51,0,0,1-1.36-1.37,4.24,4.24,0,0,1-.5-2.08,4.08,4.08,0,0,1,.51-2.08A3.47,3.47,0,0,1,188.82,91a4.13,4.13,0,0,1,3.9,0,3.47,3.47,0,0,1,1.37,1.37,4.18,4.18,0,0,1,.5,2.08,4.13,4.13,0,0,1-.51,2.07,3.4,3.4,0,0,1-1.38,1.38,4,4,0,0,1-2,.48A3.9,3.9,0,0,1,188.8,97.85Zm3.34-.72a2.51,2.51,0,0,0,1-1,3.32,3.32,0,0,0,.4-1.7,3.42,3.42,0,0,0-.39-1.7,2.54,2.54,0,0,0-1-1,3.05,3.05,0,0,0-2.8,0,2.52,2.52,0,0,0-1,1,4,4,0,0,0,0,3.4,2.53,2.53,0,0,0,1,1,3,3,0,0,0,2.8,0Z"/><path class="cls-3" d="M196.86,97.72a2.24,2.24,0,0,1-.93-1.66h1a1.48,1.48,0,0,0,.61,1,2.42,2.42,0,0,0,1.45.4,1.9,1.9,0,0,0,1.25-.38,1.19,1.19,0,0,0,.46-.94.85.85,0,0,0-.26-.64,1.62,1.62,0,0,0-.63-.4,9.23,9.23,0,0,0-1-.32,10.19,10.19,0,0,1-1.38-.45,2.29,2.29,0,0,1-.9-.66,1.89,1.89,0,0,1,0-2.22,2.28,2.28,0,0,1,1-.76,3.46,3.46,0,0,1,1.4-.28,3,3,0,0,1,2,.63,2.26,2.26,0,0,1,.81,1.71h-1a1.47,1.47,0,0,0-.52-1.08,2.28,2.28,0,0,0-2.53-.07,1.06,1.06,0,0,0-.46.87,1,1,0,0,0,.27.74,1.78,1.78,0,0,0,.68.44,10.67,10.67,0,0,0,1.09.36,10.61,10.61,0,0,1,1.32.44,2.39,2.39,0,0,1,.84.61,1.67,1.67,0,0,1,.36,1.08,1.9,1.9,0,0,1-.33,1.1,2.38,2.38,0,0,1-.94.76,3.23,3.23,0,0,1-1.39.28A3.53,3.53,0,0,1,196.86,97.72Z"/><path class="cls-3" d="M207.84,97.72a2.18,2.18,0,0,1-.93-1.66h1a1.46,1.46,0,0,0,.6,1,2.44,2.44,0,0,0,1.45.4,1.93,1.93,0,0,0,1.26-.38,1.18,1.18,0,0,0,.45-.94.84.84,0,0,0-.25-.64,1.66,1.66,0,0,0-.64-.4,8.39,8.39,0,0,0-1-.32,10.9,10.9,0,0,1-1.39-.45,2.45,2.45,0,0,1-.9-.66,1.77,1.77,0,0,1-.37-1.18,1.73,1.73,0,0,1,.34-1,2.28,2.28,0,0,1,.95-.76,3.43,3.43,0,0,1,1.4-.28,3,3,0,0,1,2,.63,2.26,2.26,0,0,1,.81,1.71h-1a1.45,1.45,0,0,0-.53-1.08,2.26,2.26,0,0,0-2.52-.07,1.08,1.08,0,0,0-.47.87,1,1,0,0,0,.28.74,1.71,1.71,0,0,0,.68.44,10.67,10.67,0,0,0,1.09.36,9.85,9.85,0,0,1,1.31.44,2.22,2.22,0,0,1,.84.61,1.62,1.62,0,0,1,.37,1.08,1.84,1.84,0,0,1-.34,1.1,2.31,2.31,0,0,1-.94.76,3.18,3.18,0,0,1-1.38.28A3.51,3.51,0,0,1,207.84,97.72Z"/><path class="cls-3" d="M221.38,94.78H215a3.13,3.13,0,0,0,.42,1.48,2.42,2.42,0,0,0,1,.93,2.88,2.88,0,0,0,1.34.32,2.68,2.68,0,0,0,1.6-.47,2.11,2.11,0,0,0,.86-1.24h1a3.27,3.27,0,0,1-1.2,1.82,3.61,3.61,0,0,1-2.3.71,3.86,3.86,0,0,1-1.93-.48,3.4,3.4,0,0,1-1.34-1.37,4.34,4.34,0,0,1-.48-2.08,4.47,4.47,0,0,1,.47-2.09,3.32,3.32,0,0,1,1.33-1.37,3.91,3.91,0,0,1,2-.48,3.69,3.69,0,0,1,1.91.48A3.23,3.23,0,0,1,221,92.22a3.71,3.71,0,0,1,.44,1.79A7.51,7.51,0,0,1,221.38,94.78Zm-1.3-2.26a2.39,2.39,0,0,0-1-.91,3,3,0,0,0-1.34-.31,2.69,2.69,0,0,0-1.86.7,2.81,2.81,0,0,0-.86,2h5.38A2.79,2.79,0,0,0,220.08,92.52Z"/><path class="cls-3" d="M225.17,90.83a3.17,3.17,0,0,1,1.63-.39v1h-.26a2.49,2.49,0,0,0-1.71.57,2.46,2.46,0,0,0-.65,1.92v4.27h-1V90.58h1v1.35A2.46,2.46,0,0,1,225.17,90.83Z"/><path class="cls-3" d="M231,97.27l2.57-6.69h1l-3.07,7.64h-1.1l-3.07-7.64h1Z"/><path class="cls-3" d="M235.92,88.92a.71.71,0,1,1,1,0,.7.7,0,0,1-1,0Zm1,1.66v7.64h-1V90.58Z"/><path class="cls-3" d="M239.16,92.32A3.42,3.42,0,0,1,240.48,91a3.71,3.71,0,0,1,1.92-.49,3.77,3.77,0,0,1,2.33.7,3.19,3.19,0,0,1,1.18,1.91h-1a2.16,2.16,0,0,0-.85-1.3,2.69,2.69,0,0,0-1.61-.47,2.79,2.79,0,0,0-1.39.35,2.48,2.48,0,0,0-1,1,3.65,3.65,0,0,0-.36,1.7,3.72,3.72,0,0,0,.36,1.71,2.45,2.45,0,0,0,1,1,2.93,2.93,0,0,0,3-.11,2.15,2.15,0,0,0,.85-1.31h1a3.22,3.22,0,0,1-1.19,1.89,3.71,3.71,0,0,1-2.32.71,3.8,3.8,0,0,1-1.92-.48,3.42,3.42,0,0,1-1.32-1.37,4.46,4.46,0,0,1-.47-2.08A4.4,4.4,0,0,1,239.16,92.32Z"/><path class="cls-3" d="M247.7,88.92a.74.74,0,0,1,0-1,.74.74,0,0,1,1,0,.72.72,0,1,1-1,1Zm1,1.66v7.64h-1V90.58Z"/><path class="cls-3" d="M252.33,97.85A3.51,3.51,0,0,1,251,96.48a4.24,4.24,0,0,1-.49-2.08,4.08,4.08,0,0,1,.5-2.08A3.54,3.54,0,0,1,252.35,91a4.13,4.13,0,0,1,3.9,0,3.47,3.47,0,0,1,1.37,1.37,4.18,4.18,0,0,1,.5,2.08,4.23,4.23,0,0,1-.5,2.07,3.48,3.48,0,0,1-1.39,1.38,4,4,0,0,1-2,.48A3.93,3.93,0,0,1,252.33,97.85Zm3.34-.72a2.51,2.51,0,0,0,1-1,3.32,3.32,0,0,0,.4-1.7,3.42,3.42,0,0,0-.39-1.7,2.54,2.54,0,0,0-1-1,3.05,3.05,0,0,0-2.8,0,2.52,2.52,0,0,0-1,1,4,4,0,0,0,0,3.4,2.49,2.49,0,0,0,1,1,2.87,2.87,0,0,0,1.39.35A2.94,2.94,0,0,0,255.67,97.13Z"/><path class="cls-3" d="M260.39,97.72a2.24,2.24,0,0,1-.93-1.66h1a1.48,1.48,0,0,0,.61,1,2.42,2.42,0,0,0,1.45.4,1.9,1.9,0,0,0,1.25-.38,1.19,1.19,0,0,0,.46-.94.88.88,0,0,0-.25-.64,1.74,1.74,0,0,0-.64-.4,9.64,9.64,0,0,0-1-.32,10.39,10.39,0,0,1-1.39-.45,2.29,2.29,0,0,1-.9-.66,1.93,1.93,0,0,1,0-2.22,2.34,2.34,0,0,1,.95-.76,3.46,3.46,0,0,1,1.4-.28,3,3,0,0,1,2,.63,2.2,2.2,0,0,1,.81,1.71h-1a1.44,1.44,0,0,0-.52-1.08,1.94,1.94,0,0,0-1.32-.42,2,2,0,0,0-1.21.35,1.06,1.06,0,0,0-.46.87,1,1,0,0,0,.27.74,1.78,1.78,0,0,0,.68.44c.27.11.64.23,1.09.36a10.61,10.61,0,0,1,1.32.44,2.22,2.22,0,0,1,.84.61,1.67,1.67,0,0,1,.36,1.08,1.9,1.9,0,0,1-.33,1.1,2.38,2.38,0,0,1-.94.76,3.19,3.19,0,0,1-1.39.28A3.55,3.55,0,0,1,260.39,97.72Z"/><path class="cls-3" d="M270.92,92.32a3.37,3.37,0,0,1,1.3-1.37,3.65,3.65,0,0,1,1.89-.49,3.52,3.52,0,0,1,1.82.49,3,3,0,0,1,1.19,1.28V87.86h1V98.22h-1V96.51A3,3,0,0,1,276,97.82a3.41,3.41,0,0,1-1.88.51,3.61,3.61,0,0,1-1.88-.49,3.46,3.46,0,0,1-1.3-1.38,4.46,4.46,0,0,1-.47-2.08A4.26,4.26,0,0,1,270.92,92.32Zm5.82.45a2.76,2.76,0,0,0-2.46-1.45,2.93,2.93,0,0,0-1.46.36,2.61,2.61,0,0,0-1,1.06,3.51,3.51,0,0,0-.37,1.64A3.58,3.58,0,0,0,271.8,96a2.66,2.66,0,0,0,1,1.08,2.93,2.93,0,0,0,1.46.37,2.81,2.81,0,0,0,1.43-.38,2.68,2.68,0,0,0,1-1.08,3.66,3.66,0,0,0,0-3.25Z"/><path class="cls-3" d="M287.23,94.78h-6.35a3.13,3.13,0,0,0,.42,1.48,2.55,2.55,0,0,0,1,.93,2.91,2.91,0,0,0,1.34.32,2.66,2.66,0,0,0,1.6-.47,2.13,2.13,0,0,0,.87-1.24h1a3.22,3.22,0,0,1-1.2,1.82,3.59,3.59,0,0,1-2.3.71,3.86,3.86,0,0,1-1.93-.48,3.4,3.4,0,0,1-1.34-1.37,4.77,4.77,0,0,1,0-4.17,3.26,3.26,0,0,1,1.33-1.37,3.85,3.85,0,0,1,1.94-.48,3.69,3.69,0,0,1,1.91.48,3.23,3.23,0,0,1,1.26,1.28,3.6,3.6,0,0,1,.44,1.79C287.25,94.34,287.24,94.6,287.23,94.78Zm-1.31-2.26a2.39,2.39,0,0,0-1-.91,3,3,0,0,0-1.34-.31,2.69,2.69,0,0,0-1.86.7,2.81,2.81,0,0,0-.86,2h5.38A2.79,2.79,0,0,0,285.92,92.52Z"/><path class="cls-3" d="M32.64,114.52a2.24,2.24,0,0,1-.93-1.66h1a1.48,1.48,0,0,0,.61,1,2.42,2.42,0,0,0,1.45.4,1.9,1.9,0,0,0,1.25-.38,1.19,1.19,0,0,0,.46-.94.88.88,0,0,0-.25-.64,1.74,1.74,0,0,0-.64-.4,9.64,9.64,0,0,0-1-.32,10.39,10.39,0,0,1-1.39-.45,2.29,2.29,0,0,1-.9-.66,1.93,1.93,0,0,1,0-2.22,2.34,2.34,0,0,1,1-.76,3.46,3.46,0,0,1,1.4-.28,3,3,0,0,1,2,.63,2.2,2.2,0,0,1,.81,1.71h-1a1.44,1.44,0,0,0-.52-1.08,1.94,1.94,0,0,0-1.32-.42,2,2,0,0,0-1.21.35,1.09,1.09,0,0,0-.19,1.61,1.78,1.78,0,0,0,.68.44c.27.11.64.23,1.09.36a9.17,9.17,0,0,1,1.32.44,2.22,2.22,0,0,1,.84.61,1.67,1.67,0,0,1,.36,1.08,1.9,1.9,0,0,1-.33,1.1,2.38,2.38,0,0,1-.94.76,3.19,3.19,0,0,1-1.39.28A3.55,3.55,0,0,1,32.64,114.52Z"/><path class="cls-3" d="M46.19,111.57H39.85a3.14,3.14,0,0,0,.42,1.49,2.46,2.46,0,0,0,1,.93,2.92,2.92,0,0,0,1.35.32,2.7,2.7,0,0,0,1.6-.47,2.19,2.19,0,0,0,.86-1.24h1a3.27,3.27,0,0,1-1.2,1.82,3.61,3.61,0,0,1-2.3.71,3.9,3.9,0,0,1-1.94-.48,3.38,3.38,0,0,1-1.33-1.37,4.24,4.24,0,0,1-.49-2.08,4.36,4.36,0,0,1,.48-2.09,3.32,3.32,0,0,1,1.33-1.37,3.91,3.91,0,0,1,2-.48,3.74,3.74,0,0,1,1.91.48A3.37,3.37,0,0,1,45.78,109a3.71,3.71,0,0,1,.44,1.79A7.16,7.16,0,0,1,46.19,111.57Zm-1.31-2.25a2.36,2.36,0,0,0-1-.91,3,3,0,0,0-1.35-.31,2.69,2.69,0,0,0-1.86.7,2.8,2.8,0,0,0-.85,2h5.37A2.7,2.7,0,0,0,44.88,109.32Z"/><path class="cls-3" d="M53.09,107.77A2.91,2.91,0,0,1,54.24,109v-1.66h1v7.84a3.67,3.67,0,0,1-.46,1.86,3.1,3.1,0,0,1-1.26,1.25,3.86,3.86,0,0,1-1.85.44,4,4,0,0,1-2.44-.7,2.94,2.94,0,0,1-1.21-1.9h1a2.38,2.38,0,0,0,1,1.27,3,3,0,0,0,1.73.48A2.78,2.78,0,0,0,53,117.6a2.23,2.23,0,0,0,.92-.93,2.91,2.91,0,0,0,.34-1.45v-1.9a3,3,0,0,1-1.16,1.3,3.35,3.35,0,0,1-1.86.51,3.65,3.65,0,0,1-1.89-.49,3.46,3.46,0,0,1-1.3-1.38,4.46,4.46,0,0,1-.47-2.08,4.38,4.38,0,0,1,.47-2.06,3.37,3.37,0,0,1,1.3-1.37,3.65,3.65,0,0,1,1.89-.49A3.4,3.4,0,0,1,53.09,107.77Zm.77,1.8a2.75,2.75,0,0,0-1-1.08,2.8,2.8,0,0,0-1.43-.37,3,3,0,0,0-1.46.36,2.52,2.52,0,0,0-1,1.06,3.39,3.39,0,0,0-.37,1.64,3.46,3.46,0,0,0,.37,1.65,2.58,2.58,0,0,0,1,1.08,3,3,0,0,0,1.46.37,2.81,2.81,0,0,0,1.43-.38,2.62,2.62,0,0,0,1-1.08,3.66,3.66,0,0,0,0-3.25Z"/><path class="cls-3" d="M64.08,107.38V115h-1v-1.34a2.36,2.36,0,0,1-1,1.09,3.28,3.28,0,0,1-1.57.38,3.09,3.09,0,0,1-2.24-.85,3.3,3.3,0,0,1-.87-2.46v-4.46h1v4.35a2.62,2.62,0,0,0,.62,1.9,2.21,2.21,0,0,0,1.7.66,2.28,2.28,0,0,0,1.76-.7,2.9,2.9,0,0,0,.66-2.06v-4.15Z"/><path class="cls-3" d="M68.29,107.63a3.17,3.17,0,0,1,1.63-.39v1h-.27a2.15,2.15,0,0,0-2.35,2.49V115h-1v-7.64h1v1.35A2.4,2.4,0,0,1,68.29,107.63Z"/><path class="cls-3" d="M71.38,105.72a.74.74,0,0,1,0-1,.69.69,0,0,1,.5-.2.7.7,0,0,1,.5.2.74.74,0,0,1,0,1,.67.67,0,0,1-.5.21A.66.66,0,0,1,71.38,105.72Zm1,1.66V115h-1v-7.64Z"/><path class="cls-3" d="M74.62,109.12a3.46,3.46,0,0,1,1.31-1.37,3.65,3.65,0,0,1,1.89-.49,3.54,3.54,0,0,1,1.82.49A3,3,0,0,1,80.83,109v-4.37h1V115h-1v-1.71a3,3,0,0,1-1.15,1.31,3.41,3.41,0,0,1-1.88.51,3.59,3.59,0,0,1-1.88-.49,3.39,3.39,0,0,1-1.3-1.38,4.79,4.79,0,0,1,0-4.14Zm5.83.45A2.71,2.71,0,0,0,78,108.12a2.91,2.91,0,0,0-1.45.36,2.61,2.61,0,0,0-1,1.06,3.39,3.39,0,0,0-.37,1.64,3.46,3.46,0,0,0,.37,1.65,2.66,2.66,0,0,0,1,1.08,2.92,2.92,0,0,0,1.45.37,2.84,2.84,0,0,0,1.44-.38,2.68,2.68,0,0,0,1-1.08,3.66,3.66,0,0,0,0-3.25Z"/><path class="cls-3" d="M84.07,109.12a3.31,3.31,0,0,1,1.3-1.37,3.59,3.59,0,0,1,1.88-.49,3.37,3.37,0,0,1,1.88.51,2.83,2.83,0,0,1,1.14,1.29v-1.68h1V115h-1v-1.7a3,3,0,0,1-1.15,1.3,3.41,3.41,0,0,1-1.88.51,3.58,3.58,0,0,1-1.87-.49,3.39,3.39,0,0,1-1.3-1.38,4.34,4.34,0,0,1-.47-2.08A4.26,4.26,0,0,1,84.07,109.12Zm5.83.45a2.71,2.71,0,0,0-2.47-1.45,2.91,2.91,0,0,0-1.45.36,2.61,2.61,0,0,0-1,1.06,3.39,3.39,0,0,0-.37,1.64,3.46,3.46,0,0,0,.37,1.65,2.66,2.66,0,0,0,1,1.08,2.92,2.92,0,0,0,1.45.37,2.84,2.84,0,0,0,1.44-.38,2.68,2.68,0,0,0,1-1.08,3.75,3.75,0,0,0,0-3.25Z"/><path class="cls-3" d="M93.52,109.12a3.46,3.46,0,0,1,1.31-1.37,3.61,3.61,0,0,1,1.88-.49,3.49,3.49,0,0,1,1.82.49A2.93,2.93,0,0,1,99.72,109v-4.37h1V115h-1v-1.71a2.93,2.93,0,0,1-1.14,1.31,3.44,3.44,0,0,1-1.88.51,3.59,3.59,0,0,1-1.88-.49,3.39,3.39,0,0,1-1.3-1.38,4.79,4.79,0,0,1,0-4.14Zm5.83.45a2.89,2.89,0,0,0-1-1.08,2.83,2.83,0,0,0-1.44-.37,2.91,2.91,0,0,0-1.45.36,2.61,2.61,0,0,0-1,1.06,3.39,3.39,0,0,0-.37,1.64,3.46,3.46,0,0,0,.37,1.65,2.66,2.66,0,0,0,1,1.08,2.92,2.92,0,0,0,1.45.37,2.84,2.84,0,0,0,1.44-.38,2.75,2.75,0,0,0,1-1.08,3.75,3.75,0,0,0,0-3.25Z"/><path class="cls-3" d="M106.8,109.12a3.37,3.37,0,0,1,1.3-1.37,3.65,3.65,0,0,1,1.89-.49,3.41,3.41,0,0,1,1.88.51,2.83,2.83,0,0,1,1.14,1.29v-1.68h1V115h-1v-1.7a3,3,0,0,1-1.16,1.3,3.37,3.37,0,0,1-1.88.51,3.6,3.6,0,0,1-1.87-.49,3.46,3.46,0,0,1-1.3-1.38,4.46,4.46,0,0,1-.47-2.08A4.38,4.38,0,0,1,106.8,109.12Zm5.83.45a2.75,2.75,0,0,0-1-1.08,2.8,2.8,0,0,0-1.43-.37,3,3,0,0,0-1.46.36,2.52,2.52,0,0,0-1,1.06,3.39,3.39,0,0,0-.37,1.64,3.46,3.46,0,0,0,.37,1.65,2.58,2.58,0,0,0,1,1.08,3,3,0,0,0,1.46.37,2.81,2.81,0,0,0,1.43-.38,2.62,2.62,0,0,0,1-1.08,3.66,3.66,0,0,0,0-3.25Z"/><path class="cls-3" d="M131.36,108.08a3.37,3.37,0,0,1,.84,2.46V115h-1v-4.37a2.72,2.72,0,0,0-.6-1.9,2.12,2.12,0,0,0-1.64-.66,2.22,2.22,0,0,0-1.72.71,3,3,0,0,0-.65,2.08V115h-1v-4.37a2.73,2.73,0,0,0-.61-1.9,2.12,2.12,0,0,0-1.65-.66,2.22,2.22,0,0,0-1.72.71,3,3,0,0,0-.64,2.08V115h-1v-7.64h1v1.31a2.45,2.45,0,0,1,1-1.08,3,3,0,0,1,1.5-.37,3.15,3.15,0,0,1,1.74.47,2.71,2.71,0,0,1,1.09,1.4,2.57,2.57,0,0,1,1-1.39,3.1,3.1,0,0,1,1.71-.48A3,3,0,0,1,131.36,108.08Z"/><path class="cls-3" d="M141.26,111.57h-6.34a3.14,3.14,0,0,0,.42,1.49,2.46,2.46,0,0,0,1,.93,2.92,2.92,0,0,0,1.35.32,2.68,2.68,0,0,0,1.6-.47,2.19,2.19,0,0,0,.86-1.24h1a3.27,3.27,0,0,1-1.2,1.82,3.61,3.61,0,0,1-2.3.71,3.84,3.84,0,0,1-1.93-.48,3.4,3.4,0,0,1-1.34-1.37,4.72,4.72,0,0,1,0-4.17,3.32,3.32,0,0,1,1.33-1.37,3.91,3.91,0,0,1,2-.48,3.71,3.71,0,0,1,1.91.48,3.37,3.37,0,0,1,1.26,1.28,3.71,3.71,0,0,1,.44,1.79A7.16,7.16,0,0,1,141.26,111.57ZM140,109.32a2.36,2.36,0,0,0-1-.91,3,3,0,0,0-1.34-.31,2.73,2.73,0,0,0-1.87.7,2.84,2.84,0,0,0-.85,2h5.38A2.8,2.8,0,0,0,140,109.32Z"/><path class="cls-3" d="M143.11,109.12a3.39,3.39,0,0,1,1.31-1.37,3.59,3.59,0,0,1,1.88-.49,3.52,3.52,0,0,1,1.82.49,3,3,0,0,1,1.19,1.28v-4.37h1V115h-1v-1.71a2.89,2.89,0,0,1-1.15,1.31,3.38,3.38,0,0,1-1.87.51,3.65,3.65,0,0,1-1.89-.49,3.53,3.53,0,0,1-1.3-1.38,4.46,4.46,0,0,1-.47-2.08A4.26,4.26,0,0,1,143.11,109.12Zm5.82.45a2.75,2.75,0,0,0-1-1.08,2.8,2.8,0,0,0-1.43-.37,3,3,0,0,0-1.46.36,2.59,2.59,0,0,0-1,1.06,3.39,3.39,0,0,0-.37,1.64,3.46,3.46,0,0,0,.37,1.65,2.64,2.64,0,0,0,1,1.08,3,3,0,0,0,1.46.37,2.81,2.81,0,0,0,1.43-.38,2.62,2.62,0,0,0,1-1.08,3.66,3.66,0,0,0,0-3.25Z"/><path class="cls-3" d="M152.52,105.72a.74.74,0,0,1,0-1,.72.72,0,0,1,.5-.2.69.69,0,0,1,.5.2.71.71,0,0,1,0,1,.66.66,0,0,1-.5.21A.69.69,0,0,1,152.52,105.72Zm1,1.66V115h-1v-7.64Z"/><path class="cls-3" d="M155.76,109.12a3.46,3.46,0,0,1,1.31-1.37,3.65,3.65,0,0,1,1.89-.49,3.52,3.52,0,0,1,1.82.49A3,3,0,0,1,162,109v-4.37h1V115h-1v-1.71a3,3,0,0,1-1.15,1.31,3.41,3.41,0,0,1-1.88.51,3.61,3.61,0,0,1-1.88-.49,3.39,3.39,0,0,1-1.3-1.38,4.46,4.46,0,0,1-.47-2.08A4.38,4.38,0,0,1,155.76,109.12Zm5.83.45a2.71,2.71,0,0,0-2.46-1.45,2.93,2.93,0,0,0-1.46.36,2.61,2.61,0,0,0-1,1.06,3.51,3.51,0,0,0-.37,1.64,3.58,3.58,0,0,0,.37,1.65,2.66,2.66,0,0,0,1,1.08,2.93,2.93,0,0,0,1.46.37,2.81,2.81,0,0,0,1.43-.38,2.68,2.68,0,0,0,1-1.08,3.66,3.66,0,0,0,0-3.25Z"/><path class="cls-3" d="M165.21,109.12a3.31,3.31,0,0,1,1.3-1.37,3.61,3.61,0,0,1,1.88-.49,3.42,3.42,0,0,1,1.89.51,3,3,0,0,1,1.14,1.29v-1.68h1V115h-1v-1.7a3.08,3.08,0,0,1-1.16,1.3,3.39,3.39,0,0,1-1.88.51,3.6,3.6,0,0,1-1.87-.49,3.39,3.39,0,0,1-1.3-1.38,4.46,4.46,0,0,1-.47-2.08A4.38,4.38,0,0,1,165.21,109.12Zm5.83.45a2.71,2.71,0,0,0-2.46-1.45,2.93,2.93,0,0,0-1.46.36,2.61,2.61,0,0,0-1,1.06,3.51,3.51,0,0,0-.37,1.64,3.58,3.58,0,0,0,.37,1.65,2.66,2.66,0,0,0,1,1.08,2.93,2.93,0,0,0,1.46.37,2.81,2.81,0,0,0,1.43-.38,2.68,2.68,0,0,0,1-1.08,3.66,3.66,0,0,0,0-3.25Z"/><path class="cls-3" d="M178.5,109.12a3.39,3.39,0,0,1,1.31-1.37,3.59,3.59,0,0,1,1.88-.49,3.41,3.41,0,0,1,1.88.51,2.85,2.85,0,0,1,1.13,1.29v-1.68h1v11.25h-1v-5.29a2.84,2.84,0,0,1-1.14,1.28,3.47,3.47,0,0,1-1.89.51,3.55,3.55,0,0,1-1.87-.49,3.48,3.48,0,0,1-1.31-1.38,4.46,4.46,0,0,1-.47-2.08A4.26,4.26,0,0,1,178.5,109.12Zm5.83.45a2.89,2.89,0,0,0-1-1.08,2.86,2.86,0,0,0-1.44-.37,3,3,0,0,0-1.46.36,2.65,2.65,0,0,0-1,1.06,3.39,3.39,0,0,0-.37,1.64,3.46,3.46,0,0,0,.37,1.65,2.71,2.71,0,0,0,1,1.08,3,3,0,0,0,1.46.37,2.87,2.87,0,0,0,1.44-.38,2.75,2.75,0,0,0,1-1.08,3.75,3.75,0,0,0,0-3.25Z"/><path class="cls-3" d="M194.54,107.38V115h-1v-1.34a2.31,2.31,0,0,1-1,1.09,3.28,3.28,0,0,1-1.57.38,3.1,3.1,0,0,1-2.24-.85,3.3,3.3,0,0,1-.87-2.46v-4.46h1v4.35a2.67,2.67,0,0,0,.62,1.9,2.23,2.23,0,0,0,1.7.66,2.31,2.31,0,0,0,1.77-.7,2.94,2.94,0,0,0,.65-2.06v-4.15Z"/><path class="cls-3" d="M203.67,111.57h-6.34a3.14,3.14,0,0,0,.42,1.49,2.46,2.46,0,0,0,1,.93,3,3,0,0,0,1.35.32,2.68,2.68,0,0,0,1.6-.47,2.14,2.14,0,0,0,.86-1.24h1a3.27,3.27,0,0,1-1.2,1.82,3.61,3.61,0,0,1-2.3.71,3.86,3.86,0,0,1-1.93-.48,3.4,3.4,0,0,1-1.34-1.37,4.34,4.34,0,0,1-.48-2.08,4.47,4.47,0,0,1,.47-2.09,3.32,3.32,0,0,1,1.33-1.37,3.91,3.91,0,0,1,2-.48,3.71,3.71,0,0,1,1.91.48,3.37,3.37,0,0,1,1.26,1.28,3.71,3.71,0,0,1,.44,1.79A7.16,7.16,0,0,1,203.67,111.57Zm-1.31-2.25a2.3,2.3,0,0,0-1-.91,3,3,0,0,0-1.34-.31,2.73,2.73,0,0,0-1.87.7,2.84,2.84,0,0,0-.85,2h5.38A2.7,2.7,0,0,0,202.36,109.32Z"/><path class="cls-3" d="M210.31,104.66V115h-1V104.66Z"/><path class="cls-3" d="M213.94,114.65a3.51,3.51,0,0,1-1.36-1.37,4.24,4.24,0,0,1-.49-2.08,4.08,4.08,0,0,1,.5-2.08,3.54,3.54,0,0,1,1.37-1.37,4.13,4.13,0,0,1,3.9,0,3.47,3.47,0,0,1,1.37,1.37,4.18,4.18,0,0,1,.5,2.08,4.23,4.23,0,0,1-.5,2.07,3.48,3.48,0,0,1-1.39,1.38,4,4,0,0,1-2,.48A3.9,3.9,0,0,1,213.94,114.65Zm3.34-.72a2.51,2.51,0,0,0,1-1,3.32,3.32,0,0,0,.4-1.7,3.42,3.42,0,0,0-.39-1.7,2.54,2.54,0,0,0-1-1,3.05,3.05,0,0,0-2.8,0,2.52,2.52,0,0,0-1,1,4,4,0,0,0,0,3.4,2.49,2.49,0,0,0,1,1,2.87,2.87,0,0,0,1.39.35A2.94,2.94,0,0,0,217.28,113.93Z"/><path class="cls-3" d="M222,114.52a2.24,2.24,0,0,1-.93-1.66h1a1.48,1.48,0,0,0,.61,1,2.42,2.42,0,0,0,1.45.4,1.9,1.9,0,0,0,1.25-.38,1.16,1.16,0,0,0,.46-.94.88.88,0,0,0-.25-.64,1.66,1.66,0,0,0-.64-.4,9.64,9.64,0,0,0-1-.32,10.39,10.39,0,0,1-1.39-.45,2.29,2.29,0,0,1-.9-.66,1.93,1.93,0,0,1,0-2.22,2.34,2.34,0,0,1,.95-.76,3.46,3.46,0,0,1,1.4-.28,3,3,0,0,1,2,.63,2.2,2.2,0,0,1,.81,1.71h-1a1.44,1.44,0,0,0-.52-1.08,1.94,1.94,0,0,0-1.32-.42,2,2,0,0,0-1.21.35,1.09,1.09,0,0,0-.19,1.61,1.86,1.86,0,0,0,.68.44c.27.11.64.23,1.09.36a9.17,9.17,0,0,1,1.32.44,2.22,2.22,0,0,1,.84.61,1.67,1.67,0,0,1,.36,1.08,1.9,1.9,0,0,1-.33,1.1,2.38,2.38,0,0,1-.94.76,3.19,3.19,0,0,1-1.39.28A3.55,3.55,0,0,1,222,114.52Z"/><path class="cls-3" d="M234.46,107.63a3.21,3.21,0,0,1,1.64-.39v1h-.27a2.49,2.49,0,0,0-1.71.57,2.45,2.45,0,0,0-.64,1.92V115h-1v-7.64h1v1.35A2.38,2.38,0,0,1,234.46,107.63Z"/><path class="cls-3" d="M244.45,111.57h-6.34a3.14,3.14,0,0,0,.42,1.49,2.42,2.42,0,0,0,1,.93,2.88,2.88,0,0,0,1.34.32,2.68,2.68,0,0,0,1.6-.47,2.14,2.14,0,0,0,.86-1.24h1a3.27,3.27,0,0,1-1.2,1.82,3.61,3.61,0,0,1-2.3.71,3.86,3.86,0,0,1-1.93-.48,3.4,3.4,0,0,1-1.34-1.37,4.34,4.34,0,0,1-.48-2.08,4.47,4.47,0,0,1,.47-2.09,3.32,3.32,0,0,1,1.33-1.37,3.91,3.91,0,0,1,2-.48,3.69,3.69,0,0,1,1.91.48A3.23,3.23,0,0,1,244,109a3.71,3.71,0,0,1,.44,1.79A7.16,7.16,0,0,1,244.45,111.57Zm-1.3-2.25a2.39,2.39,0,0,0-1-.91,3,3,0,0,0-1.34-.31,2.69,2.69,0,0,0-1.86.7,2.81,2.81,0,0,0-.86,2h5.38A2.79,2.79,0,0,0,243.15,109.32Z"/><path class="cls-3" d="M246.3,109.12a3.46,3.46,0,0,1,1.31-1.37,3.61,3.61,0,0,1,1.88-.49,3.41,3.41,0,0,1,1.88.51,2.85,2.85,0,0,1,1.13,1.29v-1.68h1v11.25h-1v-5.29a2.84,2.84,0,0,1-1.14,1.28,3.45,3.45,0,0,1-1.89.51,3.55,3.55,0,0,1-1.87-.49,3.48,3.48,0,0,1-1.31-1.38,4.46,4.46,0,0,1-.46-2.08A4.26,4.26,0,0,1,246.3,109.12Zm5.83.45a2.89,2.89,0,0,0-1-1.08,3,3,0,0,0-2.89,0,2.61,2.61,0,0,0-1,1.06,3.39,3.39,0,0,0-.37,1.64,3.46,3.46,0,0,0,.37,1.65,2.66,2.66,0,0,0,1,1.08,3,3,0,0,0,2.89,0,2.75,2.75,0,0,0,1-1.08,3.75,3.75,0,0,0,0-3.25Z"/><path class="cls-3" d="M262.35,107.38V115h-1v-1.34a2.39,2.39,0,0,1-1,1.09,3.28,3.28,0,0,1-1.57.38,3.1,3.1,0,0,1-2.24-.85,3.3,3.3,0,0,1-.87-2.46v-4.46h1v4.35a2.67,2.67,0,0,0,.62,1.9,2.23,2.23,0,0,0,1.7.66,2.31,2.31,0,0,0,1.77-.7,2.9,2.9,0,0,0,.66-2.06v-4.15Z"/><path class="cls-3" d="M264.57,105.72a.74.74,0,0,1,0-1,.74.74,0,0,1,1,0,.72.72,0,1,1-1,1Zm1,1.66V115h-1v-7.64Z"/><path class="cls-3" d="M274.68,111.57h-6.34a3,3,0,0,0,.42,1.49,2.46,2.46,0,0,0,1,.93,2.91,2.91,0,0,0,1.34.32,2.71,2.71,0,0,0,1.61-.47,2.19,2.19,0,0,0,.86-1.24h1a3.2,3.2,0,0,1-1.19,1.82,3.62,3.62,0,0,1-2.31.71,3.89,3.89,0,0,1-1.93-.48,3.38,3.38,0,0,1-1.33-1.37,4.24,4.24,0,0,1-.49-2.08,4.36,4.36,0,0,1,.48-2.09,3.32,3.32,0,0,1,1.33-1.37,3.9,3.9,0,0,1,1.94-.48,3.75,3.75,0,0,1,1.92.48,3.37,3.37,0,0,1,1.26,1.28,3.71,3.71,0,0,1,.44,1.79A7.16,7.16,0,0,1,274.68,111.57Zm-1.31-2.25a2.36,2.36,0,0,0-1-.91,3,3,0,0,0-1.35-.31,2.7,2.7,0,0,0-1.86.7,2.8,2.8,0,0,0-.85,2h5.37A2.7,2.7,0,0,0,273.37,109.32Z"/><path class="cls-3" d="M278.47,107.63a3.15,3.15,0,0,1,1.63-.39v1h-.27a2.49,2.49,0,0,0-1.71.57,2.45,2.45,0,0,0-.64,1.92V115h-1v-7.64h1v1.35A2.35,2.35,0,0,1,278.47,107.63Z"/><path class="cls-3" d="M281.59,109.12a3.31,3.31,0,0,1,1.3-1.37,3.61,3.61,0,0,1,1.88-.49,3.42,3.42,0,0,1,1.89.51,3,3,0,0,1,1.14,1.29v-1.68h1V115h-1v-1.7a3.08,3.08,0,0,1-1.16,1.3,3.39,3.39,0,0,1-1.88.51,3.6,3.6,0,0,1-1.87-.49,3.39,3.39,0,0,1-1.3-1.38,4.46,4.46,0,0,1-.47-2.08A4.38,4.38,0,0,1,281.59,109.12Zm5.83.45a2.71,2.71,0,0,0-2.46-1.45,2.93,2.93,0,0,0-1.46.36,2.61,2.61,0,0,0-1,1.06,3.51,3.51,0,0,0-.37,1.64,3.58,3.58,0,0,0,.37,1.65,2.66,2.66,0,0,0,1,1.08,2.93,2.93,0,0,0,1.46.37,2.81,2.81,0,0,0,1.43-.38,2.68,2.68,0,0,0,1-1.08,3.66,3.66,0,0,0,0-3.25Z"/><path class="cls-3" d="M48.26,124.18l-4.53,11.24h-1l1.49-3.64-3.14-7.6h1.08l2.6,6.52,2.52-6.52Z"/><path class="cls-3" d="M53.91,131.32a2.18,2.18,0,0,1-.93-1.66h1a1.44,1.44,0,0,0,.61,1.05,2.41,2.41,0,0,0,1.44.4,1.91,1.91,0,0,0,1.26-.38,1.18,1.18,0,0,0,.45-.94.84.84,0,0,0-.25-.64,1.66,1.66,0,0,0-.64-.4,8.39,8.39,0,0,0-1-.32,10.9,10.9,0,0,1-1.39-.45,2.45,2.45,0,0,1-.9-.66,1.77,1.77,0,0,1-.37-1.18,1.73,1.73,0,0,1,.34-1,2.28,2.28,0,0,1,1-.76,3.46,3.46,0,0,1,1.4-.28,3,3,0,0,1,2,.63,2.26,2.26,0,0,1,.81,1.71h-1a1.45,1.45,0,0,0-.53-1.08,2.26,2.26,0,0,0-2.52-.07,1.09,1.09,0,0,0-.19,1.61,1.78,1.78,0,0,0,.68.44,10.67,10.67,0,0,0,1.09.36,8.58,8.58,0,0,1,1.31.44,2.22,2.22,0,0,1,.84.61,1.62,1.62,0,0,1,.37,1.08,1.84,1.84,0,0,1-.34,1.1,2.28,2.28,0,0,1-.93.76,3.26,3.26,0,0,1-1.39.28A3.53,3.53,0,0,1,53.91,131.32Z"/><path class="cls-3" d="M67.46,128.37H61.11a3.14,3.14,0,0,0,.42,1.49,2.55,2.55,0,0,0,1,.93,2.91,2.91,0,0,0,1.34.32,2.66,2.66,0,0,0,1.6-.47,2.1,2.1,0,0,0,.86-1.24h1a3.22,3.22,0,0,1-1.2,1.82,3.59,3.59,0,0,1-2.3.71,3.86,3.86,0,0,1-1.93-.48,3.4,3.4,0,0,1-1.34-1.37,4.34,4.34,0,0,1-.48-2.08,4.47,4.47,0,0,1,.47-2.09,3.38,3.38,0,0,1,1.33-1.37,3.94,3.94,0,0,1,1.95-.48,3.69,3.69,0,0,1,1.91.48A3.23,3.23,0,0,1,67,125.82a3.6,3.6,0,0,1,.44,1.79C67.48,127.94,67.47,128.2,67.46,128.37Zm-1.31-2.25a2.39,2.39,0,0,0-1-.91,3,3,0,0,0-1.34-.31,2.69,2.69,0,0,0-1.86.7,2.81,2.81,0,0,0-.86,2h5.38A2.79,2.79,0,0,0,66.15,126.12Z"/><path class="cls-3" d="M73.1,122.52a.74.74,0,0,1,0-1,.72.72,0,0,1,.5-.2.69.69,0,0,1,.5.2.71.71,0,0,1,0,1,.66.66,0,0,1-.5.21A.69.69,0,0,1,73.1,122.52Zm1,1.66v7.64h-1v-7.64Z"/><path class="cls-3" d="M87.61,124.88a3.37,3.37,0,0,1,.85,2.46v4.48h-1v-4.37a2.72,2.72,0,0,0-.6-1.9,2.11,2.11,0,0,0-1.64-.66,2.22,2.22,0,0,0-1.72.71,3,3,0,0,0-.65,2.08v4.14h-1v-4.37a2.72,2.72,0,0,0-.6-1.9,2.15,2.15,0,0,0-1.66-.66,2.22,2.22,0,0,0-1.72.71,3,3,0,0,0-.64,2.08v4.14h-1v-7.64h1v1.31a2.5,2.5,0,0,1,1-1.08,3,3,0,0,1,1.5-.38,3.13,3.13,0,0,1,1.74.48,2.71,2.71,0,0,1,1.09,1.4,2.53,2.53,0,0,1,1.06-1.39,3.08,3.08,0,0,1,1.7-.49A3,3,0,0,1,87.61,124.88Z"/><path class="cls-3" d="M92.75,124.57a3.37,3.37,0,0,1,1.88-.51,3.6,3.6,0,0,1,1.87.49,3.37,3.37,0,0,1,1.3,1.37,4.38,4.38,0,0,1,.47,2.06,4.46,4.46,0,0,1-.47,2.08,3.46,3.46,0,0,1-1.3,1.38,3.6,3.6,0,0,1-1.87.49,3.41,3.41,0,0,1-1.88-.51,3.08,3.08,0,0,1-1.16-1.28v5.29h-1V124.18h1v1.68A3,3,0,0,1,92.75,124.57Zm4.15,1.77a2.52,2.52,0,0,0-1-1.06,3,3,0,0,0-1.46-.36,2.8,2.8,0,0,0-1.43.37,2.75,2.75,0,0,0-1,1.08,3.66,3.66,0,0,0,0,3.25,2.62,2.62,0,0,0,1,1.08,2.81,2.81,0,0,0,1.43.38,3,3,0,0,0,1.46-.37,2.58,2.58,0,0,0,1-1.08,3.46,3.46,0,0,0,.37-1.65A3.39,3.39,0,0,0,96.9,126.34Z"/><path class="cls-3" d="M101.05,121.46v10.36h-1V121.46Z"/><path class="cls-3" d="M110.17,128.37h-6.34a3,3,0,0,0,.42,1.49,2.46,2.46,0,0,0,1,.93,2.91,2.91,0,0,0,1.34.32,2.71,2.71,0,0,0,1.61-.47,2.19,2.19,0,0,0,.86-1.24h1a3.2,3.2,0,0,1-1.19,1.82,3.62,3.62,0,0,1-2.31.71,3.89,3.89,0,0,1-1.93-.48,3.38,3.38,0,0,1-1.33-1.37,4.24,4.24,0,0,1-.49-2.08,4.36,4.36,0,0,1,.48-2.09,3.32,3.32,0,0,1,1.33-1.37,3.9,3.9,0,0,1,1.94-.48,3.75,3.75,0,0,1,1.92.48,3.37,3.37,0,0,1,1.26,1.28,3.71,3.71,0,0,1,.44,1.79A7.16,7.16,0,0,1,110.17,128.37Zm-1.31-2.25a2.36,2.36,0,0,0-1-.91,3,3,0,0,0-1.35-.31,2.69,2.69,0,0,0-1.86.7,2.8,2.8,0,0,0-.85,2h5.37A2.7,2.7,0,0,0,108.86,126.12Z"/><path class="cls-3" d="M123.28,124.88a3.37,3.37,0,0,1,.85,2.46v4.48h-1v-4.37a2.72,2.72,0,0,0-.6-1.9,2.11,2.11,0,0,0-1.64-.66,2.22,2.22,0,0,0-1.72.71,3,3,0,0,0-.65,2.08v4.14h-1v-4.37a2.72,2.72,0,0,0-.6-1.9,2.15,2.15,0,0,0-1.66-.66,2.23,2.23,0,0,0-1.72.71,3,3,0,0,0-.64,2.08v4.14h-1v-7.64h1v1.31a2.5,2.5,0,0,1,1-1.08,3,3,0,0,1,1.5-.38,3.17,3.17,0,0,1,1.75.48,2.65,2.65,0,0,1,1.08,1.4,2.58,2.58,0,0,1,1.06-1.39,3.08,3.08,0,0,1,1.7-.49A3,3,0,0,1,123.28,124.88Z"/><path class="cls-3" d="M133.18,128.37h-6.34a3.14,3.14,0,0,0,.42,1.49,2.42,2.42,0,0,0,1,.93,2.88,2.88,0,0,0,1.34.32,2.66,2.66,0,0,0,1.6-.47,2.14,2.14,0,0,0,.86-1.24h1a3.27,3.27,0,0,1-1.2,1.82,3.61,3.61,0,0,1-2.3.71,3.86,3.86,0,0,1-1.93-.48,3.4,3.4,0,0,1-1.34-1.37,4.34,4.34,0,0,1-.48-2.08,4.47,4.47,0,0,1,.47-2.09,3.32,3.32,0,0,1,1.33-1.37,3.91,3.91,0,0,1,1.95-.48,3.69,3.69,0,0,1,1.91.48,3.23,3.23,0,0,1,1.26,1.28,3.6,3.6,0,0,1,.44,1.79A7.16,7.16,0,0,1,133.18,128.37Zm-1.3-2.25a2.39,2.39,0,0,0-1-.91,3,3,0,0,0-1.34-.31,2.69,2.69,0,0,0-1.86.7,2.81,2.81,0,0,0-.86,2h5.38A2.79,2.79,0,0,0,131.88,126.12Z"/><path class="cls-3" d="M140.83,124.88a3.3,3.3,0,0,1,.87,2.46v4.48h-1v-4.37a2.68,2.68,0,0,0-.62-1.9,2.23,2.23,0,0,0-1.7-.66,2.31,2.31,0,0,0-1.77.7,2.9,2.9,0,0,0-.66,2.06v4.17h-1v-7.64h1v1.3a2.52,2.52,0,0,1,1.05-1.07,3.22,3.22,0,0,1,1.56-.38A3.1,3.1,0,0,1,140.83,124.88Z"/><path class="cls-3" d="M145.14,125v4.75a1.33,1.33,0,0,0,.27,1,1.28,1.28,0,0,0,.93.27h.9v.84h-1.05a2.17,2.17,0,0,1-1.54-.48,2.14,2.14,0,0,1-.5-1.59V125h-1.07v-.82h1.07v-1.92h1v1.92h2.1V125Z"/><path class="cls-3" d="M148.87,125.92a3.37,3.37,0,0,1,1.3-1.37,3.65,3.65,0,0,1,1.89-.49,3.41,3.41,0,0,1,1.88.51,2.83,2.83,0,0,1,1.14,1.29v-1.68h1v7.64h-1v-1.7a3,3,0,0,1-1.16,1.3,3.37,3.37,0,0,1-1.88.51,3.6,3.6,0,0,1-1.87-.49,3.46,3.46,0,0,1-1.3-1.38,4.46,4.46,0,0,1-.47-2.08A4.38,4.38,0,0,1,148.87,125.92Zm5.83.45a2.75,2.75,0,0,0-1-1.08,2.8,2.8,0,0,0-1.43-.37,3,3,0,0,0-1.46.36,2.52,2.52,0,0,0-1,1.06,3.39,3.39,0,0,0-.37,1.64,3.46,3.46,0,0,0,.37,1.65,2.58,2.58,0,0,0,1,1.08,3,3,0,0,0,1.46.37,2.81,2.81,0,0,0,1.43-.38,2.62,2.62,0,0,0,1-1.08,3.66,3.66,0,0,0,0-3.25Z"/><path class="cls-3" d="M160.27,124.43a3.15,3.15,0,0,1,1.63-.4v1h-.27a2.49,2.49,0,0,0-1.71.57,2.45,2.45,0,0,0-.64,1.92v4.27h-1v-7.64h1v1.35A2.35,2.35,0,0,1,160.27,124.43Z"/><path class="cls-3" d="M163.39,125.92a3.37,3.37,0,0,1,1.3-1.37,3.61,3.61,0,0,1,1.88-.49,3.42,3.42,0,0,1,1.89.51,3,3,0,0,1,1.14,1.29v-1.68h1v7.64h-1v-1.7a3.08,3.08,0,0,1-1.16,1.3,3.37,3.37,0,0,1-1.88.51,3.6,3.6,0,0,1-1.87-.49,3.46,3.46,0,0,1-1.3-1.38,4.46,4.46,0,0,1-.47-2.08A4.38,4.38,0,0,1,163.39,125.92Zm5.83.45a2.71,2.71,0,0,0-2.47-1.45,2.91,2.91,0,0,0-1.45.36,2.61,2.61,0,0,0-1,1.06,3.51,3.51,0,0,0-.37,1.64,3.58,3.58,0,0,0,.37,1.65,2.66,2.66,0,0,0,1,1.08,2.92,2.92,0,0,0,1.45.37,2.82,2.82,0,0,0,1.44-.38,2.68,2.68,0,0,0,1-1.08,3.66,3.66,0,0,0,0-3.25Zm-.94-4.45-2.87,1.67v-.76l2.87-1.79Z"/><path class="cls-3" d="M178.64,124.88a3.3,3.3,0,0,1,.87,2.46v4.48h-1v-4.37a2.68,2.68,0,0,0-.62-1.9,2.23,2.23,0,0,0-1.7-.66,2.27,2.27,0,0,0-1.76.7,2.9,2.9,0,0,0-.66,2.06v4.17h-1v-7.64h1v1.3a2.41,2.41,0,0,1,1-1.07,3.15,3.15,0,0,1,1.55-.38A3.09,3.09,0,0,1,178.64,124.88Z"/><path class="cls-3" d="M185.54,125.92a3.46,3.46,0,0,1,1.31-1.37,3.65,3.65,0,0,1,1.89-.49,3.54,3.54,0,0,1,1.82.49,3,3,0,0,1,1.19,1.28v-4.37h1v10.36h-1v-1.71a3,3,0,0,1-1.15,1.31,3.41,3.41,0,0,1-1.88.51,3.59,3.59,0,0,1-1.88-.49,3.39,3.39,0,0,1-1.3-1.38,4.79,4.79,0,0,1,0-4.14Zm5.83.45a2.71,2.71,0,0,0-2.47-1.45,2.91,2.91,0,0,0-1.45.36,2.61,2.61,0,0,0-1,1.06,3.39,3.39,0,0,0-.37,1.64,3.46,3.46,0,0,0,.37,1.65,2.66,2.66,0,0,0,1,1.08,2.92,2.92,0,0,0,1.45.37,2.84,2.84,0,0,0,1.44-.38,2.68,2.68,0,0,0,1-1.08,3.66,3.66,0,0,0,0-3.25Z"/><path class="cls-3" d="M201.85,128.37h-6.34a3.14,3.14,0,0,0,.42,1.49,2.46,2.46,0,0,0,1,.93,2.92,2.92,0,0,0,1.35.32,2.68,2.68,0,0,0,1.6-.47,2.14,2.14,0,0,0,.86-1.24h1a3.27,3.27,0,0,1-1.2,1.82,3.61,3.61,0,0,1-2.3.71,3.86,3.86,0,0,1-1.93-.48,3.4,3.4,0,0,1-1.34-1.37,4.81,4.81,0,0,1,0-4.17,3.32,3.32,0,0,1,1.33-1.37,3.91,3.91,0,0,1,2-.48,3.71,3.71,0,0,1,1.91.48,3.23,3.23,0,0,1,1.26,1.28,3.71,3.71,0,0,1,.44,1.79A7.16,7.16,0,0,1,201.85,128.37Zm-1.31-2.25a2.3,2.3,0,0,0-1-.91,3,3,0,0,0-1.34-.31,2.73,2.73,0,0,0-1.87.7,2.84,2.84,0,0,0-.85,2h5.38A2.7,2.7,0,0,0,200.54,126.12Z"/><path class="cls-3" d="M207.5,122.52a.71.71,0,0,1,0-1,.69.69,0,0,1,.5-.2.72.72,0,0,1,.5.2.73.73,0,0,1-.5,1.24A.66.66,0,0,1,207.5,122.52Zm1,1.66v7.64h-1v-7.64Z"/><path class="cls-3" d="M216.54,124.88a3.3,3.3,0,0,1,.87,2.46v4.48h-1v-4.37a2.68,2.68,0,0,0-.62-1.9,2.24,2.24,0,0,0-1.7-.66,2.31,2.31,0,0,0-1.77.7,2.9,2.9,0,0,0-.66,2.06v4.17h-1v-7.64h1v1.3a2.49,2.49,0,0,1,1.06-1.07,3.15,3.15,0,0,1,1.55-.38A3.1,3.1,0,0,1,216.54,124.88Z"/><path class="cls-3" d="M230.87,124.88a3.37,3.37,0,0,1,.84,2.46v4.48h-1v-4.37a2.72,2.72,0,0,0-.6-1.9,2.11,2.11,0,0,0-1.64-.66,2.22,2.22,0,0,0-1.72.71,3,3,0,0,0-.65,2.08v4.14h-1v-4.37a2.72,2.72,0,0,0-.6-1.9,2.15,2.15,0,0,0-1.66-.66,2.22,2.22,0,0,0-1.72.71,3,3,0,0,0-.64,2.08v4.14h-1v-7.64h1v1.31a2.45,2.45,0,0,1,1-1.08,3,3,0,0,1,1.5-.38,3.16,3.16,0,0,1,1.74.48,2.71,2.71,0,0,1,1.09,1.4,2.53,2.53,0,0,1,1.06-1.39,3.05,3.05,0,0,1,1.7-.49A3,3,0,0,1,230.87,124.88Z"/><path class="cls-3" d="M240.77,128.37h-6.34a3.14,3.14,0,0,0,.42,1.49,2.46,2.46,0,0,0,1,.93,2.92,2.92,0,0,0,1.35.32,2.68,2.68,0,0,0,1.6-.47,2.14,2.14,0,0,0,.86-1.24h1a3.27,3.27,0,0,1-1.2,1.82,3.61,3.61,0,0,1-2.3.71,3.86,3.86,0,0,1-1.93-.48,3.4,3.4,0,0,1-1.34-1.37,4.81,4.81,0,0,1,0-4.17,3.32,3.32,0,0,1,1.33-1.37,3.91,3.91,0,0,1,1.95-.48,3.71,3.71,0,0,1,1.91.48,3.23,3.23,0,0,1,1.26,1.28,3.71,3.71,0,0,1,.44,1.79A7.16,7.16,0,0,1,240.77,128.37Zm-1.31-2.25a2.3,2.3,0,0,0-1-.91,3,3,0,0,0-1.34-.31,2.73,2.73,0,0,0-1.87.7,2.84,2.84,0,0,0-.85,2h5.38A2.7,2.7,0,0,0,239.46,126.12Z"/><path class="cls-3" d="M242.62,125.92a3.39,3.39,0,0,1,1.31-1.37,3.59,3.59,0,0,1,1.88-.49,3.52,3.52,0,0,1,1.82.49,3,3,0,0,1,1.19,1.28v-4.37h1v10.36h-1v-1.71a2.89,2.89,0,0,1-1.15,1.31,3.38,3.38,0,0,1-1.87.51,3.59,3.59,0,0,1-1.88-.49,3.48,3.48,0,0,1-1.31-1.38,4.46,4.46,0,0,1-.47-2.08A4.26,4.26,0,0,1,242.62,125.92Zm5.82.45a2.79,2.79,0,0,0-1-1.08,2.86,2.86,0,0,0-1.44-.37,3,3,0,0,0-1.46.36,2.59,2.59,0,0,0-1,1.06,3.39,3.39,0,0,0-.37,1.64,3.46,3.46,0,0,0,.37,1.65,2.64,2.64,0,0,0,1,1.08,3,3,0,0,0,1.46.37,2.87,2.87,0,0,0,1.44-.38,2.66,2.66,0,0,0,1-1.08,3.66,3.66,0,0,0,0-3.25Z"/><path class="cls-3" d="M252,122.52a.74.74,0,0,1,0-1,.74.74,0,0,1,1,0,.72.72,0,1,1-1,1Zm1,1.66v7.64h-1v-7.64Z"/><path class="cls-3" d="M255.27,125.92a3.37,3.37,0,0,1,1.3-1.37,3.61,3.61,0,0,1,1.88-.49,3.42,3.42,0,0,1,1.89.51,2.89,2.89,0,0,1,1.14,1.29v-1.68h1v7.64h-1v-1.7a3,3,0,0,1-1.16,1.3,3.37,3.37,0,0,1-1.88.51,3.6,3.6,0,0,1-1.87-.49,3.46,3.46,0,0,1-1.3-1.38,4.46,4.46,0,0,1-.47-2.08A4.38,4.38,0,0,1,255.27,125.92Zm5.83.45a2.71,2.71,0,0,0-2.46-1.45,2.93,2.93,0,0,0-1.46.36,2.52,2.52,0,0,0-1,1.06,3.4,3.4,0,0,0-.38,1.64,3.46,3.46,0,0,0,.38,1.65,2.58,2.58,0,0,0,1,1.08,2.93,2.93,0,0,0,1.46.37,2.81,2.81,0,0,0,1.43-.38,2.68,2.68,0,0,0,1-1.08,3.66,3.66,0,0,0,0-3.25Z"/><path class="cls-3" d="M266,125v4.75a1.33,1.33,0,0,0,.27,1,1.3,1.3,0,0,0,.94.27h.89v.84H267a1.77,1.77,0,0,1-2-2.07V125h-1.07v-.82H265v-1.92h1v1.92h2.1V125Z"/><path class="cls-3" d="M271.09,131.45a3.45,3.45,0,0,1-1.36-1.37,4.24,4.24,0,0,1-.5-2.08,4.08,4.08,0,0,1,.51-2.08,3.47,3.47,0,0,1,1.37-1.37,3.87,3.87,0,0,1,1.95-.49,3.92,3.92,0,0,1,1.95.49,3.47,3.47,0,0,1,1.37,1.37,4.18,4.18,0,0,1,.5,2.08,4.13,4.13,0,0,1-.51,2.07,3.4,3.4,0,0,1-1.38,1.38,4,4,0,0,1-2,.48A3.9,3.9,0,0,1,271.09,131.45Zm3.34-.72a2.57,2.57,0,0,0,1-1,3.32,3.32,0,0,0,.4-1.7,3.39,3.39,0,0,0-.39-1.7,2.54,2.54,0,0,0-1-1,3.05,3.05,0,0,0-2.8,0,2.52,2.52,0,0,0-1,1,4,4,0,0,0,0,3.4,2.53,2.53,0,0,0,1,1,3,3,0,0,0,2.8,0Z"/><path class="cls-3" d="M278.33,131.68a.74.74,0,0,1,0-1,.69.69,0,0,1,.51-.2.68.68,0,0,1,.49.2.74.74,0,0,1,0,1,.65.65,0,0,1-.49.21A.66.66,0,0,1,278.33,131.68Z"/></svg>