<svg id="Layer_1" data-name="Layer 1" xmlns="http://www.w3.org/2000/svg" viewBox="0 0 320.94 94.62"><defs><style>.cls-1{fill:#fff;}.cls-2{fill:#1073dd;}.cls-3{fill:#093f70;}</style></defs><rect class="cls-1" width="320.94" height="94.62" rx="4.18"/><path class="cls-2" d="M109,22.89h3.22v1.55h-5.18V14.67h2Z"/><path class="cls-2" d="M113.62,15.43a1.08,1.08,0,0,1-.34-.82,1.09,1.09,0,0,1,.34-.82,1.29,1.29,0,0,1,1.72,0,1.09,1.09,0,0,1,.34.82,1.08,1.08,0,0,1-.34.82,1.29,1.29,0,0,1-1.72,0Zm1.83,1.25v7.76h-2V16.68Z"/><path class="cls-2" d="M120.38,16.91a3.13,3.13,0,0,1,1.52-.35A3.36,3.36,0,0,1,125,18.44a4.38,4.38,0,0,1,.47,2.09,4.46,4.46,0,0,1-.47,2.11,3.44,3.44,0,0,1-1.27,1.42,3.31,3.31,0,0,1-1.8.51,3.19,3.19,0,0,1-1.52-.35,2.92,2.92,0,0,1-1-.89v1.11h-2V14.08h2v3.74A2.72,2.72,0,0,1,120.38,16.91Zm2.77,2.41a1.92,1.92,0,0,0-.75-.77,2,2,0,0,0-1-.27,2,2,0,0,0-1,.27,2,2,0,0,0-.75.79,2.71,2.71,0,0,0,0,2.44,2,2,0,0,0,1.75,1.06,1.94,1.94,0,0,0,1-.28,2,2,0,0,0,.75-.79,2.55,2.55,0,0,0,.29-1.24A2.46,2.46,0,0,0,123.15,19.32Z"/><path class="cls-2" d="M134,21.15h-5.67a2,2,0,0,0,.59,1.32,1.85,1.85,0,0,0,1.28.47,1.6,1.6,0,0,0,1.55-.94h2.11a3.5,3.5,0,0,1-1.28,1.84,3.73,3.73,0,0,1-2.34.73,4,4,0,0,1-2-.5,3.49,3.49,0,0,1-1.39-1.41,4.77,4.77,0,0,1,0-4.21,3.31,3.31,0,0,1,1.37-1.4,4.07,4.07,0,0,1,2-.49,4.14,4.14,0,0,1,2,.47,3.46,3.46,0,0,1,1.36,1.35,4.15,4.15,0,0,1,.48,2A4.34,4.34,0,0,1,134,21.15Zm-2-1.32a1.56,1.56,0,0,0-.55-1.21,1.94,1.94,0,0,0-1.3-.45,1.74,1.74,0,0,0-1.22.44,1.91,1.91,0,0,0-.61,1.22Z"/><path class="cls-2" d="M138.45,16.92a2.8,2.8,0,0,1,1.4-.35v2.06h-.52a2,2,0,0,0-1.39.43,2,2,0,0,0-.47,1.52v3.86h-2V16.68h2v1.21A2.84,2.84,0,0,1,138.45,16.92Z"/><path class="cls-2" d="M141.13,18.45a3.35,3.35,0,0,1,3.07-1.89,3.08,3.08,0,0,1,1.52.35,3,3,0,0,1,1,.88V16.68h2v7.76h-2V23.31a3,3,0,0,1-1,.9,3.14,3.14,0,0,1-1.53.36,3.28,3.28,0,0,1-1.79-.51,3.51,3.51,0,0,1-1.27-1.42,4.59,4.59,0,0,1-.47-2.11A4.49,4.49,0,0,1,141.13,18.45Zm5.35.89a2,2,0,0,0-.75-.79,2,2,0,0,0-1-.27,2,2,0,0,0-1.76,1,2.46,2.46,0,0,0-.29,1.21,2.54,2.54,0,0,0,.29,1.23,2,2,0,0,0,.75.8,1.93,1.93,0,0,0,1,.28,2,2,0,0,0,1-.27,2,2,0,0,0,.75-.78,2.82,2.82,0,0,0,0-2.45Z"/><path class="cls-2" d="M156.93,16.92a2.8,2.8,0,0,1,1.4-.35v2.06h-.52a2,2,0,0,0-1.39.43,2,2,0,0,0-.47,1.52v3.86h-2V16.68h2v1.21A2.84,2.84,0,0,1,156.93,16.92Z"/><path class="cls-2" d="M166.8,21.15h-5.67a1.93,1.93,0,0,0,.58,1.32,1.85,1.85,0,0,0,1.28.47,1.59,1.59,0,0,0,1.55-.94h2.12a3.58,3.58,0,0,1-1.29,1.84,3.73,3.73,0,0,1-2.34.73,4,4,0,0,1-2-.5,3.47,3.47,0,0,1-1.38-1.41,4.24,4.24,0,0,1-.5-2.1,4.33,4.33,0,0,1,.49-2.11,3.36,3.36,0,0,1,1.37-1.4,4.07,4.07,0,0,1,2-.49,4.14,4.14,0,0,1,2,.47,3.4,3.4,0,0,1,1.36,1.35,4.15,4.15,0,0,1,.48,2A5.7,5.7,0,0,1,166.8,21.15Zm-2-1.32a1.58,1.58,0,0,0-.54-1.21,2,2,0,0,0-1.31-.45,1.74,1.74,0,0,0-1.22.44,1.91,1.91,0,0,0-.61,1.22Z"/><path class="cls-2" d="M168.27,18.45a3.5,3.5,0,0,1,1.35-1.4,4,4,0,0,1,2-.49,3.84,3.84,0,0,1,2.39.72,3.52,3.52,0,0,1,1.27,2h-2.12a1.53,1.53,0,0,0-.57-.79,1.77,1.77,0,0,0-2.31.32,2.68,2.68,0,0,0-.49,1.73,2.67,2.67,0,0,0,.49,1.72,1.63,1.63,0,0,0,1.33.61,1.49,1.49,0,0,0,1.55-1.07h2.12a3.57,3.57,0,0,1-1.28,2,3.72,3.72,0,0,1-2.38.75,4,4,0,0,1-2-.5,3.44,3.44,0,0,1-1.35-1.4,4.33,4.33,0,0,1-.49-2.11A4.35,4.35,0,0,1,168.27,18.45Z"/><path class="cls-2" d="M184,16.68v7.76h-2v-1a2.65,2.65,0,0,1-1,.79,3.1,3.1,0,0,1-1.32.29,3.23,3.23,0,0,1-1.61-.39A2.61,2.61,0,0,1,177,23a3.73,3.73,0,0,1-.4-1.79V16.68h2V21a2,2,0,0,0,.46,1.42,1.85,1.85,0,0,0,2.53,0,2,2,0,0,0,.47-1.42V16.68Z"/><path class="cls-2" d="M188.91,16.92a2.76,2.76,0,0,1,1.39-.35v2.06h-.52a2,2,0,0,0-1.39.43,2,2,0,0,0-.47,1.52v3.86h-2V16.68h2v1.21A2.79,2.79,0,0,1,188.91,16.92Z"/><path class="cls-2" d="M192.88,24.22a3,3,0,0,1-1.2-.93,2.38,2.38,0,0,1-.48-1.3h2a1.09,1.09,0,0,0,.44.74,1.53,1.53,0,0,0,1,.3,1.51,1.51,0,0,0,.88-.23.67.67,0,0,0,.31-.57.62.62,0,0,0-.38-.57,7.19,7.19,0,0,0-1.23-.41,10.18,10.18,0,0,1-1.42-.44,2.38,2.38,0,0,1-.95-.68,1.84,1.84,0,0,1-.4-1.25,2,2,0,0,1,.37-1.17,2.43,2.43,0,0,1,1.06-.84,4,4,0,0,1,1.64-.31,3.34,3.34,0,0,1,2.21.69,2.59,2.59,0,0,1,.91,1.87h-1.88a1,1,0,0,0-.38-.74,1.74,1.74,0,0,0-1.74-.07.62.62,0,0,0-.29.54.64.64,0,0,0,.4.6,6.35,6.35,0,0,0,1.21.41,10.06,10.06,0,0,1,1.39.44,2.44,2.44,0,0,1,.94.69,1.87,1.87,0,0,1,.42,1.24,2.08,2.08,0,0,1-.37,1.2,2.38,2.38,0,0,1-1.07.83,4.34,4.34,0,0,1-3.32,0Z"/><path class="cls-2" d="M200.68,24.07a3.54,3.54,0,0,1-1.41-1.41,4.24,4.24,0,0,1-.51-2.1,4.14,4.14,0,0,1,.52-2.1,3.68,3.68,0,0,1,1.44-1.41,4.15,4.15,0,0,1,2-.49,4.2,4.2,0,0,1,2,.49,3.72,3.72,0,0,1,1.43,1.41,4.15,4.15,0,0,1,.53,2.1,4.05,4.05,0,0,1-.54,2.1,3.73,3.73,0,0,1-1.46,1.41,4.23,4.23,0,0,1-2.05.5A4,4,0,0,1,200.68,24.07Zm3-1.47a1.89,1.89,0,0,0,.75-.78,2.55,2.55,0,0,0,.28-1.26,2.32,2.32,0,0,0-.58-1.7,1.89,1.89,0,0,0-1.42-.59,1.86,1.86,0,0,0-1.41.59,2.36,2.36,0,0,0-.56,1.7,2.38,2.38,0,0,0,.55,1.7,1.81,1.81,0,0,0,1.39.6A2,2,0,0,0,203.69,22.6Z"/><path class="cls-2" d="M209.44,24.22a3.13,3.13,0,0,1-1.2-.93,2.38,2.38,0,0,1-.48-1.3h2a1.09,1.09,0,0,0,.44.74,1.53,1.53,0,0,0,1,.3,1.49,1.49,0,0,0,.88-.23.67.67,0,0,0,.31-.57.62.62,0,0,0-.38-.57,7.19,7.19,0,0,0-1.23-.41,10.18,10.18,0,0,1-1.42-.44,2.45,2.45,0,0,1-.95-.68,1.84,1.84,0,0,1-.4-1.25,2,2,0,0,1,.37-1.17,2.4,2.4,0,0,1,1.07-.84,3.89,3.89,0,0,1,1.63-.31,3.34,3.34,0,0,1,2.21.69,2.59,2.59,0,0,1,.91,1.87h-1.88a1,1,0,0,0-.38-.74,1.74,1.74,0,0,0-1.74-.07.62.62,0,0,0-.29.54.65.65,0,0,0,.4.6,6.25,6.25,0,0,0,1.22.41,10.32,10.32,0,0,1,1.38.44,2.48,2.48,0,0,1,.95.69,1.92,1.92,0,0,1,.41,1.24,2,2,0,0,1-.37,1.2,2.38,2.38,0,0,1-1.07.83,4.34,4.34,0,0,1-3.32,0Z"/><path class="cls-3" d="M32.07,36.15a4.53,4.53,0,0,1,1.72-1.78,4.8,4.8,0,0,1,2.44-.64,4.92,4.92,0,0,1,2.8.78,4.4,4.4,0,0,1,1.7,2.19H39.58a3.26,3.26,0,0,0-1.28-1.55,3.64,3.64,0,0,0-2.07-.56,3.72,3.72,0,0,0-1.94.5,3.44,3.44,0,0,0-1.35,1.45,5.14,5.14,0,0,0,0,4.38,3.48,3.48,0,0,0,1.35,1.44,3.81,3.81,0,0,0,1.94.5,3.72,3.72,0,0,0,2.07-.55,3.23,3.23,0,0,0,1.28-1.54h1.15A4.38,4.38,0,0,1,39,43a5,5,0,0,1-2.8.76,4.8,4.8,0,0,1-2.44-.63,4.64,4.64,0,0,1-1.72-1.77,5.6,5.6,0,0,1,0-5.16Z"/><path class="cls-3" d="M44.09,43.26a3.45,3.45,0,0,1-1.36-1.37,4.24,4.24,0,0,1-.5-2.08,4.11,4.11,0,0,1,.51-2.08,3.47,3.47,0,0,1,1.37-1.37,3.93,3.93,0,0,1,1.94-.48,4,4,0,0,1,2,.48,3.47,3.47,0,0,1,1.37,1.37,4.21,4.21,0,0,1,.5,2.08,4.13,4.13,0,0,1-.51,2.07A3.46,3.46,0,0,1,48,43.26a4.06,4.06,0,0,1-2,.48A3.9,3.9,0,0,1,44.09,43.26Zm3.34-.71a2.73,2.73,0,0,0,1-1,3.86,3.86,0,0,0,0-3.4,2.66,2.66,0,0,0-1-1,3.05,3.05,0,0,0-2.8,0,2.58,2.58,0,0,0-1,1,4,4,0,0,0,0,3.4,2.62,2.62,0,0,0,1,1,3,3,0,0,0,1.4.34A3,3,0,0,0,47.43,42.55Z"/><path class="cls-3" d="M57.49,36.69a3.3,3.3,0,0,1,.87,2.46v4.48h-1V39.26a2.64,2.64,0,0,0-.62-1.9,2.23,2.23,0,0,0-1.7-.66,2.31,2.31,0,0,0-1.77.7,2.94,2.94,0,0,0-.65,2.06v4.17h-1V36h1v1.3a2.41,2.41,0,0,1,1.05-1.07,3.14,3.14,0,0,1,1.55-.37A3.08,3.08,0,0,1,57.49,36.69Z"/><path class="cls-3" d="M65.63,43.39a2.73,2.73,0,0,1-1.15-.93A2.51,2.51,0,0,1,64,41.11h1a2,2,0,0,0,.64,1.25,2.24,2.24,0,0,0,1.63.54,2.31,2.31,0,0,0,1.58-.51,1.67,1.67,0,0,0,.58-1.29,1.58,1.58,0,0,0-.32-1,2,2,0,0,0-.8-.57,11.73,11.73,0,0,0-1.32-.42,10.39,10.39,0,0,1-1.55-.51,2.47,2.47,0,0,1-1-.79,2.3,2.3,0,0,1-.41-1.44A2.42,2.42,0,0,1,64.5,35a2.61,2.61,0,0,1,1.11-.93,3.73,3.73,0,0,1,1.64-.34,3.45,3.45,0,0,1,2.19.67,2.49,2.49,0,0,1,1,1.71H69.33A1.73,1.73,0,0,0,68.68,35a2.6,2.6,0,0,0-3,0,1.53,1.53,0,0,0-.59,1.28,1.48,1.48,0,0,0,.32,1,2,2,0,0,0,.8.57,12.94,12.94,0,0,0,1.31.42,10.75,10.75,0,0,1,1.54.53,2.46,2.46,0,0,1,1,.79,2.28,2.28,0,0,1,.4,1.42,2.56,2.56,0,0,1-.36,1.31,2.6,2.6,0,0,1-1.08,1,3.63,3.63,0,0,1-1.71.38A4,4,0,0,1,65.63,43.39Z"/><path class="cls-3" d="M73.35,34.64V38.3h3.71v.81H73.35v3.71h4.13v.81H72.37v-9.8h5.11v.81Z"/><path class="cls-3" d="M79.6,36.15a4.53,4.53,0,0,1,1.72-1.78,4.79,4.79,0,0,1,2.43-.64,4.93,4.93,0,0,1,2.81.78,4.4,4.4,0,0,1,1.7,2.19H87.11a3.32,3.32,0,0,0-1.28-1.55,3.65,3.65,0,0,0-2.08-.56,3.7,3.7,0,0,0-1.93.5,3.53,3.53,0,0,0-1.36,1.45,5.14,5.14,0,0,0,0,4.38,3.57,3.57,0,0,0,1.36,1.44,3.8,3.8,0,0,0,1.93.5,3.73,3.73,0,0,0,2.08-.55,3.29,3.29,0,0,0,1.28-1.54h1.15A4.34,4.34,0,0,1,86.55,43a5,5,0,0,1-2.8.76,4.79,4.79,0,0,1-2.43-.63,4.64,4.64,0,0,1-1.72-1.77,5.6,5.6,0,0,1,0-5.16Z"/><path class="cls-3" d="M90.23,37.73a3.37,3.37,0,0,1,1.3-1.37,3.71,3.71,0,0,1,1.89-.48,3.41,3.41,0,0,1,1.88.5,2.83,2.83,0,0,1,1.14,1.29V36h1v7.64h-1V41.94a3,3,0,0,1-1.16,1.29,3.37,3.37,0,0,1-1.88.51,3.6,3.6,0,0,1-1.87-.49,3.4,3.4,0,0,1-1.3-1.38,4.46,4.46,0,0,1-.47-2.08A4.38,4.38,0,0,1,90.23,37.73Zm5.83.45a2.66,2.66,0,0,0-1-1.07,2.71,2.71,0,0,0-1.43-.38,3,3,0,0,0-1.46.36,2.58,2.58,0,0,0-1,1.06,3.4,3.4,0,0,0-.38,1.64,3.46,3.46,0,0,0,.38,1.65,2.58,2.58,0,0,0,1,1.08,2.86,2.86,0,0,0,1.46.37A2.81,2.81,0,0,0,95,42.51a2.62,2.62,0,0,0,1-1.08,3.37,3.37,0,0,0,.38-1.62A3.41,3.41,0,0,0,96.06,38.18Z"/><path class="cls-3" d="M99.68,37.73a3.37,3.37,0,0,1,1.3-1.37,3.74,3.74,0,0,1,1.89-.48,3.41,3.41,0,0,1,1.88.5,2.83,2.83,0,0,1,1.14,1.29V36h1v7.64h-1V41.94a3,3,0,0,1-1.16,1.29,3.37,3.37,0,0,1-1.88.51,3.6,3.6,0,0,1-1.87-.49,3.4,3.4,0,0,1-1.3-1.38,4.46,4.46,0,0,1-.47-2.08A4.38,4.38,0,0,1,99.68,37.73Zm5.83.45a2.66,2.66,0,0,0-1-1.07,2.71,2.71,0,0,0-1.43-.38,3,3,0,0,0-1.46.36,2.58,2.58,0,0,0-1,1.06,3.39,3.39,0,0,0-.37,1.64,3.46,3.46,0,0,0,.37,1.65,2.58,2.58,0,0,0,1,1.08,2.86,2.86,0,0,0,1.46.37,2.81,2.81,0,0,0,1.43-.38,2.62,2.62,0,0,0,1-1.08,3.37,3.37,0,0,0,.38-1.62A3.41,3.41,0,0,0,105.51,38.18Z"/><path class="cls-3" d="M110.38,43.39a2.76,2.76,0,0,1-1.16-.93,2.51,2.51,0,0,1-.45-1.35h1a2,2,0,0,0,.63,1.25,2.27,2.27,0,0,0,1.64.54,2.3,2.3,0,0,0,1.57-.51,1.63,1.63,0,0,0,.58-1.29,1.52,1.52,0,0,0-.32-1,1.93,1.93,0,0,0-.8-.57,11.45,11.45,0,0,0-1.31-.42,10.57,10.57,0,0,1-1.56-.51,2.47,2.47,0,0,1-1-.79,2.3,2.3,0,0,1-.4-1.44,2.42,2.42,0,0,1,.39-1.35,2.58,2.58,0,0,1,1.1-.93,3.76,3.76,0,0,1,1.64-.34,3.41,3.41,0,0,1,2.19.67,2.45,2.45,0,0,1,1,1.71h-1.06a1.79,1.79,0,0,0-.66-1.07,2.6,2.6,0,0,0-3,0,1.55,1.55,0,0,0-.59,1.28,1.54,1.54,0,0,0,.32,1,2.13,2.13,0,0,0,.81.57,12.15,12.15,0,0,0,1.31.42,11.71,11.71,0,0,1,1.54.53,2.44,2.44,0,0,1,1,.79,2.28,2.28,0,0,1,.41,1.42,2.48,2.48,0,0,1-.37,1.31,2.6,2.6,0,0,1-1.08,1,3.59,3.59,0,0,1-1.7.38A3.94,3.94,0,0,1,110.38,43.39Z"/><path class="cls-3" d="M120.94,34.33a.68.68,0,0,1-.21-.51.66.66,0,0,1,.21-.51.71.71,0,0,1,1,0,.66.66,0,0,1,.21.51.68.68,0,0,1-.21.51.71.71,0,0,1-1,0Zm1,1.66v7.64h-1V36Z"/><path class="cls-3" d="M135.45,36.69a3.37,3.37,0,0,1,.85,2.46v4.48h-1V39.26a2.72,2.72,0,0,0-.6-1.9,2.11,2.11,0,0,0-1.64-.66,2.19,2.19,0,0,0-1.72.72,3,3,0,0,0-.65,2.07v4.14h-1V39.26a2.72,2.72,0,0,0-.6-1.9,2.15,2.15,0,0,0-1.66-.66,2.21,2.21,0,0,0-1.72.72,3,3,0,0,0-.64,2.07v4.14h-1V36h1V37.3a2.5,2.5,0,0,1,1-1.08,3,3,0,0,1,1.5-.37,3.27,3.27,0,0,1,1.75.47,2.74,2.74,0,0,1,1.08,1.4,2.62,2.62,0,0,1,1.06-1.39,3.07,3.07,0,0,1,1.7-.48A3,3,0,0,1,135.45,36.69Z"/><path class="cls-3" d="M140.59,36.39a3.29,3.29,0,0,1,1.88-.51,3.69,3.69,0,0,1,1.87.48,3.37,3.37,0,0,1,1.3,1.37,4.38,4.38,0,0,1,.47,2.06,4.46,4.46,0,0,1-.47,2.08,3.4,3.4,0,0,1-1.3,1.38,3.6,3.6,0,0,1-1.87.49,3.44,3.44,0,0,1-1.88-.51A3.08,3.08,0,0,1,139.43,42v5.29h-1V36h1v1.68A3,3,0,0,1,140.59,36.39Zm4.16,1.76a2.67,2.67,0,0,0-1-1.06,2.93,2.93,0,0,0-1.46-.36,2.76,2.76,0,0,0-2.46,1.45,3.41,3.41,0,0,0-.38,1.63,3.37,3.37,0,0,0,.38,1.62,2.68,2.68,0,0,0,1,1.08,3,3,0,0,0,2.89,0,2.66,2.66,0,0,0,1-1.08,3.58,3.58,0,0,0,.37-1.65A3.51,3.51,0,0,0,144.75,38.15Z"/><path class="cls-3" d="M148.9,33.27V43.63h-1V33.27Z"/><path class="cls-3" d="M158,40.19h-6.34a3,3,0,0,0,.42,1.48,2.46,2.46,0,0,0,1,.93,2.91,2.91,0,0,0,1.34.32,2.78,2.78,0,0,0,1.61-.46,2.21,2.21,0,0,0,.86-1.25h1A3.22,3.22,0,0,1,156.73,43a3.67,3.67,0,0,1-2.31.7,3.89,3.89,0,0,1-1.93-.48,3.38,3.38,0,0,1-1.33-1.37,4.24,4.24,0,0,1-.49-2.08,4.38,4.38,0,0,1,.48-2.09,3.38,3.38,0,0,1,1.33-1.37,3.9,3.9,0,0,1,1.94-.47,3.74,3.74,0,0,1,1.92.47,3.44,3.44,0,0,1,1.26,1.28,3.71,3.71,0,0,1,.44,1.79A7.51,7.51,0,0,1,158,40.19Zm-1.31-2.26a2.36,2.36,0,0,0-1-.91,3,3,0,0,0-1.35-.31,2.67,2.67,0,0,0-1.86.71,2.76,2.76,0,0,0-.85,2H157A2.7,2.7,0,0,0,156.7,37.93Z"/><path class="cls-3" d="M171.12,36.69a3.37,3.37,0,0,1,.85,2.46v4.48h-1V39.26a2.72,2.72,0,0,0-.6-1.9,2.11,2.11,0,0,0-1.64-.66,2.19,2.19,0,0,0-1.72.72,3,3,0,0,0-.64,2.07v4.14h-1V39.26a2.72,2.72,0,0,0-.6-1.9,2.13,2.13,0,0,0-1.66-.66,2.21,2.21,0,0,0-1.72.72,3,3,0,0,0-.64,2.07v4.14h-1V36h1V37.3a2.47,2.47,0,0,1,1-1.08,3,3,0,0,1,1.49-.37,3.25,3.25,0,0,1,1.75.47,2.74,2.74,0,0,1,1.08,1.4,2.62,2.62,0,0,1,1.06-1.39,3.07,3.07,0,0,1,1.7-.48A3,3,0,0,1,171.12,36.69Z"/><path class="cls-3" d="M181,40.19h-6.35a3.1,3.1,0,0,0,.42,1.48,2.55,2.55,0,0,0,1,.93,2.91,2.91,0,0,0,1.34.32,2.73,2.73,0,0,0,1.6-.46,2.18,2.18,0,0,0,.87-1.25h1a3.24,3.24,0,0,1-1.2,1.83,3.64,3.64,0,0,1-2.3.7,3.86,3.86,0,0,1-1.93-.48,3.4,3.4,0,0,1-1.34-1.37,4.77,4.77,0,0,1,0-4.17,3.31,3.31,0,0,1,1.33-1.37,3.85,3.85,0,0,1,1.94-.47,3.68,3.68,0,0,1,1.91.47,3.29,3.29,0,0,1,1.26,1.28,3.6,3.6,0,0,1,.44,1.79C181.05,39.75,181,40,181,40.19Zm-1.31-2.26a2.39,2.39,0,0,0-1-.91,3,3,0,0,0-1.34-.31,2.65,2.65,0,0,0-1.86.71,2.77,2.77,0,0,0-.86,2h5.38A2.79,2.79,0,0,0,179.72,37.93Z"/><path class="cls-3" d="M188.67,36.69a3.3,3.3,0,0,1,.87,2.46v4.48h-1V39.26a2.68,2.68,0,0,0-.62-1.9,2.23,2.23,0,0,0-1.7-.66,2.31,2.31,0,0,0-1.77.7,2.9,2.9,0,0,0-.65,2.06v4.17h-1V36h1v1.3a2.41,2.41,0,0,1,1-1.07,3.14,3.14,0,0,1,1.55-.37A3.1,3.1,0,0,1,188.67,36.69Z"/><path class="cls-3" d="M193,36.81v4.75a1.31,1.31,0,0,0,.27,1,1.29,1.29,0,0,0,.94.27h.89v.84H194a2.17,2.17,0,0,1-1.54-.48,2.15,2.15,0,0,1-.5-1.59V36.81h-1.07V36H192V34.07h1V36h2.1v.82Z"/><path class="cls-3" d="M196.71,37.73a3.37,3.37,0,0,1,1.3-1.37,3.74,3.74,0,0,1,1.89-.48,3.39,3.39,0,0,1,1.88.5,2.83,2.83,0,0,1,1.14,1.29V36h1v7.64h-1V41.94a3.09,3.09,0,0,1-1.15,1.29,3.42,3.42,0,0,1-1.89.51,3.6,3.6,0,0,1-1.87-.49,3.4,3.4,0,0,1-1.3-1.38,4.46,4.46,0,0,1-.47-2.08A4.38,4.38,0,0,1,196.71,37.73Zm5.83.45a2.66,2.66,0,0,0-1-1.07,2.71,2.71,0,0,0-1.43-.38,3,3,0,0,0-1.46.36,2.65,2.65,0,0,0-1,1.06,3.39,3.39,0,0,0-.37,1.64,3.46,3.46,0,0,0,.37,1.65,2.64,2.64,0,0,0,1,1.08,2.86,2.86,0,0,0,1.46.37,2.81,2.81,0,0,0,1.43-.38,2.62,2.62,0,0,0,1-1.08,3.37,3.37,0,0,0,.38-1.62A3.41,3.41,0,0,0,202.54,38.18Z"/><path class="cls-3" d="M206.17,37.73a3.39,3.39,0,0,1,1.31-1.37,3.68,3.68,0,0,1,1.88-.48,3.43,3.43,0,0,1,1.82.49,3,3,0,0,1,1.19,1.27V33.27h1V43.63h-1V41.92a2.9,2.9,0,0,1-1.15,1.31,3.38,3.38,0,0,1-1.87.51,3.65,3.65,0,0,1-1.89-.49,3.4,3.4,0,0,1-1.3-1.38,4.46,4.46,0,0,1-.47-2.08A4.26,4.26,0,0,1,206.17,37.73Zm5.82.45a2.66,2.66,0,0,0-1-1.07,2.71,2.71,0,0,0-1.43-.38,3,3,0,0,0-1.46.36,2.58,2.58,0,0,0-1,1.06,3.39,3.39,0,0,0-.37,1.64,3.46,3.46,0,0,0,.37,1.65,2.58,2.58,0,0,0,1,1.08,2.86,2.86,0,0,0,1.46.37,2.81,2.81,0,0,0,1.43-.38,2.62,2.62,0,0,0,1-1.08,3.26,3.26,0,0,0,.38-1.62A3.3,3.3,0,0,0,212,38.18Z"/><path class="cls-3" d="M217,43.26a3.45,3.45,0,0,1-1.36-1.37,4.24,4.24,0,0,1-.5-2.08,4.11,4.11,0,0,1,.51-2.08A3.47,3.47,0,0,1,217,36.36a4,4,0,0,1,1.94-.48,4,4,0,0,1,2,.48,3.47,3.47,0,0,1,1.37,1.37,4.21,4.21,0,0,1,.5,2.08,4.13,4.13,0,0,1-.51,2.07,3.46,3.46,0,0,1-1.38,1.38,4,4,0,0,1-2,.48A3.9,3.9,0,0,1,217,43.26Zm3.34-.71a2.66,2.66,0,0,0,1-1,3.32,3.32,0,0,0,.4-1.7,3.42,3.42,0,0,0-.39-1.7,2.6,2.6,0,0,0-1-1,3.05,3.05,0,0,0-2.8,0,2.58,2.58,0,0,0-1,1,4,4,0,0,0,0,3.4,2.62,2.62,0,0,0,1,1,3,3,0,0,0,1.4.34A3,3,0,0,0,220.34,42.55Z"/><path class="cls-3" d="M225.47,42,224,45.67h-.67l1-3.66Z"/><path class="cls-3" d="M231.32,43.13a2.18,2.18,0,0,1-.93-1.66h1a1.46,1.46,0,0,0,.6,1.05,2.44,2.44,0,0,0,1.45.4,1.93,1.93,0,0,0,1.26-.38,1.18,1.18,0,0,0,.45-.94.86.86,0,0,0-.25-.64,1.79,1.79,0,0,0-.64-.4,8.39,8.39,0,0,0-1-.32,10.9,10.9,0,0,1-1.39-.45,2.34,2.34,0,0,1-.9-.66,1.76,1.76,0,0,1-.37-1.18,1.73,1.73,0,0,1,.34-1,2.19,2.19,0,0,1,1-.75,3.3,3.3,0,0,1,1.4-.28,3,3,0,0,1,2,.62,2.26,2.26,0,0,1,.81,1.71h-1a1.45,1.45,0,0,0-.53-1.08,2.26,2.26,0,0,0-2.52-.07,1.08,1.08,0,0,0-.47.87,1,1,0,0,0,.28.74,1.92,1.92,0,0,0,.68.45c.27.1.63.22,1.09.35a9.85,9.85,0,0,1,1.31.44,2.22,2.22,0,0,1,.84.61,1.62,1.62,0,0,1,.37,1.08,1.84,1.84,0,0,1-.34,1.1,2.23,2.23,0,0,1-.94.76,3.18,3.18,0,0,1-1.38.28A3.51,3.51,0,0,1,231.32,43.13Z"/><path class="cls-3" d="M244.6,36v7.64h-1V42.29a2.39,2.39,0,0,1-1,1.09,3.26,3.26,0,0,1-1.57.38,3.1,3.1,0,0,1-2.24-.85,3.3,3.3,0,0,1-.86-2.46V36h1v4.35a2.67,2.67,0,0,0,.63,1.91,2.24,2.24,0,0,0,1.7.65,2.3,2.3,0,0,0,1.76-.7,2.88,2.88,0,0,0,.66-2.06V36Z"/><path class="cls-3" d="M257.56,40.19h-6.34a3.1,3.1,0,0,0,.42,1.48,2.46,2.46,0,0,0,1,.93,2.92,2.92,0,0,0,1.35.32,2.75,2.75,0,0,0,1.6-.46,2.21,2.21,0,0,0,.86-1.25h1a3.29,3.29,0,0,1-1.2,1.83,3.66,3.66,0,0,1-2.3.7,3.86,3.86,0,0,1-1.93-.48,3.4,3.4,0,0,1-1.34-1.37,4.81,4.81,0,0,1,0-4.17A3.38,3.38,0,0,1,252,36.35a3.91,3.91,0,0,1,1.95-.47,3.71,3.71,0,0,1,1.91.47,3.44,3.44,0,0,1,1.26,1.28,3.71,3.71,0,0,1,.44,1.79A7.51,7.51,0,0,1,257.56,40.19Zm-1.31-2.26a2.36,2.36,0,0,0-1-.91,3,3,0,0,0-1.34-.31,2.69,2.69,0,0,0-1.87.71,2.8,2.8,0,0,0-.85,2h5.38A2.7,2.7,0,0,0,256.25,37.93Z"/><path class="cls-3" d="M259.41,37.73a3.39,3.39,0,0,1,1.31-1.37,3.68,3.68,0,0,1,1.88-.48,3.33,3.33,0,0,1,1.88.51,2.83,2.83,0,0,1,1.13,1.28V36h1V47.24h-1V42a2.84,2.84,0,0,1-1.14,1.28,3.48,3.48,0,0,1-1.9.51,3.54,3.54,0,0,1-1.86-.49,3.42,3.42,0,0,1-1.31-1.38,4.46,4.46,0,0,1-.47-2.08A4.26,4.26,0,0,1,259.41,37.73Zm5.82.45a2.7,2.7,0,0,0-1-1.07,2.77,2.77,0,0,0-1.44-.38,3,3,0,0,0-1.46.36,2.65,2.65,0,0,0-1,1.06,3.39,3.39,0,0,0-.37,1.64,3.46,3.46,0,0,0,.37,1.65,2.64,2.64,0,0,0,1,1.08,3,3,0,0,0,2.9,0,2.66,2.66,0,0,0,1-1.08,3.26,3.26,0,0,0,.38-1.62A3.3,3.3,0,0,0,265.23,38.18Z"/><path class="cls-3" d="M275.45,36v7.64h-1V42.29a2.36,2.36,0,0,1-1,1.09,3.28,3.28,0,0,1-1.57.38,3.1,3.1,0,0,1-2.24-.85,3.27,3.27,0,0,1-.87-2.46V36h1v4.35a2.71,2.71,0,0,0,.62,1.91,2.26,2.26,0,0,0,1.7.65,2.31,2.31,0,0,0,1.77-.7,2.92,2.92,0,0,0,.65-2.06V36Z"/><path class="cls-3" d="M277.68,34.33a.68.68,0,0,1-.21-.51.66.66,0,0,1,.21-.51.71.71,0,0,1,1,0,.66.66,0,0,1,.21.51.68.68,0,0,1-.21.51.71.71,0,0,1-1,0Zm1,1.66v7.64h-1V36Z"/><path class="cls-3" d="M283,36.39a3.33,3.33,0,0,1,1.88-.51,3.67,3.67,0,0,1,1.87.48,3.31,3.31,0,0,1,1.3,1.37,4.26,4.26,0,0,1,.47,2.06,4.34,4.34,0,0,1-.47,2.08,3.33,3.33,0,0,1-1.3,1.38,3.58,3.58,0,0,1-1.87.49,3.38,3.38,0,0,1-1.87-.51A3.08,3.08,0,0,1,281.87,42v5.29h-1V36h1v1.68A3,3,0,0,1,283,36.39Zm4.16,1.76a2.67,2.67,0,0,0-1-1.06,2.91,2.91,0,0,0-1.45-.36,2.75,2.75,0,0,0-1.44.38,2.79,2.79,0,0,0-1,1.07,3.41,3.41,0,0,0-.37,1.63,3.37,3.37,0,0,0,.37,1.62,2.75,2.75,0,0,0,1,1.08,3,3,0,0,0,2.89,0,2.66,2.66,0,0,0,1-1.08,3.46,3.46,0,0,0,.37-1.65A3.39,3.39,0,0,0,287.18,38.15Z"/><path class="cls-3" d="M291.76,43.26a3.45,3.45,0,0,1-1.36-1.37,4.24,4.24,0,0,1-.5-2.08,4.11,4.11,0,0,1,.51-2.08,3.47,3.47,0,0,1,1.37-1.37,3.93,3.93,0,0,1,1.94-.48,4,4,0,0,1,2,.48,3.47,3.47,0,0,1,1.37,1.37,4.21,4.21,0,0,1,.49,2.08,4.12,4.12,0,0,1-.5,2.07,3.46,3.46,0,0,1-1.38,1.38,4.06,4.06,0,0,1-2,.48A3.9,3.9,0,0,1,291.76,43.26Zm3.34-.71a2.73,2.73,0,0,0,1-1,3.86,3.86,0,0,0,0-3.4,2.66,2.66,0,0,0-1-1,3.05,3.05,0,0,0-2.8,0,2.58,2.58,0,0,0-1,1,4,4,0,0,0,0,3.4,2.62,2.62,0,0,0,1,1,3,3,0,0,0,1.4.34A3,3,0,0,0,295.1,42.55Z"/><path class="cls-3" d="M38.9,54.53a3.39,3.39,0,0,1,1.31-1.37,3.68,3.68,0,0,1,1.88-.49,3.43,3.43,0,0,1,1.82.5,3,3,0,0,1,1.19,1.27V50.07h1V60.43h-1V58.72A2.89,2.89,0,0,1,44,60a3.38,3.38,0,0,1-1.87.51,3.65,3.65,0,0,1-1.89-.49,3.46,3.46,0,0,1-1.3-1.38,4.46,4.46,0,0,1-.47-2.08A4.26,4.26,0,0,1,38.9,54.53Zm5.82.45a2.66,2.66,0,0,0-1-1.07,2.71,2.71,0,0,0-1.43-.38,3,3,0,0,0-1.46.36,2.65,2.65,0,0,0-1,1.06,3.39,3.39,0,0,0-.37,1.64,3.46,3.46,0,0,0,.37,1.65,2.64,2.64,0,0,0,1,1.08,2.86,2.86,0,0,0,1.46.37,2.81,2.81,0,0,0,1.43-.38,2.62,2.62,0,0,0,1-1.08,3.26,3.26,0,0,0,.38-1.62A3.3,3.3,0,0,0,44.72,55Z"/><path class="cls-3" d="M55.21,57H48.87a3.1,3.1,0,0,0,.42,1.48,2.46,2.46,0,0,0,1,.93,2.92,2.92,0,0,0,1.35.32,2.7,2.7,0,0,0,1.6-.47A2.16,2.16,0,0,0,54.09,58h1a3.29,3.29,0,0,1-1.2,1.83,3.66,3.66,0,0,1-2.3.7,3.9,3.9,0,0,1-1.94-.48,3.38,3.38,0,0,1-1.33-1.37,4.24,4.24,0,0,1-.49-2.08,4.38,4.38,0,0,1,.48-2.09,3.38,3.38,0,0,1,1.33-1.37,3.91,3.91,0,0,1,2-.48,3.74,3.74,0,0,1,1.91.48,3.44,3.44,0,0,1,1.26,1.28,3.71,3.71,0,0,1,.44,1.79A7.51,7.51,0,0,1,55.21,57ZM53.9,54.73a2.36,2.36,0,0,0-1-.91,3,3,0,0,0-1.35-.31,2.7,2.7,0,0,0-1.86.7,2.8,2.8,0,0,0-.85,2h5.37A2.7,2.7,0,0,0,53.9,54.73Z"/><path class="cls-3" d="M66.59,50.64v.82H63.88v9h-1v-9H60.17v-.82Z"/><path class="cls-3" d="M69.13,50.64v9.79h-1V50.64Z"/><path class="cls-3" d="M77.31,53.19a3.29,3.29,0,0,1,1.88-.52,3.7,3.7,0,0,1,1.87.49,3.31,3.31,0,0,1,1.3,1.37,4.38,4.38,0,0,1,.47,2.06,4.46,4.46,0,0,1-.47,2.08,3.33,3.33,0,0,1-1.3,1.38,3.6,3.6,0,0,1-1.87.49A3.44,3.44,0,0,1,77.31,60a3.15,3.15,0,0,1-1.16-1.28V64h-1V52.79h1v1.68A3.09,3.09,0,0,1,77.31,53.19ZM81.47,55a2.67,2.67,0,0,0-1-1.06A2.91,2.91,0,0,0,79,53.53,2.76,2.76,0,0,0,76.53,55a3.41,3.41,0,0,0-.38,1.63,3.37,3.37,0,0,0,.38,1.62,2.68,2.68,0,0,0,1,1.08,3,3,0,0,0,2.89,0,2.66,2.66,0,0,0,1-1.08,3.58,3.58,0,0,0,.37-1.65A3.51,3.51,0,0,0,81.47,55Z"/><path class="cls-3" d="M86,60.06a3.49,3.49,0,0,1-1.35-1.37,4.13,4.13,0,0,1-.5-2.08,4.21,4.21,0,0,1,.5-2.08,3.6,3.6,0,0,1,1.37-1.37,4.13,4.13,0,0,1,3.9,0,3.41,3.41,0,0,1,1.37,1.37,4.11,4.11,0,0,1,.5,2.08,4.23,4.23,0,0,1-.5,2.07,3.48,3.48,0,0,1-1.39,1.38,4,4,0,0,1-2,.48A3.93,3.93,0,0,1,86,60.06Zm3.34-.71a2.69,2.69,0,0,0,1.05-1,3.9,3.9,0,0,0,0-3.4,2.58,2.58,0,0,0-1-1,3.05,3.05,0,0,0-2.8,0,2.52,2.52,0,0,0-1,1,3.9,3.9,0,0,0,0,3.4,2.5,2.5,0,0,0,1,1,3,3,0,0,0,1.39.34A3,3,0,0,0,89.38,59.35Z"/><path class="cls-3" d="M93.65,54.53A3.46,3.46,0,0,1,95,53.16a3.71,3.71,0,0,1,1.88-.49,3.47,3.47,0,0,1,1.83.5,2.94,2.94,0,0,1,1.18,1.27V50.07h1V60.43h-1V58.72A2.93,2.93,0,0,1,98.71,60a3.44,3.44,0,0,1-1.88.51A3.59,3.59,0,0,1,95,60.05a3.33,3.33,0,0,1-1.3-1.38,4.34,4.34,0,0,1-.47-2.08A4.26,4.26,0,0,1,93.65,54.53Zm5.83.45a2.79,2.79,0,0,0-1-1.07A2.75,2.75,0,0,0,97,53.53a2.91,2.91,0,0,0-1.45.36,2.67,2.67,0,0,0-1,1.06,3.39,3.39,0,0,0-.37,1.64,3.46,3.46,0,0,0,.37,1.65,2.66,2.66,0,0,0,1,1.08,3,3,0,0,0,2.89,0,2.75,2.75,0,0,0,1-1.08,3.37,3.37,0,0,0,.37-1.62A3.41,3.41,0,0,0,99.48,55Z"/><path class="cls-3" d="M105,53a3.17,3.17,0,0,1,1.63-.39v1h-.26a2.15,2.15,0,0,0-2.36,2.49v4.27h-1V52.79h1v1.35A2.46,2.46,0,0,1,105,53Z"/><path class="cls-3" d="M108.16,54.53a3.44,3.44,0,0,1,1.3-1.37,3.75,3.75,0,0,1,1.89-.49,3.39,3.39,0,0,1,1.88.51,2.83,2.83,0,0,1,1.14,1.29V52.79h1v7.64h-1V58.74A3.09,3.09,0,0,1,113.22,60a3.42,3.42,0,0,1-1.89.51,3.6,3.6,0,0,1-1.87-.49,3.46,3.46,0,0,1-1.3-1.38,4.46,4.46,0,0,1-.47-2.08A4.38,4.38,0,0,1,108.16,54.53ZM114,55a2.66,2.66,0,0,0-1-1.07,2.71,2.71,0,0,0-1.43-.38,3,3,0,0,0-1.46.36,2.65,2.65,0,0,0-1,1.06,3.39,3.39,0,0,0-.37,1.64,3.46,3.46,0,0,0,.37,1.65,2.64,2.64,0,0,0,1,1.08,2.86,2.86,0,0,0,1.46.37,2.81,2.81,0,0,0,1.43-.38,2.62,2.62,0,0,0,1-1.08,3.26,3.26,0,0,0,.38-1.62A3.3,3.3,0,0,0,114,55Zm-.93-4.45-2.87,1.67v-.76l2.87-1.79Z"/><path class="cls-3" d="M121.46,54.53a3.33,3.33,0,0,1,1.31-1.37,3.81,3.81,0,0,1,1.92-.49,3.72,3.72,0,0,1,2.33.71,3.12,3.12,0,0,1,1.18,1.9h-1a2.19,2.19,0,0,0-.84-1.3,2.74,2.74,0,0,0-1.62-.47,2.81,2.81,0,0,0-1.39.35,2.53,2.53,0,0,0-1,1,3.65,3.65,0,0,0-.36,1.7,3.72,3.72,0,0,0,.36,1.71,2.53,2.53,0,0,0,1,1,2.81,2.81,0,0,0,1.39.35,2.74,2.74,0,0,0,1.62-.47,2.15,2.15,0,0,0,.84-1.31h1A3.18,3.18,0,0,1,127,59.83a3.71,3.71,0,0,1-2.32.71,3.8,3.8,0,0,1-1.92-.48,3.33,3.33,0,0,1-1.31-1.37,4.75,4.75,0,0,1,0-4.16Z"/><path class="cls-3" d="M131.42,60.06a3.45,3.45,0,0,1-1.36-1.37,4.24,4.24,0,0,1-.5-2.08,4.11,4.11,0,0,1,.51-2.08,3.47,3.47,0,0,1,1.37-1.37,4,4,0,0,1,1.94-.49,4,4,0,0,1,2,.49,3.47,3.47,0,0,1,1.37,1.37,4.21,4.21,0,0,1,.5,2.08,4.13,4.13,0,0,1-.51,2.07,3.46,3.46,0,0,1-1.38,1.38,4.06,4.06,0,0,1-2,.48A3.9,3.9,0,0,1,131.42,60.06Zm3.34-.71a2.66,2.66,0,0,0,1-1,3.86,3.86,0,0,0,0-3.4,2.66,2.66,0,0,0-1-1,3.05,3.05,0,0,0-2.8,0,2.58,2.58,0,0,0-1,1,4,4,0,0,0,0,3.4,2.62,2.62,0,0,0,1,1,3,3,0,0,0,1.4.34A3,3,0,0,0,134.76,59.35Z"/><path class="cls-3" d="M144.82,53.49a3.3,3.3,0,0,1,.87,2.46v4.48h-1V56.06a2.64,2.64,0,0,0-.62-1.9,2.21,2.21,0,0,0-1.7-.66,2.27,2.27,0,0,0-1.76.7,2.9,2.9,0,0,0-.66,2.06v4.17h-1V52.79h1v1.3A2.41,2.41,0,0,1,141,53a3.17,3.17,0,0,1,1.55-.37A3.08,3.08,0,0,1,144.82,53.49Z"/><path class="cls-3" d="M147.89,54.53a3.39,3.39,0,0,1,1.31-1.37,3.81,3.81,0,0,1,1.92-.49,3.72,3.72,0,0,1,2.33.71,3.18,3.18,0,0,1,1.19,1.9h-1a2.2,2.2,0,0,0-.85-1.3,2.72,2.72,0,0,0-1.62-.47,2.77,2.77,0,0,0-1.38.35,2.56,2.56,0,0,0-1,1,3.79,3.79,0,0,0-.35,1.7,3.86,3.86,0,0,0,.35,1.71,2.56,2.56,0,0,0,1,1,2.77,2.77,0,0,0,1.38.35,2.72,2.72,0,0,0,1.62-.47,2.17,2.17,0,0,0,.85-1.31h1a3.27,3.27,0,0,1-1.19,1.89,3.74,3.74,0,0,1-2.33.71,3.8,3.8,0,0,1-1.92-.48,3.39,3.39,0,0,1-1.31-1.37,4.75,4.75,0,0,1,0-4.16Z"/><path class="cls-3" d="M163.33,57H157a3.1,3.1,0,0,0,.42,1.48,2.46,2.46,0,0,0,1,.93,2.92,2.92,0,0,0,1.35.32,2.7,2.7,0,0,0,1.6-.47,2.16,2.16,0,0,0,.86-1.24h1a3.29,3.29,0,0,1-1.2,1.83,3.66,3.66,0,0,1-2.3.7,3.9,3.9,0,0,1-1.94-.48,3.38,3.38,0,0,1-1.33-1.37,4.24,4.24,0,0,1-.49-2.08,4.38,4.38,0,0,1,.48-2.09,3.38,3.38,0,0,1,1.33-1.37,3.91,3.91,0,0,1,1.95-.48,3.74,3.74,0,0,1,1.91.48,3.44,3.44,0,0,1,1.26,1.28,3.71,3.71,0,0,1,.44,1.79A7.51,7.51,0,0,1,163.33,57ZM162,54.73a2.36,2.36,0,0,0-1-.91,3,3,0,0,0-1.35-.31,2.7,2.7,0,0,0-1.86.7,2.8,2.8,0,0,0-.85,2h5.37A2.7,2.7,0,0,0,162,54.73Z"/><path class="cls-3" d="M171,53.49a3.3,3.3,0,0,1,.87,2.46v4.48h-1V56.06a2.64,2.64,0,0,0-.63-1.9,2.21,2.21,0,0,0-1.7-.66,2.28,2.28,0,0,0-1.76.7,2.9,2.9,0,0,0-.66,2.06v4.17h-1V52.79h1v1.3A2.41,2.41,0,0,1,167.18,53a3.17,3.17,0,0,1,1.55-.37A3.08,3.08,0,0,1,171,53.49Z"/><path class="cls-3" d="M175.29,53.61v4.75a1,1,0,0,0,1.2,1.23h.9v.84h-1.06a2.17,2.17,0,0,1-1.54-.48,2.15,2.15,0,0,1-.5-1.59V53.61h-1.06v-.82h1.06V50.87h1v1.92h2.1v.82Z"/><path class="cls-3" d="M181,53a3.2,3.2,0,0,1,1.63-.39v1h-.26A2.14,2.14,0,0,0,180,56.16v4.27h-1V52.79h1v1.35A2.38,2.38,0,0,1,181,53Z"/><path class="cls-3" d="M184.08,54.53a3.39,3.39,0,0,1,1.31-1.37,3.68,3.68,0,0,1,1.88-.49,3.37,3.37,0,0,1,1.88.51,2.83,2.83,0,0,1,1.14,1.29V52.79h1v7.64h-1V58.74A3,3,0,0,1,189.14,60a3.41,3.41,0,0,1-1.88.51,3.55,3.55,0,0,1-1.87-.49,3.42,3.42,0,0,1-1.31-1.38,4.46,4.46,0,0,1-.46-2.08A4.37,4.37,0,0,1,184.08,54.53Zm5.84.45a2.76,2.76,0,0,0-2.47-1.45,2.89,2.89,0,0,0-1.45.36A2.67,2.67,0,0,0,185,55a3.39,3.39,0,0,0-.37,1.64,3.46,3.46,0,0,0,.37,1.65,2.66,2.66,0,0,0,1,1.08,2.79,2.79,0,0,0,1.45.37,2.87,2.87,0,0,0,1.44-.38,2.75,2.75,0,0,0,1-1.08,3.37,3.37,0,0,0,.37-1.62A3.41,3.41,0,0,0,189.92,55Z"/><path class="cls-3" d="M195.48,53a3.17,3.17,0,0,1,1.63-.39v1h-.26a2.15,2.15,0,0,0-2.36,2.49v4.27h-1V52.79h1v1.35A2.46,2.46,0,0,1,195.48,53Z"/><path class="cls-3" d="M199.06,59.93a2.24,2.24,0,0,1-.93-1.66h1a1.48,1.48,0,0,0,.61,1,2.42,2.42,0,0,0,1.45.4,1.9,1.9,0,0,0,1.25-.38,1.19,1.19,0,0,0,.46-.94.88.88,0,0,0-.25-.64,1.88,1.88,0,0,0-.64-.4,9.64,9.64,0,0,0-1-.32,10.39,10.39,0,0,1-1.39-.45,2.2,2.2,0,0,1-.9-.66,1.76,1.76,0,0,1-.37-1.18,1.78,1.78,0,0,1,.33-1,2.24,2.24,0,0,1,.95-.75,3.3,3.3,0,0,1,1.4-.29,3,3,0,0,1,2,.63A2.2,2.2,0,0,1,203.8,55h-1a1.47,1.47,0,0,0-.52-1.08,1.94,1.94,0,0,0-1.32-.42,2,2,0,0,0-1.21.35,1.06,1.06,0,0,0-.46.87,1,1,0,0,0,.27.74,1.92,1.92,0,0,0,.68.45c.27.1.64.22,1.09.35a10.61,10.61,0,0,1,1.32.44,2.22,2.22,0,0,1,.84.61,1.67,1.67,0,0,1,.36,1.08,1.9,1.9,0,0,1-.33,1.1,2.3,2.3,0,0,1-.94.76,3.19,3.19,0,0,1-1.39.28A3.55,3.55,0,0,1,199.06,59.93Z"/><path class="cls-3" d="M212.61,57h-6.34a3,3,0,0,0,.42,1.48,2.46,2.46,0,0,0,1,.93,2.92,2.92,0,0,0,1.35.32,2.7,2.7,0,0,0,1.6-.47,2.16,2.16,0,0,0,.86-1.24h1a3.29,3.29,0,0,1-1.2,1.83,3.66,3.66,0,0,1-2.3.7,3.9,3.9,0,0,1-1.94-.48,3.38,3.38,0,0,1-1.33-1.37,4.24,4.24,0,0,1-.49-2.08,4.38,4.38,0,0,1,.48-2.09,3.38,3.38,0,0,1,1.33-1.37,3.91,3.91,0,0,1,1.95-.48,3.74,3.74,0,0,1,1.91.48,3.44,3.44,0,0,1,1.26,1.28,3.71,3.71,0,0,1,.44,1.79A7.51,7.51,0,0,1,212.61,57Zm-1.31-2.26a2.36,2.36,0,0,0-1-.91,3,3,0,0,0-1.35-.31,2.69,2.69,0,0,0-1.86.7,2.8,2.8,0,0,0-.85,2h5.37A2.7,2.7,0,0,0,211.3,54.73Z"/><path class="cls-3" d="M225.15,57h-6.34a3.1,3.1,0,0,0,.42,1.48,2.46,2.46,0,0,0,1,.93,3,3,0,0,0,1.35.32,2.68,2.68,0,0,0,1.6-.47A2.11,2.11,0,0,0,224,58h1a3.29,3.29,0,0,1-1.2,1.83,3.66,3.66,0,0,1-2.3.7,3.86,3.86,0,0,1-1.93-.48,3.4,3.4,0,0,1-1.34-1.37,4.34,4.34,0,0,1-.48-2.08,4.5,4.5,0,0,1,.47-2.09,3.38,3.38,0,0,1,1.33-1.37,3.91,3.91,0,0,1,1.95-.48,3.71,3.71,0,0,1,1.91.48,3.29,3.29,0,0,1,1.26,1.28,3.71,3.71,0,0,1,.44,1.79A7.51,7.51,0,0,1,225.15,57Zm-1.31-2.26a2.3,2.3,0,0,0-1-.91,3,3,0,0,0-1.34-.31,2.69,2.69,0,0,0-1.86.7,2.81,2.81,0,0,0-.86,2h5.38A2.7,2.7,0,0,0,223.84,54.73Z"/><path class="cls-3" d="M232.8,53.49a3.3,3.3,0,0,1,.87,2.46v4.48h-1V56.06a2.68,2.68,0,0,0-.62-1.9,2.24,2.24,0,0,0-1.7-.66,2.31,2.31,0,0,0-1.77.7,2.9,2.9,0,0,0-.66,2.06v4.17h-1V52.79h1v1.3A2.47,2.47,0,0,1,229,53a3.21,3.21,0,0,1,1.56-.37A3.1,3.1,0,0,1,232.8,53.49Z"/><path class="cls-3" d="M239.7,54.53A3.39,3.39,0,0,1,241,53.16a3.81,3.81,0,0,1,1.92-.49,3.7,3.7,0,0,1,2.33.71,3.13,3.13,0,0,1,1.19,1.9h-1a2.2,2.2,0,0,0-.85-1.3,2.7,2.7,0,0,0-1.62-.47,2.77,2.77,0,0,0-1.38.35,2.56,2.56,0,0,0-1,1,3.79,3.79,0,0,0-.35,1.7,3.86,3.86,0,0,0,.35,1.71,2.56,2.56,0,0,0,1,1,2.77,2.77,0,0,0,1.38.35,2.7,2.7,0,0,0,1.62-.47,2.17,2.17,0,0,0,.85-1.31h1a3.27,3.27,0,0,1-1.19,1.89,3.74,3.74,0,0,1-2.33.71,3.8,3.8,0,0,1-1.92-.48,3.39,3.39,0,0,1-1.31-1.37,4.75,4.75,0,0,1,0-4.16Z"/><path class="cls-3" d="M254.88,52.79v7.64h-1V59.09a2.31,2.31,0,0,1-1,1.09,3.28,3.28,0,0,1-1.57.38,3.1,3.1,0,0,1-2.24-.85,3.27,3.27,0,0,1-.87-2.46V52.79h1v4.35a2.67,2.67,0,0,0,.62,1.9,2.23,2.23,0,0,0,1.7.66,2.31,2.31,0,0,0,1.77-.7,2.92,2.92,0,0,0,.65-2.06V52.79Z"/><path class="cls-3" d="M268.41,53.49a3.37,3.37,0,0,1,.84,2.46v4.48h-1V56.06a2.68,2.68,0,0,0-.61-1.9,2.09,2.09,0,0,0-1.63-.66,2.24,2.24,0,0,0-1.73.71,3,3,0,0,0-.64,2.08v4.14h-1V56.06a2.72,2.72,0,0,0-.6-1.9,2.12,2.12,0,0,0-1.65-.66,2.22,2.22,0,0,0-1.72.71,3,3,0,0,0-.65,2.08v4.14h-1V52.79h1V54.1a2.52,2.52,0,0,1,1-1.08,3,3,0,0,1,1.5-.37,3.24,3.24,0,0,1,1.74.47,2.75,2.75,0,0,1,1.09,1.4,2.55,2.55,0,0,1,1.05-1.39,3.09,3.09,0,0,1,1.7-.48A3,3,0,0,1,268.41,53.49Z"/><path class="cls-3" d="M273.54,53.19a3.35,3.35,0,0,1,1.89-.52,3.64,3.64,0,0,1,1.86.49,3.39,3.39,0,0,1,1.31,1.37,4.38,4.38,0,0,1,.47,2.06,4.46,4.46,0,0,1-.47,2.08,3.42,3.42,0,0,1-1.31,1.38,3.54,3.54,0,0,1-1.86.49,3.41,3.41,0,0,1-1.88-.51,3.08,3.08,0,0,1-1.16-1.28V64h-1V52.79h1v1.68A3.06,3.06,0,0,1,273.54,53.19ZM277.7,55a2.65,2.65,0,0,0-1-1.06,3,3,0,0,0-1.46-.36,2.77,2.77,0,0,0-1.44.38,2.7,2.7,0,0,0-1,1.07,3.3,3.3,0,0,0-.38,1.63,3.26,3.26,0,0,0,.38,1.62,2.66,2.66,0,0,0,1,1.08,3,3,0,0,0,2.9,0,2.64,2.64,0,0,0,1-1.08,3.46,3.46,0,0,0,.37-1.65A3.39,3.39,0,0,0,277.7,55Z"/><path class="cls-3" d="M281.85,50.07V60.43h-1V50.07Z"/><path class="cls-3" d="M284.06,51.13a.68.68,0,0,1-.21-.51.66.66,0,0,1,.21-.51.71.71,0,0,1,1,0,.66.66,0,0,1,.21.51.68.68,0,0,1-.21.51.71.71,0,0,1-1,0Zm1,1.66v7.64h-1V52.79Z"/><path class="cls-3" d="M289.25,53a3.17,3.17,0,0,1,1.63-.39v1h-.26a2.15,2.15,0,0,0-2.36,2.49v4.27h-1V52.79h1v1.35A2.46,2.46,0,0,1,289.25,53Z"/><path class="cls-3" d="M51.81,76.86a3.49,3.49,0,0,1-1.35-1.37,4.58,4.58,0,0,1,0-4.16A3.6,3.6,0,0,1,51.83,70a4.13,4.13,0,0,1,3.9,0,3.43,3.43,0,0,1,1.38,1.37,4.21,4.21,0,0,1,.49,2.08,4.12,4.12,0,0,1-.5,2.07,3.48,3.48,0,0,1-1.39,1.38,4,4,0,0,1-2,.48A3.93,3.93,0,0,1,51.81,76.86Zm3.34-.71a2.69,2.69,0,0,0,1.05-1,3.81,3.81,0,0,0,0-3.4,2.58,2.58,0,0,0-1-1,3.05,3.05,0,0,0-2.8,0,2.52,2.52,0,0,0-1,1,3.9,3.9,0,0,0,0,3.4,2.56,2.56,0,0,0,1,1,3,3,0,0,0,2.79,0Z"/><path class="cls-3" d="M60.67,70.41v4.75a1.31,1.31,0,0,0,.27,1,1.26,1.26,0,0,0,.93.27h.9v.84H61.72a2.17,2.17,0,0,1-1.54-.48,2.11,2.11,0,0,1-.51-1.59V70.41H58.61v-.82h1.06V67.67h1v1.92h2.1v.82Z"/><path class="cls-3" d="M66.35,69.84A3.15,3.15,0,0,1,68,69.45v1h-.27A2.49,2.49,0,0,0,66,71,2.45,2.45,0,0,0,65.36,73v4.27h-1V69.59h1v1.35A2.35,2.35,0,0,1,66.35,69.84Z"/><path class="cls-3" d="M70.85,76.86a3.49,3.49,0,0,1-1.35-1.37,4.13,4.13,0,0,1-.5-2.08,4.21,4.21,0,0,1,.5-2.08A3.56,3.56,0,0,1,70.88,70a3.91,3.91,0,0,1,1.94-.49,4,4,0,0,1,2,.49,3.5,3.5,0,0,1,1.38,1.37,4.6,4.6,0,0,1,0,4.15,3.48,3.48,0,0,1-1.39,1.38,4,4,0,0,1-2,.48A3.93,3.93,0,0,1,70.85,76.86Zm3.34-.71a2.69,2.69,0,0,0,1-1,3.9,3.9,0,0,0,0-3.4,2.58,2.58,0,0,0-1-1,3.05,3.05,0,0,0-2.8,0,2.52,2.52,0,0,0-1,1,3.9,3.9,0,0,0,0,3.4,2.5,2.5,0,0,0,1,1,3,3,0,0,0,1.39.34A3,3,0,0,0,74.19,76.15Z"/><path class="cls-3" d="M78.92,76.73A2.18,2.18,0,0,1,78,75.07h1a1.46,1.46,0,0,0,.6,1.05,2.44,2.44,0,0,0,1.45.4,2,2,0,0,0,1.26-.38,1.18,1.18,0,0,0,.45-.94.84.84,0,0,0-.25-.64,1.79,1.79,0,0,0-.64-.4,8.39,8.39,0,0,0-1-.32,10.9,10.9,0,0,1-1.39-.45,2.34,2.34,0,0,1-.9-.66,1.76,1.76,0,0,1-.37-1.18,1.78,1.78,0,0,1,.33-1,2.38,2.38,0,0,1,1-.76,3.43,3.43,0,0,1,1.4-.28,3,3,0,0,1,2,.63,2.24,2.24,0,0,1,.82,1.71h-1a1.48,1.48,0,0,0-.53-1.08,2.26,2.26,0,0,0-2.52-.07,1.08,1.08,0,0,0-.47.87,1,1,0,0,0,.28.74,1.84,1.84,0,0,0,.68.45c.27.1.63.22,1.09.35a9.85,9.85,0,0,1,1.31.44,2.22,2.22,0,0,1,.84.61,1.62,1.62,0,0,1,.37,1.08,1.84,1.84,0,0,1-.34,1.1,2.23,2.23,0,0,1-.94.76,3.18,3.18,0,0,1-1.38.28A3.51,3.51,0,0,1,78.92,76.73Z"/><path class="cls-3" d="M94.65,76.86a3.49,3.49,0,0,1-1.35-1.37,4.13,4.13,0,0,1-.5-2.08,4.21,4.21,0,0,1,.5-2.08A3.6,3.6,0,0,1,94.67,70a4.13,4.13,0,0,1,3.9,0A3.5,3.5,0,0,1,100,71.33a4.6,4.6,0,0,1,0,4.15,3.48,3.48,0,0,1-1.39,1.38,4,4,0,0,1-2,.48A3.93,3.93,0,0,1,94.65,76.86ZM98,76.15a2.69,2.69,0,0,0,1.05-1,3.9,3.9,0,0,0,0-3.4,2.58,2.58,0,0,0-1-1,3.05,3.05,0,0,0-2.8,0,2.52,2.52,0,0,0-1,1,3.9,3.9,0,0,0,0,3.4,2.5,2.5,0,0,0,1,1,3,3,0,0,0,1.39.34A3,3,0,0,0,98,76.15Z"/><path class="cls-3" d="M104.37,70a3.38,3.38,0,0,1,1.87-.51,3.65,3.65,0,0,1,1.87.49,3.31,3.31,0,0,1,1.3,1.37,4.38,4.38,0,0,1,.47,2.06,4.46,4.46,0,0,1-.47,2.08,3.4,3.4,0,0,1-1.3,1.38,3.6,3.6,0,0,1-1.87.49,3.44,3.44,0,0,1-1.88-.49,3,3,0,0,1-1.16-1.3v1.68h-1V66.87h1v4.41A3,3,0,0,1,104.37,70Zm4.14,1.77a2.58,2.58,0,0,0-1-1.06,3,3,0,0,0-1.46-.36,2.71,2.71,0,0,0-1.43.38,2.66,2.66,0,0,0-1,1.07,3.41,3.41,0,0,0-.38,1.63,3.37,3.37,0,0,0,.38,1.62,2.62,2.62,0,0,0,1,1.08,2.81,2.81,0,0,0,1.43.38,2.86,2.86,0,0,0,1.46-.37,2.58,2.58,0,0,0,1-1.08,3.46,3.46,0,0,0,.37-1.65A3.39,3.39,0,0,0,108.51,71.75Z"/><path class="cls-3" d="M112.72,79a1.79,1.79,0,0,1-.46,1.36,1.92,1.92,0,0,1-1.39.44h-.68V80h.53a1.07,1.07,0,0,0,.78-.23,1,1,0,0,0,.24-.78v-9.4h1Zm-1-11.11a.69.69,0,0,1-.21-.51.66.66,0,0,1,.21-.51.69.69,0,0,1,.51-.21.7.7,0,0,1,.69.72.69.69,0,0,1-.2.51.65.65,0,0,1-.49.21A.69.69,0,0,1,111.74,67.93Z"/><path class="cls-3" d="M121.85,73.79h-6.34a2.89,2.89,0,0,0,.42,1.48,2.46,2.46,0,0,0,1,.93,2.91,2.91,0,0,0,1.34.32,2.71,2.71,0,0,0,1.61-.47,2.16,2.16,0,0,0,.86-1.24h1a3.22,3.22,0,0,1-1.19,1.83,3.67,3.67,0,0,1-2.31.7,3.89,3.89,0,0,1-1.93-.48A3.38,3.38,0,0,1,115,75.49a4.24,4.24,0,0,1-.49-2.08,4.38,4.38,0,0,1,.48-2.09A3.38,3.38,0,0,1,116.32,70a3.9,3.9,0,0,1,1.94-.48,3.75,3.75,0,0,1,1.92.48,3.44,3.44,0,0,1,1.26,1.28,3.71,3.71,0,0,1,.44,1.79A7.51,7.51,0,0,1,121.85,73.79Zm-1.31-2.26a2.36,2.36,0,0,0-1-.91,3,3,0,0,0-1.35-.31,2.69,2.69,0,0,0-1.86.7,2.8,2.8,0,0,0-.85,2h5.37A2.7,2.7,0,0,0,120.54,71.53Z"/><path class="cls-3" d="M124.94,70.41v4.75a1,1,0,0,0,1.21,1.23H127v.84H126a2.17,2.17,0,0,1-1.54-.48,2.15,2.15,0,0,1-.5-1.59V70.41h-1.07v-.82H124V67.67h1v1.92H127v.82Z"/><path class="cls-3" d="M128.64,67.93a.69.69,0,0,1-.21-.51.66.66,0,0,1,.21-.51.71.71,0,0,1,1,0,.66.66,0,0,1,.21.51.71.71,0,0,1-1.22.51Zm1,1.66v7.64h-1V69.59Z"/><path class="cls-3" d="M134.57,76.28l2.58-6.69h1l-3.07,7.64H134L131,69.59H132Z"/><path class="cls-3" d="M140.92,76.86a3.58,3.58,0,0,1-1.36-1.37,4.62,4.62,0,0,1,0-4.16A3.6,3.6,0,0,1,140.94,70a4.13,4.13,0,0,1,3.9,0,3.41,3.41,0,0,1,1.37,1.37,4.11,4.11,0,0,1,.5,2.08,4.23,4.23,0,0,1-.5,2.07,3.48,3.48,0,0,1-1.39,1.38,4,4,0,0,1-2,.48A3.93,3.93,0,0,1,140.92,76.86Zm3.34-.71a2.6,2.6,0,0,0,1-1,3.32,3.32,0,0,0,.4-1.7,3.42,3.42,0,0,0-.39-1.7,2.58,2.58,0,0,0-1-1,3.05,3.05,0,0,0-2.8,0,2.52,2.52,0,0,0-1,1,3.9,3.9,0,0,0,0,3.4,2.5,2.5,0,0,0,1,1,3,3,0,0,0,1.39.34A3,3,0,0,0,144.26,76.15Z"/><path class="cls-3" d="M149,76.73a2.18,2.18,0,0,1-.93-1.66h1a1.48,1.48,0,0,0,.61,1.05,2.44,2.44,0,0,0,1.45.4,2,2,0,0,0,1.26-.38,1.18,1.18,0,0,0,.45-.94.84.84,0,0,0-.25-.64,1.79,1.79,0,0,0-.64-.4,9,9,0,0,0-1-.32,10.9,10.9,0,0,1-1.39-.45,2.34,2.34,0,0,1-.9-.66,1.76,1.76,0,0,1-.37-1.18,1.78,1.78,0,0,1,.33-1,2.38,2.38,0,0,1,1-.76,3.43,3.43,0,0,1,1.4-.28,3,3,0,0,1,2,.63,2.24,2.24,0,0,1,.82,1.71h-1a1.48,1.48,0,0,0-.53-1.08,1.94,1.94,0,0,0-1.32-.42,2,2,0,0,0-1.21.35,1.09,1.09,0,0,0-.46.87,1,1,0,0,0,.27.74,2,2,0,0,0,.68.45c.28.1.64.22,1.1.35a9.85,9.85,0,0,1,1.31.44,2.22,2.22,0,0,1,.84.61,1.62,1.62,0,0,1,.37,1.08,1.91,1.91,0,0,1-.34,1.1,2.23,2.23,0,0,1-.94.76,3.18,3.18,0,0,1-1.38.28A3.51,3.51,0,0,1,149,76.73Z"/><path class="cls-3" d="M160.89,76.86a3.45,3.45,0,0,1-1.36-1.37,4.24,4.24,0,0,1-.5-2.08,4.11,4.11,0,0,1,.51-2.08A3.47,3.47,0,0,1,160.91,70a3.94,3.94,0,0,1,1.94-.49,4,4,0,0,1,2,.49,3.47,3.47,0,0,1,1.37,1.37,4.21,4.21,0,0,1,.5,2.08,4.13,4.13,0,0,1-.51,2.07,3.46,3.46,0,0,1-1.38,1.38,4.06,4.06,0,0,1-2,.48A3.9,3.9,0,0,1,160.89,76.86Zm3.34-.71a2.66,2.66,0,0,0,1-1,3.86,3.86,0,0,0,0-3.4,2.66,2.66,0,0,0-1-1,3.05,3.05,0,0,0-2.8,0,2.58,2.58,0,0,0-1,1,4,4,0,0,0,0,3.4,2.62,2.62,0,0,0,1,1,3,3,0,0,0,1.4.34A3,3,0,0,0,164.23,76.15Z"/><path class="cls-3" d="M170.43,69.84a3.21,3.21,0,0,1,1.64-.39v1h-.27a2.49,2.49,0,0,0-1.71.57,2.45,2.45,0,0,0-.64,1.92v4.27h-1V69.59h1v1.35A2.38,2.38,0,0,1,170.43,69.84Z"/><path class="cls-3" d="M178.62,70a3,3,0,0,1,1.15,1.27V69.59h1v7.84a3.77,3.77,0,0,1-.46,1.86A3.06,3.06,0,0,1,179,80.54a3.71,3.71,0,0,1-1.84.44,4.08,4.08,0,0,1-2.45-.7,3,3,0,0,1-1.21-1.9h1a2.38,2.38,0,0,0,1,1.27,3,3,0,0,0,1.73.48,2.81,2.81,0,0,0,1.33-.32,2.23,2.23,0,0,0,.92-.93,3,3,0,0,0,.34-1.45V75.54a3.11,3.11,0,0,1-1.16,1.29,3.38,3.38,0,0,1-1.87.51,3.59,3.59,0,0,1-1.88-.49,3.33,3.33,0,0,1-1.3-1.38,4.34,4.34,0,0,1-.47-2.08,4.26,4.26,0,0,1,.47-2.06,3.31,3.31,0,0,1,1.3-1.37,3.68,3.68,0,0,1,1.88-.49A3.41,3.41,0,0,1,178.62,70Zm.77,1.8a2.76,2.76,0,0,0-2.47-1.45,2.91,2.91,0,0,0-1.45.36,2.67,2.67,0,0,0-1,1.06,3.51,3.51,0,0,0-.37,1.64,3.58,3.58,0,0,0,.37,1.65,2.66,2.66,0,0,0,1,1.08,3,3,0,0,0,2.89,0,2.68,2.68,0,0,0,1-1.08,3.37,3.37,0,0,0,.38-1.62A3.41,3.41,0,0,0,179.39,71.78Z"/><path class="cls-3" d="M183,71.33a3.31,3.31,0,0,1,1.3-1.37,3.68,3.68,0,0,1,1.88-.49,3.37,3.37,0,0,1,1.88.51,2.91,2.91,0,0,1,1.15,1.29V69.59h1v7.64h-1V75.54a3.11,3.11,0,0,1-1.16,1.29,3.39,3.39,0,0,1-1.88.51,3.58,3.58,0,0,1-1.87-.49,3.33,3.33,0,0,1-1.3-1.38,4.34,4.34,0,0,1-.47-2.08A4.26,4.26,0,0,1,183,71.33Zm5.83.45a2.76,2.76,0,0,0-2.47-1.45,2.91,2.91,0,0,0-1.45.36,2.67,2.67,0,0,0-1,1.06,3.51,3.51,0,0,0-.37,1.64A3.58,3.58,0,0,0,183.9,75a2.66,2.66,0,0,0,1,1.08,3,3,0,0,0,2.89,0,2.68,2.68,0,0,0,1-1.08,3.37,3.37,0,0,0,.38-1.62A3.41,3.41,0,0,0,188.84,71.78Z"/><path class="cls-3" d="M198.26,70.29a3.3,3.3,0,0,1,.87,2.46v4.48h-1V72.86a2.68,2.68,0,0,0-.62-1.9,2.23,2.23,0,0,0-1.7-.66,2.31,2.31,0,0,0-1.77.7,2.9,2.9,0,0,0-.65,2.06v4.17h-1V69.59h1v1.3a2.45,2.45,0,0,1,1-1.07,3.21,3.21,0,0,1,1.56-.37A3.1,3.1,0,0,1,198.26,70.29Z"/><path class="cls-3" d="M201.28,67.93a.69.69,0,0,1-.21-.51.66.66,0,0,1,.21-.51.71.71,0,0,1,1,0,.66.66,0,0,1,.21.51.71.71,0,0,1-1.22.51Zm1,1.66v7.64h-1V69.59Z"/><path class="cls-3" d="M205,76.42h4v.81H203.9v-.81l3.93-6H204v-.81h5v.81Z"/><path class="cls-3" d="M210.7,71.33A3.31,3.31,0,0,1,212,70a3.68,3.68,0,0,1,1.88-.49,3.42,3.42,0,0,1,1.89.51,3,3,0,0,1,1.14,1.29V69.59h1v7.64h-1V75.54a3.11,3.11,0,0,1-1.16,1.29,3.39,3.39,0,0,1-1.88.51,3.58,3.58,0,0,1-1.87-.49,3.33,3.33,0,0,1-1.3-1.38,4.34,4.34,0,0,1-.47-2.08A4.26,4.26,0,0,1,210.7,71.33Zm5.83.45a2.76,2.76,0,0,0-2.47-1.45,2.91,2.91,0,0,0-1.45.36,2.67,2.67,0,0,0-1,1.06,3.51,3.51,0,0,0-.37,1.64,3.58,3.58,0,0,0,.37,1.65,2.66,2.66,0,0,0,1,1.08,3,3,0,0,0,2.89,0,2.68,2.68,0,0,0,1-1.08,3.37,3.37,0,0,0,.38-1.62A3.41,3.41,0,0,0,216.53,71.78Z"/><path class="cls-3" d="M220.15,71.33A3.42,3.42,0,0,1,221.47,70a4.13,4.13,0,0,1,4.25.21,3.17,3.17,0,0,1,1.18,1.91h-1.05a2.19,2.19,0,0,0-.84-1.3,2.74,2.74,0,0,0-1.62-.47,2.81,2.81,0,0,0-1.39.35,2.53,2.53,0,0,0-1,1,3.65,3.65,0,0,0-.36,1.7,3.72,3.72,0,0,0,.36,1.71,2.53,2.53,0,0,0,1,1,2.81,2.81,0,0,0,1.39.35,2.74,2.74,0,0,0,1.62-.47,2.15,2.15,0,0,0,.84-1.31h1.05a3.18,3.18,0,0,1-1.19,1.89,3.71,3.71,0,0,1-2.32.71,3.8,3.8,0,0,1-1.92-.48,3.42,3.42,0,0,1-1.32-1.37,4.84,4.84,0,0,1,0-4.16Z"/><path class="cls-3" d="M228.69,67.93a.69.69,0,0,1-.21-.51.66.66,0,0,1,.21-.51.71.71,0,0,1,1,0,.66.66,0,0,1,.21.51.71.71,0,0,1-1.22.51Zm1,1.66v7.64h-1V69.59Z"/><path class="cls-3" d="M233.32,76.86A3.51,3.51,0,0,1,232,75.49a4.24,4.24,0,0,1-.49-2.08,4.11,4.11,0,0,1,.5-2.08A3.54,3.54,0,0,1,233.34,70a4.13,4.13,0,0,1,3.9,0,3.41,3.41,0,0,1,1.37,1.37,4.11,4.11,0,0,1,.5,2.08,4.23,4.23,0,0,1-.5,2.07,3.48,3.48,0,0,1-1.39,1.38,4,4,0,0,1-2,.48A3.93,3.93,0,0,1,233.32,76.86Zm3.34-.71a2.6,2.6,0,0,0,1-1,3.32,3.32,0,0,0,.4-1.7,3.42,3.42,0,0,0-.39-1.7,2.6,2.6,0,0,0-1-1,3,3,0,0,0-2.79,0,2.52,2.52,0,0,0-1,1,3.9,3.9,0,0,0,0,3.4,2.5,2.5,0,0,0,1,1,3,3,0,0,0,1.39.34A3,3,0,0,0,236.66,76.15Z"/><path class="cls-3" d="M246.73,70.29a3.33,3.33,0,0,1,.86,2.46v4.48h-1V72.86A2.68,2.68,0,0,0,246,71a2.25,2.25,0,0,0-1.71-.66,2.3,2.3,0,0,0-1.76.7,2.9,2.9,0,0,0-.66,2.06v4.17h-1V69.59h1v1.3a2.47,2.47,0,0,1,1.05-1.07,3.21,3.21,0,0,1,1.56-.37A3.1,3.1,0,0,1,246.73,70.29Z"/><path class="cls-3" d="M249.79,71.33a3.31,3.31,0,0,1,1.3-1.37,3.68,3.68,0,0,1,1.88-.49,3.37,3.37,0,0,1,1.88.51A2.83,2.83,0,0,1,256,71.27V69.59h1v7.64h-1V75.54a3,3,0,0,1-1.15,1.29,3.41,3.41,0,0,1-1.88.51,3.58,3.58,0,0,1-1.87-.49,3.33,3.33,0,0,1-1.3-1.38,4.34,4.34,0,0,1-.47-2.08A4.26,4.26,0,0,1,249.79,71.33Zm5.83.45a2.76,2.76,0,0,0-2.47-1.45,2.91,2.91,0,0,0-1.45.36,2.67,2.67,0,0,0-1,1.06,3.39,3.39,0,0,0-.37,1.64,3.46,3.46,0,0,0,.37,1.65,2.66,2.66,0,0,0,1,1.08,2.82,2.82,0,0,0,1.45.37,2.87,2.87,0,0,0,1.44-.38,2.75,2.75,0,0,0,1-1.08,3.37,3.37,0,0,0,.37-1.62A3.41,3.41,0,0,0,255.62,71.78Z"/><path class="cls-3" d="M260.19,66.87V77.23h-1V66.87Z"/><path class="cls-3" d="M269.31,73.79H263a2.89,2.89,0,0,0,.42,1.48,2.46,2.46,0,0,0,1,.93,2.91,2.91,0,0,0,1.34.32,2.71,2.71,0,0,0,1.61-.47,2.16,2.16,0,0,0,.86-1.24h1A3.22,3.22,0,0,1,268,76.64a3.67,3.67,0,0,1-2.31.7,3.86,3.86,0,0,1-1.93-.48,3.38,3.38,0,0,1-1.33-1.37,4.24,4.24,0,0,1-.49-2.08,4.38,4.38,0,0,1,.48-2.09A3.38,3.38,0,0,1,263.78,70a3.9,3.9,0,0,1,1.94-.48,3.69,3.69,0,0,1,1.91.48,3.39,3.39,0,0,1,1.27,1.28,3.71,3.71,0,0,1,.44,1.79A7.51,7.51,0,0,1,269.31,73.79ZM268,71.53a2.36,2.36,0,0,0-1-.91,3,3,0,0,0-1.35-.31,2.69,2.69,0,0,0-1.86.7,2.8,2.8,0,0,0-.85,2h5.37A2.7,2.7,0,0,0,268,71.53Z"/><path class="cls-3" d="M271.61,76.73a2.24,2.24,0,0,1-.93-1.66h1a1.44,1.44,0,0,0,.61,1.05,2.42,2.42,0,0,0,1.45.4,1.9,1.9,0,0,0,1.25-.38,1.18,1.18,0,0,0,.45-.94.84.84,0,0,0-.25-.64,1.84,1.84,0,0,0-.63-.4,9.23,9.23,0,0,0-1.05-.32,10.19,10.19,0,0,1-1.38-.45,2.3,2.3,0,0,1-.91-.66,1.81,1.81,0,0,1-.37-1.18,1.73,1.73,0,0,1,.34-1,2.28,2.28,0,0,1,.95-.76,3.46,3.46,0,0,1,1.4-.28,3,3,0,0,1,2,.63,2.26,2.26,0,0,1,.81,1.71h-1a1.45,1.45,0,0,0-.53-1.08,1.94,1.94,0,0,0-1.32-.42,2,2,0,0,0-1.2.35,1.06,1.06,0,0,0-.46.87,1,1,0,0,0,.27.74,1.92,1.92,0,0,0,.68.45c.27.1.63.22,1.09.35a10.61,10.61,0,0,1,1.32.44,2.39,2.39,0,0,1,.84.61,1.67,1.67,0,0,1,.36,1.08,1.84,1.84,0,0,1-.34,1.1,2.2,2.2,0,0,1-.93.76,3.23,3.23,0,0,1-1.39.28A3.53,3.53,0,0,1,271.61,76.73Z"/><path class="cls-3" d="M277.92,77.09a.72.72,0,0,1,.52-1.23.68.68,0,0,1,.49.2.74.74,0,0,1,0,1,.65.65,0,0,1-.49.21A.7.7,0,0,1,277.92,77.09Z"/></svg>