<svg id="Layer_1" data-name="Layer 1" xmlns="http://www.w3.org/2000/svg" viewBox="0 0 320.94 149.25"><defs><style>.cls-1{fill:#fff;}.cls-2{fill:#093f70;}.cls-3{fill:#1073dd;}</style></defs><rect class="cls-1" width="320.94" height="148.64" rx="5.23"/><path class="cls-2" d="M43.49,47.58a4.62,4.62,0,0,1-1.74-1.77,5.54,5.54,0,0,1,0-5.17,4.72,4.72,0,0,1,1.74-1.78,5.18,5.18,0,0,1,4.95,0,4.63,4.63,0,0,1,1.73,1.78,5.62,5.62,0,0,1,0,5.17,4.53,4.53,0,0,1-1.73,1.77,5.11,5.11,0,0,1-4.95,0Zm4.43-.72a3.56,3.56,0,0,0,1.37-1.45,5,5,0,0,0,0-4.37,3.53,3.53,0,0,0-1.37-1.44,4,4,0,0,0-3.92,0A3.47,3.47,0,0,0,42.63,41a4.94,4.94,0,0,0,0,4.37A3.49,3.49,0,0,0,44,46.86a4,4,0,0,0,3.92,0Z"/><path class="cls-2" d="M55.6,41.31H53.83v6.81h-1V41.31H51.78v-.83h1.07V40a2.43,2.43,0,0,1,.63-1.84,3,3,0,0,1,2.07-.58v.84a2,2,0,0,0-1.34.36A1.61,1.61,0,0,0,53.83,40v.53H55.6Z"/><path class="cls-2" d="M59.11,40.73a3.17,3.17,0,0,1,1.63-.39v1h-.26a2.16,2.16,0,0,0-2.36,2.49v4.27h-1V40.48h1v1.36A2.43,2.43,0,0,1,59.11,40.73Z"/><path class="cls-2" d="M69.1,44.68H62.76a3.1,3.1,0,0,0,.42,1.48,2.39,2.39,0,0,0,1,.93,2.92,2.92,0,0,0,1.35.32,2.7,2.7,0,0,0,1.6-.46A2.21,2.21,0,0,0,68,45.7h1a3.26,3.26,0,0,1-1.2,1.83,3.67,3.67,0,0,1-2.3.71,3.81,3.81,0,0,1-1.94-.49,3.38,3.38,0,0,1-1.33-1.37,4.18,4.18,0,0,1-.49-2.08,4.32,4.32,0,0,1,.48-2.08,3.34,3.34,0,0,1,1.33-1.38,4,4,0,0,1,1.95-.47,3.83,3.83,0,0,1,1.91.47,3.44,3.44,0,0,1,1.26,1.28,3.74,3.74,0,0,1,.44,1.79A7.37,7.37,0,0,1,69.1,44.68Zm-1.31-2.25a2.24,2.24,0,0,0-1-.91,2.91,2.91,0,0,0-1.35-.31,2.66,2.66,0,0,0-1.86.7,2.76,2.76,0,0,0-.85,2h5.37A2.67,2.67,0,0,0,67.79,42.43Z"/><path class="cls-2" d="M71,42.22a3.39,3.39,0,0,1,1.31-1.37,3.8,3.8,0,0,1,1.92-.48,3.71,3.71,0,0,1,2.33.7A3.21,3.21,0,0,1,77.7,43h-1a2.15,2.15,0,0,0-.85-1.29,2.65,2.65,0,0,0-1.62-.47,2.77,2.77,0,0,0-1.38.35,2.41,2.41,0,0,0-1,1,3.66,3.66,0,0,0-.35,1.7A3.73,3.73,0,0,0,71.82,46a2.38,2.38,0,0,0,1,1.05,2.77,2.77,0,0,0,1.38.35,2.72,2.72,0,0,0,1.62-.47,2.17,2.17,0,0,0,.85-1.31h1a3.21,3.21,0,0,1-1.19,1.89,4.07,4.07,0,0,1-4.25.23A3.39,3.39,0,0,1,71,46.38a4.29,4.29,0,0,1-.48-2.08A4.34,4.34,0,0,1,71,42.22Z"/><path class="cls-2" d="M86.39,44.68H80.05a3.1,3.1,0,0,0,.42,1.48,2.39,2.39,0,0,0,1,.93,2.92,2.92,0,0,0,1.35.32,2.7,2.7,0,0,0,1.6-.46,2.21,2.21,0,0,0,.86-1.25h1a3.26,3.26,0,0,1-1.2,1.83,3.67,3.67,0,0,1-2.3.71,3.81,3.81,0,0,1-1.94-.49,3.38,3.38,0,0,1-1.33-1.37,4.18,4.18,0,0,1-.49-2.08,4.32,4.32,0,0,1,.48-2.08,3.34,3.34,0,0,1,1.33-1.38,4,4,0,0,1,2-.47,3.83,3.83,0,0,1,1.91.47A3.44,3.44,0,0,1,86,42.12a3.74,3.74,0,0,1,.44,1.79A7.37,7.37,0,0,1,86.39,44.68Zm-1.31-2.25a2.24,2.24,0,0,0-1-.91,2.91,2.91,0,0,0-1.35-.31,2.68,2.68,0,0,0-1.86.7,2.76,2.76,0,0,0-.85,2h5.37A2.67,2.67,0,0,0,85.08,42.43Z"/><path class="cls-2" d="M99.5,41.19a3.29,3.29,0,0,1,.85,2.45v4.48h-1V43.76a2.75,2.75,0,0,0-.6-1.91,2.11,2.11,0,0,0-1.64-.66,2.19,2.19,0,0,0-1.72.72A3,3,0,0,0,94.78,44v4.14h-1V43.76a2.75,2.75,0,0,0-.6-1.91,2.12,2.12,0,0,0-1.65-.66,2.21,2.21,0,0,0-1.73.72A3,3,0,0,0,89.19,44v4.14h-1V40.48h1V41.8a2.49,2.49,0,0,1,1-1.09,3,3,0,0,1,1.49-.37,3.17,3.17,0,0,1,1.75.48,2.61,2.61,0,0,1,1.08,1.4,2.64,2.64,0,0,1,1.06-1.4,3.07,3.07,0,0,1,1.7-.48A2.93,2.93,0,0,1,99.5,41.19Z"/><path class="cls-2" d="M103.92,47.75a3.49,3.49,0,0,1-1.35-1.37,4.08,4.08,0,0,1-.5-2.08,4.24,4.24,0,0,1,.5-2.08A3.56,3.56,0,0,1,104,40.85a3.9,3.9,0,0,1,1.94-.48,4,4,0,0,1,2,.48,3.43,3.43,0,0,1,1.38,1.37,4.24,4.24,0,0,1,.49,2.08,4.07,4.07,0,0,1-.5,2.07,3.48,3.48,0,0,1-1.39,1.38,3.91,3.91,0,0,1-2,.49A3.83,3.83,0,0,1,103.92,47.75Zm3.34-.71a2.69,2.69,0,0,0,1-1,3.81,3.81,0,0,0,0-3.4,2.49,2.49,0,0,0-1-1,3,3,0,0,0-2.8,0,2.49,2.49,0,0,0-1,1,3.9,3.9,0,0,0,0,3.4,2.62,2.62,0,0,0,1,1,2.86,2.86,0,0,0,1.39.34A2.9,2.9,0,0,0,107.26,47Z"/><path class="cls-2" d="M112,47.63a2.2,2.2,0,0,1-.93-1.66h1a1.41,1.41,0,0,0,.6,1,2.37,2.37,0,0,0,1.45.4,1.93,1.93,0,0,0,1.26-.38,1.17,1.17,0,0,0,.45-.94.86.86,0,0,0-.25-.64,1.79,1.79,0,0,0-.64-.4,8.65,8.65,0,0,0-1-.31,10.9,10.9,0,0,1-1.39-.45,2.36,2.36,0,0,1-.9-.67,1.91,1.91,0,0,1,0-2.22,2.26,2.26,0,0,1,1-.75,3.27,3.27,0,0,1,1.4-.28,3.07,3.07,0,0,1,2,.62,2.3,2.3,0,0,1,.81,1.72h-1a1.52,1.52,0,0,0-.53-1.09,2,2,0,0,0-1.32-.41,1.92,1.92,0,0,0-1.2.35,1,1,0,0,0-.47.87,1,1,0,0,0,.28.73,1.84,1.84,0,0,0,.68.45c.27.11.63.22,1.09.36a10,10,0,0,1,1.31.43,2.14,2.14,0,0,1,.84.62,1.61,1.61,0,0,1,.37,1.07,1.84,1.84,0,0,1-.34,1.1,2.33,2.33,0,0,1-.94.77,3.33,3.33,0,0,1-1.38.28A3.58,3.58,0,0,1,112,47.63Z"/><path class="cls-2" d="M122.51,42.22a3.39,3.39,0,0,1,1.31-1.37,3.68,3.68,0,0,1,1.88-.48,3.43,3.43,0,0,1,1.82.49,3,3,0,0,1,1.19,1.27V37.76h1V48.12h-1v-1.7a2.87,2.87,0,0,1-1.15,1.3,3.3,3.3,0,0,1-1.87.52,3.75,3.75,0,0,1-1.89-.49,3.42,3.42,0,0,1-1.3-1.39,4.45,4.45,0,0,1-.47-2.07A4.3,4.3,0,0,1,122.51,42.22Zm5.82.46a2.62,2.62,0,0,0-1-1.08,2.81,2.81,0,0,0-1.43-.38,2.86,2.86,0,0,0-1.46.37,2.56,2.56,0,0,0-1,1,3.84,3.84,0,0,0,0,3.29,2.64,2.64,0,0,0,1,1.08,2.86,2.86,0,0,0,1.46.37A2.71,2.71,0,0,0,127.3,47a2.66,2.66,0,0,0,1-1.07,3.3,3.3,0,0,0,.38-1.63A3.26,3.26,0,0,0,128.33,42.68Z"/><path class="cls-2" d="M131.92,38.83a.7.7,0,0,1-.21-.52.66.66,0,0,1,.21-.51.68.68,0,0,1,.5-.2.65.65,0,0,1,.5.2.67.67,0,0,1,.22.51.71.71,0,0,1-.22.52.66.66,0,0,1-.5.21A.69.69,0,0,1,131.92,38.83Zm1,1.65v7.64h-1V40.48Z"/><path class="cls-2" d="M138.15,41.31h-1.78v6.81h-1V41.31h-1.06v-.83h1.06V40a2.39,2.39,0,0,1,.64-1.84,3,3,0,0,1,2.06-.58v.84a2,2,0,0,0-1.34.36,1.65,1.65,0,0,0-.38,1.22v.53h1.78Z"/><path class="cls-2" d="M146.57,44.68h-6.34a3.1,3.1,0,0,0,.42,1.48,2.41,2.41,0,0,0,1,.93,2.91,2.91,0,0,0,1.34.32,2.66,2.66,0,0,0,1.6-.46,2.23,2.23,0,0,0,.87-1.25h1a3.21,3.21,0,0,1-1.2,1.83,3.65,3.65,0,0,1-2.3.71,3.77,3.77,0,0,1-1.93-.49,3.4,3.4,0,0,1-1.34-1.37,4.29,4.29,0,0,1-.48-2.08,4.43,4.43,0,0,1,.47-2.08A3.4,3.4,0,0,1,141,40.84a4,4,0,0,1,2-.47,3.78,3.78,0,0,1,1.91.47,3.29,3.29,0,0,1,1.26,1.28,3.63,3.63,0,0,1,.44,1.79A7.37,7.37,0,0,1,146.57,44.68Zm-1.3-2.25a2.26,2.26,0,0,0-1-.91,2.9,2.9,0,0,0-1.34-.31,2.64,2.64,0,0,0-1.86.7,2.77,2.77,0,0,0-.86,2h5.38A2.76,2.76,0,0,0,145.27,42.43Z"/><path class="cls-2" d="M150.36,40.73a3.2,3.2,0,0,1,1.63-.39v1h-.26a2.16,2.16,0,0,0-2.36,2.49v4.27h-1V40.48h1v1.36A2.43,2.43,0,0,1,150.36,40.73Z"/><path class="cls-2" d="M160.35,44.68H154a3.1,3.1,0,0,0,.42,1.48,2.39,2.39,0,0,0,1,.93,2.92,2.92,0,0,0,1.35.32,2.68,2.68,0,0,0,1.6-.46,2.21,2.21,0,0,0,.86-1.25h1a3.26,3.26,0,0,1-1.2,1.83,3.67,3.67,0,0,1-2.3.71,3.81,3.81,0,0,1-1.94-.49,3.44,3.44,0,0,1-1.33-1.37,4.7,4.7,0,0,1,0-4.16,3.34,3.34,0,0,1,1.33-1.38,4,4,0,0,1,2-.47,3.83,3.83,0,0,1,1.91.47,3.44,3.44,0,0,1,1.26,1.28,3.74,3.74,0,0,1,.44,1.79A7.37,7.37,0,0,1,160.35,44.68ZM159,42.43a2.24,2.24,0,0,0-1-.91,2.91,2.91,0,0,0-1.35-.31,2.68,2.68,0,0,0-1.86.7,2.76,2.76,0,0,0-.85,2h5.37A2.67,2.67,0,0,0,159,42.43Z"/><path class="cls-2" d="M168,41.19a3.26,3.26,0,0,1,.87,2.45v4.48h-1V43.76a2.67,2.67,0,0,0-.63-1.91,2.21,2.21,0,0,0-1.7-.66,2.33,2.33,0,0,0-1.76.7,2.91,2.91,0,0,0-.66,2.06v4.17h-1V40.48h1v1.3a2.52,2.52,0,0,1,1-1.07,3.2,3.2,0,0,1,1.55-.37A3,3,0,0,1,168,41.19Z"/><path class="cls-2" d="M172.31,41.31v4.74a1.36,1.36,0,0,0,.26,1,1.31,1.31,0,0,0,.94.26h.9v.84h-1a2.15,2.15,0,0,1-1.54-.48,2.11,2.11,0,0,1-.51-1.59V41.31h-1.06v-.83h1.06V38.56h1v1.92h2.1v.83Z"/><path class="cls-2" d="M182.9,44.68h-6.34a3.1,3.1,0,0,0,.42,1.48,2.41,2.41,0,0,0,1,.93,2.88,2.88,0,0,0,1.34.32,2.66,2.66,0,0,0,1.6-.46,2.16,2.16,0,0,0,.86-1.25h1a3.26,3.26,0,0,1-1.2,1.83,3.67,3.67,0,0,1-2.3.71,3.77,3.77,0,0,1-1.93-.49,3.4,3.4,0,0,1-1.34-1.37,4.29,4.29,0,0,1-.48-2.08,4.43,4.43,0,0,1,.47-2.08,3.34,3.34,0,0,1,1.33-1.38,4,4,0,0,1,1.95-.47,3.78,3.78,0,0,1,1.91.47,3.29,3.29,0,0,1,1.26,1.28,3.63,3.63,0,0,1,.44,1.79A7.37,7.37,0,0,1,182.9,44.68Zm-1.3-2.25a2.26,2.26,0,0,0-1-.91,2.9,2.9,0,0,0-1.34-.31,2.64,2.64,0,0,0-1.86.7,2.77,2.77,0,0,0-.86,2h5.38A2.76,2.76,0,0,0,181.6,42.43Z"/><path class="cls-2" d="M185.21,47.63a2.2,2.2,0,0,1-.93-1.66h1a1.46,1.46,0,0,0,.61,1,2.37,2.37,0,0,0,1.45.4A2,2,0,0,0,188.6,47a1.17,1.17,0,0,0,.45-.94.86.86,0,0,0-.25-.64,1.79,1.79,0,0,0-.64-.4,9.25,9.25,0,0,0-1-.31,10.9,10.9,0,0,1-1.39-.45,2.36,2.36,0,0,1-.9-.67,1.76,1.76,0,0,1-.37-1.18,1.81,1.81,0,0,1,.33-1,2.29,2.29,0,0,1,1-.75,3.27,3.27,0,0,1,1.4-.28,3,3,0,0,1,2,.62,2.27,2.27,0,0,1,.82,1.72h-1a1.52,1.52,0,0,0-.53-1.09,2.3,2.3,0,0,0-2.53-.06,1.06,1.06,0,0,0-.46.87,1,1,0,0,0,.28.73,1.88,1.88,0,0,0,.67.45c.27.11.64.22,1.1.36a10,10,0,0,1,1.31.43,2.14,2.14,0,0,1,.84.62,1.61,1.61,0,0,1,.37,1.07,1.91,1.91,0,0,1-.34,1.1,2.33,2.33,0,0,1-.94.77,3.33,3.33,0,0,1-1.38.28A3.58,3.58,0,0,1,185.21,47.63Z"/><path class="cls-2" d="M197.11,47.75a3.45,3.45,0,0,1-1.36-1.37,4.18,4.18,0,0,1-.5-2.08,4.14,4.14,0,0,1,.51-2.08,3.47,3.47,0,0,1,1.37-1.37,4,4,0,0,1,1.94-.48,4,4,0,0,1,2,.48,3.47,3.47,0,0,1,1.37,1.37,4.24,4.24,0,0,1,.5,2.08,4.07,4.07,0,0,1-.51,2.07A3.46,3.46,0,0,1,201,47.75a4,4,0,0,1-2,.49A3.81,3.81,0,0,1,197.11,47.75Zm3.34-.71a2.66,2.66,0,0,0,1-1,3.86,3.86,0,0,0,0-3.4,2.51,2.51,0,0,0-1-1,3,3,0,0,0-2.8,0,2.49,2.49,0,0,0-1,1,4,4,0,0,0,0,3.4,2.62,2.62,0,0,0,1,1,3.05,3.05,0,0,0,2.8,0Z"/><path class="cls-2" d="M206.81,40.88a3.39,3.39,0,0,1,1.88-.51,3.67,3.67,0,0,1,1.87.48,3.31,3.31,0,0,1,1.3,1.37,4.79,4.79,0,0,1,0,4.14,3.36,3.36,0,0,1-1.3,1.39,3.67,3.67,0,0,1-1.87.49,3.3,3.3,0,0,1-1.87-.52,3,3,0,0,1-1.17-1.28v5.3h-1V40.48h1v1.68A3.15,3.15,0,0,1,206.81,40.88ZM211,42.64a2.58,2.58,0,0,0-1-1,3,3,0,0,0-2.89,0,2.68,2.68,0,0,0-1,1.08,3.37,3.37,0,0,0-.38,1.62,3.41,3.41,0,0,0,.38,1.63,2.76,2.76,0,0,0,2.47,1.45A2.82,2.82,0,0,0,210,47a2.66,2.66,0,0,0,1-1.08,3.84,3.84,0,0,0,0-3.29Z"/><path class="cls-2" d="M214.17,42.22a3.33,3.33,0,0,1,1.31-1.37,3.8,3.8,0,0,1,1.92-.48,3.71,3.71,0,0,1,2.33.7,3.15,3.15,0,0,1,1.18,1.9h-1a2.14,2.14,0,0,0-.84-1.29,2.68,2.68,0,0,0-1.62-.47,2.81,2.81,0,0,0-1.39.35,2.45,2.45,0,0,0-1,1,3.65,3.65,0,0,0-.36,1.7A3.72,3.72,0,0,0,215,46a2.42,2.42,0,0,0,1,1.05,2.81,2.81,0,0,0,1.39.35,2.74,2.74,0,0,0,1.62-.47,2.15,2.15,0,0,0,.84-1.31h1a3.12,3.12,0,0,1-1.19,1.89,3.65,3.65,0,0,1-2.32.72,3.71,3.71,0,0,1-1.92-.49,3.33,3.33,0,0,1-1.31-1.37,4.29,4.29,0,0,1-.48-2.08A4.34,4.34,0,0,1,214.17,42.22Z"/><path class="cls-2" d="M222.71,38.83a.7.7,0,0,1-.21-.52.71.71,0,1,1,1.42,0,.7.7,0,0,1-.21.52.7.7,0,0,1-1,0Zm1,1.65v7.64h-1V40.48Z"/><path class="cls-2" d="M227.33,47.75A3.58,3.58,0,0,1,226,46.38a4.18,4.18,0,0,1-.49-2.08,4.24,4.24,0,0,1,.5-2.08,3.6,3.6,0,0,1,1.37-1.37,4.2,4.2,0,0,1,3.9,0,3.41,3.41,0,0,1,1.37,1.37,4.56,4.56,0,0,1,0,4.15,3.48,3.48,0,0,1-1.39,1.38,3.93,3.93,0,0,1-2,.49A3.83,3.83,0,0,1,227.33,47.75Zm3.34-.71a2.6,2.6,0,0,0,1-1,3.32,3.32,0,0,0,.4-1.7,3.42,3.42,0,0,0-.39-1.7,2.49,2.49,0,0,0-1-1,3,3,0,0,0-2.8,0,2.44,2.44,0,0,0-1,1,3.9,3.9,0,0,0,0,3.4,2.5,2.5,0,0,0,1,1,2.86,2.86,0,0,0,1.39.34A2.9,2.9,0,0,0,230.67,47Z"/><path class="cls-2" d="M240.74,41.19a3.26,3.26,0,0,1,.87,2.45v4.48h-1V43.76a2.71,2.71,0,0,0-.62-1.91,2.24,2.24,0,0,0-1.7-.66,2.34,2.34,0,0,0-1.77.7,2.91,2.91,0,0,0-.66,2.06v4.17h-1V40.48h1v1.3a2.64,2.64,0,0,1,1.05-1.07,3.21,3.21,0,0,1,1.56-.37A3.06,3.06,0,0,1,240.74,41.19Z"/><path class="cls-2" d="M250.66,44.68h-6.34a3.1,3.1,0,0,0,.42,1.48,2.36,2.36,0,0,0,1,.93,2.88,2.88,0,0,0,1.34.32,2.68,2.68,0,0,0,1.6-.46,2.16,2.16,0,0,0,.86-1.25h1a3.26,3.26,0,0,1-1.2,1.83,3.67,3.67,0,0,1-2.3.71,3.77,3.77,0,0,1-1.93-.49,3.4,3.4,0,0,1-1.34-1.37,4.29,4.29,0,0,1-.48-2.08,4.43,4.43,0,0,1,.47-2.08,3.34,3.34,0,0,1,1.33-1.38,4,4,0,0,1,2-.47,3.81,3.81,0,0,1,1.91.47,3.29,3.29,0,0,1,1.26,1.28,3.74,3.74,0,0,1,.44,1.79A7.37,7.37,0,0,1,250.66,44.68Zm-1.31-2.25a2.19,2.19,0,0,0-1-.91,2.9,2.9,0,0,0-1.34-.31,2.64,2.64,0,0,0-1.86.7,2.77,2.77,0,0,0-.86,2h5.38A2.67,2.67,0,0,0,249.35,42.43Z"/><path class="cls-2" d="M253,47.63A2.2,2.2,0,0,1,252,46h1a1.46,1.46,0,0,0,.61,1,2.37,2.37,0,0,0,1.45.4,1.9,1.9,0,0,0,1.25-.38,1.15,1.15,0,0,0,.46-.94.86.86,0,0,0-.25-.64,1.79,1.79,0,0,0-.64-.4,9.25,9.25,0,0,0-1-.31,10.9,10.9,0,0,1-1.39-.45,2.36,2.36,0,0,1-.9-.67,1.76,1.76,0,0,1-.37-1.18,1.81,1.81,0,0,1,.33-1,2.29,2.29,0,0,1,1-.75,3.27,3.27,0,0,1,1.4-.28,3,3,0,0,1,2,.62,2.27,2.27,0,0,1,.82,1.72h-1a1.52,1.52,0,0,0-.53-1.09,2.3,2.3,0,0,0-2.53-.06,1.06,1.06,0,0,0-.46.87,1,1,0,0,0,.27.73,2,2,0,0,0,.68.45c.27.11.64.22,1.1.36a10,10,0,0,1,1.31.43,2.14,2.14,0,0,1,.84.62,1.67,1.67,0,0,1,.37,1.07,1.91,1.91,0,0,1-.34,1.1,2.33,2.33,0,0,1-.94.77,3.33,3.33,0,0,1-1.38.28A3.58,3.58,0,0,1,253,47.63Z"/><path class="cls-2" d="M263.49,42.22a3.33,3.33,0,0,1,1.31-1.37,3.68,3.68,0,0,1,1.88-.48,3.43,3.43,0,0,1,1.82.49,3,3,0,0,1,1.19,1.27V37.76h1V48.12h-1v-1.7a2.93,2.93,0,0,1-1.15,1.3,3.33,3.33,0,0,1-1.87.52,3.75,3.75,0,0,1-1.89-.49,3.42,3.42,0,0,1-1.3-1.39,4.45,4.45,0,0,1-.47-2.07A4.3,4.3,0,0,1,263.49,42.22Zm5.82.46a2.62,2.62,0,0,0-1-1.08,2.81,2.81,0,0,0-1.43-.38,2.86,2.86,0,0,0-1.46.37,2.5,2.5,0,0,0-1,1,3.84,3.84,0,0,0,0,3.29,2.58,2.58,0,0,0,1,1.08,2.86,2.86,0,0,0,1.46.37,2.71,2.71,0,0,0,1.43-.38,2.66,2.66,0,0,0,1-1.07,3.41,3.41,0,0,0,.38-1.63A3.37,3.37,0,0,0,269.31,42.68Z"/><path class="cls-2" d="M279.8,44.68h-6.34a3,3,0,0,0,.41,1.48,2.48,2.48,0,0,0,1,.93,2.91,2.91,0,0,0,1.34.32,2.71,2.71,0,0,0,1.61-.46,2.21,2.21,0,0,0,.86-1.25h1a3.19,3.19,0,0,1-1.19,1.83,3.68,3.68,0,0,1-2.31.71,3.77,3.77,0,0,1-1.93-.49,3.46,3.46,0,0,1-1.34-1.37,4.75,4.75,0,0,1,0-4.16,3.28,3.28,0,0,1,1.33-1.38,4,4,0,0,1,1.94-.47,3.78,3.78,0,0,1,1.91.47,3.29,3.29,0,0,1,1.26,1.28,3.63,3.63,0,0,1,.45,1.79A7.37,7.37,0,0,1,279.8,44.68Zm-1.31-2.25a2.24,2.24,0,0,0-1-.91,2.94,2.94,0,0,0-1.35-.31,2.64,2.64,0,0,0-1.86.7,2.76,2.76,0,0,0-.85,2h5.37A2.67,2.67,0,0,0,278.49,42.43Z"/><path class="cls-2" d="M26.26,64.43a2.26,2.26,0,0,1-.93-1.66h1a1.42,1.42,0,0,0,.61,1,2.35,2.35,0,0,0,1.45.4,1.9,1.9,0,0,0,1.25-.38,1.17,1.17,0,0,0,.45-.94.86.86,0,0,0-.25-.64,1.84,1.84,0,0,0-.63-.4,9.52,9.52,0,0,0-1-.31,10.19,10.19,0,0,1-1.38-.45,2.32,2.32,0,0,1-.91-.67,1.81,1.81,0,0,1-.37-1.18,1.75,1.75,0,0,1,.34-1,2.26,2.26,0,0,1,.95-.75,3.3,3.3,0,0,1,1.4-.28,3.07,3.07,0,0,1,2,.62A2.3,2.3,0,0,1,31,59.51H30a1.51,1.51,0,0,0-.52-1.09A2,2,0,0,0,28.17,58a1.9,1.9,0,0,0-1.2.35,1.08,1.08,0,0,0-.19,1.6,1.92,1.92,0,0,0,.68.45c.27.11.63.22,1.09.36a9.32,9.32,0,0,1,1.32.43,2.3,2.3,0,0,1,.84.62,1.66,1.66,0,0,1,.36,1.07,1.84,1.84,0,0,1-.34,1.1,2.3,2.3,0,0,1-.93.77,3.41,3.41,0,0,1-1.39.28A3.6,3.6,0,0,1,26.26,64.43Z"/><path class="cls-2" d="M39.54,57.28v7.64h-1V63.58a2.29,2.29,0,0,1-1,1.09,3.22,3.22,0,0,1-1.56.38,3,3,0,0,1-2.24-.85,3.26,3.26,0,0,1-.87-2.45V57.28h1v4.35a2.67,2.67,0,0,0,.63,1.91,2.21,2.21,0,0,0,1.7.66,2.32,2.32,0,0,0,1.76-.7,2.91,2.91,0,0,0,.66-2.06V57.28Z"/><path class="cls-2" d="M42.26,64.43a2.26,2.26,0,0,1-.93-1.66h1a1.46,1.46,0,0,0,.61,1,2.35,2.35,0,0,0,1.45.4,1.9,1.9,0,0,0,1.25-.38,1.18,1.18,0,0,0,.46-.94.87.87,0,0,0-.26-.64,1.75,1.75,0,0,0-.63-.4,9.52,9.52,0,0,0-1-.31,10.19,10.19,0,0,1-1.38-.45,2.22,2.22,0,0,1-.9-.67,1.76,1.76,0,0,1-.38-1.18,1.82,1.82,0,0,1,.34-1,2.26,2.26,0,0,1,.95-.75,3.3,3.3,0,0,1,1.4-.28,3.05,3.05,0,0,1,2,.62A2.3,2.3,0,0,1,47,59.51H46a1.51,1.51,0,0,0-.52-1.09A2,2,0,0,0,44.17,58a1.9,1.9,0,0,0-1.2.35,1.08,1.08,0,0,0-.19,1.6,1.92,1.92,0,0,0,.68.45c.27.11.63.22,1.09.36a9.32,9.32,0,0,1,1.32.43,2.3,2.3,0,0,1,.84.62,1.66,1.66,0,0,1,.36,1.07,1.9,1.9,0,0,1-.33,1.1,2.4,2.4,0,0,1-.94.77,3.38,3.38,0,0,1-1.39.28A3.6,3.6,0,0,1,42.26,64.43Z"/><path class="cls-2" d="M49,59a3.39,3.39,0,0,1,1.31-1.37,3.8,3.8,0,0,1,1.92-.48,3.71,3.71,0,0,1,2.33.7,3.18,3.18,0,0,1,1.19,1.9H54.65a2.15,2.15,0,0,0-.85-1.29A2.63,2.63,0,0,0,52.18,58a2.67,2.67,0,0,0-1.38.35,2.47,2.47,0,0,0-1,1,3.79,3.79,0,0,0-.35,1.7,3.86,3.86,0,0,0,.35,1.71,2.44,2.44,0,0,0,1,1,2.77,2.77,0,0,0,1.38.35,2.7,2.7,0,0,0,1.62-.47,2.17,2.17,0,0,0,.85-1.31H55.7a3.21,3.21,0,0,1-1.19,1.89,3.68,3.68,0,0,1-2.33.72,3.81,3.81,0,0,1-1.92-.49A3.39,3.39,0,0,1,49,63.18a4.29,4.29,0,0,1-.48-2.08A4.34,4.34,0,0,1,49,59Z"/><path class="cls-2" d="M59.47,57.53a3.17,3.17,0,0,1,1.63-.39v1h-.27a2.42,2.42,0,0,0-1.7.58,2.45,2.45,0,0,0-.65,1.91v4.27h-1V57.28h1v1.36A2.43,2.43,0,0,1,59.47,57.53Z"/><path class="cls-2" d="M62.56,55.63a.7.7,0,0,1-.21-.52.71.71,0,1,1,1.42,0,.7.7,0,0,1-.21.52.7.7,0,0,1-1,0Zm1,1.65v7.64h-1V57.28Z"/><path class="cls-2" d="M67.9,57.68a3.37,3.37,0,0,1,1.88-.51,3.69,3.69,0,0,1,1.87.48A3.37,3.37,0,0,1,73,59a4.79,4.79,0,0,1,0,4.14,3.42,3.42,0,0,1-1.3,1.39,3.7,3.7,0,0,1-1.87.49,3.36,3.36,0,0,1-1.88-.52,3,3,0,0,1-1.16-1.28v5.3h-1V57.28h1V59A3.08,3.08,0,0,1,67.9,57.68Zm4.16,1.76a2.58,2.58,0,0,0-1-1,3,3,0,0,0-2.89,0,2.68,2.68,0,0,0-1,1.08,3.37,3.37,0,0,0-.38,1.62,3.41,3.41,0,0,0,.38,1.63,2.76,2.76,0,0,0,2.46,1.45A2.83,2.83,0,0,0,71,63.81a2.66,2.66,0,0,0,1-1.08,3.84,3.84,0,0,0,0-3.29Z"/><path class="cls-2" d="M75.25,59a3.42,3.42,0,0,1,1.32-1.37,3.8,3.8,0,0,1,1.92-.48,3.71,3.71,0,0,1,2.33.7A3.16,3.16,0,0,1,82,59.77H81a2.11,2.11,0,0,0-.85-1.29A2.62,2.62,0,0,0,78.49,58a2.69,2.69,0,0,0-1.39.35,2.45,2.45,0,0,0-1,1,3.65,3.65,0,0,0-.36,1.7,3.72,3.72,0,0,0,.36,1.71,2.42,2.42,0,0,0,1,1,2.79,2.79,0,0,0,1.39.35,2.69,2.69,0,0,0,1.61-.47A2.13,2.13,0,0,0,81,62.43h1a3.16,3.16,0,0,1-1.19,1.89,3.65,3.65,0,0,1-2.32.72,3.81,3.81,0,0,1-1.92-.49,3.42,3.42,0,0,1-1.32-1.37,4.4,4.4,0,0,1-.47-2.08A4.46,4.46,0,0,1,75.25,59Z"/><path class="cls-2" d="M83.79,55.63a.7.7,0,0,1-.21-.52.66.66,0,0,1,.21-.51.69.69,0,0,1,.51-.2.68.68,0,0,1,.5.2.66.66,0,0,1,.21.51.7.7,0,0,1-.21.52.71.71,0,0,1-1,0Zm1,1.65v7.64h-1V57.28Z"/><path class="cls-2" d="M88.42,64.55a3.51,3.51,0,0,1-1.36-1.37,4.18,4.18,0,0,1-.49-2.08,4.13,4.13,0,0,1,.5-2.08,3.54,3.54,0,0,1,1.37-1.37,4.2,4.2,0,0,1,3.9,0A3.47,3.47,0,0,1,93.71,59a4.24,4.24,0,0,1,.5,2.08,4.17,4.17,0,0,1-.5,2.07,3.48,3.48,0,0,1-1.39,1.38,4,4,0,0,1-2,.49A3.94,3.94,0,0,1,88.42,64.55Zm3.34-.71a2.6,2.6,0,0,0,1-1,3.32,3.32,0,0,0,.4-1.7,3.42,3.42,0,0,0-.39-1.7,2.51,2.51,0,0,0-1-1,3,3,0,0,0-2.8,0,2.49,2.49,0,0,0-1,1,4,4,0,0,0,0,3.4,2.58,2.58,0,0,0,1,1,2.86,2.86,0,0,0,1.39.34A2.93,2.93,0,0,0,91.76,63.84ZM91.7,55l-2.87,1.66v-.75l2.87-1.8Z"/><path class="cls-2" d="M101.83,58a3.29,3.29,0,0,1,.86,2.45v4.48h-1V60.56a2.67,2.67,0,0,0-.63-1.91A2.21,2.21,0,0,0,99.4,58a2.33,2.33,0,0,0-1.76.7A2.91,2.91,0,0,0,97,60.75v4.17H96V57.28h1v1.3a2.52,2.52,0,0,1,1-1.07,3.21,3.21,0,0,1,1.56-.37A3.06,3.06,0,0,1,101.83,58Z"/><path class="cls-2" d="M105.76,63.3,104.3,67h-.67l1-3.67Z"/><path class="cls-2" d="M113.24,57.68a3.42,3.42,0,0,1,1.89-.51,3.63,3.63,0,0,1,1.86.48A3.39,3.39,0,0,1,118.3,59a4.79,4.79,0,0,1,0,4.14A3.45,3.45,0,0,1,117,64.55a3.64,3.64,0,0,1-1.86.49,3.34,3.34,0,0,1-1.88-.52,3,3,0,0,1-1.16-1.28v5.3h-1V57.28h1V59A3.06,3.06,0,0,1,113.24,57.68Zm4.16,1.76a2.62,2.62,0,0,0-1-1,3,3,0,0,0-2.9,0,2.66,2.66,0,0,0-1,1.08,3.26,3.26,0,0,0-.38,1.62,3.3,3.3,0,0,0,.38,1.63,2.7,2.7,0,0,0,1,1.07,2.77,2.77,0,0,0,1.44.38,2.86,2.86,0,0,0,1.46-.37,2.71,2.71,0,0,0,1-1.08,3.84,3.84,0,0,0,0-3.29Z"/><path class="cls-2" d="M120.59,59a3.37,3.37,0,0,1,1.3-1.37,3.74,3.74,0,0,1,1.89-.48,3.47,3.47,0,0,1,1.88.5A2.93,2.93,0,0,1,126.8,59V57.28h1v7.64h-1V63.23a3.09,3.09,0,0,1-1.15,1.29,3.35,3.35,0,0,1-1.89.52,3.7,3.7,0,0,1-1.87-.49,3.42,3.42,0,0,1-1.3-1.39,4.79,4.79,0,0,1,0-4.14Zm5.83.46a2.62,2.62,0,0,0-1-1.08A2.81,2.81,0,0,0,124,58a2.86,2.86,0,0,0-1.46.37,2.56,2.56,0,0,0-1,1,3.84,3.84,0,0,0,0,3.29,2.64,2.64,0,0,0,1,1.08,2.86,2.86,0,0,0,1.46.37,2.71,2.71,0,0,0,1.43-.38,2.66,2.66,0,0,0,1-1.07,3.3,3.3,0,0,0,.38-1.63A3.26,3.26,0,0,0,126.42,59.48Z"/><path class="cls-2" d="M132,57.53a3.17,3.17,0,0,1,1.63-.39v1h-.27a2.45,2.45,0,0,0-1.71.58,2.48,2.48,0,0,0-.64,1.91v4.27h-1V57.28h1v1.36A2.38,2.38,0,0,1,132,57.53Z"/><path class="cls-2" d="M135.11,59a3.37,3.37,0,0,1,1.3-1.37,3.7,3.7,0,0,1,1.88-.48,3.51,3.51,0,0,1,1.89.5A2.93,2.93,0,0,1,141.32,59V57.28h1v7.64h-1V63.23a3,3,0,0,1-1.16,1.29,3.29,3.29,0,0,1-1.88.52,3.7,3.7,0,0,1-1.87-.49,3.42,3.42,0,0,1-1.3-1.39,4.79,4.79,0,0,1,0-4.14Zm5.83.46a2.62,2.62,0,0,0-1-1.08,2.81,2.81,0,0,0-1.43-.38,2.86,2.86,0,0,0-1.46.37,2.5,2.5,0,0,0-1,1,3.75,3.75,0,0,0,0,3.29,2.58,2.58,0,0,0,1,1.08,2.86,2.86,0,0,0,1.46.37,2.71,2.71,0,0,0,1.43-.38,2.66,2.66,0,0,0,1-1.07,3.41,3.41,0,0,0,.38-1.63A3.37,3.37,0,0,0,140.94,59.48Z"/><path class="cls-2" d="M148.4,59a3.46,3.46,0,0,1,1.31-1.37,3.7,3.7,0,0,1,1.88-.48,3.41,3.41,0,0,1,1.88.51A2.88,2.88,0,0,1,154.6,59V57.28h1V68.54h-1v-5.3a2.79,2.79,0,0,1-1.14,1.28,3.37,3.37,0,0,1-1.89.52,3.67,3.67,0,0,1-1.87-.49,3.36,3.36,0,0,1-1.3-1.39,4.79,4.79,0,0,1,0-4.14Zm5.83.46a2.75,2.75,0,0,0-1-1.08,3,3,0,0,0-2.89,0,2.58,2.58,0,0,0-1,1,3.84,3.84,0,0,0,0,3.29,2.66,2.66,0,0,0,1,1.08,2.82,2.82,0,0,0,1.45.37,2.75,2.75,0,0,0,1.44-.38,2.79,2.79,0,0,0,1-1.07,3.41,3.41,0,0,0,.37-1.63A3.37,3.37,0,0,0,154.23,59.48Z"/><path class="cls-2" d="M164.45,57.28v7.64h-1V63.58a2.34,2.34,0,0,1-1,1.09,3.28,3.28,0,0,1-1.57.38,3.06,3.06,0,0,1-2.24-.85,3.26,3.26,0,0,1-.87-2.45V57.28h1v4.35a2.71,2.71,0,0,0,.62,1.91,2.24,2.24,0,0,0,1.7.66,2.34,2.34,0,0,0,1.77-.7,2.91,2.91,0,0,0,.66-2.06V57.28Z"/><path class="cls-2" d="M173.57,61.48h-6.34a3.1,3.1,0,0,0,.42,1.48,2.42,2.42,0,0,0,1,.93,2.88,2.88,0,0,0,1.34.32,2.68,2.68,0,0,0,1.6-.46,2.16,2.16,0,0,0,.86-1.25h1a3.26,3.26,0,0,1-1.2,1.83A3.67,3.67,0,0,1,170,65a3.87,3.87,0,0,1-1.93-.49,3.4,3.4,0,0,1-1.34-1.37,4.29,4.29,0,0,1-.48-2.08,4.43,4.43,0,0,1,.47-2.08A3.34,3.34,0,0,1,168,57.64a4,4,0,0,1,2-.47,3.81,3.81,0,0,1,1.91.47,3.29,3.29,0,0,1,1.26,1.28,3.63,3.63,0,0,1,.44,1.79A7.37,7.37,0,0,1,173.57,61.48Zm-1.31-2.25a2.19,2.19,0,0,0-1-.91A2.9,2.9,0,0,0,170,58a2.64,2.64,0,0,0-1.86.7,2.77,2.77,0,0,0-.86,2h5.38A2.67,2.67,0,0,0,172.26,59.23Z"/><path class="cls-2" d="M185.85,57.28v7.64h-1V63.58a2.32,2.32,0,0,1-1,1.09,3.28,3.28,0,0,1-1.57.38A3,3,0,0,1,180,64.2a3.26,3.26,0,0,1-.87-2.45V57.28h1v4.35a2.66,2.66,0,0,0,.62,1.91,2.21,2.21,0,0,0,1.7.66,2.32,2.32,0,0,0,1.76-.7,2.91,2.91,0,0,0,.66-2.06V57.28Z"/><path class="cls-2" d="M188.57,64.43a2.26,2.26,0,0,1-.93-1.66h1a1.46,1.46,0,0,0,.61,1,2.35,2.35,0,0,0,1.45.4,1.9,1.9,0,0,0,1.25-.38,1.15,1.15,0,0,0,.46-.94.9.9,0,0,0-.25-.64,1.79,1.79,0,0,0-.64-.4,10,10,0,0,0-1-.31,10.39,10.39,0,0,1-1.39-.45,2.22,2.22,0,0,1-.9-.67,1.76,1.76,0,0,1-.37-1.18,1.81,1.81,0,0,1,.33-1,2.32,2.32,0,0,1,1-.75,3.3,3.3,0,0,1,1.4-.28,3.05,3.05,0,0,1,2,.62,2.23,2.23,0,0,1,.81,1.72h-1a1.48,1.48,0,0,0-.52-1.09,2,2,0,0,0-1.32-.41,1.91,1.91,0,0,0-1.21.35,1.08,1.08,0,0,0-.19,1.6,1.92,1.92,0,0,0,.68.45c.27.11.64.22,1.09.36a9.32,9.32,0,0,1,1.32.43,2.14,2.14,0,0,1,.84.62,1.66,1.66,0,0,1,.36,1.07,1.9,1.9,0,0,1-.33,1.1,2.4,2.4,0,0,1-.94.77,3.35,3.35,0,0,1-1.39.28A3.62,3.62,0,0,1,188.57,64.43Z"/><path class="cls-2" d="M196.51,58.11v4.74a1,1,0,0,0,1.2,1.23h.9v.84h-1.05a2.15,2.15,0,0,1-1.54-.48,2.11,2.11,0,0,1-.51-1.59V58.11h-1.06v-.83h1.06V55.36h1v1.92h2.1v.83Z"/><path class="cls-2" d="M207.1,61.48h-6.34a3.1,3.1,0,0,0,.42,1.48,2.42,2.42,0,0,0,1,.93,2.88,2.88,0,0,0,1.34.32,2.68,2.68,0,0,0,1.6-.46A2.16,2.16,0,0,0,206,62.5h1a3.26,3.26,0,0,1-1.2,1.83,3.67,3.67,0,0,1-2.3.71,3.87,3.87,0,0,1-1.93-.49,3.4,3.4,0,0,1-1.34-1.37,4.29,4.29,0,0,1-.48-2.08,4.43,4.43,0,0,1,.47-2.08,3.34,3.34,0,0,1,1.33-1.38,4,4,0,0,1,2-.47,3.81,3.81,0,0,1,1.91.47,3.29,3.29,0,0,1,1.26,1.28,3.74,3.74,0,0,1,.44,1.79A7.37,7.37,0,0,1,207.1,61.48Zm-1.31-2.25a2.19,2.19,0,0,0-1-.91,2.9,2.9,0,0,0-1.34-.31,2.64,2.64,0,0,0-1.86.7,2.77,2.77,0,0,0-.86,2h5.38A2.67,2.67,0,0,0,205.79,59.23Z"/><path class="cls-2" d="M209,59a3.46,3.46,0,0,1,1.31-1.37,3.7,3.7,0,0,1,1.88-.48,3.4,3.4,0,0,1,1.82.49,3,3,0,0,1,1.19,1.27V54.56h1V64.92h-1v-1.7a2.9,2.9,0,0,1-1.14,1.3,3.36,3.36,0,0,1-1.88.52,3.68,3.68,0,0,1-1.88-.49,3.45,3.45,0,0,1-1.31-1.39,4.44,4.44,0,0,1-.46-2.07A4.3,4.3,0,0,1,209,59Zm5.83.46a2.75,2.75,0,0,0-1-1.08,2.87,2.87,0,0,0-1.44-.38,2.79,2.79,0,0,0-1.45.37,2.58,2.58,0,0,0-1,1,3.84,3.84,0,0,0,0,3.29,2.66,2.66,0,0,0,1,1.08,2.83,2.83,0,0,0,3.92-1.08,3.41,3.41,0,0,0,.37-1.63A3.37,3.37,0,0,0,214.78,59.48Z"/><path class="cls-2" d="M229.1,61.48h-6.35a3.1,3.1,0,0,0,.42,1.48,2.55,2.55,0,0,0,1,.93,2.91,2.91,0,0,0,1.34.32,2.71,2.71,0,0,0,1.61-.46A2.21,2.21,0,0,0,228,62.5h1a3.19,3.19,0,0,1-1.19,1.83,3.68,3.68,0,0,1-2.31.71,3.87,3.87,0,0,1-1.93-.49,3.46,3.46,0,0,1-1.34-1.37,4.75,4.75,0,0,1,0-4.16,3.28,3.28,0,0,1,1.33-1.38,4,4,0,0,1,1.94-.47,3.78,3.78,0,0,1,1.91.47,3.29,3.29,0,0,1,1.26,1.28,3.63,3.63,0,0,1,.44,1.79C229.12,61.05,229.12,61.3,229.1,61.48Zm-1.31-2.25a2.24,2.24,0,0,0-1-.91,2.94,2.94,0,0,0-1.35-.31,2.64,2.64,0,0,0-1.86.7,2.81,2.81,0,0,0-.86,2h5.38A2.67,2.67,0,0,0,227.79,59.23Z"/><path class="cls-2" d="M231.9,54.56V64.92h-1V54.56Z"/><path class="cls-2" d="M234.11,55.63a.7.7,0,0,1-.21-.52.66.66,0,0,1,.21-.51.68.68,0,0,1,.5-.2.69.69,0,0,1,.51.2.66.66,0,0,1,.21.51.72.72,0,0,1-.72.73A.69.69,0,0,1,234.11,55.63Zm1,1.65v7.64h-1V57.28Z"/><path class="cls-2" d="M238.37,66.73a1.78,1.78,0,0,1-.47,1.36,1.89,1.89,0,0,1-1.38.45h-.69V67.7h.53a1.08,1.08,0,0,0,.79-.24,1,1,0,0,0,.23-.77V57.28h1Zm-1-11.1a.74.74,0,0,1-.21-.52.7.7,0,0,1,.72-.71.68.68,0,0,1,.5.2.69.69,0,0,1,.2.51.73.73,0,0,1-.2.52.69.69,0,0,1-.5.21A.71.71,0,0,1,237.38,55.63Z"/><path class="cls-2" d="M240.63,59a3.31,3.31,0,0,1,1.3-1.37,3.68,3.68,0,0,1,1.88-.48,3.45,3.45,0,0,1,1.88.5A2.93,2.93,0,0,1,246.83,59V57.28h1v7.64h-1V63.23a3,3,0,0,1-1.15,1.29,3.32,3.32,0,0,1-1.88.52,3.67,3.67,0,0,1-1.87-.49,3.36,3.36,0,0,1-1.3-1.39,4.79,4.79,0,0,1,0-4.14Zm5.83.46a2.68,2.68,0,0,0-1-1.08,3,3,0,0,0-2.89,0,2.58,2.58,0,0,0-1,1,3.84,3.84,0,0,0,0,3.29,2.66,2.66,0,0,0,1,1.08,2.82,2.82,0,0,0,1.45.37,2.76,2.76,0,0,0,2.47-1.45,3.41,3.41,0,0,0,.37-1.63A3.37,3.37,0,0,0,246.46,59.48Z"/><path class="cls-2" d="M254.87,54.56V64.92h-1V54.56Z"/><path class="cls-2" d="M257.12,59a3.31,3.31,0,0,1,1.3-1.37,3.68,3.68,0,0,1,1.88-.48,3.51,3.51,0,0,1,1.89.5A3.06,3.06,0,0,1,263.33,59V57.28h1v7.64h-1V63.23a3.11,3.11,0,0,1-1.16,1.29,3.32,3.32,0,0,1-1.88.52,3.67,3.67,0,0,1-1.87-.49,3.36,3.36,0,0,1-1.3-1.39,4.79,4.79,0,0,1,0-4.14Zm5.83.46a2.68,2.68,0,0,0-1-1.08,3,3,0,0,0-2.89,0,2.58,2.58,0,0,0-1,1,3.84,3.84,0,0,0,0,3.29,2.66,2.66,0,0,0,1,1.08,2.82,2.82,0,0,0,1.45.37A2.76,2.76,0,0,0,263,62.73a3.41,3.41,0,0,0,.38-1.63A3.37,3.37,0,0,0,263,59.48Z"/><path class="cls-2" d="M270.41,59a3.39,3.39,0,0,1,1.31-1.37,3.68,3.68,0,0,1,1.88-.48,3.41,3.41,0,0,1,1.88.51A2.88,2.88,0,0,1,276.61,59V57.28h1V68.54h-1v-5.3a2.79,2.79,0,0,1-1.14,1.28,3.4,3.4,0,0,1-1.9.52,3.64,3.64,0,0,1-1.86-.49,3.45,3.45,0,0,1-1.31-1.39,4.45,4.45,0,0,1-.47-2.07A4.3,4.3,0,0,1,270.41,59Zm5.82.46a2.66,2.66,0,0,0-1-1.08,3,3,0,0,0-2.9,0,2.56,2.56,0,0,0-1,1,3.84,3.84,0,0,0,0,3.29,2.64,2.64,0,0,0,1,1.08,2.86,2.86,0,0,0,1.46.37,2.77,2.77,0,0,0,1.44-.38,2.7,2.7,0,0,0,1-1.07,3.3,3.3,0,0,0,.38-1.63A3.26,3.26,0,0,0,276.23,59.48Z"/><path class="cls-2" d="M286.45,57.28v7.64h-1V63.58a2.32,2.32,0,0,1-1,1.09,3.28,3.28,0,0,1-1.57.38,3.06,3.06,0,0,1-2.24-.85,3.26,3.26,0,0,1-.87-2.45V57.28h1v4.35a2.71,2.71,0,0,0,.62,1.91,2.23,2.23,0,0,0,1.7.66,2.34,2.34,0,0,0,1.77-.7,3,3,0,0,0,.65-2.06V57.28Z"/><path class="cls-2" d="M295.58,61.48h-6.34a3.1,3.1,0,0,0,.42,1.48,2.46,2.46,0,0,0,1,.93,2.92,2.92,0,0,0,1.35.32,2.68,2.68,0,0,0,1.6-.46,2.16,2.16,0,0,0,.86-1.25h1a3.26,3.26,0,0,1-1.2,1.83A3.67,3.67,0,0,1,292,65a3.84,3.84,0,0,1-1.93-.49,3.4,3.4,0,0,1-1.34-1.37,4.79,4.79,0,0,1,0-4.16,3.34,3.34,0,0,1,1.33-1.38,4,4,0,0,1,1.95-.47,3.81,3.81,0,0,1,1.91.47,3.36,3.36,0,0,1,1.26,1.28,3.74,3.74,0,0,1,.44,1.79A7.37,7.37,0,0,1,295.58,61.48Zm-1.31-2.25a2.19,2.19,0,0,0-1-.91A2.9,2.9,0,0,0,292,58a2.68,2.68,0,0,0-1.87.7,2.8,2.8,0,0,0-.85,2h5.38A2.76,2.76,0,0,0,294.27,59.23Z"/><path class="cls-2" d="M46.81,74.79a3.32,3.32,0,0,1,.84,2.45v4.48h-1V77.36a2.71,2.71,0,0,0-.61-1.91,2.09,2.09,0,0,0-1.63-.66,2.18,2.18,0,0,0-1.72.72,3,3,0,0,0-.65,2.07v4.14h-1V77.36a2.75,2.75,0,0,0-.61-1.91,2.12,2.12,0,0,0-1.65-.66,2.19,2.19,0,0,0-1.72.72,3,3,0,0,0-.64,2.07v4.14h-1V74.08h1V75.4a2.47,2.47,0,0,1,1-1.09,3,3,0,0,1,1.5-.37,3.16,3.16,0,0,1,1.74.48,2.67,2.67,0,0,1,1.09,1.4,2.54,2.54,0,0,1,1-1.4,3.1,3.1,0,0,1,1.71-.48A3,3,0,0,1,46.81,74.79Z"/><path class="cls-2" d="M56.71,78.28H50.37a3.1,3.1,0,0,0,.42,1.48,2.46,2.46,0,0,0,1,.93,2.92,2.92,0,0,0,1.35.32,2.68,2.68,0,0,0,1.6-.46,2.21,2.21,0,0,0,.86-1.25h1a3.26,3.26,0,0,1-1.2,1.83,3.67,3.67,0,0,1-2.3.71,3.91,3.91,0,0,1-1.94-.49A3.38,3.38,0,0,1,49.86,80a4.7,4.7,0,0,1,0-4.16,3.34,3.34,0,0,1,1.33-1.38,4,4,0,0,1,2-.47,3.83,3.83,0,0,1,1.91.47,3.44,3.44,0,0,1,1.26,1.28,3.74,3.74,0,0,1,.44,1.79A7.37,7.37,0,0,1,56.71,78.28ZM55.4,76a2.24,2.24,0,0,0-1-.91,2.91,2.91,0,0,0-1.35-.31,2.68,2.68,0,0,0-1.86.7,2.76,2.76,0,0,0-.85,2h5.37A2.67,2.67,0,0,0,55.4,76Z"/><path class="cls-2" d="M59.57,83.53a1.78,1.78,0,0,1-.47,1.36,1.89,1.89,0,0,1-1.38.45H57V84.5h.53a1.08,1.08,0,0,0,.79-.24,1,1,0,0,0,.24-.77V74.08h1Zm-1-11.1a.7.7,0,0,1-.21-.52.71.71,0,0,1,1.21-.51.69.69,0,0,1,.2.51.73.73,0,0,1-.2.52.7.7,0,0,1-1,0Z"/><path class="cls-2" d="M63.21,81.35A3.49,3.49,0,0,1,61.86,80a4.08,4.08,0,0,1-.5-2.08,4.21,4.21,0,0,1,.5-2.08,3.6,3.6,0,0,1,1.37-1.37,4.2,4.2,0,0,1,3.9,0,3.5,3.5,0,0,1,1.38,1.37,4.6,4.6,0,0,1,0,4.15,3.48,3.48,0,0,1-1.39,1.38,4,4,0,0,1-2,.49A3.94,3.94,0,0,1,63.21,81.35Zm3.34-.71a2.69,2.69,0,0,0,1-1,3.9,3.9,0,0,0,0-3.4,2.58,2.58,0,0,0-1-1,3,3,0,0,0-1.4-.34,3,3,0,0,0-1.4.34,2.52,2.52,0,0,0-1,1,3.9,3.9,0,0,0,0,3.4,2.5,2.5,0,0,0,1,1,2.86,2.86,0,0,0,1.39.34A2.9,2.9,0,0,0,66.55,80.64Z"/><path class="cls-2" d="M72.76,74.33a3.17,3.17,0,0,1,1.63-.39v1h-.26a2.16,2.16,0,0,0-2.36,2.49v4.27h-1V74.08h1v1.36A2.43,2.43,0,0,1,72.76,74.33Z"/><path class="cls-2" d="M80.18,81.23a2.26,2.26,0,0,1-.93-1.66h1a1.42,1.42,0,0,0,.61,1,2.35,2.35,0,0,0,1.45.4,1.9,1.9,0,0,0,1.25-.38,1.17,1.17,0,0,0,.45-.94.86.86,0,0,0-.25-.64,1.84,1.84,0,0,0-.63-.4,9.52,9.52,0,0,0-1-.31,10.19,10.19,0,0,1-1.38-.45,2.32,2.32,0,0,1-.91-.67A1.81,1.81,0,0,1,79.43,76a1.75,1.75,0,0,1,.34-1,2.26,2.26,0,0,1,1-.75,3.3,3.3,0,0,1,1.4-.28,3.07,3.07,0,0,1,2,.62,2.3,2.3,0,0,1,.81,1.72h-1a1.51,1.51,0,0,0-.52-1.09,2,2,0,0,0-1.33-.41,1.9,1.9,0,0,0-1.2.35,1.08,1.08,0,0,0-.19,1.6,1.92,1.92,0,0,0,.68.45c.27.11.63.22,1.09.36a9.32,9.32,0,0,1,1.32.43,2.3,2.3,0,0,1,.84.62A1.66,1.66,0,0,1,85,79.69a1.84,1.84,0,0,1-.34,1.1,2.3,2.3,0,0,1-.93.77,3.41,3.41,0,0,1-1.39.28A3.6,3.6,0,0,1,80.18,81.23Z"/><path class="cls-2" d="M93.73,78.28H87.38a3.1,3.1,0,0,0,.42,1.48,2.55,2.55,0,0,0,1,.93,2.91,2.91,0,0,0,1.34.32,2.71,2.71,0,0,0,1.61-.46,2.21,2.21,0,0,0,.86-1.25h1a3.19,3.19,0,0,1-1.19,1.83,3.7,3.7,0,0,1-2.31.71,3.87,3.87,0,0,1-1.93-.49A3.46,3.46,0,0,1,86.87,80a4.75,4.75,0,0,1,0-4.16,3.28,3.28,0,0,1,1.33-1.38A4,4,0,0,1,90.14,74a3.78,3.78,0,0,1,1.91.47,3.29,3.29,0,0,1,1.26,1.28,3.63,3.63,0,0,1,.44,1.79C93.75,77.85,93.74,78.1,93.73,78.28ZM92.42,76a2.26,2.26,0,0,0-1-.91,2.87,2.87,0,0,0-1.34-.31,2.64,2.64,0,0,0-1.86.7,2.81,2.81,0,0,0-.86,2h5.38A2.67,2.67,0,0,0,92.42,76Z"/><path class="cls-2" d="M99.4,75.82a3.39,3.39,0,0,1,1.31-1.37,3.68,3.68,0,0,1,1.88-.48,3.47,3.47,0,0,1,1.88.5,2.93,2.93,0,0,1,1.14,1.29V74.08h1v7.64h-1V80a3.09,3.09,0,0,1-1.15,1.29,3.43,3.43,0,0,1-1.89.52,3.64,3.64,0,0,1-1.86-.49A3.45,3.45,0,0,1,99.4,80a4.45,4.45,0,0,1-.47-2.07A4.39,4.39,0,0,1,99.4,75.82Zm5.83.46a2.66,2.66,0,0,0-1-1.08,3,3,0,0,0-2.9,0,2.56,2.56,0,0,0-1,1,3.41,3.41,0,0,0-.37,1.65,3.45,3.45,0,0,0,.37,1.64,2.64,2.64,0,0,0,1,1.08,2.86,2.86,0,0,0,1.46.37,2.77,2.77,0,0,0,1.44-.38,2.7,2.7,0,0,0,1-1.07,3.3,3.3,0,0,0,.38-1.63A3.26,3.26,0,0,0,105.23,76.28Z"/><path class="cls-2" d="M108.86,75.82a3.39,3.39,0,0,1,1.31-1.37,3.68,3.68,0,0,1,1.88-.48,3.43,3.43,0,0,1,1.82.49,3,3,0,0,1,1.19,1.27V71.36h1V81.72h-1V80a2.87,2.87,0,0,1-1.15,1.3,3.38,3.38,0,0,1-1.87.52,3.75,3.75,0,0,1-1.89-.49,3.49,3.49,0,0,1-1.3-1.39,4.45,4.45,0,0,1-.47-2.07A4.28,4.28,0,0,1,108.86,75.82Zm5.82.46a2.62,2.62,0,0,0-1-1.08,2.81,2.81,0,0,0-1.43-.38,2.86,2.86,0,0,0-1.46.37,2.56,2.56,0,0,0-1,1,3.41,3.41,0,0,0-.37,1.65,3.45,3.45,0,0,0,.37,1.64,2.64,2.64,0,0,0,1,1.08,2.86,2.86,0,0,0,1.46.37,2.71,2.71,0,0,0,1.43-.38,2.66,2.66,0,0,0,1-1.07,3.3,3.3,0,0,0,.38-1.63A3.26,3.26,0,0,0,114.68,76.28Z"/><path class="cls-2" d="M118.3,75.82a3.44,3.44,0,0,1,1.3-1.37,3.74,3.74,0,0,1,1.89-.48,3.47,3.47,0,0,1,1.88.5,2.93,2.93,0,0,1,1.14,1.29V74.08h1v7.64h-1V80a3.09,3.09,0,0,1-1.15,1.29,3.43,3.43,0,0,1-1.89.52,3.7,3.7,0,0,1-1.87-.49A3.49,3.49,0,0,1,118.3,80a4.45,4.45,0,0,1-.47-2.07A4.39,4.39,0,0,1,118.3,75.82Zm5.83.46a2.62,2.62,0,0,0-1-1.08,2.81,2.81,0,0,0-1.43-.38,2.86,2.86,0,0,0-1.46.37,2.56,2.56,0,0,0-1,1,3.41,3.41,0,0,0-.37,1.65,3.45,3.45,0,0,0,.37,1.64,2.64,2.64,0,0,0,1,1.08,2.86,2.86,0,0,0,1.46.37,2.71,2.71,0,0,0,1.43-.38,2.66,2.66,0,0,0,1-1.07,3.3,3.3,0,0,0,.38-1.63A3.26,3.26,0,0,0,124.13,76.28Z"/><path class="cls-2" d="M129.85,74.48a3.42,3.42,0,0,1,1.89-.51,3.63,3.63,0,0,1,1.86.48,3.39,3.39,0,0,1,1.31,1.37,4.39,4.39,0,0,1,.47,2.07,4.45,4.45,0,0,1-.47,2.07,3.45,3.45,0,0,1-1.31,1.39,3.64,3.64,0,0,1-1.86.49,3.42,3.42,0,0,1-1.88-.52A3,3,0,0,1,128.7,80v5.3h-1V74.08h1v1.68A3.06,3.06,0,0,1,129.85,74.48ZM134,76.24a2.62,2.62,0,0,0-1-1,3,3,0,0,0-2.9,0,2.66,2.66,0,0,0-1,1.08,3.26,3.26,0,0,0-.38,1.62,3.3,3.3,0,0,0,.38,1.63,2.7,2.7,0,0,0,1,1.07,2.77,2.77,0,0,0,1.44.38,2.86,2.86,0,0,0,1.46-.37,2.71,2.71,0,0,0,1-1.08,3.45,3.45,0,0,0,.37-1.64A3.41,3.41,0,0,0,134,76.24Z"/><path class="cls-2" d="M138.46,74.91v4.74a1,1,0,0,0,1.2,1.23h.9v.84H139.5a2.17,2.17,0,0,1-1.54-.48,2.15,2.15,0,0,1-.5-1.59V74.91H136.4v-.83h1.06V72.16h1v1.92h2.1v.83Z"/><path class="cls-2" d="M142.19,75.82a3.31,3.31,0,0,1,1.3-1.37,3.68,3.68,0,0,1,1.88-.48,3.45,3.45,0,0,1,1.88.5,2.93,2.93,0,0,1,1.14,1.29V74.08h1v7.64h-1V80a3,3,0,0,1-1.15,1.29,3.42,3.42,0,0,1-1.88.52,3.67,3.67,0,0,1-1.87-.49,3.36,3.36,0,0,1-1.3-1.39,4.33,4.33,0,0,1-.47-2.07A4.27,4.27,0,0,1,142.19,75.82Zm5.83.46a2.68,2.68,0,0,0-1-1.08,3,3,0,0,0-2.89,0,2.58,2.58,0,0,0-1,1,3.41,3.41,0,0,0-.37,1.65,3.45,3.45,0,0,0,.37,1.64,2.66,2.66,0,0,0,1,1.08,2.82,2.82,0,0,0,1.45.37A2.76,2.76,0,0,0,148,79.53a3.41,3.41,0,0,0,.37-1.63A3.37,3.37,0,0,0,148,76.28Z"/><path class="cls-2" d="M155.47,75.82a3.37,3.37,0,0,1,1.3-1.37,3.74,3.74,0,0,1,1.89-.48,3.49,3.49,0,0,1,1.88.5,2.93,2.93,0,0,1,1.14,1.29V74.08h1v7.64h-1V80a3.09,3.09,0,0,1-1.15,1.29,3.43,3.43,0,0,1-1.89.52,3.7,3.7,0,0,1-1.87-.49,3.42,3.42,0,0,1-1.3-1.39,4.45,4.45,0,0,1-.47-2.07A4.39,4.39,0,0,1,155.47,75.82Zm5.83.46a2.62,2.62,0,0,0-1-1.08,2.81,2.81,0,0,0-1.43-.38,2.86,2.86,0,0,0-1.46.37,2.5,2.5,0,0,0-1,1,3.41,3.41,0,0,0-.37,1.65,3.45,3.45,0,0,0,.37,1.64,2.58,2.58,0,0,0,1,1.08,2.86,2.86,0,0,0,1.46.37,2.71,2.71,0,0,0,1.43-.38,2.66,2.66,0,0,0,1-1.07,3.41,3.41,0,0,0,.38-1.63A3.37,3.37,0,0,0,161.3,76.28Z"/><path class="cls-2" d="M169.22,81.23a2.2,2.2,0,0,1-.93-1.66h1a1.42,1.42,0,0,0,.61,1,2.32,2.32,0,0,0,1.44.4,1.93,1.93,0,0,0,1.26-.38,1.17,1.17,0,0,0,.45-.94.86.86,0,0,0-.25-.64,1.79,1.79,0,0,0-.64-.4,8.65,8.65,0,0,0-1-.31,10.9,10.9,0,0,1-1.39-.45,2.36,2.36,0,0,1-.9-.67,1.91,1.91,0,0,1,0-2.22,2.26,2.26,0,0,1,.95-.75,3.3,3.3,0,0,1,1.4-.28,3.07,3.07,0,0,1,2,.62,2.3,2.3,0,0,1,.81,1.72h-1a1.49,1.49,0,0,0-.53-1.09,2,2,0,0,0-1.32-.41,1.88,1.88,0,0,0-1.2.35,1,1,0,0,0-.47.87,1,1,0,0,0,.28.73,1.92,1.92,0,0,0,.68.45c.27.11.63.22,1.09.36a8.72,8.72,0,0,1,1.31.43,2.14,2.14,0,0,1,.84.62,1.61,1.61,0,0,1,.37,1.07,1.84,1.84,0,0,1-.34,1.1,2.27,2.27,0,0,1-.94.77,3.33,3.33,0,0,1-1.38.28A3.58,3.58,0,0,1,169.22,81.23Z"/><path class="cls-2" d="M182.5,74.08v7.64h-1V80.38a2.34,2.34,0,0,1-1,1.09,3.26,3.26,0,0,1-1.57.38,3.06,3.06,0,0,1-2.24-.85,3.29,3.29,0,0,1-.86-2.45V74.08h1v4.35a2.67,2.67,0,0,0,.63,1.91,2.21,2.21,0,0,0,1.7.66,2.33,2.33,0,0,0,1.76-.7,2.91,2.91,0,0,0,.66-2.06V74.08Z"/><path class="cls-2" d="M185.22,81.23a2.26,2.26,0,0,1-.93-1.66h1a1.42,1.42,0,0,0,.61,1,2.35,2.35,0,0,0,1.45.4,1.9,1.9,0,0,0,1.25-.38,1.17,1.17,0,0,0,.45-.94.86.86,0,0,0-.25-.64,1.79,1.79,0,0,0-.64-.4,8.65,8.65,0,0,0-1-.31,10.19,10.19,0,0,1-1.38-.45,2.32,2.32,0,0,1-.91-.67,1.81,1.81,0,0,1-.37-1.18,1.75,1.75,0,0,1,.34-1,2.26,2.26,0,0,1,.95-.75,3.3,3.3,0,0,1,1.4-.28,3.07,3.07,0,0,1,2,.62,2.3,2.3,0,0,1,.81,1.72h-1a1.51,1.51,0,0,0-.52-1.09,2,2,0,0,0-1.33-.41,1.9,1.9,0,0,0-1.2.35,1.08,1.08,0,0,0-.19,1.6,1.92,1.92,0,0,0,.68.45c.27.11.63.22,1.09.36a9.32,9.32,0,0,1,1.32.43,2.3,2.3,0,0,1,.84.62,1.66,1.66,0,0,1,.36,1.07,1.84,1.84,0,0,1-.34,1.1,2.3,2.3,0,0,1-.93.77,3.41,3.41,0,0,1-1.39.28A3.6,3.6,0,0,1,185.22,81.23Z"/><path class="cls-2" d="M201.54,74.79a3.26,3.26,0,0,1,.87,2.45v4.48h-1V77.36a2.71,2.71,0,0,0-.62-1.91,2.24,2.24,0,0,0-1.7-.66,2.34,2.34,0,0,0-1.77.7,2.91,2.91,0,0,0-.66,2.06v4.17h-1V74.08h1v1.3a2.58,2.58,0,0,1,1.05-1.07,3.21,3.21,0,0,1,1.56-.37A3.06,3.06,0,0,1,201.54,74.79Z"/><path class="cls-2" d="M211.46,78.28h-6.34a3.1,3.1,0,0,0,.42,1.48,2.42,2.42,0,0,0,1,.93,2.88,2.88,0,0,0,1.34.32,2.68,2.68,0,0,0,1.6-.46,2.16,2.16,0,0,0,.86-1.25h1a3.26,3.26,0,0,1-1.2,1.83,3.67,3.67,0,0,1-2.3.71,3.87,3.87,0,0,1-1.93-.49A3.4,3.4,0,0,1,204.61,80a4.29,4.29,0,0,1-.48-2.08,4.43,4.43,0,0,1,.47-2.08,3.34,3.34,0,0,1,1.33-1.38,4,4,0,0,1,1.95-.47,3.78,3.78,0,0,1,1.91.47,3.29,3.29,0,0,1,1.26,1.28,3.74,3.74,0,0,1,.44,1.79A7.37,7.37,0,0,1,211.46,78.28ZM210.16,76a2.26,2.26,0,0,0-1-.91,2.9,2.9,0,0,0-1.34-.31,2.64,2.64,0,0,0-1.86.7,2.77,2.77,0,0,0-.86,2h5.38A2.76,2.76,0,0,0,210.16,76Z"/><path class="cls-2" d="M213.31,75.82a3.42,3.42,0,0,1,1.32-1.37,3.8,3.8,0,0,1,1.92-.48,3.71,3.71,0,0,1,2.33.7,3.16,3.16,0,0,1,1.18,1.9H219a2.11,2.11,0,0,0-.85-1.29,2.62,2.62,0,0,0-1.61-.47,2.69,2.69,0,0,0-1.39.35,2.39,2.39,0,0,0-1,1,3.65,3.65,0,0,0-.36,1.7,3.72,3.72,0,0,0,.36,1.71,2.36,2.36,0,0,0,1,1,2.79,2.79,0,0,0,1.39.35,2.69,2.69,0,0,0,1.61-.47,2.13,2.13,0,0,0,.85-1.31h1.05a3.16,3.16,0,0,1-1.19,1.89,3.67,3.67,0,0,1-2.32.72,3.81,3.81,0,0,1-1.92-.49A3.42,3.42,0,0,1,213.31,80a4.84,4.84,0,0,1,0-4.16Z"/><path class="cls-2" d="M228.75,78.28h-6.34a3.1,3.1,0,0,0,.42,1.48,2.48,2.48,0,0,0,1,.93,2.88,2.88,0,0,0,1.34.32,2.68,2.68,0,0,0,1.6-.46,2.16,2.16,0,0,0,.86-1.25h1a3.26,3.26,0,0,1-1.2,1.83,3.67,3.67,0,0,1-2.3.71,3.87,3.87,0,0,1-1.93-.49A3.4,3.4,0,0,1,221.9,80a4.29,4.29,0,0,1-.48-2.08,4.43,4.43,0,0,1,.47-2.08,3.34,3.34,0,0,1,1.33-1.38,4,4,0,0,1,1.95-.47,3.78,3.78,0,0,1,1.91.47,3.29,3.29,0,0,1,1.26,1.28,3.74,3.74,0,0,1,.44,1.79A7.37,7.37,0,0,1,228.75,78.28ZM227.45,76a2.26,2.26,0,0,0-1-.91,2.9,2.9,0,0,0-1.34-.31,2.64,2.64,0,0,0-1.86.7,2.77,2.77,0,0,0-.86,2h5.38A2.76,2.76,0,0,0,227.45,76Z"/><path class="cls-2" d="M231.06,81.23a2.2,2.2,0,0,1-.93-1.66h1a1.46,1.46,0,0,0,.61,1,2.35,2.35,0,0,0,1.45.4,2,2,0,0,0,1.26-.38,1.17,1.17,0,0,0,.45-.94.86.86,0,0,0-.25-.64,1.79,1.79,0,0,0-.64-.4,9.25,9.25,0,0,0-1-.31,10.9,10.9,0,0,1-1.39-.45,2.36,2.36,0,0,1-.9-.67,1.76,1.76,0,0,1-.37-1.18,1.81,1.81,0,0,1,.33-1,2.29,2.29,0,0,1,1-.75A3.27,3.27,0,0,1,233,74a3,3,0,0,1,2,.62,2.27,2.27,0,0,1,.82,1.72h-1a1.52,1.52,0,0,0-.53-1.09,2,2,0,0,0-1.32-.41,1.91,1.91,0,0,0-1.21.35,1.06,1.06,0,0,0-.46.87,1,1,0,0,0,.28.73,1.88,1.88,0,0,0,.67.45c.27.11.64.22,1.1.36a9.13,9.13,0,0,1,1.31.43,2.14,2.14,0,0,1,.84.62,1.61,1.61,0,0,1,.37,1.07,1.91,1.91,0,0,1-.34,1.1,2.33,2.33,0,0,1-.94.77,3.33,3.33,0,0,1-1.38.28A3.58,3.58,0,0,1,231.06,81.23Z"/><path class="cls-2" d="M237.7,72.43a.7.7,0,0,1-.21-.52.66.66,0,0,1,.21-.51.68.68,0,0,1,.5-.2.69.69,0,0,1,.51.2.66.66,0,0,1,.21.51.72.72,0,0,1-.72.73A.69.69,0,0,1,237.7,72.43Zm1,1.65v7.64h-1V74.08Z"/><path class="cls-2" d="M241,75.82a3.39,3.39,0,0,1,1.31-1.37,3.68,3.68,0,0,1,1.88-.48,3.43,3.43,0,0,1,1.82.49,3,3,0,0,1,1.19,1.27V71.36h1V81.72h-1V80a2.93,2.93,0,0,1-1.15,1.3,3.41,3.41,0,0,1-1.87.52,3.75,3.75,0,0,1-1.89-.49,3.42,3.42,0,0,1-1.3-1.39,4.45,4.45,0,0,1-.47-2.07A4.28,4.28,0,0,1,241,75.82Zm5.82.46a2.62,2.62,0,0,0-1-1.08,2.81,2.81,0,0,0-1.43-.38,2.86,2.86,0,0,0-1.46.37,2.5,2.5,0,0,0-1,1,3.41,3.41,0,0,0-.37,1.65,3.45,3.45,0,0,0,.37,1.64,2.58,2.58,0,0,0,1,1.08,2.86,2.86,0,0,0,1.46.37,2.71,2.71,0,0,0,1.43-.38,2.66,2.66,0,0,0,1-1.07,3.41,3.41,0,0,0,.38-1.63A3.37,3.37,0,0,0,246.77,76.28Z"/><path class="cls-2" d="M250.39,75.82a3.37,3.37,0,0,1,1.3-1.37,3.74,3.74,0,0,1,1.89-.48,3.49,3.49,0,0,1,1.88.5,2.93,2.93,0,0,1,1.14,1.29V74.08h1v7.64h-1V80a3,3,0,0,1-1.16,1.29,3.37,3.37,0,0,1-1.88.52,3.7,3.7,0,0,1-1.87-.49,3.42,3.42,0,0,1-1.3-1.39,4.45,4.45,0,0,1-.47-2.07A4.39,4.39,0,0,1,250.39,75.82Zm5.83.46a2.62,2.62,0,0,0-1-1.08,2.81,2.81,0,0,0-1.43-.38,2.86,2.86,0,0,0-1.46.37,2.5,2.5,0,0,0-1,1,3.41,3.41,0,0,0-.37,1.65,3.45,3.45,0,0,0,.37,1.64,2.58,2.58,0,0,0,1,1.08,2.86,2.86,0,0,0,1.46.37,2.71,2.71,0,0,0,1.43-.38,2.66,2.66,0,0,0,1-1.07,3.41,3.41,0,0,0,.38-1.63A3.37,3.37,0,0,0,256.22,76.28Z"/><path class="cls-2" d="M259.85,75.82a3.39,3.39,0,0,1,1.31-1.37A3.68,3.68,0,0,1,263,74a3.43,3.43,0,0,1,1.82.49,3,3,0,0,1,1.19,1.27V71.36h1V81.72h-1V80a2.93,2.93,0,0,1-1.15,1.3,3.41,3.41,0,0,1-1.87.52,3.75,3.75,0,0,1-1.89-.49,3.42,3.42,0,0,1-1.3-1.39,4.45,4.45,0,0,1-.47-2.07A4.28,4.28,0,0,1,259.85,75.82Zm5.82.46a2.62,2.62,0,0,0-1-1.08,2.81,2.81,0,0,0-1.43-.38,2.86,2.86,0,0,0-1.46.37,2.5,2.5,0,0,0-1,1,3.41,3.41,0,0,0-.37,1.65,3.45,3.45,0,0,0,.37,1.64,2.58,2.58,0,0,0,1,1.08,2.86,2.86,0,0,0,1.46.37,2.71,2.71,0,0,0,1.43-.38,2.66,2.66,0,0,0,1-1.07,3.41,3.41,0,0,0,.38-1.63A3.37,3.37,0,0,0,265.67,76.28Z"/><path class="cls-2" d="M276.16,78.28h-6.34a2.89,2.89,0,0,0,.42,1.48,2.46,2.46,0,0,0,1,.93,2.91,2.91,0,0,0,1.34.32,2.71,2.71,0,0,0,1.61-.46A2.21,2.21,0,0,0,275,79.3h1a3.19,3.19,0,0,1-1.19,1.83,3.7,3.7,0,0,1-2.31.71,3.87,3.87,0,0,1-1.93-.49A3.46,3.46,0,0,1,269.3,80a4.75,4.75,0,0,1,0-4.16,3.28,3.28,0,0,1,1.33-1.38,4,4,0,0,1,1.94-.47,3.78,3.78,0,0,1,1.91.47,3.29,3.29,0,0,1,1.26,1.28,3.63,3.63,0,0,1,.45,1.79A7.37,7.37,0,0,1,276.16,78.28ZM274.85,76a2.21,2.21,0,0,0-1-.91,2.87,2.87,0,0,0-1.34-.31,2.64,2.64,0,0,0-1.86.7,2.76,2.76,0,0,0-.85,2h5.37A2.67,2.67,0,0,0,274.85,76Z"/><path class="cls-2" d="M278.46,81.23a2.2,2.2,0,0,1-.93-1.66h1a1.42,1.42,0,0,0,.61,1,2.32,2.32,0,0,0,1.44.4,1.93,1.93,0,0,0,1.26-.38,1.17,1.17,0,0,0,.45-.94.86.86,0,0,0-.25-.64,1.79,1.79,0,0,0-.64-.4,8.65,8.65,0,0,0-1-.31,10.19,10.19,0,0,1-1.38-.45,2.32,2.32,0,0,1-.91-.67,1.91,1.91,0,0,1,0-2.22,2.26,2.26,0,0,1,.95-.75,3.3,3.3,0,0,1,1.4-.28,3.07,3.07,0,0,1,2,.62,2.3,2.3,0,0,1,.81,1.72h-1a1.49,1.49,0,0,0-.53-1.09,2,2,0,0,0-1.32-.41,1.9,1.9,0,0,0-1.2.35,1.08,1.08,0,0,0-.19,1.6,1.92,1.92,0,0,0,.68.45c.27.11.63.22,1.09.36a9.32,9.32,0,0,1,1.32.43,2.3,2.3,0,0,1,.84.62,1.66,1.66,0,0,1,.36,1.07,1.84,1.84,0,0,1-.34,1.1,2.3,2.3,0,0,1-.93.77,3.41,3.41,0,0,1-1.39.28A3.6,3.6,0,0,1,278.46,81.23Z"/><path class="cls-2" d="M284.77,81.58a.72.72,0,0,1,.52-1.23.68.68,0,0,1,.49.2.74.74,0,0,1,0,1,.65.65,0,0,1-.49.21A.7.7,0,0,1,284.77,81.58Z"/><path class="cls-2" d="M32,89.33A4.07,4.07,0,0,1,33.79,91a5.33,5.33,0,0,1,.62,2.63,5.25,5.25,0,0,1-.62,2.61A4,4,0,0,1,32,97.94a6.18,6.18,0,0,1-2.79.58h-2.9V88.74h2.9A6,6,0,0,1,32,89.33Zm.32,7.31a4,4,0,0,0,1.08-3,4.06,4.06,0,0,0-1.08-3,4.15,4.15,0,0,0-3.11-1.09H27.31v8.16h1.92A4.18,4.18,0,0,0,32.34,96.64Z"/><path class="cls-2" d="M43.1,95.08H36.76a3.1,3.1,0,0,0,.42,1.48,2.3,2.3,0,0,0,1,.93,2.88,2.88,0,0,0,1.34.32,2.68,2.68,0,0,0,1.6-.46A2.16,2.16,0,0,0,42,96.1h1a3.26,3.26,0,0,1-1.2,1.83,3.67,3.67,0,0,1-2.3.71,3.77,3.77,0,0,1-1.93-.49,3.4,3.4,0,0,1-1.34-1.37,4.29,4.29,0,0,1-.48-2.08,4.43,4.43,0,0,1,.47-2.08,3.34,3.34,0,0,1,1.33-1.38,4,4,0,0,1,2-.47,3.81,3.81,0,0,1,1.91.47,3.25,3.25,0,0,1,1.26,1.29,3.67,3.67,0,0,1,.44,1.78A7.37,7.37,0,0,1,43.1,95.08Zm-1.31-2.25a2.19,2.19,0,0,0-1-.91,2.9,2.9,0,0,0-1.34-.31,2.64,2.64,0,0,0-1.86.7,2.78,2.78,0,0,0-.86,2h5.38A2.67,2.67,0,0,0,41.79,92.83Z"/><path class="cls-2" d="M55.65,95.08H49.31a2.89,2.89,0,0,0,.42,1.48,2.33,2.33,0,0,0,1,.93,2.91,2.91,0,0,0,1.34.32,2.71,2.71,0,0,0,1.61-.46,2.21,2.21,0,0,0,.86-1.25h1a3.19,3.19,0,0,1-1.19,1.83,3.7,3.7,0,0,1-2.31.71,3.77,3.77,0,0,1-1.93-.49,3.46,3.46,0,0,1-1.34-1.37,4.75,4.75,0,0,1,0-4.16,3.28,3.28,0,0,1,1.33-1.38,4,4,0,0,1,1.94-.47,3.78,3.78,0,0,1,1.91.47,3.25,3.25,0,0,1,1.26,1.29,3.57,3.57,0,0,1,.45,1.78A7.37,7.37,0,0,1,55.65,95.08Zm-1.31-2.25a2.24,2.24,0,0,0-1-.91A2.94,2.94,0,0,0,52,91.61a2.64,2.64,0,0,0-1.86.7,2.78,2.78,0,0,0-.85,2h5.37A2.67,2.67,0,0,0,54.34,92.83Z"/><path class="cls-2" d="M58,98A2.2,2.2,0,0,1,57,96.37h1a1.41,1.41,0,0,0,.61,1,2.34,2.34,0,0,0,1.44.4,1.93,1.93,0,0,0,1.26-.38,1.17,1.17,0,0,0,.45-.94.86.86,0,0,0-.25-.64,1.79,1.79,0,0,0-.64-.4,8.65,8.65,0,0,0-1-.31,10.19,10.19,0,0,1-1.38-.45,2.32,2.32,0,0,1-.91-.67,1.91,1.91,0,0,1,0-2.22,2.34,2.34,0,0,1,1-.75,3.3,3.3,0,0,1,1.4-.28,3.07,3.07,0,0,1,2,.62,2.3,2.3,0,0,1,.81,1.72h-1A1.49,1.49,0,0,0,61.18,92a2,2,0,0,0-1.32-.41,2,2,0,0,0-1.2.35,1.08,1.08,0,0,0-.19,1.6,1.92,1.92,0,0,0,.68.45,10.67,10.67,0,0,0,1.09.36,10.82,10.82,0,0,1,1.32.43,2.29,2.29,0,0,1,.83.62,1.61,1.61,0,0,1,.37,1.07,1.82,1.82,0,0,1-.34,1.1,2.3,2.3,0,0,1-.93.77,3.41,3.41,0,0,1-1.39.28A3.6,3.6,0,0,1,58,98Z"/><path class="cls-2" d="M65.88,91.71v4.74a1.36,1.36,0,0,0,.27,1,1.29,1.29,0,0,0,.94.26H68v.84h-1A2.17,2.17,0,0,1,65.39,98a2.15,2.15,0,0,1-.5-1.59V91.71H63.82v-.83h1.07V89h1v1.92H68v.83Z"/><path class="cls-2" d="M69.61,92.62a3.37,3.37,0,0,1,1.3-1.37,3.74,3.74,0,0,1,1.89-.48,3.47,3.47,0,0,1,1.88.5,2.93,2.93,0,0,1,1.14,1.29V90.88h1v7.64h-1V96.83a3,3,0,0,1-1.15,1.29,3.35,3.35,0,0,1-1.89.52,3.7,3.7,0,0,1-1.87-.49,3.42,3.42,0,0,1-1.3-1.39,4.79,4.79,0,0,1,0-4.14Zm5.83.46a2.62,2.62,0,0,0-1-1.08A2.81,2.81,0,0,0,73,91.62a2.86,2.86,0,0,0-1.46.37,2.56,2.56,0,0,0-1,1.05,3.84,3.84,0,0,0,0,3.29,2.64,2.64,0,0,0,1,1.08,2.86,2.86,0,0,0,1.46.37,2.71,2.71,0,0,0,1.43-.38,2.66,2.66,0,0,0,1-1.07,3.3,3.3,0,0,0,.38-1.63A3.26,3.26,0,0,0,75.44,93.08Z"/><path class="cls-2" d="M85.89,91.71H84.11v6.81h-1V91.71H82.06v-.83h1.07v-.53a2.39,2.39,0,0,1,.64-1.84,3,3,0,0,1,2.06-.58v.84a2,2,0,0,0-1.34.36,1.65,1.65,0,0,0-.38,1.22v.53h1.78Z"/><path class="cls-2" d="M88.83,98.15a3.49,3.49,0,0,1-1.35-1.37A4.08,4.08,0,0,1,87,94.7a4.24,4.24,0,0,1,.5-2.08,3.6,3.6,0,0,1,1.37-1.37,4.2,4.2,0,0,1,3.9,0,3.5,3.5,0,0,1,1.38,1.37,4.24,4.24,0,0,1,.49,2.08,4.17,4.17,0,0,1-.5,2.07,3.48,3.48,0,0,1-1.39,1.38,3.93,3.93,0,0,1-2,.49A3.83,3.83,0,0,1,88.83,98.15Zm3.34-.71a2.62,2.62,0,0,0,1-1,3.9,3.9,0,0,0,0-3.4,2.49,2.49,0,0,0-1-1,3,3,0,0,0-2.8,0,2.44,2.44,0,0,0-1,1,3.9,3.9,0,0,0,0,3.4,2.44,2.44,0,0,0,1,1,2.86,2.86,0,0,0,1.39.34A2.9,2.9,0,0,0,92.17,97.44Z"/><path class="cls-2" d="M98.38,91.13a3.17,3.17,0,0,1,1.63-.39v1h-.26a2.16,2.16,0,0,0-2.36,2.49v4.27h-1V90.88h1v1.36A2.43,2.43,0,0,1,98.38,91.13Z"/><path class="cls-2" d="M112.77,91.59a3.29,3.29,0,0,1,.85,2.45v4.48h-1V94.16a2.75,2.75,0,0,0-.6-1.91,2.11,2.11,0,0,0-1.64-.66,2.21,2.21,0,0,0-1.72.72,3,3,0,0,0-.64,2.07v4.14h-1V94.16a2.75,2.75,0,0,0-.6-1.91,2.12,2.12,0,0,0-1.65-.66,2.19,2.19,0,0,0-1.72.72,3,3,0,0,0-.65,2.07v4.14h-1V90.88h1V92.2a2.55,2.55,0,0,1,1-1.09,3,3,0,0,1,1.5-.37,3.16,3.16,0,0,1,1.74.48,2.61,2.61,0,0,1,1.08,1.4,2.64,2.64,0,0,1,1.06-1.4,3.09,3.09,0,0,1,1.7-.48A2.93,2.93,0,0,1,112.77,91.59Z"/><path class="cls-2" d="M115.81,92.62a3.37,3.37,0,0,1,1.3-1.37,3.74,3.74,0,0,1,1.89-.48,3.49,3.49,0,0,1,1.88.5A2.93,2.93,0,0,1,122,92.56V90.88h1v7.64h-1V96.83a3,3,0,0,1-1.16,1.29,3.29,3.29,0,0,1-1.88.52,3.7,3.7,0,0,1-1.87-.49,3.42,3.42,0,0,1-1.3-1.39,4.79,4.79,0,0,1,0-4.14Zm5.83.46a2.62,2.62,0,0,0-1-1.08,2.81,2.81,0,0,0-1.43-.38,2.86,2.86,0,0,0-1.46.37,2.5,2.5,0,0,0-1,1.05,3.84,3.84,0,0,0,0,3.29,2.58,2.58,0,0,0,1,1.08,2.86,2.86,0,0,0,1.46.37,2.71,2.71,0,0,0,1.43-.38,2.66,2.66,0,0,0,1-1.07A3.41,3.41,0,0,0,122,94.7,3.37,3.37,0,0,0,121.64,93.08Z"/><path class="cls-2" d="M126.14,96.9l-1.46,3.67H124l1-3.67Z"/><path class="cls-2" d="M138.39,95.08H132a3.1,3.1,0,0,0,.42,1.48,2.41,2.41,0,0,0,1,.93,2.91,2.91,0,0,0,1.34.32,2.66,2.66,0,0,0,1.6-.46,2.18,2.18,0,0,0,.87-1.25h1a3.21,3.21,0,0,1-1.2,1.83,3.65,3.65,0,0,1-2.3.71,3.77,3.77,0,0,1-1.93-.49,3.4,3.4,0,0,1-1.34-1.37,4.75,4.75,0,0,1,0-4.16,3.28,3.28,0,0,1,1.33-1.38,4,4,0,0,1,1.94-.47,3.78,3.78,0,0,1,1.91.47A3.25,3.25,0,0,1,138,92.53a3.56,3.56,0,0,1,.44,1.78C138.41,94.65,138.4,94.9,138.39,95.08Zm-1.31-2.25a2.26,2.26,0,0,0-1-.91,2.9,2.9,0,0,0-1.34-.31,2.64,2.64,0,0,0-1.86.7,2.78,2.78,0,0,0-.86,2h5.38A2.76,2.76,0,0,0,137.08,92.83Z"/><path class="cls-2" d="M142.92,97.57l2.58-6.69h1l-3.06,7.64h-1.11l-3.06-7.64h1Z"/><path class="cls-2" d="M147.85,89.23a.7.7,0,0,1-.21-.52.66.66,0,0,1,.21-.51.68.68,0,0,1,.5-.2.69.69,0,0,1,.51.2.66.66,0,0,1,.21.51.72.72,0,0,1-.72.73A.69.69,0,0,1,147.85,89.23Zm1,1.65v7.64h-1V90.88Z"/><path class="cls-2" d="M152.34,91.71v4.74a1.36,1.36,0,0,0,.27,1,1.31,1.31,0,0,0,.94.26h.89v.84h-1.05a2.17,2.17,0,0,1-1.54-.48,2.15,2.15,0,0,1-.5-1.59V91.71h-1.06v-.83h1.06V89h1v1.92h2.1v.83Z"/><path class="cls-2" d="M156.07,92.62a3.39,3.39,0,0,1,1.31-1.37,3.68,3.68,0,0,1,1.88-.48,3.45,3.45,0,0,1,1.88.5,2.93,2.93,0,0,1,1.14,1.29V90.88h1v7.64h-1V96.83a3,3,0,0,1-1.15,1.29,3.34,3.34,0,0,1-1.88.52,3.65,3.65,0,0,1-1.87-.49,3.45,3.45,0,0,1-1.31-1.39,4.89,4.89,0,0,1,0-4.14Zm5.84.46a2.75,2.75,0,0,0-1-1.08,2.87,2.87,0,0,0-1.44-.38A2.79,2.79,0,0,0,158,92,2.58,2.58,0,0,0,157,93a3.84,3.84,0,0,0,0,3.29,2.66,2.66,0,0,0,1,1.08,2.83,2.83,0,0,0,3.92-1.08,3.41,3.41,0,0,0,.37-1.63A3.37,3.37,0,0,0,161.91,93.08Z"/><path class="cls-2" d="M174.42,91.27a2.94,2.94,0,0,1,1.15,1.28V90.88h1v7.84a3.67,3.67,0,0,1-.46,1.86,3.1,3.1,0,0,1-1.26,1.25,3.75,3.75,0,0,1-1.85.45,4.12,4.12,0,0,1-2.44-.7,3,3,0,0,1-1.21-1.91h1a2.4,2.4,0,0,0,1,1.28,3.08,3.08,0,0,0,1.73.47,2.78,2.78,0,0,0,1.33-.31,2.23,2.23,0,0,0,.92-.93,3,3,0,0,0,.34-1.46V96.83a3,3,0,0,1-1.16,1.29,3.28,3.28,0,0,1-1.87.52,3.71,3.71,0,0,1-1.88-.49,3.42,3.42,0,0,1-1.3-1.39,4.79,4.79,0,0,1,0-4.14,3.37,3.37,0,0,1,1.3-1.37,3.7,3.7,0,0,1,1.88-.48A3.49,3.49,0,0,1,174.42,91.27Zm.77,1.81a2.62,2.62,0,0,0-1-1.08,2.81,2.81,0,0,0-1.43-.38,2.86,2.86,0,0,0-1.46.37,2.5,2.5,0,0,0-1,1.05,3.84,3.84,0,0,0,0,3.29,2.58,2.58,0,0,0,1,1.08,2.86,2.86,0,0,0,1.46.37,2.71,2.71,0,0,0,1.43-.38,2.66,2.66,0,0,0,1-1.07,3.41,3.41,0,0,0,.38-1.63A3.37,3.37,0,0,0,175.19,93.08Z"/><path class="cls-2" d="M178.81,92.62a3.37,3.37,0,0,1,1.3-1.37,3.71,3.71,0,0,1,1.89-.48,3.49,3.49,0,0,1,1.88.5A2.93,2.93,0,0,1,185,92.56V90.88h1v7.64h-1V96.83a3,3,0,0,1-1.16,1.29,3.29,3.29,0,0,1-1.88.52,3.7,3.7,0,0,1-1.87-.49,3.42,3.42,0,0,1-1.3-1.39,4.79,4.79,0,0,1,0-4.14Zm5.83.46a2.62,2.62,0,0,0-1-1.08,2.81,2.81,0,0,0-1.43-.38,2.86,2.86,0,0,0-1.46.37,2.5,2.5,0,0,0-1,1.05,3.75,3.75,0,0,0,0,3.29,2.58,2.58,0,0,0,1,1.08,2.86,2.86,0,0,0,1.46.37,2.71,2.71,0,0,0,1.43-.38,2.66,2.66,0,0,0,1-1.07A3.41,3.41,0,0,0,185,94.7,3.37,3.37,0,0,0,184.64,93.08Z"/><path class="cls-2" d="M188.72,98a2.26,2.26,0,0,1-.93-1.66h1a1.41,1.41,0,0,0,.61,1,2.35,2.35,0,0,0,1.45.4,1.9,1.9,0,0,0,1.25-.38,1.17,1.17,0,0,0,.45-.94.86.86,0,0,0-.25-.64,1.84,1.84,0,0,0-.63-.4,9.52,9.52,0,0,0-1.05-.31,10.19,10.19,0,0,1-1.38-.45,2.32,2.32,0,0,1-.91-.67,1.81,1.81,0,0,1-.37-1.18,1.75,1.75,0,0,1,.34-1,2.34,2.34,0,0,1,.95-.75,3.3,3.3,0,0,1,1.4-.28,3.07,3.07,0,0,1,2,.62,2.3,2.3,0,0,1,.81,1.72h-1A1.51,1.51,0,0,0,192,92a2,2,0,0,0-1.33-.41,2,2,0,0,0-1.2.35,1.08,1.08,0,0,0-.19,1.6,1.92,1.92,0,0,0,.68.45,10.67,10.67,0,0,0,1.09.36,10.82,10.82,0,0,1,1.32.43,2.42,2.42,0,0,1,.84.62,1.66,1.66,0,0,1,.36,1.07,1.82,1.82,0,0,1-.34,1.1,2.3,2.3,0,0,1-.93.77,3.38,3.38,0,0,1-1.39.28A3.6,3.6,0,0,1,188.72,98Z"/><path class="cls-2" d="M196.65,91.71v4.74a1.36,1.36,0,0,0,.27,1,1.31,1.31,0,0,0,.94.26h.89v.84H197.7a2.17,2.17,0,0,1-1.54-.48,2.15,2.15,0,0,1-.5-1.59V91.71h-1.07v-.83h1.07V89h1v1.92h2.1v.83Z"/><path class="cls-2" d="M200.38,92.62a3.39,3.39,0,0,1,1.31-1.37,3.68,3.68,0,0,1,1.88-.48,3.47,3.47,0,0,1,1.88.5,2.93,2.93,0,0,1,1.14,1.29V90.88h1v7.64h-1V96.83a3,3,0,0,1-1.15,1.29,3.35,3.35,0,0,1-1.89.52,3.64,3.64,0,0,1-1.86-.49,3.45,3.45,0,0,1-1.31-1.39,4.79,4.79,0,0,1,0-4.14Zm5.83.46a2.66,2.66,0,0,0-1-1.08,3,3,0,0,0-2.9,0,2.62,2.62,0,0,0-1,1.05,3.84,3.84,0,0,0,0,3.29,2.71,2.71,0,0,0,1,1.08,2.86,2.86,0,0,0,1.46.37,2.77,2.77,0,0,0,1.44-.38,2.7,2.7,0,0,0,1-1.07,3.3,3.3,0,0,0,.38-1.63A3.26,3.26,0,0,0,206.21,93.08Z"/><path class="cls-2" d="M211.78,91.13a3.17,3.17,0,0,1,1.63-.39v1h-.27a2.42,2.42,0,0,0-1.7.58,2.45,2.45,0,0,0-.65,1.91v4.27h-1V90.88h1v1.36A2.43,2.43,0,0,1,211.78,91.13Z"/><path class="cls-2" d="M218.74,92.62a3.46,3.46,0,0,1,1.31-1.37,3.74,3.74,0,0,1,1.89-.48,3.45,3.45,0,0,1,1.82.49A3,3,0,0,1,225,92.53V88.16h1V98.52h-1v-1.7a2.94,2.94,0,0,1-1.15,1.3,3.34,3.34,0,0,1-1.88.52,3.68,3.68,0,0,1-1.88-.49,3.36,3.36,0,0,1-1.3-1.39,4.33,4.33,0,0,1-.47-2.07A4.42,4.42,0,0,1,218.74,92.62Zm5.83.46a2.68,2.68,0,0,0-1-1.08,3,3,0,0,0-2.89,0,2.58,2.58,0,0,0-1,1.05,3.84,3.84,0,0,0,0,3.29,2.66,2.66,0,0,0,1,1.08,2.82,2.82,0,0,0,1.45.37,2.76,2.76,0,0,0,2.47-1.45A3.41,3.41,0,0,0,225,94.7,3.37,3.37,0,0,0,224.57,93.08Z"/><path class="cls-2" d="M235.05,95.08h-6.34a3.1,3.1,0,0,0,.42,1.48,2.3,2.3,0,0,0,1,.93,2.88,2.88,0,0,0,1.34.32,2.68,2.68,0,0,0,1.6-.46,2.16,2.16,0,0,0,.86-1.25h1a3.26,3.26,0,0,1-1.2,1.83,3.67,3.67,0,0,1-2.3.71,3.77,3.77,0,0,1-1.93-.49,3.4,3.4,0,0,1-1.34-1.37,4.29,4.29,0,0,1-.48-2.08,4.43,4.43,0,0,1,.47-2.08,3.34,3.34,0,0,1,1.33-1.38,4,4,0,0,1,1.95-.47,3.81,3.81,0,0,1,1.91.47,3.25,3.25,0,0,1,1.26,1.29,3.67,3.67,0,0,1,.44,1.78A7.37,7.37,0,0,1,235.05,95.08Zm-1.3-2.25a2.26,2.26,0,0,0-1-.91,2.9,2.9,0,0,0-1.34-.31,2.64,2.64,0,0,0-1.86.7,2.78,2.78,0,0,0-.86,2h5.38A2.76,2.76,0,0,0,233.75,92.83Z"/><path class="cls-2" d="M252,91.59a3.29,3.29,0,0,1,.85,2.45v4.48h-1V94.16a2.75,2.75,0,0,0-.6-1.91,2.11,2.11,0,0,0-1.64-.66,2.19,2.19,0,0,0-1.72.72,3,3,0,0,0-.64,2.07v4.14h-1V94.16a2.75,2.75,0,0,0-.6-1.91,2.12,2.12,0,0,0-1.65-.66,2.21,2.21,0,0,0-1.73.72,3,3,0,0,0-.64,2.07v4.14h-1V90.88h1V92.2a2.49,2.49,0,0,1,1-1.09,3,3,0,0,1,1.49-.37,3.17,3.17,0,0,1,1.75.48,2.61,2.61,0,0,1,1.08,1.4,2.64,2.64,0,0,1,1.06-1.4,3.07,3.07,0,0,1,1.7-.48A2.93,2.93,0,0,1,252,91.59Z"/><path class="cls-2" d="M255,92.62a3.37,3.37,0,0,1,1.3-1.37,3.7,3.7,0,0,1,1.88-.48,3.51,3.51,0,0,1,1.89.5,3.06,3.06,0,0,1,1.14,1.29V90.88h1v7.64h-1V96.83a3.05,3.05,0,0,1-1.16,1.29,3.32,3.32,0,0,1-1.88.52,3.7,3.7,0,0,1-1.87-.49,3.42,3.42,0,0,1-1.3-1.39,4.79,4.79,0,0,1,0-4.14Zm5.83.46a2.68,2.68,0,0,0-1-1.08A3,3,0,0,0,257,92a2.58,2.58,0,0,0-1,1.05,3.84,3.84,0,0,0,0,3.29,2.66,2.66,0,0,0,1,1.08,2.83,2.83,0,0,0,1.46.37,2.76,2.76,0,0,0,2.46-1.45,3.41,3.41,0,0,0,.38-1.63A3.37,3.37,0,0,0,260.87,93.08Zm-.94-4.45-2.87,1.66v-.75l2.87-1.8Z"/><path class="cls-2" d="M265,98a2.2,2.2,0,0,1-.93-1.66h1a1.41,1.41,0,0,0,.61,1,2.34,2.34,0,0,0,1.44.4,1.93,1.93,0,0,0,1.26-.38,1.17,1.17,0,0,0,.45-.94.86.86,0,0,0-.25-.64,1.79,1.79,0,0,0-.64-.4,8.65,8.65,0,0,0-1-.31,10.9,10.9,0,0,1-1.39-.45,2.36,2.36,0,0,1-.9-.67,1.91,1.91,0,0,1,0-2.22,2.34,2.34,0,0,1,.95-.75,3.3,3.3,0,0,1,1.4-.28,3.07,3.07,0,0,1,2,.62,2.3,2.3,0,0,1,.81,1.72h-1a1.49,1.49,0,0,0-.53-1.09,2,2,0,0,0-1.32-.41,1.94,1.94,0,0,0-1.2.35,1.08,1.08,0,0,0-.19,1.6,1.92,1.92,0,0,0,.68.45,10.67,10.67,0,0,0,1.09.36,10,10,0,0,1,1.31.43,2.25,2.25,0,0,1,.84.62,1.61,1.61,0,0,1,.37,1.07,1.82,1.82,0,0,1-.34,1.1,2.3,2.3,0,0,1-.93.77,3.41,3.41,0,0,1-1.39.28A3.58,3.58,0,0,1,265,98Z"/><path class="cls-2" d="M282.33,95.08H276a3.1,3.1,0,0,0,.42,1.48,2.33,2.33,0,0,0,1,.93,2.92,2.92,0,0,0,1.35.32,2.68,2.68,0,0,0,1.6-.46,2.21,2.21,0,0,0,.86-1.25h1a3.26,3.26,0,0,1-1.2,1.83,3.67,3.67,0,0,1-2.3.71,3.74,3.74,0,0,1-1.93-.49,3.4,3.4,0,0,1-1.34-1.37,4.79,4.79,0,0,1,0-4.16,3.34,3.34,0,0,1,1.33-1.38,4,4,0,0,1,1.95-.47,3.83,3.83,0,0,1,1.91.47,3.39,3.39,0,0,1,1.26,1.29,3.67,3.67,0,0,1,.44,1.78A7.37,7.37,0,0,1,282.33,95.08ZM281,92.83a2.24,2.24,0,0,0-1-.91,2.9,2.9,0,0,0-1.34-.31,2.68,2.68,0,0,0-1.87.7,2.78,2.78,0,0,0-.85,2h5.38A2.76,2.76,0,0,0,281,92.83Z"/><path class="cls-2" d="M290,91.59a3.26,3.26,0,0,1,.87,2.45v4.48h-1V94.16a2.67,2.67,0,0,0-.63-1.91,2.21,2.21,0,0,0-1.7-.66,2.33,2.33,0,0,0-1.76.7,2.91,2.91,0,0,0-.66,2.06v4.17h-1V90.88h1v1.3a2.52,2.52,0,0,1,1.05-1.07,3.21,3.21,0,0,1,1.56-.37A3,3,0,0,1,290,91.59Z"/><path class="cls-2" d="M18.53,114.83a2.24,2.24,0,0,1-.94-1.66h1a1.44,1.44,0,0,0,.61,1,2.35,2.35,0,0,0,1.45.4,1.9,1.9,0,0,0,1.25-.38,1.15,1.15,0,0,0,.46-.94.9.9,0,0,0-.25-.64,1.79,1.79,0,0,0-.64-.4,9.25,9.25,0,0,0-1-.31,10.9,10.9,0,0,1-1.39-.45,2.29,2.29,0,0,1-.9-.67,1.76,1.76,0,0,1-.37-1.18,1.81,1.81,0,0,1,.33-1,2.41,2.41,0,0,1,.95-.75,3.33,3.33,0,0,1,1.4-.28,3,3,0,0,1,2,.62,2.23,2.23,0,0,1,.81,1.72h-1a1.48,1.48,0,0,0-.52-1.09,2.3,2.3,0,0,0-2.53-.06,1.08,1.08,0,0,0-.19,1.6,2,2,0,0,0,.68.45c.27.11.64.23,1.09.36a10.27,10.27,0,0,1,1.32.43,2.25,2.25,0,0,1,.84.62,1.61,1.61,0,0,1,.36,1.07,1.9,1.9,0,0,1-.33,1.1,2.4,2.4,0,0,1-.94.77,3.35,3.35,0,0,1-1.39.28A3.57,3.57,0,0,1,18.53,114.83Z"/><path class="cls-2" d="M32.07,111.88H25.73a3.1,3.1,0,0,0,.42,1.48,2.39,2.39,0,0,0,1,.93,2.92,2.92,0,0,0,1.35.32,2.68,2.68,0,0,0,1.6-.46A2.21,2.21,0,0,0,31,112.9h1a3.26,3.26,0,0,1-1.2,1.83,3.67,3.67,0,0,1-2.3.71,3.74,3.74,0,0,1-1.93-.49,3.4,3.4,0,0,1-1.34-1.37,4.7,4.7,0,0,1,0-4.16A3.34,3.34,0,0,1,26.54,108a4,4,0,0,1,1.95-.47,3.83,3.83,0,0,1,1.91.47,3.39,3.39,0,0,1,1.26,1.29,3.67,3.67,0,0,1,.44,1.78A7.37,7.37,0,0,1,32.07,111.88Zm-1.31-2.25a2.24,2.24,0,0,0-1-.91,2.91,2.91,0,0,0-1.35-.31,2.68,2.68,0,0,0-1.86.7,2.82,2.82,0,0,0-.85,2H31.1A2.67,2.67,0,0,0,30.76,109.63Z"/><path class="cls-2" d="M35.86,107.93a3.17,3.17,0,0,1,1.63-.39v1h-.27a2.4,2.4,0,0,0-1.7.58,2.45,2.45,0,0,0-.65,1.91v4.27h-1v-7.64h1V109A2.38,2.38,0,0,1,35.86,107.93Z"/><path class="cls-2" d="M41.67,114.37l2.58-6.69h1l-3.07,7.64H41.11l-3.06-7.64H39.1Z"/><path class="cls-2" d="M46.6,106a.7.7,0,0,1-.21-.52.66.66,0,0,1,.21-.51.69.69,0,0,1,.51-.2.68.68,0,0,1,.5.2.66.66,0,0,1,.21.51.7.7,0,0,1-.21.52.71.71,0,0,1-1,0Zm1,1.65v7.64h-1v-7.64Z"/><path class="cls-2" d="M49.85,109.42a3.42,3.42,0,0,1,1.32-1.37,3.79,3.79,0,0,1,1.91-.48,3.74,3.74,0,0,1,2.34.7,3.19,3.19,0,0,1,1.18,1.9H55.55a2.11,2.11,0,0,0-.85-1.29,2.63,2.63,0,0,0-1.62-.47,2.77,2.77,0,0,0-1.38.35,2.39,2.39,0,0,0-1,1,3.65,3.65,0,0,0-.36,1.7,3.72,3.72,0,0,0,.36,1.71,2.36,2.36,0,0,0,1,1.05,2.77,2.77,0,0,0,1.38.35,2.7,2.7,0,0,0,1.62-.47,2.13,2.13,0,0,0,.85-1.31H56.6a3.21,3.21,0,0,1-1.19,1.89,4.06,4.06,0,0,1-4.24.23,3.42,3.42,0,0,1-1.32-1.37,4.29,4.29,0,0,1-.48-2.08A4.34,4.34,0,0,1,49.85,109.42Z"/><path class="cls-2" d="M58.39,106a.7.7,0,0,1-.21-.52.66.66,0,0,1,.21-.51.68.68,0,0,1,.5-.2.69.69,0,0,1,.51.2.66.66,0,0,1,.21.51.72.72,0,0,1-.72.73A.69.69,0,0,1,58.39,106Zm1,1.65v7.64h-1v-7.64Z"/><path class="cls-2" d="M63,115a3.45,3.45,0,0,1-1.36-1.37,4.18,4.18,0,0,1-.5-2.08,4.14,4.14,0,0,1,.51-2.08A3.47,3.47,0,0,1,63,108.05a4,4,0,0,1,1.94-.48,4,4,0,0,1,2,.48,3.47,3.47,0,0,1,1.37,1.37,4.24,4.24,0,0,1,.5,2.08,4.07,4.07,0,0,1-.51,2.07A3.46,3.46,0,0,1,66.92,115a3.93,3.93,0,0,1-2,.49A3.81,3.81,0,0,1,63,115Zm3.34-.71a2.66,2.66,0,0,0,1-1,3.32,3.32,0,0,0,.4-1.7,3.42,3.42,0,0,0-.39-1.7,2.51,2.51,0,0,0-1-1,3,3,0,0,0-2.8,0,2.49,2.49,0,0,0-1,1,4,4,0,0,0,0,3.4,2.62,2.62,0,0,0,1,1,3.05,3.05,0,0,0,2.8,0Z"/><path class="cls-2" d="M71.08,114.83a2.26,2.26,0,0,1-.93-1.66h1a1.44,1.44,0,0,0,.61,1,2.35,2.35,0,0,0,1.45.4,1.9,1.9,0,0,0,1.25-.38,1.17,1.17,0,0,0,.45-.94.86.86,0,0,0-.25-.64,1.84,1.84,0,0,0-.63-.4,9.52,9.52,0,0,0-1.05-.31,10.19,10.19,0,0,1-1.38-.45,2.32,2.32,0,0,1-.91-.67,1.81,1.81,0,0,1-.37-1.18,1.75,1.75,0,0,1,.34-1,2.34,2.34,0,0,1,1-.75,3.3,3.3,0,0,1,1.4-.28,3.07,3.07,0,0,1,2,.62,2.3,2.3,0,0,1,.81,1.72h-1a1.51,1.51,0,0,0-.52-1.09,2,2,0,0,0-1.33-.41,2,2,0,0,0-1.2.35,1.08,1.08,0,0,0-.19,1.6,1.92,1.92,0,0,0,.68.45,10.67,10.67,0,0,0,1.09.36,10.82,10.82,0,0,1,1.32.43,2.42,2.42,0,0,1,.84.62,1.66,1.66,0,0,1,.36,1.07,1.84,1.84,0,0,1-.34,1.1,2.3,2.3,0,0,1-.93.77,3.38,3.38,0,0,1-1.39.28A3.6,3.6,0,0,1,71.08,114.83Z"/><path class="cls-2" d="M81.6,109.42a3.46,3.46,0,0,1,1.31-1.37,3.7,3.7,0,0,1,1.88-.48,3.4,3.4,0,0,1,1.82.49,2.9,2.9,0,0,1,1.19,1.27V105h1v10.36h-1v-1.7a2.9,2.9,0,0,1-1.14,1.3,3.36,3.36,0,0,1-1.88.52A3.68,3.68,0,0,1,82.9,115a3.36,3.36,0,0,1-1.3-1.39,4.33,4.33,0,0,1-.47-2.07A4.42,4.42,0,0,1,81.6,109.42Zm5.83.46a2.75,2.75,0,0,0-1-1.08,3,3,0,0,0-2.89,0,2.58,2.58,0,0,0-1,1,3.84,3.84,0,0,0,0,3.29,2.66,2.66,0,0,0,1,1.08,2.82,2.82,0,0,0,1.45.37,2.75,2.75,0,0,0,1.44-.38,2.79,2.79,0,0,0,1-1.07,3.41,3.41,0,0,0,.37-1.63A3.37,3.37,0,0,0,87.43,109.88Z"/><path class="cls-2" d="M97.91,111.88H91.57a3.1,3.1,0,0,0,.42,1.48,2.39,2.39,0,0,0,1,.93,2.92,2.92,0,0,0,1.35.32,2.68,2.68,0,0,0,1.6-.46,2.16,2.16,0,0,0,.86-1.25h1a3.26,3.26,0,0,1-1.2,1.83,3.67,3.67,0,0,1-2.3.71A3.77,3.77,0,0,1,92.4,115a3.4,3.4,0,0,1-1.34-1.37,4.79,4.79,0,0,1,0-4.16A3.34,3.34,0,0,1,92.38,108a4,4,0,0,1,2-.47,3.81,3.81,0,0,1,1.91.47,3.25,3.25,0,0,1,1.26,1.29,3.67,3.67,0,0,1,.44,1.78A7.37,7.37,0,0,1,97.91,111.88Zm-1.31-2.25a2.19,2.19,0,0,0-1-.91,2.9,2.9,0,0,0-1.34-.31,2.68,2.68,0,0,0-1.87.7,2.82,2.82,0,0,0-.85,2H97A2.67,2.67,0,0,0,96.6,109.63Z"/><path class="cls-2" d="M104.05,114.83a2.26,2.26,0,0,1-.93-1.66h1a1.41,1.41,0,0,0,.61,1,2.35,2.35,0,0,0,1.45.4,1.9,1.9,0,0,0,1.25-.38,1.17,1.17,0,0,0,.45-.94.86.86,0,0,0-.25-.64,1.84,1.84,0,0,0-.63-.4,9.52,9.52,0,0,0-1.05-.31,10.19,10.19,0,0,1-1.38-.45,2.32,2.32,0,0,1-.91-.67,1.81,1.81,0,0,1-.37-1.18,1.75,1.75,0,0,1,.34-1,2.34,2.34,0,0,1,1-.75,3.3,3.3,0,0,1,1.4-.28,3.07,3.07,0,0,1,2,.62,2.3,2.3,0,0,1,.81,1.72h-1a1.51,1.51,0,0,0-.52-1.09,2,2,0,0,0-1.33-.41,2,2,0,0,0-1.2.35,1.08,1.08,0,0,0-.19,1.6,1.92,1.92,0,0,0,.68.45,10.67,10.67,0,0,0,1.09.36,10.82,10.82,0,0,1,1.32.43,2.42,2.42,0,0,1,.84.62,1.66,1.66,0,0,1,.36,1.07,1.84,1.84,0,0,1-.34,1.1,2.3,2.3,0,0,1-.93.77,3.38,3.38,0,0,1-1.39.28A3.6,3.6,0,0,1,104.05,114.83Z"/><path class="cls-2" d="M117.6,111.88h-6.35a3.1,3.1,0,0,0,.42,1.48,2.48,2.48,0,0,0,1,.93,2.91,2.91,0,0,0,1.34.32,2.71,2.71,0,0,0,1.61-.46,2.21,2.21,0,0,0,.86-1.25h1a3.19,3.19,0,0,1-1.19,1.83,3.7,3.7,0,0,1-2.31.71,3.77,3.77,0,0,1-1.93-.49,3.46,3.46,0,0,1-1.34-1.37,4.75,4.75,0,0,1,0-4.16,3.28,3.28,0,0,1,1.33-1.38,4,4,0,0,1,1.94-.47,3.78,3.78,0,0,1,1.91.47,3.25,3.25,0,0,1,1.26,1.29,3.56,3.56,0,0,1,.44,1.78C117.62,111.45,117.61,111.7,117.6,111.88Zm-1.31-2.25a2.21,2.21,0,0,0-1-.91,2.87,2.87,0,0,0-1.34-.31,2.64,2.64,0,0,0-1.86.7,2.83,2.83,0,0,0-.86,2h5.38A2.67,2.67,0,0,0,116.29,109.63Z"/><path class="cls-2" d="M124.5,108.07a3,3,0,0,1,1.15,1.28v-1.67h1v7.84a3.77,3.77,0,0,1-.46,1.86,3.06,3.06,0,0,1-1.27,1.25,3.72,3.72,0,0,1-1.84.45,4.15,4.15,0,0,1-2.45-.7,3,3,0,0,1-1.21-1.91h1a2.4,2.4,0,0,0,1,1.28,3.06,3.06,0,0,0,1.73.47,2.8,2.8,0,0,0,1.33-.31,2.23,2.23,0,0,0,.92-.93,3.06,3.06,0,0,0,.34-1.46v-1.89a3.11,3.11,0,0,1-1.16,1.29,3.3,3.3,0,0,1-1.87.52,3.68,3.68,0,0,1-1.88-.49,3.36,3.36,0,0,1-1.3-1.39,4.79,4.79,0,0,1,0-4.14,3.31,3.31,0,0,1,1.3-1.37,3.68,3.68,0,0,1,1.88-.48A3.49,3.49,0,0,1,124.5,108.07Zm.77,1.81a2.68,2.68,0,0,0-1-1.08,3,3,0,0,0-2.89,0,2.58,2.58,0,0,0-1,1,3.84,3.84,0,0,0,0,3.29,2.66,2.66,0,0,0,1,1.08,2.82,2.82,0,0,0,1.45.37,2.76,2.76,0,0,0,2.47-1.45,3.41,3.41,0,0,0,.38-1.63A3.37,3.37,0,0,0,125.27,109.88Z"/><path class="cls-2" d="M135.49,107.68v7.64h-1V114a2.34,2.34,0,0,1-1,1.09,3.26,3.26,0,0,1-1.57.38,3.06,3.06,0,0,1-2.24-.85,3.29,3.29,0,0,1-.86-2.45v-4.47h1V112a2.65,2.65,0,0,0,.63,1.91,2.21,2.21,0,0,0,1.7.66,2.33,2.33,0,0,0,1.76-.7,2.91,2.91,0,0,0,.66-2.06v-4.16Z"/><path class="cls-2" d="M139.69,107.93a3.21,3.21,0,0,1,1.64-.39v1h-.27a2.15,2.15,0,0,0-2.35,2.49v4.27h-1v-7.64h1V109A2.36,2.36,0,0,1,139.69,107.93Z"/><path class="cls-2" d="M142.78,106a.7.7,0,0,1-.21-.52.66.66,0,0,1,.21-.51.69.69,0,0,1,.51-.2.68.68,0,0,1,.5.2.66.66,0,0,1,.21.51.7.7,0,0,1-.21.52.71.71,0,0,1-1,0Zm1,1.65v7.64h-1v-7.64Z"/><path class="cls-2" d="M146,109.42a3.39,3.39,0,0,1,1.31-1.37,3.68,3.68,0,0,1,1.88-.48,3.43,3.43,0,0,1,1.82.49,3,3,0,0,1,1.19,1.27V105h1v10.36h-1v-1.7a2.87,2.87,0,0,1-1.15,1.3,3.3,3.3,0,0,1-1.87.52,3.75,3.75,0,0,1-1.89-.49,3.49,3.49,0,0,1-1.3-1.39,4.45,4.45,0,0,1-.47-2.07A4.3,4.3,0,0,1,146,109.42Zm5.82.46a2.62,2.62,0,0,0-1-1.08,2.81,2.81,0,0,0-1.43-.38,2.86,2.86,0,0,0-1.46.37,2.56,2.56,0,0,0-1,1,3.84,3.84,0,0,0,0,3.29,2.64,2.64,0,0,0,1,1.08,2.86,2.86,0,0,0,1.46.37,2.71,2.71,0,0,0,1.43-.38,2.66,2.66,0,0,0,1-1.07,3.3,3.3,0,0,0,.38-1.63A3.26,3.26,0,0,0,151.85,109.88Z"/><path class="cls-2" d="M155.47,109.42a3.44,3.44,0,0,1,1.3-1.37,3.74,3.74,0,0,1,1.89-.48,3.47,3.47,0,0,1,1.88.5,2.93,2.93,0,0,1,1.14,1.29v-1.68h1v7.64h-1v-1.69a3.09,3.09,0,0,1-1.15,1.29,3.35,3.35,0,0,1-1.89.52,3.7,3.7,0,0,1-1.87-.49,3.49,3.49,0,0,1-1.3-1.39,4.79,4.79,0,0,1,0-4.14Zm5.83.46a2.62,2.62,0,0,0-1-1.08,2.81,2.81,0,0,0-1.43-.38,2.86,2.86,0,0,0-1.46.37,2.56,2.56,0,0,0-1,1,3.84,3.84,0,0,0,0,3.29,2.64,2.64,0,0,0,1,1.08,2.86,2.86,0,0,0,1.46.37,2.71,2.71,0,0,0,1.43-.38,2.66,2.66,0,0,0,1-1.07,3.3,3.3,0,0,0,.38-1.63A3.26,3.26,0,0,0,161.3,109.88Z"/><path class="cls-2" d="M164.93,109.42a3.39,3.39,0,0,1,1.31-1.37,3.68,3.68,0,0,1,1.88-.48,3.43,3.43,0,0,1,1.82.49,3,3,0,0,1,1.19,1.27V105h1v10.36h-1v-1.7a2.87,2.87,0,0,1-1.15,1.3,3.3,3.3,0,0,1-1.87.52,3.75,3.75,0,0,1-1.89-.49,3.42,3.42,0,0,1-1.3-1.39,4.45,4.45,0,0,1-.47-2.07A4.3,4.3,0,0,1,164.93,109.42Zm5.82.46a2.62,2.62,0,0,0-1-1.08,2.81,2.81,0,0,0-1.43-.38,2.86,2.86,0,0,0-1.46.37,2.56,2.56,0,0,0-1,1,3.84,3.84,0,0,0,0,3.29,2.64,2.64,0,0,0,1,1.08,2.86,2.86,0,0,0,1.46.37,2.71,2.71,0,0,0,1.43-.38,2.66,2.66,0,0,0,1-1.07,3.3,3.3,0,0,0,.38-1.63A3.26,3.26,0,0,0,170.75,109.88Z"/><path class="cls-2" d="M178.21,109.42a3.46,3.46,0,0,1,1.31-1.37,3.74,3.74,0,0,1,1.89-.48,3.4,3.4,0,0,1,1.87.51,3,3,0,0,1,1.14,1.28v-1.68h1v11.26h-1v-5.3a2.91,2.91,0,0,1-1.14,1.28,3.4,3.4,0,0,1-1.9.52,3.67,3.67,0,0,1-1.87-.49,3.36,3.36,0,0,1-1.3-1.39,4.33,4.33,0,0,1-.47-2.07A4.42,4.42,0,0,1,178.21,109.42Zm5.83.46a2.68,2.68,0,0,0-1-1.08,3,3,0,0,0-2.89,0,2.58,2.58,0,0,0-1,1,3.84,3.84,0,0,0,0,3.29,2.66,2.66,0,0,0,1,1.08,2.82,2.82,0,0,0,1.45.37,2.76,2.76,0,0,0,2.47-1.45,3.41,3.41,0,0,0,.38-1.63A3.37,3.37,0,0,0,184,109.88Z"/><path class="cls-2" d="M194.26,107.68v7.64h-1V114a2.34,2.34,0,0,1-1,1.09,3.26,3.26,0,0,1-1.57.38,3.06,3.06,0,0,1-2.24-.85,3.29,3.29,0,0,1-.86-2.45v-4.47h1V112a2.65,2.65,0,0,0,.63,1.91,2.21,2.21,0,0,0,1.7.66,2.33,2.33,0,0,0,1.76-.7,2.91,2.91,0,0,0,.66-2.06v-4.16Z"/><path class="cls-2" d="M203.39,111.88H197a3.1,3.1,0,0,0,.42,1.48,2.48,2.48,0,0,0,1,.93,2.91,2.91,0,0,0,1.34.32,2.71,2.71,0,0,0,1.61-.46,2.21,2.21,0,0,0,.86-1.25h1a3.19,3.19,0,0,1-1.19,1.83,3.7,3.7,0,0,1-2.31.71,3.77,3.77,0,0,1-1.93-.49,3.46,3.46,0,0,1-1.34-1.37,4.75,4.75,0,0,1,0-4.16,3.28,3.28,0,0,1,1.33-1.38,4,4,0,0,1,1.94-.47,3.78,3.78,0,0,1,1.91.47,3.25,3.25,0,0,1,1.26,1.29,3.56,3.56,0,0,1,.44,1.78C203.41,111.45,203.4,111.7,203.39,111.88Zm-1.31-2.25a2.26,2.26,0,0,0-1-.91,2.87,2.87,0,0,0-1.34-.31,2.64,2.64,0,0,0-1.86.7,2.78,2.78,0,0,0-.86,2h5.38A2.67,2.67,0,0,0,202.08,109.63Z"/><path class="cls-2" d="M209.06,109.42a3.39,3.39,0,0,1,1.31-1.37,3.68,3.68,0,0,1,1.88-.48,3.47,3.47,0,0,1,1.88.5,2.93,2.93,0,0,1,1.14,1.29v-1.68h1v7.64h-1v-1.69a3.09,3.09,0,0,1-1.15,1.29,3.35,3.35,0,0,1-1.89.52,3.64,3.64,0,0,1-1.86-.49,3.45,3.45,0,0,1-1.31-1.39,4.79,4.79,0,0,1,0-4.14Zm5.83.46a2.66,2.66,0,0,0-1-1.08,3,3,0,0,0-2.9,0,2.56,2.56,0,0,0-1,1,3.84,3.84,0,0,0,0,3.29,2.64,2.64,0,0,0,1,1.08,2.86,2.86,0,0,0,1.46.37,2.77,2.77,0,0,0,1.44-.38,2.7,2.7,0,0,0,1-1.07,3.3,3.3,0,0,0,.38-1.63A3.26,3.26,0,0,0,214.89,109.88Z"/><path class="cls-2" d="M220.61,108.08a3.42,3.42,0,0,1,1.89-.51,3.69,3.69,0,0,1,1.87.48,3.44,3.44,0,0,1,1.3,1.37,4.79,4.79,0,0,1,0,4.14,3.49,3.49,0,0,1-1.3,1.39,3.7,3.7,0,0,1-1.87.49,3.34,3.34,0,0,1-1.88-.52,3,3,0,0,1-1.16-1.28v5.3h-1V107.68h1v1.68A3.06,3.06,0,0,1,220.61,108.08Zm4.16,1.76a2.62,2.62,0,0,0-1-1,2.86,2.86,0,0,0-1.46-.37,2.81,2.81,0,0,0-1.43.38,2.62,2.62,0,0,0-1,1.08,3.26,3.26,0,0,0-.38,1.62,3.3,3.3,0,0,0,.38,1.63,2.66,2.66,0,0,0,1,1.07,2.71,2.71,0,0,0,1.43.38,2.86,2.86,0,0,0,1.46-.37,2.71,2.71,0,0,0,1-1.08,3.84,3.84,0,0,0,0-3.29Z"/><path class="cls-2" d="M229.35,115a3.45,3.45,0,0,1-1.36-1.37,4.18,4.18,0,0,1-.5-2.08,4.14,4.14,0,0,1,.51-2.08,3.47,3.47,0,0,1,1.37-1.37,4.2,4.2,0,0,1,3.9,0,3.47,3.47,0,0,1,1.37,1.37,4.24,4.24,0,0,1,.5,2.08,4.07,4.07,0,0,1-.51,2.07,3.4,3.4,0,0,1-1.38,1.38,3.93,3.93,0,0,1-2,.49A3.81,3.81,0,0,1,229.35,115Zm3.34-.71a2.66,2.66,0,0,0,1-1,3.32,3.32,0,0,0,.4-1.7,3.42,3.42,0,0,0-.39-1.7,2.51,2.51,0,0,0-1-1,3,3,0,0,0-2.8,0,2.49,2.49,0,0,0-1,1,4,4,0,0,0,0,3.4,2.62,2.62,0,0,0,1,1,3.05,3.05,0,0,0,2.8,0Z"/><path class="cls-2" d="M238.9,107.93a3.15,3.15,0,0,1,1.63-.39v1h-.27a2.15,2.15,0,0,0-2.35,2.49v4.27h-1v-7.64h1V109A2.33,2.33,0,0,1,238.9,107.93Z"/><path class="cls-2" d="M243.27,108.51v4.74a1.36,1.36,0,0,0,.27,1,1.29,1.29,0,0,0,.94.26h.89v.84h-1.05a2.17,2.17,0,0,1-1.54-.48,2.15,2.15,0,0,1-.5-1.59v-4.74h-1.07v-.83h1.07v-1.92h1v1.92h2.1v.83Z"/><path class="cls-2" d="M247,109.42a3.37,3.37,0,0,1,1.3-1.37,3.74,3.74,0,0,1,1.89-.48,3.47,3.47,0,0,1,1.88.5,2.93,2.93,0,0,1,1.14,1.29v-1.68h1v7.64h-1v-1.69a3.09,3.09,0,0,1-1.15,1.29,3.35,3.35,0,0,1-1.89.52,3.7,3.7,0,0,1-1.87-.49,3.42,3.42,0,0,1-1.3-1.39,4.79,4.79,0,0,1,0-4.14Zm5.83.46a2.62,2.62,0,0,0-1-1.08,2.81,2.81,0,0,0-1.43-.38,2.86,2.86,0,0,0-1.46.37,2.56,2.56,0,0,0-1,1,3.84,3.84,0,0,0,0,3.29,2.64,2.64,0,0,0,1,1.08,2.86,2.86,0,0,0,1.46.37,2.71,2.71,0,0,0,1.43-.38,2.66,2.66,0,0,0,1-1.07,3.41,3.41,0,0,0,.38-1.63A3.37,3.37,0,0,0,252.83,109.88Z"/><path class="cls-2" d="M262.25,108.39a3.26,3.26,0,0,1,.87,2.45v4.48h-1V111a2.67,2.67,0,0,0-.63-1.91,2.21,2.21,0,0,0-1.7-.66,2.33,2.33,0,0,0-1.76.7,2.91,2.91,0,0,0-.66,2.06v4.17h-1v-7.64h1V109a2.52,2.52,0,0,1,1-1.07,3.2,3.2,0,0,1,1.55-.37A3,3,0,0,1,262.25,108.39Z"/><path class="cls-2" d="M271.25,108.08a3.39,3.39,0,0,1,1.88-.51,3.67,3.67,0,0,1,1.87.48,3.31,3.31,0,0,1,1.3,1.37,4.79,4.79,0,0,1,0,4.14A3.36,3.36,0,0,1,275,115a3.67,3.67,0,0,1-1.87.49,3.3,3.3,0,0,1-1.87-.52,3,3,0,0,1-1.17-1.28v5.3h-1V107.68h1v1.68A3.15,3.15,0,0,1,271.25,108.08Zm4.16,1.76a2.58,2.58,0,0,0-1-1,3,3,0,0,0-2.89,0,2.68,2.68,0,0,0-1,1.08,3.37,3.37,0,0,0-.38,1.62,3.41,3.41,0,0,0,.38,1.63,2.76,2.76,0,0,0,2.47,1.45,2.82,2.82,0,0,0,1.45-.37,2.66,2.66,0,0,0,1-1.08,3.84,3.84,0,0,0,0-3.29Z"/><path class="cls-2" d="M280,115a3.45,3.45,0,0,1-1.36-1.37,4.18,4.18,0,0,1-.5-2.08,4.24,4.24,0,0,1,.5-2.08,3.56,3.56,0,0,1,1.38-1.37,3.9,3.9,0,0,1,1.94-.48,4,4,0,0,1,2,.48,3.47,3.47,0,0,1,1.37,1.37,4.24,4.24,0,0,1,.49,2.08,4.07,4.07,0,0,1-.5,2.07,3.48,3.48,0,0,1-1.39,1.38,3.91,3.91,0,0,1-2,.49A3.8,3.8,0,0,1,280,115Zm3.33-.71a2.69,2.69,0,0,0,1.05-1,3.42,3.42,0,0,0,.4-1.7,3.32,3.32,0,0,0-.4-1.7,2.49,2.49,0,0,0-1-1,3,3,0,0,0-2.8,0,2.49,2.49,0,0,0-1,1,3.9,3.9,0,0,0,0,3.4,2.62,2.62,0,0,0,1,1,3,3,0,0,0,2.79,0Z"/><path class="cls-2" d="M287.59,109.42a3.42,3.42,0,0,1,1.32-1.37,3.8,3.8,0,0,1,1.92-.48,3.71,3.71,0,0,1,2.33.7,3.15,3.15,0,0,1,1.18,1.9h-1a2.14,2.14,0,0,0-.84-1.29,2.68,2.68,0,0,0-1.62-.47,2.79,2.79,0,0,0-1.39.35,2.45,2.45,0,0,0-1,1,3.65,3.65,0,0,0-.36,1.7,3.72,3.72,0,0,0,.36,1.71,2.42,2.42,0,0,0,1,1.05,2.79,2.79,0,0,0,1.39.35,2.74,2.74,0,0,0,1.62-.47,2.15,2.15,0,0,0,.84-1.31h1a3.12,3.12,0,0,1-1.19,1.89,3.65,3.65,0,0,1-2.32.72,3.71,3.71,0,0,1-1.92-.49,3.42,3.42,0,0,1-1.32-1.37,4.4,4.4,0,0,1-.47-2.08A4.46,4.46,0,0,1,287.59,109.42Z"/><path class="cls-2" d="M297.55,115a3.49,3.49,0,0,1-1.35-1.37,4.18,4.18,0,0,1-.5-2.08,4.24,4.24,0,0,1,.5-2.08,3.56,3.56,0,0,1,1.38-1.37,3.9,3.9,0,0,1,1.94-.48,4,4,0,0,1,2,.48,3.43,3.43,0,0,1,1.38,1.37,4.24,4.24,0,0,1,.49,2.08,4.07,4.07,0,0,1-.5,2.07,3.48,3.48,0,0,1-1.39,1.38,3.91,3.91,0,0,1-2,.49A3.86,3.86,0,0,1,297.55,115Zm3.34-.71a2.69,2.69,0,0,0,1.05-1,3.42,3.42,0,0,0,.4-1.7,3.32,3.32,0,0,0-.4-1.7,2.49,2.49,0,0,0-1-1,3,3,0,0,0-2.8,0,2.49,2.49,0,0,0-1,1,3.9,3.9,0,0,0,0,3.4,2.62,2.62,0,0,0,1,1,3,3,0,0,0,2.79,0Z"/><path class="cls-2" d="M33.59,131.75a3.51,3.51,0,0,1-1.36-1.37,4.18,4.18,0,0,1-.5-2.08,4.14,4.14,0,0,1,.51-2.08,3.54,3.54,0,0,1,1.37-1.37,4.2,4.2,0,0,1,3.9,0,3.47,3.47,0,0,1,1.37,1.37,4.24,4.24,0,0,1,.5,2.08,4.07,4.07,0,0,1-.51,2.07,3.4,3.4,0,0,1-1.38,1.38,3.93,3.93,0,0,1-2,.49A3.81,3.81,0,0,1,33.59,131.75Zm3.34-.71a2.6,2.6,0,0,0,1-1,3.32,3.32,0,0,0,.4-1.7,3.42,3.42,0,0,0-.39-1.7,2.51,2.51,0,0,0-1-1,3,3,0,0,0-2.8,0,2.49,2.49,0,0,0-1,1,4,4,0,0,0,0,3.4,2.58,2.58,0,0,0,1,1,2.83,2.83,0,0,0,1.39.34A2.93,2.93,0,0,0,36.93,131Z"/><path class="cls-2" d="M50.83,125.19a3.26,3.26,0,0,1,.87,2.45v4.48h-1v-4.36a2.71,2.71,0,0,0-.62-1.91,2.23,2.23,0,0,0-1.7-.66,2.34,2.34,0,0,0-1.77.7A3,3,0,0,0,46,128v4.17H45v-7.64h1v1.3a2.52,2.52,0,0,1,1-1.07,3.14,3.14,0,0,1,1.55-.37A3,3,0,0,1,50.83,125.19Z"/><path class="cls-2" d="M53.85,122.83a.7.7,0,0,1-.21-.52.66.66,0,0,1,.21-.51.69.69,0,0,1,.51-.2.68.68,0,0,1,.5.2.66.66,0,0,1,.21.51.7.7,0,0,1-.21.52.71.71,0,0,1-1,0Zm1,1.65v7.64h-1v-7.64Z"/><path class="cls-2" d="M62.9,125.19a3.26,3.26,0,0,1,.87,2.45v4.48h-1v-4.36a2.71,2.71,0,0,0-.62-1.91,2.23,2.23,0,0,0-1.7-.66,2.34,2.34,0,0,0-1.77.7,2.91,2.91,0,0,0-.66,2.06v4.17h-1v-7.64h1v1.3a2.64,2.64,0,0,1,1.05-1.07,3.21,3.21,0,0,1,1.56-.37A3.06,3.06,0,0,1,62.9,125.19Z"/><path class="cls-2" d="M71,124.87a3,3,0,0,1,1.15,1.28v-1.67h1v7.84a3.77,3.77,0,0,1-.46,1.86,3.06,3.06,0,0,1-1.27,1.25,3.72,3.72,0,0,1-1.84.45,4.15,4.15,0,0,1-2.45-.7,3,3,0,0,1-1.21-1.91h1a2.4,2.4,0,0,0,1,1.28,3.06,3.06,0,0,0,1.73.47,2.8,2.8,0,0,0,1.33-.31,2.23,2.23,0,0,0,.92-.93,3.06,3.06,0,0,0,.34-1.46v-1.89A3.11,3.11,0,0,1,71,131.72a3.3,3.3,0,0,1-1.87.52,3.68,3.68,0,0,1-1.88-.49,3.36,3.36,0,0,1-1.3-1.39,4.79,4.79,0,0,1,0-4.14,3.31,3.31,0,0,1,1.3-1.37,3.68,3.68,0,0,1,1.88-.48A3.49,3.49,0,0,1,71,124.87Zm.77,1.81a2.68,2.68,0,0,0-1-1.08,3,3,0,0,0-2.89,0,2.58,2.58,0,0,0-1,1,3.84,3.84,0,0,0,0,3.29,2.66,2.66,0,0,0,1,1.08,2.82,2.82,0,0,0,1.45.37,2.76,2.76,0,0,0,2.47-1.45,3.41,3.41,0,0,0,.38-1.63A3.37,3.37,0,0,0,71.79,126.68Z"/><path class="cls-2" d="M82,124.48v7.64H81v-1.34a2.34,2.34,0,0,1-1,1.09,3.26,3.26,0,0,1-1.57.38,3.06,3.06,0,0,1-2.24-.85,3.29,3.29,0,0,1-.86-2.45v-4.47h1v4.35a2.67,2.67,0,0,0,.63,1.91,2.21,2.21,0,0,0,1.7.66,2.33,2.33,0,0,0,1.76-.7,2.91,2.91,0,0,0,.66-2.06v-4.16Zm-2-2.25-2.87,1.66v-.75l2.87-1.8Z"/><path class="cls-2" d="M90.07,125.19a3.26,3.26,0,0,1,.87,2.45v4.48H90v-4.36a2.66,2.66,0,0,0-.62-1.91,2.21,2.21,0,0,0-1.7-.66,2.3,2.3,0,0,0-1.76.7,2.91,2.91,0,0,0-.66,2.06v4.17h-1v-7.64h1v1.3a2.52,2.52,0,0,1,1-1.07,3.17,3.17,0,0,1,1.55-.37A3,3,0,0,1,90.07,125.19Z"/><path class="cls-2" d="M99.08,124.87a3.46,3.46,0,0,1,1.87-.5,3.7,3.7,0,0,1,1.88.48,3.35,3.35,0,0,1,1.29,1.37,4.79,4.79,0,0,1,0,4.14,3.42,3.42,0,0,1-1.3,1.39,3.7,3.7,0,0,1-1.87.49,3.45,3.45,0,0,1-1.88-.5,2.91,2.91,0,0,1-1.16-1.3v1.68H97V121.76h1v4.41A3.1,3.1,0,0,1,99.08,124.87Zm4.14,1.77a2.5,2.5,0,0,0-1-1,2.86,2.86,0,0,0-1.46-.37,2.81,2.81,0,0,0-1.43.38,2.62,2.62,0,0,0-1,1.08,3.37,3.37,0,0,0-.38,1.62,3.41,3.41,0,0,0,.38,1.63,2.66,2.66,0,0,0,1,1.07,2.71,2.71,0,0,0,1.43.38,2.86,2.86,0,0,0,1.46-.37,2.58,2.58,0,0,0,1-1.08,3.75,3.75,0,0,0,0-3.29Z"/><path class="cls-2" d="M113.28,128.68h-6.34a3.1,3.1,0,0,0,.42,1.48,2.36,2.36,0,0,0,1,.93,2.88,2.88,0,0,0,1.34.32,2.68,2.68,0,0,0,1.6-.46,2.16,2.16,0,0,0,.86-1.25h1a3.26,3.26,0,0,1-1.2,1.83,3.67,3.67,0,0,1-2.3.71,3.77,3.77,0,0,1-1.93-.49,3.4,3.4,0,0,1-1.34-1.37,4.29,4.29,0,0,1-.48-2.08,4.43,4.43,0,0,1,.47-2.08,3.34,3.34,0,0,1,1.33-1.38,4,4,0,0,1,2-.47,3.81,3.81,0,0,1,1.91.47,3.29,3.29,0,0,1,1.26,1.28,3.74,3.74,0,0,1,.44,1.79A7.37,7.37,0,0,1,113.28,128.68ZM112,126.43a2.19,2.19,0,0,0-1-.91,2.9,2.9,0,0,0-1.34-.31,2.64,2.64,0,0,0-1.86.7,2.77,2.77,0,0,0-.86,2h5.38A2.67,2.67,0,0,0,112,126.43Z"/><path class="cls-2" d="M120.93,125.19a3.26,3.26,0,0,1,.87,2.45v4.48h-1v-4.36a2.71,2.71,0,0,0-.62-1.91,2.24,2.24,0,0,0-1.7-.66,2.34,2.34,0,0,0-1.77.7,2.91,2.91,0,0,0-.66,2.06v4.17h-1v-7.64h1v1.3a2.64,2.64,0,0,1,1-1.07,3.21,3.21,0,0,1,1.56-.37A3.06,3.06,0,0,1,120.93,125.19Z"/><path class="cls-2" d="M130.85,128.68h-6.34a3.1,3.1,0,0,0,.42,1.48,2.36,2.36,0,0,0,1,.93,2.88,2.88,0,0,0,1.34.32,2.68,2.68,0,0,0,1.6-.46,2.16,2.16,0,0,0,.86-1.25h1a3.26,3.26,0,0,1-1.2,1.83,3.67,3.67,0,0,1-2.3.71,3.77,3.77,0,0,1-1.93-.49,3.4,3.4,0,0,1-1.34-1.37,4.29,4.29,0,0,1-.48-2.08,4.43,4.43,0,0,1,.47-2.08,3.34,3.34,0,0,1,1.33-1.38,4,4,0,0,1,2-.47,3.81,3.81,0,0,1,1.91.47,3.29,3.29,0,0,1,1.26,1.28,3.74,3.74,0,0,1,.44,1.79A7.37,7.37,0,0,1,130.85,128.68Zm-1.31-2.25a2.19,2.19,0,0,0-1-.91,2.9,2.9,0,0,0-1.34-.31,2.64,2.64,0,0,0-1.86.7,2.77,2.77,0,0,0-.86,2h5.38A2.67,2.67,0,0,0,129.54,126.43Z"/><path class="cls-2" d="M135.68,125.31h-1.77v6.81h-1v-6.81h-1.07v-.83h1.07V124a2.43,2.43,0,0,1,.63-1.84,3,3,0,0,1,2.07-.58v.84a2,2,0,0,0-1.34.36,1.61,1.61,0,0,0-.38,1.22v.53h1.77Z"/><path class="cls-2" d="M137.21,122.83a.7.7,0,0,1-.21-.52.66.66,0,0,1,.21-.51.68.68,0,0,1,.5-.2.69.69,0,0,1,.51.2.66.66,0,0,1,.21.51.72.72,0,0,1-.72.73A.69.69,0,0,1,137.21,122.83Zm1,1.65v7.64h-1v-7.64Z"/><path class="cls-2" d="M140.46,126.22a3.33,3.33,0,0,1,1.31-1.37,3.8,3.8,0,0,1,1.92-.48,3.71,3.71,0,0,1,2.33.7,3.21,3.21,0,0,1,1.19,1.9h-1.05a2.2,2.2,0,0,0-.85-1.29,2.68,2.68,0,0,0-1.62-.47,2.77,2.77,0,0,0-1.38.35,2.41,2.41,0,0,0-1,1,3.66,3.66,0,0,0-.35,1.7,3.73,3.73,0,0,0,.35,1.71,2.38,2.38,0,0,0,1,1.05,2.77,2.77,0,0,0,1.38.35,2.74,2.74,0,0,0,1.62-.47,2.21,2.21,0,0,0,.85-1.31h1.05a3.21,3.21,0,0,1-1.19,1.89,4.07,4.07,0,0,1-4.25.23,3.33,3.33,0,0,1-1.31-1.37,4.29,4.29,0,0,1-.48-2.08A4.34,4.34,0,0,1,140.46,126.22Z"/><path class="cls-2" d="M149,122.83a.7.7,0,0,1-.21-.52.66.66,0,0,1,.21-.51.68.68,0,0,1,.5-.2.65.65,0,0,1,.5.2.67.67,0,0,1,.22.51.71.71,0,0,1-.22.52.66.66,0,0,1-.5.21A.69.69,0,0,1,149,122.83Zm1,1.65v7.64h-1v-7.64Z"/><path class="cls-2" d="M153.62,131.75a3.49,3.49,0,0,1-1.35-1.37,4.08,4.08,0,0,1-.5-2.08,4.24,4.24,0,0,1,.5-2.08,3.6,3.6,0,0,1,1.37-1.37,4.2,4.2,0,0,1,3.9,0,3.5,3.5,0,0,1,1.38,1.37,4.24,4.24,0,0,1,.49,2.08,4.07,4.07,0,0,1-.5,2.07,3.48,3.48,0,0,1-1.39,1.38,3.91,3.91,0,0,1-2,.49A3.83,3.83,0,0,1,153.62,131.75ZM157,131a2.69,2.69,0,0,0,1-1,3.81,3.81,0,0,0,0-3.4,2.49,2.49,0,0,0-1-1,3,3,0,0,0-2.8,0,2.44,2.44,0,0,0-1,1,3.9,3.9,0,0,0,0,3.4,2.56,2.56,0,0,0,1,1,2.86,2.86,0,0,0,1.39.34A2.9,2.9,0,0,0,157,131Z"/><path class="cls-2" d="M165.06,126.22a3.37,3.37,0,0,1,1.3-1.37,3.74,3.74,0,0,1,1.89-.48,3.47,3.47,0,0,1,1.88.5,2.93,2.93,0,0,1,1.14,1.29v-1.68h1v7.64h-1v-1.69a3.09,3.09,0,0,1-1.15,1.29,3.35,3.35,0,0,1-1.89.52,3.7,3.7,0,0,1-1.87-.49,3.42,3.42,0,0,1-1.3-1.39,4.79,4.79,0,0,1,0-4.14Zm5.83.46a2.62,2.62,0,0,0-1-1.08,2.81,2.81,0,0,0-1.43-.38,2.86,2.86,0,0,0-1.46.37,2.56,2.56,0,0,0-1,1,3.84,3.84,0,0,0,0,3.29,2.64,2.64,0,0,0,1,1.08,2.86,2.86,0,0,0,1.46.37,2.71,2.71,0,0,0,1.43-.38,2.66,2.66,0,0,0,1-1.07,3.41,3.41,0,0,0,.38-1.63A3.37,3.37,0,0,0,170.89,126.68Z"/><path class="cls-2" d="M178.81,131.63a2.2,2.2,0,0,1-.93-1.66h1a1.42,1.42,0,0,0,.61,1,2.32,2.32,0,0,0,1.44.4,1.93,1.93,0,0,0,1.26-.38,1.17,1.17,0,0,0,.45-.94.86.86,0,0,0-.25-.64,1.79,1.79,0,0,0-.64-.4,8.65,8.65,0,0,0-1-.31,10.9,10.9,0,0,1-1.39-.45,2.36,2.36,0,0,1-.9-.67,1.91,1.91,0,0,1,0-2.22,2.26,2.26,0,0,1,.95-.75,3.3,3.3,0,0,1,1.4-.28,3.07,3.07,0,0,1,2,.62,2.3,2.3,0,0,1,.81,1.72h-1a1.49,1.49,0,0,0-.53-1.09,2,2,0,0,0-1.32-.41,1.94,1.94,0,0,0-1.2.35,1,1,0,0,0-.47.87,1,1,0,0,0,.28.73,1.92,1.92,0,0,0,.68.45c.27.11.63.22,1.09.36a10,10,0,0,1,1.31.43,2.14,2.14,0,0,1,.84.62,1.61,1.61,0,0,1,.37,1.07,1.84,1.84,0,0,1-.34,1.1,2.27,2.27,0,0,1-.94.77,3.33,3.33,0,0,1-1.38.28A3.58,3.58,0,0,1,178.81,131.63Z"/><path class="cls-2" d="M192.09,124.48v7.64h-1v-1.34a2.34,2.34,0,0,1-1,1.09,3.26,3.26,0,0,1-1.57.38,3.06,3.06,0,0,1-2.24-.85,3.29,3.29,0,0,1-.86-2.45v-4.47h1v4.35a2.67,2.67,0,0,0,.63,1.91,2.21,2.21,0,0,0,1.7.66,2.33,2.33,0,0,0,1.76-.7,2.91,2.91,0,0,0,.66-2.06v-4.16Z"/><path class="cls-2" d="M199.57,131.75a3.51,3.51,0,0,1-1.36-1.37,4.18,4.18,0,0,1-.49-2.08,4.13,4.13,0,0,1,.5-2.08,3.54,3.54,0,0,1,1.37-1.37,4.2,4.2,0,0,1,3.9,0,3.47,3.47,0,0,1,1.37,1.37,4.24,4.24,0,0,1,.5,2.08,4.17,4.17,0,0,1-.5,2.07,3.48,3.48,0,0,1-1.39,1.38,3.93,3.93,0,0,1-2,.49A3.83,3.83,0,0,1,199.57,131.75Zm3.34-.71a2.6,2.6,0,0,0,1-1,3.32,3.32,0,0,0,.4-1.7,3.42,3.42,0,0,0-.39-1.7,2.51,2.51,0,0,0-1-1,2.88,2.88,0,0,0-1.4-.35,2.94,2.94,0,0,0-1.4.35,2.49,2.49,0,0,0-1,1,4,4,0,0,0,0,3.4,2.58,2.58,0,0,0,1,1,2.86,2.86,0,0,0,1.39.34A2.93,2.93,0,0,0,202.91,131Z"/><path class="cls-2" d="M209.12,124.73a3.17,3.17,0,0,1,1.63-.39v1h-.27a2.42,2.42,0,0,0-1.7.58,2.45,2.45,0,0,0-.65,1.91v4.27h-1v-7.64h1v1.36A2.43,2.43,0,0,1,209.12,124.73Z"/><path class="cls-2" d="M217.3,124.87a2.94,2.94,0,0,1,1.15,1.28v-1.67h1v7.84a3.67,3.67,0,0,1-.46,1.86,3.1,3.1,0,0,1-1.26,1.25,3.75,3.75,0,0,1-1.85.45,4.12,4.12,0,0,1-2.44-.7,3,3,0,0,1-1.21-1.91h1a2.4,2.4,0,0,0,1,1.28,3.08,3.08,0,0,0,1.73.47,2.78,2.78,0,0,0,1.33-.31,2.23,2.23,0,0,0,.92-.93,3,3,0,0,0,.34-1.46v-1.89a3,3,0,0,1-1.16,1.29,3.27,3.27,0,0,1-1.86.52,3.75,3.75,0,0,1-1.89-.49,3.42,3.42,0,0,1-1.3-1.39,4.79,4.79,0,0,1,0-4.14,3.37,3.37,0,0,1,1.3-1.37,3.74,3.74,0,0,1,1.89-.48A3.48,3.48,0,0,1,217.3,124.87Zm.77,1.81a2.62,2.62,0,0,0-1-1.08,2.81,2.81,0,0,0-1.43-.38,2.86,2.86,0,0,0-1.46.37,2.5,2.5,0,0,0-1,1,3.84,3.84,0,0,0,0,3.29,2.58,2.58,0,0,0,1,1.08,2.86,2.86,0,0,0,1.46.37A2.71,2.71,0,0,0,217,131a2.66,2.66,0,0,0,1-1.07,3.41,3.41,0,0,0,.38-1.63A3.37,3.37,0,0,0,218.07,126.68Z"/><path class="cls-2" d="M221.69,126.22a3.37,3.37,0,0,1,1.3-1.37,3.74,3.74,0,0,1,1.89-.48,3.49,3.49,0,0,1,1.88.5,2.93,2.93,0,0,1,1.14,1.29v-1.68h1v7.64h-1v-1.69a3,3,0,0,1-1.16,1.29,3.29,3.29,0,0,1-1.88.52,3.7,3.7,0,0,1-1.87-.49,3.42,3.42,0,0,1-1.3-1.39,4.79,4.79,0,0,1,0-4.14Zm5.83.46a2.62,2.62,0,0,0-1-1.08,2.81,2.81,0,0,0-1.43-.38,2.86,2.86,0,0,0-1.46.37,2.5,2.5,0,0,0-1,1,3.84,3.84,0,0,0,0,3.29,2.58,2.58,0,0,0,1,1.08,2.86,2.86,0,0,0,1.46.37,2.71,2.71,0,0,0,1.43-.38,2.66,2.66,0,0,0,1-1.07,3.41,3.41,0,0,0,.38-1.63A3.37,3.37,0,0,0,227.52,126.68Z"/><path class="cls-2" d="M236.94,125.19a3.26,3.26,0,0,1,.87,2.45v4.48h-1v-4.36a2.67,2.67,0,0,0-.63-1.91,2.21,2.21,0,0,0-1.7-.66,2.32,2.32,0,0,0-1.76.7,2.91,2.91,0,0,0-.66,2.06v4.17h-1v-7.64h1v1.3a2.52,2.52,0,0,1,1.05-1.07,3.17,3.17,0,0,1,1.55-.37A3,3,0,0,1,236.94,125.19Z"/><path class="cls-2" d="M240,122.83a.7.7,0,0,1-.21-.52.66.66,0,0,1,.21-.51.68.68,0,0,1,.5-.2.66.66,0,0,1,.5.2.64.64,0,0,1,.22.51.73.73,0,0,1-.72.73A.69.69,0,0,1,240,122.83Zm1,1.65v7.64h-1v-7.64Z"/><path class="cls-2" d="M243.71,131.31h4v.81h-5.13v-.81l3.94-6h-3.86v-.81h5v.81Z"/><path class="cls-2" d="M249.38,126.22a3.37,3.37,0,0,1,1.3-1.37,3.74,3.74,0,0,1,1.89-.48,3.49,3.49,0,0,1,1.88.5,2.93,2.93,0,0,1,1.14,1.29v-1.68h1v7.64h-1v-1.69a3.09,3.09,0,0,1-1.15,1.29,3.35,3.35,0,0,1-1.89.52,3.7,3.7,0,0,1-1.87-.49,3.42,3.42,0,0,1-1.3-1.39,4.79,4.79,0,0,1,0-4.14Zm5.83.46a2.62,2.62,0,0,0-1-1.08,2.81,2.81,0,0,0-1.43-.38,2.86,2.86,0,0,0-1.46.37,2.56,2.56,0,0,0-1,1,3.84,3.84,0,0,0,0,3.29,2.64,2.64,0,0,0,1,1.08,2.86,2.86,0,0,0,1.46.37,2.71,2.71,0,0,0,1.43-.38,2.66,2.66,0,0,0,1-1.07,3.41,3.41,0,0,0,.38-1.63A3.37,3.37,0,0,0,255.21,126.68Z"/><path class="cls-2" d="M258.84,126.22a3.39,3.39,0,0,1,1.31-1.37,3.8,3.8,0,0,1,1.92-.48,3.69,3.69,0,0,1,2.33.7,3.21,3.21,0,0,1,1.19,1.9h-1a2.15,2.15,0,0,0-.85-1.29,2.63,2.63,0,0,0-1.62-.47,2.77,2.77,0,0,0-1.38.35,2.47,2.47,0,0,0-1,1,3.79,3.79,0,0,0-.35,1.7,3.86,3.86,0,0,0,.35,1.71,2.44,2.44,0,0,0,1,1.05,2.77,2.77,0,0,0,1.38.35,2.7,2.7,0,0,0,1.62-.47,2.17,2.17,0,0,0,.85-1.31h1a3.21,3.21,0,0,1-1.19,1.89,4.07,4.07,0,0,1-4.25.23,3.39,3.39,0,0,1-1.31-1.37,4.29,4.29,0,0,1-.48-2.08A4.34,4.34,0,0,1,258.84,126.22Z"/><path class="cls-2" d="M267.38,122.83a.7.7,0,0,1-.21-.52.66.66,0,0,1,.21-.51.68.68,0,0,1,.5-.2.69.69,0,0,1,.51.2.66.66,0,0,1,.21.51.72.72,0,0,1-.72.73A.69.69,0,0,1,267.38,122.83Zm1,1.65v7.64h-1v-7.64Z"/><path class="cls-2" d="M272,131.75a3.45,3.45,0,0,1-1.36-1.37,4.18,4.18,0,0,1-.5-2.08,4.24,4.24,0,0,1,.5-2.08,3.56,3.56,0,0,1,1.38-1.37,3.93,3.93,0,0,1,1.94-.48,4,4,0,0,1,2,.48,3.47,3.47,0,0,1,1.37,1.37,4.24,4.24,0,0,1,.49,2.08,4.07,4.07,0,0,1-.5,2.07,3.42,3.42,0,0,1-1.39,1.38,3.91,3.91,0,0,1-2,.49A3.8,3.8,0,0,1,272,131.75Zm3.33-.71a2.69,2.69,0,0,0,1.05-1,3.42,3.42,0,0,0,.4-1.7,3.32,3.32,0,0,0-.4-1.7,2.49,2.49,0,0,0-1-1,3,3,0,0,0-2.8,0,2.49,2.49,0,0,0-1,1,3.9,3.9,0,0,0,0,3.4,2.62,2.62,0,0,0,1,1,3,3,0,0,0,2.79,0Zm0-8.88-2.87,1.66v-.75l2.87-1.8Z"/><path class="cls-2" d="M285.41,125.19a3.26,3.26,0,0,1,.87,2.45v4.48h-1v-4.36a2.71,2.71,0,0,0-.62-1.91,2.23,2.23,0,0,0-1.7-.66,2.34,2.34,0,0,0-1.77.7,3,3,0,0,0-.65,2.06v4.17h-1v-7.64h1v1.3a2.52,2.52,0,0,1,1.05-1.07,3.14,3.14,0,0,1,1.55-.37A3.06,3.06,0,0,1,285.41,125.19Z"/><path class="cls-2" d="M288.11,132a.72.72,0,0,1,.51-1.23.68.68,0,0,1,.49.2.74.74,0,0,1,0,1,.65.65,0,0,1-.49.21A.66.66,0,0,1,288.11,132Z"/><path class="cls-3" d="M115.52,14.67v9.77h-2V18.08l-2.62,6.36h-1.49l-2.63-6.36v6.36h-2V14.67h2.23l3.11,7.26,3.1-7.26Z"/><path class="cls-3" d="M117.41,18.45a3.41,3.41,0,0,1,1.28-1.4,3.33,3.33,0,0,1,1.8-.49,3.13,3.13,0,0,1,1.52.35,3,3,0,0,1,1,.88V16.68h2v7.76h-2V23.3a2.89,2.89,0,0,1-1,.91,3.48,3.48,0,0,1-3.32-.15,3.6,3.6,0,0,1-1.28-1.42,4.59,4.59,0,0,1-.47-2.11A4.49,4.49,0,0,1,117.41,18.45Zm5.36.89a1.93,1.93,0,0,0-.76-.79,2,2,0,0,0-1-.27,2.08,2.08,0,0,0-1,.26,2,2,0,0,0-.75.78,2.46,2.46,0,0,0-.28,1.21,2.54,2.54,0,0,0,.28,1.23,2,2,0,0,0,.76.8,1.89,1.89,0,0,0,1,.28,2,2,0,0,0,1-.27,2,2,0,0,0,.76-.78,2.49,2.49,0,0,0,.28-1.23A2.45,2.45,0,0,0,122.77,19.34Zm0-4.67-3.22,1.47v-1.4l3.22-1.67Z"/><path class="cls-3" d="M128.2,24.22a3.13,3.13,0,0,1-1.2-.93,2.41,2.41,0,0,1-.48-1.3h2a1.09,1.09,0,0,0,.45.74,1.78,1.78,0,0,0,1.83.07.67.67,0,0,0,.31-.57.6.6,0,0,0-.38-.57,7.19,7.19,0,0,0-1.23-.41,10.63,10.63,0,0,1-1.42-.44,2.56,2.56,0,0,1-1-.68,1.84,1.84,0,0,1-.4-1.25,2.09,2.09,0,0,1,.37-1.18,2.61,2.61,0,0,1,1.07-.84,4.05,4.05,0,0,1,1.63-.3,3.34,3.34,0,0,1,2.21.69,2.57,2.57,0,0,1,.91,1.87H131a1,1,0,0,0-.38-.74,1.74,1.74,0,0,0-1.74-.07.61.61,0,0,0-.28.54.65.65,0,0,0,.39.6,6.5,6.5,0,0,0,1.22.41,11.6,11.6,0,0,1,1.38.43,2.4,2.4,0,0,1,1,.7,1.92,1.92,0,0,1,.41,1.24,2,2,0,0,1-.37,1.2,2.38,2.38,0,0,1-1.07.83,4.47,4.47,0,0,1-3.32,0Z"/><path class="cls-3" d="M145.06,21.15h-5.67a1.89,1.89,0,0,0,.58,1.31,1.82,1.82,0,0,0,1.28.48A1.59,1.59,0,0,0,142.8,22h2.12a3.58,3.58,0,0,1-1.29,1.84,3.79,3.79,0,0,1-2.34.72,4,4,0,0,1-2-.49,3.56,3.56,0,0,1-1.39-1.41,4.77,4.77,0,0,1,0-4.21,3.31,3.31,0,0,1,1.37-1.4,4.07,4.07,0,0,1,2-.49,4,4,0,0,1,2,.47,3.4,3.4,0,0,1,1.36,1.35,4.15,4.15,0,0,1,.48,2A5.81,5.81,0,0,1,145.06,21.15Zm-2-1.32a1.57,1.57,0,0,0-.54-1.21,2,2,0,0,0-1.31-.45,1.74,1.74,0,0,0-1.22.44,1.91,1.91,0,0,0-.61,1.22Z"/><path class="cls-3" d="M146.53,18.45a3.44,3.44,0,0,1,1.35-1.4,3.94,3.94,0,0,1,2-.49,3.84,3.84,0,0,1,2.39.72,3.52,3.52,0,0,1,1.27,2h-2.12a1.49,1.49,0,0,0-.57-.79,1.77,1.77,0,0,0-2.31.32,2.68,2.68,0,0,0-.49,1.73,2.67,2.67,0,0,0,.49,1.72,1.62,1.62,0,0,0,1.33.6,1.48,1.48,0,0,0,1.55-1.06h2.12a3.57,3.57,0,0,1-1.28,2,3.72,3.72,0,0,1-2.38.74,3.94,3.94,0,0,1-2-.49,3.44,3.44,0,0,1-1.35-1.4,4.33,4.33,0,0,1-.49-2.11A4.35,4.35,0,0,1,146.53,18.45Z"/><path class="cls-3" d="M156.4,24.07A3.54,3.54,0,0,1,155,22.66a4.24,4.24,0,0,1-.51-2.1,4.14,4.14,0,0,1,.52-2.1,3.62,3.62,0,0,1,1.44-1.41,4.15,4.15,0,0,1,2-.49,4.2,4.2,0,0,1,2,.49,3.66,3.66,0,0,1,1.43,1.41,4.15,4.15,0,0,1,.53,2.1,4.05,4.05,0,0,1-.54,2.1,3.73,3.73,0,0,1-1.46,1.41,4.23,4.23,0,0,1-2.05.49A4,4,0,0,1,156.4,24.07Zm3-1.47a1.88,1.88,0,0,0,.75-.78,2.55,2.55,0,0,0,.28-1.26,2.32,2.32,0,0,0-.58-1.7,1.9,1.9,0,0,0-1.42-.6,1.87,1.87,0,0,0-1.41.6,2.36,2.36,0,0,0-.56,1.7,2.38,2.38,0,0,0,.55,1.7,1.81,1.81,0,0,0,1.39.6A2,2,0,0,0,159.41,22.6Z"/><path class="cls-3" d="M170.44,17.45a3.33,3.33,0,0,1,.85,2.44v4.55h-2V20.15a2,2,0,0,0-.46-1.42,1.64,1.64,0,0,0-1.26-.49,1.67,1.67,0,0,0-1.28.49,2,2,0,0,0-.47,1.42v4.29h-2V16.68h2v1a2.61,2.61,0,0,1,1-.79,3.13,3.13,0,0,1,1.34-.29A3,3,0,0,1,170.44,17.45Z"/><path class="cls-3" d="M174.58,24.07a3.54,3.54,0,0,1-1.41-1.41,4.24,4.24,0,0,1-.51-2.1,4.15,4.15,0,0,1,.53-2.1,3.66,3.66,0,0,1,1.43-1.41,4.2,4.2,0,0,1,2-.49,4.15,4.15,0,0,1,2,.49,3.62,3.62,0,0,1,1.44,1.41,4.14,4.14,0,0,1,.52,2.1,4.05,4.05,0,0,1-.54,2.1,3.71,3.71,0,0,1-1.45,1.41,4.25,4.25,0,0,1-2.05.49A4.11,4.11,0,0,1,174.58,24.07Zm3-1.47a2,2,0,0,0,.75-.78,2.67,2.67,0,0,0,.28-1.26,2.36,2.36,0,0,0-.58-1.7,1.93,1.93,0,0,0-1.43-.6,1.85,1.85,0,0,0-1.4.6,2.36,2.36,0,0,0-.57,1.7,2.38,2.38,0,0,0,.55,1.7,1.83,1.83,0,0,0,1.4.6A2.07,2.07,0,0,0,177.6,22.6Zm.66-8L175,16v-1.4L178.26,13Z"/><path class="cls-3" d="M194,17.45a3.29,3.29,0,0,1,.87,2.44v4.55h-2V20.15a1.93,1.93,0,0,0-.46-1.39,1.89,1.89,0,0,0-2.52,0,1.89,1.89,0,0,0-.47,1.39v4.29h-2V20.15a1.93,1.93,0,0,0-.47-1.39,1.64,1.64,0,0,0-1.26-.48,1.72,1.72,0,0,0-1.28.48,1.93,1.93,0,0,0-.47,1.39v4.29h-2V16.68h2v.94a2.67,2.67,0,0,1,1-.77,3,3,0,0,1,1.31-.28A3.46,3.46,0,0,1,188,17a2.8,2.8,0,0,1,1.11,1.1,2.77,2.77,0,0,1,1.1-1.07,3.13,3.13,0,0,1,1.56-.41A3.08,3.08,0,0,1,194,17.45Z"/><path class="cls-3" d="M196.89,15.43a1.16,1.16,0,0,1,0-1.64,1.2,1.2,0,0,1,.86-.33,1.18,1.18,0,0,1,.86.33,1.16,1.16,0,0,1,0,1.64,1.18,1.18,0,0,1-.86.33A1.2,1.2,0,0,1,196.89,15.43Zm1.83,1.25v7.76h-2V16.68Z"/><path class="cls-3" d="M200.63,18.45a3.52,3.52,0,0,1,1.36-1.4,3.94,3.94,0,0,1,2-.49,3.84,3.84,0,0,1,2.39.72,3.46,3.46,0,0,1,1.26,2h-2.11a1.49,1.49,0,0,0-.57-.79,1.77,1.77,0,0,0-2.31.32,2.68,2.68,0,0,0-.49,1.73,2.67,2.67,0,0,0,.49,1.72,1.62,1.62,0,0,0,1.33.6,1.48,1.48,0,0,0,1.55-1.06h2.11a3.5,3.5,0,0,1-1.27,2,3.72,3.72,0,0,1-2.38.74,3.94,3.94,0,0,1-2-.49,3.52,3.52,0,0,1-1.36-1.4,4.79,4.79,0,0,1,0-4.22Z"/><path class="cls-3" d="M210.5,24.07a3.58,3.58,0,0,1-1.4-1.41,4.24,4.24,0,0,1-.51-2.1,4.14,4.14,0,0,1,.52-2.1,3.62,3.62,0,0,1,1.44-1.41,4.15,4.15,0,0,1,2-.49,4.2,4.2,0,0,1,2,.49A3.66,3.66,0,0,1,216,18.46a4.15,4.15,0,0,1,.53,2.1,4.05,4.05,0,0,1-.54,2.1,3.73,3.73,0,0,1-1.46,1.41,4.23,4.23,0,0,1-2,.49A4.11,4.11,0,0,1,210.5,24.07Zm3-1.47a2,2,0,0,0,.75-.78,2.55,2.55,0,0,0,.28-1.26,2.32,2.32,0,0,0-.58-1.7,1.9,1.9,0,0,0-1.42-.6,1.87,1.87,0,0,0-1.41.6,2.36,2.36,0,0,0-.57,1.7,2.39,2.39,0,0,0,.56,1.7,1.81,1.81,0,0,0,1.39.6A2.07,2.07,0,0,0,213.52,22.6Z"/></svg>