<svg id="Layer_1" data-name="Layer 1" xmlns="http://www.w3.org/2000/svg" viewBox="0 0 320.94 113.15"><defs><style>.cls-1{fill:#fff;}.cls-2{fill:#1073dd;}.cls-3{fill:#093f70;}</style></defs><rect class="cls-1" width="320.94" height="113.15" rx="4.57"/><path class="cls-2" d="M102.32,22.58H98.43l-.64,1.86H95.73l3.51-9.79h2.28L105,24.44H103ZM101.79,21l-1.41-4.09L99,21Z"/><path class="cls-2" d="M106.34,18.45a3.52,3.52,0,0,1,1.36-1.4,3.94,3.94,0,0,1,2-.49,3.81,3.81,0,0,1,2.38.72,3.47,3.47,0,0,1,1.27,2h-2.11a1.61,1.61,0,0,0-.57-.79,1.68,1.68,0,0,0-1-.29,1.64,1.64,0,0,0-1.33.61,2.68,2.68,0,0,0-.49,1.73,2.67,2.67,0,0,0,.49,1.72,1.63,1.63,0,0,0,1.33.6,1.5,1.5,0,0,0,1.56-1.06h2.11a3.55,3.55,0,0,1-1.27,2,3.74,3.74,0,0,1-2.38.74,3.94,3.94,0,0,1-2-.49,3.52,3.52,0,0,1-1.36-1.4,4.33,4.33,0,0,1-.49-2.11A4.35,4.35,0,0,1,106.34,18.45Z"/><path class="cls-2" d="M114.77,18.45a3.46,3.46,0,0,1,1.36-1.4,3.9,3.9,0,0,1,2-.49,3.84,3.84,0,0,1,2.39.72,3.52,3.52,0,0,1,1.27,2h-2.12a1.53,1.53,0,0,0-.56-.79,1.68,1.68,0,0,0-1-.29,1.64,1.64,0,0,0-1.33.61,2.68,2.68,0,0,0-.49,1.73,2.67,2.67,0,0,0,.49,1.72,1.63,1.63,0,0,0,1.33.6,1.48,1.48,0,0,0,1.55-1.06h2.12a3.57,3.57,0,0,1-1.28,2,3.7,3.7,0,0,1-2.38.74,3.9,3.9,0,0,1-2-.49,3.46,3.46,0,0,1-1.36-1.4,4.33,4.33,0,0,1-.49-2.11A4.35,4.35,0,0,1,114.77,18.45Z"/><path class="cls-2" d="M130.36,21.15h-5.67a1.94,1.94,0,0,0,.59,1.31,1.81,1.81,0,0,0,1.27.48,1.6,1.6,0,0,0,1.56-.94h2.11a3.47,3.47,0,0,1-1.29,1.84,3.74,3.74,0,0,1-2.33.72,4,4,0,0,1-2-.49,3.49,3.49,0,0,1-1.39-1.41,4.77,4.77,0,0,1,0-4.21,3.31,3.31,0,0,1,1.37-1.4,4.43,4.43,0,0,1,4,0,3.46,3.46,0,0,1,1.36,1.35,4.15,4.15,0,0,1,.48,2A4.42,4.42,0,0,1,130.36,21.15Zm-2-1.32a1.54,1.54,0,0,0-.55-1.21,1.94,1.94,0,0,0-1.3-.45,1.74,1.74,0,0,0-1.22.44,1.86,1.86,0,0,0-.61,1.22Z"/><path class="cls-2" d="M133.11,24.22a3,3,0,0,1-1.2-.93,2.41,2.41,0,0,1-.48-1.3h2a1.07,1.07,0,0,0,.44.74,1.8,1.8,0,0,0,1.84.07.67.67,0,0,0,.31-.57.61.61,0,0,0-.38-.57,7.19,7.19,0,0,0-1.23-.41,10.18,10.18,0,0,1-1.42-.44,2.48,2.48,0,0,1-1-.68,1.84,1.84,0,0,1-.4-1.25A2,2,0,0,1,132,17.7a2.58,2.58,0,0,1,1.06-.84,4.12,4.12,0,0,1,1.63-.3,3.35,3.35,0,0,1,2.22.69,2.57,2.57,0,0,1,.91,1.87h-1.88a1.07,1.07,0,0,0-.38-.74,1.46,1.46,0,0,0-.92-.27,1.44,1.44,0,0,0-.82.2.62.62,0,0,0-.29.54.65.65,0,0,0,.39.6,6.77,6.77,0,0,0,1.22.41,12.47,12.47,0,0,1,1.39.43,2.37,2.37,0,0,1,.94.7,1.87,1.87,0,0,1,.42,1.24,2.1,2.1,0,0,1-.37,1.2,2.44,2.44,0,0,1-1.07.83,4.47,4.47,0,0,1-3.32,0Z"/><path class="cls-2" d="M140.9,24.07a3.58,3.58,0,0,1-1.4-1.41,4.24,4.24,0,0,1-.51-2.1,4.14,4.14,0,0,1,.52-2.1A3.62,3.62,0,0,1,141,17.05a4.15,4.15,0,0,1,2-.49,4.2,4.2,0,0,1,2,.49,3.66,3.66,0,0,1,1.43,1.41,4.15,4.15,0,0,1,.53,2.1,4.05,4.05,0,0,1-.54,2.1A3.73,3.73,0,0,1,145,24.07a4.23,4.23,0,0,1-2.05.49A4.11,4.11,0,0,1,140.9,24.07Zm3-1.47a2,2,0,0,0,.75-.78,2.55,2.55,0,0,0,.28-1.26,2.32,2.32,0,0,0-.58-1.7,1.9,1.9,0,0,0-1.42-.6,1.87,1.87,0,0,0-1.41.6,2.36,2.36,0,0,0-.57,1.7,2.39,2.39,0,0,0,.56,1.7,1.81,1.81,0,0,0,1.39.6A2,2,0,0,0,143.92,22.6Z"/><path class="cls-2" d="M151.71,18.45a3.33,3.33,0,0,1,1.27-1.4,3.38,3.38,0,0,1,1.8-.49,3.1,3.1,0,0,1,1.52.35,3,3,0,0,1,1,.88V16.68h2v7.76h-2V23.3a2.89,2.89,0,0,1-1,.91,3.21,3.21,0,0,1-1.54.35,3.26,3.26,0,0,1-1.78-.5,3.51,3.51,0,0,1-1.27-1.42,4.46,4.46,0,0,1-.47-2.11A4.37,4.37,0,0,1,151.71,18.45Zm5.35.89a1.93,1.93,0,0,0-.76-.79,2,2,0,0,0-1-.27,1.92,1.92,0,0,0-1.75,1,2.36,2.36,0,0,0-.29,1.21,2.43,2.43,0,0,0,.29,1.23,2,2,0,0,0,.75.8,1.89,1.89,0,0,0,1,.28,2,2,0,0,0,1-.27,2,2,0,0,0,.76-.78,2.49,2.49,0,0,0,.28-1.23A2.45,2.45,0,0,0,157.06,19.34Z"/><path class="cls-2" d="M171.72,21.15h-5.67a1.85,1.85,0,0,0,.59,1.31,1.79,1.79,0,0,0,1.27.48,1.58,1.58,0,0,0,1.55-.94h2.12a3.58,3.58,0,0,1-1.29,1.84,3.75,3.75,0,0,1-2.34.72,4.1,4.1,0,0,1-2-.49,3.47,3.47,0,0,1-1.38-1.41,4.72,4.72,0,0,1,0-4.21,3.36,3.36,0,0,1,1.37-1.4,4.09,4.09,0,0,1,2-.49,4,4,0,0,1,2,.47,3.34,3.34,0,0,1,1.36,1.35,4.15,4.15,0,0,1,.48,2A5.81,5.81,0,0,1,171.72,21.15Zm-2-1.32a1.57,1.57,0,0,0-.54-1.21,2,2,0,0,0-1.3-.45,1.75,1.75,0,0,0-1.23.44,2,2,0,0,0-.61,1.22Z"/><path class="cls-2" d="M177.49,24.44,175.89,22l-1.41,2.41h-2.1l2.53-3.89-2.56-3.87h2.21l1.58,2.4,1.43-2.4h2.1l-2.55,3.87,2.58,3.89Z"/><path class="cls-2" d="M183.76,16.91a3.27,3.27,0,0,1,1.52-.35,3.33,3.33,0,0,1,1.8.49,3.45,3.45,0,0,1,1.28,1.39,4.5,4.5,0,0,1,.47,2.09,4.59,4.59,0,0,1-.47,2.11,3.6,3.6,0,0,1-1.28,1.42,3.25,3.25,0,0,1-1.8.5,3,3,0,0,1-1.5-.35,3.07,3.07,0,0,1-1.06-.88v4.8h-2V16.68h2V17.8A3,3,0,0,1,183.76,16.91Zm2.78,2.41a2,2,0,0,0-.76-.78,2.08,2.08,0,0,0-1-.26,2,2,0,0,0-1,.27,2,2,0,0,0-.75.79,2.71,2.71,0,0,0,0,2.44,2,2,0,0,0,.75.79,2,2,0,0,0,1,.27,1.9,1.9,0,0,0,1-.28,2,2,0,0,0,.76-.8,2.49,2.49,0,0,0,.28-1.23A2.46,2.46,0,0,0,186.54,19.32Z"/><path class="cls-2" d="M197.41,21.15h-5.67a1.85,1.85,0,0,0,.59,1.31,1.79,1.79,0,0,0,1.27.48,1.58,1.58,0,0,0,1.55-.94h2.12A3.58,3.58,0,0,1,196,23.84a3.77,3.77,0,0,1-2.34.72,4,4,0,0,1-2-.49,3.47,3.47,0,0,1-1.38-1.41,4.72,4.72,0,0,1,0-4.21,3.36,3.36,0,0,1,1.37-1.4,4.09,4.09,0,0,1,2-.49,4,4,0,0,1,2,.47A3.34,3.34,0,0,1,197,18.38a4.15,4.15,0,0,1,.48,2A5.81,5.81,0,0,1,197.41,21.15Zm-2-1.32a1.57,1.57,0,0,0-.54-1.21,2,2,0,0,0-1.31-.45,1.74,1.74,0,0,0-1.22.44,2,2,0,0,0-.61,1.22Z"/><path class="cls-2" d="M201.84,16.92a2.76,2.76,0,0,1,1.39-.35v2.06h-.52a2,2,0,0,0-1.39.43,2,2,0,0,0-.47,1.51v3.87h-2V16.68h2v1.21A2.71,2.71,0,0,1,201.84,16.92Z"/><path class="cls-2" d="M206.83,18.29V22a.73.73,0,0,0,.19.57.91.91,0,0,0,.64.18h.9v1.65h-1.23A2.16,2.16,0,0,1,204.85,22V18.29h-.92V16.68h.92V14.76h2v1.92h1.73v1.61Z"/><path class="cls-2" d="M211.41,24.07A3.54,3.54,0,0,1,210,22.66a4.24,4.24,0,0,1-.51-2.1,4.14,4.14,0,0,1,.52-2.1,3.62,3.62,0,0,1,1.44-1.41,4.15,4.15,0,0,1,2-.49,4.2,4.2,0,0,1,2,.49,3.59,3.59,0,0,1,1.43,1.41,4.15,4.15,0,0,1,.53,2.1,4.05,4.05,0,0,1-.54,2.1,3.73,3.73,0,0,1-1.46,1.41,4.23,4.23,0,0,1-2.05.49A4.07,4.07,0,0,1,211.41,24.07Zm3-1.47a1.82,1.82,0,0,0,.75-.78,2.55,2.55,0,0,0,.28-1.26,2.32,2.32,0,0,0-.58-1.7,1.9,1.9,0,0,0-1.42-.6,1.87,1.87,0,0,0-1.41.6,2.4,2.4,0,0,0-.56,1.7,2.38,2.38,0,0,0,.55,1.7,1.81,1.81,0,0,0,1.39.6A2,2,0,0,0,214.42,22.6Z"/><path class="cls-2" d="M220.17,24.22a3.13,3.13,0,0,1-1.2-.93,2.41,2.41,0,0,1-.48-1.3h2a1.09,1.09,0,0,0,.45.74,1.78,1.78,0,0,0,1.83.07.67.67,0,0,0,.31-.57.6.6,0,0,0-.38-.57,7.19,7.19,0,0,0-1.23-.41,10.63,10.63,0,0,1-1.42-.44,2.56,2.56,0,0,1-1-.68,1.84,1.84,0,0,1-.4-1.25A2.09,2.09,0,0,1,219,17.7a2.61,2.61,0,0,1,1.07-.84,4.05,4.05,0,0,1,1.63-.3,3.34,3.34,0,0,1,2.21.69,2.57,2.57,0,0,1,.91,1.87H223a1,1,0,0,0-.38-.74,1.74,1.74,0,0,0-1.74-.07.61.61,0,0,0-.28.54.65.65,0,0,0,.39.6,6.5,6.5,0,0,0,1.22.41,11.6,11.6,0,0,1,1.38.43,2.4,2.4,0,0,1,1,.7,1.92,1.92,0,0,1,.41,1.24,2,2,0,0,1-.37,1.2,2.41,2.41,0,0,1-1.06.83,4.11,4.11,0,0,1-1.62.3A4,4,0,0,1,220.17,24.22Z"/><path class="cls-3" d="M18.19,39.77A4.53,4.53,0,0,1,19.91,38a4.71,4.71,0,0,1,2.44-.64,4.9,4.9,0,0,1,2.8.78,4.47,4.47,0,0,1,1.71,2.19H25.71a3.45,3.45,0,0,0-1.28-1.56,3.78,3.78,0,0,0-2.08-.56,3.72,3.72,0,0,0-1.94.51,3.39,3.39,0,0,0-1.35,1.45,4.65,4.65,0,0,0-.49,2.19,4.58,4.58,0,0,0,.49,2.18A3.36,3.36,0,0,0,20.41,46a3.72,3.72,0,0,0,1.94.51,3.86,3.86,0,0,0,2.08-.55,3.35,3.35,0,0,0,1.28-1.54h1.15a4.38,4.38,0,0,1-1.71,2.17,5,5,0,0,1-2.8.77,4.8,4.8,0,0,1-2.44-.63,4.6,4.6,0,0,1-1.72-1.78,5.18,5.18,0,0,1-.63-2.57A5.24,5.24,0,0,1,18.19,39.77Z"/><path class="cls-3" d="M30.21,46.88a3.45,3.45,0,0,1-1.36-1.37,4.24,4.24,0,0,1-.5-2.08,4.08,4.08,0,0,1,.51-2.08A3.47,3.47,0,0,1,30.23,40a3.87,3.87,0,0,1,1.95-.49,3.92,3.92,0,0,1,2,.49,3.47,3.47,0,0,1,1.37,1.37,4.18,4.18,0,0,1,.5,2.08,4.13,4.13,0,0,1-.51,2.07,3.4,3.4,0,0,1-1.38,1.38,4,4,0,0,1-2,.48A3.9,3.9,0,0,1,30.21,46.88Zm3.34-.72a2.57,2.57,0,0,0,1-1,3.32,3.32,0,0,0,.4-1.7,3.39,3.39,0,0,0-.39-1.7,2.54,2.54,0,0,0-1-1,3.05,3.05,0,0,0-2.8,0,2.52,2.52,0,0,0-1,1,4,4,0,0,0,0,3.4,2.53,2.53,0,0,0,1,1,3,3,0,0,0,2.8,0Z"/><path class="cls-3" d="M43.61,40.31a3.3,3.3,0,0,1,.87,2.46v4.48h-1V42.88a2.64,2.64,0,0,0-.63-1.9,2.21,2.21,0,0,0-1.7-.66,2.28,2.28,0,0,0-1.76.7,2.9,2.9,0,0,0-.66,2.06v4.17h-1V39.61h1v1.3a2.41,2.41,0,0,1,1-1.07,3.18,3.18,0,0,1,1.55-.38A3.09,3.09,0,0,1,43.61,40.31Z"/><path class="cls-3" d="M47.92,40.43v4.75a1.33,1.33,0,0,0,.27,1,1.3,1.3,0,0,0,.94.27H50v.84H49a1.77,1.77,0,0,1-2-2.07V40.43H45.87v-.82h1.06V37.69h1v1.92H50v.82Z"/><path class="cls-3" d="M51.66,41.35A3.31,3.31,0,0,1,53,40a3.59,3.59,0,0,1,1.88-.49,3.37,3.37,0,0,1,1.88.51,2.91,2.91,0,0,1,1.15,1.29V39.61h1v7.64h-1v-1.7a3.08,3.08,0,0,1-1.16,1.3,3.41,3.41,0,0,1-1.88.51A3.58,3.58,0,0,1,53,46.87a3.39,3.39,0,0,1-1.3-1.38,4.34,4.34,0,0,1-.47-2.08A4.26,4.26,0,0,1,51.66,41.35Zm5.83.45A2.71,2.71,0,0,0,55,40.35a2.91,2.91,0,0,0-1.45.36,2.61,2.61,0,0,0-1,1.06,3.39,3.39,0,0,0-.37,1.64,3.46,3.46,0,0,0,.37,1.65,2.66,2.66,0,0,0,1,1.08,2.92,2.92,0,0,0,1.45.37,2.84,2.84,0,0,0,1.44-.38,2.68,2.68,0,0,0,1-1.08,3.66,3.66,0,0,0,0-3.25Z"/><path class="cls-3" d="M72.38,40.31a3.37,3.37,0,0,1,.84,2.46v4.48h-1V42.88a2.68,2.68,0,0,0-.61-1.9A2.09,2.09,0,0,0,70,40.32a2.24,2.24,0,0,0-1.73.71,3.06,3.06,0,0,0-.64,2.08v4.14h-1V42.88a2.72,2.72,0,0,0-.6-1.9,2.12,2.12,0,0,0-1.65-.66,2.22,2.22,0,0,0-1.72.71,3,3,0,0,0-.65,2.08v4.14h-1V39.61h1v1.31a2.52,2.52,0,0,1,1-1.08,3,3,0,0,1,1.5-.38,3.16,3.16,0,0,1,1.74.48,2.71,2.71,0,0,1,1.09,1.4,2.52,2.52,0,0,1,1-1.39,3.1,3.1,0,0,1,1.7-.49A3,3,0,0,1,72.38,40.31Z"/><path class="cls-3" d="M76.8,46.88a3.51,3.51,0,0,1-1.36-1.37,4.24,4.24,0,0,1-.5-2.08,4.08,4.08,0,0,1,.51-2.08A3.47,3.47,0,0,1,76.82,40a4.13,4.13,0,0,1,3.9,0,3.47,3.47,0,0,1,1.37,1.37,4.18,4.18,0,0,1,.5,2.08,4.13,4.13,0,0,1-.51,2.07,3.4,3.4,0,0,1-1.38,1.38,4,4,0,0,1-2,.48A3.9,3.9,0,0,1,76.8,46.88Zm3.34-.72a2.51,2.51,0,0,0,1-1,3.32,3.32,0,0,0,.4-1.7,3.39,3.39,0,0,0-.39-1.7,2.54,2.54,0,0,0-1-1,3.05,3.05,0,0,0-2.8,0,2.52,2.52,0,0,0-1,1,4,4,0,0,0,0,3.4,2.49,2.49,0,0,0,1,1,2.84,2.84,0,0,0,1.39.35A2.94,2.94,0,0,0,80.14,46.16Z"/><path class="cls-3" d="M84.86,46.75a2.24,2.24,0,0,1-.93-1.66h1a1.48,1.48,0,0,0,.61,1,2.42,2.42,0,0,0,1.45.4,1.9,1.9,0,0,0,1.25-.38,1.19,1.19,0,0,0,.46-.94.85.85,0,0,0-.26-.64,1.62,1.62,0,0,0-.63-.4,9.23,9.23,0,0,0-1-.32,10.68,10.68,0,0,1-1.38-.45,2.29,2.29,0,0,1-.9-.66,1.89,1.89,0,0,1,0-2.22,2.28,2.28,0,0,1,1-.76,3.46,3.46,0,0,1,1.4-.28,3,3,0,0,1,2,.63,2.26,2.26,0,0,1,.81,1.71h-1a1.47,1.47,0,0,0-.52-1.08,2.28,2.28,0,0,0-2.53-.07,1.09,1.09,0,0,0-.19,1.61,1.78,1.78,0,0,0,.68.44,10.67,10.67,0,0,0,1.09.36,9.17,9.17,0,0,1,1.32.44,2.27,2.27,0,0,1,.84.61,1.67,1.67,0,0,1,.36,1.08,1.9,1.9,0,0,1-.33,1.1,2.38,2.38,0,0,1-.94.76,3.23,3.23,0,0,1-1.39.28A3.53,3.53,0,0,1,84.86,46.75Z"/><path class="cls-3" d="M95.38,41.35A3.42,3.42,0,0,1,96.7,40a3.71,3.71,0,0,1,1.92-.49,3.77,3.77,0,0,1,2.33.7,3.14,3.14,0,0,1,1.18,1.91h-1a2.19,2.19,0,0,0-.84-1.3,2.74,2.74,0,0,0-1.62-.47,2.79,2.79,0,0,0-1.39.35,2.48,2.48,0,0,0-1,1,4.19,4.19,0,0,0,0,3.4,2.42,2.42,0,0,0,1,1,2.69,2.69,0,0,0,1.39.36,2.74,2.74,0,0,0,1.62-.47,2.18,2.18,0,0,0,.84-1.31h1a3.18,3.18,0,0,1-1.19,1.89,3.71,3.71,0,0,1-2.32.71,3.8,3.8,0,0,1-1.92-.48,3.42,3.42,0,0,1-1.32-1.37,4.46,4.46,0,0,1-.47-2.08A4.4,4.4,0,0,1,95.38,41.35Z"/><path class="cls-3" d="M105.34,46.88A3.49,3.49,0,0,1,104,45.51a4.24,4.24,0,0,1-.5-2.08,4.18,4.18,0,0,1,.5-2.08A3.56,3.56,0,0,1,105.37,40a3.81,3.81,0,0,1,1.94-.49,3.87,3.87,0,0,1,2,.49,3.43,3.43,0,0,1,1.38,1.37,4.18,4.18,0,0,1,.49,2.08,4.12,4.12,0,0,1-.5,2.07,3.48,3.48,0,0,1-1.39,1.38,4,4,0,0,1-2,.48A4,4,0,0,1,105.34,46.88Zm3.34-.72a2.6,2.6,0,0,0,1-1,3.42,3.42,0,0,0,.4-1.7,3.29,3.29,0,0,0-.4-1.7,2.52,2.52,0,0,0-1-1,3.05,3.05,0,0,0-2.8,0,2.52,2.52,0,0,0-1,1,3.9,3.9,0,0,0,0,3.4,2.53,2.53,0,0,0,1,1,3,3,0,0,0,2.79,0Z"/><path class="cls-3" d="M118.75,40.31a3.3,3.3,0,0,1,.87,2.46v4.48h-1V42.88A2.68,2.68,0,0,0,118,41a2.23,2.23,0,0,0-1.7-.66,2.31,2.31,0,0,0-1.77.7,2.94,2.94,0,0,0-.65,2.06v4.17h-1V39.61h1v1.3a2.41,2.41,0,0,1,1-1.07,3.15,3.15,0,0,1,1.55-.38A3.1,3.1,0,0,1,118.75,40.31Z"/><path class="cls-3" d="M132.25,39.61v7.64h-1V45.91a2.43,2.43,0,0,1-1,1.09,3.28,3.28,0,0,1-1.57.37,3.1,3.1,0,0,1-2.24-.84,3.3,3.3,0,0,1-.87-2.46V39.61h1V44a2.68,2.68,0,0,0,.62,1.9,2.24,2.24,0,0,0,1.7.66,2.31,2.31,0,0,0,1.77-.7,2.9,2.9,0,0,0,.66-2.06V39.61Z"/><path class="cls-3" d="M140.31,40.31a3.3,3.3,0,0,1,.87,2.46v4.48h-1V42.88a2.68,2.68,0,0,0-.62-1.9,2.23,2.23,0,0,0-1.7-.66,2.31,2.31,0,0,0-1.77.7,2.9,2.9,0,0,0-.65,2.06v4.17h-1V39.61h1v1.3a2.41,2.41,0,0,1,1.05-1.07,3.15,3.15,0,0,1,1.55-.38A3.1,3.1,0,0,1,140.31,40.31Z"/><path class="cls-3" d="M152.27,40a2.89,2.89,0,0,1,1.14,1.27V39.61h1v7.84a3.77,3.77,0,0,1-.45,1.86,3.18,3.18,0,0,1-1.27,1.25,3.86,3.86,0,0,1-1.85.44,4,4,0,0,1-2.44-.7,3,3,0,0,1-1.21-1.9h1a2.38,2.38,0,0,0,1,1.27,3,3,0,0,0,1.73.48,2.75,2.75,0,0,0,1.33-.32,2.31,2.31,0,0,0,.93-.93,3,3,0,0,0,.33-1.45v-1.9a3,3,0,0,1-1.15,1.3,3.38,3.38,0,0,1-1.87.51,3.59,3.59,0,0,1-1.88-.49,3.48,3.48,0,0,1-1.31-1.38,4.46,4.46,0,0,1-.46-2.08,4.37,4.37,0,0,1,.46-2.06A3.39,3.39,0,0,1,148.51,40a3.59,3.59,0,0,1,1.88-.49A3.44,3.44,0,0,1,152.27,40Zm.77,1.8a2.89,2.89,0,0,0-1-1.08,3,3,0,0,0-2.89,0,2.61,2.61,0,0,0-1,1.06,3.39,3.39,0,0,0-.37,1.64,3.46,3.46,0,0,0,.37,1.65,2.66,2.66,0,0,0,1,1.08,3,3,0,0,0,2.89,0,2.75,2.75,0,0,0,1-1.08,3.75,3.75,0,0,0,0-3.25Z"/><path class="cls-3" d="M158.6,39.86a3.17,3.17,0,0,1,1.63-.4v1H160A2.15,2.15,0,0,0,157.61,43v4.27h-1V39.61h1V41A2.46,2.46,0,0,1,158.6,39.86Z"/><path class="cls-3" d="M168.32,39.61v7.64h-1V45.91a2.41,2.41,0,0,1-1,1.09,3.28,3.28,0,0,1-1.57.37,3.08,3.08,0,0,1-2.24-.84,3.3,3.3,0,0,1-.87-2.46V39.61h1V44a2.64,2.64,0,0,0,.62,1.9,2.21,2.21,0,0,0,1.7.66,2.27,2.27,0,0,0,1.76-.7,2.9,2.9,0,0,0,.66-2.06V39.61Z"/><path class="cls-3" d="M172.68,40a3.42,3.42,0,0,1,1.89-.51,3.6,3.6,0,0,1,1.87.49,3.44,3.44,0,0,1,1.3,1.37,4.38,4.38,0,0,1,.47,2.06,4.46,4.46,0,0,1-.47,2.08,3.53,3.53,0,0,1-1.3,1.38,3.6,3.6,0,0,1-1.87.49,3.41,3.41,0,0,1-1.88-.51,3.08,3.08,0,0,1-1.16-1.28v5.29h-1V39.61h1v1.68A3.09,3.09,0,0,1,172.68,40Zm4.16,1.77a2.59,2.59,0,0,0-1-1.06,3,3,0,0,0-1.46-.36,2.8,2.8,0,0,0-1.43.37,2.75,2.75,0,0,0-1,1.08,3.66,3.66,0,0,0,0,3.25,2.62,2.62,0,0,0,1,1.08,2.81,2.81,0,0,0,1.43.38,3,3,0,0,0,1.46-.37,2.64,2.64,0,0,0,1-1.08,3.46,3.46,0,0,0,.37-1.65A3.39,3.39,0,0,0,176.84,41.77Z"/><path class="cls-3" d="M181.42,46.88a3.51,3.51,0,0,1-1.36-1.37,4.24,4.24,0,0,1-.5-2.08,4.08,4.08,0,0,1,.51-2.08A3.47,3.47,0,0,1,181.44,40a4.13,4.13,0,0,1,3.9,0,3.47,3.47,0,0,1,1.37,1.37,4.18,4.18,0,0,1,.5,2.08,4.13,4.13,0,0,1-.51,2.07,3.4,3.4,0,0,1-1.38,1.38,4,4,0,0,1-2,.48A3.9,3.9,0,0,1,181.42,46.88Zm3.34-.72a2.51,2.51,0,0,0,1-1,3.32,3.32,0,0,0,.4-1.7,3.39,3.39,0,0,0-.39-1.7,2.54,2.54,0,0,0-1-1,3.05,3.05,0,0,0-2.8,0,2.52,2.52,0,0,0-1,1,4,4,0,0,0,0,3.4,2.49,2.49,0,0,0,1,1,2.84,2.84,0,0,0,1.39.35A2.94,2.94,0,0,0,184.76,46.16Z"/><path class="cls-3" d="M192.86,41.35A3.46,3.46,0,0,1,194.17,40a3.65,3.65,0,0,1,1.89-.49,3.54,3.54,0,0,1,1.82.49,3,3,0,0,1,1.19,1.28V36.89h1V47.25h-1V45.54a3,3,0,0,1-1.15,1.31,3.41,3.41,0,0,1-1.88.51,3.59,3.59,0,0,1-1.88-.49,3.39,3.39,0,0,1-1.3-1.38,4.79,4.79,0,0,1,0-4.14Zm5.83.45a2.71,2.71,0,0,0-2.47-1.45,2.91,2.91,0,0,0-1.45.36,2.61,2.61,0,0,0-1,1.06,3.51,3.51,0,0,0-.37,1.64,3.58,3.58,0,0,0,.37,1.65,2.66,2.66,0,0,0,1,1.08,2.92,2.92,0,0,0,1.45.37,2.84,2.84,0,0,0,1.44-.38,2.68,2.68,0,0,0,1-1.08,3.66,3.66,0,0,0,0-3.25Z"/><path class="cls-3" d="M209.17,43.8h-6.34a3.14,3.14,0,0,0,.42,1.49,2.42,2.42,0,0,0,1,.93,2.88,2.88,0,0,0,1.34.32,2.68,2.68,0,0,0,1.6-.47,2.14,2.14,0,0,0,.86-1.24h1a3.27,3.27,0,0,1-1.2,1.82,3.67,3.67,0,0,1-2.3.71,3.86,3.86,0,0,1-1.93-.48,3.4,3.4,0,0,1-1.34-1.37,4.34,4.34,0,0,1-.48-2.08,4.47,4.47,0,0,1,.47-2.09A3.32,3.32,0,0,1,203.64,40a3.91,3.91,0,0,1,2-.48,3.69,3.69,0,0,1,1.91.48,3.23,3.23,0,0,1,1.26,1.28A3.71,3.71,0,0,1,209.2,43,7.16,7.16,0,0,1,209.17,43.8Zm-1.3-2.25a2.39,2.39,0,0,0-1-.91,3,3,0,0,0-1.34-.31,2.69,2.69,0,0,0-1.86.7,2.81,2.81,0,0,0-.86,2h5.38A2.79,2.79,0,0,0,207.87,41.55Z"/><path class="cls-3" d="M221.72,43.8h-6.34a2.93,2.93,0,0,0,.42,1.49,2.46,2.46,0,0,0,1,.93,2.91,2.91,0,0,0,1.34.32,2.71,2.71,0,0,0,1.61-.47,2.19,2.19,0,0,0,.86-1.24h1a3.2,3.2,0,0,1-1.19,1.82,3.68,3.68,0,0,1-2.31.71,3.89,3.89,0,0,1-1.93-.48,3.46,3.46,0,0,1-1.34-1.37,4.77,4.77,0,0,1,0-4.17A3.26,3.26,0,0,1,216.19,40a3.9,3.9,0,0,1,1.94-.48A3.69,3.69,0,0,1,220,40a3.23,3.23,0,0,1,1.26,1.28,3.61,3.61,0,0,1,.45,1.79A7.16,7.16,0,0,1,221.72,43.8Zm-1.31-2.25a2.36,2.36,0,0,0-1-.91,3,3,0,0,0-1.35-.31,2.69,2.69,0,0,0-1.86.7,2.8,2.8,0,0,0-.85,2h5.37A2.7,2.7,0,0,0,220.41,41.55Z"/><path class="cls-3" d="M227.54,47.25l-2-3.08-1.91,3.08h-1l2.46-3.82-2.43-3.82h1.1l2,3,1.89-3h1l-2.44,3.77,2.47,3.87Z"/><path class="cls-3" d="M232.1,40a3.39,3.39,0,0,1,1.88-.51,3.6,3.6,0,0,1,1.87.49,3.31,3.31,0,0,1,1.3,1.37,4.38,4.38,0,0,1,.47,2.06,4.46,4.46,0,0,1-.47,2.08,3.39,3.39,0,0,1-1.3,1.38,3.6,3.6,0,0,1-1.87.49,3.38,3.38,0,0,1-1.87-.51,3.11,3.11,0,0,1-1.17-1.28v5.29h-1V39.61h1v1.68A3.11,3.11,0,0,1,232.1,40Zm4.16,1.77a2.61,2.61,0,0,0-1-1.06,2.91,2.91,0,0,0-1.45-.36,2.71,2.71,0,0,0-2.47,1.45,3.66,3.66,0,0,0,0,3.25,2.68,2.68,0,0,0,1,1.08,2.82,2.82,0,0,0,1.44.38,2.92,2.92,0,0,0,1.45-.37,2.66,2.66,0,0,0,1-1.08,3.58,3.58,0,0,0,.37-1.65A3.51,3.51,0,0,0,236.26,41.77Z"/><path class="cls-3" d="M246.32,43.8H240a3.14,3.14,0,0,0,.42,1.49,2.55,2.55,0,0,0,1,.93,2.91,2.91,0,0,0,1.34.32,2.66,2.66,0,0,0,1.6-.47,2.16,2.16,0,0,0,.87-1.24h1a3.22,3.22,0,0,1-1.2,1.82,3.65,3.65,0,0,1-2.3.71,3.86,3.86,0,0,1-1.93-.48,3.4,3.4,0,0,1-1.34-1.37,4.77,4.77,0,0,1,0-4.17A3.26,3.26,0,0,1,240.79,40a3.85,3.85,0,0,1,1.94-.48,3.69,3.69,0,0,1,1.91.48,3.23,3.23,0,0,1,1.26,1.28,3.6,3.6,0,0,1,.44,1.79C246.34,43.37,246.33,43.63,246.32,43.8ZM245,41.55a2.39,2.39,0,0,0-1-.91,3,3,0,0,0-1.34-.31,2.69,2.69,0,0,0-1.86.7,2.81,2.81,0,0,0-.86,2h5.38A2.79,2.79,0,0,0,245,41.55Z"/><path class="cls-3" d="M250.1,39.86a3.2,3.2,0,0,1,1.63-.4v1h-.26a2.49,2.49,0,0,0-1.71.57,2.45,2.45,0,0,0-.64,1.92v4.27h-1V39.61h1V41A2.38,2.38,0,0,1,250.1,39.86Z"/><path class="cls-3" d="M254.48,40.43v4.75a1.38,1.38,0,0,0,.26,1,1.3,1.3,0,0,0,.94.27h.9v.84h-1a1.78,1.78,0,0,1-2.05-2.07V40.43h-1.06v-.82h1.06V37.69h1v1.92h2.1v.82Z"/><path class="cls-3" d="M259.59,46.88a3.49,3.49,0,0,1-1.35-1.37,4.13,4.13,0,0,1-.5-2.08,4.18,4.18,0,0,1,.5-2.08A3.56,3.56,0,0,1,259.62,40a3.81,3.81,0,0,1,1.94-.49,3.87,3.87,0,0,1,1.95.49,3.5,3.5,0,0,1,1.38,1.37,4.18,4.18,0,0,1,.49,2.08,4.23,4.23,0,0,1-.5,2.07,3.48,3.48,0,0,1-1.39,1.38,4,4,0,0,1-2,.48A3.93,3.93,0,0,1,259.59,46.88Zm3.34-.72a2.6,2.6,0,0,0,1.05-1,3.81,3.81,0,0,0,0-3.4,2.52,2.52,0,0,0-1-1,3.05,3.05,0,0,0-2.8,0,2.52,2.52,0,0,0-1,1,3.9,3.9,0,0,0,0,3.4,2.47,2.47,0,0,0,1,1,2.87,2.87,0,0,0,1.39.35A2.91,2.91,0,0,0,262.93,46.16Z"/><path class="cls-3" d="M267.66,46.75a2.18,2.18,0,0,1-.93-1.66h1a1.43,1.43,0,0,0,.6,1,2.44,2.44,0,0,0,1.45.4,1.93,1.93,0,0,0,1.26-.38,1.18,1.18,0,0,0,.45-.94.84.84,0,0,0-.25-.64,1.66,1.66,0,0,0-.64-.4,8.39,8.39,0,0,0-1-.32,10.9,10.9,0,0,1-1.39-.45,2.45,2.45,0,0,1-.9-.66,1.77,1.77,0,0,1-.37-1.18,1.73,1.73,0,0,1,.34-1,2.28,2.28,0,0,1,.95-.76,3.43,3.43,0,0,1,1.4-.28,3,3,0,0,1,2,.63,2.24,2.24,0,0,1,.82,1.71h-1a1.48,1.48,0,0,0-.53-1.08,2.26,2.26,0,0,0-2.52-.07,1.08,1.08,0,0,0-.47.87,1,1,0,0,0,.28.74,1.74,1.74,0,0,0,.67.44c.28.11.64.23,1.1.36a8.58,8.58,0,0,1,1.31.44,2.12,2.12,0,0,1,.84.61,1.62,1.62,0,0,1,.37,1.08,1.91,1.91,0,0,1-.34,1.1,2.31,2.31,0,0,1-.94.76,3.18,3.18,0,0,1-1.38.28A3.51,3.51,0,0,1,267.66,46.75Z"/><path class="cls-3" d="M278.18,41.35A3.39,3.39,0,0,1,279.49,40a3.59,3.59,0,0,1,1.88-.49,3.44,3.44,0,0,1,1.88.51,2.85,2.85,0,0,1,1.13,1.29V39.61h1V50.86h-1V45.57a2.84,2.84,0,0,1-1.14,1.28,3.48,3.48,0,0,1-1.9.51,3.6,3.6,0,0,1-1.87-.49,3.46,3.46,0,0,1-1.3-1.38,4.46,4.46,0,0,1-.47-2.08A4.26,4.26,0,0,1,278.18,41.35Zm5.82.45a2.75,2.75,0,0,0-1-1.08,2.8,2.8,0,0,0-1.43-.37,3,3,0,0,0-1.46.36,2.59,2.59,0,0,0-1,1.06,3.39,3.39,0,0,0-.37,1.64,3.46,3.46,0,0,0,.37,1.65,2.64,2.64,0,0,0,1,1.08,3,3,0,0,0,1.46.37,2.81,2.81,0,0,0,1.43-.38,2.62,2.62,0,0,0,1-1.08,3.66,3.66,0,0,0,0-3.25Z"/><path class="cls-3" d="M294.22,39.61v7.64h-1V45.91a2.41,2.41,0,0,1-1,1.09,3.28,3.28,0,0,1-1.57.37,3.08,3.08,0,0,1-2.24-.84,3.3,3.3,0,0,1-.87-2.46V39.61h1V44a2.64,2.64,0,0,0,.62,1.9,2.23,2.23,0,0,0,1.7.66,2.27,2.27,0,0,0,1.76-.7,2.9,2.9,0,0,0,.66-2.06V39.61Z"/><path class="cls-3" d="M303.35,43.8H297a3.14,3.14,0,0,0,.42,1.49,2.46,2.46,0,0,0,1,.93,2.92,2.92,0,0,0,1.35.32,2.68,2.68,0,0,0,1.6-.47,2.19,2.19,0,0,0,.86-1.24h1a3.27,3.27,0,0,1-1.2,1.82,3.67,3.67,0,0,1-2.3.71,3.9,3.9,0,0,1-1.94-.48,3.38,3.38,0,0,1-1.33-1.37,4.72,4.72,0,0,1,0-4.17A3.32,3.32,0,0,1,297.82,40a3.91,3.91,0,0,1,1.95-.48,3.74,3.74,0,0,1,1.91.48,3.37,3.37,0,0,1,1.26,1.28,3.71,3.71,0,0,1,.44,1.79A7.16,7.16,0,0,1,303.35,43.8ZM302,41.55a2.36,2.36,0,0,0-1-.91,3,3,0,0,0-1.35-.31,2.72,2.72,0,0,0-1.86.7,2.8,2.8,0,0,0-.85,2h5.37A2.7,2.7,0,0,0,302,41.55Z"/><path class="cls-3" d="M19.61,58.15a3.42,3.42,0,0,1,1.32-1.37,3.7,3.7,0,0,1,1.91-.49,3.8,3.8,0,0,1,2.34.7,3.19,3.19,0,0,1,1.18,1.91H25.31a2.13,2.13,0,0,0-.85-1.3,2.7,2.7,0,0,0-1.62-.47,2.77,2.77,0,0,0-1.38.35,2.42,2.42,0,0,0-1,1.05,4.19,4.19,0,0,0,0,3.4,2.36,2.36,0,0,0,1,1,3,3,0,0,0,3-.11,2.15,2.15,0,0,0,.85-1.31h1.05a3.22,3.22,0,0,1-1.19,1.89,3.74,3.74,0,0,1-2.33.71,3.79,3.79,0,0,1-1.91-.48,3.42,3.42,0,0,1-1.32-1.37,4.34,4.34,0,0,1-.48-2.08A4.29,4.29,0,0,1,19.61,58.15Z"/><path class="cls-3" d="M29.57,63.68a3.51,3.51,0,0,1-1.36-1.37,4.24,4.24,0,0,1-.49-2.08,4.08,4.08,0,0,1,.5-2.08,3.54,3.54,0,0,1,1.37-1.37,4.13,4.13,0,0,1,3.9,0,3.41,3.41,0,0,1,1.37,1.37,4.08,4.08,0,0,1,.5,2.08,4.23,4.23,0,0,1-.5,2.07,3.48,3.48,0,0,1-1.39,1.38,4,4,0,0,1-2,.48A3.93,3.93,0,0,1,29.57,63.68ZM32.91,63a2.51,2.51,0,0,0,1-1,3.32,3.32,0,0,0,.4-1.7,3.39,3.39,0,0,0-.39-1.7,2.54,2.54,0,0,0-1-1,3,3,0,0,0-2.79,0,2.46,2.46,0,0,0-1,1,3.9,3.9,0,0,0,0,3.4,2.41,2.41,0,0,0,1,1,2.87,2.87,0,0,0,1.39.35A2.91,2.91,0,0,0,32.91,63Z"/><path class="cls-3" d="M43,57.11a3.29,3.29,0,0,1,.86,2.46v4.48h-1V59.68a2.68,2.68,0,0,0-.62-1.9,2.25,2.25,0,0,0-1.71-.66,2.3,2.3,0,0,0-1.76.7,2.9,2.9,0,0,0-.66,2.06v4.17h-1V56.41h1v1.3a2.52,2.52,0,0,1,1-1.07,3.22,3.22,0,0,1,1.56-.38A3.1,3.1,0,0,1,43,57.11Z"/><path class="cls-3" d="M46.5,63.55a2.18,2.18,0,0,1-.93-1.66h1a1.43,1.43,0,0,0,.6,1,2.44,2.44,0,0,0,1.45.39A1.93,1.93,0,0,0,49.89,63a1.2,1.2,0,0,0,.45-.94.88.88,0,0,0-.25-.65,1.77,1.77,0,0,0-.64-.39,8.39,8.39,0,0,0-1-.32A10.9,10.9,0,0,1,47,60.21a2.45,2.45,0,0,1-.9-.66,1.93,1.93,0,0,1,0-2.22,2.38,2.38,0,0,1,1-.76,3.43,3.43,0,0,1,1.4-.28,3,3,0,0,1,2,.63,2.24,2.24,0,0,1,.82,1.71h-1a1.48,1.48,0,0,0-.53-1.08,2.26,2.26,0,0,0-2.52-.07,1.08,1.08,0,0,0-.47.87,1,1,0,0,0,.28.74,1.74,1.74,0,0,0,.67.44c.28.11.64.23,1.1.36a8.58,8.58,0,0,1,1.31.44,2.12,2.12,0,0,1,.84.61A1.62,1.62,0,0,1,51.31,62a1.91,1.91,0,0,1-.34,1.1,2.31,2.31,0,0,1-.94.76,3.18,3.18,0,0,1-1.38.28A3.51,3.51,0,0,1,46.5,63.55Z"/><path class="cls-3" d="M54.43,57.23V62a1.33,1.33,0,0,0,.27,1,1.26,1.26,0,0,0,.93.27h.9v.84H55.48a2.17,2.17,0,0,1-1.54-.48A2.14,2.14,0,0,1,53.43,62V57.23H52.37v-.82h1.06V54.49h1v1.92h2.1v.82Z"/><path class="cls-3" d="M58.16,58.15a3.37,3.37,0,0,1,1.3-1.37,3.61,3.61,0,0,1,1.88-.49,3.42,3.42,0,0,1,1.89.51,2.92,2.92,0,0,1,1.14,1.28V56.41h1v7.64h-1v-1.7a3,3,0,0,1-1.16,1.3,3.37,3.37,0,0,1-1.88.51,3.6,3.6,0,0,1-1.87-.49,3.46,3.46,0,0,1-1.3-1.38,4.46,4.46,0,0,1-.47-2.08A4.38,4.38,0,0,1,58.16,58.15ZM64,58.6a2.75,2.75,0,0,0-1-1.08,2.8,2.8,0,0,0-1.43-.37,3,3,0,0,0-1.46.36,2.52,2.52,0,0,0-1,1.06,3.4,3.4,0,0,0-.38,1.64,3.46,3.46,0,0,0,.38,1.65,2.58,2.58,0,0,0,1,1.08,3,3,0,0,0,1.46.37A2.81,2.81,0,0,0,63,62.93a2.62,2.62,0,0,0,1-1.08,3.66,3.66,0,0,0,0-3.25Z"/><path class="cls-3" d="M73.41,57.11a3.3,3.3,0,0,1,.87,2.46v4.48h-1V59.68a2.64,2.64,0,0,0-.62-1.9,2.21,2.21,0,0,0-1.7-.66,2.28,2.28,0,0,0-1.76.7,2.9,2.9,0,0,0-.66,2.06v4.17h-1V56.41h1v1.3a2.41,2.41,0,0,1,1.05-1.07,3.18,3.18,0,0,1,1.55-.38A3.09,3.09,0,0,1,73.41,57.11Z"/><path class="cls-3" d="M77.72,57.23V62a1.33,1.33,0,0,0,.27,1,1.3,1.3,0,0,0,.94.27h.89v.84h-1a1.77,1.77,0,0,1-2-2.07V57.23H75.67v-.82h1.06V54.49h1v1.92h2.1v.82Z"/><path class="cls-3" d="M88.32,60.6H82a3.14,3.14,0,0,0,.42,1.49,2.46,2.46,0,0,0,1,.93,2.91,2.91,0,0,0,1.35.31,2.68,2.68,0,0,0,1.6-.46,2.14,2.14,0,0,0,.86-1.24h1A3.27,3.27,0,0,1,87,63.45a3.67,3.67,0,0,1-2.3.71,3.86,3.86,0,0,1-1.93-.48,3.4,3.4,0,0,1-1.34-1.37,4.81,4.81,0,0,1,0-4.17,3.32,3.32,0,0,1,1.33-1.37,3.91,3.91,0,0,1,1.95-.48,3.71,3.71,0,0,1,1.91.48,3.23,3.23,0,0,1,1.26,1.28,3.7,3.7,0,0,1,.44,1.78A7.24,7.24,0,0,1,88.32,60.6ZM87,58.35a2.3,2.3,0,0,0-1-.91,3,3,0,0,0-1.34-.31,2.73,2.73,0,0,0-1.87.7,2.84,2.84,0,0,0-.85,2h5.38A2.7,2.7,0,0,0,87,58.35Z"/><path class="cls-3" d="M101.43,57.11a3.33,3.33,0,0,1,.85,2.46v4.48h-1V59.68a2.72,2.72,0,0,0-.6-1.9,2.11,2.11,0,0,0-1.64-.66,2.23,2.23,0,0,0-1.72.71,3,3,0,0,0-.64,2.08v4.14h-1V59.68a2.72,2.72,0,0,0-.6-1.9,2.12,2.12,0,0,0-1.65-.66,2.22,2.22,0,0,0-1.72.71,3,3,0,0,0-.65,2.08v4.14h-1V56.41h1v1.31a2.47,2.47,0,0,1,1-1.08,3,3,0,0,1,1.5-.38,3.16,3.16,0,0,1,1.74.48,2.65,2.65,0,0,1,1.08,1.4,2.58,2.58,0,0,1,1.06-1.39,3.1,3.1,0,0,1,1.7-.49A3,3,0,0,1,101.43,57.11Z"/><path class="cls-3" d="M111.34,60.6H105a2.93,2.93,0,0,0,.42,1.49,2.46,2.46,0,0,0,1,.93,2.9,2.9,0,0,0,1.34.31,2.71,2.71,0,0,0,1.61-.46,2.19,2.19,0,0,0,.86-1.24h1a3.2,3.2,0,0,1-1.19,1.82,3.68,3.68,0,0,1-2.31.71,3.89,3.89,0,0,1-1.93-.48,3.46,3.46,0,0,1-1.34-1.37,4.77,4.77,0,0,1,0-4.17,3.26,3.26,0,0,1,1.33-1.37,3.9,3.9,0,0,1,1.94-.48,3.75,3.75,0,0,1,1.92.48,3.27,3.27,0,0,1,1.25,1.28,3.59,3.59,0,0,1,.45,1.78A7.24,7.24,0,0,1,111.34,60.6ZM110,58.35a2.36,2.36,0,0,0-1-.91,3,3,0,0,0-1.35-.31,2.69,2.69,0,0,0-1.86.7,2.8,2.8,0,0,0-.85,2h5.37A2.7,2.7,0,0,0,110,58.35Z"/><path class="cls-3" d="M119,57.11a3.3,3.3,0,0,1,.87,2.46v4.48h-1V59.68a2.64,2.64,0,0,0-.62-1.9,2.21,2.21,0,0,0-1.7-.66,2.27,2.27,0,0,0-1.76.7,2.9,2.9,0,0,0-.66,2.06v4.17h-1V56.41h1v1.3a2.41,2.41,0,0,1,1-1.07,3.18,3.18,0,0,1,1.55-.38A3.09,3.09,0,0,1,119,57.11Z"/><path class="cls-3" d="M123.29,57.23V62a1.33,1.33,0,0,0,.27,1,1.3,1.3,0,0,0,.94.27h.89v.84h-1a1.77,1.77,0,0,1-2-2.07V57.23h-1.06v-.82h1.06V54.49h1v1.92h2.1v.82Z"/><path class="cls-3" d="M133.89,60.6h-6.34a3.14,3.14,0,0,0,.42,1.49,2.46,2.46,0,0,0,1,.93,2.91,2.91,0,0,0,1.35.31,2.68,2.68,0,0,0,1.6-.46,2.19,2.19,0,0,0,.86-1.24h1a3.27,3.27,0,0,1-1.2,1.82,3.67,3.67,0,0,1-2.3.71,3.84,3.84,0,0,1-1.93-.48A3.4,3.4,0,0,1,127,62.31a4.81,4.81,0,0,1,0-4.17,3.32,3.32,0,0,1,1.33-1.37,3.91,3.91,0,0,1,1.95-.48,3.71,3.71,0,0,1,1.91.48,3.37,3.37,0,0,1,1.26,1.28,3.7,3.7,0,0,1,.44,1.78A7.24,7.24,0,0,1,133.89,60.6Zm-1.31-2.25a2.36,2.36,0,0,0-1-.91,3,3,0,0,0-1.34-.31,2.73,2.73,0,0,0-1.87.7,2.84,2.84,0,0,0-.85,2h5.38A2.8,2.8,0,0,0,132.58,58.35Z"/><path class="cls-3" d="M140,63.55a2.21,2.21,0,0,1-.93-1.66h1a1.44,1.44,0,0,0,.61,1,2.42,2.42,0,0,0,1.45.39,1.9,1.9,0,0,0,1.25-.37,1.2,1.2,0,0,0,.45-.94.88.88,0,0,0-.25-.65A1.77,1.77,0,0,0,143,61a8.39,8.39,0,0,0-1-.32,10.19,10.19,0,0,1-1.38-.45,2.4,2.4,0,0,1-.91-.66,1.83,1.83,0,0,1-.37-1.18,1.73,1.73,0,0,1,.34-1,2.28,2.28,0,0,1,.95-.76,3.46,3.46,0,0,1,1.4-.28,3,3,0,0,1,2,.63,2.26,2.26,0,0,1,.81,1.71h-1a1.45,1.45,0,0,0-.53-1.08,1.94,1.94,0,0,0-1.32-.42,2,2,0,0,0-1.2.35,1.09,1.09,0,0,0-.19,1.61,1.78,1.78,0,0,0,.68.44,10.67,10.67,0,0,0,1.09.36,9.17,9.17,0,0,1,1.32.44,2.27,2.27,0,0,1,.84.61,1.67,1.67,0,0,1,.36,1.08,1.84,1.84,0,0,1-.34,1.1,2.28,2.28,0,0,1-.93.76,3.26,3.26,0,0,1-1.39.28A3.53,3.53,0,0,1,140,63.55Z"/><path class="cls-3" d="M153.58,60.6h-6.35a3.14,3.14,0,0,0,.42,1.49,2.55,2.55,0,0,0,1,.93,2.9,2.9,0,0,0,1.34.31,2.66,2.66,0,0,0,1.6-.46,2.16,2.16,0,0,0,.87-1.24h1a3.22,3.22,0,0,1-1.2,1.82,3.65,3.65,0,0,1-2.3.71,3.86,3.86,0,0,1-1.93-.48,3.4,3.4,0,0,1-1.34-1.37,4.77,4.77,0,0,1,0-4.17,3.26,3.26,0,0,1,1.33-1.37,3.88,3.88,0,0,1,1.94-.48,3.69,3.69,0,0,1,1.91.48,3.23,3.23,0,0,1,1.26,1.28,3.59,3.59,0,0,1,.44,1.78C153.6,60.17,153.59,60.43,153.58,60.6Zm-1.31-2.25a2.39,2.39,0,0,0-1-.91,3,3,0,0,0-1.34-.31,2.69,2.69,0,0,0-1.86.7,2.81,2.81,0,0,0-.86,2h5.38A2.79,2.79,0,0,0,152.27,58.35Z"/><path class="cls-3" d="M159.26,58.15a3.42,3.42,0,0,1,1.32-1.37,3.67,3.67,0,0,1,1.91-.49,3.75,3.75,0,0,1,2.33.7A3.15,3.15,0,0,1,166,58.9h-1a2.17,2.17,0,0,0-.85-1.3,2.7,2.7,0,0,0-1.62-.47,2.77,2.77,0,0,0-1.38.35,2.5,2.5,0,0,0-1,1.05,4.3,4.3,0,0,0,0,3.4,2.44,2.44,0,0,0,1,1,3,3,0,0,0,3-.11,2.2,2.2,0,0,0,.85-1.31h1a3.27,3.27,0,0,1-1.19,1.89,4.12,4.12,0,0,1-4.24.23,3.42,3.42,0,0,1-1.32-1.37,4.34,4.34,0,0,1-.48-2.08A4.29,4.29,0,0,1,159.26,58.15Z"/><path class="cls-3" d="M167.83,58.15a3.39,3.39,0,0,1,1.31-1.37,3.59,3.59,0,0,1,1.88-.49,3.37,3.37,0,0,1,1.88.51A2.86,2.86,0,0,1,174,58.08V56.41h1v7.64h-1v-1.7a3,3,0,0,1-1.15,1.3,3.41,3.41,0,0,1-1.88.51,3.55,3.55,0,0,1-1.87-.49,3.48,3.48,0,0,1-1.31-1.38,4.46,4.46,0,0,1-.46-2.08A4.37,4.37,0,0,1,167.83,58.15Zm5.84.45a2.89,2.89,0,0,0-1-1.08,3,3,0,0,0-2.89,0,2.61,2.61,0,0,0-1,1.06,3.39,3.39,0,0,0-.37,1.64,3.46,3.46,0,0,0,.37,1.65,2.66,2.66,0,0,0,1,1.08,3,3,0,0,0,2.89,0,2.75,2.75,0,0,0,1-1.08,3.75,3.75,0,0,0,0-3.25Z"/><path class="cls-3" d="M179.38,56.8a3.42,3.42,0,0,1,1.89-.51,3.6,3.6,0,0,1,1.87.49,3.37,3.37,0,0,1,1.3,1.37,4.38,4.38,0,0,1,.47,2.06,4.46,4.46,0,0,1-.47,2.08,3.46,3.46,0,0,1-1.3,1.38,3.6,3.6,0,0,1-1.87.49,3.41,3.41,0,0,1-1.88-.51,3.08,3.08,0,0,1-1.16-1.28v5.29h-1V56.41h1v1.67A3.12,3.12,0,0,1,179.38,56.8Zm4.16,1.77a2.59,2.59,0,0,0-1-1.06,3,3,0,0,0-1.46-.36,2.8,2.8,0,0,0-1.43.37,2.75,2.75,0,0,0-1,1.08,3.66,3.66,0,0,0,0,3.25,2.62,2.62,0,0,0,1,1.08,2.81,2.81,0,0,0,1.43.38,3,3,0,0,0,1.46-.37,2.64,2.64,0,0,0,1-1.08,3.46,3.46,0,0,0,.37-1.65A3.39,3.39,0,0,0,183.54,58.57Z"/><path class="cls-3" d="M186.73,58.15A3.39,3.39,0,0,1,188,56.78a3.59,3.59,0,0,1,1.88-.49,3.39,3.39,0,0,1,1.88.51,2.86,2.86,0,0,1,1.14,1.28V56.41h1v7.64h-1v-1.7a3,3,0,0,1-1.15,1.3,3.41,3.41,0,0,1-1.88.51,3.55,3.55,0,0,1-1.87-.49,3.48,3.48,0,0,1-1.31-1.38,4.46,4.46,0,0,1-.47-2.08A4.38,4.38,0,0,1,186.73,58.15Zm5.84.45a2.89,2.89,0,0,0-1-1.08,2.86,2.86,0,0,0-1.44-.37,3,3,0,0,0-1.46.36,2.65,2.65,0,0,0-1,1.06,3.39,3.39,0,0,0-.37,1.64,3.46,3.46,0,0,0,.37,1.65,2.71,2.71,0,0,0,1,1.08,3,3,0,0,0,1.46.37,2.87,2.87,0,0,0,1.44-.38,2.75,2.75,0,0,0,1-1.08,3.75,3.75,0,0,0,0-3.25Z"/><path class="cls-3" d="M196.19,58.15a3.42,3.42,0,0,1,1.32-1.37,3.7,3.7,0,0,1,1.91-.49,3.8,3.8,0,0,1,2.34.7,3.19,3.19,0,0,1,1.18,1.91h-1.05a2.13,2.13,0,0,0-.85-1.3,2.7,2.7,0,0,0-1.62-.47,2.77,2.77,0,0,0-1.38.35,2.42,2.42,0,0,0-1,1.05,4.19,4.19,0,0,0,0,3.4,2.36,2.36,0,0,0,1,1,3,3,0,0,0,3-.11,2.15,2.15,0,0,0,.85-1.31h1.05a3.27,3.27,0,0,1-1.19,1.89,3.74,3.74,0,0,1-2.33.71,3.79,3.79,0,0,1-1.91-.48,3.42,3.42,0,0,1-1.32-1.37,4.34,4.34,0,0,1-.48-2.08A4.29,4.29,0,0,1,196.19,58.15Z"/><path class="cls-3" d="M204.73,54.75a.74.74,0,0,1,0-1,.74.74,0,0,1,1,0,.72.72,0,1,1-1,1Zm1,1.66v7.64h-1V56.41Z"/><path class="cls-3" d="M209.22,57.23V62a1.33,1.33,0,0,0,.27,1,1.3,1.3,0,0,0,.94.27h.9v.84h-1.06a1.77,1.77,0,0,1-2-2.07V57.23h-1.06v-.82h1.06V54.49h1v1.92h2.11v.82Z"/><path class="cls-3" d="M213,58.15a3.31,3.31,0,0,1,1.3-1.37,3.59,3.59,0,0,1,1.88-.49,3.37,3.37,0,0,1,1.88.51,2.94,2.94,0,0,1,1.15,1.28V56.41h1v7.64h-1v-1.7a3.08,3.08,0,0,1-1.16,1.3,3.41,3.41,0,0,1-1.88.51,3.58,3.58,0,0,1-1.87-.49,3.39,3.39,0,0,1-1.3-1.38,4.34,4.34,0,0,1-.47-2.08A4.26,4.26,0,0,1,213,58.15Zm5.83.45a2.71,2.71,0,0,0-2.47-1.45,2.91,2.91,0,0,0-1.45.36,2.61,2.61,0,0,0-1,1.06,3.39,3.39,0,0,0-.37,1.64,3.46,3.46,0,0,0,.37,1.65,2.66,2.66,0,0,0,1,1.08,2.92,2.92,0,0,0,1.45.37,2.84,2.84,0,0,0,1.44-.38,2.68,2.68,0,0,0,1-1.08,3.66,3.66,0,0,0,0-3.25Z"/><path class="cls-3" d="M232.52,56.41,228,67.65h-1L228.45,64l-3.14-7.6h1.08l2.6,6.52,2.52-6.52Z"/><path class="cls-3" d="M237.71,58.15a3.31,3.31,0,0,1,1.3-1.37,3.59,3.59,0,0,1,1.88-.49,3.42,3.42,0,0,1,1.89.51,3,3,0,0,1,1.14,1.28V56.41h1v7.64h-1v-1.7a3.08,3.08,0,0,1-1.16,1.3,3.39,3.39,0,0,1-1.88.51,3.58,3.58,0,0,1-1.87-.49,3.39,3.39,0,0,1-1.3-1.38,4.34,4.34,0,0,1-.47-2.08A4.26,4.26,0,0,1,237.71,58.15Zm5.83.45a2.71,2.71,0,0,0-2.47-1.45,2.91,2.91,0,0,0-1.45.36,2.61,2.61,0,0,0-1,1.06,3.51,3.51,0,0,0-.37,1.64,3.58,3.58,0,0,0,.37,1.65,2.66,2.66,0,0,0,1,1.08,2.92,2.92,0,0,0,1.45.37,2.82,2.82,0,0,0,1.44-.38,2.68,2.68,0,0,0,1-1.08,3.66,3.66,0,0,0,0-3.25Z"/><path class="cls-3" d="M247.16,58.15a3.42,3.42,0,0,1,1.32-1.37,3.71,3.71,0,0,1,1.92-.49,3.77,3.77,0,0,1,2.33.7,3.19,3.19,0,0,1,1.18,1.91h-1a2.13,2.13,0,0,0-.85-1.3,2.69,2.69,0,0,0-1.61-.47,2.79,2.79,0,0,0-1.39.35,2.48,2.48,0,0,0-1,1.05,4.19,4.19,0,0,0,0,3.4,2.42,2.42,0,0,0,1,1,3,3,0,0,0,3-.11,2.15,2.15,0,0,0,.85-1.31h1a3.22,3.22,0,0,1-1.19,1.89,3.71,3.71,0,0,1-2.32.71,3.8,3.8,0,0,1-1.92-.48,3.42,3.42,0,0,1-1.32-1.37,4.46,4.46,0,0,1-.47-2.08A4.4,4.4,0,0,1,247.16,58.15Z"/><path class="cls-3" d="M257,57.23V62a1.33,1.33,0,0,0,.27,1,1.3,1.3,0,0,0,.94.27h.89v.84h-1A1.77,1.77,0,0,1,256,62V57.23h-1.07v-.82H256V54.49h1v1.92h2.1v.82Z"/><path class="cls-3" d="M267.32,56.41v7.64h-1V62.7a2.39,2.39,0,0,1-1,1.1,3.28,3.28,0,0,1-1.57.37,3.1,3.1,0,0,1-2.24-.84,3.3,3.3,0,0,1-.87-2.46V56.41h1v4.35a2.68,2.68,0,0,0,.62,1.9,2.23,2.23,0,0,0,1.7.66,2.31,2.31,0,0,0,1.77-.7,2.94,2.94,0,0,0,.65-2.06V56.41Z"/><path class="cls-3" d="M269.58,58.15a3.39,3.39,0,0,1,1.31-1.37,3.59,3.59,0,0,1,1.88-.49,3.37,3.37,0,0,1,1.88.51,2.86,2.86,0,0,1,1.14,1.28V56.41h1v7.64h-1v-1.7a3,3,0,0,1-1.15,1.3,3.41,3.41,0,0,1-1.88.51,3.55,3.55,0,0,1-1.87-.49,3.48,3.48,0,0,1-1.31-1.38,4.46,4.46,0,0,1-.46-2.08A4.37,4.37,0,0,1,269.58,58.15Zm5.84.45a2.89,2.89,0,0,0-1-1.08,3,3,0,0,0-2.89,0,2.61,2.61,0,0,0-1,1.06,3.39,3.39,0,0,0-.37,1.64,3.46,3.46,0,0,0,.37,1.65,2.66,2.66,0,0,0,1,1.08,3,3,0,0,0,2.89,0,2.75,2.75,0,0,0,1-1.08,3.75,3.75,0,0,0,0-3.25Z"/><path class="cls-3" d="M280,53.69V64.05h-1V53.69Z"/><path class="cls-3" d="M282.21,54.75a.71.71,0,1,1,1,0,.7.7,0,0,1-1,0Zm1,1.66v7.64h-1V56.41Z"/><path class="cls-3" d="M285.94,63.24h4v.81h-5.13v-.81l3.94-6h-3.87v-.81h5v.81Z"/><path class="cls-3" d="M291.62,58.15a3.37,3.37,0,0,1,1.3-1.37,3.65,3.65,0,0,1,1.89-.49,3.41,3.41,0,0,1,1.88.51,2.86,2.86,0,0,1,1.14,1.28V56.41h1v7.64h-1v-1.7a3,3,0,0,1-1.16,1.3,3.37,3.37,0,0,1-1.88.51,3.6,3.6,0,0,1-1.87-.49,3.46,3.46,0,0,1-1.3-1.38,4.46,4.46,0,0,1-.47-2.08A4.38,4.38,0,0,1,291.62,58.15Zm5.83.45a2.75,2.75,0,0,0-1-1.08,2.8,2.8,0,0,0-1.43-.37,3,3,0,0,0-1.46.36,2.52,2.52,0,0,0-1,1.06,3.39,3.39,0,0,0-.37,1.64,3.46,3.46,0,0,0,.37,1.65,2.58,2.58,0,0,0,1,1.08,3,3,0,0,0,1.46.37,2.81,2.81,0,0,0,1.43-.38,2.62,2.62,0,0,0,1-1.08,3.66,3.66,0,0,0,0-3.25Z"/><path class="cls-3" d="M300.71,63.91a.74.74,0,0,1,0-1,.66.66,0,0,1,.51-.2.64.64,0,0,1,.49.2.74.74,0,0,1,0,1,.65.65,0,0,1-.49.21A.66.66,0,0,1,300.71,63.91Z"/><path class="cls-3" d="M21.79,71.86v3.65H25.5v.82H21.79V80h4.13v.81h-5.1v-9.8h5.1v.81Z"/><path class="cls-3" d="M28.34,80.35a2.18,2.18,0,0,1-.93-1.66h1a1.44,1.44,0,0,0,.61,1,2.39,2.39,0,0,0,1.44.39,1.93,1.93,0,0,0,1.26-.37,1.2,1.2,0,0,0,.45-.94.88.88,0,0,0-.25-.65,1.77,1.77,0,0,0-.64-.39,8.39,8.39,0,0,0-1-.32A10.19,10.19,0,0,1,28.87,77a2.4,2.4,0,0,1-.91-.66,1.78,1.78,0,0,1-.37-1.19,1.72,1.72,0,0,1,.34-1,2.28,2.28,0,0,1,.95-.76,3.46,3.46,0,0,1,1.4-.28,3,3,0,0,1,2,.63,2.26,2.26,0,0,1,.81,1.71h-1a1.45,1.45,0,0,0-.53-1.08,1.94,1.94,0,0,0-1.32-.42,2,2,0,0,0-1.2.35,1.08,1.08,0,0,0-.47.87,1.06,1.06,0,0,0,.28.74,1.78,1.78,0,0,0,.68.44,10.67,10.67,0,0,0,1.09.36,10.82,10.82,0,0,1,1.32.43,2.42,2.42,0,0,1,.84.62,1.67,1.67,0,0,1,.36,1.08,1.84,1.84,0,0,1-.34,1.1,2.28,2.28,0,0,1-.93.76,3.26,3.26,0,0,1-1.39.28A3.53,3.53,0,0,1,28.34,80.35Z"/><path class="cls-3" d="M36.27,74v4.75a1.33,1.33,0,0,0,.27,1,1.29,1.29,0,0,0,.94.27h.89v.84h-1a1.77,1.77,0,0,1-2-2.07V74H34.21V73.2h1.07V71.29h1V73.2h2.1V74Z"/><path class="cls-3" d="M40,75a3.37,3.37,0,0,1,1.3-1.37,3.65,3.65,0,0,1,1.89-.49,3.39,3.39,0,0,1,1.88.51,2.86,2.86,0,0,1,1.14,1.28V73.2h1v7.65h-1v-1.7a3.05,3.05,0,0,1-1.15,1.3,3.42,3.42,0,0,1-1.89.51,3.6,3.6,0,0,1-1.87-.49A3.42,3.42,0,0,1,40,79.08,4.77,4.77,0,0,1,40,75Zm5.83.45a2.75,2.75,0,0,0-1-1.08A2.8,2.8,0,0,0,43.37,74a3,3,0,0,0-1.46.36,2.59,2.59,0,0,0-1,1.06A3.39,3.39,0,0,0,40.53,77a3.46,3.46,0,0,0,.37,1.65,2.64,2.64,0,0,0,1,1.08,3,3,0,0,0,1.46.37,2.81,2.81,0,0,0,1.43-.38,2.62,2.62,0,0,0,1-1.08,3.66,3.66,0,0,0,0-3.25Z"/><path class="cls-3" d="M51.4,73.46a3.15,3.15,0,0,1,1.63-.4v1h-.27a2.14,2.14,0,0,0-2.35,2.49v4.27h-1V73.2h1v1.36A2.4,2.4,0,0,1,51.4,73.46Z"/><path class="cls-3" d="M54.52,75a3.37,3.37,0,0,1,1.3-1.37,3.62,3.62,0,0,1,1.89-.49,3.41,3.41,0,0,1,1.88.51,2.86,2.86,0,0,1,1.14,1.28V73.2h1v7.65h-1v-1.7a3,3,0,0,1-1.16,1.3,3.37,3.37,0,0,1-1.88.51,3.6,3.6,0,0,1-1.87-.49,3.42,3.42,0,0,1-1.3-1.39,4.77,4.77,0,0,1,0-4.13Zm5.83.45a2.75,2.75,0,0,0-1-1.08A2.8,2.8,0,0,0,57.89,74a3,3,0,0,0-1.46.36,2.52,2.52,0,0,0-1,1.06A3.4,3.4,0,0,0,55,77a3.46,3.46,0,0,0,.38,1.65,2.58,2.58,0,0,0,1,1.08,3,3,0,0,0,1.46.37,2.81,2.81,0,0,0,1.43-.38,2.62,2.62,0,0,0,1-1.08,3.66,3.66,0,0,0,0-3.25ZM59.41,71l-2.87,1.67v-.76l2.87-1.79Z"/><path class="cls-3" d="M69.77,73.91a3.3,3.3,0,0,1,.87,2.46v4.48h-1V76.48a2.64,2.64,0,0,0-.62-1.9,2.21,2.21,0,0,0-1.7-.66,2.28,2.28,0,0,0-1.76.7,2.88,2.88,0,0,0-.66,2.06v4.17H64V73.2h1v1.31a2.41,2.41,0,0,1,1-1.07,3.18,3.18,0,0,1,1.55-.38A3.09,3.09,0,0,1,69.77,73.91Z"/><path class="cls-3" d="M83.53,77.4H77.19a3.14,3.14,0,0,0,.42,1.49,2.48,2.48,0,0,0,1,.93,2.87,2.87,0,0,0,1.34.31,2.68,2.68,0,0,0,1.6-.46,2.14,2.14,0,0,0,.86-1.24h1a3.27,3.27,0,0,1-1.2,1.82A3.67,3.67,0,0,1,80,81,3.86,3.86,0,0,1,78,80.48a3.4,3.4,0,0,1-1.34-1.37A4.34,4.34,0,0,1,76.2,77a4.47,4.47,0,0,1,.47-2.09A3.32,3.32,0,0,1,78,73.57a3.91,3.91,0,0,1,2-.48,3.69,3.69,0,0,1,1.91.48,3.23,3.23,0,0,1,1.26,1.28,3.59,3.59,0,0,1,.44,1.78A7.24,7.24,0,0,1,83.53,77.4Zm-1.3-2.25a2.39,2.39,0,0,0-1-.91,3,3,0,0,0-1.34-.31,2.69,2.69,0,0,0-1.86.7,2.81,2.81,0,0,0-.86,2h5.38A2.79,2.79,0,0,0,82.23,75.15Z"/><path class="cls-3" d="M91.18,73.91a3.3,3.3,0,0,1,.87,2.46v4.48h-1V76.48a2.68,2.68,0,0,0-.62-1.9,2.24,2.24,0,0,0-1.7-.66,2.31,2.31,0,0,0-1.77.7,2.88,2.88,0,0,0-.66,2.06v4.17h-1V73.2h1v1.31a2.52,2.52,0,0,1,1-1.07,3.22,3.22,0,0,1,1.56-.38A3.1,3.1,0,0,1,91.18,73.91Z"/><path class="cls-3" d="M97.23,74H95.45v6.82h-1V74H93.4V73.2h1.07v-.53a2.39,2.39,0,0,1,.63-1.83,3,3,0,0,1,2.07-.59v.84a2,2,0,0,0-1.34.36,1.67,1.67,0,0,0-.38,1.22v.53h1.78Z"/><path class="cls-3" d="M100.17,80.48a3.58,3.58,0,0,1-1.36-1.37A4.24,4.24,0,0,1,98.32,77a4.18,4.18,0,0,1,.5-2.08,3.6,3.6,0,0,1,1.37-1.37,4.13,4.13,0,0,1,3.9,0A3.41,3.41,0,0,1,105.46,75,4.08,4.08,0,0,1,106,77a4.23,4.23,0,0,1-.5,2.07,3.48,3.48,0,0,1-1.39,1.38,4,4,0,0,1-2,.48A3.93,3.93,0,0,1,100.17,80.48Zm3.34-.72a2.51,2.51,0,0,0,1-1A3.32,3.32,0,0,0,105,77a3.39,3.39,0,0,0-.39-1.7,2.52,2.52,0,0,0-1-1,3.05,3.05,0,0,0-2.8,0,2.46,2.46,0,0,0-1,1,3.9,3.9,0,0,0,0,3.4,2.41,2.41,0,0,0,1,1,2.87,2.87,0,0,0,1.39.35A2.91,2.91,0,0,0,103.51,79.76Z"/><path class="cls-3" d="M107.78,75a3.42,3.42,0,0,1,1.32-1.37,3.71,3.71,0,0,1,1.92-.49,3.77,3.77,0,0,1,2.33.7,3.19,3.19,0,0,1,1.18,1.91h-1a2.13,2.13,0,0,0-.85-1.3,2.69,2.69,0,0,0-1.61-.47,2.79,2.79,0,0,0-1.39.35,2.42,2.42,0,0,0-1,1,4.19,4.19,0,0,0,0,3.4,2.36,2.36,0,0,0,1,1,3,3,0,0,0,3-.11,2.15,2.15,0,0,0,.85-1.31h1a3.22,3.22,0,0,1-1.19,1.89A3.73,3.73,0,0,1,111,81a3.8,3.8,0,0,1-1.92-.48,3.42,3.42,0,0,1-1.32-1.37,4.34,4.34,0,0,1-.47-2.08A4.29,4.29,0,0,1,107.78,75Z"/><path class="cls-3" d="M116.36,75a3.31,3.31,0,0,1,1.3-1.37,3.59,3.59,0,0,1,1.88-.49,3.37,3.37,0,0,1,1.88.51,2.94,2.94,0,0,1,1.15,1.28V73.2h1v7.65h-1v-1.7a3.08,3.08,0,0,1-1.16,1.3,3.39,3.39,0,0,1-1.88.51,3.58,3.58,0,0,1-1.87-.49,3.36,3.36,0,0,1-1.3-1.39,4.77,4.77,0,0,1,0-4.13Zm5.83.45A2.71,2.71,0,0,0,119.72,74a2.91,2.91,0,0,0-1.45.36,2.61,2.61,0,0,0-1,1.06,3.39,3.39,0,0,0-.37,1.64,3.46,3.46,0,0,0,.37,1.65,2.66,2.66,0,0,0,1,1.08,2.92,2.92,0,0,0,1.45.37,2.84,2.84,0,0,0,1.44-.38,2.68,2.68,0,0,0,1-1.08,3.66,3.66,0,0,0,0-3.25Z"/><path class="cls-3" d="M125.81,75a3.46,3.46,0,0,1,1.31-1.37,3.64,3.64,0,0,1,1.88-.49,3.55,3.55,0,0,1,1.83.49A3,3,0,0,1,132,74.86V70.49h1V80.85h-1V79.14a3,3,0,0,1-1.15,1.31A3.44,3.44,0,0,1,129,81a3.59,3.59,0,0,1-1.88-.49,3.36,3.36,0,0,1-1.3-1.39,4.27,4.27,0,0,1-.47-2.07A4.38,4.38,0,0,1,125.81,75Zm5.83.45A2.71,2.71,0,0,0,129.17,74a2.91,2.91,0,0,0-1.45.36,2.61,2.61,0,0,0-1,1.06,3.51,3.51,0,0,0-.37,1.64,3.58,3.58,0,0,0,.37,1.65,2.66,2.66,0,0,0,1,1.08,2.92,2.92,0,0,0,1.45.37,2.84,2.84,0,0,0,1.44-.38,2.68,2.68,0,0,0,1-1.08,3.66,3.66,0,0,0,0-3.25Z"/><path class="cls-3" d="M136.64,80.48a3.58,3.58,0,0,1-1.36-1.37,4.24,4.24,0,0,1-.49-2.08,4.18,4.18,0,0,1,.5-2.08,3.54,3.54,0,0,1,1.37-1.37,4.13,4.13,0,0,1,3.9,0A3.41,3.41,0,0,1,141.93,75a4.08,4.08,0,0,1,.5,2.08,4.23,4.23,0,0,1-.5,2.07,3.48,3.48,0,0,1-1.39,1.38,4,4,0,0,1-2,.48A3.93,3.93,0,0,1,136.64,80.48Zm3.34-.72a2.51,2.51,0,0,0,1-1,3.32,3.32,0,0,0,.4-1.7,3.39,3.39,0,0,0-.39-1.7,2.58,2.58,0,0,0-1-1,2.94,2.94,0,0,0-1.41-.34,2.86,2.86,0,0,0-1.39.34,2.46,2.46,0,0,0-1,1,3.9,3.9,0,0,0,0,3.4,2.41,2.41,0,0,0,1,1,2.87,2.87,0,0,0,1.39.35A2.94,2.94,0,0,0,140,79.76Z"/><path class="cls-3" d="M144.71,80.35a2.22,2.22,0,0,1-.94-1.66h1a1.48,1.48,0,0,0,.61,1,2.42,2.42,0,0,0,1.45.39,1.9,1.9,0,0,0,1.25-.37,1.18,1.18,0,0,0,.46-.94.92.92,0,0,0-.25-.65,1.77,1.77,0,0,0-.64-.39,9,9,0,0,0-1-.32,10.39,10.39,0,0,1-1.39-.45,2.45,2.45,0,0,1-.9-.66,1.93,1.93,0,0,1,0-2.22,2.31,2.31,0,0,1,1-.76,3.41,3.41,0,0,1,1.39-.28,3,3,0,0,1,2,.63,2.2,2.2,0,0,1,.81,1.71h-1a1.44,1.44,0,0,0-.52-1.08,1.94,1.94,0,0,0-1.32-.42,2,2,0,0,0-1.21.35,1.09,1.09,0,0,0-.19,1.61,1.86,1.86,0,0,0,.68.44,11,11,0,0,0,1.1.36,11.19,11.19,0,0,1,1.31.43,2.25,2.25,0,0,1,.84.62,1.62,1.62,0,0,1,.36,1.08,1.9,1.9,0,0,1-.33,1.1,2.31,2.31,0,0,1-.94.76,3.19,3.19,0,0,1-1.39.28A3.5,3.5,0,0,1,144.71,80.35Z"/><path class="cls-3" d="M162.09,77.4h-6.34a2.93,2.93,0,0,0,.42,1.49,2.46,2.46,0,0,0,1,.93,2.9,2.9,0,0,0,1.34.31,2.71,2.71,0,0,0,1.61-.46,2.19,2.19,0,0,0,.86-1.24h1a3.2,3.2,0,0,1-1.19,1.82,3.7,3.7,0,0,1-2.31.71,3.86,3.86,0,0,1-1.93-.48,3.46,3.46,0,0,1-1.34-1.37,4.77,4.77,0,0,1,0-4.17,3.26,3.26,0,0,1,1.33-1.37,3.88,3.88,0,0,1,1.94-.48,3.69,3.69,0,0,1,1.91.48,3.23,3.23,0,0,1,1.26,1.28,3.59,3.59,0,0,1,.45,1.78A7.24,7.24,0,0,1,162.09,77.4Zm-1.31-2.25a2.33,2.33,0,0,0-1-.91,3,3,0,0,0-1.34-.31,2.69,2.69,0,0,0-1.86.7,2.8,2.8,0,0,0-.85,2h5.37A2.7,2.7,0,0,0,160.78,75.15Z"/><path class="cls-3" d="M169.73,73.91a3.3,3.3,0,0,1,.87,2.46v4.48h-1V76.48a2.68,2.68,0,0,0-.62-1.9,2.23,2.23,0,0,0-1.7-.66,2.31,2.31,0,0,0-1.77.7,2.92,2.92,0,0,0-.65,2.06v4.17h-1V73.2h1v1.31a2.41,2.41,0,0,1,1.05-1.07,3.15,3.15,0,0,1,1.55-.38A3.09,3.09,0,0,1,169.73,73.91Z"/><path class="cls-3" d="M177.58,70.49V80.85h-1V70.49Z"/><path class="cls-3" d="M179.83,75a3.37,3.37,0,0,1,1.3-1.37,3.65,3.65,0,0,1,1.89-.49,3.39,3.39,0,0,1,1.88.51A2.86,2.86,0,0,1,186,74.88V73.2h1v7.65h-1v-1.7a3.05,3.05,0,0,1-1.15,1.3A3.42,3.42,0,0,1,183,81a3.6,3.6,0,0,1-1.87-.49,3.42,3.42,0,0,1-1.3-1.39,4.77,4.77,0,0,1,0-4.13Zm5.83.45a2.75,2.75,0,0,0-1-1.08A2.8,2.8,0,0,0,183.2,74a3,3,0,0,0-1.46.36,2.52,2.52,0,0,0-1,1.06,3.39,3.39,0,0,0-.37,1.64,3.46,3.46,0,0,0,.37,1.65,2.58,2.58,0,0,0,1,1.08,3,3,0,0,0,1.46.37,2.81,2.81,0,0,0,1.43-.38,2.62,2.62,0,0,0,1-1.08,3.66,3.66,0,0,0,0-3.25Z"/><path class="cls-3" d="M193.58,80.35a2.18,2.18,0,0,1-.93-1.66h1a1.44,1.44,0,0,0,.61,1,2.39,2.39,0,0,0,1.44.39,1.93,1.93,0,0,0,1.26-.37,1.2,1.2,0,0,0,.45-.94.88.88,0,0,0-.25-.65,1.77,1.77,0,0,0-.64-.39,8.39,8.39,0,0,0-1-.32A10.9,10.9,0,0,1,194.1,77a2.45,2.45,0,0,1-.9-.66,1.78,1.78,0,0,1-.37-1.19,1.72,1.72,0,0,1,.34-1,2.28,2.28,0,0,1,1-.76,3.46,3.46,0,0,1,1.4-.28,3,3,0,0,1,2,.63,2.26,2.26,0,0,1,.81,1.71h-1a1.45,1.45,0,0,0-.53-1.08,2.26,2.26,0,0,0-2.52-.07,1.08,1.08,0,0,0-.47.87,1.06,1.06,0,0,0,.28.74,1.78,1.78,0,0,0,.68.44,10.67,10.67,0,0,0,1.09.36,10,10,0,0,1,1.31.43,2.25,2.25,0,0,1,.84.62,1.62,1.62,0,0,1,.37,1.08,1.84,1.84,0,0,1-.34,1.1,2.25,2.25,0,0,1-.94.76,3.18,3.18,0,0,1-1.38.28A3.51,3.51,0,0,1,193.58,80.35Z"/><path class="cls-3" d="M207.12,77.4h-6.34a3.14,3.14,0,0,0,.42,1.49,2.48,2.48,0,0,0,1,.93,2.87,2.87,0,0,0,1.34.31,2.68,2.68,0,0,0,1.6-.46,2.14,2.14,0,0,0,.86-1.24h1a3.22,3.22,0,0,1-1.2,1.82,3.67,3.67,0,0,1-2.3.71,3.86,3.86,0,0,1-1.93-.48,3.4,3.4,0,0,1-1.34-1.37,4.34,4.34,0,0,1-.48-2.08,4.47,4.47,0,0,1,.47-2.09,3.38,3.38,0,0,1,1.33-1.37,3.91,3.91,0,0,1,1.95-.48,3.69,3.69,0,0,1,1.91.48,3.23,3.23,0,0,1,1.26,1.28,3.59,3.59,0,0,1,.44,1.78A7.24,7.24,0,0,1,207.12,77.4Zm-1.3-2.25a2.39,2.39,0,0,0-1-.91,3,3,0,0,0-1.34-.31,2.69,2.69,0,0,0-1.86.7,2.81,2.81,0,0,0-.86,2h5.38A2.79,2.79,0,0,0,205.82,75.15Z"/><path class="cls-3" d="M214,73.6a2.89,2.89,0,0,1,1.14,1.27V73.2h1V81a3.8,3.8,0,0,1-.45,1.87,3.12,3.12,0,0,1-1.27,1.25,3.83,3.83,0,0,1-1.85.44,4,4,0,0,1-2.44-.7,3,3,0,0,1-1.21-1.9h1a2.28,2.28,0,0,0,1,1.27,3,3,0,0,0,1.72.48,2.75,2.75,0,0,0,1.33-.32,2.25,2.25,0,0,0,.93-.93,3.06,3.06,0,0,0,.33-1.46V79.15a3,3,0,0,1-1.15,1.3,3.38,3.38,0,0,1-1.87.51,3.59,3.59,0,0,1-1.88-.49,3.36,3.36,0,0,1-1.3-1.39A4.77,4.77,0,0,1,209,75a3.31,3.31,0,0,1,1.3-1.37,3.59,3.59,0,0,1,1.88-.49A3.44,3.44,0,0,1,214,73.6Zm.77,1.8a2.89,2.89,0,0,0-1-1.08,2.83,2.83,0,0,0-1.44-.37,2.91,2.91,0,0,0-1.45.36,2.61,2.61,0,0,0-1,1.06,3.39,3.39,0,0,0-.37,1.64,3.46,3.46,0,0,0,.37,1.65,2.66,2.66,0,0,0,1,1.08,2.92,2.92,0,0,0,1.45.37,2.84,2.84,0,0,0,1.44-.38,2.75,2.75,0,0,0,1-1.08,3.75,3.75,0,0,0,0-3.25Z"/><path class="cls-3" d="M225,73.2v7.65h-1V79.5a2.41,2.41,0,0,1-1,1.1,3.28,3.28,0,0,1-1.57.37,3.1,3.1,0,0,1-2.24-.84,3.3,3.3,0,0,1-.87-2.46V73.2h1v4.36a2.68,2.68,0,0,0,.62,1.9,2.24,2.24,0,0,0,1.7.66,2.31,2.31,0,0,0,1.77-.7,2.9,2.9,0,0,0,.66-2.06V73.2Z"/><path class="cls-3" d="M229.22,73.46a3.2,3.2,0,0,1,1.63-.4v1h-.26a2.49,2.49,0,0,0-1.71.57,2.45,2.45,0,0,0-.64,1.92v4.27h-1V73.2h1v1.36A2.38,2.38,0,0,1,229.22,73.46Z"/><path class="cls-3" d="M232.31,71.55a.74.74,0,0,1,0-1,.74.74,0,0,1,1,0,.72.72,0,1,1-1,1Zm1,1.65v7.65h-1V73.2Z"/><path class="cls-3" d="M235.56,75a3.39,3.39,0,0,1,1.31-1.37,3.59,3.59,0,0,1,1.88-.49,3.52,3.52,0,0,1,1.82.49,3,3,0,0,1,1.19,1.28V70.49h1V80.85h-1V79.14a3,3,0,0,1-1.15,1.31,3.4,3.4,0,0,1-1.87.51,3.65,3.65,0,0,1-1.89-.49,3.42,3.42,0,0,1-1.3-1.39,4.39,4.39,0,0,1-.47-2.07A4.26,4.26,0,0,1,235.56,75Zm5.82.45a2.75,2.75,0,0,0-1-1.08,2.8,2.8,0,0,0-1.43-.37,3,3,0,0,0-1.46.36,2.52,2.52,0,0,0-1,1.06,3.39,3.39,0,0,0-.37,1.64,3.46,3.46,0,0,0,.37,1.65,2.58,2.58,0,0,0,1,1.08,3,3,0,0,0,1.46.37,2.81,2.81,0,0,0,1.43-.38,2.62,2.62,0,0,0,1-1.08,3.66,3.66,0,0,0,0-3.25Z"/><path class="cls-3" d="M245,75a3.37,3.37,0,0,1,1.3-1.37,3.65,3.65,0,0,1,1.89-.49,3.41,3.41,0,0,1,1.88.51,2.86,2.86,0,0,1,1.14,1.28V73.2h1v7.65h-1v-1.7a3,3,0,0,1-1.16,1.3,3.37,3.37,0,0,1-1.88.51,3.6,3.6,0,0,1-1.87-.49,3.42,3.42,0,0,1-1.3-1.39A4.77,4.77,0,0,1,245,75Zm5.83.45a2.75,2.75,0,0,0-1-1.08,2.8,2.8,0,0,0-1.43-.37,3,3,0,0,0-1.46.36,2.52,2.52,0,0,0-1,1.06,3.39,3.39,0,0,0-.37,1.64,3.46,3.46,0,0,0,.37,1.65,2.58,2.58,0,0,0,1,1.08,3,3,0,0,0,1.46.37,2.81,2.81,0,0,0,1.43-.38,2.62,2.62,0,0,0,1-1.08,3.66,3.66,0,0,0,0-3.25Z"/><path class="cls-3" d="M254.46,75a3.33,3.33,0,0,1,1.31-1.37,3.59,3.59,0,0,1,1.88-.49,3.52,3.52,0,0,1,1.82.49,3,3,0,0,1,1.19,1.28V70.49h1V80.85h-1V79.14a3,3,0,0,1-1.15,1.31,3.4,3.4,0,0,1-1.87.51,3.65,3.65,0,0,1-1.89-.49,3.42,3.42,0,0,1-1.3-1.39A4.39,4.39,0,0,1,254,77,4.26,4.26,0,0,1,254.46,75Zm5.82.45a2.75,2.75,0,0,0-1-1.08,2.8,2.8,0,0,0-1.43-.37,3,3,0,0,0-1.46.36,2.52,2.52,0,0,0-1,1.06A3.39,3.39,0,0,0,255,77a3.46,3.46,0,0,0,.37,1.65,2.58,2.58,0,0,0,1,1.08,3,3,0,0,0,1.46.37,2.81,2.81,0,0,0,1.43-.38,2.62,2.62,0,0,0,1-1.08,3.66,3.66,0,0,0,0-3.25Z"/><path class="cls-3" d="M267.74,75a3.46,3.46,0,0,1,1.31-1.37,3.64,3.64,0,0,1,1.88-.49,3.49,3.49,0,0,1,1.82.49,3,3,0,0,1,1.2,1.28V70.49h1V80.85h-1V79.14a3,3,0,0,1-1.15,1.31,3.44,3.44,0,0,1-1.88.51,3.59,3.59,0,0,1-1.88-.49,3.36,3.36,0,0,1-1.3-1.39,4.27,4.27,0,0,1-.47-2.07A4.38,4.38,0,0,1,267.74,75Zm5.83.45A2.71,2.71,0,0,0,271.1,74a2.91,2.91,0,0,0-1.45.36,2.61,2.61,0,0,0-1,1.06,3.39,3.39,0,0,0-.37,1.64,3.46,3.46,0,0,0,.37,1.65,2.66,2.66,0,0,0,1,1.08,2.92,2.92,0,0,0,1.45.37,2.84,2.84,0,0,0,1.44-.38,2.68,2.68,0,0,0,1-1.08,3.66,3.66,0,0,0,0-3.25Z"/><path class="cls-3" d="M284.05,77.4h-6.34a3.14,3.14,0,0,0,.42,1.49,2.42,2.42,0,0,0,1,.93,2.87,2.87,0,0,0,1.34.31,2.68,2.68,0,0,0,1.6-.46,2.14,2.14,0,0,0,.86-1.24h1a3.27,3.27,0,0,1-1.2,1.82,3.67,3.67,0,0,1-2.3.71,3.86,3.86,0,0,1-1.93-.48,3.4,3.4,0,0,1-1.34-1.37,4.34,4.34,0,0,1-.48-2.08,4.47,4.47,0,0,1,.47-2.09,3.32,3.32,0,0,1,1.33-1.37,3.91,3.91,0,0,1,2-.48,3.71,3.71,0,0,1,1.91.48,3.23,3.23,0,0,1,1.26,1.28,3.7,3.7,0,0,1,.44,1.78A7.24,7.24,0,0,1,284.05,77.4Zm-1.31-2.25a2.3,2.3,0,0,0-1-.91,3,3,0,0,0-1.34-.31,2.73,2.73,0,0,0-1.87.7,2.84,2.84,0,0,0-.85,2h5.38A2.7,2.7,0,0,0,282.74,75.15Z"/><path class="cls-3" d="M290.69,70.49V80.85h-1V70.49Z"/><path class="cls-3" d="M292.94,75a3.31,3.31,0,0,1,1.3-1.37,3.59,3.59,0,0,1,1.88-.49,3.37,3.37,0,0,1,1.88.51,2.86,2.86,0,0,1,1.14,1.28V73.2h1v7.65h-1v-1.7a3,3,0,0,1-1.15,1.3,3.41,3.41,0,0,1-1.88.51,3.58,3.58,0,0,1-1.87-.49,3.36,3.36,0,0,1-1.3-1.39,4.77,4.77,0,0,1,0-4.13Zm5.83.45a2.89,2.89,0,0,0-1-1.08A2.83,2.83,0,0,0,296.3,74a2.91,2.91,0,0,0-1.45.36,2.61,2.61,0,0,0-1,1.06,3.39,3.39,0,0,0-.37,1.64,3.46,3.46,0,0,0,.37,1.65,2.66,2.66,0,0,0,1,1.08,2.92,2.92,0,0,0,1.45.37,2.84,2.84,0,0,0,1.44-.38,2.75,2.75,0,0,0,1-1.08,3.75,3.75,0,0,0,0-3.25Z"/><path class="cls-3" d="M63.44,90.71a3.33,3.33,0,0,1,.85,2.46v4.48h-1V93.28a2.68,2.68,0,0,0-.61-1.9,2.1,2.1,0,0,0-1.64-.66,2.23,2.23,0,0,0-1.72.71,3,3,0,0,0-.64,2.08v4.14h-1V93.28a2.72,2.72,0,0,0-.6-1.9,2.12,2.12,0,0,0-1.65-.66,2.22,2.22,0,0,0-1.72.71,3,3,0,0,0-.65,2.08v4.14h-1V90h1v1.31a2.52,2.52,0,0,1,1-1.08,3,3,0,0,1,1.5-.37,3.15,3.15,0,0,1,1.74.47,2.71,2.71,0,0,1,1.09,1.4,2.52,2.52,0,0,1,1-1.39,3.09,3.09,0,0,1,1.7-.48A3,3,0,0,1,63.44,90.71Z"/><path class="cls-3" d="M66.48,91.75a3.37,3.37,0,0,1,1.3-1.37,3.65,3.65,0,0,1,1.89-.49,3.39,3.39,0,0,1,1.88.51,2.83,2.83,0,0,1,1.14,1.29V90h1v7.64h-1V96a3.05,3.05,0,0,1-1.15,1.3,3.42,3.42,0,0,1-1.89.51,3.6,3.6,0,0,1-1.87-.49,3.46,3.46,0,0,1-1.3-1.38A4.46,4.46,0,0,1,66,93.81,4.38,4.38,0,0,1,66.48,91.75Zm5.83.45a2.75,2.75,0,0,0-1-1.08,2.8,2.8,0,0,0-1.43-.37,3,3,0,0,0-1.46.36,2.59,2.59,0,0,0-1,1.06A3.39,3.39,0,0,0,67,93.81a3.46,3.46,0,0,0,.37,1.65,2.64,2.64,0,0,0,1,1.08,3,3,0,0,0,1.46.37,2.81,2.81,0,0,0,1.43-.38,2.62,2.62,0,0,0,1-1.08,3.66,3.66,0,0,0,0-3.25Z"/><path class="cls-3" d="M81.73,90.71a3.3,3.3,0,0,1,.87,2.46v4.48h-1V93.28a2.64,2.64,0,0,0-.63-1.9,2.21,2.21,0,0,0-1.7-.66,2.3,2.3,0,0,0-1.76.7,2.9,2.9,0,0,0-.66,2.06v4.17h-1V90h1v1.3a2.41,2.41,0,0,1,1-1.07,3.21,3.21,0,0,1,1.56-.37A3.06,3.06,0,0,1,81.73,90.71Z"/><path class="cls-3" d="M91.66,94.2H85.32a3.14,3.14,0,0,0,.42,1.49,2.46,2.46,0,0,0,1,.93,2.92,2.92,0,0,0,1.35.32,2.68,2.68,0,0,0,1.6-.47,2.19,2.19,0,0,0,.86-1.24h1a3.27,3.27,0,0,1-1.2,1.82,3.61,3.61,0,0,1-2.3.71,3.9,3.9,0,0,1-1.94-.48,3.44,3.44,0,0,1-1.33-1.37,4.72,4.72,0,0,1,0-4.17,3.32,3.32,0,0,1,1.33-1.37,3.91,3.91,0,0,1,2-.48,3.74,3.74,0,0,1,1.91.48,3.37,3.37,0,0,1,1.26,1.28,3.71,3.71,0,0,1,.44,1.79A7.16,7.16,0,0,1,91.66,94.2ZM90.35,92a2.36,2.36,0,0,0-1-.91A3,3,0,0,0,88,90.73a2.72,2.72,0,0,0-1.86.7,2.84,2.84,0,0,0-.85,2h5.37A2.7,2.7,0,0,0,90.35,92Z"/><path class="cls-3" d="M95.45,90.26a3.15,3.15,0,0,1,1.63-.39v1h-.27a2.49,2.49,0,0,0-1.71.57,2.45,2.45,0,0,0-.64,1.92v4.27h-1V90h1v1.35A2.35,2.35,0,0,1,95.45,90.26Z"/><path class="cls-3" d="M98.57,91.75a3.37,3.37,0,0,1,1.3-1.37,3.61,3.61,0,0,1,1.88-.49,3.42,3.42,0,0,1,1.89.51,2.89,2.89,0,0,1,1.14,1.29V90h1v7.64h-1V96a3,3,0,0,1-1.16,1.3,3.37,3.37,0,0,1-1.88.51,3.6,3.6,0,0,1-1.87-.49,3.46,3.46,0,0,1-1.3-1.38,4.46,4.46,0,0,1-.47-2.08A4.38,4.38,0,0,1,98.57,91.75Zm5.83.45a2.75,2.75,0,0,0-1-1.08,2.8,2.8,0,0,0-1.43-.37,3,3,0,0,0-1.46.36,2.52,2.52,0,0,0-1,1.06,3.4,3.4,0,0,0-.38,1.64,3.46,3.46,0,0,0,.38,1.65,2.58,2.58,0,0,0,1,1.08,3,3,0,0,0,1.46.37,2.81,2.81,0,0,0,1.43-.38,2.62,2.62,0,0,0,1-1.08,3.66,3.66,0,0,0,0-3.25Z"/><path class="cls-3" d="M111.86,91.75a3.46,3.46,0,0,1,1.31-1.37,3.61,3.61,0,0,1,1.88-.49,3.41,3.41,0,0,1,1.88.51,2.85,2.85,0,0,1,1.13,1.29V90h1v11.25h-1V96a2.84,2.84,0,0,1-1.14,1.28,3.45,3.45,0,0,1-1.89.51,3.55,3.55,0,0,1-1.87-.49,3.39,3.39,0,0,1-1.3-1.38,4.34,4.34,0,0,1-.47-2.08A4.26,4.26,0,0,1,111.86,91.75Zm5.83.45a2.89,2.89,0,0,0-1-1.08,2.83,2.83,0,0,0-1.44-.37,2.91,2.91,0,0,0-1.45.36,2.61,2.61,0,0,0-1,1.06,3.39,3.39,0,0,0-.37,1.64,3.46,3.46,0,0,0,.37,1.65,2.66,2.66,0,0,0,1,1.08,2.92,2.92,0,0,0,1.45.37,2.84,2.84,0,0,0,1.44-.38,2.75,2.75,0,0,0,1-1.08,3.75,3.75,0,0,0,0-3.25Z"/><path class="cls-3" d="M127.91,90v7.64h-1V96.31a2.39,2.39,0,0,1-1,1.09,3.28,3.28,0,0,1-1.57.38,3.1,3.1,0,0,1-2.24-.85,3.3,3.3,0,0,1-.87-2.46V90h1v4.35a2.67,2.67,0,0,0,.62,1.9,2.24,2.24,0,0,0,1.7.66,2.31,2.31,0,0,0,1.77-.7,2.9,2.9,0,0,0,.66-2.06V90Z"/><path class="cls-3" d="M137,94.2h-6.34a3.14,3.14,0,0,0,.42,1.49,2.42,2.42,0,0,0,1,.93,2.88,2.88,0,0,0,1.34.32,2.68,2.68,0,0,0,1.6-.47,2.14,2.14,0,0,0,.86-1.24h1a3.27,3.27,0,0,1-1.2,1.82,3.61,3.61,0,0,1-2.3.71,3.86,3.86,0,0,1-1.93-.48,3.4,3.4,0,0,1-1.34-1.37,4.34,4.34,0,0,1-.48-2.08,4.47,4.47,0,0,1,.47-2.09,3.32,3.32,0,0,1,1.33-1.37,3.91,3.91,0,0,1,1.95-.48,3.71,3.71,0,0,1,1.91.48,3.23,3.23,0,0,1,1.26,1.28,3.6,3.6,0,0,1,.44,1.79A7.16,7.16,0,0,1,137,94.2ZM135.72,92a2.3,2.3,0,0,0-1-.91,3,3,0,0,0-1.34-.31,2.69,2.69,0,0,0-1.86.7,2.81,2.81,0,0,0-.86,2h5.38A2.7,2.7,0,0,0,135.72,92Z"/><path class="cls-3" d="M149.31,90v7.64h-1V96.31a2.36,2.36,0,0,1-1,1.09,3.28,3.28,0,0,1-1.57.38,3.09,3.09,0,0,1-2.24-.85,3.3,3.3,0,0,1-.87-2.46V90h1v4.35a2.62,2.62,0,0,0,.62,1.9,2.21,2.21,0,0,0,1.7.66,2.28,2.28,0,0,0,1.76-.7,2.9,2.9,0,0,0,.66-2.06V90Z"/><path class="cls-3" d="M152,97.15a2.24,2.24,0,0,1-.93-1.66h1a1.48,1.48,0,0,0,.61,1.05,2.42,2.42,0,0,0,1.45.4,1.9,1.9,0,0,0,1.25-.38,1.16,1.16,0,0,0,.46-.94.88.88,0,0,0-.25-.64,1.66,1.66,0,0,0-.64-.4,9.64,9.64,0,0,0-1-.32,10.39,10.39,0,0,1-1.39-.45,2.29,2.29,0,0,1-.9-.66,1.93,1.93,0,0,1,0-2.22,2.34,2.34,0,0,1,.95-.76,3.46,3.46,0,0,1,1.4-.28,3,3,0,0,1,2,.63,2.2,2.2,0,0,1,.81,1.71h-1a1.44,1.44,0,0,0-.52-1.08,1.94,1.94,0,0,0-1.32-.42,2,2,0,0,0-1.21.35,1.09,1.09,0,0,0-.19,1.61,1.78,1.78,0,0,0,.68.44c.27.11.64.23,1.09.36a10.61,10.61,0,0,1,1.32.44,2.22,2.22,0,0,1,.84.61,1.67,1.67,0,0,1,.36,1.08,1.9,1.9,0,0,1-.33,1.1,2.38,2.38,0,0,1-.94.76,3.19,3.19,0,0,1-1.39.28A3.55,3.55,0,0,1,152,97.15Z"/><path class="cls-3" d="M160,90.83v4.75a1.33,1.33,0,0,0,.26,1,1.3,1.3,0,0,0,.94.27h.9v.84h-1A1.78,1.78,0,0,1,159,95.58V90.83h-1.06V90H159V88.09h1V90h2.1v.82Z"/><path class="cls-3" d="M170.56,94.2h-6.34a3.14,3.14,0,0,0,.42,1.49,2.42,2.42,0,0,0,1,.93,2.88,2.88,0,0,0,1.34.32,2.68,2.68,0,0,0,1.6-.47,2.14,2.14,0,0,0,.86-1.24h1a3.27,3.27,0,0,1-1.2,1.82,3.61,3.61,0,0,1-2.3.71,3.86,3.86,0,0,1-1.93-.48,3.4,3.4,0,0,1-1.34-1.37,4.34,4.34,0,0,1-.48-2.08,4.47,4.47,0,0,1,.47-2.09A3.32,3.32,0,0,1,165,90.37a3.91,3.91,0,0,1,1.95-.48,3.71,3.71,0,0,1,1.91.48,3.23,3.23,0,0,1,1.26,1.28,3.71,3.71,0,0,1,.44,1.79A7.16,7.16,0,0,1,170.56,94.2ZM169.25,92a2.3,2.3,0,0,0-1-.91,3,3,0,0,0-1.34-.31,2.69,2.69,0,0,0-1.86.7,2.81,2.81,0,0,0-.86,2h5.38A2.7,2.7,0,0,0,169.25,92Z"/><path class="cls-3" d="M172.41,91.75a3.46,3.46,0,0,1,1.31-1.37,3.61,3.61,0,0,1,1.88-.49,3.49,3.49,0,0,1,1.82.49,3,3,0,0,1,1.19,1.28V87.29h1V97.65h-1V95.94a2.93,2.93,0,0,1-1.14,1.31,3.44,3.44,0,0,1-1.88.51,3.59,3.59,0,0,1-1.88-.49,3.48,3.48,0,0,1-1.31-1.38,4.46,4.46,0,0,1-.46-2.08A4.26,4.26,0,0,1,172.41,91.75Zm5.83.45a2.89,2.89,0,0,0-1-1.08,3,3,0,0,0-2.89,0,2.61,2.61,0,0,0-1,1.06,3.39,3.39,0,0,0-.37,1.64,3.46,3.46,0,0,0,.37,1.65,2.66,2.66,0,0,0,1,1.08,3,3,0,0,0,2.89,0,2.75,2.75,0,0,0,1-1.08,3.75,3.75,0,0,0,0-3.25Z"/><path class="cls-3" d="M186.65,87.29V97.65h-1V87.29Z"/><path class="cls-3" d="M190.28,97.28a3.51,3.51,0,0,1-1.36-1.37,4.24,4.24,0,0,1-.49-2.08,4.08,4.08,0,0,1,.5-2.08,3.54,3.54,0,0,1,1.37-1.37,4.13,4.13,0,0,1,3.9,0,3.41,3.41,0,0,1,1.37,1.37,4.08,4.08,0,0,1,.5,2.08,4.23,4.23,0,0,1-.5,2.07,3.48,3.48,0,0,1-1.39,1.38,4,4,0,0,1-2,.48A3.93,3.93,0,0,1,190.28,97.28Zm3.34-.72a2.51,2.51,0,0,0,1-1,3.32,3.32,0,0,0,.4-1.7,3.42,3.42,0,0,0-.39-1.7,2.54,2.54,0,0,0-1-1,2.86,2.86,0,0,0-1.39-.34,2.94,2.94,0,0,0-1.41.34,2.5,2.5,0,0,0-1,1,3.9,3.9,0,0,0,0,3.4,2.41,2.41,0,0,0,1,1,2.87,2.87,0,0,0,1.39.35A2.91,2.91,0,0,0,193.62,96.56Z"/><path class="cls-3" d="M198.35,97.15a2.18,2.18,0,0,1-.93-1.66h1a1.48,1.48,0,0,0,.61,1.05,2.42,2.42,0,0,0,1.45.4,1.9,1.9,0,0,0,1.25-.38,1.16,1.16,0,0,0,.46-.94.88.88,0,0,0-.25-.64,1.66,1.66,0,0,0-.64-.4,9,9,0,0,0-1-.32,10.9,10.9,0,0,1-1.39-.45,2.37,2.37,0,0,1-.9-.66,1.93,1.93,0,0,1,0-2.22,2.34,2.34,0,0,1,.95-.76,3.51,3.51,0,0,1,1.41-.28,3,3,0,0,1,2,.63,2.2,2.2,0,0,1,.81,1.71h-1a1.44,1.44,0,0,0-.52-1.08,1.94,1.94,0,0,0-1.32-.42,2,2,0,0,0-1.21.35,1.09,1.09,0,0,0-.46.87,1.05,1.05,0,0,0,.27.74,1.86,1.86,0,0,0,.68.44c.27.11.64.23,1.09.36a10.07,10.07,0,0,1,1.32.44,2.22,2.22,0,0,1,.84.61,1.67,1.67,0,0,1,.37,1.08,1.91,1.91,0,0,1-.34,1.1,2.38,2.38,0,0,1-.94.76,3.18,3.18,0,0,1-1.38.28A3.51,3.51,0,0,1,198.35,97.15Z"/><path class="cls-3" d="M214.66,90.71a3.3,3.3,0,0,1,.87,2.46v4.48h-1V93.28a2.64,2.64,0,0,0-.63-1.9,2.21,2.21,0,0,0-1.7-.66,2.28,2.28,0,0,0-1.76.7,2.9,2.9,0,0,0-.66,2.06v4.17h-1V90h1v1.3a2.41,2.41,0,0,1,1.05-1.07,3.17,3.17,0,0,1,1.55-.37A3.08,3.08,0,0,1,214.66,90.71Z"/><path class="cls-3" d="M224.59,94.2h-6.34a3,3,0,0,0,.42,1.49,2.46,2.46,0,0,0,1,.93,2.91,2.91,0,0,0,1.34.32,2.71,2.71,0,0,0,1.61-.47,2.19,2.19,0,0,0,.86-1.24h1a3.2,3.2,0,0,1-1.19,1.82,3.62,3.62,0,0,1-2.31.71,3.89,3.89,0,0,1-1.93-.48,3.38,3.38,0,0,1-1.33-1.37,4.24,4.24,0,0,1-.49-2.08,4.36,4.36,0,0,1,.48-2.09,3.32,3.32,0,0,1,1.33-1.37,3.9,3.9,0,0,1,1.94-.48,3.75,3.75,0,0,1,1.92.48,3.37,3.37,0,0,1,1.26,1.28,3.71,3.71,0,0,1,.44,1.79A7.16,7.16,0,0,1,224.59,94.2ZM223.28,92a2.36,2.36,0,0,0-1-.91,3,3,0,0,0-1.35-.31,2.69,2.69,0,0,0-1.86.7,2.8,2.8,0,0,0-.85,2h5.37A2.7,2.7,0,0,0,223.28,92Z"/><path class="cls-3" d="M226.44,91.75a3.33,3.33,0,0,1,1.31-1.37,3.71,3.71,0,0,1,1.92-.49,3.77,3.77,0,0,1,2.33.7,3.14,3.14,0,0,1,1.18,1.91h-1.05a2.19,2.19,0,0,0-.84-1.3,2.74,2.74,0,0,0-1.62-.47,2.77,2.77,0,0,0-1.38.35,2.44,2.44,0,0,0-1,1,3.66,3.66,0,0,0-.35,1.7,3.73,3.73,0,0,0,.35,1.71,2.41,2.41,0,0,0,1,1,2.68,2.68,0,0,0,1.38.36,2.74,2.74,0,0,0,1.62-.47,2.18,2.18,0,0,0,.84-1.31h1.05A3.21,3.21,0,0,1,232,97.05a3.76,3.76,0,0,1-2.33.71,3.8,3.8,0,0,1-1.92-.48,3.33,3.33,0,0,1-1.31-1.37,4.34,4.34,0,0,1-.48-2.08A4.29,4.29,0,0,1,226.44,91.75Z"/><path class="cls-3" d="M241.88,94.2h-6.34a3,3,0,0,0,.42,1.49,2.46,2.46,0,0,0,1,.93,2.91,2.91,0,0,0,1.34.32,2.71,2.71,0,0,0,1.61-.47,2.19,2.19,0,0,0,.86-1.24h1a3.2,3.2,0,0,1-1.19,1.82,3.62,3.62,0,0,1-2.31.71,3.89,3.89,0,0,1-1.93-.48A3.38,3.38,0,0,1,235,95.91a4.24,4.24,0,0,1-.49-2.08,4.36,4.36,0,0,1,.48-2.09,3.32,3.32,0,0,1,1.33-1.37,3.9,3.9,0,0,1,1.94-.48,3.75,3.75,0,0,1,1.92.48,3.37,3.37,0,0,1,1.26,1.28,3.71,3.71,0,0,1,.44,1.79A7.16,7.16,0,0,1,241.88,94.2ZM240.57,92a2.36,2.36,0,0,0-1-.91,3,3,0,0,0-1.35-.31,2.69,2.69,0,0,0-1.86.7,2.8,2.8,0,0,0-.85,2h5.37A2.7,2.7,0,0,0,240.57,92Z"/><path class="cls-3" d="M244.18,97.15a2.24,2.24,0,0,1-.93-1.66h1a1.48,1.48,0,0,0,.61,1.05,2.42,2.42,0,0,0,1.45.4,1.9,1.9,0,0,0,1.25-.38,1.18,1.18,0,0,0,.45-.94.84.84,0,0,0-.25-.64,1.7,1.7,0,0,0-.63-.4,9.23,9.23,0,0,0-1-.32,10.19,10.19,0,0,1-1.38-.45,2.4,2.4,0,0,1-.91-.66,1.83,1.83,0,0,1-.37-1.18,1.73,1.73,0,0,1,.34-1,2.28,2.28,0,0,1,.95-.76,3.46,3.46,0,0,1,1.4-.28,3,3,0,0,1,2,.63,2.26,2.26,0,0,1,.81,1.71h-1a1.47,1.47,0,0,0-.52-1.08,2.28,2.28,0,0,0-2.53-.07,1.09,1.09,0,0,0-.19,1.61,1.78,1.78,0,0,0,.68.44,10.67,10.67,0,0,0,1.09.36,10.61,10.61,0,0,1,1.32.44,2.39,2.39,0,0,1,.84.61,1.67,1.67,0,0,1,.36,1.08,1.9,1.9,0,0,1-.33,1.1,2.38,2.38,0,0,1-.94.76,3.23,3.23,0,0,1-1.39.28A3.53,3.53,0,0,1,244.18,97.15Z"/><path class="cls-3" d="M250.83,88.35a.67.67,0,0,1-.21-.52.66.66,0,0,1,.21-.51.69.69,0,0,1,.5-.2.7.7,0,0,1,.5.2.74.74,0,0,1,0,1,.67.67,0,0,1-.5.21A.66.66,0,0,1,250.83,88.35Zm1,1.66v7.64h-1V90Z"/><path class="cls-3" d="M255.32,90.83v4.75a1.38,1.38,0,0,0,.26,1,1.32,1.32,0,0,0,.94.27h.9v.84h-1.05a2.17,2.17,0,0,1-1.54-.48,2.14,2.14,0,0,1-.5-1.59V90.83h-1.07V90h1.07V88.09h1V90h2.1v.82Z"/><path class="cls-3" d="M259.05,91.75a3.37,3.37,0,0,1,1.3-1.37,3.65,3.65,0,0,1,1.89-.49,3.41,3.41,0,0,1,1.88.51,2.83,2.83,0,0,1,1.14,1.29V90h1v7.64h-1V96a3,3,0,0,1-1.16,1.3,3.37,3.37,0,0,1-1.88.51,3.6,3.6,0,0,1-1.87-.49,3.46,3.46,0,0,1-1.3-1.38,4.46,4.46,0,0,1-.47-2.08A4.38,4.38,0,0,1,259.05,91.75Zm5.83.45a2.75,2.75,0,0,0-1-1.08,2.8,2.8,0,0,0-1.43-.37,3,3,0,0,0-1.46.36,2.52,2.52,0,0,0-1,1.06,3.39,3.39,0,0,0-.37,1.64,3.46,3.46,0,0,0,.37,1.65,2.58,2.58,0,0,0,1,1.08,3,3,0,0,0,1.46.37,2.81,2.81,0,0,0,1.43-.38,2.62,2.62,0,0,0,1-1.08,3.66,3.66,0,0,0,0-3.25Z"/><path class="cls-3" d="M268.14,97.51a.74.74,0,0,1,0-1,.69.69,0,0,1,.51-.2.68.68,0,0,1,.49.2.74.74,0,0,1,0,1,.65.65,0,0,1-.49.21A.66.66,0,0,1,268.14,97.51Z"/></svg>