<svg id="Layer_1" data-name="Layer 1" xmlns="http://www.w3.org/2000/svg" viewBox="0 0 167.29 56.12"><defs><style>.cls-1{fill:#fff;}.cls-2{fill:#093f70;}.cls-3{fill:#1073dd;}</style></defs><rect class="cls-1" width="167.29" height="56.12" rx="3.33"/><path class="cls-2" d="M49.72,40.82v7.3h-1V42.68l-2.42,5.44h-.68l-2.44-5.45v5.45h-1v-7.3h1l2.7,6,2.7-6Z"/><path class="cls-2" d="M51.35,43.65a2.68,2.68,0,0,1,1-1,2.72,2.72,0,0,1,1.39-.37,2.54,2.54,0,0,1,1.32.33,2.14,2.14,0,0,1,.84.82v-1h1v5.78h-1V47.05a2.44,2.44,0,0,1-.85.84,2.59,2.59,0,0,1-1.32.33,2.66,2.66,0,0,1-1.39-.38,2.74,2.74,0,0,1-1-1.07A3.32,3.32,0,0,1,51,45.21,3.27,3.27,0,0,1,51.35,43.65Zm4.27.43a1.81,1.81,0,0,0-.71-.74,1.88,1.88,0,0,0-1-.26,2,2,0,0,0-1,.25,1.85,1.85,0,0,0-.7.74A2.29,2.29,0,0,0,52,45.21a2.39,2.39,0,0,0,.27,1.16,1.81,1.81,0,0,0,1.68,1,2,2,0,0,0,1-.25,1.9,1.9,0,0,0,.71-.75,2.35,2.35,0,0,0,.27-1.15A2.29,2.29,0,0,0,55.62,44.08Zm-.48-3.38-2.25,1.21v-.72l2.25-1.32Z"/><path class="cls-2" d="M59.34,48a2,2,0,0,1-.83-.63,1.63,1.63,0,0,1-.34-.94h1a1,1,0,0,0,.41.71,1.55,1.55,0,0,0,1,.28,1.41,1.41,0,0,0,.87-.25.73.73,0,0,0,.31-.61.6.6,0,0,0-.33-.56,4.54,4.54,0,0,0-1-.37,8.16,8.16,0,0,1-1-.34,2,2,0,0,1-.7-.52,1.37,1.37,0,0,1-.29-.9,1.32,1.32,0,0,1,.27-.81,1.67,1.67,0,0,1,.75-.59,2.75,2.75,0,0,1,1.11-.22,2.4,2.4,0,0,1,1.55.49,1.77,1.77,0,0,1,.63,1.33h-1a1,1,0,0,0-.36-.73,1.4,1.4,0,0,0-.9-.27,1.35,1.35,0,0,0-.82.22.7.7,0,0,0-.31.58.67.67,0,0,0,.19.47,1.34,1.34,0,0,0,.46.29,6.64,6.64,0,0,0,.78.25,10,10,0,0,1,1,.33,1.74,1.74,0,0,1,.67.5,1.23,1.23,0,0,1,.29.85,1.45,1.45,0,0,1-.26.86,1.75,1.75,0,0,1-.74.59,2.62,2.62,0,0,1-1.11.22A3,3,0,0,1,59.34,48Z"/><path class="cls-2" d="M72.06,45.59H67.44a1.82,1.82,0,0,0,1.87,1.82,1.77,1.77,0,0,0,1-.29,1.57,1.57,0,0,0,.59-.78h1a2.47,2.47,0,0,1-.92,1.36,2.89,2.89,0,0,1-1.74.52,3,3,0,0,1-1.47-.37,2.71,2.71,0,0,1-1-1.05,3.35,3.35,0,0,1-.37-1.58,3.28,3.28,0,0,1,.36-1.57,2.53,2.53,0,0,1,1-1,3,3,0,0,1,1.49-.37,2.9,2.9,0,0,1,1.46.36,2.52,2.52,0,0,1,1,1A2.9,2.9,0,0,1,72.09,45C72.09,45.19,72.08,45.39,72.06,45.59Zm-1.2-1.73a1.73,1.73,0,0,0-.66-.6,2,2,0,0,0-.93-.2,1.78,1.78,0,0,0-1.24.46,1.9,1.9,0,0,0-.58,1.29H71.1A1.81,1.81,0,0,0,70.86,43.86Z"/><path class="cls-2" d="M73.36,43.65a2.68,2.68,0,0,1,1-1,3,3,0,0,1,1.47-.37,2.86,2.86,0,0,1,1.75.52,2.47,2.47,0,0,1,.92,1.44h-1a1.52,1.52,0,0,0-.57-.84,1.81,1.81,0,0,0-1.06-.3,1.71,1.71,0,0,0-1.33.56,2.78,2.78,0,0,0,0,3.21,1.69,1.69,0,0,0,1.33.58,1.76,1.76,0,0,0,1.05-.3,1.5,1.5,0,0,0,.58-.84h1a2.56,2.56,0,0,1-.93,1.41,2.78,2.78,0,0,1-1.74.54,3,3,0,0,1-1.47-.37,2.64,2.64,0,0,1-1-1.05,3.63,3.63,0,0,1,0-3.15Z"/><path class="cls-2" d="M80.81,47.85a2.67,2.67,0,0,1-1-1.05,3.24,3.24,0,0,1-.38-1.58,3.13,3.13,0,0,1,.39-1.57,2.69,2.69,0,0,1,1-1,3.19,3.19,0,0,1,3,0,2.69,2.69,0,0,1,1.05,1,3.17,3.17,0,0,1,.38,1.57,3.14,3.14,0,0,1-.39,1.58,2.79,2.79,0,0,1-1.08,1.05,3.13,3.13,0,0,1-1.49.37A3,3,0,0,1,80.81,47.85Zm2.45-.72A1.83,1.83,0,0,0,84,46.4a2.29,2.29,0,0,0,.28-1.18A2.39,2.39,0,0,0,84,44a1.78,1.78,0,0,0-.72-.72,2.06,2.06,0,0,0-1.93,0,1.68,1.68,0,0,0-.7.72,2.39,2.39,0,0,0-.26,1.18,2.52,2.52,0,0,0,.25,1.19,1.77,1.77,0,0,0,.7.73,2,2,0,0,0,1,.23A2.08,2.08,0,0,0,83.26,47.13Z"/><path class="cls-2" d="M91.05,42.87a2.49,2.49,0,0,1,.65,1.84v3.41h-1V44.85a1.83,1.83,0,0,0-.43-1.32,1.53,1.53,0,0,0-1.18-.46,1.6,1.6,0,0,0-1.21.47,1.94,1.94,0,0,0-.45,1.38v3.2h-1V42.34h1v.82a2,2,0,0,1,.77-.68,2.33,2.33,0,0,1,1.09-.25A2.38,2.38,0,0,1,91.05,42.87Z"/><path class="cls-2" d="M94.32,47.85a2.67,2.67,0,0,1-1-1.05,3.24,3.24,0,0,1-.37-1.58,3.12,3.12,0,0,1,.38-1.57,2.69,2.69,0,0,1,1-1,3.19,3.19,0,0,1,3,0,2.69,2.69,0,0,1,1,1,3.17,3.17,0,0,1,.38,1.57,3.14,3.14,0,0,1-.39,1.58,2.84,2.84,0,0,1-1.07,1.05,3.14,3.14,0,0,1-1.5.37A3,3,0,0,1,94.32,47.85Zm2.45-.72a1.83,1.83,0,0,0,.73-.73,2.29,2.29,0,0,0,.28-1.18A2.39,2.39,0,0,0,97.51,44a1.78,1.78,0,0,0-.72-.72,2.06,2.06,0,0,0-1.93,0,1.68,1.68,0,0,0-.7.72,2.83,2.83,0,0,0,0,2.37,1.69,1.69,0,0,0,.69.73,2,2,0,0,0,1,.23A2,2,0,0,0,96.77,47.13Zm.1-6.5-2.25,1.2v-.72l2.25-1.32Z"/><path class="cls-2" d="M108.19,42.51a2,2,0,0,1,.83.84,2.76,2.76,0,0,1,.31,1.36v3.41h-1V44.85a1.83,1.83,0,0,0-.43-1.32,1.48,1.48,0,0,0-1.15-.46,1.57,1.57,0,0,0-1.2.48,2,2,0,0,0-.44,1.39v3.18h-1V44.85a1.83,1.83,0,0,0-.43-1.32,1.48,1.48,0,0,0-1.15-.46,1.57,1.57,0,0,0-1.2.48,2,2,0,0,0-.44,1.39v3.18h-1V42.34h1v.83a1.9,1.9,0,0,1,.77-.69,2.21,2.21,0,0,1,1.06-.25,2.46,2.46,0,0,1,1.28.33,2,2,0,0,1,.84,1,1.91,1.91,0,0,1,.8-1,2.41,2.41,0,0,1,1.25-.34A2.59,2.59,0,0,1,108.19,42.51Z"/><path class="cls-2" d="M110.93,41.21a.66.66,0,0,1,0-.93.63.63,0,0,1,.47-.19.61.61,0,0,1,.45.19.66.66,0,0,1,.18.47.65.65,0,0,1-.18.46.61.61,0,0,1-.45.19A.63.63,0,0,1,110.93,41.21Zm.93,1.13v5.78h-1V42.34Z"/><path class="cls-2" d="M113.5,43.65a2.68,2.68,0,0,1,1-1,3,3,0,0,1,1.47-.37,2.86,2.86,0,0,1,1.75.52,2.47,2.47,0,0,1,.92,1.44h-1a1.52,1.52,0,0,0-.57-.84,1.81,1.81,0,0,0-1.06-.3,1.71,1.71,0,0,0-1.33.56,2.78,2.78,0,0,0,0,3.21,1.69,1.69,0,0,0,1.33.58,1.76,1.76,0,0,0,1.05-.3,1.5,1.5,0,0,0,.58-.84h1a2.56,2.56,0,0,1-.93,1.41,2.78,2.78,0,0,1-1.74.54,3,3,0,0,1-1.47-.37,2.64,2.64,0,0,1-1-1.05,3.63,3.63,0,0,1,0-3.15Z"/><path class="cls-2" d="M121,47.85a2.67,2.67,0,0,1-1-1.05,3.24,3.24,0,0,1-.37-1.58,3.12,3.12,0,0,1,.38-1.57,2.69,2.69,0,0,1,1-1,3.19,3.19,0,0,1,3,0,2.69,2.69,0,0,1,1.05,1,3.17,3.17,0,0,1,.38,1.57A3.14,3.14,0,0,1,125,46.8a2.84,2.84,0,0,1-1.07,1.05,3.14,3.14,0,0,1-1.5.37A3,3,0,0,1,121,47.85Zm2.45-.72a1.83,1.83,0,0,0,.73-.73,2.29,2.29,0,0,0,.28-1.18,2.39,2.39,0,0,0-.27-1.18,1.78,1.78,0,0,0-.72-.72,2.06,2.06,0,0,0-1.93,0,1.68,1.68,0,0,0-.7.72,2.83,2.83,0,0,0,0,2.37,1.69,1.69,0,0,0,.69.73,2,2,0,0,0,1,.23A2,2,0,0,0,123.4,47.13Z"/><path class="cls-3" d="M97.14,24.39A1.92,1.92,0,0,0,94.45,24l-5.76,4.25H82.88a.74.74,0,0,1-.73-.77.77.77,0,0,1,.73-.77h3.77a1.63,1.63,0,0,0,1.6-1.28,1.54,1.54,0,0,0-1.52-1.8H79a5.73,5.73,0,0,0-3.56,1.26l-2.24,1.82-2.67,0a.81.81,0,0,0-.73.81v4.62a.76.76,0,0,0,.73.77H87.17a5.05,5.05,0,0,0,3-1l6.5-4.8A1.87,1.87,0,0,0,97.14,24.39ZM83.23,16.63A8.48,8.48,0,0,1,82,16.25l-.24-.09a1.13,1.13,0,0,0-1.47.66A1.18,1.18,0,0,0,81,18.3l.23.08a12,12,0,0,0,1.32.4v.59a1.16,1.16,0,1,0,2.31,0v-.5A2.65,2.65,0,0,0,87,16.67c.41-2.41-1.88-3.07-3.11-3.42l-.25-.09c-1.27-.36-1.19-.51-1.16-.71s.74-.48,1.55-.35a5,5,0,0,1,1,.26,1.16,1.16,0,1,0,.75-2.19,9.77,9.77,0,0,0-1-.27V9.36a1.16,1.16,0,1,0-2.31,0v.5a2.84,2.84,0,0,0-2.31,2.2c-.37,2.38,2,3.06,2.83,3.32l.31.09c1.53.44,1.5.58,1.46.8S84.06,16.76,83.23,16.63Z"/></svg>