<svg id="Layer_1" data-name="Layer 1" xmlns="http://www.w3.org/2000/svg" viewBox="0 0 167.29 54.92"><defs><style>.cls-1{fill:#fff;}.cls-2{fill:#093f70;}.cls-3{fill:#1073dd;}</style></defs><rect class="cls-1" width="167.29" height="54.92" rx="3.29"/><path class="cls-2" d="M47.38,45.39h2.44v.74H46.47v-7h.91Z"/><path class="cls-2" d="M50.82,39.58a.6.6,0,0,1-.18-.44.61.61,0,0,1,.18-.45.6.6,0,0,1,.44-.18.58.58,0,0,1,.43.18.64.64,0,0,1,.17.45.64.64,0,0,1-.17.44.62.62,0,0,1-.43.18A.65.65,0,0,1,50.82,39.58Zm.88,1.07v5.48h-.91V40.65Z"/><path class="cls-2" d="M55,40.87a2.39,2.39,0,0,1,1.23-.31,2.47,2.47,0,0,1,1.33.35,2.38,2.38,0,0,1,.93,1,3.05,3.05,0,0,1,.34,1.48,3.13,3.13,0,0,1-.34,1.48,2.46,2.46,0,0,1-.93,1,2.64,2.64,0,0,1-2.57,0,2.12,2.12,0,0,1-.81-.79v1h-.91V38.72h.91v3A2.1,2.1,0,0,1,55,40.87Zm2.65,1.42a1.68,1.68,0,0,0-.67-.7,1.88,1.88,0,0,0-.94-.24,1.83,1.83,0,0,0-.92.24,1.73,1.73,0,0,0-.68.71,2.37,2.37,0,0,0,0,2.16,1.81,1.81,0,0,0,1.6,1,1.79,1.79,0,0,0,.94-.25,1.7,1.7,0,0,0,.67-.71,2.22,2.22,0,0,0,.25-1.09A2.16,2.16,0,0,0,57.63,42.29Z"/><path class="cls-2" d="M65,43.73H60.6a1.74,1.74,0,0,0,1.79,1.72,1.62,1.62,0,0,0,1-.28,1.51,1.51,0,0,0,.56-.73h1A2.39,2.39,0,0,1,64,45.72a2.67,2.67,0,0,1-1.64.5,2.82,2.82,0,0,1-1.4-.35,2.59,2.59,0,0,1-1-1,3.12,3.12,0,0,1-.35-1.49A3.18,3.18,0,0,1,60,41.89a2.41,2.41,0,0,1,1-1,2.84,2.84,0,0,1,1.42-.34,2.72,2.72,0,0,1,1.38.34,2.29,2.29,0,0,1,.92.93A2.75,2.75,0,0,1,65,43.18C65,43.35,65,43.53,65,43.73Zm-1.14-1.64a1.57,1.57,0,0,0-.63-.57,1.92,1.92,0,0,0-.87-.19,1.66,1.66,0,0,0-1.18.44A1.77,1.77,0,0,0,60.62,43h3.46A1.72,1.72,0,0,0,63.85,42.09Z"/><path class="cls-2" d="M67.81,40.81a2.07,2.07,0,0,1,1.09-.26v.94h-.24c-1,0-1.53.55-1.53,1.66v3h-.91V40.65h.91v.89A1.72,1.72,0,0,1,67.81,40.81Z"/><path class="cls-2" d="M70,41.89a2.44,2.44,0,0,1,.93-1,2.52,2.52,0,0,1,1.33-.35,2.39,2.39,0,0,1,1.25.31,2,2,0,0,1,.79.78v-1h.92v5.48h-.92v-1a2.12,2.12,0,0,1-.81.79,2.38,2.38,0,0,1-1.24.32A2.48,2.48,0,0,1,70,44.85a3.13,3.13,0,0,1-.34-1.48A3.05,3.05,0,0,1,70,41.89Zm4,.41a1.73,1.73,0,0,0-.68-.71,1.92,1.92,0,0,0-1.86,0,1.74,1.74,0,0,0-.67.7,2.16,2.16,0,0,0-.25,1.08,2.22,2.22,0,0,0,.25,1.09,1.83,1.83,0,0,0,2.53.71,1.73,1.73,0,0,0,.68-.71,2.21,2.21,0,0,0,.25-1.08A2.16,2.16,0,0,0,74,42.3Z"/><path class="cls-2" d="M81,40.81a2,2,0,0,1,1.08-.26v.94h-.24c-1,0-1.53.55-1.53,1.66v3h-.91V40.65h.91v.89A1.68,1.68,0,0,1,81,40.81Z"/><path class="cls-2" d="M88.08,43.73H83.7A1.77,1.77,0,0,0,84.26,45a1.72,1.72,0,0,0,1.22.46,1.65,1.65,0,0,0,1-.28,1.43,1.43,0,0,0,.55-.73h1a2.33,2.33,0,0,1-.88,1.28,2.64,2.64,0,0,1-1.64.5,2.79,2.79,0,0,1-1.39-.35,2.59,2.59,0,0,1-1-1,3.12,3.12,0,0,1-.35-1.49,3.18,3.18,0,0,1,.34-1.49,2.41,2.41,0,0,1,1-1,2.83,2.83,0,0,1,1.41-.34,2.72,2.72,0,0,1,1.38.34,2.31,2.31,0,0,1,.93.93,2.75,2.75,0,0,1,.32,1.35C88.11,43.35,88.1,43.53,88.08,43.73Zm-1.14-1.64a1.48,1.48,0,0,0-.62-.57,2,2,0,0,0-.88-.19,1.64,1.64,0,0,0-1.17.44A1.78,1.78,0,0,0,83.71,43h3.46A1.63,1.63,0,0,0,86.94,42.09Z"/><path class="cls-2" d="M89.31,41.89a2.49,2.49,0,0,1,1-1,3,3,0,0,1,3,.14,2.28,2.28,0,0,1,.87,1.36h-1a1.41,1.41,0,0,0-.55-.79,1.64,1.64,0,0,0-1-.29,1.62,1.62,0,0,0-1.27.53,2.2,2.2,0,0,0-.48,1.52,2.23,2.23,0,0,0,.48,1.53,1.63,1.63,0,0,0,1.27.54,1.78,1.78,0,0,0,1-.28,1.49,1.49,0,0,0,.55-.8h1a2.39,2.39,0,0,1-.88,1.34,2.62,2.62,0,0,1-1.65.51,2.76,2.76,0,0,1-1.39-.35,2.58,2.58,0,0,1-1-1,3.25,3.25,0,0,1-.34-1.5A3.18,3.18,0,0,1,89.31,41.89Z"/><path class="cls-2" d="M100.25,40.65v5.48h-.91v-.81a1.77,1.77,0,0,1-.73.65,2.19,2.19,0,0,1-1,.24,2.41,2.41,0,0,1-1.15-.27,1.93,1.93,0,0,1-.81-.79,2.62,2.62,0,0,1-.29-1.29V40.65h.9v3.09A1.7,1.7,0,0,0,96.65,45a1.45,1.45,0,0,0,1.12.44A1.51,1.51,0,0,0,98.92,45a1.86,1.86,0,0,0,.42-1.31v-3Z"/><path class="cls-2" d="M103.38,40.81a2.07,2.07,0,0,1,1.09-.26v.94h-.24c-1,0-1.53.55-1.53,1.66v3h-.91V40.65h.91v.89A1.72,1.72,0,0,1,103.38,40.81Z"/><path class="cls-2" d="M106.33,46a1.85,1.85,0,0,1-.79-.6,1.6,1.6,0,0,1-.32-.88h.94a1,1,0,0,0,.38.67,1.51,1.51,0,0,0,.91.26,1.33,1.33,0,0,0,.82-.23.72.72,0,0,0,.3-.58.59.59,0,0,0-.32-.54,4.09,4.09,0,0,0-1-.34,7.79,7.79,0,0,1-1-.33,1.84,1.84,0,0,1-.66-.49,1.29,1.29,0,0,1-.27-.85,1.27,1.27,0,0,1,.25-.77,1.68,1.68,0,0,1,.71-.56,2.52,2.52,0,0,1,1-.2,2.21,2.21,0,0,1,1.47.46,1.66,1.66,0,0,1,.6,1.26h-.91a.92.92,0,0,0-.34-.69,1.27,1.27,0,0,0-.85-.26,1.29,1.29,0,0,0-.78.21.65.65,0,0,0-.29.55.62.62,0,0,0,.17.44,1.33,1.33,0,0,0,.44.28c.18.07.43.15.74.24a7.82,7.82,0,0,1,1,.31,1.75,1.75,0,0,1,.64.47,1.27,1.27,0,0,1,.27.81,1.36,1.36,0,0,1-.25.81,1.63,1.63,0,0,1-.7.56,2.52,2.52,0,0,1-1.05.21A2.71,2.71,0,0,1,106.33,46Z"/><path class="cls-2" d="M111.74,45.87a2.48,2.48,0,0,1-1-1,3,3,0,0,1-.36-1.49,2.92,2.92,0,0,1,.37-1.49,2.48,2.48,0,0,1,1-1,3.09,3.09,0,0,1,2.82,0,2.57,2.57,0,0,1,1,1,3,3,0,0,1,.36,1.49,2.92,2.92,0,0,1-.37,1.49,2.65,2.65,0,0,1-1,1,2.93,2.93,0,0,1-1.42.35A2.81,2.81,0,0,1,111.74,45.87Zm2.31-.68a1.85,1.85,0,0,0,.7-.69,2.29,2.29,0,0,0,.26-1.12,2.16,2.16,0,0,0-.26-1.12,1.68,1.68,0,0,0-.68-.69,1.88,1.88,0,0,0-.91-.22,1.86,1.86,0,0,0-.91.22,1.65,1.65,0,0,0-.67.69,2.26,2.26,0,0,0-.25,1.12,2.33,2.33,0,0,0,.25,1.13,1.64,1.64,0,0,0,.65.68,1.85,1.85,0,0,0,.9.23A1.93,1.93,0,0,0,114.05,45.19Z"/><path class="cls-2" d="M118,46a1.91,1.91,0,0,1-.79-.6,1.6,1.6,0,0,1-.32-.88h.94a1,1,0,0,0,.39.67,1.48,1.48,0,0,0,.9.26,1.33,1.33,0,0,0,.82-.23.72.72,0,0,0,.3-.58.57.57,0,0,0-.32-.54,4.09,4.09,0,0,0-1-.34,8.13,8.13,0,0,1-1-.33,1.68,1.68,0,0,1-.66-.49,1.25,1.25,0,0,1-.28-.85,1.33,1.33,0,0,1,.25-.77,1.74,1.74,0,0,1,.71-.56,2.52,2.52,0,0,1,1-.2,2.21,2.21,0,0,1,1.47.46,1.59,1.59,0,0,1,.6,1.26h-.91a.92.92,0,0,0-.34-.69,1.25,1.25,0,0,0-.85-.26,1.33,1.33,0,0,0-.78.21.65.65,0,0,0-.29.55.59.59,0,0,0,.18.44,1.23,1.23,0,0,0,.44.28c.18.07.42.15.73.24a6.82,6.82,0,0,1,1,.31,1.75,1.75,0,0,1,.64.47,1.17,1.17,0,0,1,.27.81,1.36,1.36,0,0,1-.25.81,1.58,1.58,0,0,1-.7.56,2.46,2.46,0,0,1-1,.21A2.75,2.75,0,0,1,118,46Z"/><path class="cls-3" d="M69.3,8.32A1.61,1.61,0,0,1,71.21,7.2a1.54,1.54,0,0,1,1.11,1.87l-.41,1.68a7.49,7.49,0,0,1-3.77,4.8V30.27a1.55,1.55,0,0,1-3.09,0V24.11h-.77v6.16a1.54,1.54,0,0,1-3.08,0V15.55a7.49,7.49,0,0,1-3.77-4.8L57,9.07A1.61,1.61,0,0,1,58.13,7.2,1.55,1.55,0,0,1,60,8.32L60.42,10a4.39,4.39,0,0,0,8.5,0ZM62.36,9.43a2.31,2.31,0,1,1,2.31,2.31,2.3,2.3,0,0,1-2.31-2.31Z"/><path class="cls-3" d="M88.29,8.32A1.61,1.61,0,0,1,90.2,7.2a1.56,1.56,0,0,1,1.12,1.87l-.42,1.68a7.49,7.49,0,0,1-3.77,4.8V30.27a1.54,1.54,0,1,1-3.08,0V24.11h-.77v6.16a1.55,1.55,0,0,1-3.09,0V15.55a7.49,7.49,0,0,1-3.77-4.8L76,9.07A1.61,1.61,0,0,1,77.12,7.2,1.55,1.55,0,0,1,79,8.32L79.41,10a4.39,4.39,0,0,0,8.5,0ZM81.35,9.43a2.31,2.31,0,0,1,4.62,0,2.31,2.31,0,1,1-4.62,0Z"/><path class="cls-3" d="M107.28,8.32a1.61,1.61,0,0,1,1.91-1.12,1.54,1.54,0,0,1,1.12,1.87l-.42,1.68a7.46,7.46,0,0,1-3.77,4.8V30.27a1.54,1.54,0,0,1-3.08,0V24.11h-.77v6.16a1.54,1.54,0,1,1-3.08,0V15.55a7.46,7.46,0,0,1-3.77-4.8L95,9.07A1.6,1.6,0,0,1,96.12,7.2,1.54,1.54,0,0,1,98,8.32L98.41,10a4.39,4.39,0,0,0,8.49,0Zm-6.94,1.11a2.32,2.32,0,1,1,2.31,2.31,2.3,2.3,0,0,1-2.31-2.31Z"/></svg>