<svg id="Layer_1" data-name="Layer 1" xmlns="http://www.w3.org/2000/svg" viewBox="0 0 167.29 54.92"><defs><style>.cls-1{fill:#fff;}.cls-2{fill:#093f70;}.cls-3{fill:#1073dd;}</style></defs><rect class="cls-1" width="167.29" height="54.92" rx="3.29"/><path class="cls-2" d="M18.67,41.18a2.1,2.1,0,0,0-.84-1,2.44,2.44,0,0,0-1.28-.34,2.65,2.65,0,0,0-1.32.34,2.37,2.37,0,0,0-.92,1,3.33,3.33,0,0,0,0,2.89,2.4,2.4,0,0,0,.92,1,2.55,2.55,0,0,0,1.32.34,2.41,2.41,0,0,0,1.68-.61A2.52,2.52,0,0,0,19,43.11H16.22v-.74H20v.7a3.35,3.35,0,0,1-.54,1.57,3.28,3.28,0,0,1-1.21,1.13,3.37,3.37,0,0,1-1.67.42,3.44,3.44,0,0,1-1.77-.46,3.34,3.34,0,0,1-1.27-1.26,3.61,3.61,0,0,1-.46-1.83,3.64,3.64,0,0,1,.46-1.84,3.37,3.37,0,0,1,1.27-1.27,3.69,3.69,0,0,1,3.74.1,3.09,3.09,0,0,1,1.24,1.55Z"/><path class="cls-2" d="M26.14,43.73H21.76A1.77,1.77,0,0,0,22.32,45a1.72,1.72,0,0,0,1.22.46,1.65,1.65,0,0,0,1-.28,1.43,1.43,0,0,0,.55-.73h1a2.33,2.33,0,0,1-.88,1.28,2.64,2.64,0,0,1-1.64.5,2.79,2.79,0,0,1-1.39-.35,2.59,2.59,0,0,1-1-1,3.12,3.12,0,0,1-.35-1.49,3.18,3.18,0,0,1,.34-1.49,2.41,2.41,0,0,1,1-1,2.83,2.83,0,0,1,1.41-.34,2.72,2.72,0,0,1,1.38.34,2.31,2.31,0,0,1,.93.93,2.75,2.75,0,0,1,.32,1.35C26.17,43.35,26.16,43.53,26.14,43.73ZM25,42.09a1.48,1.48,0,0,0-.62-.57,2,2,0,0,0-.88-.19,1.64,1.64,0,0,0-1.17.44A1.78,1.78,0,0,0,21.77,43h3.46A1.63,1.63,0,0,0,25,42.09Z"/><path class="cls-2" d="M28.18,46a1.91,1.91,0,0,1-.79-.6,1.6,1.6,0,0,1-.32-.88H28a1,1,0,0,0,.39.67,1.48,1.48,0,0,0,.9.26,1.31,1.31,0,0,0,.82-.23.7.7,0,0,0,.31-.58.58.58,0,0,0-.33-.54,4.09,4.09,0,0,0-1-.34,8.13,8.13,0,0,1-1-.33,1.68,1.68,0,0,1-.66-.49,1.3,1.3,0,0,1-.28-.85,1.33,1.33,0,0,1,.25-.77,1.74,1.74,0,0,1,.71-.56,2.52,2.52,0,0,1,1.05-.2,2.26,2.26,0,0,1,1.48.46,1.66,1.66,0,0,1,.6,1.26h-.91a.93.93,0,0,0-.35-.69,1.25,1.25,0,0,0-.85-.26,1.33,1.33,0,0,0-.78.21.65.65,0,0,0-.29.55.59.59,0,0,0,.18.44,1.23,1.23,0,0,0,.44.28c.18.07.42.15.73.24a7.49,7.49,0,0,1,1,.31,1.8,1.8,0,0,1,.63.47,1.22,1.22,0,0,1,.28.81,1.44,1.44,0,0,1-.25.81,1.66,1.66,0,0,1-.71.56,2.46,2.46,0,0,1-1.05.21A2.75,2.75,0,0,1,28.18,46Z"/><path class="cls-2" d="M33.71,41.4v3.23a.74.74,0,0,0,.17.56.83.83,0,0,0,.59.17h.67v.77h-.82a1.64,1.64,0,0,1-1.14-.35,1.49,1.49,0,0,1-.38-1.15V41.4h-.71v-.75h.71V39.26h.91v1.39h1.43v.75Z"/><path class="cls-2" d="M36.27,39.58a.6.6,0,0,1-.18-.44.61.61,0,0,1,.18-.45.59.59,0,0,1,.44-.18.56.56,0,0,1,.42.18.61.61,0,0,1,.18.45.61.61,0,0,1-.6.62A.63.63,0,0,1,36.27,39.58Zm.88,1.07v5.48h-.91V40.65Z"/><path class="cls-2" d="M39.69,45.87a2.62,2.62,0,0,1-1-1,3.12,3.12,0,0,1-.35-1.49,3,3,0,0,1,.36-1.49,2.57,2.57,0,0,1,1-1,3.09,3.09,0,0,1,2.82,0,2.48,2.48,0,0,1,1,1,2.87,2.87,0,0,1,.37,1.49,2.92,2.92,0,0,1-.38,1.49,2.62,2.62,0,0,1-1,1,3,3,0,0,1-1.42.35A2.88,2.88,0,0,1,39.69,45.87ZM42,45.19a1.76,1.76,0,0,0,.69-.69A2.19,2.19,0,0,0,43,43.38a2.26,2.26,0,0,0-.26-1.12,1.68,1.68,0,0,0-.68-.69,1.88,1.88,0,0,0-.91-.22,1.92,1.92,0,0,0-.92.22,1.69,1.69,0,0,0-.66.69,2.26,2.26,0,0,0-.25,1.12,2.45,2.45,0,0,0,.24,1.13,1.67,1.67,0,0,0,.66.68,1.83,1.83,0,0,0,.9.23A2,2,0,0,0,42,45.19Zm.1-6.17L40,40.17v-.69l2.13-1.25Z"/><path class="cls-2" d="M49.39,41.15A2.31,2.31,0,0,1,50,42.9v3.23h-.9V43a1.74,1.74,0,0,0-.41-1.26,1.46,1.46,0,0,0-1.12-.43,1.48,1.48,0,0,0-1.14.45A1.8,1.8,0,0,0,46,43.1v3H45.1V40.65H46v.78a1.8,1.8,0,0,1,.74-.65,2.18,2.18,0,0,1,1-.23A2.22,2.22,0,0,1,49.39,41.15Z"/><path class="cls-2" d="M54.2,39.58a.6.6,0,0,1-.18-.44.61.61,0,0,1,.18-.45.6.6,0,0,1,.44-.18.58.58,0,0,1,.43.18.6.6,0,0,1,.17.45.6.6,0,0,1-.17.44.62.62,0,0,1-.43.18A.65.65,0,0,1,54.2,39.58Zm.88,1.07v5.48h-.91V40.65Z"/><path class="cls-2" d="M60.93,41.15a2.35,2.35,0,0,1,.62,1.75v3.23h-.9V43a1.78,1.78,0,0,0-.41-1.26,1.48,1.48,0,0,0-1.12-.43,1.51,1.51,0,0,0-1.15.45,1.84,1.84,0,0,0-.43,1.31v3h-.91V40.65h.91v.78a1.86,1.86,0,0,1,.74-.65,2.2,2.2,0,0,1,1-.23A2.25,2.25,0,0,1,60.93,41.15Z"/><path class="cls-2" d="M64.15,41.4v3.23a.74.74,0,0,0,.17.56.83.83,0,0,0,.59.17h.67v.77h-.82a1.64,1.64,0,0,1-1.14-.35,1.49,1.49,0,0,1-.38-1.15V41.4h-.71v-.75h.71V39.26h.91v1.39h1.43v.75Z"/><path class="cls-2" d="M71.65,43.73H67.27a1.72,1.72,0,0,0,1.78,1.72,1.62,1.62,0,0,0,1-.28,1.45,1.45,0,0,0,.56-.73h1a2.39,2.39,0,0,1-.88,1.28,2.67,2.67,0,0,1-1.64.5,2.82,2.82,0,0,1-1.4-.35,2.5,2.5,0,0,1-1-1,3,3,0,0,1-.35-1.49,3.06,3.06,0,0,1,.34-1.49,2.33,2.33,0,0,1,.95-1,2.87,2.87,0,0,1,1.42-.34,2.72,2.72,0,0,1,1.38.34,2.23,2.23,0,0,1,.92.93,2.75,2.75,0,0,1,.33,1.35C71.68,43.35,71.67,43.53,71.65,43.73Zm-1.14-1.64a1.45,1.45,0,0,0-.63-.57,1.92,1.92,0,0,0-.87-.19,1.68,1.68,0,0,0-1.18.44A1.77,1.77,0,0,0,67.28,43h3.46A1.72,1.72,0,0,0,70.51,42.09Z"/><path class="cls-2" d="M74.48,40.81a2,2,0,0,1,1.08-.26v.94h-.24c-1,0-1.53.55-1.53,1.66v3h-.91V40.65h.91v.89A1.68,1.68,0,0,1,74.48,40.81Z"/><path class="cls-2" d="M80.9,41.15a2.31,2.31,0,0,1,.62,1.75v3.23h-.9V43a1.74,1.74,0,0,0-.41-1.26,1.45,1.45,0,0,0-1.12-.43,1.48,1.48,0,0,0-1.14.45,1.8,1.8,0,0,0-.43,1.31v3h-.91V40.65h.91v.78a1.8,1.8,0,0,1,.74-.65,2.18,2.18,0,0,1,1-.23A2.22,2.22,0,0,1,80.9,41.15Z"/><path class="cls-2" d="M83,41.89a2.47,2.47,0,0,1,.94-1,2.51,2.51,0,0,1,1.32-.35,2.39,2.39,0,0,1,1.25.31,1.92,1.92,0,0,1,.79.78v-1h.93v5.48h-.93v-1a2.09,2.09,0,0,1-.8.79,2.42,2.42,0,0,1-1.25.32,2.52,2.52,0,0,1-1.32-.36,2.6,2.6,0,0,1-.93-1,3.26,3.26,0,0,1-.34-1.48A3.17,3.17,0,0,1,83,41.89Zm4,.41a1.7,1.7,0,0,0-.67-.71,1.88,1.88,0,0,0-.94-.24,1.84,1.84,0,0,0-.93.24,1.74,1.74,0,0,0-.67.7,2.27,2.27,0,0,0-.25,1.08,2.34,2.34,0,0,0,.25,1.09,1.78,1.78,0,0,0,1.6,1,1.79,1.79,0,0,0,.94-.25,1.7,1.7,0,0,0,.67-.71,2.21,2.21,0,0,0,.25-1.08A2.16,2.16,0,0,0,87.06,42.3Z"/><path class="cls-2" d="M100.18,40.81a1.91,1.91,0,0,1,.79.8,2.67,2.67,0,0,1,.29,1.29v3.23h-.9V43a1.78,1.78,0,0,0-.41-1.26,1.41,1.41,0,0,0-1.09-.43,1.48,1.48,0,0,0-1.13.45,1.87,1.87,0,0,0-.42,1.32v3h-.9V43A1.78,1.78,0,0,0,96,41.77a1.41,1.41,0,0,0-1.09-.43,1.46,1.46,0,0,0-1.13.45,1.87,1.87,0,0,0-.42,1.32v3h-.91V40.65h.91v.79a1.76,1.76,0,0,1,.72-.66,2.14,2.14,0,0,1,1-.23,2.36,2.36,0,0,1,1.22.31,1.91,1.91,0,0,1,.79.91,1.72,1.72,0,0,1,.76-.9A2.16,2.16,0,0,1,99,40.55,2.34,2.34,0,0,1,100.18,40.81Z"/><path class="cls-2" d="M102.75,41.89A2.52,2.52,0,0,1,105,40.56a2.39,2.39,0,0,1,1.25.31,2,2,0,0,1,.79.78v-1H108v5.48h-.92v-1a2.17,2.17,0,0,1-.8.79,2.6,2.6,0,0,1-2.57,0,2.6,2.6,0,0,1-.93-1,3.13,3.13,0,0,1-.34-1.48A3.05,3.05,0,0,1,102.75,41.89Zm4,.41a1.77,1.77,0,0,0-.67-.71,1.91,1.91,0,0,0-.94-.24,1.84,1.84,0,0,0-.93.24,1.74,1.74,0,0,0-.67.7,2.16,2.16,0,0,0-.25,1.08,2.22,2.22,0,0,0,.25,1.09,1.78,1.78,0,0,0,1.6,1,1.81,1.81,0,0,0,.94-.25,1.77,1.77,0,0,0,.67-.71,2.21,2.21,0,0,0,.25-1.08A2.16,2.16,0,0,0,106.8,42.3Zm-.46-3.2-2.13,1.14v-.68l2.13-1.25Z"/><path class="cls-2" d="M110.32,46a1.91,1.91,0,0,1-.79-.6,1.6,1.6,0,0,1-.32-.88h.94a1,1,0,0,0,.39.67,1.48,1.48,0,0,0,.9.26,1.33,1.33,0,0,0,.82-.23.72.72,0,0,0,.3-.58.57.57,0,0,0-.32-.54,4.09,4.09,0,0,0-1-.34,7.58,7.58,0,0,1-1-.33,1.68,1.68,0,0,1-.66-.49,1.25,1.25,0,0,1-.28-.85,1.33,1.33,0,0,1,.25-.77,1.74,1.74,0,0,1,.71-.56,2.52,2.52,0,0,1,1-.2,2.21,2.21,0,0,1,1.47.46,1.59,1.59,0,0,1,.6,1.26h-.91a.92.92,0,0,0-.34-.69,1.25,1.25,0,0,0-.85-.26,1.33,1.33,0,0,0-.78.21.65.65,0,0,0-.29.55.59.59,0,0,0,.18.44,1.15,1.15,0,0,0,.44.28c.17.07.42.15.73.24a6.82,6.82,0,0,1,1,.31,1.75,1.75,0,0,1,.64.47,1.17,1.17,0,0,1,.27.81,1.36,1.36,0,0,1-.25.81,1.58,1.58,0,0,1-.7.56,2.49,2.49,0,0,1-1,.21A2.75,2.75,0,0,1,110.32,46Z"/><path class="cls-2" d="M118.22,46a1.88,1.88,0,0,1-.8-.6,1.6,1.6,0,0,1-.32-.88h1a.91.91,0,0,0,.38.67,1.49,1.49,0,0,0,.91.26,1.35,1.35,0,0,0,.82-.23.72.72,0,0,0,.3-.58.59.59,0,0,0-.32-.54,4.43,4.43,0,0,0-1-.34,7.79,7.79,0,0,1-1-.33,1.68,1.68,0,0,1-.66-.49,1.3,1.3,0,0,1-.28-.85,1.33,1.33,0,0,1,.25-.77,1.71,1.71,0,0,1,.72-.56,2.46,2.46,0,0,1,1-.2,2.25,2.25,0,0,1,1.47.46,1.66,1.66,0,0,1,.6,1.26h-.91a.93.93,0,0,0-.35-.69,1.24,1.24,0,0,0-.84-.26,1.29,1.29,0,0,0-.78.21.63.63,0,0,0-.29.55.58.58,0,0,0,.17.44,1.23,1.23,0,0,0,.44.28c.18.07.42.15.74.24a7.82,7.82,0,0,1,1,.31,1.8,1.8,0,0,1,.63.47,1.22,1.22,0,0,1,.28.81,1.44,1.44,0,0,1-.25.81,1.66,1.66,0,0,1-.71.56,2.44,2.44,0,0,1-1,.21A2.71,2.71,0,0,1,118.22,46Z"/><path class="cls-2" d="M127.6,43.73h-4.38A1.72,1.72,0,0,0,125,45.45a1.62,1.62,0,0,0,1-.28,1.45,1.45,0,0,0,.56-.73h1a2.39,2.39,0,0,1-.88,1.28,2.67,2.67,0,0,1-1.64.5,2.82,2.82,0,0,1-1.4-.35,2.5,2.5,0,0,1-1-1,3,3,0,0,1-.35-1.49,3.06,3.06,0,0,1,.34-1.49,2.33,2.33,0,0,1,1-1,2.84,2.84,0,0,1,1.42-.34,2.72,2.72,0,0,1,1.38.34,2.23,2.23,0,0,1,.92.93,2.75,2.75,0,0,1,.33,1.35C127.63,43.35,127.62,43.53,127.6,43.73Zm-1.14-1.64a1.51,1.51,0,0,0-.63-.57,1.92,1.92,0,0,0-.87-.19,1.68,1.68,0,0,0-1.18.44,1.77,1.77,0,0,0-.55,1.22h3.46A1.72,1.72,0,0,0,126.46,42.09Z"/><path class="cls-2" d="M133.12,41.15a2.35,2.35,0,0,1,.62,1.75v3.23h-.9V43a1.78,1.78,0,0,0-.41-1.26,1.46,1.46,0,0,0-1.12-.43,1.52,1.52,0,0,0-1.15.45,1.84,1.84,0,0,0-.42,1.31v3h-.91V40.65h.91v.78a1.77,1.77,0,0,1,.73-.65,2.46,2.46,0,0,1,2.65.37Z"/><path class="cls-2" d="M135.23,41.89a2.42,2.42,0,0,1,1-1,2.62,2.62,0,0,1,1.38-.35,2.69,2.69,0,0,1,1.67.49,2.32,2.32,0,0,1,.86,1.36h-1a1.35,1.35,0,0,0-.54-.79,1.65,1.65,0,0,0-1-.29,1.6,1.6,0,0,0-1.26.53,2.2,2.2,0,0,0-.48,1.52,2.23,2.23,0,0,0,.48,1.53,1.61,1.61,0,0,0,1.26.54,1.74,1.74,0,0,0,1-.28,1.44,1.44,0,0,0,.55-.8h1a2.34,2.34,0,0,1-.88,1.34,2.62,2.62,0,0,1-1.65.51,2.72,2.72,0,0,1-1.38-.35,2.51,2.51,0,0,1-1-1,3.13,3.13,0,0,1-.34-1.5A3.06,3.06,0,0,1,135.23,41.89Z"/><path class="cls-2" d="M141.33,39.58a.6.6,0,0,1-.18-.44.61.61,0,0,1,.18-.45.6.6,0,0,1,.44-.18.58.58,0,0,1,.43.18.64.64,0,0,1,.17.45.64.64,0,0,1-.17.44.62.62,0,0,1-.43.18A.65.65,0,0,1,141.33,39.58Zm.88,1.07v5.48h-.91V40.65Z"/><path class="cls-2" d="M144.67,38.72v7.41h-.91V38.72Z"/><path class="cls-2" d="M147.14,38.72v7.41h-.92V38.72Z"/><path class="cls-2" d="M148.69,41.89a2.38,2.38,0,0,1,.93-1,2.52,2.52,0,0,1,1.33-.35,2.42,2.42,0,0,1,1.25.31,2,2,0,0,1,.79.78v-1h.92v5.48H153v-1a2.12,2.12,0,0,1-.81.79,2.38,2.38,0,0,1-1.24.32,2.48,2.48,0,0,1-2.25-1.37,3.13,3.13,0,0,1-.34-1.48A3.05,3.05,0,0,1,148.69,41.89Zm4.05.41a1.73,1.73,0,0,0-.68-.71,1.92,1.92,0,0,0-1.86,0,1.68,1.68,0,0,0-.67.7,2.16,2.16,0,0,0-.25,1.08,2.22,2.22,0,0,0,.25,1.09,1.7,1.7,0,0,0,.67.71,1.85,1.85,0,0,0,1.86,0,1.73,1.73,0,0,0,.68-.71,2.33,2.33,0,0,0,.25-1.08A2.27,2.27,0,0,0,152.74,42.3Z"/><path class="cls-3" d="M79.25,9.8a2.64,2.64,0,0,1,2.64-2.64h3.52A2.64,2.64,0,0,1,88.05,9.8v3.52A2.64,2.64,0,0,1,85.41,16H85v2.2h8.36a3.08,3.08,0,0,1,3.08,3.08V23h.44a2.65,2.65,0,0,1,2.65,2.64v3.52a2.65,2.65,0,0,1-2.65,2.64H93.33a2.64,2.64,0,0,1-2.64-2.64V25.65A2.64,2.64,0,0,1,93.33,23h.44V21.24a.44.44,0,0,0-.44-.44H85V23h.44a2.64,2.64,0,0,1,2.64,2.64v3.52a2.64,2.64,0,0,1-2.64,2.64H81.89a2.64,2.64,0,0,1-2.64-2.64V25.65A2.64,2.64,0,0,1,81.89,23h.44V20.8H74a.44.44,0,0,0-.44.44V23H74a2.64,2.64,0,0,1,2.64,2.64v3.52A2.64,2.64,0,0,1,74,31.81H70.44a2.64,2.64,0,0,1-2.64-2.64V25.65A2.64,2.64,0,0,1,70.44,23h.44V21.24A3.08,3.08,0,0,1,74,18.16h8.37V16h-.44a2.64,2.64,0,0,1-2.64-2.64Z"/></svg>