<svg id="Layer_1" data-name="Layer 1" xmlns="http://www.w3.org/2000/svg" viewBox="0 0 167.29 64.38"><defs><style>.cls-1{fill:#fff;}.cls-2{fill:#093f70;}.cls-3{fill:#1073dd;}</style></defs><rect class="cls-1" width="167.29" height="64.38" rx="3.56"/><path class="cls-2" d="M39,42.29H35.81l-.59,1.64h-1l2.66-7.32H38l2.65,7.32h-1Zm-.27-.78-1.33-3.72-1.33,3.72Z"/><path class="cls-2" d="M43.6,38.38a2.52,2.52,0,0,1,1.31-.33,2.66,2.66,0,0,1,1.4.37,2.55,2.55,0,0,1,1,1A3.2,3.2,0,0,1,47.66,41a3.27,3.27,0,0,1-.36,1.56,2.63,2.63,0,0,1-1,1.07,2.67,2.67,0,0,1-1.4.38,2.51,2.51,0,0,1-1.3-.33,2.29,2.29,0,0,1-.86-.83v3.81h-1V38.14h1v1.07A2.26,2.26,0,0,1,43.6,38.38Zm2.81,1.49a1.88,1.88,0,0,0-.71-.74,2,2,0,0,0-2,0,1.91,1.91,0,0,0-.71.75A2.3,2.3,0,0,0,42.75,41,2.35,2.35,0,0,0,43,42.17a2.05,2.05,0,0,0,.71.75,1.92,1.92,0,0,0,2.68-.75A2.37,2.37,0,0,0,46.67,41,2.34,2.34,0,0,0,46.41,39.87Z"/><path class="cls-2" d="M50.61,38.31A2.24,2.24,0,0,1,51.75,38v1H51.5c-1.08,0-1.62.58-1.62,1.75v3.15h-1V38.14h1v.94A1.81,1.81,0,0,1,50.61,38.31Z"/><path class="cls-2" d="M53.91,43.65a2.67,2.67,0,0,1-1-1A3.21,3.21,0,0,1,52.5,41a3.06,3.06,0,0,1,.39-1.56,2.53,2.53,0,0,1,1-1.05,3.24,3.24,0,0,1,3,0,2.57,2.57,0,0,1,1.05,1A3.07,3.07,0,0,1,58.35,41,3,3,0,0,1,58,42.6a2.77,2.77,0,0,1-1.07,1,3,3,0,0,1-1.5.37A2.92,2.92,0,0,1,53.91,43.65Zm2.44-.72a1.79,1.79,0,0,0,.74-.73A2.37,2.37,0,0,0,57.37,41a2.39,2.39,0,0,0-.28-1.18,1.78,1.78,0,0,0-.72-.72,2,2,0,0,0-1.92,0,1.74,1.74,0,0,0-.7.72A2.39,2.39,0,0,0,53.48,41a2.59,2.59,0,0,0,.26,1.2,1.72,1.72,0,0,0,.69.72,1.94,1.94,0,0,0,1,.24A1.92,1.92,0,0,0,56.35,42.93Z"/><path class="cls-2" d="M61.77,43l1.79-4.9h1l-2.27,5.79H61.2l-2.27-5.79h1Z"/><path class="cls-2" d="M65.57,37a.6.6,0,0,1-.19-.46.63.63,0,0,1,.19-.47.64.64,0,0,1,.46-.19.62.62,0,0,1,.45.19.67.67,0,0,1,.19.47.64.64,0,0,1-.19.46.58.58,0,0,1-.45.19A.6.6,0,0,1,65.57,37Zm.93,1.13v5.79h-1V38.14Z"/><path class="cls-2" d="M69,43.79a2.07,2.07,0,0,1-.84-.63,1.69,1.69,0,0,1-.33-.93h1a1,1,0,0,0,.4.7,1.54,1.54,0,0,0,1,.28A1.36,1.36,0,0,0,71,43a.73.73,0,0,0,.31-.61.59.59,0,0,0-.34-.56,4.27,4.27,0,0,0-1-.37,6.85,6.85,0,0,1-1-.34,2,2,0,0,1-.7-.52,1.44,1.44,0,0,1,0-1.71,1.74,1.74,0,0,1,.75-.59,2.73,2.73,0,0,1,1.1-.21,2.37,2.37,0,0,1,1.55.48,1.74,1.74,0,0,1,.64,1.33h-1a1,1,0,0,0-.37-.73,1.62,1.62,0,0,0-1.71-.05.68.68,0,0,0-.31.58.61.61,0,0,0,.19.47,1.41,1.41,0,0,0,.46.3q.28.1.78.24a9.77,9.77,0,0,1,1,.34,1.79,1.79,0,0,1,.67.49,1.3,1.3,0,0,1,.29.85,1.53,1.53,0,0,1-.26.86,1.78,1.78,0,0,1-.75.59,2.54,2.54,0,0,1-1.1.22A3,3,0,0,1,69,43.79Z"/><path class="cls-2" d="M73.67,37a.64.64,0,0,1-.19-.46.67.67,0,0,1,.19-.47.68.68,0,0,1,.47-.19.63.63,0,0,1,.63.66.63.63,0,0,1-.18.46.61.61,0,0,1-.45.19A.64.64,0,0,1,73.67,37Zm.93,1.13v5.79h-1V38.14Z"/><path class="cls-2" d="M77.29,43.65a2.69,2.69,0,0,1-1-1A3.21,3.21,0,0,1,75.88,41a3.06,3.06,0,0,1,.39-1.56,2.57,2.57,0,0,1,1-1.05,3.26,3.26,0,0,1,3,0,2.69,2.69,0,0,1,1,1A3.07,3.07,0,0,1,81.73,41a3,3,0,0,1-.4,1.58,2.77,2.77,0,0,1-1.07,1,3,3,0,0,1-1.5.37A2.92,2.92,0,0,1,77.29,43.65Zm2.44-.72a1.85,1.85,0,0,0,.74-.73A2.37,2.37,0,0,0,80.75,41a2.39,2.39,0,0,0-.28-1.18,1.78,1.78,0,0,0-.72-.72,2,2,0,0,0-1.92,0,1.74,1.74,0,0,0-.7.72A2.39,2.39,0,0,0,76.86,41a2.59,2.59,0,0,0,.26,1.2,1.72,1.72,0,0,0,.69.72,1.94,1.94,0,0,0,1,.24A1.92,1.92,0,0,0,79.73,42.93Z"/><path class="cls-2" d="M87.52,38.67a2.46,2.46,0,0,1,.66,1.85v3.41h-1V40.65a1.84,1.84,0,0,0-.44-1.32,1.53,1.53,0,0,0-1.18-.46,1.6,1.6,0,0,0-1.21.47A2,2,0,0,0,84,40.73v3.2H83V38.14h1V39a1.91,1.91,0,0,1,.78-.68A2.44,2.44,0,0,1,85.81,38,2.34,2.34,0,0,1,87.52,38.67Z"/><path class="cls-2" d="M89.75,39.46a2.55,2.55,0,0,1,1-1,2.84,2.84,0,0,1,2.71-.05,2.23,2.23,0,0,1,.84.83V38.14h1v5.79h-1V42.85a2.28,2.28,0,0,1-.85.84,2.59,2.59,0,0,1-1.32.33,2.61,2.61,0,0,1-2.37-1.45A3.27,3.27,0,0,1,89.39,41,3.2,3.2,0,0,1,89.75,39.46Zm4.27.42a1.81,1.81,0,0,0-.71-.74,2,2,0,0,0-2,0,1.85,1.85,0,0,0-.7.74A2.34,2.34,0,0,0,90.37,41a2.37,2.37,0,0,0,.27,1.16,1.84,1.84,0,0,0,1.68,1,2,2,0,0,0,1-.26,1.9,1.9,0,0,0,.71-.75,2.56,2.56,0,0,0,0-2.29Z"/><path class="cls-2" d="M105,38.31a2.06,2.06,0,0,1,.84.84,2.89,2.89,0,0,1,.3,1.37v3.41h-1V40.65a1.88,1.88,0,0,0-.42-1.32,1.5,1.5,0,0,0-1.16-.46,1.53,1.53,0,0,0-1.19.48,2,2,0,0,0-.45,1.39v3.19h-1V40.65a1.88,1.88,0,0,0-.42-1.32,1.5,1.5,0,0,0-1.16-.46,1.53,1.53,0,0,0-1.19.48,2,2,0,0,0-.44,1.39v3.19h-1V38.14h1V39a1.87,1.87,0,0,1,.76-.69A2.33,2.33,0,0,1,99.67,38a2.47,2.47,0,0,1,1.29.32,2,2,0,0,1,.83,1,2,2,0,0,1,.8-1,2.43,2.43,0,0,1,1.25-.33A2.59,2.59,0,0,1,105,38.31Z"/><path class="cls-2" d="M107.79,37a.6.6,0,0,1-.19-.46.63.63,0,0,1,.19-.47.64.64,0,0,1,.46-.19.62.62,0,0,1,.45.19.67.67,0,0,1,.19.47.64.64,0,0,1-.19.46.58.58,0,0,1-.45.19A.6.6,0,0,1,107.79,37Zm.93,1.13v5.79h-1V38.14Z"/><path class="cls-2" d="M115.6,41.39H111a1.81,1.81,0,0,0,1.87,1.82,1.77,1.77,0,0,0,1-.29,1.53,1.53,0,0,0,.59-.78h1a2.44,2.44,0,0,1-.93,1.36,2.78,2.78,0,0,1-1.73.52,2.89,2.89,0,0,1-1.47-.37,2.71,2.71,0,0,1-1-1A3.32,3.32,0,0,1,110,41a3.28,3.28,0,0,1,.36-1.57,2.53,2.53,0,0,1,1-1,3.24,3.24,0,0,1,3,0,2.52,2.52,0,0,1,1,1,2.9,2.9,0,0,1,.34,1.42C115.63,41,115.62,41.19,115.6,41.39Zm-1.2-1.72a1.68,1.68,0,0,0-.66-.61,2.18,2.18,0,0,0-.93-.2,1.78,1.78,0,0,0-1.24.46,1.86,1.86,0,0,0-.58,1.29h3.65A1.78,1.78,0,0,0,114.4,39.67Z"/><path class="cls-2" d="M121.42,38.67a2.46,2.46,0,0,1,.66,1.85v3.41h-1V40.65a1.89,1.89,0,0,0-.43-1.32,1.55,1.55,0,0,0-1.19-.46,1.58,1.58,0,0,0-1.2.47,2,2,0,0,0-.45,1.39v3.2h-1V38.14h1V39a2,2,0,0,1,.77-.68,2.44,2.44,0,0,1,1.08-.24A2.34,2.34,0,0,1,121.42,38.67Z"/><path class="cls-2" d="M124.82,38.93v3.41a.83.83,0,0,0,.18.6.93.93,0,0,0,.63.17h.7v.82h-.86a1.77,1.77,0,0,1-1.21-.37,1.64,1.64,0,0,1-.4-1.22V38.93h-.75v-.79h.75V36.68h1v1.46h1.51v.79Z"/><path class="cls-2" d="M128.54,43.65a2.67,2.67,0,0,1-1-1,3.21,3.21,0,0,1-.38-1.58,3.06,3.06,0,0,1,.39-1.56,2.65,2.65,0,0,1,1-1.05,3.26,3.26,0,0,1,3,0,2.69,2.69,0,0,1,1,1A3.17,3.17,0,0,1,133,41a3.11,3.11,0,0,1-.39,1.58,2.79,2.79,0,0,1-1.08,1A3,3,0,0,1,130,44,2.93,2.93,0,0,1,128.54,43.65Zm2.45-.72a1.83,1.83,0,0,0,.73-.73A2.27,2.27,0,0,0,132,41a2.39,2.39,0,0,0-.27-1.18,1.91,1.91,0,0,0-.72-.72,2.06,2.06,0,0,0-1.93,0,1.8,1.8,0,0,0-.7.72,2.39,2.39,0,0,0-.26,1.18,2.6,2.6,0,0,0,.25,1.2,1.8,1.8,0,0,0,.7.72,1.89,1.89,0,0,0,1,.24A2,2,0,0,0,131,42.93Z"/><path class="cls-2" d="M62.1,51a2.06,2.06,0,0,1,.84.84,2.85,2.85,0,0,1,.31,1.36v3.41h-1V53.32A1.91,1.91,0,0,0,61.87,52a1.72,1.72,0,0,0-2.35,0,1.94,1.94,0,0,0-.44,1.38v3.19h-.95V53.32A1.91,1.91,0,0,0,57.7,52a1.53,1.53,0,0,0-1.16-.45,1.54,1.54,0,0,0-1.19.48,1.94,1.94,0,0,0-.44,1.38v3.19H54V50.81h1v.83a2,2,0,0,1,.76-.7,2.36,2.36,0,0,1,1.06-.24A2.48,2.48,0,0,1,58,51a2,2,0,0,1,.83,1,1.93,1.93,0,0,1,.81-1,2.29,2.29,0,0,1,1.24-.34A2.59,2.59,0,0,1,62.1,51Z"/><path class="cls-2" d="M64.82,52.12a2.66,2.66,0,0,1,1-1,2.79,2.79,0,0,1,1.4-.37,2.54,2.54,0,0,1,1.32.33,2.21,2.21,0,0,1,.84.82v-1h1v5.78h-1V55.52a2.34,2.34,0,0,1-.85.83,2.5,2.5,0,0,1-1.32.34,2.64,2.64,0,0,1-1.39-.38,2.67,2.67,0,0,1-1-1.07,3.32,3.32,0,0,1-.36-1.56A3.27,3.27,0,0,1,64.82,52.12Zm4.27.43a1.84,1.84,0,0,0-.71-.75,2,2,0,0,0-1-.25,1.93,1.93,0,0,0-1,.25,1.88,1.88,0,0,0-.71.74,2.4,2.4,0,0,0-.26,1.14,2.44,2.44,0,0,0,.26,1.15,1.91,1.91,0,0,0,.71.75,1.84,1.84,0,0,0,1,.26,1.88,1.88,0,0,0,1-.26,1.78,1.78,0,0,0,.71-.75,2.54,2.54,0,0,0,0-2.28Zm-.48-3.38-2.25,1.2v-.71l2.25-1.32Z"/><path class="cls-2" d="M72.81,56.46a2.07,2.07,0,0,1-.84-.63,1.72,1.72,0,0,1-.33-.94h1a1,1,0,0,0,.4.71,1.6,1.6,0,0,0,1,.27,1.43,1.43,0,0,0,.87-.24.73.73,0,0,0,.31-.61.62.62,0,0,0-.34-.57,4.83,4.83,0,0,0-1-.36,8.16,8.16,0,0,1-1.05-.34,2,2,0,0,1-.7-.52,1.46,1.46,0,0,1,0-1.72,1.72,1.72,0,0,1,.75-.58,2.57,2.57,0,0,1,1.1-.22,2.37,2.37,0,0,1,1.56.49,1.75,1.75,0,0,1,.63,1.33h-1a1,1,0,0,0-.37-.73,1.56,1.56,0,0,0-1.71,0,.66.66,0,0,0-.31.58.63.63,0,0,0,.19.47,1.34,1.34,0,0,0,.46.29,6.64,6.64,0,0,0,.78.25,8,8,0,0,1,1,.33,1.9,1.9,0,0,1,.67.49,1.33,1.33,0,0,1,.29.86,1.47,1.47,0,0,1-.26.85,1.73,1.73,0,0,1-.75.6,2.7,2.7,0,0,1-1.1.22A3,3,0,0,1,72.81,56.46Z"/><path class="cls-2" d="M82,51a2.2,2.2,0,0,1,1.15-.28v1h-.25c-1.08,0-1.62.59-1.62,1.76v3.14h-1V50.81h1v.94A1.85,1.85,0,0,1,82,51Z"/><path class="cls-2" d="M84.22,52.12a2.61,2.61,0,0,1,1-1,2.72,2.72,0,0,1,1.39-.37,2.54,2.54,0,0,1,1.32.33,2.21,2.21,0,0,1,.84.82v-1h1v5.78h-1V55.52a2.34,2.34,0,0,1-.85.83,2.5,2.5,0,0,1-1.32.34,2.64,2.64,0,0,1-1.39-.38,2.67,2.67,0,0,1-1-1.07,3.32,3.32,0,0,1-.36-1.56A3.27,3.27,0,0,1,84.22,52.12Zm4.27.43a1.84,1.84,0,0,0-.71-.75,2,2,0,0,0-1-.25,1.93,1.93,0,0,0-1,.25,1.88,1.88,0,0,0-.71.74,2.4,2.4,0,0,0-.26,1.14,2.44,2.44,0,0,0,.26,1.15,1.91,1.91,0,0,0,.71.75,1.84,1.84,0,0,0,1,.26,1.88,1.88,0,0,0,1-.26,1.78,1.78,0,0,0,.71-.75,2.54,2.54,0,0,0,0-2.28ZM88,49.17l-2.25,1.2v-.71L88,48.34Z"/><path class="cls-2" d="M93.16,51a2.59,2.59,0,0,1,1.32-.33,2.79,2.79,0,0,1,1.4.37,2.66,2.66,0,0,1,1,1,3.27,3.27,0,0,1,.36,1.56,3.32,3.32,0,0,1-.36,1.56,2.74,2.74,0,0,1-1,1.07,2.7,2.7,0,0,1-1.4.38,2.46,2.46,0,0,1-1.31-.34,2.37,2.37,0,0,1-.86-.83v3.82h-1V50.81h1v1.06A2.42,2.42,0,0,1,93.16,51ZM96,52.54a1.83,1.83,0,0,0-.72-.74,1.93,1.93,0,0,0-1-.25,2,2,0,0,0-1,.25,2,2,0,0,0-.72.75,2.34,2.34,0,0,0-.27,1.14,2.29,2.29,0,0,0,.27,1.14,1.93,1.93,0,0,0,3.4,0,2.44,2.44,0,0,0,.26-1.15A2.4,2.4,0,0,0,96,52.54Z"/><path class="cls-2" d="M98.52,49.68a.63.63,0,0,1-.19-.47.65.65,0,0,1,.65-.65.58.58,0,0,1,.45.19.62.62,0,0,1,.19.46.63.63,0,0,1-.19.47.62.62,0,0,1-.45.19A.66.66,0,0,1,98.52,49.68Zm.93,1.13v5.78h-1V50.81Z"/><path class="cls-2" d="M101.08,52.12a2.61,2.61,0,0,1,1-1,2.8,2.8,0,0,1,1.41-.37,2.73,2.73,0,0,1,1.26.31,2.25,2.25,0,0,1,.88.82V48.78h1v7.81h-1V55.5a2.21,2.21,0,0,1-.84.85,2.44,2.44,0,0,1-1.31.34,2.63,2.63,0,0,1-2.39-1.45,3.44,3.44,0,0,1-.35-1.56A3.38,3.38,0,0,1,101.08,52.12Zm4.28.43a1.9,1.9,0,0,0-.71-.75,2,2,0,0,0-1-.25,1.91,1.91,0,0,0-1,.25,1.81,1.81,0,0,0-.71.74,2.4,2.4,0,0,0-.26,1.14,2.44,2.44,0,0,0,.26,1.15,1.84,1.84,0,0,0,.71.75,1.82,1.82,0,0,0,1,.26,1.88,1.88,0,0,0,1-.26,1.84,1.84,0,0,0,.71-.75,2.63,2.63,0,0,0,0-2.28Z"/><path class="cls-2" d="M109.27,56.32a2.67,2.67,0,0,1-1-1,3.24,3.24,0,0,1-.38-1.58,3.1,3.1,0,0,1,.39-1.57,2.57,2.57,0,0,1,1-1,3.17,3.17,0,0,1,3,0,2.57,2.57,0,0,1,1,1,3.34,3.34,0,0,1,0,3.15,2.77,2.77,0,0,1-1.07,1,3.14,3.14,0,0,1-1.5.37A3,3,0,0,1,109.27,56.32Zm2.44-.72a1.85,1.85,0,0,0,.74-.73,2.39,2.39,0,0,0,.28-1.18,2.27,2.27,0,0,0-.28-1.18,1.75,1.75,0,0,0-.72-.73,2.12,2.12,0,0,0-1.92,0,1.71,1.71,0,0,0-.7.73,2.37,2.37,0,0,0-.27,1.18,2.52,2.52,0,0,0,.26,1.19,1.61,1.61,0,0,0,.69.72,1.94,1.94,0,0,0,.95.24A2,2,0,0,0,111.71,55.6Z"/><path class="cls-3" d="M85.82,17.31h5a1.34,1.34,0,0,1,1.29.92,1.36,1.36,0,0,1-.35,1.58l-11.43,10a1.43,1.43,0,0,1-2.25-1.64l3.43-8h-5a1.41,1.41,0,0,1-1.29-.93,1.43,1.43,0,0,1,.39-1.58L87,7.67A1.42,1.42,0,0,1,89.25,9.3Z"/></svg>