<svg id="Layer_1" data-name="Layer 1" xmlns="http://www.w3.org/2000/svg" viewBox="0 0 167.29 64.38"><defs><style>.cls-1{fill:#fff;}.cls-2{fill:#093f70;}.cls-3{fill:#1073dd;}</style></defs><rect class="cls-1" width="167.29" height="64.38" rx="3.56"/><path class="cls-2" d="M18.29,37.39v4.66a2,2,0,0,0,.48,1.45A1.79,1.79,0,0,0,20.1,44a1.81,1.81,0,0,0,1.33-.48,2,2,0,0,0,.48-1.45V37.39h1V42a3.05,3.05,0,0,1-.37,1.54,2.38,2.38,0,0,1-1,.94,3.46,3.46,0,0,1-2.82,0,2.3,2.3,0,0,1-1-.94A3.05,3.05,0,0,1,17.33,42V37.39Zm2.84-1.59L18.88,37v-.72L21.13,35Z"/><path class="cls-2" d="M25.43,36.94v7.81h-1V36.94Z"/><path class="cls-2" d="M28.24,39.76v3.41a.79.79,0,0,0,.18.59.87.87,0,0,0,.62.18h.71v.81h-.87a1.71,1.71,0,0,1-1.2-.37,1.58,1.58,0,0,1-.4-1.21V39.76h-.75V39h.75V37.51h1V39h1.51v.8Z"/><path class="cls-2" d="M30.94,37.84a.64.64,0,0,1-.19-.47.6.6,0,0,1,.19-.46.63.63,0,0,1,.47-.19.58.58,0,0,1,.44.19.6.6,0,0,1,.19.46.64.64,0,0,1-.19.47.6.6,0,0,1-.44.18A.66.66,0,0,1,30.94,37.84ZM31.87,39v5.79h-1V39Z"/><path class="cls-2" d="M41.66,39.14a2,2,0,0,1,.84.84,2.82,2.82,0,0,1,.31,1.36v3.41h-1V41.48a1.91,1.91,0,0,0-.42-1.33,1.7,1.7,0,0,0-2.35,0,2,2,0,0,0-.44,1.39v3.19h-1V41.48a1.91,1.91,0,0,0-.43-1.33,1.7,1.7,0,0,0-2.35,0,2,2,0,0,0-.44,1.39v3.19h-1V39h1v.84a1.9,1.9,0,0,1,.76-.7,2.36,2.36,0,0,1,1.06-.24,2.48,2.48,0,0,1,1.29.33,1.92,1.92,0,0,1,.83,1,1.89,1.89,0,0,1,.81-.95,2.29,2.29,0,0,1,1.24-.34A2.47,2.47,0,0,1,41.66,39.14Z"/><path class="cls-2" d="M44.38,40.28a2.59,2.59,0,0,1,1-1,2.69,2.69,0,0,1,1.4-.37,2.54,2.54,0,0,1,1.32.33,2.14,2.14,0,0,1,.84.82V39h1v5.79h-1V43.67a2.28,2.28,0,0,1-.85.84,2.59,2.59,0,0,1-1.32.33,2.55,2.55,0,0,1-1.39-.38,2.64,2.64,0,0,1-1-1.06A3.32,3.32,0,0,1,44,41.84,3.21,3.21,0,0,1,44.38,40.28Zm4.27.43a1.78,1.78,0,0,0-.71-.75,2,2,0,0,0-1-.26A1.94,1.94,0,0,0,46,40a1.88,1.88,0,0,0-.71.74A2.4,2.4,0,0,0,45,41.84,2.47,2.47,0,0,0,45.26,43a1.91,1.91,0,0,0,.71.75A1.94,1.94,0,0,0,47,44a2,2,0,0,0,1-.26,1.78,1.78,0,0,0,.71-.75,2.34,2.34,0,0,0,.27-1.14A2.29,2.29,0,0,0,48.65,40.71Z"/><path class="cls-2" d="M52.37,44.62a2.09,2.09,0,0,1-.84-.64,1.69,1.69,0,0,1-.33-.93h1a1,1,0,0,0,.4.71,1.6,1.6,0,0,0,1,.27,1.43,1.43,0,0,0,.87-.24.74.74,0,0,0,.31-.61.6.6,0,0,0-.34-.57,4.83,4.83,0,0,0-1-.36,8,8,0,0,1-1.05-.35,1.83,1.83,0,0,1-.7-.51,1.38,1.38,0,0,1-.29-.91,1.36,1.36,0,0,1,.27-.81,1.72,1.72,0,0,1,.75-.58,2.57,2.57,0,0,1,1.1-.22,2.42,2.42,0,0,1,1.56.48,1.78,1.78,0,0,1,.63,1.33h-1a1,1,0,0,0-.37-.72,1.3,1.3,0,0,0-.89-.28,1.42,1.42,0,0,0-.82.22.69.69,0,0,0-.31.58.61.61,0,0,0,.19.47,1.23,1.23,0,0,0,.46.3c.19.07.45.16.78.25a8,8,0,0,1,1,.33,1.79,1.79,0,0,1,.67.49,1.31,1.31,0,0,1,.29.86,1.5,1.5,0,0,1-.26.85,1.89,1.89,0,0,1-.75.6,2.7,2.7,0,0,1-1.1.21A3,3,0,0,1,52.37,44.62Z"/><path class="cls-2" d="M59.84,40.28a2.55,2.55,0,0,1,1-1,2.66,2.66,0,0,1,1.4-.37,2.59,2.59,0,0,1,1.32.33,2.11,2.11,0,0,1,.83.82V39h1v5.79h-1V43.67a2.21,2.21,0,0,1-.85.84,2.55,2.55,0,0,1-1.31.33,2.58,2.58,0,0,1-1.4-.38,2.71,2.71,0,0,1-1-1.06,3.32,3.32,0,0,1-.36-1.56A3.21,3.21,0,0,1,59.84,40.28Zm4.28.43A1.86,1.86,0,0,0,63.4,40a1.94,1.94,0,0,0-1-.26,1.91,1.91,0,0,0-1,.26,1.75,1.75,0,0,0-.71.74,2.29,2.29,0,0,0-.27,1.14A2.35,2.35,0,0,0,60.73,43a1.78,1.78,0,0,0,.71.75,1.91,1.91,0,0,0,1,.26,1.94,1.94,0,0,0,1-.26,1.86,1.86,0,0,0,.72-.75,2.46,2.46,0,0,0,.26-1.14A2.4,2.4,0,0,0,64.12,40.71Z"/><path class="cls-2" d="M67,40.28a2.55,2.55,0,0,1,1-1,2.87,2.87,0,0,1,1.47-.37,2.8,2.8,0,0,1,1.75.52,2.44,2.44,0,0,1,.92,1.43h-1A1.49,1.49,0,0,0,70.5,40a1.75,1.75,0,0,0-1.06-.31,1.68,1.68,0,0,0-1.33.57,2.29,2.29,0,0,0-.51,1.6,2.34,2.34,0,0,0,.51,1.61,1.68,1.68,0,0,0,1.33.57,1.76,1.76,0,0,0,1-.3,1.43,1.43,0,0,0,.58-.84h1a2.58,2.58,0,0,1-.93,1.42,2.77,2.77,0,0,1-1.74.53A2.87,2.87,0,0,1,68,44.47a2.55,2.55,0,0,1-1-1,3.32,3.32,0,0,1-.36-1.58A3.25,3.25,0,0,1,67,40.28Z"/><path class="cls-2" d="M74.55,39.76v3.41a.79.79,0,0,0,.18.59.88.88,0,0,0,.63.18h.7v.81H75.2a1.68,1.68,0,0,1-1.2-.37,1.58,1.58,0,0,1-.41-1.21V39.76h-.75V39h.75V37.51h1V39h1.51v.8Z"/><path class="cls-2" d="M82.35,39v5.79h-1v-.86a1.76,1.76,0,0,1-.76.69,2.32,2.32,0,0,1-1.08.25,2.58,2.58,0,0,1-1.22-.28,2,2,0,0,1-.85-.84,2.82,2.82,0,0,1-.31-1.36V39h1v3.27a1.88,1.88,0,0,0,.43,1.31,1.77,1.77,0,0,0,2.4,0,1.91,1.91,0,0,0,.44-1.38V39Z"/><path class="cls-2" d="M84,40.28a2.55,2.55,0,0,1,1-1,2.66,2.66,0,0,1,1.4-.37,2.59,2.59,0,0,1,1.32.33,2.11,2.11,0,0,1,.83.82V39h1v5.79h-1V43.67a2.21,2.21,0,0,1-.85.84,2.77,2.77,0,0,1-2.71,0,2.71,2.71,0,0,1-1-1.06,3.32,3.32,0,0,1-.36-1.56A3.21,3.21,0,0,1,84,40.28Zm4.27.43a1.78,1.78,0,0,0-.71-.75,2,2,0,0,0-2,0,1.79,1.79,0,0,0-.7.74,2.29,2.29,0,0,0-.27,1.14A2.35,2.35,0,0,0,84.87,43a1.82,1.82,0,0,0,.7.75,2,2,0,0,0,2,0,1.78,1.78,0,0,0,.71-.75,2.34,2.34,0,0,0,.27-1.14A2.29,2.29,0,0,0,88.25,40.71Z"/><path class="cls-2" d="M92.08,36.94v7.81h-1V36.94Z"/><path class="cls-2" d="M93.74,37.84a.68.68,0,0,1-.19-.47.64.64,0,0,1,.19-.46.63.63,0,0,1,.47-.19.61.61,0,0,1,.45.19.63.63,0,0,1,.18.46.67.67,0,0,1-.18.47.64.64,0,0,1-.45.18A.66.66,0,0,1,93.74,37.84ZM94.67,39v5.79h-1V39Z"/><path class="cls-2" d="M97,44h2.83v.79H95.93V44l2.81-4.21H96V39h3.89v.79Z"/><path class="cls-2" d="M101.11,40.28a2.55,2.55,0,0,1,1-1,2.66,2.66,0,0,1,1.4-.37,2.52,2.52,0,0,1,1.31.33,2.08,2.08,0,0,1,.84.82V39h1v5.79h-1V43.67a2.21,2.21,0,0,1-.85.84,2.77,2.77,0,0,1-2.71,0,2.71,2.71,0,0,1-1-1.06,3.32,3.32,0,0,1-.36-1.56A3.21,3.21,0,0,1,101.11,40.28Zm4.27.43a1.78,1.78,0,0,0-.71-.75,2,2,0,0,0-2,0,1.79,1.79,0,0,0-.7.74,2.29,2.29,0,0,0-.27,1.14A2.35,2.35,0,0,0,102,43a1.82,1.82,0,0,0,.7.75,2,2,0,0,0,2,0,1.78,1.78,0,0,0,.71-.75,2.34,2.34,0,0,0,.27-1.14A2.29,2.29,0,0,0,105.38,40.71Z"/><path class="cls-2" d="M108.25,40.28a2.49,2.49,0,0,1,1-1,2.86,2.86,0,0,1,1.46-.37,2.81,2.81,0,0,1,1.76.52,2.38,2.38,0,0,1,.91,1.43h-1a1.49,1.49,0,0,0-.57-.83,1.76,1.76,0,0,0-1.07-.31,1.71,1.71,0,0,0-1.33.57,2.34,2.34,0,0,0-.5,1.6,2.39,2.39,0,0,0,.5,1.61,1.71,1.71,0,0,0,1.33.57,1.77,1.77,0,0,0,1.06-.3,1.43,1.43,0,0,0,.58-.84h1a2.52,2.52,0,0,1-.92,1.42,2.78,2.78,0,0,1-1.75.53,2.86,2.86,0,0,1-1.46-.37,2.49,2.49,0,0,1-1-1,3.32,3.32,0,0,1-.36-1.58A3.25,3.25,0,0,1,108.25,40.28Z"/><path class="cls-2" d="M114.68,37.84a.68.68,0,0,1-.19-.47.65.65,0,0,1,.66-.65.61.61,0,0,1,.45.19.63.63,0,0,1,.18.46.67.67,0,0,1-.18.47.64.64,0,0,1-.45.18A.67.67,0,0,1,114.68,37.84Zm.93,1.12v5.79h-1V39Z"/><path class="cls-2" d="M118.3,44.47a2.57,2.57,0,0,1-1-1,3.47,3.47,0,0,1,0-3.14,2.72,2.72,0,0,1,1-1.05,3.26,3.26,0,0,1,3,0,2.76,2.76,0,0,1,1,1,3.34,3.34,0,0,1,0,3.15,2.64,2.64,0,0,1-1.07,1,3,3,0,0,1-1.5.37A2.92,2.92,0,0,1,118.3,44.47Zm2.44-.71a2,2,0,0,0,.74-.73,2.65,2.65,0,0,0,0-2.37,1.78,1.78,0,0,0-.72-.72,2,2,0,0,0-1.92,0,1.76,1.76,0,0,0-.71.72,2.55,2.55,0,0,0-.26,1.19,2.52,2.52,0,0,0,.26,1.19,1.72,1.72,0,0,0,.69.72,1.94,1.94,0,0,0,1,.24A2,2,0,0,0,120.74,43.76Z"/><path class="cls-2" d="M128.53,39.5a2.44,2.44,0,0,1,.66,1.84v3.41h-.95V41.48a1.87,1.87,0,0,0-.44-1.33,1.75,1.75,0,0,0-2.39,0,1.91,1.91,0,0,0-.45,1.38v3.2h-1V39h1v.83a1.87,1.87,0,0,1,.78-.69,2.44,2.44,0,0,1,1.08-.24A2.31,2.31,0,0,1,128.53,39.5Z"/><path class="cls-2" d="M136,42.22h-4.62a1.86,1.86,0,0,0,.59,1.33,1.84,1.84,0,0,0,1.29.48,1.8,1.8,0,0,0,1-.29,1.54,1.54,0,0,0,.59-.78h1a2.44,2.44,0,0,1-.93,1.36,2.78,2.78,0,0,1-1.73.52,2.87,2.87,0,0,1-1.47-.37,2.58,2.58,0,0,1-1-1,3.2,3.2,0,0,1-.37-1.57,3.32,3.32,0,0,1,.36-1.58,2.53,2.53,0,0,1,1-1,3,3,0,0,1,1.49-.36,2.93,2.93,0,0,1,1.46.36,2.5,2.5,0,0,1,1,1,2.87,2.87,0,0,1,.35,1.42A4,4,0,0,1,136,42.22Zm-1.2-1.73a1.53,1.53,0,0,0-.66-.6,2,2,0,0,0-.92-.21,1.77,1.77,0,0,0-1.24.47,1.9,1.9,0,0,0-.59,1.28H135A1.78,1.78,0,0,0,134.8,40.49Z"/><path class="cls-2" d="M138.16,44.62a2.09,2.09,0,0,1-.84-.64,1.69,1.69,0,0,1-.33-.93h1a1,1,0,0,0,.4.71,1.6,1.6,0,0,0,1,.27,1.43,1.43,0,0,0,.87-.24.74.74,0,0,0,.31-.61.6.6,0,0,0-.34-.57,4.83,4.83,0,0,0-1-.36,8,8,0,0,1-1-.35,1.83,1.83,0,0,1-.7-.51,1.38,1.38,0,0,1-.29-.91,1.36,1.36,0,0,1,.27-.81,1.72,1.72,0,0,1,.75-.58,2.57,2.57,0,0,1,1.1-.22,2.42,2.42,0,0,1,1.56.48,1.78,1.78,0,0,1,.63,1.33h-1a1,1,0,0,0-.37-.72,1.3,1.3,0,0,0-.89-.28,1.42,1.42,0,0,0-.82.22.69.69,0,0,0-.31.58.61.61,0,0,0,.19.47,1.23,1.23,0,0,0,.46.3c.19.07.45.16.78.25a8,8,0,0,1,1,.33,1.79,1.79,0,0,1,.67.49,1.31,1.31,0,0,1,.29.86,1.5,1.5,0,0,1-.26.85,1.89,1.89,0,0,1-.75.6,2.7,2.7,0,0,1-1.1.21A3,3,0,0,1,138.16,44.62Z"/><path class="cls-2" d="M150.61,39l-3.48,8.51h-1l1.14-2.79L144.94,39H146l1.82,4.69L149.62,39Z"/><path class="cls-2" d="M16.13,51.8a2,2,0,0,1,.83.84,2.89,2.89,0,0,1,.3,1.37v3.4h-1V54.14a1.84,1.84,0,0,0-.43-1.32,1.53,1.53,0,0,0-1.18-.46,1.6,1.6,0,0,0-1.21.47A2,2,0,0,0,13,54.22v3.19h-1V49.6h1v2.85a1.88,1.88,0,0,1,.79-.68,2.63,2.63,0,0,1,2.3,0Z"/><path class="cls-2" d="M24.08,54.88H19.46a1.81,1.81,0,0,0,1.88,1.82,1.82,1.82,0,0,0,1-.29,1.61,1.61,0,0,0,.58-.78h1A2.54,2.54,0,0,1,23.07,57a2.8,2.8,0,0,1-1.73.52,2.93,2.93,0,0,1-1.48-.37,2.62,2.62,0,0,1-1-1,3.21,3.21,0,0,1-.37-1.58,3.28,3.28,0,0,1,.36-1.57,2.45,2.45,0,0,1,1-1,3.05,3.05,0,0,1,1.5-.36,2.86,2.86,0,0,1,1.45.35,2.46,2.46,0,0,1,1,1,2.9,2.9,0,0,1,.34,1.42C24.11,54.48,24.1,54.68,24.08,54.88Zm-1.2-1.72a1.55,1.55,0,0,0-.66-.61,2.18,2.18,0,0,0-.93-.2,1.8,1.8,0,0,0-1.24.46,1.9,1.9,0,0,0-.58,1.29h3.65A1.75,1.75,0,0,0,22.88,53.16Z"/><path class="cls-2" d="M27.06,51.8a2.3,2.3,0,0,1,1.15-.28v1H28c-1.08,0-1.62.58-1.62,1.75v3.14h-1V51.63h1v.94A1.85,1.85,0,0,1,27.06,51.8Z"/><path class="cls-2" d="M31,51.8a2.25,2.25,0,0,1,1.15-.28v1h-.26c-1.07,0-1.61.58-1.61,1.75v3.14h-1V51.63h1v.94A1.85,1.85,0,0,1,31,51.8Z"/><path class="cls-2" d="M33.25,52.94a2.68,2.68,0,0,1,1-1,2.78,2.78,0,0,1,1.4-.36,2.53,2.53,0,0,1,1.32.32,2.13,2.13,0,0,1,.83.83V51.63h1v5.78h-1V56.34a2.21,2.21,0,0,1-.85.84,2.52,2.52,0,0,1-1.31.33,2.63,2.63,0,0,1-2.38-1.45,3.56,3.56,0,0,1,0-3.12Zm4.28.43a2,2,0,0,0-.71-.74,2,2,0,0,0-1-.26,1.91,1.91,0,0,0-1,.25,1.88,1.88,0,0,0-.71.74,2.29,2.29,0,0,0-.26,1.14,2.39,2.39,0,0,0,.26,1.16,2,2,0,0,0,.71.75,1.91,1.91,0,0,0,1,.26,2,2,0,0,0,1-.26,2.05,2.05,0,0,0,.71-.75,2.65,2.65,0,0,0,0-2.29Z"/><path class="cls-2" d="M48.55,51.8a2,2,0,0,1,.83.84A2.77,2.77,0,0,1,49.69,54v3.4h-.95V54.14a1.84,1.84,0,0,0-.43-1.32,1.49,1.49,0,0,0-1.16-.46,1.54,1.54,0,0,0-1.19.48,2,2,0,0,0-.44,1.39v3.18h-1V54.14a1.84,1.84,0,0,0-.43-1.32A1.48,1.48,0,0,0,43,52.36a1.57,1.57,0,0,0-1.2.48,2,2,0,0,0-.44,1.39v3.18h-1V51.63h1v.83a1.87,1.87,0,0,1,.76-.69,2.37,2.37,0,0,1,1.07-.25,2.46,2.46,0,0,1,1.28.33,2,2,0,0,1,.84,1,1.91,1.91,0,0,1,.8-1,2.41,2.41,0,0,1,1.24-.34A2.63,2.63,0,0,1,48.55,51.8Z"/><path class="cls-2" d="M51.29,50.5a.65.65,0,1,1,1.1-.46.65.65,0,0,1-.18.46.61.61,0,0,1-.45.19A.63.63,0,0,1,51.29,50.5Zm.93,1.13v5.78h-1V51.63Z"/><path class="cls-2" d="M58.38,52.16A2.46,2.46,0,0,1,59,54v3.4h-.95V54.14a1.89,1.89,0,0,0-.43-1.32,1.55,1.55,0,0,0-1.19-.46,1.58,1.58,0,0,0-1.2.47,2,2,0,0,0-.45,1.39v3.19h-1V51.63h1v.82a2,2,0,0,1,.77-.68,2.45,2.45,0,0,1,1.08-.25A2.35,2.35,0,0,1,58.38,52.16Z"/><path class="cls-2" d="M65.86,54.88H61.23a1.93,1.93,0,0,0,.59,1.34,1.88,1.88,0,0,0,1.29.48,1.8,1.8,0,0,0,1-.29,1.57,1.57,0,0,0,.59-.78h1A2.44,2.44,0,0,1,64.84,57a2.78,2.78,0,0,1-1.73.52,2.87,2.87,0,0,1-1.47-.37,2.71,2.71,0,0,1-1-1,3.32,3.32,0,0,1-.37-1.58,3.28,3.28,0,0,1,.36-1.57,2.53,2.53,0,0,1,1-1,3,3,0,0,1,1.49-.36,2.9,2.9,0,0,1,1.46.35,2.52,2.52,0,0,1,1,1,3,3,0,0,1,.34,1.42C65.89,54.48,65.88,54.68,65.86,54.88Zm-1.21-1.72a1.59,1.59,0,0,0-.65-.61,2.18,2.18,0,0,0-.93-.2,1.78,1.78,0,0,0-1.24.46,1.86,1.86,0,0,0-.58,1.29H64.9A1.67,1.67,0,0,0,64.65,53.16Z"/><path class="cls-2" d="M68.33,52.42v3.41a.83.83,0,0,0,.18.6.9.9,0,0,0,.62.17h.71v.81H69a1.76,1.76,0,0,1-1.2-.36,1.6,1.6,0,0,1-.4-1.22V52.42h-.75v-.79h.75V50.17h1v1.46h1.51v.79Z"/><path class="cls-2" d="M71,52.94a2.73,2.73,0,0,1,1-1,2.78,2.78,0,0,1,1.4-.36,2.53,2.53,0,0,1,1.32.32,2.16,2.16,0,0,1,.84.83V51.63h1v5.78h-1V56.34a2.28,2.28,0,0,1-.85.84,2.59,2.59,0,0,1-1.32.33A2.64,2.64,0,0,1,72,57.13a2.61,2.61,0,0,1-1-1.07,3.56,3.56,0,0,1,0-3.12Zm4.27.43a1.81,1.81,0,0,0-.71-.74,2,2,0,0,0-1-.26,1.85,1.85,0,0,0-1.69,1,2.4,2.4,0,0,0-.26,1.14,2.51,2.51,0,0,0,.26,1.16,2.05,2.05,0,0,0,.71.75,1.94,1.94,0,0,0,1,.26,2,2,0,0,0,1-.26,1.9,1.9,0,0,0,.71-.75,2.56,2.56,0,0,0,0-2.29Z"/><path class="cls-2" d="M79,57.28a2.07,2.07,0,0,1-.84-.63,1.69,1.69,0,0,1-.33-.93h1a1,1,0,0,0,.4.7,1.61,1.61,0,0,0,1,.28,1.36,1.36,0,0,0,.87-.25.73.73,0,0,0,.31-.61.59.59,0,0,0-.34-.56,4.27,4.27,0,0,0-1-.37,6.85,6.85,0,0,1-1-.34,2,2,0,0,1-.7-.52,1.37,1.37,0,0,1-.29-.9,1.32,1.32,0,0,1,.27-.81,1.74,1.74,0,0,1,.75-.59,2.73,2.73,0,0,1,1.1-.21,2.42,2.42,0,0,1,1.56.48,1.77,1.77,0,0,1,.63,1.33h-1a1,1,0,0,0-.37-.73,1.62,1.62,0,0,0-1.71,0,.7.7,0,0,0-.31.58.61.61,0,0,0,.19.47,1.53,1.53,0,0,0,.46.3q.28.11.78.24a9.77,9.77,0,0,1,1,.34A1.69,1.69,0,0,1,82,55a1.3,1.3,0,0,1,.29.85,1.53,1.53,0,0,1-.26.86,1.78,1.78,0,0,1-.75.59,2.54,2.54,0,0,1-1.1.22A3,3,0,0,1,79,57.28Z"/><path class="cls-2" d="M86.46,52.94a2.68,2.68,0,0,1,1-1,2.79,2.79,0,0,1,1.41-.36,2.55,2.55,0,0,1,1.25.31,2.19,2.19,0,0,1,.89.81V49.6h1v7.81H91V56.33a2.28,2.28,0,0,1-.84.85,2.55,2.55,0,0,1-1.31.33,2.67,2.67,0,0,1-1.4-.38,2.63,2.63,0,0,1-1-1.07,3.56,3.56,0,0,1,0-3.12Zm4.28.43a1.9,1.9,0,0,0-.72-.74,1.94,1.94,0,0,0-1-.26,1.91,1.91,0,0,0-1,.25,1.81,1.81,0,0,0-.71.74,2.29,2.29,0,0,0-.27,1.14,2.39,2.39,0,0,0,.27,1.16,1.87,1.87,0,0,0,1.69,1,1.94,1.94,0,0,0,1-.26,2,2,0,0,0,.72-.75,2.65,2.65,0,0,0,0-2.29Z"/><path class="cls-2" d="M98.84,54.88H94.22A1.82,1.82,0,0,0,96.1,56.7a1.82,1.82,0,0,0,1-.29,1.55,1.55,0,0,0,.58-.78h1A2.54,2.54,0,0,1,97.83,57a2.8,2.8,0,0,1-1.73.52,2.87,2.87,0,0,1-1.47-.37,2.58,2.58,0,0,1-1-1,3.21,3.21,0,0,1-.37-1.58,3.28,3.28,0,0,1,.36-1.57,2.51,2.51,0,0,1,1-1,3.08,3.08,0,0,1,1.5-.36,2.86,2.86,0,0,1,1.45.35,2.46,2.46,0,0,1,1,1,2.9,2.9,0,0,1,.34,1.42C98.87,54.48,98.86,54.68,98.84,54.88Zm-1.2-1.72a1.55,1.55,0,0,0-.66-.61,2.17,2.17,0,0,0-.92-.2,1.76,1.76,0,0,0-1.24.46,1.87,1.87,0,0,0-.59,1.29h3.65A1.75,1.75,0,0,0,97.64,53.16Z"/><path class="cls-2" d="M103.81,57.28a2,2,0,0,1-.83-.63,1.7,1.7,0,0,1-.34-.93h1a1,1,0,0,0,.41.7,1.56,1.56,0,0,0,1,.28,1.33,1.33,0,0,0,.86-.25.74.74,0,0,0,.32-.61.59.59,0,0,0-.34-.56,4.43,4.43,0,0,0-1-.37,6.85,6.85,0,0,1-1-.34,1.81,1.81,0,0,1-.7-.52,1.32,1.32,0,0,1-.29-.9,1.37,1.37,0,0,1,.26-.81,1.87,1.87,0,0,1,.75-.59,2.78,2.78,0,0,1,1.11-.21,2.37,2.37,0,0,1,1.55.48,1.7,1.7,0,0,1,.63,1.33h-1a1,1,0,0,0-.36-.73,1.64,1.64,0,0,0-1.72,0,.69.69,0,0,0-.3.58.64.64,0,0,0,.18.47,1.58,1.58,0,0,0,.47.3c.18.07.44.15.77.24a9.27,9.27,0,0,1,1,.34,1.69,1.69,0,0,1,.67.49,1.36,1.36,0,0,1,.29.85,1.46,1.46,0,0,1-.27.86,1.69,1.69,0,0,1-.74.59,2.57,2.57,0,0,1-1.1.22A3.06,3.06,0,0,1,103.81,57.28Z"/><path class="cls-2" d="M113.71,54.88h-4.62a1.88,1.88,0,0,0,.59,1.34,1.84,1.84,0,0,0,1.29.48,1.8,1.8,0,0,0,1-.29,1.63,1.63,0,0,0,.59-.78h1A2.44,2.44,0,0,1,112.7,57a2.78,2.78,0,0,1-1.73.52,2.87,2.87,0,0,1-1.47-.37,2.64,2.64,0,0,1-1-1,3.21,3.21,0,0,1-.37-1.58,3.28,3.28,0,0,1,.36-1.57,2.47,2.47,0,0,1,1-1,3,3,0,0,1,1.49-.36,2.92,2.92,0,0,1,1.46.35,2.5,2.5,0,0,1,1,1,2.9,2.9,0,0,1,.35,1.42A4,4,0,0,1,113.71,54.88Zm-1.2-1.72a1.55,1.55,0,0,0-.66-.61,2.14,2.14,0,0,0-.92-.2,1.76,1.76,0,0,0-1.24.46,1.91,1.91,0,0,0-.59,1.29h3.65A1.75,1.75,0,0,0,112.51,53.16Z"/><path class="cls-2" d="M118.71,51.86a2.1,2.1,0,0,1,.84.83V51.63h1v5.91a2.83,2.83,0,0,1-.34,1.41,2.42,2.42,0,0,1-1,1,3,3,0,0,1-1.46.34,3.18,3.18,0,0,1-1.9-.53,2.1,2.1,0,0,1-.9-1.47h1a1.55,1.55,0,0,0,.65.85,2.19,2.19,0,0,0,1.2.32,1.76,1.76,0,0,0,1.29-.5,1.88,1.88,0,0,0,.5-1.39V56.33a2.26,2.26,0,0,1-.84.84,2.46,2.46,0,0,1-1.31.34,2.67,2.67,0,0,1-1.4-.38,2.63,2.63,0,0,1-1-1.07,3.56,3.56,0,0,1,0-3.12,2.68,2.68,0,0,1,1-1,2.75,2.75,0,0,1,1.4-.36A2.52,2.52,0,0,1,118.71,51.86Zm.58,1.51a2,2,0,0,0-2.68-.75,1.81,1.81,0,0,0-.71.74,2.29,2.29,0,0,0-.26,1.14,2.39,2.39,0,0,0,.26,1.16,1.94,1.94,0,0,0,2.67.75,2,2,0,0,0,.72-.75,2.65,2.65,0,0,0,0-2.29Z"/><path class="cls-2" d="M127.28,51.63v5.78h-1v-.85a1.91,1.91,0,0,1-.77.69,2.32,2.32,0,0,1-1.08.25,2.51,2.51,0,0,1-1.21-.28,2,2,0,0,1-.85-.84,2.74,2.74,0,0,1-.32-1.36V51.63h1v3.26a1.86,1.86,0,0,0,.44,1.32,1.75,1.75,0,0,0,2.39,0,1.94,1.94,0,0,0,.45-1.38V51.63Z"/><path class="cls-2" d="M130.59,51.8a2.24,2.24,0,0,1,1.14-.28v1h-.25c-1.08,0-1.62.58-1.62,1.75v3.14h-1V51.63h1v.94A1.81,1.81,0,0,1,130.59,51.8Z"/><path class="cls-2" d="M132.87,50.5a.66.66,0,0,1,.47-1.12.61.61,0,0,1,.44.19A.63.63,0,0,1,134,50a.62.62,0,0,1-.19.46.58.58,0,0,1-.44.19A.63.63,0,0,1,132.87,50.5Zm.93,1.13v5.78h-1V51.63Z"/><path class="cls-2" d="M135.44,52.94a2.65,2.65,0,0,1,1-1,2.79,2.79,0,0,1,1.41-.36,2.61,2.61,0,0,1,1.26.31,2.26,2.26,0,0,1,.89.81V49.6h1v7.81h-1V56.33a2.31,2.31,0,0,1-.85.85,2.52,2.52,0,0,1-1.31.33,2.7,2.7,0,0,1-1.4-.38,2.61,2.61,0,0,1-1-1.07,3.56,3.56,0,0,1,0-3.12Zm4.27.43a1.81,1.81,0,0,0-.71-.74,2,2,0,0,0-1-.26,1.93,1.93,0,0,0-1,.25,1.88,1.88,0,0,0-.71.74,2.4,2.4,0,0,0-.26,1.14,2.51,2.51,0,0,0,.26,1.16,2,2,0,0,0,.71.75,1.94,1.94,0,0,0,1,.26,2,2,0,0,0,1-.26,1.9,1.9,0,0,0,.71-.75,2.56,2.56,0,0,0,0-2.29Z"/><path class="cls-2" d="M142.57,52.94a2.68,2.68,0,0,1,1-1,2.75,2.75,0,0,1,1.4-.36,2.58,2.58,0,0,1,1.32.32,2.13,2.13,0,0,1,.83.83V51.63h1v5.78h-1V56.34a2.21,2.21,0,0,1-.85.84,2.55,2.55,0,0,1-1.31.33,2.61,2.61,0,0,1-2.38-1.45,3.56,3.56,0,0,1,0-3.12Zm4.28.43a1.9,1.9,0,0,0-.72-.74,1.94,1.94,0,0,0-1-.26,1.91,1.91,0,0,0-1,.25,1.81,1.81,0,0,0-.71.74,2.29,2.29,0,0,0-.27,1.14,2.39,2.39,0,0,0,.27,1.16,1.87,1.87,0,0,0,1.69,1,1.94,1.94,0,0,0,1-.26,2,2,0,0,0,.72-.75,2.65,2.65,0,0,0,0-2.29Z"/><path class="cls-2" d="M149.71,52.94a2.65,2.65,0,0,1,1-1,2.79,2.79,0,0,1,1.41-.36,2.61,2.61,0,0,1,1.26.31,2.26,2.26,0,0,1,.89.81V49.6h1v7.81h-1V56.33a2.31,2.31,0,0,1-.85.85,2.52,2.52,0,0,1-1.31.33,2.7,2.7,0,0,1-1.4-.38,2.61,2.61,0,0,1-1-1.07,3.56,3.56,0,0,1,0-3.12Zm4.27.43a1.81,1.81,0,0,0-.71-.74,2,2,0,0,0-1-.26,1.93,1.93,0,0,0-1,.25,1.88,1.88,0,0,0-.71.74,2.4,2.4,0,0,0-.26,1.14,2.51,2.51,0,0,0,.26,1.16,2,2,0,0,0,.71.75,1.94,1.94,0,0,0,1,.26,2,2,0,0,0,1-.26,1.9,1.9,0,0,0,.71-.75,2.56,2.56,0,0,0,0-2.29Z"/><path class="cls-3" d="M94.36,14.75a1,1,0,0,1-.29,1.1l-1.93,1.76a8,8,0,0,1,0,2.26l1.93,1.76a1,1,0,0,1,.29,1.1,11.82,11.82,0,0,1-.71,1.53l-.21.36a11.33,11.33,0,0,1-1,1.4,1,1,0,0,1-1.1.3l-2.48-.79a10,10,0,0,1-2,1.14l-.55,2.54a1.07,1.07,0,0,1-.82.8,11.3,11.3,0,0,1-3.79,0,1.07,1.07,0,0,1-.81-.8l-.56-2.54a8.89,8.89,0,0,1-2-1.14l-2.49.79a1,1,0,0,1-1.09-.3,12.6,12.6,0,0,1-1-1.4l-.21-.36a11.77,11.77,0,0,1-.7-1.53,1,1,0,0,1,.28-1.1l1.93-1.76a9.16,9.16,0,0,1,0-2.26l-1.93-1.76a1,1,0,0,1-.28-1.1,11.19,11.19,0,0,1,.7-1.53l.21-.36a12.6,12.6,0,0,1,1-1.4,1,1,0,0,1,1.09-.3l2.49.79a8.89,8.89,0,0,1,2-1.14l.56-2.54a1,1,0,0,1,.81-.8,11.88,11.88,0,0,1,1.9-.16,11.76,11.76,0,0,1,1.89.16,1,1,0,0,1,.82.8l.55,2.54a10,10,0,0,1,2,1.14l2.48-.79a1,1,0,0,1,1.1.3,11.33,11.33,0,0,1,1,1.4l.21.36a11.23,11.23,0,0,1,.71,1.53ZM83.65,22.31a3.59,3.59,0,1,0-3.57-3.61A3.58,3.58,0,0,0,83.65,22.31Z"/></svg>