<svg id="Layer_1" data-name="Layer 1" xmlns="http://www.w3.org/2000/svg" viewBox="0 0 167.29 56.12"><defs><style>.cls-1{fill:#fff;}.cls-2{fill:#093f70;}.cls-3{fill:#1073dd;}</style></defs><rect class="cls-1" width="167.29" height="56.12" rx="3.33"/><path class="cls-2" d="M40.39,46.49h-3.2l-.6,1.63h-1l2.66-7.31h1.11L42,48.12H41Zm-.27-.78L38.79,42l-1.33,3.72Z"/><path class="cls-2" d="M43.16,43.65a2.63,2.63,0,0,1,1-1,3.22,3.22,0,0,1,3.22.15,2.46,2.46,0,0,1,.91,1.44h-1a1.5,1.5,0,0,0-.57-.84,1.81,1.81,0,0,0-1.06-.3,1.72,1.72,0,0,0-1.33.56,2.31,2.31,0,0,0-.51,1.6,2.35,2.35,0,0,0,.51,1.62,1.7,1.7,0,0,0,1.33.57,1.76,1.76,0,0,0,1.05-.3,1.45,1.45,0,0,0,.58-.84h1a2.62,2.62,0,0,1-.93,1.42,3.1,3.1,0,0,1-3.2.16,2.6,2.6,0,0,1-1-1.05,3.63,3.63,0,0,1,0-3.15Z"/><path class="cls-2" d="M49.57,43.65a2.68,2.68,0,0,1,1-1A3,3,0,0,1,52,42.25a2.86,2.86,0,0,1,1.75.51,2.47,2.47,0,0,1,.92,1.44h-1a1.55,1.55,0,0,0-.57-.84,1.81,1.81,0,0,0-1.06-.3,1.71,1.71,0,0,0-1.33.56,2.31,2.31,0,0,0-.51,1.6,2.35,2.35,0,0,0,.51,1.62,1.68,1.68,0,0,0,1.33.57,1.76,1.76,0,0,0,1-.3,1.5,1.5,0,0,0,.58-.84h1a2.62,2.62,0,0,1-.93,1.42,2.83,2.83,0,0,1-1.74.53,2.87,2.87,0,0,1-1.47-.37,2.64,2.64,0,0,1-1-1.05,3.63,3.63,0,0,1,0-3.15Z"/><path class="cls-2" d="M61.22,45.59H56.6a1.81,1.81,0,0,0,1.87,1.82,1.77,1.77,0,0,0,1-.29,1.57,1.57,0,0,0,.59-.78h1a2.47,2.47,0,0,1-.92,1.36,3.14,3.14,0,0,1-3.21.15,2.71,2.71,0,0,1-1-1.05,3.32,3.32,0,0,1-.37-1.58A3.28,3.28,0,0,1,56,43.65a2.53,2.53,0,0,1,1-1,3,3,0,0,1,1.49-.36,2.9,2.9,0,0,1,1.46.35,2.52,2.52,0,0,1,1,1A2.9,2.9,0,0,1,61.25,45C61.25,45.19,61.24,45.39,61.22,45.59ZM60,43.87a1.68,1.68,0,0,0-.66-.61,2.18,2.18,0,0,0-.93-.2,1.78,1.78,0,0,0-1.24.46,1.9,1.9,0,0,0-.58,1.29h3.65A1.75,1.75,0,0,0,60,43.87Z"/><path class="cls-2" d="M63.37,48a2,2,0,0,1-.83-.63,1.63,1.63,0,0,1-.34-.94h1a1,1,0,0,0,.41.71,1.55,1.55,0,0,0,.95.28,1.35,1.35,0,0,0,.87-.25.74.74,0,0,0,.32-.61A.61.61,0,0,0,65.4,46a4.54,4.54,0,0,0-1.05-.37,6.85,6.85,0,0,1-1-.34,1.86,1.86,0,0,1-.69-.52,1.47,1.47,0,0,1,0-1.71,1.87,1.87,0,0,1,.75-.59,2.75,2.75,0,0,1,1.11-.21,2.37,2.37,0,0,1,1.55.48,1.77,1.77,0,0,1,.63,1.33h-1a1,1,0,0,0-.36-.73,1.64,1.64,0,0,0-1.72,0,.69.69,0,0,0-.3.58.64.64,0,0,0,.18.47,1.29,1.29,0,0,0,.47.29,5.83,5.83,0,0,0,.77.25c.42.12.75.23,1,.33a1.77,1.77,0,0,1,.68.5,1.34,1.34,0,0,1,.29.85,1.46,1.46,0,0,1-.27.86,1.69,1.69,0,0,1-.74.59,2.59,2.59,0,0,1-1.11.22A3,3,0,0,1,63.37,48Z"/><path class="cls-2" d="M69.08,47.85a2.69,2.69,0,0,1-1-1.05,3.49,3.49,0,0,1,0-3.15,2.69,2.69,0,0,1,1-1,3.26,3.26,0,0,1,3,0,2.69,2.69,0,0,1,1,1,3.07,3.07,0,0,1,.39,1.57,3.12,3.12,0,0,1-.4,1.58,2.77,2.77,0,0,1-1.07,1.05,3,3,0,0,1-1.5.37A2.92,2.92,0,0,1,69.08,47.85Zm2.44-.72a1.77,1.77,0,0,0,.73-.73,2.27,2.27,0,0,0,.28-1.18A2.39,2.39,0,0,0,72.26,44a1.72,1.72,0,0,0-.72-.72,2,2,0,0,0-1.92,0,1.7,1.7,0,0,0-.71.72,2.83,2.83,0,0,0,0,2.37,1.69,1.69,0,0,0,.69.73,1.91,1.91,0,0,0,1,.23A2,2,0,0,0,71.52,47.13Z"/><path class="cls-2" d="M77.6,43.65a2.68,2.68,0,0,1,1-1,2.75,2.75,0,0,1,1.4-.36,2.58,2.58,0,0,1,1.32.32,2.13,2.13,0,0,1,.83.83V42.34h1v5.78h-1V47.05a2.36,2.36,0,0,1-.85.84,2.58,2.58,0,0,1-1.31.33,2.61,2.61,0,0,1-2.38-1.45,3.56,3.56,0,0,1,0-3.12Zm4.28.43a1.9,1.9,0,0,0-.72-.74,1.87,1.87,0,0,0-1-.26,2,2,0,0,0-1,.25,1.85,1.85,0,0,0-.7.74,2.29,2.29,0,0,0-.27,1.14,2.39,2.39,0,0,0,.27,1.16,2,2,0,0,0,.7.75,2.07,2.07,0,0,0,2,0,2,2,0,0,0,.72-.75,2.65,2.65,0,0,0,0-2.29Z"/><path class="cls-2" d="M92.8,45.59H88.18a1.81,1.81,0,0,0,1.88,1.82,1.82,1.82,0,0,0,1-.29,1.61,1.61,0,0,0,.58-.78h1a2.54,2.54,0,0,1-.93,1.36,2.86,2.86,0,0,1-1.73.52,2.93,2.93,0,0,1-1.48-.37,2.71,2.71,0,0,1-1-1.05,3.32,3.32,0,0,1-.36-1.58,3.28,3.28,0,0,1,.35-1.57,2.53,2.53,0,0,1,1-1,3,3,0,0,1,1.5-.36,2.88,2.88,0,0,1,1.45.35,2.52,2.52,0,0,1,1,1A2.9,2.9,0,0,1,92.83,45C92.83,45.19,92.82,45.39,92.8,45.59Zm-1.2-1.72a1.68,1.68,0,0,0-.66-.61,2.18,2.18,0,0,0-.93-.2,1.78,1.78,0,0,0-1.24.46,1.9,1.9,0,0,0-.58,1.29h3.65A1.75,1.75,0,0,0,91.6,43.87Z"/><path class="cls-2" d="M97.12,48.12,95.74,46l-1.31,2.15h-1l1.87-2.87-1.87-2.91h1.09l1.37,2.14,1.31-2.14h1L96.34,45.2l1.86,2.92Z"/><path class="cls-2" d="M101,42.58a2.59,2.59,0,0,1,1.32-.33,2.78,2.78,0,0,1,1.4.36,2.73,2.73,0,0,1,1,1,3.56,3.56,0,0,1,0,3.12,2.61,2.61,0,0,1-2.38,1.45,2.58,2.58,0,0,1-1.31-.33,2.54,2.54,0,0,1-.86-.83v3.81h-1V42.34h1v1.07A2.34,2.34,0,0,1,101,42.58Zm2.82,1.49a1.88,1.88,0,0,0-1.7-1,1.9,1.9,0,0,0-1.7,1,2.28,2.28,0,0,0-.27,1.13,2.35,2.35,0,0,0,.27,1.15,2,2,0,0,0,.72.75,2,2,0,0,0,1,.25,1.91,1.91,0,0,0,1-.25,2,2,0,0,0,.72-.75,2.51,2.51,0,0,0,.26-1.16A2.4,2.4,0,0,0,103.78,44.07Z"/><path class="cls-2" d="M111.53,45.59h-4.62a1.88,1.88,0,0,0,.59,1.34,1.84,1.84,0,0,0,1.29.48,1.8,1.8,0,0,0,1-.29,1.63,1.63,0,0,0,.59-.78h1a2.44,2.44,0,0,1-.93,1.36,3.12,3.12,0,0,1-3.2.15,2.71,2.71,0,0,1-1-1.05,3.21,3.21,0,0,1-.37-1.58,3.28,3.28,0,0,1,.36-1.57,2.47,2.47,0,0,1,1-1,3,3,0,0,1,1.49-.36,2.92,2.92,0,0,1,1.46.35,2.5,2.5,0,0,1,1,1,2.9,2.9,0,0,1,.35,1.42A4,4,0,0,1,111.53,45.59Zm-1.2-1.72a1.55,1.55,0,0,0-.66-.61,2.14,2.14,0,0,0-.92-.2,1.76,1.76,0,0,0-1.24.46,1.91,1.91,0,0,0-.59,1.29h3.65A1.75,1.75,0,0,0,110.33,43.87Z"/><path class="cls-2" d="M114.52,42.51a2.24,2.24,0,0,1,1.14-.28v1h-.25c-1.08,0-1.62.58-1.62,1.75v3.14h-1V42.34h1v.94A1.81,1.81,0,0,1,114.52,42.51Z"/><path class="cls-2" d="M117.94,43.13v3.41a.83.83,0,0,0,.18.6.92.92,0,0,0,.62.17h.71v.81h-.86a1.72,1.72,0,0,1-1.21-.37,1.56,1.56,0,0,1-.4-1.21V43.13h-.75v-.79H117V40.88h1v1.46h1.51v.79Z"/><path class="cls-2" d="M121.66,47.85a2.67,2.67,0,0,1-1-1.05,3.21,3.21,0,0,1-.38-1.58,3.13,3.13,0,0,1,.39-1.57,2.57,2.57,0,0,1,1-1,3.07,3.07,0,0,1,1.49-.36,3,3,0,0,1,1.48.36,2.57,2.57,0,0,1,1,1,3.07,3.07,0,0,1,.39,1.57,3,3,0,0,1-.4,1.58,2.77,2.77,0,0,1-1.07,1.05,3,3,0,0,1-1.5.37A2.92,2.92,0,0,1,121.66,47.85Zm2.45-.72a1.83,1.83,0,0,0,.73-.73,2.27,2.27,0,0,0,.28-1.18,2.29,2.29,0,0,0-.28-1.18,1.76,1.76,0,0,0-.71-.72,2,2,0,0,0-1-.24,2,2,0,0,0-1,.24,1.68,1.68,0,0,0-.7.72,2.39,2.39,0,0,0-.27,1.18,2.52,2.52,0,0,0,.26,1.19,1.81,1.81,0,0,0,.69.73,1.94,1.94,0,0,0,.95.23A2.09,2.09,0,0,0,124.11,47.13Z"/><path class="cls-2" d="M128.22,48a2,2,0,0,1-.83-.63,1.63,1.63,0,0,1-.34-.94h1a1,1,0,0,0,.41.71,1.55,1.55,0,0,0,1,.28,1.35,1.35,0,0,0,.87-.25.74.74,0,0,0,.32-.61.61.61,0,0,0-.34-.56,4.54,4.54,0,0,0-1.05-.37,6.85,6.85,0,0,1-1-.34,1.86,1.86,0,0,1-.69-.52,1.47,1.47,0,0,1,0-1.71,1.87,1.87,0,0,1,.75-.59,2.75,2.75,0,0,1,1.11-.21,2.37,2.37,0,0,1,1.55.48,1.77,1.77,0,0,1,.63,1.33h-1a1,1,0,0,0-.36-.73,1.64,1.64,0,0,0-1.72,0,.69.69,0,0,0-.3.58.64.64,0,0,0,.18.47,1.29,1.29,0,0,0,.47.29,5.83,5.83,0,0,0,.77.25c.42.12.75.23,1,.33a1.77,1.77,0,0,1,.68.5,1.34,1.34,0,0,1,.29.85,1.46,1.46,0,0,1-.27.86,1.69,1.69,0,0,1-.74.59,2.59,2.59,0,0,1-1.11.22A3,3,0,0,1,128.22,48Z"/><path class="cls-3" d="M73.52,12l.31.07v2.82a1.13,1.13,0,0,0-.58,1,1.14,1.14,0,0,0,.53,1l-.75,3c-.08.33.1.67.37.67h2c.26,0,.45-.34.37-.63l-.76-3a1.16,1.16,0,0,0,.54-1,1.13,1.13,0,0,0-.58-1V12.39l2.51.61v2.9a6.14,6.14,0,1,0,12.28,0l0-2.9,4-1a.77.77,0,0,0,0-1.52L84.6,8.31a4.07,4.07,0,0,0-1.9,0l-9.18,2.21A.77.77,0,0,0,73.52,12Zm15.1,11.22-5,5-5-5a8.32,8.32,0,0,0-5.82,7.92,1.67,1.67,0,0,0,1.67,1.67H92.76a1.67,1.67,0,0,0,1.67-1.67A8.32,8.32,0,0,0,88.62,23.26Z"/></svg>