<?xml version="1.0" encoding="UTF-8"?>
<svg id="Capa_2" data-name="Capa 2" xmlns="http://www.w3.org/2000/svg" viewBox="0 0 21.57 24.65">
  <defs>
    <style>
      .cls-1 {
        fill: #1073dd;
      }
    </style>
  </defs>
  <g id="Layer_1" data-name="Layer 1">
    <path class="cls-1" d="M.66,3.84l.31,.07v2.82c-.34,.2-.58,.56-.58,.97s.22,.74,.54,.95L.17,11.65c-.08,.33,.1,.67,.37,.67H2.55c.26,0,.45-.34,.37-.63l-.75-3.04c.31-.21,.54-.55,.54-.95s-.24-.78-.58-.97v-2.53l2.5,.6v2.91c0,3.41,2.76,6.16,6.16,6.16s6.12-2.76,6.12-6.16l.04-2.91,3.96-.96c.88-.21,.88-1.3,0-1.52L11.74,.11c-.63-.14-1.28-.14-1.91,0L.66,2.32c-.87,.21-.87,1.31,0,1.52ZM15.75,15.06l-4.97,4.97-4.97-4.97c-3.37,1.07-5.82,4.2-5.82,7.92,0,.92,.75,1.67,1.67,1.67H19.9c.92,0,1.67-.75,1.67-1.67,0-3.72-2.45-6.85-5.82-7.92Z"/>
  </g>
</svg>