<?xml version="1.0" encoding="UTF-8"?>
<svg id="Capa_2" data-name="Capa 2" xmlns="http://www.w3.org/2000/svg" viewBox="0 0 31.7 24.65">
  <defs>
    <style>
      .cls-1 {
        fill: #1073dd;
      }
    </style>
  </defs>
  <g id="Layer_1" data-name="Layer 1">
    <path class="cls-1" d="M11.45,2.64c0-1.46,1.18-2.64,2.64-2.64h3.52c1.46,0,2.64,1.18,2.64,2.64v3.52c0,1.46-1.18,2.64-2.64,2.64h-.44v2.2h8.36c1.7,0,3.08,1.38,3.08,3.08v1.76h.44c1.46,0,2.64,1.18,2.64,2.64v3.52c0,1.46-1.18,2.64-2.64,2.64h-3.52c-1.46,0-2.64-1.18-2.64-2.64v-3.52c0-1.46,1.18-2.64,2.64-2.64h.44v-1.76c0-.24-.2-.44-.44-.44h-8.36v2.2h.44c1.46,0,2.64,1.18,2.64,2.64v3.52c0,1.46-1.18,2.64-2.64,2.64h-3.52c-1.46,0-2.64-1.18-2.64-2.64v-3.52c0-1.46,1.18-2.64,2.64-2.64h.44v-2.2H6.16c-.24,0-.44,.2-.44,.44v1.76h.44c1.46,0,2.64,1.18,2.64,2.64v3.52c0,1.46-1.18,2.64-2.64,2.64H2.64c-1.46,0-2.64-1.18-2.64-2.64v-3.52c0-1.46,1.18-2.64,2.64-2.64h.44v-1.76c0-1.7,1.38-3.08,3.08-3.08H14.53v-2.2h-.44c-1.46,0-2.64-1.18-2.64-2.64V2.64Z"/>
  </g>
</svg>