<?xml version="1.0" encoding="UTF-8"?>
<svg id="Capa_2" data-name="Capa 2" xmlns="http://www.w3.org/2000/svg" viewBox="0 0 17.13 22.85">
  <defs>
    <style>
      .cls-1 {
        fill: #1073dd;
      }
    </style>
  </defs>
  <g id="Layer_1" data-name="Layer 1">
    <path class="cls-1" d="M10.73,10h4.98c.59,0,1.13,.37,1.3,.92,.25,.56,.09,1.19-.36,1.58L5.23,22.5c-.5,.44-1.24,.47-1.78,.08-.54-.39-.74-1.11-.47-1.72l3.43-8.01H1.39c-.55,0-1.09-.37-1.3-.92-.21-.56-.05-1.19,.4-1.58L11.91,.35c.5-.44,1.24-.47,1.78-.08,.54,.39,.74,1.1,.47,1.72l-3.43,8.01Z"/>
  </g>
</svg>