<?xml version="1.0" encoding="UTF-8"?>
<svg id="Capa_2" data-name="Capa 2" xmlns="http://www.w3.org/2000/svg" viewBox="0 0 27.73 24.65">
  <defs>
    <style>
      .cls-1 {
        fill: #1073dd;
      }
    </style>
  </defs>
  <g id="Layer_1" data-name="Layer 1">
    <path class="cls-1" d="M27.36,16.19c-.63-.86-1.84-1.04-2.69-.41l-5.76,4.25h-5.81c-.42,0-.73-.35-.73-.77s.35-.77,.73-.77h3.77c.73,0,1.48-.52,1.61-1.28,.16-.96-.58-1.8-1.52-1.8h-7.75c-1.26,0-2.56,.45-3.57,1.26l-2.24,1.82-2.67-.04c-.38,0-.73,.39-.73,.81v4.62c0,.42,.35,.77,.73,.77H17.39c1.06,0,2.11-.35,2.97-.98l6.5-4.79c.94-.63,1.12-1.83,.49-2.69Zm-13.91-7.77c-.37-.05-.85-.23-1.27-.38l-.24-.08c-.6-.26-1.26,.1-1.47,.66s.1,1.26,.7,1.48l.22,.08c.41,.15,.86,.29,1.32,.4v.59c0,.64,.52,1.16,1.15,1.16s1.16-.52,1.16-1.16v-.5c1.22-.28,2.06-1.05,2.22-2.2,.42-2.41-1.87-3.07-3.1-3.42l-.25-.09c-1.27-.36-1.19-.51-1.16-.71,.06-.33,.74-.48,1.55-.36,.24,.04,.55,.12,.95,.26,.6,.21,1.26-.11,1.47-.71s-.11-1.26-.71-1.47c-.37-.13-.67-.21-.95-.28v-.54c0-.64-.52-1.16-1.16-1.16s-1.15,.52-1.15,1.16v.51c-1.22,.27-2.07,1.05-2.31,2.2-.37,2.38,1.95,3.07,2.83,3.33l.31,.09c1.52,.44,1.5,.57,1.46,.8-.05,.33-.73,.49-1.56,.35Z"/>
  </g>
</svg>