<?xml version="1.0" encoding="UTF-8"?>
<svg id="Capa_2" data-name="Capa 2" xmlns="http://www.w3.org/2000/svg" viewBox="0 0 53.42 24.65">
  <defs>
    <style>
      .cls-1 {
        fill: #1073dd;
      }
    </style>
  </defs>
  <g id="Layer_1" data-name="Layer 1">
    <g>
      <path class="cls-1" d="M12.36,1.17c.25-.83,1.08-1.33,1.91-1.12,.82,.21,1.32,1.04,1.12,1.87l-.42,1.68c-.53,2.12-1.94,3.83-3.77,4.8v14.72c0,.85-.69,1.54-1.54,1.54s-1.54-.69-1.54-1.54v-6.16h-.77v6.16c0,.85-.69,1.54-1.54,1.54s-1.54-.69-1.54-1.54V8.39C2.43,7.42,1.02,5.71,.49,3.59L.03,1.91C-.13,1.09,.37,.25,1.19,.05c.83-.21,1.67,.3,1.87,1.12l.42,1.68c.49,1.95,2.24,3.27,4.25,3.27s3.76-1.32,4.25-3.27l.38-1.68Zm-6.94,1.1C5.42,1.04,6.45,0,7.73,0s2.31,1.03,2.31,2.27c0,1.32-1.04,2.31-2.31,2.31s-2.31-.99-2.31-2.31h0Z"/>
      <path class="cls-1" d="M31.35,1.17c.25-.83,1.08-1.33,1.91-1.12,.82,.21,1.32,1.04,1.12,1.87l-.42,1.68c-.53,2.12-1.94,3.83-3.77,4.8v14.72c0,.85-.69,1.54-1.54,1.54s-1.54-.69-1.54-1.54v-6.16h-.77v6.16c0,.85-.69,1.54-1.54,1.54s-1.54-.69-1.54-1.54V8.39c-1.83-.97-3.24-2.68-3.77-4.8l-.46-1.68c-.16-.83,.34-1.66,1.16-1.87,.83-.21,1.67,.3,1.87,1.12l.42,1.68c.49,1.95,2.24,3.27,4.25,3.27s3.76-1.32,4.25-3.27l.38-1.68Zm-6.94,1.1C24.41,1.04,25.45,0,26.72,0s2.31,1.03,2.31,2.27c0,1.32-1.04,2.31-2.31,2.31s-2.31-.99-2.31-2.31h0Z"/>
      <path class="cls-1" d="M50.34,1.17c.25-.83,1.08-1.33,1.91-1.12,.82,.21,1.32,1.04,1.12,1.87l-.42,1.68c-.53,2.12-1.94,3.83-3.77,4.8v14.72c0,.85-.69,1.54-1.54,1.54s-1.54-.69-1.54-1.54v-6.16h-.77v6.16c0,.85-.69,1.54-1.54,1.54s-1.54-.69-1.54-1.54V8.39c-1.83-.97-3.24-2.68-3.77-4.8l-.46-1.68c-.16-.83,.34-1.66,1.16-1.87,.83-.21,1.67,.3,1.87,1.12l.42,1.68c.49,1.95,2.24,3.27,4.25,3.27s3.76-1.32,4.25-3.27l.38-1.68Zm-6.94,1.1C43.4,1.04,44.44,0,45.72,0s2.31,1.03,2.31,2.27c0,1.32-1.04,2.31-2.31,2.31s-2.31-.99-2.31-2.31h0Z"/>
    </g>
  </g>
</svg>