<?xml version="1.0" encoding="UTF-8"?>
<svg id="Capa_2" data-name="Capa 2" xmlns="http://www.w3.org/2000/svg" viewBox="0 0 21.54 22.85">
  <defs>
    <style>
      .cls-1 {
        fill: #1073dd;
      }
    </style>
  </defs>
  <g id="Layer_1" data-name="Layer 1">
    <path class="cls-1" d="M21.48,7.44c.15,.38,.02,.82-.28,1.1l-1.93,1.76c.05,.37,.08,.75,.08,1.13s-.03,.76-.08,1.13l1.93,1.76c.3,.28,.43,.71,.28,1.1-.2,.53-.43,1.04-.7,1.53l-.21,.36c-.29,.49-.62,.96-.99,1.4-.27,.32-.7,.43-1.09,.3l-2.49-.79c-.6,.46-1.3,.84-1.96,1.14l-.56,2.55c-.09,.4-.4,.69-.81,.79-.62,.1-1.25,.16-1.94,.16-.61,0-1.24-.05-1.86-.16-.41-.11-.72-.39-.81-.79l-.56-2.55c-.71-.29-1.37-.68-1.96-1.14l-2.48,.79c-.39,.12-.83,.01-1.09-.3-.36-.44-.69-.91-.99-1.4l-.21-.36c-.27-.49-.51-1-.7-1.53-.14-.38-.02-.82,.28-1.1l1.93-1.76c-.05-.37-.07-.75-.07-1.13s.03-.76,.07-1.13l-1.93-1.76c-.31-.28-.43-.71-.28-1.1,.2-.53,.43-1.04,.7-1.53l.21-.36c.3-.49,.63-.96,.99-1.39,.26-.32,.7-.43,1.09-.3l2.48,.79c.6-.46,1.26-.85,1.96-1.14l.56-2.55c.09-.41,.4-.73,.81-.8,.62-.1,1.25-.16,1.9-.16s1.28,.05,1.9,.16c.41,.07,.72,.39,.81,.8l.56,2.55c.67,.29,1.37,.68,1.96,1.14l2.49-.79c.39-.13,.83-.02,1.09,.3,.36,.44,.69,.9,.99,1.39l.21,.36c.27,.49,.5,1,.7,1.53h0Zm-10.71,7.56c1.97,0,3.57-1.6,3.57-3.61s-1.6-3.57-3.57-3.57-3.57,1.64-3.57,3.57,1.6,3.61,3.57,3.61Z"/>
  </g>
</svg>