<svg id="Layer_1" data-name="Layer 1" xmlns="http://www.w3.org/2000/svg" xmlns:xlink="http://www.w3.org/1999/xlink" viewBox="0 0 361.11 439.4"><defs><style>.cls-1{fill:#0f73dd;}.cls-2{fill:url(#linear-gradient);}</style><linearGradient id="linear-gradient" x1="180.56" x2="180.56" y2="439.4" gradientUnits="userSpaceOnUse"><stop offset="0.01" stop-color="#1dd4bf"/><stop offset="0.22" stop-color="#17a6cd"/><stop offset="0.42" stop-color="#1281d9"/><stop offset="0.52" stop-color="#1073dd"/><stop offset="0.65" stop-color="#1389d6"/><stop offset="0.91" stop-color="#1ac1c5"/><stop offset="1" stop-color="#1dd4bf"/></linearGradient></defs><path class="cls-1" d="M329.65,12.89c-6.66-1.79-13.29-3.7-20.07-5.26a305.93,305.93,0,0,0-49-7c-34.12-2.19-67.27,1.93-100.74,7.69q-4.53.77-9.06,1.34V37.56H357.85V16.62A108.91,108.91,0,0,1,329.65,12.89Z"/><path class="cls-2" d="M361.11,13.16c-23,5.15-46.23,8.73-70,9.22-47.46,1-93.67-9.19-140-17.13C107.26-2.27,61.51-1.54,17.78,6.32,11.33,7.48,5.39,8.71,0,10V197.31H.56v180l-.31.09v43.12C38,431.85,104.62,439.4,180.56,439.4s142.58-7.55,180.3-18.92V377.36l-.3-.09v-180h.55Z"/></svg>