<svg xmlns="http://www.w3.org/2000/svg" xmlns:xlink="http://www.w3.org/1999/xlink" viewBox="0 0 133.05 133.81"><defs><style>.cls-1{isolation:isolate;}.cls-2{fill:#83eeff;}.cls-3{fill:url(#linear-gradient);}.cls-4{fill:url(#linear-gradient-2);}.cls-5{fill:url(#linear-gradient-3);}.cls-6{fill:url(#linear-gradient-4);}.cls-7{fill:url(#linear-gradient-5);}.cls-8{fill:url(#linear-gradient-6);}.cls-10,.cls-9{mix-blend-mode:screen;}.cls-10{fill:none;}.cls-11{fill:#fff;}.cls-100,.cls-101,.cls-102,.cls-103,.cls-104,.cls-105,.cls-12,.cls-13,.cls-14,.cls-15,.cls-16,.cls-17,.cls-18,.cls-19,.cls-20,.cls-21,.cls-22,.cls-23,.cls-24,.cls-25,.cls-26,.cls-27,.cls-28,.cls-29,.cls-30,.cls-31,.cls-32,.cls-33,.cls-34,.cls-35,.cls-36,.cls-37,.cls-38,.cls-39,.cls-40,.cls-41,.cls-42,.cls-43,.cls-44,.cls-45,.cls-46,.cls-47,.cls-48,.cls-49,.cls-50,.cls-51,.cls-52,.cls-53,.cls-54,.cls-55,.cls-56,.cls-57,.cls-58,.cls-59,.cls-60,.cls-61,.cls-62,.cls-63,.cls-64,.cls-65,.cls-66,.cls-67,.cls-68,.cls-69,.cls-70,.cls-71,.cls-72,.cls-73,.cls-74,.cls-75,.cls-76,.cls-77,.cls-78,.cls-79,.cls-80,.cls-81,.cls-82,.cls-83,.cls-84,.cls-85,.cls-86,.cls-87,.cls-88,.cls-89,.cls-90,.cls-91,.cls-92,.cls-93,.cls-94,.cls-95,.cls-96,.cls-97,.cls-98,.cls-99{mix-blend-mode:color-dodge;}.cls-12{fill:url(#radial-gradient);}.cls-13{fill:url(#radial-gradient-2);}.cls-14{fill:url(#radial-gradient-3);}.cls-15{fill:url(#radial-gradient-4);}.cls-16{fill:url(#radial-gradient-5);}.cls-17{fill:url(#radial-gradient-6);}.cls-18{fill:url(#radial-gradient-7);}.cls-19{fill:url(#radial-gradient-8);}.cls-20{fill:url(#radial-gradient-9);}.cls-21{fill:url(#radial-gradient-10);}.cls-22{fill:url(#radial-gradient-11);}.cls-23{fill:url(#radial-gradient-12);}.cls-24{fill:url(#radial-gradient-13);}.cls-25{fill:url(#radial-gradient-14);}.cls-26{fill:url(#radial-gradient-15);}.cls-27{fill:url(#radial-gradient-16);}.cls-28{fill:url(#radial-gradient-17);}.cls-29{fill:url(#radial-gradient-18);}.cls-30{fill:url(#radial-gradient-19);}.cls-31{fill:url(#radial-gradient-20);}.cls-32{fill:url(#radial-gradient-21);}.cls-33{fill:url(#radial-gradient-22);}.cls-34{fill:url(#radial-gradient-23);}.cls-35{fill:url(#radial-gradient-24);}.cls-36{fill:url(#radial-gradient-25);}.cls-37{fill:url(#radial-gradient-26);}.cls-38{fill:url(#radial-gradient-27);}.cls-39{fill:url(#radial-gradient-28);}.cls-40{fill:url(#radial-gradient-29);}.cls-41{fill:url(#radial-gradient-30);}.cls-42{fill:url(#radial-gradient-31);}.cls-43{fill:url(#radial-gradient-32);}.cls-44{fill:url(#radial-gradient-33);}.cls-45{fill:url(#radial-gradient-34);}.cls-46{fill:url(#radial-gradient-35);}.cls-47{fill:url(#radial-gradient-36);}.cls-48{fill:url(#radial-gradient-37);}.cls-49{fill:url(#radial-gradient-38);}.cls-50{fill:url(#radial-gradient-39);}.cls-51{fill:url(#radial-gradient-40);}.cls-52{fill:url(#radial-gradient-41);}.cls-53{fill:url(#radial-gradient-42);}.cls-54{fill:url(#radial-gradient-43);}.cls-55{fill:url(#radial-gradient-44);}.cls-56{fill:url(#radial-gradient-45);}.cls-57{fill:url(#radial-gradient-46);}.cls-58{fill:url(#radial-gradient-47);}.cls-59{fill:url(#radial-gradient-48);}.cls-60{fill:url(#radial-gradient-49);}.cls-61{fill:url(#radial-gradient-50);}.cls-62{fill:url(#radial-gradient-51);}.cls-63{fill:url(#radial-gradient-52);}.cls-64{fill:url(#radial-gradient-53);}.cls-65{fill:url(#radial-gradient-54);}.cls-66{fill:url(#radial-gradient-55);}.cls-67{fill:url(#radial-gradient-56);}.cls-68{fill:url(#radial-gradient-57);}.cls-69{fill:url(#radial-gradient-58);}.cls-70{fill:url(#radial-gradient-59);}.cls-71{fill:url(#radial-gradient-60);}.cls-72{fill:url(#radial-gradient-61);}.cls-73{fill:url(#radial-gradient-62);}.cls-74{fill:url(#radial-gradient-63);}.cls-75{fill:url(#radial-gradient-64);}.cls-76{fill:url(#radial-gradient-65);}.cls-77{fill:url(#radial-gradient-66);}.cls-78{fill:url(#radial-gradient-67);}.cls-79{fill:url(#radial-gradient-68);}.cls-80{fill:url(#radial-gradient-69);}.cls-81{fill:url(#radial-gradient-70);}.cls-82{fill:url(#radial-gradient-71);}.cls-83{fill:url(#radial-gradient-72);}.cls-84{fill:url(#radial-gradient-73);}.cls-85{fill:url(#radial-gradient-74);}.cls-86{fill:url(#radial-gradient-75);}.cls-87{fill:url(#radial-gradient-76);}.cls-88{fill:url(#radial-gradient-77);}.cls-89{fill:url(#radial-gradient-78);}.cls-90{fill:url(#radial-gradient-79);}.cls-91{fill:url(#radial-gradient-80);}.cls-92{fill:url(#radial-gradient-81);}.cls-93{fill:url(#radial-gradient-82);}.cls-94{fill:url(#radial-gradient-83);}.cls-95{fill:url(#radial-gradient-84);}.cls-96{fill:url(#radial-gradient-85);}.cls-97{fill:url(#radial-gradient-86);}.cls-98{fill:url(#radial-gradient-87);}.cls-99{fill:url(#radial-gradient-88);}.cls-100{fill:url(#radial-gradient-89);}.cls-101{fill:url(#radial-gradient-90);}.cls-102{fill:url(#radial-gradient-91);}.cls-103{fill:url(#radial-gradient-92);}.cls-104{fill:url(#radial-gradient-93);}.cls-105{fill:url(#radial-gradient-94);}</style><linearGradient id="linear-gradient" x1="31.25" y1="59.88" x2="91.57" y2="59.88" gradientUnits="userSpaceOnUse"><stop offset="0" stop-color="#a1f9ff"/><stop offset="1" stop-color="#0ef"/></linearGradient><linearGradient id="linear-gradient-2" x1="84.97" y1="34.16" x2="62.64" y2="101.77" gradientUnits="userSpaceOnUse"><stop offset="0" stop-color="#0079a4"/><stop offset="1" stop-color="#0ef"/></linearGradient><linearGradient id="linear-gradient-3" x1="75" y1="75.93" x2="50.14" y2="35.79" gradientUnits="userSpaceOnUse"><stop offset="0" stop-color="#a1f9ff"/><stop offset="1" stop-color="#fff"/></linearGradient><linearGradient id="linear-gradient-4" x1="76.33" y1="75.07" x2="63.89" y2="58.44" xlink:href="#linear-gradient-3"/><linearGradient id="linear-gradient-5" x1="56.67" y1="52.36" x2="68.93" y2="67.85" xlink:href="#linear-gradient-2"/><linearGradient id="linear-gradient-6" x1="44.05" y1="57.18" x2="71.56" y2="57.18" xlink:href="#linear-gradient"/><radialGradient id="radial-gradient" cx="1.73" cy="109.61" r="1.73" gradientUnits="userSpaceOnUse"><stop offset="0" stop-color="#0ef"/><stop offset="0.03" stop-color="#0ef" stop-opacity="0.92"/><stop offset="0.12" stop-color="#0ef" stop-opacity="0.71"/><stop offset="0.21" stop-color="#0ef" stop-opacity="0.52"/><stop offset="0.31" stop-color="#0ef" stop-opacity="0.36"/><stop offset="0.4" stop-color="#0ef" stop-opacity="0.23"/><stop offset="0.5" stop-color="#0ef" stop-opacity="0.13"/><stop offset="0.6" stop-color="#0ef" stop-opacity="0.06"/><stop offset="0.71" stop-color="#0ef" stop-opacity="0.01"/><stop offset="0.82" stop-color="#0ef" stop-opacity="0"/></radialGradient><radialGradient id="radial-gradient-2" cx="63.24" cy="77" r="1.73" xlink:href="#radial-gradient"/><radialGradient id="radial-gradient-3" cx="98.66" cy="49.35" r="1.73" xlink:href="#radial-gradient"/><radialGradient id="radial-gradient-4" cx="121.06" cy="24.06" r="1.73" xlink:href="#radial-gradient"/><radialGradient id="radial-gradient-5" cx="119.84" cy="16.56" r="1.73" xlink:href="#radial-gradient"/><radialGradient id="radial-gradient-6" cx="113.75" cy="42.63" r="1.73" xlink:href="#radial-gradient"/><radialGradient id="radial-gradient-7" cx="69.22" cy="78.9" r="1.73" xlink:href="#radial-gradient"/><radialGradient id="radial-gradient-8" cx="17.5" cy="100.88" r="1.73" xlink:href="#radial-gradient"/><radialGradient id="radial-gradient-9" cx="13.84" cy="100.92" r="1.73" xlink:href="#radial-gradient"/><radialGradient id="radial-gradient-10" cx="58.62" cy="80.61" r="1.73" xlink:href="#radial-gradient"/><radialGradient id="radial-gradient-11" cx="121.72" cy="35.86" r="1.73" xlink:href="#radial-gradient"/><radialGradient id="radial-gradient-12" cx="110.28" cy="46.28" r="1.73" xlink:href="#radial-gradient"/><radialGradient id="radial-gradient-13" cx="65.98" cy="78.72" r="1.73" xlink:href="#radial-gradient"/><radialGradient id="radial-gradient-14" cx="98.46" cy="55.85" r="1.73" xlink:href="#radial-gradient"/><radialGradient id="radial-gradient-15" cx="73.16" cy="78.42" r="1.73" xlink:href="#radial-gradient"/><radialGradient id="radial-gradient-16" cx="107.01" cy="50.97" r="1.73" xlink:href="#radial-gradient"/><radialGradient id="radial-gradient-17" cx="56.44" cy="89.82" r="1.73" xlink:href="#radial-gradient"/><radialGradient id="radial-gradient-18" cx="22.12" cy="106.84" r="1.73" xlink:href="#radial-gradient"/><radialGradient id="radial-gradient-19" cx="75.92" cy="76.38" r="1.73" xlink:href="#radial-gradient"/><radialGradient id="radial-gradient-20" cx="128.97" cy="37.28" r="1.73" xlink:href="#radial-gradient"/><radialGradient id="radial-gradient-21" cx="123.28" cy="37.39" r="1.73" xlink:href="#radial-gradient"/><radialGradient id="radial-gradient-22" cx="106.6" cy="50.22" r="1.73" xlink:href="#radial-gradient"/><radialGradient id="radial-gradient-23" cx="116.99" cy="42.26" r="1.73" xlink:href="#radial-gradient"/><radialGradient id="radial-gradient-24" cx="100.99" cy="57.92" r="1.73" xlink:href="#radial-gradient"/><radialGradient id="radial-gradient-25" cx="59.5" cy="85.48" r="1.73" xlink:href="#radial-gradient"/><radialGradient id="radial-gradient-26" cx="57.38" cy="82.67" r="1.73" xlink:href="#radial-gradient"/><radialGradient id="radial-gradient-27" cx="44.18" cy="89.33" r="1.73" xlink:href="#radial-gradient"/><radialGradient id="radial-gradient-28" cx="21.96" cy="95.19" r="1.73" xlink:href="#radial-gradient"/><radialGradient id="radial-gradient-29" cx="9.2" cy="107.81" r="1.73" xlink:href="#radial-gradient"/><radialGradient id="radial-gradient-30" cx="39.23" cy="93.67" r="1.73" xlink:href="#radial-gradient"/><radialGradient id="radial-gradient-31" cx="52.91" cy="85.2" r="1.73" xlink:href="#radial-gradient"/><radialGradient id="radial-gradient-32" cx="65.84" cy="76.38" r="1.73" xlink:href="#radial-gradient"/><radialGradient id="radial-gradient-33" cx="76.99" cy="66.71" r="1.73" xlink:href="#radial-gradient"/><radialGradient id="radial-gradient-34" cx="68.65" cy="72.98" r="1.73" xlink:href="#radial-gradient"/><radialGradient id="radial-gradient-35" cx="36.57" cy="93.61" r="1.73" xlink:href="#radial-gradient"/><radialGradient id="radial-gradient-36" cx="42.07" cy="89.24" r="1.73" xlink:href="#radial-gradient"/><radialGradient id="radial-gradient-37" cx="70.79" cy="70.96" r="1.73" xlink:href="#radial-gradient"/><radialGradient id="radial-gradient-38" cx="90.24" cy="59.01" r="1.73" xlink:href="#radial-gradient"/><radialGradient id="radial-gradient-39" cx="98.18" cy="52.08" r="1.73" xlink:href="#radial-gradient"/><radialGradient id="radial-gradient-40" cx="101.41" cy="47.5" r="1.73" xlink:href="#radial-gradient"/><radialGradient id="radial-gradient-41" cx="86.04" cy="63.95" r="1.73" xlink:href="#radial-gradient"/><radialGradient id="radial-gradient-42" cx="87.88" cy="62.12" r="1.73" xlink:href="#radial-gradient"/><radialGradient id="radial-gradient-43" cx="103.14" cy="51.82" r="1.73" xlink:href="#radial-gradient"/><radialGradient id="radial-gradient-44" cx="118.29" cy="40.25" r="1.73" xlink:href="#radial-gradient"/><radialGradient id="radial-gradient-45" cx="125.33" cy="34.13" r="1.73" xlink:href="#radial-gradient"/><radialGradient id="radial-gradient-46" cx="124.34" cy="33.15" r="1.73" xlink:href="#radial-gradient"/><radialGradient id="radial-gradient-47" cx="126.94" cy="27.79" r="1.73" xlink:href="#radial-gradient"/><radialGradient id="radial-gradient-48" cx="127.56" cy="22.87" r="1.73" xlink:href="#radial-gradient"/><radialGradient id="radial-gradient-49" cx="126.17" cy="20.8" r="1.73" xlink:href="#radial-gradient"/><radialGradient id="radial-gradient-50" cx="124.36" cy="15.75" r="1.73" xlink:href="#radial-gradient"/><radialGradient id="radial-gradient-51" cx="119.78" cy="15.4" r="1.73" xlink:href="#radial-gradient"/><radialGradient id="radial-gradient-52" cx="115.88" cy="18.32" r="1.73" xlink:href="#radial-gradient"/><radialGradient id="radial-gradient-53" cx="107.7" cy="19.41" r="1.73" xlink:href="#radial-gradient"/><radialGradient id="radial-gradient-54" cx="111.66" cy="20.23" r="1.73" xlink:href="#radial-gradient"/><radialGradient id="radial-gradient-55" cx="108.46" cy="21.02" r="1.73" xlink:href="#radial-gradient"/><radialGradient id="radial-gradient-56" cx="119.17" cy="19.12" r="1.73" xlink:href="#radial-gradient"/><radialGradient id="radial-gradient-57" cx="131.32" cy="20.27" r="1.73" xlink:href="#radial-gradient"/><radialGradient id="radial-gradient-58" cx="121.02" cy="31.94" r="1.73" xlink:href="#radial-gradient"/><radialGradient id="radial-gradient-59" cx="116.71" cy="38.13" r="1.73" xlink:href="#radial-gradient"/><radialGradient id="radial-gradient-60" cx="107.51" cy="42.28" r="1.73" xlink:href="#radial-gradient"/><radialGradient id="radial-gradient-61" cx="90.48" cy="52.66" r="1.73" xlink:href="#radial-gradient"/><radialGradient id="radial-gradient-62" cx="76.4" cy="61.7" r="1.73" xlink:href="#radial-gradient"/><radialGradient id="radial-gradient-63" cx="94.15" cy="53.42" r="1.73" xlink:href="#radial-gradient"/><radialGradient id="radial-gradient-64" cx="96.79" cy="53.43" r="1.73" xlink:href="#radial-gradient"/><radialGradient id="radial-gradient-65" cx="82.99" cy="67.77" r="1.73" xlink:href="#radial-gradient"/><radialGradient id="radial-gradient-66" cx="81.85" cy="67.02" r="1.73" xlink:href="#radial-gradient"/><radialGradient id="radial-gradient-67" cx="81.18" cy="67.61" r="1.73" xlink:href="#radial-gradient"/><radialGradient id="radial-gradient-68" cx="81.88" cy="68.35" r="1.73" xlink:href="#radial-gradient"/><radialGradient id="radial-gradient-69" cx="79.04" cy="69.04" r="1.73" xlink:href="#radial-gradient"/><radialGradient id="radial-gradient-70" cx="76.85" cy="70.89" r="1.73" xlink:href="#radial-gradient"/><radialGradient id="radial-gradient-71" cx="71.83" cy="73.92" r="1.73" xlink:href="#radial-gradient"/><radialGradient id="radial-gradient-72" cx="70.39" cy="75.17" r="1.73" xlink:href="#radial-gradient"/><radialGradient id="radial-gradient-73" cx="70.04" cy="74.39" r="1.73" xlink:href="#radial-gradient"/><radialGradient id="radial-gradient-74" cx="75.31" cy="71.32" r="1.73" xlink:href="#radial-gradient"/><radialGradient id="radial-gradient-75" cx="90.56" cy="61.81" r="1.73" xlink:href="#radial-gradient"/><radialGradient id="radial-gradient-76" cx="96.81" cy="55.14" r="1.73" xlink:href="#radial-gradient"/><radialGradient id="radial-gradient-77" cx="101.55" cy="50.78" r="1.73" xlink:href="#radial-gradient"/><radialGradient id="radial-gradient-78" cx="100.92" cy="52.5" r="1.73" xlink:href="#radial-gradient"/><radialGradient id="radial-gradient-79" cx="84.25" cy="68.93" r="1.73" xlink:href="#radial-gradient"/><radialGradient id="radial-gradient-80" cx="80.73" cy="70.88" r="1.73" xlink:href="#radial-gradient"/><radialGradient id="radial-gradient-81" cx="62.56" cy="82.96" r="1.73" xlink:href="#radial-gradient"/><radialGradient id="radial-gradient-82" cx="50.22" cy="90.85" r="1.73" xlink:href="#radial-gradient"/><radialGradient id="radial-gradient-83" cx="40.57" cy="96.42" r="1.73" xlink:href="#radial-gradient"/><radialGradient id="radial-gradient-84" cx="33.12" cy="98.06" r="1.73" xlink:href="#radial-gradient"/><radialGradient id="radial-gradient-85" cx="28.31" cy="99.86" r="1.73" xlink:href="#radial-gradient"/><radialGradient id="radial-gradient-86" cx="22.65" cy="101.11" r="1.73" xlink:href="#radial-gradient"/><radialGradient id="radial-gradient-87" cx="19" cy="101.75" r="1.73" xlink:href="#radial-gradient"/><radialGradient id="radial-gradient-88" cx="24.61" cy="99.72" r="1.73" xlink:href="#radial-gradient"/><radialGradient id="radial-gradient-89" cx="54.41" cy="84.46" r="1.73" xlink:href="#radial-gradient"/><radialGradient id="radial-gradient-90" cx="74.88" cy="72.95" r="1.73" xlink:href="#radial-gradient"/><radialGradient id="radial-gradient-91" cx="87.07" cy="66.21" r="1.73" xlink:href="#radial-gradient"/><radialGradient id="radial-gradient-92" cx="97.85" cy="60.36" r="1.73" xlink:href="#radial-gradient"/><radialGradient id="radial-gradient-93" cx="103.34" cy="57.56" r="1.73" xlink:href="#radial-gradient"/><radialGradient id="radial-gradient-94" cx="103.1" cy="56.76" r="1.73" xlink:href="#radial-gradient"/></defs><g class="cls-1"><g id="Capa_2" data-name="Capa 2"><g id="Layer_1" data-name="Layer 1"><path class="cls-2" d="M71.65,121.9l.45.13a.67.67,0,0,1,.47.82l-.12.45a.67.67,0,0,1-.83.47l-.45-.12a.67.67,0,0,1-.47-.83l.12-.45A.69.69,0,0,1,71.65,121.9Zm-2.59-2.62-.13.45a.67.67,0,0,0,.47.82l.45.13a.69.69,0,0,0,.83-.47l.12-.45a.67.67,0,0,0-.47-.83l-.45-.12A.66.66,0,0,0,69.06,119.28Zm.61,2.08-.45-.12a.67.67,0,0,0-.83.47l-.12.45a.66.66,0,0,0,.47.82l.45.13a.67.67,0,0,0,.82-.47l.13-.45A.68.68,0,0,0,69.67,121.36Zm3.09-1.76-.45-.13a.67.67,0,0,0-.82.47l-.13.45a.69.69,0,0,0,.47.83l.45.12a.67.67,0,0,0,.83-.47l.12-.45A.66.66,0,0,0,72.76,119.6Z"/><path class="cls-2" d="M53.22,10.91,53,10.53a.68.68,0,0,1,.17-.94l.39-.26a.67.67,0,0,1,.93.17l.26.39a.66.66,0,0,1-.17.93l-.39.27A.67.67,0,0,1,53.22,10.91Zm.28,3.68.39-.27a.67.67,0,0,0,.17-.93L53.8,13a.68.68,0,0,0-.94-.18l-.38.27a.66.66,0,0,0-.17.93l.26.39A.67.67,0,0,0,53.5,14.59Zm.88-2,.27.39a.66.66,0,0,0,.93.17L56,12.9a.67.67,0,0,0,.17-.93l-.27-.39a.67.67,0,0,0-.93-.17l-.38.26A.67.67,0,0,0,54.38,12.6ZM50.88,12l.26.39a.68.68,0,0,0,.94.17l.38-.26a.68.68,0,0,0,.18-.94l-.27-.38a.66.66,0,0,0-.93-.17l-.39.26A.67.67,0,0,0,50.88,12Z"/><path class="cls-2" d="M18.17,73.2l-.3-.44a.88.88,0,0,1,.22-1.23l.45-.31a.89.89,0,0,1,1.23.23l.3.45a.86.86,0,0,1-.23,1.22l-.44.31A.89.89,0,0,1,18.17,73.2Zm1.43-1.64a.68.68,0,0,0-1-.17l-.45.3a.68.68,0,0,0-.17,1l.3.45a.7.7,0,0,0,1,.18l.44-.31a.68.68,0,0,0,.18-.95Zm-3.09-.78-.3-.44a.88.88,0,0,1,.22-1.23l.45-.3a.88.88,0,0,1,1.23.22l.3.45a.86.86,0,0,1-.23,1.22l-.44.31A.89.89,0,0,1,16.51,70.78Zm1.43-1.64A.68.68,0,0,0,17,69l-.45.3a.69.69,0,0,0-.17,1l.3.44a.7.7,0,0,0,1,.18l.44-.31a.68.68,0,0,0,.18-1Zm2.65,2.4-.3-.44a.88.88,0,0,1,.22-1.23l.45-.31a.88.88,0,0,1,1.22.23l.31.45a.87.87,0,0,1-.23,1.22l-.44.31A.89.89,0,0,1,20.59,71.54ZM22,69.9a.68.68,0,0,0-.95-.17l-.45.3a.68.68,0,0,0-.17,1l.31.45a.69.69,0,0,0,.95.18l.44-.31a.68.68,0,0,0,.18-1Zm-3.09-.78-.3-.45a.87.87,0,0,1,.22-1.22l.45-.31a.88.88,0,0,1,1.22.23l.31.45A.87.87,0,0,1,20.6,69l-.44.31A.89.89,0,0,1,18.93,69.12Zm1.43-1.64a.68.68,0,0,0-.95-.17l-.45.3a.68.68,0,0,0-.17,1l.3.45a.7.7,0,0,0,1,.18l.44-.31a.68.68,0,0,0,.18-.95Z"/><path class="cls-2" d="M113.42,63.13l-.2-.28a.56.56,0,0,1,.15-.77l.28-.19a.55.55,0,0,1,.76.14l.19.28a.55.55,0,0,1-.14.77l-.28.19A.55.55,0,0,1,113.42,63.13Zm.89-1a.43.43,0,0,0-.59-.11l-.28.19a.44.44,0,0,0-.12.6l.2.28a.43.43,0,0,0,.59.11l.28-.19a.42.42,0,0,0,.11-.6Zm-1.93-.49-.19-.28a.54.54,0,0,1,.14-.76l.28-.19a.54.54,0,0,1,.76.14l.2.28a.55.55,0,0,1-.15.76l-.28.2A.55.55,0,0,1,112.38,61.61Zm.89-1a.41.41,0,0,0-.59-.11l-.28.19a.41.41,0,0,0-.11.59l.19.28a.41.41,0,0,0,.59.11l.28-.19a.41.41,0,0,0,.11-.59Zm1.66,1.5-.19-.28a.56.56,0,0,1,.14-.77l.28-.19a.55.55,0,0,1,.76.14l.2.28A.56.56,0,0,1,116,62l-.28.19A.55.55,0,0,1,114.93,62.09Zm.89-1a.43.43,0,0,0-.59-.11l-.28.19a.42.42,0,0,0-.11.6L115,62a.43.43,0,0,0,.59.11l.28-.19a.44.44,0,0,0,.12-.6Zm-1.93-.49-.19-.28a.55.55,0,0,1,.14-.76l.28-.19a.56.56,0,0,1,.77.14l.19.28a.55.55,0,0,1-.14.76l-.28.2A.56.56,0,0,1,113.89,60.57Zm.9-1a.42.42,0,0,0-.6-.11l-.28.19a.43.43,0,0,0-.11.59l.19.29a.44.44,0,0,0,.6.11l.28-.2a.43.43,0,0,0,.11-.59Z"/><path class="cls-2" d="M101.48,116.65h1.33a1.9,1.9,0,0,1,1.9,1.9v1.32a1.91,1.91,0,0,1-1.91,1.91h-1.32a1.9,1.9,0,0,1-1.9-1.9v-1.32a1.9,1.9,0,0,1,1.9-1.9Z" transform="translate(169.21 261.15) rotate(-164.7)"/><rect class="cls-2" x="14.86" y="60.4" width="2.2" height="2.2" rx="0.82" transform="translate(57.57 13.49) rotate(55.46)"/><path class="cls-2" d="M84.5,102.14l1.27.35a2.24,2.24,0,0,1,1.58,2.75L87,106.52a2.24,2.24,0,0,1-2.75,1.56L83,107.74A2.24,2.24,0,0,1,81.4,105l.35-1.28A2.24,2.24,0,0,1,84.5,102.14Zm-.08,5.3a1.57,1.57,0,0,0,1.93-1.1l.35-1.28a1.57,1.57,0,0,0-1.1-1.92l-1.28-.35a1.56,1.56,0,0,0-1.92,1.1l-.35,1.27a1.57,1.57,0,0,0,1.1,1.93Z"/><path class="cls-2" d="M21.31,28.44,21,28a.85.85,0,0,1,.22-1.19l.42-.29a.85.85,0,0,1,1.19.22l.29.42a.87.87,0,0,1-.22,1.2l-.42.29A.86.86,0,0,1,21.31,28.44Zm1.33-1.53a.61.61,0,0,0-.84-.16l-.41.29a.6.6,0,0,0-.16.84l.29.42a.6.6,0,0,0,.83.15l.42-.29a.59.59,0,0,0,.16-.83Z"/><path class="cls-2" d="M23,36.19l-1.61,1.1a.37.37,0,0,0-.1.52l1.83,2.67a.38.38,0,0,0,.52.1l1.62-1.11a.37.37,0,0,0,.09-.52l-1.83-2.67A.37.37,0,0,0,23,36.19Zm.43,2.28-.46.37-.21-.29.52-.31a.27.27,0,0,1,.48-.2.28.28,0,0,1-.33.43Z"/><path class="cls-2" d="M26.81,36h0a1.5,1.5,0,0,0-2.08-.39l-.62.43.29.42.62-.42a1,1,0,0,1,1.11,1.61L25,38.42l.3.43,1.1-.76A1.5,1.5,0,0,0,26.81,36Z"/><path class="cls-2" d="M83.54,15.49,83.32,15a2,2,0,0,0,.26-.39l.57,0a.1.1,0,0,0,.1-.08l.12-.63a.11.11,0,0,0-.06-.12l-.54-.22a1.79,1.79,0,0,0-.09-.46l.39-.42a.09.09,0,0,0,0-.13L83.72,12a.1.1,0,0,0-.13,0l-.53.22a2,2,0,0,0-.39-.26l0-.58a.11.11,0,0,0-.09-.1l-.63-.11a.09.09,0,0,0-.11.06l-.23.53a2.26,2.26,0,0,0-.45.1l-.43-.4a.1.1,0,0,0-.13,0l-.53.36a.13.13,0,0,0,0,.13l.22.54a2,2,0,0,0-.25.39l-.58,0a.1.1,0,0,0-.1.08l-.12.63a.11.11,0,0,0,0,.08.1.1,0,0,0,0,0l.53.23a1.82,1.82,0,0,0,.1.45l-.4.42a.11.11,0,0,0,0,.14l.36.52a.1.1,0,0,0,.13,0l.53-.22a2.94,2.94,0,0,0,.39.26l0,.58a.08.08,0,0,0,0,.05.18.18,0,0,0,.07,0l.63.11a.1.1,0,0,0,.12-.06l.22-.53a2.36,2.36,0,0,0,.46-.1l.42.4A.1.1,0,0,0,83,16l.53-.37A.1.1,0,0,0,83.54,15.49Zm-1.48-1.4a.52.52,0,0,1-.7-.13.51.51,0,1,1,.7.13Z"/><path class="cls-2" d="M99.72,96.64l.37.2a1.24,1.24,0,0,0,0,.33l-.31.28a.1.1,0,0,0,0,.1l.23.4a.07.07,0,0,0,.09,0l.4-.13a1.39,1.39,0,0,0,.27.21l0,.42a.08.08,0,0,0,.06.08l.45.12a.07.07,0,0,0,.08,0l.2-.37a1.86,1.86,0,0,0,.33,0l.28.31a.08.08,0,0,0,.1,0l.4-.23a.07.07,0,0,0,0-.09l-.13-.4a1.71,1.71,0,0,0,.21-.26l.42,0a.08.08,0,0,0,.08-.06l.12-.45a.09.09,0,0,0,0-.09l-.37-.19a1.66,1.66,0,0,0,0-.33l.31-.29a.08.08,0,0,0,0-.09l-.24-.41s0,0,0,0H103l-.4.12-.26-.2,0-.42a.08.08,0,0,0-.06-.08l-.45-.12a.07.07,0,0,0-.09,0l-.19.37a1.32,1.32,0,0,0-.34,0l-.28-.31,0,0a.06.06,0,0,0-.06,0l-.41.23a.08.08,0,0,0,0,.09l.12.4a1.89,1.89,0,0,0-.2.27l-.42,0a.08.08,0,0,0-.08.06l-.12.45A.06.06,0,0,0,99.72,96.64Zm1.47.09a.37.37,0,0,1,.71.19.38.38,0,0,1-.45.26A.37.37,0,0,1,101.19,96.73Z"/><path class="cls-2" d="M87,14.13l.17-.1.15-.13.31.08a.17.17,0,0,0,.19-.09l.15-.32a.17.17,0,0,0,0-.2l-.25-.2a1.2,1.2,0,0,0,0-.38l.22-.24a.17.17,0,0,0,0-.2l-.2-.3a.17.17,0,0,0-.2-.05l-.3.12a1,1,0,0,0-.35-.17l-.09-.31a.19.19,0,0,0-.17-.12l-.36,0a.16.16,0,0,0-.14.14L86,12l-.17.1-.15.12-.31-.07a.16.16,0,0,0-.19.09l-.15.32a.15.15,0,0,0,0,.16l0,0,.25.19a1.29,1.29,0,0,0,0,.39l-.22.24a.17.17,0,0,0,0,.2l.21.29a.15.15,0,0,0,.19.06l.3-.12a1.26,1.26,0,0,0,.35.17l.09.31a.08.08,0,0,1,0,0,.16.16,0,0,0,.15.07l.36,0a.17.17,0,0,0,.14-.14Zm-.92-.77a.52.52,0,0,1,.86-.58.52.52,0,0,1-.86.58Z"/><path class="cls-2" d="M37.34,10.72a1.51,1.51,0,0,0,.28-.15l.24-.2.5.12a.26.26,0,0,0,.3-.15l.25-.51a.26.26,0,0,0-.08-.32l-.41-.32a1.84,1.84,0,0,0-.05-.62l.36-.38a.27.27,0,0,0,0-.33l-.32-.47a.25.25,0,0,0-.31-.09l-.49.19a1.93,1.93,0,0,0-.56-.27l-.15-.49a.26.26,0,0,0-.27-.19l-.57,0a.28.28,0,0,0-.24.23l-.07.51a2.4,2.4,0,0,0-.27.16,2.43,2.43,0,0,0-.25.2l-.5-.12a.27.27,0,0,0-.3.14l-.24.52a.25.25,0,0,0,0,.26l.05.06.41.31a1.92,1.92,0,0,0,.05.63l-.36.38a.26.26,0,0,0,0,.32l.32.47a.25.25,0,0,0,.32.1l.48-.2a1.71,1.71,0,0,0,.56.27l.15.5a.16.16,0,0,0,0,.07.27.27,0,0,0,.23.12l.57,0a.25.25,0,0,0,.24-.22ZM35.87,9.49a.82.82,0,0,1,.22-1.15.83.83,0,0,1,1.15.21.83.83,0,1,1-1.37.94Z"/><path class="cls-2" d="M57.43,132l.22.11a1.55,1.55,0,0,0,0,.31l-.19.17a.14.14,0,0,0,0,.16l.2.35a.13.13,0,0,0,.15.06l.24-.08a.92.92,0,0,0,.25.19l0,.26a.14.14,0,0,0,.1.13l.38.1a.13.13,0,0,0,.15-.06l.12-.23a1.63,1.63,0,0,0,.31,0l.17.18a.12.12,0,0,0,.16,0l.35-.2a.12.12,0,0,0,.05-.15L60,133.1a2.35,2.35,0,0,0,.19-.25l.25,0a.13.13,0,0,0,.13-.1l.11-.39a.14.14,0,0,0-.07-.15l-.22-.11a1.06,1.06,0,0,0,0-.31l.19-.17a.16.16,0,0,0,0-.16l-.21-.35a.11.11,0,0,0-.07-.06h-.08l-.24.08a1.12,1.12,0,0,0-.24-.19v-.25a.15.15,0,0,0-.09-.14l-.39-.1a.13.13,0,0,0-.15.06l-.12.23a1.15,1.15,0,0,0-.31,0l-.16-.19-.07,0a.14.14,0,0,0-.09,0l-.35.2a.12.12,0,0,0-.06.15l.07.24a2.35,2.35,0,0,0-.19.25H57.6a.11.11,0,0,0-.13.09l-.11.39A.13.13,0,0,0,57.43,132Zm.77-.13a.87.87,0,0,1,1.06-.61.86.86,0,0,1,.6,1.06.87.87,0,0,1-1.06.61A.86.86,0,0,1,58.2,131.91Z"/><path class="cls-2" d="M123.72,87.08l.23.12a1.1,1.1,0,0,0,0,.31l-.19.17a.12.12,0,0,0,0,.16l.2.35a.13.13,0,0,0,.15,0l.24-.07.25.19v.25a.11.11,0,0,0,.09.13l.39.11a.12.12,0,0,0,.15-.07l.11-.22a1.55,1.55,0,0,0,.31,0l.17.19a.14.14,0,0,0,.16,0l.35-.19a.15.15,0,0,0,.06-.16l-.08-.24a1.16,1.16,0,0,0,.2-.24h.25a.14.14,0,0,0,.13-.09l.1-.39a.13.13,0,0,0-.06-.15l-.22-.12c0-.1,0-.21,0-.31l.18-.17a.12.12,0,0,0,0-.16l-.2-.34a.12.12,0,0,0-.08-.06.08.08,0,0,0-.07,0l-.24.07A1.64,1.64,0,0,0,126,86l0-.25a.14.14,0,0,0-.1-.13l-.39-.11a.12.12,0,0,0-.14.07l-.12.22a1.55,1.55,0,0,0-.31,0l-.17-.19a.09.09,0,0,0-.06,0,.12.12,0,0,0-.1,0l-.35.2a.14.14,0,0,0-.06.15l.08.24a1.43,1.43,0,0,0-.19.24h-.25a.15.15,0,0,0-.14.1l-.1.38A.13.13,0,0,0,123.72,87.08Zm.77-.13A.87.87,0,1,1,125.1,88,.87.87,0,0,1,124.49,87Z"/><path class="cls-2" d="M41.57,11.42l-.07-.18a1.27,1.27,0,0,0,.13-.19h.19a.09.09,0,0,0,.09-.08l.06-.3a.1.1,0,0,0-.06-.1l-.18-.08a1,1,0,0,0,0-.23l.12-.13a.09.09,0,0,0,0-.13l-.17-.24a.08.08,0,0,0-.11,0l-.18.07a1.37,1.37,0,0,0-.2-.13V9.47a.1.1,0,0,0-.08-.1l-.3,0a.08.08,0,0,0-.1,0l-.08.18a1.06,1.06,0,0,0-.23,0l-.13-.13a.11.11,0,0,0-.13,0l-.24.17a.1.1,0,0,0,0,.12l.07.17a.82.82,0,0,0-.12.2h-.19a.12.12,0,0,0-.1.08l-.05.3a.08.08,0,0,0,0,.07s0,0,0,0l.18.07a1,1,0,0,0,0,.23l-.13.14a.09.09,0,0,0,0,.12l.17.25a.09.09,0,0,0,.12,0l.17-.07a1.37,1.37,0,0,0,.2.13v.19a.08.08,0,0,0,0,.05s0,0,.06,0l.3.06a.11.11,0,0,0,.11-.06l.07-.18a.93.93,0,0,0,.23,0l.14.13a.09.09,0,0,0,.12,0l.25-.17A.08.08,0,0,0,41.57,11.42Zm-.5-.3a.65.65,0,0,1-.9-.17.64.64,0,0,1,.16-.9.65.65,0,1,1,.74,1.07Z"/><path class="cls-2" d="M64,14a2.12,2.12,0,1,0-2.77,1.14A2.1,2.1,0,0,0,64,14Z"/><path class="cls-2" d="M105.89,102a.09.09,0,0,1,.06.11l-.07.25a.09.09,0,1,1-.17,0l.07-.25A.09.09,0,0,1,105.89,102Z"/><path class="cls-2" d="M106.4,100.08a.1.1,0,0,1,.07.11l-.07.25s-.06.08-.11.06a.08.08,0,0,1-.06-.1l.07-.26A.09.09,0,0,1,106.4,100.08Z"/><path class="cls-2" d="M106.33,102a.09.09,0,0,1,.06.07l.06.25a.07.07,0,0,1-.06.1.07.07,0,0,1-.1-.06l-.07-.25a.1.1,0,0,1,.06-.11Z"/><path class="cls-2" d="M105.83,100.08a.09.09,0,0,1,.06.06l.06.25a.08.08,0,1,1-.16,0l-.07-.25a.09.09,0,0,1,.06-.11Z"/><path class="cls-2" d="M106.71,101.77l0,0,.18.18a.09.09,0,0,1,0,.13.09.09,0,0,1-.12,0l-.18-.19a.07.07,0,0,1,0-.12A.06.06,0,0,1,106.71,101.77Z"/><path class="cls-2" d="M105.33,100.37l0,0,.18.19a.09.09,0,0,1,0,.12.11.11,0,0,1-.13,0l-.18-.19a.09.09,0,0,1,0-.12A.1.1,0,0,1,105.33,100.37Z"/><path class="cls-2" d="M106.93,101.38l.26.07a.1.1,0,0,1,.06.11.09.09,0,0,1-.11.06l-.25-.07a.08.08,0,0,1-.06-.11A.09.09,0,0,1,106.93,101.38Z"/><path class="cls-2" d="M105,100.86l.26.07a.1.1,0,0,1,.06.11.09.09,0,0,1-.11.06L105,101a.08.08,0,0,1-.06-.1A.09.09,0,0,1,105,100.86Z"/><path class="cls-2" d="M107.19,100.87a.11.11,0,0,1,.06.07.09.09,0,0,1-.06.1l-.26.07a.09.09,0,0,1-.1-.06.09.09,0,0,1,.06-.11l.25-.06Z"/><path class="cls-2" d="M105.28,101.38a.09.09,0,0,1,.07.06.09.09,0,0,1-.07.1l-.25.07a.08.08,0,0,1-.1-.06.08.08,0,0,1,.06-.11l.25-.06Z"/><path class="cls-2" d="M106.9,100.37s0,0,0,0a.08.08,0,0,1,0,.12l-.18.18a.09.09,0,0,1-.13,0,.09.09,0,0,1,0-.12l.19-.18A.08.08,0,0,1,106.9,100.37Z"/><path class="cls-2" d="M105.5,101.76l0,0a.07.07,0,0,1,0,.12l-.18.19a.11.11,0,0,1-.13,0,.09.09,0,0,1,0-.12l.19-.19A.08.08,0,0,1,105.5,101.76Z"/><path class="cls-2" d="M19.53,48.54a.09.09,0,0,0-.12,0l-.21.15a.1.1,0,0,0,0,.12.1.1,0,0,0,.12,0l.22-.15A.08.08,0,0,0,19.53,48.54Z"/><path class="cls-2" d="M21.16,47.42a.08.08,0,0,0-.12,0l-.22.15a.09.09,0,1,0,.1.14l.21-.15A.09.09,0,0,0,21.16,47.42Z"/><path class="cls-2" d="M19.39,48.12a.12.12,0,0,0-.08,0l-.26,0a.09.09,0,0,0-.08.1.09.09,0,0,0,.09.08l.26,0a.1.1,0,0,0,.08-.1S19.39,48.13,19.39,48.12Z"/><path class="cls-2" d="M21.35,48a.09.09,0,0,0-.08,0L21,48a.09.09,0,0,0-.08.09.08.08,0,0,0,.09.08l.26,0a.08.08,0,0,0,.08-.09S21.36,48,21.35,48Z"/><path class="cls-2" d="M19.47,47.69s0,0,0,0l-.23-.12a.09.09,0,0,0-.08.16l.24.11a.09.09,0,0,0,.11-.12Z"/><path class="cls-2" d="M21.24,48.54a0,0,0,0,0,0,0L21,48.39a.09.09,0,0,0-.07.16l.23.11a.09.09,0,0,0,.12,0A.08.08,0,0,0,21.24,48.54Z"/><path class="cls-2" d="M19.75,47.35l-.14-.21a.09.09,0,1,0-.15.09l.15.22a.09.09,0,0,0,.14-.1Z"/><path class="cls-2" d="M20.87,49l-.15-.21a.09.09,0,1,0-.14.1l.15.21a.08.08,0,0,0,.12,0A.09.09,0,0,0,20.87,49Z"/><path class="cls-2" d="M20.15,46.94a.08.08,0,0,0-.08,0A.08.08,0,0,0,20,47l0,.26a.1.1,0,0,0,.1.08.08.08,0,0,0,.07-.09V47S20.16,47,20.15,46.94Z"/><path class="cls-2" d="M20.3,48.9a.06.06,0,0,0-.07,0,.09.09,0,0,0-.09.09l0,.26a.09.09,0,0,0,.1.08.08.08,0,0,0,.08-.09l0-.26S20.31,48.92,20.3,48.9Z"/><path class="cls-2" d="M20.72,47.05l0,0a.08.08,0,0,0-.11,0l-.12.24a.09.09,0,0,0,.05.11.08.08,0,0,0,.11,0l.11-.24A.08.08,0,0,0,20.72,47.05Z"/><path class="cls-2" d="M19.87,48.82l0,0a.09.09,0,0,0-.12.05l-.11.23a.09.09,0,0,0,0,.12.08.08,0,0,0,.11,0l.12-.24A.1.1,0,0,0,19.87,48.82Z"/><path class="cls-2" d="M68.3,1.26a.29.29,0,0,1,.08-.4l.11-.07a.28.28,0,1,1,.32.47l-.11.08A.29.29,0,0,1,68.3,1.26Z"/><path class="cls-2" d="M65.5,3.19a.28.28,0,0,1,.08-.4l.1-.08a.29.29,0,0,1,.33.48l-.11.07A.29.29,0,0,1,65.5,3.19Z"/><path class="cls-2" d="M67.26.58a.28.28,0,0,1-.05-.22l0-.13a.29.29,0,1,1,.56.11l0,.13a.29.29,0,0,1-.34.23A.26.26,0,0,1,67.26.58Z"/><path class="cls-2" d="M66.63,3.92a.25.25,0,0,1,0-.21l0-.13a.29.29,0,0,1,.57.1l0,.13a.28.28,0,0,1-.33.23A.3.3,0,0,1,66.63,3.92Z"/><path class="cls-2" d="M66,.84,66,.73A.29.29,0,0,1,66.43.4l.08.11A.29.29,0,0,1,66,.84Z"/><path class="cls-2" d="M68,3.64l-.08-.11a.28.28,0,0,1,.08-.4.29.29,0,0,1,.4.08l.07.11a.28.28,0,1,1-.47.32Z"/><path class="cls-2" d="M65.22,1.86a.3.3,0,0,1,0-.21.29.29,0,0,1,.34-.23l.13,0a.29.29,0,0,1-.1.57l-.13,0A.28.28,0,0,1,65.22,1.86Z"/><path class="cls-2" d="M68.56,2.49a.28.28,0,0,1,0-.22A.28.28,0,0,1,68.85,2l.13,0a.29.29,0,0,1,.23.34.28.28,0,0,1-.33.23l-.13,0A.31.31,0,0,1,68.56,2.49Z"/><path class="cls-2" d="M32,122.71l-.28-.14a.44.44,0,0,1-.2-.61l.14-.28a.45.45,0,0,1,.61-.2l.28.14a.46.46,0,0,1,.2.61l-.14.28A.45.45,0,0,1,32,122.71Zm1.37,2.08.15-.28a.46.46,0,0,0-.21-.61l-.28-.14a.46.46,0,0,0-.61.21l-.14.28a.46.46,0,0,0,.2.61l.29.14A.44.44,0,0,0,33.32,124.79Zm-.13-1.46.29.14a.44.44,0,0,0,.6-.2l.14-.28a.44.44,0,0,0-.2-.61l-.28-.14a.46.46,0,0,0-.61.2l-.14.28A.46.46,0,0,0,33.19,123.33Zm-2.28.77.28.14a.45.45,0,0,0,.61-.21l.14-.28a.46.46,0,0,0-.2-.61l-.28-.14a.45.45,0,0,0-.61.21l-.14.28A.45.45,0,0,0,30.91,124.1Z"/><path class="cls-2" d="M52.75,114.51a1.67,1.67,0,0,0-.08.2,1.55,1.55,0,0,0,0,.21l-.31.16a.18.18,0,0,0-.09.2l.1.38a.18.18,0,0,0,.18.13l.35,0a1.07,1.07,0,0,0,.3.3l0,.35a.17.17,0,0,0,.13.18l.37.11a.18.18,0,0,0,.2-.09l.17-.31a1.46,1.46,0,0,0,.41-.11l.29.19a.17.17,0,0,0,.22,0l.28-.27a.18.18,0,0,0,0-.22l-.19-.3a1.19,1.19,0,0,0,.08-.2.76.76,0,0,0,0-.21l.32-.16a.18.18,0,0,0,.09-.2l-.1-.37a.19.19,0,0,0-.13-.13h0l-.35,0a1.07,1.07,0,0,0-.3-.3l0-.35a.17.17,0,0,0-.13-.18l-.37-.1a.18.18,0,0,0-.21.08l-.16.32a1.45,1.45,0,0,0-.41.1l-.29-.19,0,0a.16.16,0,0,0-.17,0l-.28.27a.17.17,0,0,0,0,.22Zm1.29,0a.56.56,0,0,1,.4.68.57.57,0,0,1-.69.4.57.57,0,0,1-.4-.69A.55.55,0,0,1,54,114.51Z"/><path class="cls-2" d="M50.26,116l.11.06a.78.78,0,0,0,0,.16l-.09.09a.06.06,0,0,0,0,.08l.1.17a.05.05,0,0,0,.07,0l.12,0,.13.1v.13a.08.08,0,0,0,0,.07l.2.05a.05.05,0,0,0,.07,0l.06-.12a.41.41,0,0,0,.16,0l.09.1a.06.06,0,0,0,.08,0l.17-.1a.05.05,0,0,0,0-.07l0-.13.09-.12h.13a.06.06,0,0,0,.07,0l.05-.2a.08.08,0,0,0,0-.08l-.12-.06a.39.39,0,0,0,0-.15l.1-.09a.06.06,0,0,0,0-.08l-.1-.18,0,0h0l-.13,0a.58.58,0,0,0-.12-.1v-.12a.06.06,0,0,0,0-.07l-.2-.05a.07.07,0,0,0-.08,0l-.06.11-.15,0-.09-.09,0,0s0,0,0,0l-.18.11a.06.06,0,0,0,0,.07l0,.12a1.47,1.47,0,0,0-.1.13h-.12a.08.08,0,0,0-.07,0l-.05.2A.05.05,0,0,0,50.26,116Zm.39-.06a.44.44,0,0,1,.54-.31.45.45,0,0,1,.31.54.44.44,0,0,1-.85-.23Z"/><path class="cls-2" d="M39.35,121a1.43,1.43,0,1,0-1.26,1.58A1.43,1.43,0,0,0,39.35,121Z"/><path class="cls-2" d="M109.38,79.17,109.1,79a.45.45,0,0,1-.2-.6l.14-.29a.46.46,0,0,1,.61-.2l.28.14a.46.46,0,0,1,.2.61L110,79A.45.45,0,0,1,109.38,79.17Zm1.38,2.08.14-.29a.44.44,0,0,0-.21-.6l-.28-.15a.46.46,0,0,0-.61.21l-.14.28a.45.45,0,0,0,.21.61l.28.14A.46.46,0,0,0,110.76,81.25Zm-.13-1.47.28.15a.46.46,0,0,0,.61-.21l.14-.28a.46.46,0,0,0-.21-.61l-.28-.14a.46.46,0,0,0-.61.2l-.14.29A.44.44,0,0,0,110.63,79.78Zm-2.29.77.28.14a.46.46,0,0,0,.61-.2l.14-.29a.44.44,0,0,0-.2-.6l-.28-.15a.45.45,0,0,0-.61.21l-.14.28A.46.46,0,0,0,108.34,80.55Z"/><path class="cls-2" d="M116.78,77.42A1.43,1.43,0,1,0,115.52,79,1.43,1.43,0,0,0,116.78,77.42Z"/><path class="cls-2" d="M37.7,112.06a.19.19,0,0,1-.09-.26l0-.08a.19.19,0,0,1,.26-.09.19.19,0,0,1,.09.26l0,.08A.19.19,0,0,1,37.7,112.06Z"/><path class="cls-2" d="M36.67,114.12a.21.21,0,0,1-.08-.27l0-.08a.19.19,0,0,1,.26-.08A.21.21,0,0,1,37,114l0,.08A.2.2,0,0,1,36.67,114.12Z"/><path class="cls-2" d="M36.86,112a.18.18,0,0,1-.1-.11l0-.09a.19.19,0,0,1,.12-.24.2.2,0,0,1,.25.12l0,.08A.2.2,0,0,1,37,112,.19.19,0,0,1,36.86,112Z"/><path class="cls-2" d="M37.59,114.18a.18.18,0,0,1-.1-.11l0-.09a.19.19,0,0,1,.12-.24.19.19,0,0,1,.25.12l0,.08a.2.2,0,0,1-.13.25A.17.17,0,0,1,37.59,114.18Z"/><path class="cls-2" d="M36.22,112.55l-.08,0a.19.19,0,0,1-.09-.26.21.21,0,0,1,.26-.09l.08,0a.19.19,0,0,1,.09.26A.2.2,0,0,1,36.22,112.55Z"/><path class="cls-2" d="M38.27,113.58l-.07,0a.19.19,0,1,1,.17-.35l.08,0a.2.2,0,1,1-.18.35Z"/><path class="cls-2" d="M36.07,113.43a.22.22,0,0,1-.09-.12.18.18,0,0,1,.12-.24l.08,0a.19.19,0,0,1,.25.12.21.21,0,0,1-.12.25l-.09,0A.26.26,0,0,1,36.07,113.43Z"/><path class="cls-2" d="M38.26,112.7a.19.19,0,0,1-.1-.12.18.18,0,0,1,.12-.24l.08,0a.19.19,0,0,1,.25.12.2.2,0,0,1-.12.25l-.09,0A.22.22,0,0,1,38.26,112.7Z"/><path class="cls-2" d="M97.94,7.66l.18.26a.46.46,0,0,1-.12.63l-.26.18a.46.46,0,0,1-.63-.11l-.18-.27a.45.45,0,0,1,.12-.63l.26-.17A.45.45,0,0,1,97.94,7.66Zm-.19-2.48-.26.18a.45.45,0,0,0-.12.63l.18.26a.45.45,0,0,0,.63.11l.26-.17a.47.47,0,0,0,.12-.64l-.18-.26A.45.45,0,0,0,97.75,5.18Zm-.6,1.34L97,6.26a.45.45,0,0,0-.63-.12l-.26.18A.45.45,0,0,0,96,7l.18.26a.45.45,0,0,0,.63.12L97,7.15A.45.45,0,0,0,97.15,6.52ZM99.52,7l-.18-.26a.45.45,0,0,0-.63-.12l-.26.18a.45.45,0,0,0-.12.63l.18.26a.45.45,0,0,0,.63.12l.26-.18A.45.45,0,0,0,99.52,7Z"/><path class="cls-2" d="M12.83,50.44l-.19.11-.16.13-.34-.08a.17.17,0,0,0-.2.1l-.17.35a.19.19,0,0,0,.05.21l.28.22a1.49,1.49,0,0,0,0,.42l-.24.25a.2.2,0,0,0,0,.23l.22.31a.17.17,0,0,0,.21.07l.32-.13a1.46,1.46,0,0,0,.38.18l.11.33a.17.17,0,0,0,.18.13l.38,0a.17.17,0,0,0,.16-.15l.05-.35.19-.1.16-.14.34.08a.17.17,0,0,0,.2-.1l.17-.34a.19.19,0,0,0,0-.18s0,0,0,0l-.28-.21a1.56,1.56,0,0,0,0-.43l.24-.25a.18.18,0,0,0,0-.22l-.22-.32a.18.18,0,0,0-.21-.07l-.33.14a1.23,1.23,0,0,0-.38-.19l-.1-.33,0,0a.18.18,0,0,0-.16-.08l-.38,0a.18.18,0,0,0-.16.15Zm1,.83a.56.56,0,1,1-.78-.14A.56.56,0,0,1,13.82,51.27Z"/><path class="cls-2" d="M10,50l0,.12a.51.51,0,0,0-.09.13H9.8a.06.06,0,0,0-.06.05l0,.2a.07.07,0,0,0,0,.07l.12.05,0,.16-.08.09a.05.05,0,0,0,0,.08l.11.17a.07.07,0,0,0,.08,0l.12-.05.13.08v.13a.08.08,0,0,0,.05.07l.2,0a.07.07,0,0,0,.08,0l.05-.12.15,0,.09.09a.08.08,0,0,0,.08,0l.17-.12a.07.07,0,0,0,0-.08L11.1,51l.09-.13h.12a.11.11,0,0,0,.07-.06l0-.2s0,0,0-.05,0,0,0,0l-.11-.05a.83.83,0,0,0,0-.15l.09-.1a.08.08,0,0,0,0-.08L11.2,50a.08.08,0,0,0-.08,0L11,50a.38.38,0,0,0-.13-.09v-.16a.05.05,0,0,0,0,0l-.2,0a.07.07,0,0,0-.07,0l0,.12-.15,0-.1-.09a.06.06,0,0,0-.08,0l-.17.11A.08.08,0,0,0,10,50Zm.34.21a.44.44,0,0,1,.5.72.44.44,0,0,1-.61-.11A.43.43,0,0,1,10.31,50.18Z"/><path class="cls-2" d="M90.62,5.59a1.43,1.43,0,1,0,1.87-.77A1.43,1.43,0,0,0,90.62,5.59Z"/><path class="cls-2" d="M11.35,84.92a.19.19,0,0,1,0,.27l-.07,0a.19.19,0,1,1-.22-.32l.07,0A.19.19,0,0,1,11.35,84.92Z"/><path class="cls-2" d="M13.25,83.62a.19.19,0,0,1-.05.27l-.07,0a.19.19,0,1,1-.22-.32l.07-.05A.19.19,0,0,1,13.25,83.62Z"/><path class="cls-2" d="M12.06,85.38a.17.17,0,0,1,0,.14v.09a.19.19,0,1,1-.38-.07v-.09a.2.2,0,0,1,.23-.15A.17.17,0,0,1,12.06,85.38Z"/><path class="cls-2" d="M12.48,83.12a.23.23,0,0,1,0,.14l0,.09a.19.19,0,1,1-.38-.07v-.09a.2.2,0,0,1,.23-.15A.17.17,0,0,1,12.48,83.12Z"/><path class="cls-2" d="M12.89,85.2l0,.08a.19.19,0,1,1-.32.22l0-.08a.19.19,0,0,1,0-.27A.2.2,0,0,1,12.89,85.2Z"/><path class="cls-2" d="M11.59,83.31l.05.07a.19.19,0,0,1-.32.22l-.05-.07a.19.19,0,0,1,.32-.22Z"/><path class="cls-2" d="M13.44,84.51a.19.19,0,0,1,0,.15.2.2,0,0,1-.23.15l-.08,0a.19.19,0,0,1-.16-.22.2.2,0,0,1,.23-.16l.08,0A.2.2,0,0,1,13.44,84.51Z"/><path class="cls-2" d="M11.18,84.09a.19.19,0,0,1,0,.15.2.2,0,0,1-.23.15l-.08,0a.19.19,0,0,1-.16-.22A.2.2,0,0,1,11,84l.08,0A.2.2,0,0,1,11.18,84.09Z"/><g class="cls-1"><path class="cls-3" d="M64.83,22.23,34.47,30.65C28,57,30.53,85.05,49.74,97.53,73.76,86,87.5,58.34,91.57,31.91Z"/><path class="cls-4" d="M94,50.08l.17-.62c.16-.55.32-1.1.47-1.65.07-.26.14-.51.2-.77s.12-.42.17-.63.1-.41.16-.62c.13-.54.27-1.08.39-1.62.09-.36.18-.72.26-1.08l.36-1.66c.07-.35.15-.69.22-1,.12-.6.23-1.2.35-1.81,0-.29.11-.58.16-.87q.24-1.34.45-2.67l-5.74-3.13q-.21,1.33-.45,2.67c-.05.29-.11.59-.17.88-.11.6-.22,1.2-.34,1.81-.07.34-.15.69-.22,1L90,40c-.09.36-.17.72-.26,1.08-.13.54-.26,1.09-.4,1.63s-.21.83-.32,1.25c-.07.25-.13.51-.2.76-.15.55-.31,1.1-.47,1.65-.06.21-.11.42-.18.62-.22.75-.44,1.49-.68,2.23l-.12.39c-.19.58-.38,1.16-.58,1.74-.28.82-.57,1.65-.87,2.47l-.11.29c-.34.92-.69,1.82-1.06,2.73-.14.35-.28.69-.43,1s-.38.92-.58,1.38-.31.72-.47,1.08-.4.89-.61,1.33-.38.83-.58,1.24-.31.65-.47,1-.43.86-.65,1.29-.31.62-.48.92c-.31.61-.64,1.21-1,1.81l-.15.27c-.39.69-.78,1.38-1.19,2.06-.09.16-.2.33-.3.49-.3.5-.6,1-.91,1.49l-.41.64c-.31.49-.63,1-1,1.45l-.31.46c-.41.61-.84,1.21-1.26,1.8-.62.86-1.25,1.69-1.89,2.51l-.52.65c-.5.62-1,1.23-1.52,1.83-.23.27-.45.54-.68.8l-.39.44c-.44.49-.89,1-1.35,1.46l-.17.19c-.5.53-1,1-1.54,1.56-.13.14-.27.27-.41.4-.42.41-.85.81-1.29,1.21l-.38.36c-.55.49-1.09,1-1.65,1.44l-.42.35-1.33,1.07-.58.45-1.19.89-.76.54c-.4.29-.81.56-1.23.84l-.71.47c-.28.19-.57.36-.86.54-.46.29-.93.57-1.4.85l-.94.53-1.37.74c-.58.31-1.15.61-1.74.89l5.74,3.12c.45-.21.9-.43,1.34-.66l.4-.22c.47-.24.92-.49,1.38-.75l.93-.52,1.4-.86c.22-.13.45-.26.66-.4l.2-.13.71-.48c.42-.27.83-.55,1.23-.83l.76-.55.67-.48.52-.4.58-.45c.45-.35.89-.71,1.33-1.08L68,92.5l.13-.11c.51-.44,1-.88,1.52-1.33L70,90.7l.75-.69.54-.52.42-.4c.5-.5,1-1,1.48-1.51l.06-.06.17-.18c.45-.48.9-1,1.34-1.46l.39-.44.34-.39c.12-.13.23-.28.34-.41.52-.6,1-1.22,1.52-1.84l.34-.4.18-.24c.64-.83,1.27-1.66,1.89-2.51l.06-.08c.41-.57.81-1.14,1.2-1.72l.31-.47.59-.87.36-.57c.14-.21.28-.43.41-.65.31-.49.62-1,.92-1.48l.3-.5.09-.16c.37-.62.74-1.26,1.09-1.89l.15-.28c.29-.52.58-1,.86-1.58l.12-.22.47-.93c.22-.43.44-.85.65-1.28s.31-.65.47-1l.42-.88.17-.36.6-1.34.48-1.08c.19-.45.38-.91.58-1.37.11-.28.23-.55.34-.83l.09-.22c.36-.9.71-1.81,1-2.72l.11-.3c.3-.82.59-1.64.87-2.47l.1-.28.48-1.45.12-.39C93.5,51.57,93.73,50.82,94,50.08Z"/><path class="cls-5" d="M63.93,26.69,37.35,34.07c-2.64,12.12-3.06,23.65-1.21,33.5,2.12,11.23,7,19.68,14.56,25.15,9.67-5.09,17.89-13.25,24.46-24.28A100.71,100.71,0,0,0,87.34,35.17Z"/><path class="cls-6" d="M72.92,30.5C67.34,42.28,61,53.76,52.86,64A129.24,129.24,0,0,1,39.8,78a34,34,0,0,0,11,14.13c9.46-5.06,17.52-13.11,24-23.94a100.51,100.51,0,0,0,12-32.66Z"/><polygon class="cls-7" points="69.31 46.15 72.28 50.8 52.72 69.09 52 68.65 48.85 51.69 49.56 52.13 54.55 59.95 68.6 45.71 69.31 46.15"/><polygon class="cls-8" points="68.6 45.71 71.56 50.37 52 68.65 44.05 56.17 48.85 51.69 53.83 59.51 68.6 45.71"/></g><g class="cls-9"><path class="cls-10" d="M9.24,97.32a27.39,27.39,0,0,0-3,5.42,4.24,4.24,0,0,0-.32,2.59,1.08,1.08,0,0,0,.64.63,3.17,3.17,0,0,0,.52.17c.21,0,.41.06.63.07a18.71,18.71,0,0,0,5.73-1c1.93-.61,3.84-1.36,5.73-2.17a206.72,206.72,0,0,0,22-11.41Q51.9,85.29,62.24,78.33c3.44-2.32,6.87-4.65,10.25-7.06s6.74-4.83,10.05-7.33,6.6-5,9.83-7.61,6.46-5.22,9.64-7.88a235.85,235.85,0,0,0,18.25-16.67c1.4-1.48,2.77-3,4-4.52a31.36,31.36,0,0,0,3.25-4.72,8.5,8.5,0,0,0,.86-2.22,2.53,2.53,0,0,0,0-.73.81.81,0,0,0-.12-.36,2.8,2.8,0,0,0-1.62-.76,13.66,13.66,0,0,0-2.72-.21,36.55,36.55,0,0,0-6,.65c-2,.36-4,.84-6.06,1.32s-4,1.06-6,1.65-4,1.2-6,1.8c1.85-1,3.74-1.93,5.63-2.86s3.84-1.75,5.8-2.56,4-1.53,6-2.17a39.43,39.43,0,0,1,6.39-1.49,15.48,15.48,0,0,1,3.56-.1,9,9,0,0,1,2,.41,5.85,5.85,0,0,1,2.11,1.21,5.21,5.21,0,0,1,1.43,2.32,6.54,6.54,0,0,1,.21,2.4,12.63,12.63,0,0,1-1,3.76,32.91,32.91,0,0,1-3.37,5.92c-1.26,1.81-2.59,3.52-4,5.18-2.77,3.31-5.7,6.41-8.72,9.41s-6.13,5.88-9.28,8.71-6.37,5.56-9.63,8.26-6.62,5.29-10,7.85-6.83,5-10.32,7.4-7,4.72-10.62,7C58.91,88.76,51.54,93,44,96.73c-3.8,1.89-7.64,3.68-11.56,5.32a119.42,119.42,0,0,1-12,4.37c-2.06.6-4.14,1.14-6.28,1.54a18.89,18.89,0,0,1-6.7.28,7.7,7.7,0,0,1-.91-.25,3.88,3.88,0,0,1-.9-.47,2.75,2.75,0,0,1-1.23-1.79,3.87,3.87,0,0,1,.15-1.91,8.09,8.09,0,0,1,.69-1.55,17.93,17.93,0,0,1,1.89-2.63A29.52,29.52,0,0,1,9.24,97.32Z"/><path class="cls-11" d="M65.29,83.05c-7.12,4.51-14.4,8.77-21.91,12.62-3.76,1.92-7.55,3.77-11.42,5.46s-7.7,3.24-11.69,4.54l-.29.09c-1.91.6-3.85,1.15-5.83,1.57l-.38.08a18.24,18.24,0,0,1-6.19.42l-.25,0c-.21,0-.43-.11-.64-.17l-.15-.05a3.34,3.34,0,0,1-.76-.37,2.4,2.4,0,0,1-1.1-1.55,4.25,4.25,0,0,1,.39-2.51,10,10,0,0,1,.77-1.53,25.87,25.87,0,0,1,2.32-3.13l.12.13a27.86,27.86,0,0,0-1.58,2.61,7.79,7.79,0,0,0-1,2.9A2.45,2.45,0,0,0,6,106a1.44,1.44,0,0,0,.66.46,5.81,5.81,0,0,0,.63.15,4.62,4.62,0,0,0,.64.06,19.12,19.12,0,0,0,5.61-.91c2-.57,3.92-1.28,5.84-2A191.56,191.56,0,0,0,41.74,92.63q10.93-6.21,21.43-13.16c3.49-2.31,7-4.66,10.38-7.09s6.65-4.76,9.91-7.22,6.68-5.08,10-7.71,6.41-5.22,9.56-7.89a223.67,223.67,0,0,0,18.2-17c1.39-1.51,2.76-3,4-4.65a30.54,30.54,0,0,0,3.29-5,9,9,0,0,0,.88-2.53,3.48,3.48,0,0,0,0-.76,1.61,1.61,0,0,0-.08-.38,2.07,2.07,0,0,0-1.16-1.08,6.82,6.82,0,0,0-2.68-.66,18.86,18.86,0,0,0-3,.06c-1,.09-2,.23-3.08.41s-2,.38-3,.61-2.09.5-3.13.77-1.91.52-2.86.8-2.15.65-3.23,1c-2,.63-4,1.32-6.05,2l-.09-.12c1.13-.54,2.26-1,3.4-1.57,2-.86,3.92-1.69,5.92-2.46.71-.27,1.41-.54,2.13-.79,1.31-.47,2.65-.91,4-1.32.64-.19,1.28-.37,1.93-.54a38,38,0,0,1,4.56-1c.52-.07,1-.13,1.58-.16a13.6,13.6,0,0,1,2,0,9.2,9.2,0,0,1,1.15.13,7.23,7.23,0,0,1,.87.2,5.22,5.22,0,0,1,2.15,1.16,4,4,0,0,1,1,1.53,3.76,3.76,0,0,1,.21.78,5.17,5.17,0,0,1,.09.95,8.49,8.49,0,0,1-.12,1.36,10.63,10.63,0,0,1-.54,1.94c-.2.56-.44,1.09-.68,1.61a32.09,32.09,0,0,1-2.48,4.19c-.32.47-.65.92-1,1.38-1,1.32-2,2.58-3,3.82l-.93,1.09c-2.56,3-5.25,5.74-8,8.44l-.54.52c-2.94,2.87-6,5.63-9,8.34s-6.37,5.51-9.63,8.19-6.59,5.26-10,7.8-6.8,5-10.27,7.38S68.86,80.8,65.29,83.05Z"/><path class="cls-11" d="M9.24,97.32a26.35,26.35,0,0,0-3.43,5.23,4.74,4.74,0,0,0-.54,2.94,1.74,1.74,0,0,0,.87,1.11,4.13,4.13,0,0,0,.68.3,6.2,6.2,0,0,0,.75.14,18.06,18.06,0,0,0,6.13-.73,61.55,61.55,0,0,0,5.95-1.92,176.74,176.74,0,0,0,22.66-10.7,353,353,0,0,0,42.06-27.3c6.71-5,13.22-10.26,19.56-15.72a214.73,214.73,0,0,0,18.14-17.28c1.4-1.55,2.75-3.13,4-4.78a31.22,31.22,0,0,0,3.31-5.22,10.13,10.13,0,0,0,.91-2.86,3,3,0,0,0-.72-2.58A4.82,4.82,0,0,0,127,16.84a15,15,0,0,0-3.07-.08,39.19,39.19,0,0,0-6.15,1c-2,.47-4,1-6,1.67-4,1.26-7.91,2.73-11.81,4.26,3.84-1.67,7.73-3.25,11.7-4.6,2-.68,4-1.3,6-1.83a38.49,38.49,0,0,1,6.22-1.15,15.08,15.08,0,0,1,3.22,0,5.55,5.55,0,0,1,3.07,1.27,3.34,3.34,0,0,1,.88,1.52,4.47,4.47,0,0,1,.11,1.7,10.62,10.62,0,0,1-.94,3.13,32,32,0,0,1-3.33,5.43c-1.25,1.7-2.6,3.32-4,4.91-2.78,3.16-5.73,6.16-8.78,9s-6.16,5.71-9.33,8.47c-6.33,5.5-12.84,10.82-19.55,15.86S71.56,77.29,64.5,81.83,50.23,90.69,42.81,94.61c-3.72,2-7.47,3.85-11.28,5.61s-7.68,3.41-11.66,4.79a60,60,0,0,1-6.05,1.79,18.54,18.54,0,0,1-6.3.6,7,7,0,0,1-.79-.18,3.91,3.91,0,0,1-.75-.34,2.11,2.11,0,0,1-1-1.31,5.06,5.06,0,0,1,.63-3.11A26.76,26.76,0,0,1,9.24,97.32Z"/></g><path class="cls-12" d="M3.46,109.62a1.73,1.73,0,1,1-1.73-1.74A1.73,1.73,0,0,1,3.46,109.62Z"/><circle class="cls-13" cx="63.24" cy="77" r="1.73"/><path class="cls-14" d="M100.39,49.35a1.73,1.73,0,1,1-1.73-1.73A1.72,1.72,0,0,1,100.39,49.35Z"/><path class="cls-15" d="M122.79,24.06a1.73,1.73,0,1,1-1.73-1.73A1.73,1.73,0,0,1,122.79,24.06Z"/><path class="cls-16" d="M121.57,16.56a1.73,1.73,0,1,1-1.73-1.73A1.72,1.72,0,0,1,121.57,16.56Z"/><path class="cls-17" d="M115.48,42.63a1.73,1.73,0,1,1-1.73-1.73A1.72,1.72,0,0,1,115.48,42.63Z"/><path class="cls-18" d="M71,78.9a1.73,1.73,0,1,1-1.73-1.73A1.73,1.73,0,0,1,71,78.9Z"/><path class="cls-19" d="M19.23,100.88a1.73,1.73,0,1,1-1.73-1.73A1.72,1.72,0,0,1,19.23,100.88Z"/><path class="cls-20" d="M15.57,100.91a1.73,1.73,0,1,1-1.73-1.72A1.74,1.74,0,0,1,15.57,100.91Z"/><path class="cls-21" d="M60.35,80.6a1.73,1.73,0,1,1-1.73-1.72A1.74,1.74,0,0,1,60.35,80.6Z"/><path class="cls-22" d="M123.45,35.86a1.73,1.73,0,1,1-1.73-1.73A1.72,1.72,0,0,1,123.45,35.86Z"/><path class="cls-23" d="M112,46.28a1.73,1.73,0,1,1-1.73-1.73A1.74,1.74,0,0,1,112,46.28Z"/><path class="cls-24" d="M67.71,78.72A1.73,1.73,0,1,1,66,77,1.73,1.73,0,0,1,67.71,78.72Z"/><path class="cls-25" d="M100.19,55.85a1.73,1.73,0,1,1-1.73-1.73A1.73,1.73,0,0,1,100.19,55.85Z"/><path class="cls-26" d="M74.89,78.42a1.73,1.73,0,1,1-1.73-1.73A1.73,1.73,0,0,1,74.89,78.42Z"/><path class="cls-27" d="M108.74,51A1.73,1.73,0,1,1,107,49.24,1.74,1.74,0,0,1,108.74,51Z"/><path class="cls-28" d="M58.16,89.82a1.73,1.73,0,1,1-1.72-1.73A1.73,1.73,0,0,1,58.16,89.82Z"/><path class="cls-29" d="M23.85,106.84a1.73,1.73,0,1,1-1.73-1.73A1.72,1.72,0,0,1,23.85,106.84Z"/><circle class="cls-30" cx="75.92" cy="76.38" r="1.73"/><path class="cls-31" d="M130.7,37.28A1.73,1.73,0,1,1,129,35.55,1.72,1.72,0,0,1,130.7,37.28Z"/><path class="cls-32" d="M125,37.39a1.73,1.73,0,1,1-1.73-1.73A1.73,1.73,0,0,1,125,37.39Z"/><path class="cls-33" d="M108.33,50.22a1.73,1.73,0,1,1-1.73-1.73A1.73,1.73,0,0,1,108.33,50.22Z"/><path class="cls-34" d="M118.72,42.26A1.73,1.73,0,1,1,117,40.53,1.74,1.74,0,0,1,118.72,42.26Z"/><path class="cls-35" d="M102.72,57.92A1.73,1.73,0,1,1,101,56.19,1.74,1.74,0,0,1,102.72,57.92Z"/><path class="cls-36" d="M61.22,85.48a1.73,1.73,0,1,1-1.72-1.73A1.72,1.72,0,0,1,61.22,85.48Z"/><path class="cls-37" d="M59.11,82.67a1.73,1.73,0,1,1-1.73-1.73A1.73,1.73,0,0,1,59.11,82.67Z"/><circle class="cls-38" cx="44.18" cy="89.33" r="1.73"/><path class="cls-39" d="M23.69,95.19A1.73,1.73,0,1,1,22,93.46,1.73,1.73,0,0,1,23.69,95.19Z"/><path class="cls-40" d="M10.93,107.81a1.73,1.73,0,1,1-1.73-1.73A1.73,1.73,0,0,1,10.93,107.81Z"/><path class="cls-41" d="M41,93.67a1.73,1.73,0,1,1-1.73-1.73A1.73,1.73,0,0,1,41,93.67Z"/><circle class="cls-42" cx="52.91" cy="85.2" r="1.73"/><circle class="cls-43" cx="65.84" cy="76.38" r="1.73"/><path class="cls-44" d="M78.72,66.7A1.73,1.73,0,1,1,77,65,1.74,1.74,0,0,1,78.72,66.7Z"/><path class="cls-45" d="M70.38,73a1.73,1.73,0,1,1-1.73-1.73A1.72,1.72,0,0,1,70.38,73Z"/><path class="cls-46" d="M38.3,93.61a1.73,1.73,0,1,1-1.73-1.73A1.73,1.73,0,0,1,38.3,93.61Z"/><circle class="cls-47" cx="42.07" cy="89.24" r="1.73"/><path class="cls-48" d="M72.52,71a1.73,1.73,0,1,1-1.73-1.72A1.72,1.72,0,0,1,72.52,71Z"/><path class="cls-49" d="M92,59a1.73,1.73,0,1,1-1.73-1.73A1.74,1.74,0,0,1,92,59Z"/><path class="cls-50" d="M99.91,52.08a1.73,1.73,0,1,1-1.73-1.73A1.72,1.72,0,0,1,99.91,52.08Z"/><path class="cls-51" d="M103.14,47.5a1.73,1.73,0,1,1-1.73-1.73A1.72,1.72,0,0,1,103.14,47.5Z"/><path class="cls-52" d="M87.77,64A1.73,1.73,0,1,1,86,62.22,1.73,1.73,0,0,1,87.77,64Z"/><path class="cls-53" d="M89.61,62.12a1.73,1.73,0,1,1-1.73-1.73A1.73,1.73,0,0,1,89.61,62.12Z"/><path class="cls-54" d="M104.87,51.82a1.73,1.73,0,1,1-1.73-1.73A1.73,1.73,0,0,1,104.87,51.82Z"/><path class="cls-55" d="M120,40.25a1.73,1.73,0,1,1-1.73-1.73A1.74,1.74,0,0,1,120,40.25Z"/><path class="cls-56" d="M127.06,34.13a1.73,1.73,0,1,1-1.73-1.73A1.74,1.74,0,0,1,127.06,34.13Z"/><path class="cls-57" d="M126.07,33.15a1.73,1.73,0,1,1-1.73-1.73A1.73,1.73,0,0,1,126.07,33.15Z"/><path class="cls-58" d="M128.66,27.79a1.73,1.73,0,1,1-1.72-1.73A1.73,1.73,0,0,1,128.66,27.79Z"/><path class="cls-59" d="M129.29,22.87a1.73,1.73,0,1,1-1.73-1.73A1.73,1.73,0,0,1,129.29,22.87Z"/><circle class="cls-60" cx="126.17" cy="20.8" r="1.73"/><circle class="cls-61" cx="124.36" cy="15.75" r="1.73"/><path class="cls-62" d="M121.51,15.4a1.73,1.73,0,1,1-1.73-1.73A1.73,1.73,0,0,1,121.51,15.4Z"/><circle class="cls-63" cx="115.88" cy="18.32" r="1.73"/><path class="cls-64" d="M109.43,19.41a1.73,1.73,0,1,1-1.73-1.73A1.73,1.73,0,0,1,109.43,19.41Z"/><path class="cls-65" d="M113.39,20.23a1.73,1.73,0,1,1-1.73-1.73A1.72,1.72,0,0,1,113.39,20.23Z"/><path class="cls-66" d="M110.19,21a1.73,1.73,0,1,1-1.73-1.73A1.73,1.73,0,0,1,110.19,21Z"/><circle class="cls-67" cx="119.17" cy="19.12" r="1.73"/><path class="cls-68" d="M133.05,20.27a1.73,1.73,0,1,1-1.73-1.73A1.74,1.74,0,0,1,133.05,20.27Z"/><path class="cls-69" d="M122.75,31.94A1.73,1.73,0,1,1,121,30.21,1.73,1.73,0,0,1,122.75,31.94Z"/><path class="cls-70" d="M118.44,38.13a1.73,1.73,0,1,1-1.73-1.73A1.73,1.73,0,0,1,118.44,38.13Z"/><path class="cls-71" d="M109.23,42.28a1.73,1.73,0,1,1-1.72-1.73A1.73,1.73,0,0,1,109.23,42.28Z"/><path class="cls-72" d="M92.21,52.66a1.73,1.73,0,1,1-1.73-1.73A1.72,1.72,0,0,1,92.21,52.66Z"/><path class="cls-73" d="M78.13,61.7A1.73,1.73,0,1,1,76.4,60,1.73,1.73,0,0,1,78.13,61.7Z"/><path class="cls-74" d="M95.88,53.42a1.73,1.73,0,1,1-1.73-1.73A1.72,1.72,0,0,1,95.88,53.42Z"/><path class="cls-75" d="M98.51,53.43a1.73,1.73,0,1,1-1.73-1.73A1.72,1.72,0,0,1,98.51,53.43Z"/><path class="cls-76" d="M84.72,67.77A1.73,1.73,0,1,1,83,66,1.73,1.73,0,0,1,84.72,67.77Z"/><path class="cls-77" d="M83.58,67a1.73,1.73,0,1,1-1.73-1.73A1.73,1.73,0,0,1,83.58,67Z"/><path class="cls-78" d="M82.91,67.61a1.73,1.73,0,1,1-1.73-1.73A1.72,1.72,0,0,1,82.91,67.61Z"/><path class="cls-79" d="M83.61,68.35a1.73,1.73,0,1,1-1.73-1.73A1.73,1.73,0,0,1,83.61,68.35Z"/><path class="cls-80" d="M80.77,69A1.73,1.73,0,1,1,79,67.31,1.72,1.72,0,0,1,80.77,69Z"/><path class="cls-81" d="M78.58,70.89a1.73,1.73,0,1,1-1.72-1.73A1.73,1.73,0,0,1,78.58,70.89Z"/><path class="cls-82" d="M73.56,73.92a1.73,1.73,0,1,1-1.73-1.72A1.72,1.72,0,0,1,73.56,73.92Z"/><circle class="cls-83" cx="70.39" cy="75.17" r="1.73"/><circle class="cls-84" cx="70.04" cy="74.39" r="1.73"/><path class="cls-85" d="M77,71.32a1.73,1.73,0,1,1-1.73-1.73A1.73,1.73,0,0,1,77,71.32Z"/><path class="cls-86" d="M92.29,61.81a1.73,1.73,0,1,1-1.73-1.73A1.73,1.73,0,0,1,92.29,61.81Z"/><path class="cls-87" d="M98.54,55.14a1.73,1.73,0,1,1-1.73-1.73A1.73,1.73,0,0,1,98.54,55.14Z"/><path class="cls-88" d="M103.28,50.78a1.73,1.73,0,1,1-1.73-1.73A1.73,1.73,0,0,1,103.28,50.78Z"/><path class="cls-89" d="M102.65,52.5a1.73,1.73,0,1,1-1.73-1.73A1.73,1.73,0,0,1,102.65,52.5Z"/><path class="cls-90" d="M86,68.93a1.73,1.73,0,1,1-1.73-1.73A1.72,1.72,0,0,1,86,68.93Z"/><path class="cls-91" d="M82.46,70.88a1.73,1.73,0,1,1-1.73-1.73A1.73,1.73,0,0,1,82.46,70.88Z"/><path class="cls-92" d="M64.29,83a1.73,1.73,0,1,1-1.73-1.73A1.73,1.73,0,0,1,64.29,83Z"/><path class="cls-93" d="M52,90.85a1.73,1.73,0,1,1-1.73-1.73A1.73,1.73,0,0,1,52,90.85Z"/><path class="cls-94" d="M42.3,96.42a1.73,1.73,0,1,1-1.73-1.73A1.73,1.73,0,0,1,42.3,96.42Z"/><path class="cls-95" d="M34.85,98.06a1.73,1.73,0,1,1-1.73-1.73A1.72,1.72,0,0,1,34.85,98.06Z"/><path class="cls-96" d="M30,99.86a1.73,1.73,0,1,1-1.73-1.73A1.72,1.72,0,0,1,30,99.86Z"/><path class="cls-97" d="M24.38,101.11a1.73,1.73,0,1,1-1.73-1.73A1.72,1.72,0,0,1,24.38,101.11Z"/><circle class="cls-98" cx="19" cy="101.75" r="1.73"/><path class="cls-99" d="M26.34,99.72A1.73,1.73,0,1,1,24.61,98,1.74,1.74,0,0,1,26.34,99.72Z"/><path class="cls-100" d="M56.14,84.46a1.73,1.73,0,1,1-1.73-1.73A1.74,1.74,0,0,1,56.14,84.46Z"/><path class="cls-101" d="M76.61,73a1.73,1.73,0,1,1-1.73-1.73A1.72,1.72,0,0,1,76.61,73Z"/><path class="cls-102" d="M88.8,66.21a1.73,1.73,0,1,1-1.73-1.73A1.72,1.72,0,0,1,88.8,66.21Z"/><path class="cls-103" d="M99.58,60.36a1.73,1.73,0,1,1-1.73-1.73A1.73,1.73,0,0,1,99.58,60.36Z"/><path class="cls-104" d="M105.07,57.56a1.73,1.73,0,1,1-1.73-1.73A1.72,1.72,0,0,1,105.07,57.56Z"/><path class="cls-105" d="M104.83,56.76A1.73,1.73,0,1,1,103.1,55,1.73,1.73,0,0,1,104.83,56.76Z"/></g></g></g></svg>