<?xml version="1.0" encoding="UTF-8"?><svg id="Capa_2" xmlns="http://www.w3.org/2000/svg" xmlns:xlink="http://www.w3.org/1999/xlink" viewBox="0 0 124.12 26.95"><defs><style>.cls-1{fill:url(#linear-gradient);}.cls-2{fill:#66bcef;}.cls-3{fill:#fff;}</style><linearGradient id="linear-gradient" x1="3.18" y1=".96" x2="21.1" y2="18.88" gradientTransform="matrix(1, 0, 0, 1, 0, 0)" gradientUnits="userSpaceOnUse"><stop offset="0" stop-color="#1073dd"/><stop offset=".18" stop-color="#1286d6"/><stop offset=".73" stop-color="#1abec5"/><stop offset="1" stop-color="#1dd4bf"/></linearGradient></defs><g id="Layer_1"><g><path class="cls-3" d="M30.77,7.96v3.79h3.85v.84h-3.85v3.85h4.28v.84h-5.3V7.12h5.3v.84h-4.28Z"/><path class="cls-3" d="M39.87,16.3l2.67-6.94h1.07l-3.18,7.93h-1.15l-3.18-7.93h1.09l2.67,6.94Z"/><path class="cls-3" d="M46.46,16.9c-.6-.33-1.07-.81-1.41-1.42-.34-.62-.52-1.33-.52-2.16s.17-1.54,.52-2.16c.35-.61,.82-1.09,1.42-1.42,.6-.33,1.27-.5,2.02-.5s1.42,.17,2.03,.5c.6,.33,1.08,.81,1.42,1.42,.34,.62,.52,1.33,.52,2.16s-.17,1.53-.52,2.15c-.35,.62-.83,1.1-1.44,1.43-.61,.33-1.29,.5-2.03,.5s-1.42-.17-2.01-.5Zm3.46-.74c.45-.24,.81-.6,1.08-1.07,.28-.48,.41-1.07,.41-1.76s-.14-1.29-.41-1.76c-.27-.48-.63-.84-1.07-1.07-.45-.24-.93-.36-1.45-.36s-1.01,.12-1.45,.36c-.45,.24-.8,.6-1.07,1.07-.27,.48-.4,1.07-.4,1.76s.13,1.29,.4,1.76c.27,.48,.62,.84,1.06,1.07,.44,.24,.92,.36,1.45,.36s1.01-.12,1.45-.36Z"/><path class="cls-3" d="M55.34,6.54v10.75h-1.02V6.54h1.02Z"/><path class="cls-3" d="M64.52,9.36v7.93h-1.02v-1.39c-.23,.49-.59,.87-1.07,1.13-.48,.26-1.03,.39-1.63,.39-.95,0-1.72-.29-2.32-.88s-.9-1.44-.9-2.55v-4.63h1v4.52c0,.86,.22,1.52,.65,1.98s1.02,.68,1.76,.68,1.37-.24,1.83-.73c.45-.48,.68-1.2,.68-2.14v-4.31h1.02Z"/><path class="cls-3" d="M68.17,10.21v4.92c0,.48,.09,.82,.28,1,.18,.18,.51,.28,.97,.28h.93v.87h-1.09c-.72,0-1.25-.17-1.6-.5s-.52-.88-.52-1.65v-4.92h-1.1v-.86h1.1v-1.99h1.03v1.99h2.18v.86h-2.18Z"/><path class="cls-3" d="M72,7.64c-.15-.15-.22-.32-.22-.54s.07-.39,.22-.53c.15-.14,.32-.21,.52-.21s.38,.07,.52,.21c.15,.14,.22,.32,.22,.53s-.07,.39-.22,.54c-.15,.15-.32,.22-.52,.22s-.38-.07-.52-.22Zm1.03,1.71v7.93h-1.02v-7.93h1.02Z"/><path class="cls-3" d="M76.8,16.9c-.6-.33-1.07-.81-1.41-1.42-.34-.62-.52-1.33-.52-2.16s.17-1.54,.52-2.16c.35-.61,.82-1.09,1.42-1.42,.6-.33,1.27-.5,2.02-.5s1.42,.17,2.03,.5c.6,.33,1.08,.81,1.42,1.42,.34,.62,.52,1.33,.52,2.16s-.17,1.53-.52,2.15c-.35,.62-.83,1.1-1.44,1.43-.61,.33-1.29,.5-2.03,.5s-1.42-.17-2.01-.5Zm3.46-.74c.45-.24,.81-.6,1.08-1.07,.28-.48,.41-1.07,.41-1.76s-.14-1.29-.41-1.76c-.27-.48-.63-.84-1.07-1.07-.45-.24-.93-.36-1.45-.36s-1.01,.12-1.45,.36c-.45,.24-.8,.6-1.07,1.07-.27,.48-.4,1.07-.4,1.76s.13,1.29,.4,1.76c.27,.48,.62,.84,1.06,1.07,.44,.24,.92,.36,1.45,.36s1.01-.12,1.45-.36Z"/><path class="cls-3" d="M90.71,10.09c.6,.59,.9,1.44,.9,2.55v4.65h-1v-4.53c0-.86-.22-1.52-.65-1.98-.43-.46-1.02-.68-1.76-.68s-1.38,.24-1.83,.73c-.46,.48-.68,1.2-.68,2.13v4.33h-1.02v-7.93h1.02v1.35c.25-.48,.61-.85,1.09-1.11s1.01-.39,1.61-.39c.95,0,1.72,.29,2.32,.88Z"/><path class="cls-3" d="M101.01,13.71h-6.58c.03,.6,.17,1.11,.44,1.54,.26,.43,.61,.75,1.03,.97s.89,.33,1.39,.33c.66,0,1.21-.16,1.66-.48s.75-.75,.89-1.29h1.07c-.19,.77-.61,1.41-1.24,1.9-.63,.49-1.43,.73-2.39,.73-.75,0-1.41-.17-2-.5-.59-.33-1.05-.81-1.39-1.42s-.5-1.33-.5-2.16,.16-1.54,.49-2.16c.33-.62,.79-1.09,1.38-1.42,.59-.33,1.26-.49,2.02-.49s1.42,.16,1.98,.49c.57,.33,1,.77,1.31,1.33,.3,.56,.46,1.17,.46,1.85,0,.35,0,.62-.03,.8Zm-1.36-2.34c-.25-.42-.58-.73-1.01-.94-.43-.21-.89-.32-1.39-.32-.76,0-1.4,.24-1.93,.73s-.83,1.17-.89,2.05h5.58c0-.59-.11-1.09-.36-1.51Z"/><path class="cls-3" d="M104.22,10.21v4.92c0,.48,.09,.82,.28,1,.18,.18,.51,.28,.97,.28h.93v.87h-1.09c-.72,0-1.25-.17-1.6-.5s-.52-.88-.52-1.65v-4.92h-1.1v-.86h1.1v-1.99h1.03v1.99h2.18v.86h-2.18Z"/><path class="cls-3" d="M115.33,13.87h-5.88c.05,.58,.25,1.04,.61,1.37,.36,.33,.8,.49,1.32,.49,.76,0,1.29-.32,1.61-.97h2.19c-.23,.77-.68,1.41-1.34,1.91-.66,.5-1.47,.75-2.43,.75-.77,0-1.47-.17-2.08-.52-.62-.34-1.09-.83-1.44-1.46-.34-.63-.52-1.36-.52-2.18s.17-1.56,.51-2.19c.34-.63,.81-1.11,1.42-1.45,.61-.34,1.31-.51,2.11-.51s1.45,.16,2.06,.49c.6,.33,1.07,.8,1.41,1.4,.33,.61,.5,1.3,.5,2.08,0,.29-.02,.55-.06,.78Zm-2.05-1.37c0-.52-.2-.94-.57-1.26-.37-.31-.82-.47-1.35-.47-.5,0-.93,.15-1.27,.46-.34,.3-.55,.73-.63,1.27h3.82Z"/><path class="cls-3" d="M116.85,11.08c.34-.62,.81-1.11,1.41-1.45,.6-.34,1.29-.52,2.06-.52,1,0,1.82,.25,2.48,.75,.65,.5,1.09,1.2,1.31,2.1h-2.19c-.12-.35-.31-.62-.59-.82s-.62-.3-1.02-.3c-.58,0-1.04,.21-1.38,.63-.34,.42-.51,1.02-.51,1.79s.17,1.36,.51,1.78c.34,.42,.8,.63,1.38,.63,.82,0,1.36-.37,1.61-1.1h2.19c-.22,.87-.66,1.56-1.32,2.08-.66,.51-1.48,.77-2.47,.77-.77,0-1.46-.17-2.06-.52-.6-.34-1.07-.83-1.41-1.45-.34-.62-.51-1.35-.51-2.19s.17-1.56,.51-2.19Z"/></g><g><path class="cls-1" d="M12.14,.63s1.95,.39,6.17,1.48c3.99,1.03,5.39,1.44,5.39,1.44,0,0,.21,4.11-1.6,11.55-1.46,6.01-6.91,9.33-9.95,11.22-3.04-1.88-8.49-5.21-9.95-11.22C.38,7.66,.58,3.55,.58,3.55c0,0,1.4-.41,5.39-1.44,4.22-1.09,6.17-1.48,6.17-1.48Z"/><g><path class="cls-3" d="M14.14,11.27v-2.88c0-1.11-.9-2.01-2.01-2.01s-2.01,.9-2.01,2.01v2.88h-1.15v-2.88c0-1.74,1.42-3.16,3.16-3.16s3.16,1.42,3.16,3.16v2.88h-1.15Z"/><rect class="cls-3" x="8.02" y="11.24" width="8.22" height="6.81" rx=".18" ry=".18"/><path class="cls-2" d="M12.53,14.3c0-.22-.18-.4-.4-.39-.2,0-.37,.17-.38,.38,0,.13,.06,.25,.15,.32v.54c0,.13,.11,.24,.24,.24h0c.13,0,.24-.11,.24-.24v-.54c.09-.07,.15-.18,.15-.31Z"/></g><path class="cls-3" d="M12.14,26.95l-.38-.24c-3.01-1.86-8.62-5.34-10.12-11.52C-.18,7.76,0,3.65,0,3.48l.02-.41,.39-.12c.06-.02,1.45-.43,5.4-1.44C10.01,.43,12,.03,12.02,.02l.11-.02,.11,.02s2.01,.41,6.2,1.49c3.95,1.02,5.35,1.43,5.4,1.44l.39,.12,.02,.41c0,.17,.19,4.28-1.62,11.72-1.5,6.18-7.11,9.65-10.12,11.52l-.38,.24ZM1.15,3.94c0,1.2,.15,5.03,1.59,10.98,1.36,5.59,6.3,8.76,9.39,10.67,3.09-1.92,8.03-5.09,9.39-10.67,1.45-5.95,1.59-9.78,1.59-10.98-.66-.19-2.19-.6-4.96-1.32-3.6-.93-5.55-1.35-6.02-1.45-.47,.1-2.43,.52-6.02,1.45C3.34,3.34,1.81,3.76,1.15,3.94Z"/></g></g></svg>