<?xml version="1.0" encoding="UTF-8"?>
<svg id="Capa_2" data-name="Capa 2" xmlns="http://www.w3.org/2000/svg" viewBox="0 0 361.11 37.56">
  <defs>
    <style>
      .cls-1 {
        fill: #0f73dd;
      }

      .cls-2 {
        fill: #1dd4bf;
      }
    </style>
  </defs>
  <g id="Layer_1" data-name="Layer 1">
    <g>
      <path class="cls-1" d="M329.65,12.89c-6.65-1.79-13.29-3.7-20.06-5.26-16.07-3.69-32.51-5.98-49.01-7.03-34.12-2.19-67.26,1.93-100.74,7.69-3.02,.52-6.04,.96-9.06,1.34v27.93h207.08V16.62c-9.54,0-19.03-1.26-28.21-3.73Z"/>
      <path class="cls-2" d="M361.11,37.56V13.16c-22.96,5.14-46.23,8.73-70.02,9.22-47.47,.97-93.68-9.19-140-17.13C107.26-2.27,61.51-1.54,17.78,6.32c-6.45,1.16-12.39,2.39-17.78,3.68v27.56"/>
    </g>
  </g>
</svg>